<?xml version="1.0" encoding="UTF-8" standalone="no"?>
<!DOCTYPE svg  PUBLIC '-//W3C//DTD SVG 1.1//EN'  'http://www.w3.org/Graphics/SVG/1.1/DTD/svg11.dtd'>
<svg xmlns="http://www.w3.org/2000/svg">
<defs>
<font id="GaramondPremrPro-Smbd" horiz-adv-x="497">
<font-face underline-position="-50" font-weight="600" descent="-200" panose-1="2 2 6 2 6 5 6 2 4 3" units-per-em="1000" unicode-range="U+0020-25CA" bbox="-182 -278 1047 861" x-height="397" underline-thickness="50" font-family="Garamond Premr Pro Smbd" ascent="800" cap-height="636"/>
<missing-glyph horiz-adv-x="1000"/>
<glyph glyph-name=".notdef" horiz-adv-x="1000"/>
<glyph glyph-name=".null" horiz-adv-x="0"/>
<glyph glyph-name="nonmarkingreturn" horiz-adv-x="333"/>
<glyph glyph-name="space" horiz-adv-x="193" unicode=" "/>
<glyph glyph-name="exclam" horiz-adv-x="288" unicode="!" d="M156 140q32 0 53 -23t21 -52q0 -30 -22 -53.5t-53 -23.5q-30 0 -51.5 22t-21.5 55q0 32 23 53.5t51 21.5zM161 612q33 0 51 -31t18 -64v-7q-3 -36 -20.5 -137t-28.5 -145q-2 -12 -9 -23.5t-17 -11.5q-5 0 -12.5 10t-10.5 26q-39 200 -46 276v11q0 45 23.5 70.5t51.5 25.5 z"/>
<glyph glyph-name="quotedbl" horiz-adv-x="351" unicode='&quot;' d="M290 688q6 0 12 -8t6 -23q0 -27 -13 -97.5t-23 -106.5q-4 -13 -12.5 -25t-17.5 -12q-5 0 -10 10.5t-6 18.5q-12 114 -17 185q0 11 11 20q44 38 70 38zM131 677q6 0 11.5 -9t5.5 -22q0 -26 -12.5 -96.5t-21.5 -100.5q-4 -12 -12.5 -23.5t-16.5 -11.5q-6 0 -11 9t-6 19 q-17 148 -21 173q0 10 9 19q43 43 75 43z"/>
<glyph glyph-name="numbersign" d="M315 377q0 3 0.5 5.5t-1 3.5t-3.5 1l-101 -3q-4 0 -6 -8l-25 -100q-1 -2 1 -5.5t5 -2.5l94 4q7 0 10 9zM458 438q-10 -46 -22 -46l-74 -3q-2 0 -4.5 -3.5t-3.5 -6.5l-25 -99q-1 -2 0.5 -4.5t3.5 -1.5l77 2q3 0 5 -10t1 -16q-2 -14 -10 -32.5t-16 -18.5l-73 -3 q-3 0 -6 -2.5t-3 -4.5l-41 -158q-5 -14 -28 -14q-5 0 -9.5 3t-2.5 8l40 158q1 3 -1.5 6t-4.5 3l-95 -4q-2 0 -6 -3.5t-4 -4.5l-42 -160q-3 -11 -25 -11q-5 0 -10 5t-4 8l40 155q3 10 -6 10l-72 -2q-2 0 -4.5 9t-2.5 12q4 17 11 36t13 19l75 4q7 0 9 7l25 99q0 9 -5 9l-78 -2 q-5 2 -5 22q0 13 2 20q3 9 10 20.5t11 12.5l77 4q7 0 9 7l37 142q6 12 28 12q3 0 7.5 -3.5t4.5 -5.5l-35 -142q0 -7 3 -7l97 3q8 0 9 7l39 147q3 9 30 9q1 0 3 -1.5t3.5 -4.5t0.5 -8l-36 -139q-2 -9 3 -9l76 1q4 -5 4 -24v-6z" unicode="#"/>
<glyph glyph-name="dollar" d="M270 618l8 64q0 6 6 6q8 0 16.5 -3t8.5 -7l-8 -60q0 -7 4 -7q55 -6 92 -22q8 -2 16 -29q10 -40 10 -65q0 -29 -11 -29t-17 14q-29 75 -92 97q-8 2 -8 -5l-20 -203q0 -8 5 -9q87 -42 126.5 -81t39.5 -107q0 -72 -73 -128q-42 -32 -132 -42q-7 0 -7 -7l-8 -75q-4 -7 -19 -7 h-2q-6 0 -12 6l8 76q0 7 -4 7q-22 2 -61 12q-52 12 -62 15q-13 3 -19 24q-12 68 -12 97q0 18 9 18q18 0 41 -43q26 -47 49 -65t57 -26q6 -1 6 4l23 212q2 6 -3 9q-76 37 -114.5 77.5t-39.5 111.5q0 59 49 108q24 23 63 38.5t80 16.5q6 0 7 7zM244 385l20 189q0 8 -6 8 q-45 -2 -71.5 -28.5t-26.5 -71.5q0 -62 78 -101q6 0 6 4zM260 234l-21 -197q0 -5 5 -5q42 5 73.5 31.5t31.5 71.5q0 32 -19 55t-64 48h-1q-1 1 -2 1q-3 0 -3 -5z" unicode="$"/>
<glyph glyph-name="percent" horiz-adv-x="729" unicode="%" d="M550 13q52 0 52 142q0 54 -17 106.5t-50 52.5q-30 0 -42.5 -43.5t-12.5 -98.5q0 -30 5.5 -63.5t22.5 -64.5t42 -31zM545 342q67 0 105 -54.5t38 -115.5q0 -79 -37 -132.5t-112 -53.5q-71 0 -107.5 53t-36.5 115q0 79 37.5 133.5t112.5 54.5zM560 638q10 0 17.5 -7 t7.5 -12q0 -57 -54.5 -155.5t-119.5 -184t-140.5 -181t-95.5 -126.5q-1 -1 -5 -1q-9 0 -16 5q-13 12 -7 22q69 109 203.5 320t194.5 307q10 13 15 13zM195 297q52 0 52 142q0 33 -5 66t-21 62.5t-41 29.5q-55 0 -55 -142q0 -51 17.5 -104.5t52.5 -53.5zM191 625q45 0 79 -29 t48.5 -67t14.5 -76q0 -76 -38.5 -130t-108.5 -54q-50 0 -85 29t-48 66t-13 77q0 78 38.5 131t112.5 53z"/>
<glyph glyph-name="ampersand" horiz-adv-x="782" unicode="&amp;" d="M263 578q-17 0 -34.5 -18.5t-17.5 -57.5q0 -30 25 -62.5t55 -48.5q8 -6 13 -2q13 7 24 28q13 20 13 61q0 29 -20 64.5t-58 35.5zM285 64q26 0 60 17.5t52 39.5q6 8 1 16q-35 48 -97.5 109t-84.5 72q-6 5 -14 -3q-55 -53 -55 -118q0 -27 12.5 -54.5t32.5 -44.5 q40 -34 93 -34zM278 609q63 -1 103 -39.5t40 -87.5q0 -17 -4 -30t-18 -26t-19 -18t-28.5 -19t-24.5 -15q-2 -2 -2 -5t2 -4q27 -18 74 -62t79 -83q5 -6 13 2q52 52 90 119q12 24 12 34q0 13 -49 22q-11 2 -11 11q0 4 7.5 10.5t15.5 6.5q70 0 117 5q11 1 35 4t30 3 q25 0 25 -10q0 -14 -21 -19q-39 -11 -61.5 -26t-58.5 -53q-5 -5 -115 -135q-7 -7 -3 -12l52 -70q36 -49 108 -51q29 0 71 21q3 2 5.5 -1.5t2.5 -8.5q0 -16 -17 -33q-53 -55 -145 -55q-39 0 -72 12q-25 9 -40 33q-6 10 -16.5 26.5l-17.5 27.5t-11 16q-3 2 -9 -1 q-47 -59 -94 -88q-44 -29 -93 -29h-4q-82 1 -132.5 51.5t-50.5 125.5q0 34 17.5 65.5t32 44.5t39.5 32q25 21 51 36q3 1 3 4.5t-2 4.5q-59 55 -59 113q0 71 53 113q46 38 100 38z"/>
<glyph glyph-name="quotesingle" horiz-adv-x="201" unicode="&apos;" d="M137 683q6 0 12.5 -8.5t6.5 -22.5q0 -28 -11.5 -92.5t-22.5 -101.5q-14 -39 -30 -39q-6 0 -12.5 10t-7.5 19q-11 112 -25 173q0 10 8 18q60 44 82 44z"/>
<glyph glyph-name="parenleft" horiz-adv-x="331" unicode="(" d="M139 285q0 -103 17.5 -179t44.5 -126t82 -128q9 -11 -1 -21q-28 -16 -35 -16q-15 0 -31 17q-146 174 -146 432q0 138 50 252.5t117 188.5q15 17 28 17q9 0 19 -6t11 -11q0 -1 1 -3q0 -5 -7 -12q-70 -76 -110 -187t-40 -218z"/>
<glyph glyph-name="parenright" horiz-adv-x="331" unicode=")" d="M200 250q0 146 -33.5 235.5t-112.5 196.5q-8 12 2 22q28 16 36 16q17 0 32 -17q144 -178 144 -428q0 -138 -50.5 -253.5t-117.5 -188.5q-15 -17 -26 -17q-9 0 -18 5.5t-10 10.5q-1 1 -1 4q0 6 5 12q70 77 110 187t40 215z"/>
<glyph glyph-name="asterisk" horiz-adv-x="323" unicode="*" d="M156 649h1q11 0 17 -17q7 -19 23 -89q0 -7 9 -2q47 33 74 41q22 5 24 -6q1 -8 -11 -22q-23 -23 -67 -54q-5 -5 1 -9q57 -32 79 -47q14 -11 14 -22q0 -14 -25 -8q-42 9 -86 31q-2 2 -4 0t-2 -4q1 -30 1 -75q0 -35 -16 -35q-14 0 -21 25q-9 34 -15 81q0 2 -1.5 3.5t-3 1.5 t-2.5 -1q-45 -26 -79 -38q-8 -3 -14 -3q-15 0 -15 9q0 11 13 22q10 9 68 51q7 4 -1 8q-55 29 -71 42q-14 9 -14 18q0 11 16 11q7 0 10 -1q17 -3 82 -29q3 0 5 5q-2 21 -2 57q0 25 1 33q1 21 12 23z"/>
<glyph glyph-name="plus" horiz-adv-x="624" unicode="+" d="M279 498q0 5 20.5 10t33.5 5q15 0 15 -11l-3 -211q0 -7 7 -7h201q3 0 6.5 -4.5t3.5 -10.5q0 -17 -4.5 -31t-9.5 -14l-196 -2q-8 0 -8 -10l-1 -210q0 -8 -16 -12.5t-33 -4.5q-5 0 -10 4.5t-5 9.5l-1 212q0 11 -7 11h-195q-17 0 -17 22q0 11 4.5 25.5t9.5 14.5h197q8 0 8 7 v207z"/>
<glyph glyph-name="comma" horiz-adv-x="240" unicode="," d="M109 143q36 0 62.5 -29.5t26.5 -80.5q0 -47 -30 -82.5t-60.5 -49.5t-47.5 -14q-20 0 -20 12q0 10 20 19q67 36 67 79q0 29 -39 36q-41 10 -41 49q0 27 20 44t42 17z"/>
<glyph glyph-name="hyphen" horiz-adv-x="311" unicode="-" d="M59 234q23 5 103 13.5t99 9.5q12 0 12 -14q0 -19 -6.5 -39.5t-15.5 -21.5q-137 -11 -196 -17h-1q-6 0 -10.5 5.5t-4.5 10.5q0 16 6.5 34t13.5 19z"/>
<glyph glyph-name="period" horiz-adv-x="240" unicode="." d="M122 133q34 0 51 -24.5t17 -48.5q-1 -33 -21.5 -52.5t-47.5 -19.5q-25 0 -46 19t-21 53q0 36 22.5 54.5t45.5 18.5z"/>
<glyph glyph-name="slash" horiz-adv-x="415" unicode="/" d="M315 646q11 21 19 21q15 0 30 -6q9 -4 9 -13q0 -4 -1 -6l-270 -692q-6 -19 -19 -19q-6 0 -12 3q-3 0 -7.5 1.5l-6 2t-2.5 -1.5q-8 4 -8 13q0 88 48.5 214t123 276t96.5 207z"/>
<glyph glyph-name="zero" d="M239 594q-31 0 -54 -42q-37 -70 -37 -224q0 -128 30.5 -219t83.5 -91q33 0 52 38q34 66 34 247q0 117 -21.5 186.5t-46.5 88.5q-18 16 -41 16zM252 625q58 0 102.5 -31.5t67 -81t33.5 -99.5t11 -99q0 -115 -32.5 -191.5t-83.5 -106.5q-47 -29 -96 -29h-4q-60 0 -105 32 t-68.5 83t-34.5 102.5t-11 100.5q0 215 124 293q46 27 97 27z" unicode="0"/>
<glyph glyph-name="one" d="M98 7q0 13 34 22q40 10 50 22t13 43q9 65 9 294v66q0 47 -2 55q-2 18 -15 21q-10 3 -26.5 6t-18.5 3q-24 5 -24 19q0 11 22 15q110 26 128 37q34 17 46 17h1q8 0 8 -10q0 -4 -0.5 -20.5t-1.5 -46.5t-1 -62q0 -14 -0.5 -70.5t-0.5 -94.5q0 -35 0.5 -103.5t0.5 -97.5v-6 q0 -48 9 -61t56 -25q24 -7 24 -22q0 -12 -27 -12q-5 0 -47 2t-64 2q-33 0 -67 -1.5t-55 -3t-24 -1.5q-27 0 -27 13z" unicode="1"/>
<glyph glyph-name="two" d="M53 -3q-5 0 -14 6t-9 10q-2 9 12 21q71 64 162 179q88 112 88 209q0 58 -30.5 88.5t-74.5 30.5q-62 0 -118 -58q-19 -19 -21 -19q-3 0 -8 5.5t-5 9.5q0 12 16 35q75 111 186 111q73 0 122.5 -49.5t49.5 -125.5q0 -81 -84 -172q-62 -67 -177 -179q-3 -5 5 -8q44 -4 122 -4 q81 0 109 4q31 5 56 37q14 18 22 18q11 0 11 -13q0 -9 -6 -23q-26 -55 -36 -105q-2 -10 -15 -10q-1 0 -57.5 1.5t-121.5 2.5t-85 1q-24 0 -99 -3z" unicode="2"/>
<glyph glyph-name="three" d="M247 625q68 0 108.5 -39.5t40.5 -83.5q0 -50 -36 -86q-26 -23 -65 -46q-6 -4 3 -8q85 -15 127 -68q28 -37 28 -92q0 -64 -39 -120t-105 -95q-78 -45 -165 -45q-39 0 -70 15.5t-31 37.5q0 6 8 26q17 24 35 24q10 0 28 -15q50 -42 103 -42q35 0 64 22q29 21 44 58.5 t15 71.5q0 71 -35 109q-31 34 -86 34q-35 0 -77 -14q-4 -1 -6.5 3t-1.5 9q3 11 21 26q16 12 48 27q89 39 89 117q0 43 -28.5 72.5t-67.5 29.5q-62 0 -105 -52q-15 -18 -23 -18q-10 0 -10 16q0 12 18.5 36.5t41.5 43.5q55 46 129 46z" unicode="3"/>
<glyph glyph-name="four" d="M388 441v-194q0 -9 5 -9l86 3q3 0 6.5 -3t3.5 -7q0 -8 -7 -24.5t-14 -19.5l-74 2q-4 0 -6 -7v-38q0 -33 1 -47q2 -37 10.5 -47.5t43.5 -21.5q22 -7 22 -17q0 -5 -7 -10t-20 -5h-7q-13 0 -50.5 2t-52.5 2q-19 0 -59 -2t-57 -2q-25 0 -25 13q0 11 28 20q34 9 42 19t11 42 q1 7 1 10q2 27 2 77q0 9 -7 9q-78 2 -162 2q-52 0 -78 -2q-18 -2 -18 9q0 7 23 42l317 440q9 15 21 15l16 -1q13 0 13 -8q0 -7 -3 -11l-312 -422q-4 -6 1 -8q22 -4 185 -4q5 0 5 8l1 178q0 12 10 19q9 5 44 14.5t47 9.5q14 0 14 -26z" unicode="4"/>
<glyph glyph-name="five" d="M439 186q0 -102 -93 -174q-45 -35 -115.5 -56t-112.5 -21h-21q-24 0 -24 10q0 5 8 14t12 9q56 6 107.5 25.5t91 60t39.5 92.5q0 40 -26 72.5t-71 51.5q-77 32 -162 48q-3 1 -9.5 12.5t-6.5 17.5q0 25 20.5 97t36.5 108q4 7 13 20.5t11 13.5q19 8 112.5 23t139.5 15 q3 0 8 -4t5 -7q0 -25 -23 -62.5t-38 -39.5q-84 -15 -198 -15q-4 0 -10 -4t-7 -7q-13 -30 -15 -46q-1 -3 2.5 -7.5t6.5 -5.5q49 -11 119 -34.5t97 -39.5q103 -60 103 -167z" unicode="5"/>
<glyph glyph-name="six" d="M327 369q48 0 82 -25t47 -58t13 -69q0 -121 -102 -191q-58 -43 -126 -43q-99 0 -155 64t-56 167q0 110 68 218.5t173 178.5q113 72 182 72q25 0 25 -14q0 -8 -17 -15q-90 -36 -173 -117q-59 -57 -99 -141.5t-40 -165.5q0 -92 40 -147.5t99 -55.5q26 0 48 19q35 32 35 98 q0 67 -30.5 107.5t-83.5 40.5q-21 0 -58 -15q-4 -1 -7.5 1.5t-3.5 5.5q0 15 13 28q25 22 61 39q36 18 65 18z" unicode="6"/>
<glyph glyph-name="seven" d="M261 611h27q61 0 130 3q10 0 20.5 0.5t16 1t7.5 0.5q6 0 11 -4t5 -9q0 -6 -3 -9q-20 -29 -209 -412q-104 -211 -104 -212q-7 -14 -15 -14q-7 0 -18 7t-11 13q0 10 17 40q184 352 248 483q1 3 0 6t-3 3q-42 5 -205 5q-53 0 -71 -6q-19 -3 -53 -51q-11 -17 -23 -17 q-9 0 -9 13q0 11 9 31q6 16 11.5 40t10 47.5t4.5 24.5q2 9 13 23q2 1 5 1q4 0 7 -1q16 -4 182 -7z" unicode="7"/>
<glyph glyph-name="eight" d="M233 610q-38 0 -60.5 -25t-22.5 -67q0 -73 126 -149q6 -6 12 0q23 18 35 44q17 39 17 75q0 41 -31.5 81.5t-75.5 40.5zM250 22q43 0 65 28t22 71q0 68 -128 158q-13 8 -17 6q-23 -13 -43 -51.5t-20 -81.5q0 -47 33 -87q38 -43 88 -43zM245 643q78 0 129 -43.5t51 -109.5 q0 -52 -55 -96q-9 -8 -30 -23t-24 -17t-3 -5t3 -4q59 -41 93 -84.5t34 -99.5q0 -72 -66 -124q-61 -49 -147 -49q-94 0 -144.5 48t-50.5 105q0 29 13.5 55t25 37t32.5 28q32 23 56 38q4 4 1 7q-32 21 -58 50q-52 54 -52 116q0 76 60 125q55 46 132 46z" unicode="8"/>
<glyph glyph-name="nine" d="M254 625q96 0 151.5 -71t55.5 -172q0 -111 -71 -223t-180 -176q-82 -48 -132 -48q-7 0 -15 4t-8 11t7 9q101 51 169 135q110 133 110 283q0 57 -15 108.5t-45 78.5q-28 22 -60 22q-41 0 -63.5 -37.5t-22.5 -81.5q0 -66 32 -108.5t88 -42.5q17 0 40 10q4 2 7.5 -1t3.5 -6 q0 -9 -5 -19q-9 -15 -19 -23q-45 -36 -96 -36q-65 0 -108.5 45.5t-43.5 123.5q0 50 26.5 101t86.5 85q53 29 107 29z" unicode="9"/>
<glyph glyph-name="colon" horiz-adv-x="297" unicode=":" d="M150 128q32 0 49 -24.5t17 -46.5q-1 -32 -21.5 -50t-46.5 -18t-46.5 17.5t-20.5 52.5t23 52t46 17zM150 386q32 0 49 -24t17 -47q-1 -32 -21.5 -50t-46.5 -18t-46.5 17.5t-20.5 53.5q0 34 23 51t46 17z"/>
<glyph glyph-name="semicolon" horiz-adv-x="297" unicode=";" d="M136 135q35 0 60 -28t25 -77q0 -64 -49.5 -102.5t-81.5 -38.5q-19 0 -19 12q0 10 18 19q64 28 64 76q0 25 -31 30q-16 3 -31 15.5t-15 35.5q0 26 19.5 42t40.5 16zM150 386q32 0 49 -24t17 -47q-1 -32 -21.5 -50t-46.5 -18q-25 0 -46 17.5t-21 52.5t23 52t46 17z"/>
<glyph glyph-name="less" horiz-adv-x="527" unicode="&lt;" d="M465 86q1 -1 1 -5q0 -28 -21 -49q-4 -4 -7 -4t-11 5l-325 179q-41 23 -41 33q0 4 5 14q17 22 33 31l325 182q10 6 13 6q1 0 7 -4q23 -23 23 -43q0 -6 -5 -9l-303 -161q-3 -1 -4 -4.5t3 -6.5z"/>
<glyph glyph-name="equal" horiz-adv-x="624" unicode="=" d="M554 192q9 0 9 -18t-4.5 -31t-9.5 -13l-476 2q-5 0 -9 8t-4 17q0 11 5 23t10 12h479zM552 381q11 0 11 -12q0 -50 -10 -50l-479 -2q-14 0 -14 17q0 12 4.5 27.5t10.5 15.5z"/>
<glyph glyph-name="greater" horiz-adv-x="527" unicode="&gt;" d="M465 260q0 -4 -6 -14q-14 -21 -32 -31l-330 -185q-1 -1 -4 -1q-5 0 -17 8q-17 17 -17 39q0 3 2 5q58 30 166 88t140 75q9 4 1 10q-132 70 -307 164q-2 2 -2 8q0 26 17 44q5 5 13 5h2q90 -49 333 -183q41 -23 41 -32z"/>
<glyph glyph-name="question" horiz-adv-x="376" unicode="?" d="M181 132q32 0 50.5 -21t18.5 -49q0 -31 -20.5 -52.5t-50.5 -21.5t-49.5 20.5t-19.5 52.5q0 31 22 51t49 20zM138 608q48 0 114 -48q20 -16 51 -59.5t31 -86.5q0 -71 -42 -109q-73 -44 -91 -53q-6 -3 -10 -6t-6 -8t-2.5 -8.5t-1 -10.5t-0.5 -10q-1 -11 -9.5 -17t-15.5 -6 q-6 0 -22 42q-15 43 -15 74q0 30 27.5 53t89.5 51q24 10 33.5 20t9.5 25q-2 54 -64 54q-4 0 -34.5 -6.5t-41.5 -6.5q-14 0 -30.5 24.5t-16.5 46.5q0 16 14.5 30.5t31.5 14.5z"/>
<glyph glyph-name="at" horiz-adv-x="861" unicode="@" d="M511 375q19 0 34 -13q5 -5 9 3q9 25 17 31t17 6q25 0 45 -12q5 -4 5 -15q-88 -210 -102 -285q-1 -4 -1 -11q0 -29 34 -29q79 0 134.5 65t55.5 161q0 121 -80 191t-206 70q-87 0 -157.5 -33.5t-114 -90t-66.5 -126t-23 -144.5q0 -57 18.5 -111t54 -99t96 -72t137.5 -27 q61 0 120.5 20.5t100.5 54.5q5 4 9 0.5t4 -11.5q0 -9 -10 -22q-43 -47 -114.5 -68.5t-135.5 -21.5q-53 0 -104 13.5t-96.5 42.5t-80 70.5t-54.5 101t-20 130.5q0 78 26.5 147.5t70.5 120t99.5 88t116.5 56t119 18.5q159 0 248.5 -86.5t89.5 -209.5q0 -112 -83.5 -192.5 t-209.5 -80.5q-33 0 -53.5 10t-21.5 21q0 17 3 28l26 71q2 4 -2 5q-2 1 -5 -2q-131 -133 -202 -133q-15 0 -25.5 14t-10.5 33q0 64 96 180q45 56 102 99.5t90 43.5zM474 317q-36 0 -70 -37q-32 -34 -55.5 -82t-23.5 -81q0 -32 18 -32q25 0 61 34q71 62 116 168q1 2 1 6 q0 9 -4 11q-19 13 -43 13z"/>
<glyph glyph-name="A" horiz-adv-x="677" unicode="A" d="M371 281q1 0 3 2.5t1 5.5q-37 117 -73 201q-2 5 -5.5 4t-5.5 -7q-67 -180 -72 -198q-2 -10 7 -10q78 2 145 2zM356 650q8 0 17 -22l40 -112q90 -252 143 -386q23 -56 41 -74t48 -27q26 -8 26 -18q0 -15 -33 -15q-12 0 -63.5 2t-67.5 2q-17 0 -51.5 -1t-46.5 -1 q-32 0 -32 15q0 12 26 17q41 10 41 34q0 2 -0.5 4t-0.5 4q-2 23 -46 146q-1 4 -8.5 9.5t-15.5 5.5h-41q-91 0 -127 -3q-4 0 -11 -10q-43 -108 -43 -145q0 -16 10.5 -26.5t36.5 -17.5q29 -7 29 -20t-30 -13q-7 0 -33 1t-47 1q-23 0 -59 -2t-40 -2q-29 0 -29 12q0 13 25 20 q37 10 52.5 26t38.5 63q13 27 85 209t88 221q5 10 7 20q1 4 8 14q3 4 22 27t23 29q9 13 18 13z"/>
<glyph glyph-name="B" horiz-adv-x="619" unicode="B" d="M444 176q0 43 -20 77.5t-54 52.5q-34 19 -86 19q-27 0 -34 -7q-8 -8 -8 -47v-15q0 -109 4 -161q2 -20 13 -32q32 -34 63 -34q49 0 85.5 43t36.5 104zM417 475q0 60 -36 94.5t-92 34.5q-13 0 -35 -6q-7 -3 -9 -16q-4 -32 -4 -213q0 -4 3.5 -8.5t7.5 -4.5q85 0 117 24 q48 34 48 95zM534 487q0 -35 -16.5 -64t-28 -38.5t-34.5 -25.5q-2 -1 -1.5 -5t2.5 -4q120 -50 120 -165q0 -88 -85 -145q-32 -23 -85.5 -33.5t-93.5 -10.5q-48 0 -183 3h-20q-14 0 -32.5 -0.5t-23.5 -0.5q-32 0 -32 16q0 12 28 17q43 8 54.5 20t14.5 41q8 84 8 319 q0 122 -6 150q-4 18 -15 25.5t-48 14.5q-26 4 -26 19q0 13 28 13h66q15 0 94 3.5t101 3.5q97 0 144 -30q70 -43 70 -123z"/>
<glyph glyph-name="C" horiz-adv-x="710" unicode="C" d="M426 650q66 0 130 -16q47 -12 72 -15q5 0 10 -8t5 -19q0 -10 2.5 -44.5t2.5 -51.5q0 -34 -17 -34q-10 0 -19 27q-17 52 -42 71q-69 58 -148 58q-114 0 -174 -78.5t-60 -199.5q0 -101 34 -169q39 -77 99 -113t125 -36q59 0 97 23q53 30 87 91q17 31 27 31t10 -22 q0 -7 -2 -15q-9 -45 -30 -87q-2 -7 -13.5 -17t-22.5 -15q-81 -29 -175 -29q-100 0 -178 35t-116 78q-84 97 -84 225q0 81 34.5 144t75.5 96q109 90 270 90z"/>
<glyph glyph-name="D" horiz-adv-x="760" unicode="D" d="M309 606q-32 0 -52 -11q-8 -5 -8 -14q-4 -48 -4 -176v-145q0 -105 4 -164q2 -26 20 -44q11 -10 33.5 -18.5t33.5 -8.5q79 0 150 59q44 37 68.5 103t24.5 140q0 54 -21.5 112t-58.5 96q-32 33 -84 52t-106 19zM354 641q93 0 160.5 -29.5t106.5 -66.5q42 -40 68 -99 t26 -119q0 -97 -48.5 -172t-109.5 -109q-95 -55 -229 -55q-82 0 -200 6q-30 1 -68 1q-33 0 -33 16q0 13 26 17q45 6 56.5 25t13.5 88q2 80 2 104v34v68q0 118 -3 163q-3 51 -12.5 66.5t-48.5 21.5q-9 2 -16.5 7t-7.5 10q0 6 8 10.5t19 4.5h52q21 0 109.5 4t128.5 4z"/>
<glyph glyph-name="E" horiz-adv-x="587" unicode="E" d="M250 633h150q46 0 88 6h1q9 0 11 -13q1 -18 1 -107q0 -11 -4.5 -19.5t-11.5 -8.5q-6 0 -11.5 8t-7.5 17q-15 67 -64 75q-34 6 -115 6h-24q-12 0 -13 -28q-4 -44 -4 -192v-27q0 -3 3 -6.5t7 -3.5h80q51 0 62 6.5t26 41.5q10 26 22 26q10 0 10 -24q0 -15 -2 -38.5t-2 -34.5 q0 -14 2 -36.5t2 -35.5q0 -26 -13 -26q-12 0 -19 22q-9 32 -22 42t-43 12q-32 3 -100 3q-3 0 -8 -5t-5 -7q-3 -23 -3 -76q0 -13 0.5 -35t0.5 -28q3 -78 4 -82q7 -21 22 -24q32 -6 81 -6q67 0 92 9q47 17 79 74q19 35 31 35q9 0 9 -19q0 -2 -0.5 -5.5t-0.5 -4.5 q0 -6 -16 -55.5t-22 -60.5q-2 -5 -10.5 -9t-13.5 -4q-3 0 -71 1.5t-148.5 2.5t-113.5 1q-37 0 -68.5 -2.5t-45.5 -2.5q-34 0 -34 13t30 20q39 9 52 23t16 53q8 112 8 242v130q0 49 -1 63q-2 29 -12.5 43.5t-40.5 20.5q-32 6 -32 18q0 6 10 10.5t21 4.5q23 0 88.5 -1.5 t92.5 -1.5z"/>
<glyph glyph-name="F" horiz-adv-x="544" unicode="F" d="M196 633h132q128 0 164 4h1q5 0 8.5 -3.5t3.5 -8.5v-16q0 -15 2 -49.5t2 -48.5q0 -10 -4.5 -17.5t-10.5 -7.5q-13 0 -23 33q-20 66 -67 73q-30 3 -95 3q-11 0 -26 -0.5t-18 -0.5q-4 0 -9.5 -4.5t-5.5 -6.5q-6 -36 -6 -214q0 -35 12 -35h47q56 0 69 2q24 4 34.5 12.5 t18.5 33.5q9 26 21 26t12 -24q0 -6 -2 -30t-2 -34q0 -20 1 -45t1 -31q0 -33 -17 -33q-10 0 -18 26q-12 42 -41 48q-26 6 -65 6t-62 -3q-4 -1 -9 -11q0 -39 2 -109.5t2 -72.5q2 -32 13 -44t48 -19q29 -5 29 -20q0 -6 -10 -10.5t-23 -4.5q-11 0 -46 1.5t-55 1.5 q-28 0 -78.5 -3t-64.5 -3q-29 0 -29 12q0 15 29 21q31 8 42 20.5t13 32.5q8 83 8 287q0 151 -2 177q-2 25 -13 37.5t-40 19.5q-32 9 -32 21q0 14 30 14q23 0 66 -1.5t63 -1.5z"/>
<glyph glyph-name="G" horiz-adv-x="743" unicode="G" d="M424 650q81 0 163 -21q22 -5 45 -8q10 0 12 -23q0 -12 7.5 -55t7.5 -65q0 -25 -17 -25q-9 0 -19 26q-15 41 -38 70q-21 25 -63.5 46.5t-96.5 21.5q-109 0 -174.5 -84.5t-65.5 -206.5q0 -108 42 -180q33 -59 89 -94.5t122 -35.5q34 0 63 20q21 14 21 70q0 73 -4 89 q-4 14 -9 22t-22.5 16t-48.5 11q-11 1 -20 6.5t-9 12.5q0 14 34 14q20 0 64 -2t56 -2q10 0 53 3t63 3q27 0 27 -15q0 -11 -23 -19q-16 -4 -24 -10.5t-8.5 -10t-2.5 -14.5q-5 -30 -5 -124q0 -14 16 -30q11 -8 11 -17q0 -4 -5 -8.5t-10 -6.5q-40 -12 -91 -22q-96 -20 -148 -20 q-81 0 -152 23t-116 64q-103 99 -103 249q0 144 111 241q47 42 119 66.5t149 24.5z"/>
<glyph glyph-name="H" horiz-adv-x="817" unicode="H" d="M246 361q2 -13 12 -13q29 0 138.5 2t166.5 2q7 0 9 25q1 5 1 56q0 77 -3 112q-3 29 -11.5 39.5t-37.5 17.5q-29 8 -29 21t33 13q5 0 51.5 -1.5t61.5 -1.5q18 0 61 1.5t46 1.5q31 0 31 -13t-32 -21q-25 -6 -33.5 -17.5t-10.5 -35.5q-8 -75 -8 -279q0 -51 4 -183 q1 -28 9.5 -36t41.5 -19q28 -9 28 -21q0 -14 -32 -14q-7 0 -45.5 1.5t-55.5 1.5q-11 0 -61.5 -2.5t-60.5 -2.5q-34 0 -34 14q0 13 27 21q36 10 44 24t12 71q3 39 3 112q0 39 -1 49q0 13 -8 13q-29 0 -126.5 1t-133.5 1q-14 0 -29 -1h-16q-4 -1 -8.5 -6t-4.5 -9 q-1 -11 -1 -50q0 -82 2 -126q1 -37 9.5 -51t38.5 -23q35 -10 35 -25q0 -5 -5.5 -8t-12.5 -4t-14 -1q-2 0 -26 0.5t-54 1.5t-45 1q-10 0 -50 -2t-58 -2q-35 0 -35 13q0 14 28 22q33 9 43.5 21t14.5 44q9 90 9 326q0 9 0.5 37t0.5 44q0 31 -1 44q-1 25 -10 35.5t-34 18.5 q-34 10 -34 22q0 14 31 14q14 0 54.5 -2t53.5 -2q23 0 62 1.5t49 1.5q33 0 33 -13q0 -14 -34 -22q-29 -6 -37 -20.5t-9 -48.5q-4 -108 -4 -140q0 -26 1 -31z"/>
<glyph glyph-name="I" horiz-adv-x="369" unicode="I" d="M124 334q0 155 -3 193q-2 29 -4 39.5t-13 20t-35 15.5q-30 8 -30 20q0 14 32 14q14 0 55.5 -1.5t58.5 -1.5q26 0 64.5 1.5t54.5 1.5q31 0 31 -14q0 -15 -31 -20q-18 -3 -29.5 -9t-16.5 -15.5t-6.5 -16.5t-2.5 -20q-4 -33 -4 -232q0 -149 3 -194t14 -60t52 -26 q28 -6 28 -21q0 -13 -31 -13q-18 0 -68 2.5t-72 2.5h-10q-13 0 -45 -1.5t-51 -1.5q-31 0 -31 17q0 12 30 19q33 8 43 24t12 51q5 63 5 226z"/>
<glyph glyph-name="J" horiz-adv-x="357" unicode="J" d="M-77 -168q0 8 11 24.5t20 25.5q3 4 14 9.5t15 5.5q13 0 31 -11q41 -29 63 -29q18 0 27 12q15 19 20 65q3 38 3 194v137q0 180 -5 285q-2 38 -56 51q-32 7 -32 22q0 14 31 14q14 0 52.5 -2t61.5 -2q31 0 70 1.5t52 1.5q28 0 28 -12q0 -14 -30 -22q-27 -6 -37 -20t-11 -50 q-3 -275 -7 -430q-3 -86 -38.5 -156.5t-87.5 -107.5q-71 -51 -123 -51q-26 0 -49 12.5t-23 32.5z"/>
<glyph glyph-name="K" horiz-adv-x="703" unicode="K" d="M43 622q0 14 30 14q11 0 50.5 -1.5t55.5 -1.5t56.5 1t51.5 1q32 0 32 -13q0 -10 -27 -18q-30 -9 -39 -19t-10 -42q-2 -19 -2 -101q0 -23 0.5 -59.5t0.5 -45.5q0 -7 7 -7q8 0 17 9q26 19 100 93.5t109 117.5q16 18 16 29q0 15 -34 24q-24 6 -24 16q0 14 25 14h42 q36 0 93 2.5t66 2.5q28 0 28 -12q0 -13 -36 -20q-27 -5 -53.5 -18.5t-39 -23t-44.5 -34.5q-78 -62 -159 -152q-5 -5 -1 -10q17 -26 110 -134t142 -159q23 -24 42 -33.5t53 -16.5q8 -2 14.5 -8t6.5 -9q0 -7 -9.5 -11.5t-19.5 -4.5q-13 0 -84.5 4t-85.5 4q-20 0 -46.5 -1 t-36.5 -1q-22 0 -22 16q0 9 47 23q7 3 0 14q-25 35 -85.5 109.5t-93.5 110.5t-37 37q-7 0 -7 -23v-26q0 -54 4 -182q0 -15 10.5 -25.5t40.5 -18.5q28 -8 28 -20q0 -15 -32 -15q-10 0 -58.5 1t-65.5 1q-15 0 -56 -2t-57 -2q-10 0 -18.5 5t-8.5 10q0 12 29 19q37 7 49 23.5 t14 61.5q3 42 3 226q0 120 -4 192q-1 35 -10 48t-38 21t-29 20z"/>
<glyph glyph-name="L" horiz-adv-x="586" unicode="L" d="M43 621q0 14 30 14q13 0 49 -1t51 -1q21 0 71.5 2t60.5 2q31 0 31 -12t-22 -19q-61 -15 -63 -40q-7 -50 -7 -299q0 -143 5 -185q1 -15 14.5 -26t21.5 -13q32 -5 83 -5q50 0 72 5q21 5 31 14q39 39 63 78q14 20 27 20q6 0 6 -11q0 -10 -2 -16q-21 -67 -32 -118 q-1 -4 -10.5 -10.5t-12.5 -6.5q-1 0 -37 2t-108 3.5t-162 1.5q-26 0 -80.5 -3t-67.5 -3q-30 0 -30 13q0 14 25 19q39 7 52 22t17 50q5 62 5 274q0 136 -1 169q-1 28 -10.5 40.5t-41.5 20.5q-28 7 -28 19z"/>
<glyph glyph-name="M" horiz-adv-x="886" unicode="M" d="M46 624q0 13 29 13t74.5 -2t87.5 -2q2 0 6 -5t5 -9q9 -29 38 -90q149 -306 163 -325q6 -6 9 -3q24 44 85 166t82 174q25 60 29 77q1 3 5.5 9t6.5 6q31 0 68.5 1t63 2t27.5 1q27 0 27 -12q0 -13 -29 -19q-22 -6 -45 -17q-24 -11 -24 -80q0 -315 12 -415q4 -27 16.5 -40.5 t47.5 -22.5q12 -3 19.5 -9t7.5 -12q0 -15 -30 -15q-2 0 -61 2.5t-80 2.5q-8 0 -45.5 -1.5t-49.5 -1.5q-29 0 -29 14q0 15 28 21q28 7 36 25.5t11 55.5q5 68 5 315v42q0 5 -1.5 8.5t-4.5 3t-5 -4.5q-86 -174 -145 -309q-20 -45 -60 -143q-13 -31 -28 -31q-9 0 -19 22 q-14 46 -37 102q-35 86 -87 201t-71 151q-6 12 -6 -3q-16 -128 -16 -332v-17q1 -43 12 -58.5t49 -27.5q29 -10 29 -22q0 -14 -29 -14q-16 0 -48.5 2t-43.5 2q-12 0 -45 -2t-44 -2q-31 0 -31 14q0 9 27 19q42 14 55 32t20 70q31 266 33 403q0 50 -38 60l-41 12q-21 6 -21 18z "/>
<glyph glyph-name="N" horiz-adv-x="772" unicode="N" d="M22 622q0 15 30 15q7 0 65 -2t87 -2q9 0 22 -13l84 -97q17 -21 61.5 -69t84.5 -90.5t91.5 -96.5t60.5 -63q3 -3 6 0t3 6q3 19 3 81q0 22 -0.5 72t-0.5 73q0 55 -6 107q-4 41 -62 56q-33 8 -33 23q0 12 29 12q13 0 36 -0.5t32 -0.5q27 0 66 2.5t49 2.5q24 0 24 -13 t-25 -20q-36 -12 -47 -27t-15 -48q-2 -28 -6 -170t-4 -204q0 -23 3 -84t3 -72q0 -6 -6 -12.5t-10 -6.5q-25 0 -54 38q-17 22 -65 81q-52 63 -180.5 206t-165.5 186q-4 4 -7.5 1t-3.5 -6q-4 -55 -5 -129q0 -38 -0.5 -93.5t-0.5 -72.5q0 -62 3 -98q3 -25 16 -39t47 -25 q28 -8 28 -19q0 -15 -33 -15q-14 0 -41.5 2t-45.5 2q-12 0 -49.5 -1.5t-45.5 -1.5q-26 0 -26 13q0 11 22 18q40 12 55.5 28.5t17.5 68.5q2 40 6.5 125.5l8 152t3.5 98.5q0 48 -6 56q-1 1 -6.5 7.5t-6 7.5t-5.5 6.5t-7.5 6.5t-8.5 5t-11.5 6t-13.5 4.5t-18 4.5q-9 2 -17.5 7 t-8.5 10z"/>
<glyph glyph-name="O" horiz-adv-x="783" unicode="O" d="M364 615q-31 0 -62 -15.5t-51 -35.5q-70 -68 -70 -224q0 -123 68 -222t172 -99q61 0 102 41q33 33 55 95.5t22 139.5q0 67 -26.5 143t-77.5 123q-26 23 -63 38.5t-69 15.5zM388 650q80 0 147.5 -28t110.5 -74t67 -103.5t24 -118.5q0 -171 -126 -272q-43 -33 -102 -52.5 t-117 -19.5q-159 0 -260 107q-86 92 -86 229q0 157 129 260q38 29 96 50.5t117 21.5z"/>
<glyph glyph-name="P" horiz-adv-x="584" unicode="P" d="M419 444q0 63 -38.5 113.5t-97.5 50.5q-15 0 -27 -9q-8 -8 -9 -37q0 -9 -0.5 -46.5t-1 -102.5t-0.5 -109q0 -54 1 -115t1 -65q1 -49 11 -66.5t51 -27.5q28 -7 28 -21t-31 -14q-11 0 -57 2.5t-70 2.5q-14 0 -53.5 -1.5t-55.5 -1.5q-37 0 -37 16q0 11 24 18q36 8 49 22.5 t15 49.5q6 80 6 156q0 256 -2 285t-13 41t-50 17q-23 4 -23 15q0 13 21 16q6 1 33 1q34 0 102.5 4t88.5 4q143 0 202 -58q58 -57 58 -135q0 -94 -66 -151q-20 -17 -56 -31t-64 -14q-34 0 -52 7q-21 9 -21 20q0 3 4.5 6.5t10.5 3.5h15q37 0 70.5 41.5t33.5 112.5z"/>
<glyph glyph-name="Q" horiz-adv-x="782" unicode="Q" d="M370 613q-58 0 -103 -36q-86 -69 -86 -255q0 -54 21 -112.5t58 -104.5q30 -37 74 -61t76 -24q67 0 105 26q40 28 62.5 103.5t22.5 135.5q0 72 -24 146t-69 121q-26 27 -64.5 44t-72.5 17zM394 650q140 0 241 -91.5t101 -233.5q0 -88 -28 -145.5t-80 -106.5 q-45 -41 -119 -71q-10 -4 -2 -14q12 -16 53.5 -48t76.5 -53q99 -60 167 -60q21 0 64 8q15 2 15 -7q0 -14 -21 -30q-18 -13 -53.5 -22.5t-60.5 -9.5q-116 0 -236 75q-16 9 -37.5 24.5t-56.5 42.5t-56 42q-58 41 -96 55q-100 39 -160 119.5t-60 188.5q0 173 139 272 q90 65 209 65z"/>
<glyph glyph-name="R" horiz-adv-x="651" unicode="R" d="M417 464q0 62 -43 106q-34 35 -81 35q-24 0 -38 -7q-9 -5 -12 -21q-5 -60 -5 -179q0 -40 2 -56q2 -12 13 -12q34 0 65.5 7.5t42.5 14.5q56 41 56 112zM541 476q0 -72 -70 -128q-6 -4 -39 -21q-8 -3 -2 -14q17 -37 67 -117t84 -119q33 -39 86 -50q7 -1 12.5 -6t5.5 -8 q0 -10 -16 -15q-21 -8 -67 -8q-104 0 -151 65q-43 59 -121 192q-21 35 -32 42q-15 13 -48 13q-9 0 -11 -10q-1 -6 -1 -39q0 -94 4 -160q2 -33 12 -44.5t44 -20.5q24 -7 24 -19q0 -15 -31 -15q-16 0 -59 3t-69 3q-21 0 -57 -2t-39 -2q-32 0 -32 16q0 9 24 16q34 10 46 22 t14 36q6 77 6 246q0 174 -5 219q-2 20 -13.5 31t-44.5 19q-25 7 -25 19q0 5 8.5 9.5t20.5 4.5h73q16 0 80.5 2.5t93.5 2.5q121 0 174 -44q24 -19 39 -52t15 -67z"/>
<glyph glyph-name="S" horiz-adv-x="498" unicode="S" d="M286 650q34 0 126 -17q3 -1 7.5 -8.5t5.5 -11.5q0 -8 5 -50.5t5 -43.5q0 -25 -9 -25q-7 0 -16.5 7t-12.5 17q-14 47 -43 71q-34 28 -80 28q-38 0 -70 -29t-32 -75q0 -41 29 -70.5t105 -77.5q85 -52 116 -100t31 -100q0 -41 -23 -81.5t-65 -65.5q-58 -36 -140 -36 q-77 0 -144 26q-6 3 -16 14.5t-10 14.5q-17 74 -17 107q0 5 6 13t10 8q12 0 39 -55q22 -44 60.5 -68t78.5 -24q38 0 71 27.5t33 72.5q0 34 -24 67t-89 75q-82 54 -119.5 101t-37.5 110q0 81 61 131q57 48 159 48z"/>
<glyph glyph-name="T" horiz-adv-x="678" unicode="T" d="M342 633q150 0 216 2q59 5 77 16q13 8 16 8t6.5 -5t3.5 -12q0 -5 -1 -8q-16 -57 -21 -116q0 -8 -5.5 -17t-13.5 -9q-12 0 -17 31q-7 42 -20.5 54t-51.5 14q-91 0 -122 -5q-10 -2 -10 -12q0 -18 -0.5 -89t-0.5 -119q0 -208 5 -271q3 -27 17.5 -41.5t60.5 -24.5 q10 -2 17.5 -8.5t7.5 -11.5q0 -13 -28 -13q-2 0 -67.5 2t-80.5 2q-17 0 -67.5 -3t-57.5 -3q-31 0 -31 12q0 14 22 21q47 12 58.5 28.5t14.5 70.5q9 133 9 334q0 32 -0.5 70t-0.5 47q0 6 -4 10t-7 4q-25 4 -113 4q-13 0 -30 -7t-25 -16q-13 -14 -34 -53q-16 -26 -22 -26 q-15 0 -15 22q0 6 9 56t10 79q0 4 5.5 12.5t10.5 8.5q2 0 4 -1t3.5 -2.5t3 -3.5t3.5 -4.5t3 -4.5q9 -14 41 -16q44 -6 222 -6z"/>
<glyph glyph-name="U" horiz-adv-x="763" unicode="U" d="M33 623q0 14 30 14q22 0 61 -2t56 -2q20 0 63 2t52 2q29 0 29 -15q0 -14 -30 -20q-27 -5 -38.5 -17t-15.5 -41q-4 -24 -4 -161v-109q0 -79 13.5 -117t42.5 -68q19 -19 57.5 -31.5t64.5 -12.5q145 0 175 131q19 84 19 275q0 69 -5 97q-2 23 -17 36t-49 21q-27 8 -27 20 t27 12q11 0 43 -2t49 -2q21 0 51 2t42 2q25 0 25 -15q0 -11 -26 -17q-37 -9 -50.5 -28t-14.5 -66q0 -10 -8 -218q-5 -119 -37.5 -182t-91.5 -97q-55 -31 -137 -31q-121 0 -188 61q-44 41 -62 98.5t-18 173.5q0 195 -4 243q-4 35 -50 45q-27 7 -27 19z"/>
<glyph glyph-name="V" horiz-adv-x="674" unicode="V" d="M-4 623q0 15 29 15q6 0 48.5 -2.5t70.5 -2.5q18 0 63.5 1t55.5 1q24 0 24 -12q0 -14 -25 -21q-40 -10 -40 -32q0 -4 4 -22q11 -36 69.5 -181.5t76.5 -182.5q2 -2 5 -2t4 2q8 16 66 152.5t78 189.5q8 24 8 35q0 4 -0.5 8t-2.5 7t-4 5.5t-5.5 5t-6 4t-7.5 3.5t-8 3 t-9.5 3.5t-9.5 3.5q-22 8 -22 17q0 6 8 10.5t19 4.5q15 0 41.5 -1.5t43.5 -1.5q16 0 48 2t42 2q30 0 30 -14t-27 -19q-33 -8 -52.5 -26t-38.5 -58q-5 -12 -31 -66t-56 -120t-57 -132q-50 -120 -75 -196q-3 -9 -11.5 -17.5t-15.5 -8.5t-13.5 8.5t-8.5 15.5q-12 52 -52 153 q-33 87 -149 366q-17 38 -33 55.5t-48 26.5q-26 7 -26 18z"/>
<glyph glyph-name="W" horiz-adv-x="982" unicode="W" d="M-5 623q0 14 29 14q25 0 62 -2t60 -2q24 0 56.5 1.5t33.5 1.5q28 0 28 -13t-28 -23q-24 -7 -24 -25q0 -3 2 -11q25 -64 183 -407q5 -7 9 1q50 92 69 139q3 5 0 14q-49 120 -99 214q-21 44 -32 57.5t-37 20.5q-24 7 -24 20q0 14 32 14q5 0 41 -2t55 -2q28 0 65.5 1.5 t38.5 1.5q25 0 25 -14q0 -13 -25 -20q-26 -6 -26 -24q0 -6 5 -21q14 -38 57 -130q3 -7 8 1q33 65 50 103q11 25 11 41q0 13 -7.5 19.5t-24.5 11.5q-24 10 -24 19q0 13 30 13q8 0 29.5 -1t39.5 -1t46 1t34 1q24 0 24 -11q0 -14 -29 -21q-30 -10 -46 -22t-37 -47 q-41 -70 -79 -142q-3 -9 1 -16q70 -155 102 -214q4 -7 10 3q82 175 159 364q8 20 8 36q0 28 -42 40q-26 7 -26 18q0 14 30 14q12 0 35.5 -2t33.5 -2q16 0 45 1.5t45 1.5q30 0 30 -11q0 -13 -29 -21q-29 -6 -43.5 -19.5t-35.5 -53.5q-28 -51 -134 -284q-86 -197 -101 -235 q-4 -10 -12.5 -18t-15.5 -8q-13 0 -19 20q-13 33 -32 74.5t-44 94t-38 80.5q-4 6 -7 1q-73 -136 -120 -253q-4 -8 -14.5 -15.5t-17.5 -7.5q-1 1 -3 2t-2.5 1.5t-2 1.5t-2.5 3t-2.5 4.5t-3.5 6.5q-51 131 -63 158q-122 281 -166 367q-16 32 -22 42t-20 21.5t-35 16.5 q-27 5 -27 19z"/>
<glyph glyph-name="X" horiz-adv-x="718" unicode="X" d="M63 638q8 0 66.5 -2.5t78.5 -2.5q21 0 47.5 1t40.5 1q29 0 29 -11q0 -14 -30 -25q-16 -4 -16 -18q0 -6 3 -12q35 -72 104 -172q6 -8 10 -1q23 26 64.5 83t57.5 84q3 6 3 11q0 19 -39 28q-13 3 -19.5 9t-6.5 11q0 13 27 13q16 0 45.5 -1t43.5 -1q13 0 55 2t54 2 q25 0 25 -11q0 -6 -8 -12t-17 -8q-46 -11 -74.5 -27t-56.5 -47q-8 -10 -38.5 -45.5t-52.5 -62.5t-42 -55q-4 -8 -1 -15q6 -15 58 -98t85 -130q32 -45 57.5 -66t76.5 -33q12 -3 18 -8.5t5 -10.5q0 -15 -33 -15q-10 0 -78.5 3.5t-95.5 3.5q-16 0 -48.5 -2.5t-37.5 -2.5 q-25 0 -25 13q0 12 24 20q25 9 30 12q3 2 4.5 7t-0.5 9q-14 28 -64 109.5t-58 89.5q-6 6 -10 2q-59 -69 -99 -133q-24 -38 -24 -59q0 -22 36 -35q25 -7 25 -18q0 -16 -25 -16q-13 0 -49 2t-54 2q-23 0 -57 -3t-43 -3q-32 0 -32 13q0 15 36 23q65 15 114 70q83 94 150 186 q5 6 2 14q-5 17 -58 102t-98 147q-18 24 -37 35.5t-49 17.5q-29 6 -29 20q0 16 30 16z"/>
<glyph glyph-name="Y" horiz-adv-x="641" unicode="Y" d="M5 626q0 13 30 13q9 0 56.5 -3t73.5 -3q13 0 44.5 1t52.5 1q25 0 25 -12q0 -15 -23 -21q-30 -5 -30 -24q0 -11 7 -24q35 -64 115 -200q2 -2 6.5 -1t6.5 4q82 128 111 185q10 18 10 30q0 23 -41 31q-27 6 -27 22q0 10 22 10q13 0 35 -1t33 -1q16 0 64 2.5t55 2.5 q23 0 23 -11q0 -13 -28 -21q-32 -8 -51.5 -24.5t-49.5 -52.5q-35 -44 -133 -195q-14 -24 -14 -54q0 -141 7 -199q3 -21 14.5 -32t49.5 -21q26 -7 26 -19q0 -14 -31 -14q-6 0 -51.5 2.5t-58.5 2.5q-29 0 -62 -1.5t-56 -3.5t-27 -2q-26 0 -26 13t29 20q63 18 65 46q2 40 2 84 q0 25 -0.5 63.5t-0.5 46.5q0 31 -9 49q-14 28 -119 199q-32 50 -51 68t-45 25q-29 6 -29 19z"/>
<glyph glyph-name="Z" horiz-adv-x="632" unicode="Z" d="M309 633q196 0 235 6q19 2 19 -8q0 -14 -13 -30q-25 -31 -82 -117q-65 -100 -148.5 -240t-102.5 -178q-2 -4 0 -9.5t5 -6.5q24 -11 113 -13q70 0 101 1q76 3 142 108q18 28 26 28q12 0 12 -24q-3 -32 -51 -137q-8 -18 -57 -18q-71 0 -214 2t-156 2q-26 0 -57 -1t-33 -1 q-6 0 -11.5 3.5t-5.5 9.5q0 8 32 49q45 59 174.5 271.5t144.5 248.5q2 4 0.5 8t-3.5 4q-35 5 -149 5q-31 0 -63 -6q-30 -7 -53 -24t-45 -56q-14 -25 -24 -25q-12 0 -12 18q0 4 2 12q2 9 21.5 59.5t26.5 78.5q2 12 12 12q9 0 15 -8q13 -16 50 -20q45 -4 149 -4z"/>
<glyph glyph-name="bracketleft" horiz-adv-x="338" unicode="[" d="M129 704q34 0 87 0.5t56 0.5q9 0 17 -5.5t8 -11.5t-7 -11t-16 -7q-51 -7 -88 -9q-5 0 -10.5 -7.5t-6.5 -16.5q-4 -75 -4 -322q0 -18 7 -391q0 -48 17 -50q13 -1 34.5 -3.5t38 -4.5t18.5 -2q6 0 16 -6t10 -12t-10 -11.5t-19 -5.5h-2h-74q-17 0 -51.5 -0.5t-35.5 -0.5 q-14 0 -14 33v585v125t-0.5 81.5t-0.5 27.5q0 16 7 21q3 3 23 3z"/>
<glyph glyph-name="backslash" horiz-adv-x="381" unicode="\" d="M352 -51q0 -1 0.5 -1t0.5 -1q0 -9 -9 -13q-15 -9 -30 -9h-1q-8 0 -16 21q-21 55 -70.5 159t-89 187.5t-71.5 183.5t-32 169q0 9 9 14q24 9 33 9q7 0 15 -19q240 -644 261 -700z"/>
<glyph glyph-name="bracketright" horiz-adv-x="338" unicode="]" d="M217 -171q-34 0 -85.5 -0.5t-54.5 -0.5q-11 0 -19.5 5.5t-8.5 11.5q0 5 9.5 11t20.5 8q52 8 83 10q12 0 14 23q4 73 4 321q0 15 -7 391q0 49 -17 50q-35 2 -89 10q-7 1 -16.5 6.5t-9.5 10.5q0 6 9.5 12.5t19.5 6.5h3q1 0 28 -0.5t43 -0.5q17 0 52 0.5t36 0.5q14 0 14 -33 v-585v-125t0.5 -83.5t0.5 -28.5q0 -13 -7 -18q-3 -3 -23 -3z"/>
<glyph glyph-name="asciicircum" horiz-adv-x="485" unicode="^" d="M243 626q12 0 33 -40l160 -304q4 -8 4 -13q0 -3 -3 -7q-9 -9 -24.5 -15.5t-24.5 -6.5q-4 0 -6 3l-137 275q-6 9 -11 -1l-134 -271q-1 -4 -8 -4q-9 0 -22.5 7t-20.5 15q-4 4 -4 7t5 13l156 299q22 43 37 43z"/>
<glyph glyph-name="underscore" horiz-adv-x="495" unicode="_" d="M0 -124h495v-49h-495v49z"/>
<glyph glyph-name="grave" horiz-adv-x="400" unicode="`" d="M162 656q14 0 27 -35q11 -24 49 -146q3 -11 3 -19q0 -14 -8 -14q-14 0 -25 16q-53 68 -97 146q-6 12 -6 24q0 14 24 22q14 6 33 6z"/>
<glyph glyph-name="a" horiz-adv-x="418" unicode="a" d="M190 49q20 0 38 12q9 5 9 19q4 28 4 89q0 10 -7 10q-13 0 -40 -9t-41 -17q-18 -13 -18 -40q0 -30 18.5 -47t36.5 -17zM218 407q67 0 104 -54q22 -29 22 -86q0 -23 -2 -95t-2 -74q0 -19 11.5 -29.5t25.5 -10.5q5 0 35 12q3 2 6 -1q3 -6 3 -14q0 -17 -32.5 -42.5 t-70.5 -25.5q-57 0 -75 48q-1 3 -4.5 4.5t-4.5 -0.5q-35 -25 -79 -42q-22 -8 -44 -8q-29 0 -53 30t-24 71q0 26 18 51q8 12 36 24q10 4 37.5 12.5t60 17.5t38.5 11q18 6 18 15q2 14 2 66v11q-1 22 -18.5 43t-48.5 21q-22 0 -32 -7q-6 -3 -6 -46q0 -5 -4 -9q-5 -5 -44 -22.5 t-44 -17.5q-4 0 -8.5 4.5t-4.5 9.5q0 42 84 96q25 16 56 26.5t44 10.5z"/>
<glyph glyph-name="b" horiz-adv-x="516" unicode="b" d="M364 187q0 75 -43 126q-15 18 -41 30.5t-54 12.5q-21 0 -39 -8q-6 -4 -8 -11q-2 -30 -2 -56q0 -111 9 -174q3 -35 28 -57q26 -27 61 -27q19 0 49 30q40 48 40 134zM484 207q0 -105 -94 -175q-29 -22 -71 -33t-76 -11q-65 0 -134 21q-7 3 -21 -4q-10 -4 -13 -4t-7 4t-4 9 q6 94 6 334q0 214 -3 237q-2 15 -21 31q-4 3 -8.5 6l-7.5 5t-5.5 4t-4 3t-2.5 2.5t-1 2.5q0 5 6 11t11 8q86 23 108 34q25 13 33 13q2 0 6.5 -6t4.5 -10q-9 -213 -9 -231q0 -54 1 -76q1 -4 4 -5q48 30 106 30q78 0 128 -44q68 -59 68 -156z"/>
<glyph glyph-name="c" horiz-adv-x="414" unicode="c" d="M273 402q25 0 55 -6t43 -16q17 -12 17 -36q0 -12 -16.5 -29.5t-22.5 -17.5q-17 0 -46 25q-3 2 -11 9t-11.5 9.5t-10 7.5t-11 7t-11 5t-12.5 4t-12 1q-22 0 -43 -22q-39 -41 -39 -122q0 -67 32 -105q39 -54 109 -54q43 0 96 33q4 3 8.5 0.5t4.5 -8.5q0 -15 -16 -31 q-27 -29 -68.5 -48t-85.5 -19q-52 0 -93 23t-64 57q-33 51 -33 116q0 109 100 174q26 18 68 30.5t73 12.5z"/>
<glyph glyph-name="d" horiz-adv-x="522" unicode="d" d="M238 369q-29 0 -59 -30q-37 -40 -37 -122q0 -66 39 -116.5t95 -50.5q30 0 48 15q3 2 8.5 19t5.5 28q0 7 0.5 36.5t0.5 48.5q0 69 -2 88q-5 26 -18 40q-37 44 -81 44zM274 405q39 0 55 -2q5 -1 8 9q2 10 2 59q0 97 -4 129q-3 25 -42 42q-14 6 -14 10t7 11t11 8 q86 13 126 29q12 5 19 5q3 0 6.5 -6.5t2.5 -13.5q-9 -86 -9 -380q0 -55 0.5 -98.5t1 -66.5t0.5 -28q1 -70 18 -70q4 0 24 2t26 2t6 -8q0 -4 -8.5 -14.5t-12.5 -12.5q-86 -13 -106 -20q-33 -11 -44 -11q-4 0 -8 5t-4 9q0 3 1 16.5t1 21.5q0 3 -2.5 5.5t-4.5 1.5 q-57 -47 -123 -47q-69 0 -120 48q-55 51 -55 141q0 122 108 186q27 17 66.5 27.5t67.5 10.5z"/>
<glyph glyph-name="e" horiz-adv-x="414" unicode="e" d="M234 379q-31 0 -57.5 -25t-35.5 -60q-2 -10 7 -10h28h79q14 0 24.5 8.5t10.5 25.5q0 21 -17.5 41t-38.5 20zM241 407q65 0 107 -42q38 -36 38 -88q0 -6 -7 -15t-15 -9h-218q-9 0 -11 -7q-4 -11 -4 -36q0 -18 9 -46.5t22 -46.5q39 -50 111 -50q63 0 90 35q8 12 13 12 q3 0 6 -4.5t3 -8.5q0 -12 -8 -25q-56 -87 -160 -87q-84 0 -134.5 57t-50.5 144q0 62 33.5 116t93.5 82q40 19 82 19z"/>
<glyph glyph-name="f" horiz-adv-x="304" unicode="f" d="M202 393q27 0 51 0.5t37 0.5h13q5 0 9.5 -15t4.5 -31q0 -2 -5.5 -6.5t-9.5 -4.5q-3 0 -47.5 1t-50.5 1q-2 0 -5 -4t-3 -7v-24q0 -166 4 -224q2 -25 12 -35t46 -17q25 -6 25 -17q0 -14 -30 -14q-4 0 -34 1.5t-44 1.5q-36 0 -80 -2t-48 -2q-25 0 -25 14q0 3 6.5 8.5 t14.5 7.5q29 9 35 20.5t7 47.5q2 82 2 225q0 19 -8 19l-43 -2q-3 0 -7 5.5t-3 10.5l52 41q10 9 10 14q0 82 33 145q34 73 96 114q53 37 114 39h4q36 0 65 -18q9 -6 17 -18.5t8 -23.5q0 -15 -11.5 -31.5t-24.5 -21.5q-10 -4 -21 -4q-12 0 -30 20q-46 46 -72 46q-25 0 -39 -23 q-32 -46 -32 -230q0 -2 3 -5t4 -3z"/>
<glyph glyph-name="g" horiz-adv-x="455" unicode="g" d="M248 -224q45 0 78 17q45 26 45 79q0 31 -17 49q-19 21 -56 26q-35 5 -104 5q-32 0 -48 -12q-30 -27 -30 -64q0 -43 35 -71q36 -29 97 -29zM215 383q-25 0 -39 -21q-23 -31 -23 -85q0 -50 22.5 -89.5t57.5 -39.5q13 0 31 15q27 25 27 101q0 15 -6 40.5t-16 40.5 q-25 38 -54 38zM225 411q39 0 95 -16q4 -1 13.5 -3.5t13.5 -2.5q90 -4 113 -8q10 -2 10 -11q0 -10 -9 -24t-13 -14h-22q-24 0 -36 1q-2 0 -4 -1.5t-2.5 -3t0.5 -2.5q6 -24 6 -43q0 -81 -57 -125q-52 -38 -121 -38q-20 0 -40 2q-11 2 -14 -2q-19 -12 -19 -26q0 -13 13 -24.5 t24 -12.5q177 -8 188 -10q25 -3 51 -24q43 -38 43 -91q0 -54 -31.5 -94.5t-71.5 -65.5q-70 -44 -152 -44q-74 0 -126 34q-53 37 -53 90q0 38 31 59q7 5 32 20.5t32 20.5q6 4 0 7q-26 9 -41 19q-39 27 -39 79q0 7 7 12q2 2 20 13t36 23.5t25 20.5q2 1 1.5 4.5t-3.5 5.5 q-30 14 -55.5 46t-25.5 80q0 67 60 112q50 37 121 37z"/>
<glyph glyph-name="h" horiz-adv-x="525" unicode="h" d="M308 407q73 0 108 -48q28 -38 28 -110l4 -180q1 -18 10 -27t30 -14q26 -6 26 -18q0 -14 -29 -14q-15 0 -42 2t-40 2q-19 0 -47 -1.5t-45 -1.5q-25 0 -25 13q0 10 21 16q17 5 23 14.5t8 35.5q2 22 2 167q0 61 -25 82q-25 22 -61 22q-38 0 -57 -14q-10 -8 -12 -34 q-3 -51 -3 -152q0 -17 0.5 -39.5t0.5 -25.5q1 -25 8.5 -36t25.5 -16q24 -6 24 -17q0 -14 -29 -14q-2 0 -15.5 0.5t-34 0.5h-41.5q-24 0 -52.5 -1.5t-33.5 -1.5q-25 0 -25 14q0 11 28 19q20 8 26.5 19t8.5 30q9 79 9 286q0 202 -3 222q-2 16 -8 22.5t-29 22.5q-10 5 -10 19 q0 6 7 7q103 24 130 40q11 7 17 7q3 0 6.5 -5t3.5 -8q-12 -85 -12 -311v-20q0 -2 2.5 -4t4.5 -1q56 51 117 51z"/>
<glyph glyph-name="i" horiz-adv-x="272" unicode="i" d="M148 616q24 0 38.5 -20.5t14.5 -41.5q0 -24 -20 -42.5t-40 -18.5q-23 0 -40 17q-19 19 -19 44q0 27 16 44q20 18 50 18zM146 0q-18 0 -54 -2t-43 -2q-28 0 -28 13q0 10 26 18q33 10 37 29q6 21 6 156q0 78 -2 90q-1 8 -34 36q-12 12 -12 16q0 14 27 19q24 5 71.5 20.5 t48.5 15.5q3 0 6.5 -4t3.5 -7q-5 -85 -5 -226q0 -31 2 -101q1 -21 9 -28t30 -14t22 -19q0 -13 -28 -13q-2 0 -36 1.5t-47 1.5z"/>
<glyph glyph-name="j" horiz-adv-x="259" unicode="j" d="M123 619q34 0 50.5 -21.5t16.5 -40.5q0 -30 -20.5 -46t-41.5 -16q-18 0 -38 19t-20 45q0 28 23 47q13 13 30 13zM29 354q0 7 17 12q79 20 118 42q10 6 18 6q3 0 7 -5t4 -8q0 -23 -1.5 -181t-2.5 -172q-3 -106 -42 -170q-39 -66 -88 -105q-18 -16 -39.5 -28t-27.5 -12 q-15 0 -24 12q-1 1 -1 4q0 5 4 8q45 29 62 48q49 59 49 243q0 194 -3 241q-2 23 -39 48q-11 7 -11 17z"/>
<glyph glyph-name="k" horiz-adv-x="505" unicode="k" d="M291 393h42q34 0 85 5.5t60 5.5t9 -8t-8 -15.5t-13 -8.5q-43 -10 -67 -21t-57 -35q-14 -10 -35 -30t-25 -27q-3 -5 -1 -7q13 -21 70 -94.5t81 -97.5q29 -26 61 -34q25 -8 25 -16q0 -16 -31 -16q-7 0 -54 2.5t-76 2.5h-12l-48 -1q-26 0 -26 14q0 9 22 15q16 6 16 15 q0 4 -3 8q-15 21 -47 62.5t-50 66.5q-15 20 -19 20q-3 0 -5 -9q-3 -8 -3 -49q0 -53 4 -77q2 -11 4.5 -17t9.5 -11.5t21 -8.5q21 -6 21 -15q0 -15 -27 -15q-13 0 -48 1.5t-47 1.5q-20 0 -53.5 -2t-37.5 -2q-28 0 -28 13q0 9 29 18q23 7 31.5 16t10.5 29q7 133 7 307 q0 165 -6 221q-2 11 -30 28q-16 8 -16 21q0 6 16 10q82 18 118 38q18 9 21 9q2 0 6 -5t3 -8q-9 -52 -9 -372v-32q0 -54 3 -63q1 -6 8 -6q3 0 16 11q21 18 58 55.5t52 55.5q2 4 2 6q0 12 -29 17q-21 5 -21 14q0 5 6.5 9.5t13.5 4.5z"/>
<glyph glyph-name="l" horiz-adv-x="264" unicode="l" d="M33 646q0 10 18 17q9 2 32 8t35.5 9.5t30.5 11t32 16.5h1q3 0 7 -3.5t4 -6.5q-8 -96 -8 -387q0 -200 4 -240q2 -13 5 -20t12.5 -14t27.5 -12q21 -7 21 -17q0 -12 -27 -12q-13 0 -52 2t-47 2q-12 0 -47.5 -2t-45.5 -2q-29 0 -29 12q0 13 24 17q24 7 32 21.5t10 54.5 q6 90 6 315q0 147 -1 175q-1 14 -27 34q-18 15 -18 21z"/>
<glyph glyph-name="m" horiz-adv-x="783" unicode="m" d="M47 346q0 4 7 10.5t12 8.5q41 11 108 45q2 2 6 2h1q1 -1 2 -1q9 -5 9 -13t-1.5 -23t-1.5 -20q0 -2 2.5 -5t4.5 -1q73 58 135 58q47 0 73 -21q20 -14 32 -36q2 -6 8 -3q34 26 65 42q35 18 67 18q53 0 86 -35q34 -33 38 -101q2 -40 5 -206q2 -30 35 -40q20 -6 20 -16 q0 -13 -28 -13q-9 0 -37.5 2t-42.5 2q-18 0 -45 -1.5t-37 -1.5q-25 0 -25 15q0 8 20 15q19 6 24.5 16t7.5 40v25q0 24 -0.5 81t-0.5 68q0 32 -14 56q-21 33 -63 33q-35 0 -62 -22q-8 -6 -8 -31v-102q0 -103 1 -114q2 -25 9.5 -34.5t32.5 -16.5q21 -6 21 -15q0 -14 -26 -14 q-11 0 -44.5 1.5t-45.5 1.5q-11 0 -41 -1t-41 -1q-29 0 -29 15q0 8 20 14q21 6 28.5 17t7.5 37l1 171v7q0 40 -12 57q-22 31 -65 31q-33 0 -61 -22q-9 -9 -9 -22q-1 -65 -1 -231q0 -31 35 -43q24 -8 24 -18q0 -5 -8.5 -9t-18.5 -4q-1 0 -17.5 0.5t-40 1t-40.5 0.5 q-18 0 -46.5 -2t-37.5 -2q-28 0 -28 13q0 10 25 17q25 6 32 17.5t10 46.5q5 67 5 192q0 18 -6 23q-36 36 -36 41z"/>
<glyph glyph-name="n" horiz-adv-x="534" unicode="n" d="M49 350q0 4 6.5 12t11.5 10q52 16 81 30q30 15 34 15q3 0 7 -6t4 -9q0 -6 -0.5 -23t-0.5 -21q0 -5 7 -5q72 54 127 54q57 0 92 -40q36 -41 36 -121q0 -140 3 -182q3 -25 35 -34q26 -7 26 -18q0 -14 -29 -14q-11 0 -44 1t-47 1t-43.5 -1.5t-35.5 -1.5q-27 0 -27 14 q0 10 24 17q17 7 22.5 16.5t7.5 34.5q2 33 2 186q0 40 -22 60q-23 21 -57 21q-38 0 -66 -20q-7 -5 -10 -22v-29q0 -195 2 -215q1 -12 7 -18t28 -13q17 -8 17 -17q0 -14 -28 -14q-9 0 -37.5 1t-39.5 1q-21 0 -54 -1.5t-39 -1.5q-27 0 -27 15q0 10 21 16q25 8 32 18t9 38 q5 50 5 211q0 15 -29 41q-11 11 -11 14z"/>
<glyph glyph-name="o" horiz-adv-x="504" unicode="o" d="M242 374q-26 0 -49 -22q-41 -37 -41 -131q0 -59 12 -96q15 -50 45.5 -77t63.5 -27q22 0 44 25q37 48 37 137q0 94 -40 151q-31 40 -72 40zM261 407q81 0 146 -58t65 -150q0 -58 -27.5 -103t-61.5 -67q-58 -41 -138 -41q-34 0 -72 14.5t-66 37.5q-33 27 -54 69.5t-21 84.5 q0 97 69 155q67 58 160 58z"/>
<glyph glyph-name="p" horiz-adv-x="514" unicode="p" d="M250 346q-31 0 -53 -12q-9 -10 -11 -26q-5 -35 -5 -112q0 -47 1 -66q0 -28 10 -46q15 -26 39.5 -41.5t42.5 -15.5t33 12q34 25 47.5 70.5t13.5 80.5q0 72 -42 119q-15 17 -38 27t-38 10zM319 405q29 0 60.5 -16t52.5 -40q49 -56 49 -131q0 -107 -86 -174 q-65 -51 -154 -51q-31 0 -49 3q-3 1 -5.5 -4.5t-2.5 -9.5v-27q0 -85 4 -121q3 -23 11.5 -34.5t36.5 -19.5q27 -8 27 -21q0 -14 -28 -14q-13 0 -63.5 2.5t-69.5 2.5q-10 0 -33.5 -1.5t-47.5 -1.5q-29 0 -29 16q0 11 26 18q35 7 44 21.5t11 59.5q4 70 4 213v119q0 79 -1 98 q-1 23 -8 28q-37 30 -37 36q0 4 6.5 12t14.5 11q73 22 102 39q15 9 20 9q3 0 7.5 -5t4.5 -9q0 -1 -3 -47q0 -3 3 -5.5t5 -1.5q28 19 59 32q34 14 69 14z"/>
<glyph glyph-name="q" horiz-adv-x="511" unicode="q" d="M240 373q-23 0 -44 -18q-47 -39 -47 -141q0 -88 52 -143q35 -34 90 -34q19 0 36 11q11 6 11 32q0 149 -8 196q-6 39 -18 56q-12 19 -34 30t-38 11zM267 407q52 0 86 -10q30 -10 34 -10q8 0 23 13q19 19 34 19q10 0 7 -17q-10 -64 -10 -363q0 -135 3 -200q1 -28 10 -38.5 t42 -17.5q23 -6 23 -16q0 -16 -28 -16q-53 0 -133 -5l-81 -6q-31 0 -31 14q0 11 24 17q28 7 43 19t17 20t3 23q5 68 5 177q0 4 -1.5 6.5t-4.5 1.5q-60 -30 -105 -30q-87 0 -143 56q-24 24 -38 63t-14 77q0 118 101 185q24 15 63.5 26.5t70.5 11.5z"/>
<glyph glyph-name="r" horiz-adv-x="359" unicode="r" d="M44 348q0 15 13 19q80 25 101 38q19 12 24 12q4 0 8 -4.5t4 -7.5q0 -9 -1.5 -27.5t-1.5 -28.5q0 -2 3 -4t5 0q25 26 54.5 44t51.5 18q29 0 43.5 -13.5t14.5 -27.5q0 -6 -6 -16q-10 -16 -27 -37t-22 -22q-14 0 -18 4q-10 9 -30 18.5t-33 9.5q-18 0 -25 -6q-9 -7 -9 -20 q0 -119 6 -209q3 -48 23 -52q10 -2 43 -13q20 -6 20 -16q0 -12 -28 -12q-11 0 -59.5 2.5t-81.5 2.5q-10 0 -32 -1.5t-34 -1.5q-24 0 -24 14q0 6 23 15q26 9 32 23t7 61v165q0 31 -8 38q-36 29 -36 35z"/>
<glyph glyph-name="s" horiz-adv-x="347" unicode="s" d="M196 407q31 0 57 -6q20 -3 36 -11q8 -6 9 -17q4 -28 4 -64q0 -7 -5 -14t-10 -7q-9 0 -22 24q-34 65 -83 65q-19 0 -34.5 -16t-15.5 -35q0 -17 13 -33t28.5 -25.5t46.5 -27.5q60 -32 79 -60t19 -66q0 -61 -63 -101q-15 -10 -46.5 -17.5t-54.5 -7.5q-74 0 -101 23 q-4 5 -11.5 32t-7.5 50t10 23q11 0 24 -23q23 -39 49 -57t48 -18q21 0 40 13q20 16 20 45q0 30 -40 55q-54 34 -69 43q-70 44 -70 112q0 29 16.5 56t46.5 44q39 21 87 21z"/>
<glyph glyph-name="t" horiz-adv-x="331" unicode="t" d="M190 393q10 0 35.5 0.5t47.5 1.5t23 1q4 0 9.5 -3t5.5 -8q3 -29 3 -41t-26 -12h-95q-10 0 -10 -7q0 -24 -0.5 -97.5t-0.5 -104.5q0 -32 16 -47q19 -17 49 -17q18 0 44 14q11 7 17 7q7 0 7 -16q0 -10 -16 -29q-45 -47 -114 -47q-29 0 -54.5 12.5t-38.5 30.5q-18 24 -18 71 q0 19 2 109.5t2 107.5q0 8 -38 22q-12 5 -12 17q0 5 5 9q77 51 105 80q19 22 23 22q5 0 12.5 -6t7.5 -11v-50q0 -2 3 -5.5t6 -3.5z"/>
<glyph glyph-name="u" horiz-adv-x="513" unicode="u" d="M256 51q32 0 61 24q3 2 6.5 11t3.5 12l1 224q0 15 -17 23q-5 2 -40 15q-16 5 -16 18q0 3 5.5 6.5t11.5 3.5q69 0 132 13q20 4 24 4q10 0 10 -16q-5 -90 -5 -322q0 -18 13 -18q3 0 20 3.5t25 3.5q2 0 7 -11.5t5 -14.5q0 -2 -4.5 -6.5t-7.5 -4.5q-30 -2 -102 -21 q-44 -13 -52 -13q-3 0 -7 4.5t-4 9.5q0 7 2 41q0 2 -1 4.5t-2.5 3t-2.5 -0.5q-51 -37 -70 -44q-32 -15 -64 -15q-67 0 -102 53q-11 16 -11 53q0 141 -3 221q0 14 -6 22.5t-11 11.5t-17 8q-18 8 -18 21q0 11 16 11q12 0 45.5 2.5t62.5 5.5t30 3q3 0 5.5 -5.5t2.5 -9.5 q0 -9 0.5 -32t0.5 -36q0 -43 -1 -117.5t-1 -86.5q0 -26 19 -43q25 -19 56 -19z"/>
<glyph glyph-name="v" horiz-adv-x="424" unicode="v" d="M-12 386q0 4 9 8t19 4q6 0 52 -2.5t52 -2.5q15 0 40 1.5t30 1.5q24 0 24 -12q0 -13 -24 -19q-22 -5 -22 -18q0 -4 4 -16q15 -46 41.5 -107t34.5 -74q4 -6 8 2q8 14 34 80t34 90q3 9 3 16q0 20 -34 30q-20 7 -20 16q0 12 25 12q5 0 25 -1.5t30 -1.5t33.5 2.5t33.5 2.5 q23 0 23 -11t-23 -19q-32 -11 -54 -48q-29 -55 -81 -181q-29 -71 -49 -131q-4 -11 -12.5 -18.5t-15.5 -7.5q-8 0 -15 18q-18 55 -39 105q-63 161 -99 223q-17 31 -43 39q-24 10 -24 19z"/>
<glyph glyph-name="w" horiz-adv-x="658" unicode="w" d="M111 393q13 0 36 1.5t32 1.5q25 0 25 -12q0 -10 -23 -17q-18 -4 -18 -18q0 -6 3 -15q10 -28 40.5 -106t36.5 -91q5 -7 9 -1q36 75 55 120q3 7 3 17q-7 26 -22 59q-16 28 -37 36q-22 7 -22 19q0 10 25 10q6 0 35 -2t43 -2q8 0 40.5 2t44.5 2q23 0 23 -11q0 -12 -20 -17 q-28 -8 -28 -22q0 -9 8 -28q1 -3 33 -82t41 -99q3 -6 8 0l50 126q21 56 21 73q0 21 -41 31q-24 7 -24 17q0 12 24 12q5 0 29 -2t36 -2q17 0 43 2.5t33 2.5q22 0 22 -10q0 -12 -29 -19q-27 -9 -49 -47q-27 -51 -98 -216l-40 -101q-6 -19 -15 -19q-13 0 -27 19q-1 2 -11 31 t-16 43q-7 16 -26.5 64.5t-31.5 75.5q-2 2 -7 0q-55 -107 -88 -187q-19 -48 -31 -48q-14 0 -19 15l-27 74q-7 19 -46.5 113.5t-54.5 124.5q-9 20 -13.5 27.5t-14 16.5t-23.5 13q-24 6 -24 15q0 14 29 14q9 0 47.5 -2t50.5 -2z"/>
<glyph glyph-name="x" horiz-adv-x="434" unicode="x" d="M9 386q0 13 28 13q7 0 46 -3t63 -3q12 0 32.5 1t28.5 1q22 0 22 -12q0 -11 -18 -17q-17 -7 -17 -18q0 -6 18 -36.5t31 -48.5q1 -2 3 -2t3 2q34 42 49 70q6 9 6 15q0 10 -15 15q-29 10 -29 20q0 12 20 12q5 0 25.5 -1t30.5 -1q14 0 43 2.5t37 2.5q22 0 22 -11 q0 -9 -19 -16q-53 -13 -85 -50q-27 -30 -69 -84q-3 -3 -1 -7q15 -35 89 -151q29 -40 69 -51q25 -6 25 -17q0 -15 -25 -15q-6 0 -57.5 2t-67.5 2q-10 0 -31 -1.5t-32 -1.5q-8 0 -15 4.5t-7 9.5q0 11 22 17q20 5 20 15q0 8 -9 23q-39 67 -46 77q-3 5 -7 1q-57 -70 -57 -89 t32 -31q14 -4 14 -15t-22 -11q-12 0 -26 1t-21 1q-19 0 -46.5 -2t-38.5 -2q-31 0 -31 12q0 10 24 18q38 10 72 42q29 30 84 105q3 4 -1 11q-11 30 -74 129q-29 44 -64 53q-28 9 -28 20z"/>
<glyph glyph-name="y" horiz-adv-x="426" unicode="y" d="M-13 385q0 4 6.5 8t17.5 4q18 0 51.5 -2t47.5 -2q17 0 46.5 1t34.5 1q24 0 24 -12q0 -11 -24 -18t-24 -20q0 -6 5 -21q10 -34 37.5 -99.5t39.5 -89.5q5 -7 10 3q61 147 72 182q2 10 2 13q0 22 -40 34q-21 5 -21 15q0 13 25 13q10 0 31.5 -1t27.5 -1t31 2t39 2 q21 0 21 -11q0 -12 -24 -19q-29 -8 -52 -49q-32 -65 -113 -268l-108 -272q-6 -15 -23.5 -24.5t-33.5 -9.5q-26 0 -39.5 17t-13.5 38q0 15 12 32t33 17q2 0 21 -0.5t25 -0.5q11 0 18 17q12 21 44 113q4 15 1 21q-6 11 -17 43q-72 180 -123 287q-9 17 -17 24.5t-27 13.5 q-23 7 -23 19z"/>
<glyph glyph-name="z" horiz-adv-x="401" unicode="z" d="M209 393q42 0 88 2t51 2q8 0 15 -5q6 -4 1 -14q-2 -3 -50 -78q-15 -23 -72 -123.5t-71 -124.5q-2 -3 -0.5 -6t4.5 -4q16 -7 103 -7q15 0 25 13q26 26 53 61q15 22 23 22q10 0 10 -17q0 -13 -14 -52.5t-17 -53.5q-1 -4 -6 -9t-9 -5q-1 0 -43.5 1.5t-93 3t-71.5 1.5 q-19 0 -38 -1t-36 -2.5t-24 -1.5q-3 0 -7.5 5t-4.5 11q0 7 64 103q13 19 36 59.5t52.5 92.5t45.5 80q6 8 -1 10q-40 5 -107 5q-7 0 -27 -21t-35 -46q-13 -17 -18 -17q-11 0 -11 16t8 39q9 30 9 67q0 6 5 10t10 4l1 -1h2q27 -19 55 -19h95z"/>
<glyph glyph-name="braceleft" horiz-adv-x="345" unicode="{" d="M38 296q50 11 74 37.5t24 56.5q0 19 -12.5 87t-12.5 79q0 69 60 120q61 43 122 43q20 0 20 -12q0 -3 -4.5 -8.5t-7.5 -7.5q-2 -1 -8.5 -3.5t-15.5 -5.5t-14 -5q-68 -21 -68 -112q0 -20 13 -76t13 -82q0 -70 -119 -119q-10 -5 -1 -9q61 -25 91 -58t30 -81q0 -29 -23 -127 q-8 -31 -8 -57q0 -78 100 -105q15 -2 15 -8q0 -9 -9 -15t-17 -6q-82 0 -127 45t-45 119q0 19 11 78.5t11 82.5q0 48 -16 71t-57 36q-14 5 -22 15.5t-8 17.5q0 5 11 9z"/>
<glyph glyph-name="bar" horiz-adv-x="271" unicode="|" d="M99 743h73v-991h-73v991z"/>
<glyph glyph-name="braceright" horiz-adv-x="345" unicode="}" d="M304 265q-50 -10 -73.5 -40t-23.5 -62q0 -27 11.5 -99.5t11.5 -80.5q0 -70 -61 -120q-56 -41 -120 -41q-18 0 -18 12q0 8 11 13q11 7 39 16q65 21 65 112q0 19 -12 78t-12 92q0 42 33.5 76.5t84.5 51.5q11 4 1 9q-62 26 -90 56.5t-28 78.5q0 21 19 107q8 30 8 56 q0 79 -101 109q-4 1 -9 5t-5 6q0 8 9 13.5t16 5.5q82 0 127.5 -46t45.5 -120q0 -20 -9 -71.5t-9 -67.5q0 -48 14.5 -71.5t54.5 -36.5q15 -5 23 -14.5t8 -15.5t-11 -11z"/>
<glyph glyph-name="asciitilde" horiz-adv-x="624" unicode="~" d="M214 347q33 0 74.5 -28.5t76.5 -57.5t53 -29q26 0 45 21.5t46 83.5q4 9 11 9q12 0 27 -8t15 -17v-1l-1 -2q-52 -152 -149 -152q-36 0 -75 29t-73.5 57.5t-57.5 28.5q-48 0 -88 -100q-5 -15 -13 -15q-9 0 -25.5 8t-16.5 16q0 59 51 108t100 49z"/>
<glyph glyph-name="uni00A0" horiz-adv-x="193" unicode=" "/>
<glyph glyph-name="exclamdown" horiz-adv-x="282" unicode="¡" d="M132 315q-31 0 -52 23t-21 51q0 31 21.5 54t52.5 23q30 0 50.5 -21.5t20.5 -54.5q0 -32 -22 -53.5t-50 -21.5zM127 -158q-35 0 -52 32t-17 65v5q3 34 20 133t29 151q2 11 9 22t17 11q6 0 12.5 -9t9.5 -25q2 -10 14 -75t21 -119.5t11 -84.5q0 -2 0.5 -6.5t0.5 -6.5 q0 -44 -23.5 -68.5t-51.5 -24.5z"/>
<glyph glyph-name="cent" d="M61 293q0 121 107 191q41 27 115 41q8 2 8 6l7 68q0 7 6 7t17 -2.5t11 -5.5l-6 -65q0 -6 5 -7q58 -3 92 -27q16 -13 16 -29q0 -11 -13 -24t-25 -13q-6 0 -12.5 4t-17.5 14t-18 16q-23 15 -28 16q-2 1 -3.5 -1t-1.5 -4l-29 -304q0 -7 5 -8q13 -3 22 -3q28 0 59 14t45 26 q11 5 11 -5q0 -20 -14 -34q-43 -51 -130 -64q-7 0 -7 -6l-7 -76q-1 -2 -11.5 -5t-14.5 -3q-10 0 -10 7l8 76q2 8 -6 8q-99 14 -148 85q-32 50 -32 107zM167 336q0 -54 23.5 -96t59.5 -60h1q6 0 6 6l29 299q0 6 -5 6q-49 0 -81.5 -49t-32.5 -106z" unicode="¢"/>
<glyph glyph-name="sterling" d="M353 625q47 0 75 -21.5t28 -54.5q0 -23 -19 -42t-38 -19q-4 0 -8.5 3t-4.5 6q0 5 0.5 13.5t0.5 11.5q0 31 -13 53.5t-31 22.5q-34 0 -56 -62.5t-37 -196.5q0 -7 7 -7l112 6q9 0 8 -15q0 -6 -3.5 -13t-6.5 -7l-116 -9q-8 -3 -11 -13q-23 -99 -80 -152q-3 -5 2 -7 q42 0 97 -24q13 -6 40 -22t46 -25t33 -9q28 0 39.5 12.5t12.5 38.5q0 26 -6 58q-1 4 2.5 7.5t7.5 3.5q17 0 30 -12t13 -35q0 -48 -59.5 -101t-118.5 -53q-31 0 -55.5 16t-71.5 58q-33 29 -56 29q-4 0 -25 -23q-54 -57 -77 -57q-11 0 -18.5 8t-6.5 18q0 25 27.5 55.5 t63.5 47.5q11 5 16 13q22 29 30 154q0 7 -5 7l-59 -3q-2 0 -5 5t-2 9q0 18 9 20l60 6q2 0 4.5 3.5t2.5 5.5q11 95 36.5 156t76.5 99q17 14 47 25.5t62 11.5z" unicode="£"/>
<glyph glyph-name="currency" d="M264 417q-53 0 -87.5 -35.5t-34.5 -90.5t36 -89.5t86 -34.5q49 0 85.5 35t36.5 89q0 51 -38.5 88.5t-83.5 37.5zM466 470l-52 -59q-2 -5 0 -11q31 -51 31 -108q0 -56 -33 -103q-4 -5 -2 -7l55 -64q2 -2 2 -8q0 -15 -13 -27q-9 -11 -22 -11q-4 0 -6 2l-63 60q-3 3 -10 -1 q-48 -32 -89 -32q-49 0 -93 27q-5 3 -12 -1l-55 -56q-3 -3 -7 -3q-8 0 -23 12q-13 14 -13 29q0 7 2 9l49 54q3 7 0 11q-30 51 -30 108q0 53 31 102q1 1 1.5 5.5t-1.5 7.5l-53 63q-2 2 -2 5q0 17 16 30q12 12 24 12q5 0 7 -2l52 -56q8 -8 15 -3q43 26 92 26q48 0 96 -28 q6 -3 9 1l52 57q3 3 9 3q11 0 25 -13q13 -12 13 -24q0 -3 -2 -7z" unicode="¤"/>
<glyph glyph-name="yen" d="M0 605q0 12 25 12q6 0 40.5 -2t48.5 -2q16 0 55 1t47 1q24 0 24 -12t-24 -19q-20 -7 -20 -17q0 -6 5 -19q5 -11 35.5 -74.5t46.5 -99.5q1 -2 4 -2t5 3q19 35 60 125q22 47 22 63q0 15 -33 23q-22 6 -22 18q0 11 26 11q10 0 31.5 -1t30.5 -1h6q11 0 31 2t30 2q24 0 24 -12 q0 -13 -21 -17q-28 -9 -42.5 -23t-35.5 -51q-38 -64 -89 -171q-3 -8 3 -8l96 -1q5 0 5 -10q0 -8 -3 -15.5t-7 -7.5h-97q-6 0 -6 -6v-59q0 -8 7 -8h98q6 0 6 -12q0 -8 -3 -15t-7 -7h-95q-6 0 -6 -11v-24q0 -74 4.5 -94.5t22.5 -27.5q13 -5 31 -10q19 -5 19 -15q0 -4 -7.5 -9 t-16.5 -5q-10 0 -47.5 1t-55.5 1q-15 0 -54 -2t-53 -2q-25 0 -25 12q0 14 24 18q29 7 36 21.5t10 63.5q2 27 2 73q0 10 -7 10h-95q-6 0 -6 11q0 23 9 23h92q7 0 7 8v54q0 11 -10 11h-89q-6 0 -6 11q0 7 3 15t7 8h82q3 0 4 4t0 7q-44 94 -103 192q-15 24 -24 32.5t-31 14.5 q-24 6 -24 20z" unicode="¥"/>
<glyph glyph-name="brokenbar" horiz-adv-x="271" unicode="¦" d="M99 668h73v-346h-73v346zM99 -173v346h73v-346h-73z"/>
<glyph glyph-name="section" horiz-adv-x="460" unicode="§" d="M359 91q0 83 -113 205q-7 8 -29.5 31t-31.5 32.5t-24 26.5t-24 30t-15 25q-2 4 -6 0q-15 -36 -15 -66q0 -83 109 -188q104 -97 127 -166q0 -2 1 -3q2 -1 4 4q17 28 17 69zM288 631q26 0 52 -16q13 -10 13 -23q0 -9 -11 -24.5t-18 -20.5q-3 -2 -13.5 -2.5t-15.5 1.5 q-4 2 -20.5 12t-28.5 15.5t-22 5.5q-23 0 -34 -15.5t-11 -33.5q0 -8 4 -18.5t12.5 -22.5t15.5 -21t20.5 -23.5t20 -21t21.5 -20.5t17 -16q120 -114 120 -217q0 -64 -22.5 -120t-50.5 -90q-62 -79 -137 -107q-26 -8 -49 -8q-24 0 -40 8t-21 16t-5 15q0 8 15.5 26t34.5 28 q7 5 24 -5q12 -10 34 -18t35 -8q19 0 32 12.5t13 36.5q0 20 -33 60.5t-70 72.5q-70 64 -104 129q-20 40 -20 99q0 82 69 174q11 49 57 91q52 49 113 49h3z"/>
<glyph glyph-name="dieresis" horiz-adv-x="400" unicode="¨" d="M298 605q22 0 36.5 -18.5t14.5 -39.5q0 -23 -18.5 -39t-38.5 -16t-36.5 15t-16.5 41q0 22 17.5 39.5t41.5 17.5zM109 605q22 0 36.5 -18.5t14.5 -39.5q0 -25 -18 -40t-39 -15q-20 0 -36 14.5t-16 41.5q0 22 16.5 39.5t41.5 17.5z"/>
<glyph glyph-name="copyright" horiz-adv-x="705" unicode="©" d="M375 497q35 0 63 -7q5 -1 23 -5t26 -5q8 -8 9 -24q1 -14 1 -45q0 -22 -11 -22q-7 0 -15 19q-10 28 -36 45.5t-55 17.5q-49 0 -80 -41.5t-31 -95.5q0 -79 38 -119t78 -40q57 0 92 59q14 24 24 24q7 0 7 -15q-4 -36 -18 -62q-9 -16 -24 -21q-30 -15 -93 -15q-48 0 -89.5 17 t-63.5 43q-44 50 -44 118q0 43 18.5 76.5t41.5 50.5q55 47 139 47zM353 601q-116 0 -195.5 -82t-79.5 -201q0 -116 82.5 -201t192.5 -85q114 0 193.5 84t79.5 202q0 119 -79.5 201t-193.5 82zM353 632q132 0 221.5 -92t89.5 -223q0 -128 -90 -222t-221 -94 q-137 0 -224.5 92.5t-87.5 223.5q0 130 91.5 222.5t220.5 92.5z"/>
<glyph glyph-name="ordfeminine" horiz-adv-x="293" unicode="ª" d="M100 345q0 -12 9.5 -21.5t21.5 -9.5q11 0 24 9q7 6 7 12q1 6 1 49q0 8 -7 5q-56 -16 -56 -44zM154 535q39 0 62 -25.5t23 -66.5q0 -6 -1.5 -41.5t-1.5 -51.5q0 -14 7.5 -21.5t16.5 -7.5q14 0 24 7q3 2 5 -4q1 -3 1 -8q0 -8 -6 -17q-27 -32 -65 -32t-52 31q-4 6 -8 3 q-48 -34 -74 -34q-22 0 -41 19.5t-19 46.5q0 36 42 52l91 30q5 2 7 9q1 7 1 29q0 20 -13 33.5t-31 13.5q-13 0 -23 -5q-4 -2 -7 -37q0 -2 -7 -7q-2 0 -21.5 -8t-25.5 -10q-4 -1 -8.5 1.5t-4.5 8.5q0 11 14 29.5t33 30.5q45 32 82 32z"/>
<glyph glyph-name="guillemotleft" horiz-adv-x="685" unicode="«" d="M328 179q-8 5 -9 13.5t3 10.5q137 77 223 149q27 23 39 23q8 0 8 -10q0 -8 -7 -18q-31 -47 -144 -143q-8 -6 -2 -14q109 -95 144 -151q5 -7 5 -17q0 -12 -7 -13q-11 0 -23 10q-86 77 -230 160zM103 179q-9 5 -9 16q0 7 3 8q131 72 224 149q27 23 39 23q8 0 8 -10 q0 -8 -7 -18q-9 -14 -30 -36t-37 -37t-44.5 -40t-31.5 -28q-10 -9 -3 -16q109 -100 143 -150q7 -9 7 -21q0 -10 -9 -10q-14 0 -25 10q-89 81 -228 160z"/>
<glyph glyph-name="logicalnot" horiz-adv-x="624" unicode="¬" d="M75 349h460q12 0 12 -21l-1 -278q0 -7 -18.5 -11.5t-33.5 -4.5q-12 0 -12 12l-2 218q0 25 -17 25h-382q-14 0 -17.5 2.5t-3.5 12.5q0 12 4.5 28.5t10.5 16.5z"/>
<glyph glyph-name="uni00AD" horiz-adv-x="311" unicode="­" d="M59 234q23 5 103 13.5t99 9.5q12 0 12 -14q0 -19 -6.5 -39.5t-15.5 -21.5q-137 -11 -196 -17h-1q-6 0 -10.5 5.5t-4.5 10.5q0 16 6.5 34t13.5 19z"/>
<glyph glyph-name="registered" horiz-adv-x="242" unicode="®" d="M123 571v-31q0 -4 9 -4q19 0 19 18q0 22 -18 22q-10 0 -10 -5zM97 504v52q0 15 -11 19q-6 2 -7 4.5t1 3.5t5 2q31 3 50 3q20 0 32.5 -8.5t12.5 -22.5q0 -13 -19 -22q-2 -2 -1 -4q22 -38 33 -46q7 -3 7 -6q0 -5 -15 -5q-19 0 -28 15q-8 12 -18 30q-1 4 -9 4q-7 0 -7 -4 v-11q0 -12 2 -14.5t14 -7.5q3 -1 4.5 -3.5t0 -4t-4.5 -1.5h-54q-4 0 -5 3.5t3 4.5q14 6 14 19zM133 625h-2q-38 0 -64 -27.5t-26 -67.5t26.5 -67.5t65.5 -27.5q40 0 65.5 27t25.5 68q0 40 -27 67.5t-64 27.5zM133 644q48 0 80.5 -33t32.5 -81q0 -44 -31 -80t-84 -36 q-48 0 -80 33.5t-32 82.5q0 46 33 80t81 34z"/>
<glyph glyph-name="macron" horiz-adv-x="400" unicode="¯" d="M95 571l219 3q6 0 6 -30q0 -15 -6 -27.5t-12 -12.5l-214 -1q-2 0 -5 5t-3 11q0 11 3 23.5t6.5 20.5t5.5 8z"/>
<glyph glyph-name="degree" horiz-adv-x="294" unicode="°" d="M144 597q-29 0 -47.5 -24t-18.5 -56q0 -36 21.5 -58t53.5 -22q26 0 44 22t18 58q0 34 -19.5 57t-51.5 23zM150 636q47 0 81 -33t34 -86q0 -52 -35.5 -85.5t-83.5 -33.5t-83 32t-35 87q0 52 36.5 85.5t85.5 33.5z"/>
<glyph glyph-name="plusminus" horiz-adv-x="624" unicode="±" d="M548 10q9 0 12 -2.5t3 -9.5q0 -18 -4.5 -33t-9.5 -15h-468q-14 0 -17.5 2.5t-3.5 12.5q0 12 4.5 28.5t10.5 16.5h473zM279 545q0 5 19 10t32 5q10 0 12.5 -3t2.5 -17v-185q0 -12 9 -12h194q9 0 12 -2.5t3 -9.5q0 -18 -4.5 -33t-9.5 -15l-194 -1q-10 0 -10 -13l-1 -186 q0 -11 -17.5 -16t-34.5 -5q-12 0 -12 15l-1 188q0 17 -11 17l-194 1q-14 0 -14 15q0 12 4.5 28.5t10.5 16.5h196q8 0 8 11v191z"/>
<glyph glyph-name="twosuperior" horiz-adv-x="311" unicode="²" d="M148 765q46 0 76 -28t30 -73q0 -36 -49 -88q-14 -15 -27.5 -28t-30 -27t-26.5 -23q-3 -4 -1 -6t4 -2h85h25q13 0 35 29q10 12 15 12q11 0 11 -17q0 -4 -2 -8q-19 -39 -28 -82q-2 -6 -9 -6h-26q-25 1 -58 1.5t-52 0.5h-17h-58q-4 0 -11 5.5t-7 8.5q0 8 8 14q48 43 94 96 q38 44 38 95q0 28 -15.5 44.5t-39.5 16.5q-37 0 -61 -26q-10 -10 -19 -10q-8 0 -8 13q0 12 11 24q49 64 113 64z"/>
<glyph glyph-name="threesuperior" horiz-adv-x="311" unicode="³" d="M154 766q41 0 65.5 -22t24.5 -48q0 -23 -15 -38t-44 -31q-2 -1 -1.5 -3t2.5 -3q87 -12 87 -77q0 -77 -103 -121q-37 -18 -79 -18q-21 0 -40.5 11.5t-19.5 25.5q0 26 27 37q6 3 13 -4q42 -33 72 -33q20 0 34 19.5t14 45.5q0 30 -16 50.5t-46 20.5q-4 0 -9.5 -1t-13.5 -2.5 t-12 -2.5q-10 -2 -10 4q0 9 2 13q8 11 26 20q31 13 42.5 24.5t11.5 34.5q0 18 -13.5 32t-31.5 14q-26 0 -54 -26q-5 -5 -9 -7.5t-6 -2t-3 2.5q-2 2 -4 8t-1 8q14 26 43.5 47.5t66.5 21.5z"/>
<glyph glyph-name="acute" horiz-adv-x="400" unicode="´" d="M245 636q2 6 11.5 12t17.5 6q49 0 49 -21q0 -13 -7 -24q-14 -26 -50.5 -78t-53.5 -71q-16 -16 -29 -16q-8 0 -8 12q0 5 4 19q24 75 66 161z"/>
<glyph glyph-name="mu" horiz-adv-x="485" unicode="µ" d="M104 412q34 0 65 -21q10 -7 10 -33q0 -11 -26 -112l-27 -104q-2 -12 -2 -17q0 -9 3 -18q4 -11 15.5 -19t22.5 -8q31 0 70.5 41t58.5 90q6 17 8 35q11 132 12 135q2 11 7.5 21.5t10.5 10.5q24 0 47 -9.5t32 -18.5q8 -8 8 -30q0 -2 -0.5 -7t-0.5 -8q-4 -34 -27.5 -96.5 t-41.5 -93.5q-5 -8 -3 -21q1 -26 19 -36.5t38 -10.5q34 0 73 29q5 8 11 -4q3 -5 3 -11q0 -35 -11 -55q-33 -61 -82 -61q-34 0 -52.5 26.5t-23.5 84.5q0 2 -3.5 3t-5.5 -2q-39 -60 -65.5 -83.5t-55.5 -23.5q-43 0 -79 68q-4 9 -7 -6q-1 -5 -2 -12q-2 -34 -2 -74q0 -45 4 -65 q7 -29 34 -58t43 -38q6 -6 -1 -25q-3 -7 -14.5 -18t-21.5 -17q-17 -10 -36 -10t-37 30q-10 17 -10 86v42q0 53 6 203q0 15 -1 51q-3 27 -3 193q0 13 0.5 30t0.5 20q2 17 13 22q10 5 26 5z"/>
<glyph glyph-name="paragraph" horiz-adv-x="555" unicode="¶" d="M471 619h36q8 0 13 -8.5t5 -14.5q0 -5 -3.5 -10.5t-7.5 -5.5h-105q-4 0 -7.5 -10t-3.5 -22v-268t0.5 -219t0.5 -86q0 -236 -145 -236q-43 0 -73.5 27.5t-30.5 69.5t25 66t59 24q20 0 35.5 -15t15.5 -32q0 -22 -14.5 -38t-23.5 -16q-15 0 -25 6q-8 7 -14 7q-11 0 -11 -14 q0 -24 19.5 -38.5t45.5 -14.5q94 0 96 170v63q0 72 -3 103q-2 12 -10 12q-129 1 -214 64t-85 184q0 97 73 172q30 30 77 48.5t85 23.5q120 8 190 8z"/>
<glyph glyph-name="periodcentered" horiz-adv-x="240" unicode="·" d="M123 266q35 0 53 -26.5t18 -50.5q-1 -34 -23 -53t-50 -19q-27 0 -49 18.5t-22 56.5q0 37 24.5 55.5t48.5 18.5z"/>
<glyph glyph-name="cedilla" horiz-adv-x="400" unicode="¸" d="M278 -140q0 -23 -19 -47t-41 -39q-44 -30 -68 -30q-13 0 -22 13q-3 5 -3 13q0 12 7 21q5 8 15 8q28 -5 36 -5q16 0 25.5 11t9.5 26q0 20 -17.5 32.5t-41.5 12.5q-9 0 -15 -1q-4 0 -11.5 8t-7.5 12t8 13q22 23 82 97h34q-27 -35 -37 -49q-5 -8 5 -14q61 -30 61 -82z"/>
<glyph glyph-name="onesuperior" horiz-adv-x="311" unicode="¹" d="M207 758q0 -2 -0.5 -10.5t-1 -27.5t-0.5 -41v-52q0 -90 1 -130q0 -26 6.5 -34t34.5 -16q19 -4 19 -16q0 -13 -22 -13q-3 0 -37.5 1t-47.5 1q-23 0 -51 -1l-27 -1q-28 0 -28 14q0 13 28 18q20 4 27 12t9 24q4 28 4 127q0 45 -2 73q0 13 -10 16q-6 2 -15 4.5t-12 3.5 q-22 4 -22 15q0 9 21 12q67 5 116 28q1 1 3 1q7 0 7 -8z"/>
<glyph glyph-name="ordmasculine" horiz-adv-x="335" unicode="º" d="M162 509q-27 0 -39.5 -31t-12.5 -69q0 -46 18.5 -80t46.5 -34q50 0 50 103q0 43 -19 77t-44 34zM166 535q65 0 105 -38.5t40 -95.5q0 -54 -40 -94t-104 -40q-62 0 -102.5 39t-40.5 95q0 57 42.5 95.5t99.5 38.5z"/>
<glyph glyph-name="guillemotright" horiz-adv-x="685" unicode="»" d="M357 204q8 -5 9.5 -13t-2.5 -10q-142 -81 -224 -150q-26 -22 -39 -22q-8 0 -8 9q0 8 7 18q26 40 144 143q9 7 2 14q-114 104 -145 152q-4 5 -4 16q0 13 7 14q11 0 23 -11q97 -83 230 -160zM582 204q9 -5 9 -15q0 -7 -3 -8q-135 -76 -224 -150q-26 -22 -39 -22q-7 0 -7 9 q0 8 7 18q25 40 143 141q9 9 2 16q-113 106 -143 151q-7 12 -7 20q0 11 10 11q11 0 24 -11q89 -81 228 -160z"/>
<glyph glyph-name="onequarter" horiz-adv-x="674" unicode="¼" d="M525 144q0 8 2 48t2 66q0 2 -2.5 2t-3.5 -1q-6 -7 -24.5 -30t-36 -45t-29.5 -38q-2 -2 0 -4t5 -2l79 -1q8 1 8 5zM596 347q9 0 9 -13q0 -1 0.5 -39.5t1 -84.5t0.5 -63q0 -7 6 -7h52q5 0 5 -9q0 -29 -10 -31h-48q-4 0 -4 -7q0 -6 0.5 -32.5t0.5 -39.5v-16q0 -12 -9 -15 q-12 -5 -69 -5q-9 0 -9 14q0 58 2 94q0 7 -5 7q-112 0 -138 -2q-3 0 -6.5 5t-3.5 9q0 2 18 25q3 3 35.5 41.5t64 76.5t44.5 54q8 11 29.5 24.5t33.5 13.5zM576 638q7 0 13.5 -6t6.5 -12q0 -2 -1 -3q-299 -465 -420 -646q-5 -5 -9 -5q-1 0 -5 2q-13 7 -13 21q0 5 2 7 q84 126 239 368t168 262q9 12 19 12zM207 613q0 -2 -0.5 -10.5t-1 -27.5t-0.5 -41v-52q0 -90 1 -130q0 -26 6.5 -34t34.5 -16q19 -4 19 -16q0 -13 -22 -13q-3 0 -37.5 1t-47.5 1q-23 0 -51 -1l-27 -1q-28 0 -28 14q0 13 28 18q20 4 27 12t9 24q4 28 4 127q0 45 -2 73 q0 13 -10 16q-6 2 -15 4.5t-12 3.5q-22 4 -22 15q0 9 21 12q67 5 116 28q1 1 3 1q7 0 7 -8z"/>
<glyph glyph-name="onehalf" horiz-adv-x="702" unicode="½" d="M539 345q46 0 76 -28t30 -73q0 -36 -49 -88q-14 -15 -27.5 -28t-30 -27t-26.5 -23q-3 -4 -1 -6t4 -2h85h25q13 0 35 29q10 12 15 12q11 0 11 -17q0 -4 -2 -8q-19 -39 -28 -82q-2 -6 -9 -6h-25q-26 1 -59 1.5t-52 0.5h-17h-58q-4 0 -11 5.5t-7 8.5q0 8 8 14q48 43 94 96 q38 44 38 95q0 28 -15.5 44.5t-39.5 16.5q-37 0 -61 -26q-10 -10 -19 -10q-8 0 -8 13q0 12 11 24q49 64 113 64zM560 638q7 0 13.5 -6t6.5 -12q0 -2 -1 -3q-299 -465 -420 -646q-5 -5 -9 -5q-1 0 -5 2q-13 7 -13 21q0 5 2 7q84 126 239 368t168 262q9 12 19 12zM207 613 q0 -2 -0.5 -10.5t-1 -27.5t-0.5 -41v-52q0 -90 1 -130q0 -26 6.5 -34t34.5 -16q19 -4 19 -16q0 -13 -22 -13q-3 0 -37.5 1t-47.5 1q-23 0 -51 -1l-27 -1q-28 0 -28 14q0 13 28 18q20 4 27 12t9 24q4 28 4 127q0 45 -2 73q0 13 -10 16q-6 2 -15 4.5t-12 3.5q-22 4 -22 15 q0 9 21 12q67 5 116 28q1 1 3 1q7 0 7 -8z"/>
<glyph glyph-name="threequarters" horiz-adv-x="639" unicode="¾" d="M490 144q0 8 2 48t2 66q0 2 -2.5 2t-3.5 -1q-6 -7 -24.5 -30t-36 -45t-29.5 -38q-2 -2 0 -4t5 -2l79 -1q8 1 8 5zM561 347q9 0 9 -13q0 -1 0.5 -39.5t1 -84.5t0.5 -63q0 -7 6 -7h52q5 0 5 -9q0 -29 -10 -31h-48q-4 0 -4 -7q0 -6 0.5 -32.5t0.5 -39.5v-16q0 -12 -9 -15 q-13 -5 -69 -5q-9 0 -9 14q0 58 2 94q0 7 -5 7q-112 0 -138 -2q-3 0 -6.5 5t-3.5 9q0 2 18 25q3 3 35.5 41.5t64 76.5t44.5 54q8 11 29.5 24.5t33.5 13.5zM546 638q7 0 13.5 -6t6.5 -12q0 -2 -1 -3q-299 -465 -420 -646q-5 -5 -9 -5q-1 0 -5 2q-13 7 -13 21q0 5 2 7 q84 126 239 368t168 262q9 12 19 12zM154 621q41 0 65.5 -22t24.5 -48q0 -23 -15 -38t-44 -31q-2 -1 -1.5 -3t2.5 -3q87 -12 87 -77q0 -77 -103 -121q-37 -18 -79 -18q-21 0 -40.5 11.5t-19.5 25.5q0 26 27 37q6 3 13 -4q42 -33 72 -33q20 0 34 19.5t14 45.5q0 30 -16 50.5 t-46 20.5q-4 0 -9.5 -1t-13.5 -2.5t-12 -2.5q-10 -3 -10 4q0 9 2 13q8 11 26 20q31 13 42.5 24.5t11.5 34.5q0 18 -13.5 32t-31.5 14q-26 0 -54 -26q-5 -5 -9 -7.5t-6 -2t-3 2.5q-2 2 -4 8t-1 8q14 26 43.5 47.5t66.5 21.5z"/>
<glyph glyph-name="questiondown" horiz-adv-x="355" unicode="¿" d="M194 317q-32 0 -51.5 21.5t-19.5 50.5q0 32 21 54t52 22q30 0 50.5 -21t20.5 -54q0 -32 -22.5 -52.5t-50.5 -20.5zM238 -154q-53 0 -114 47q-10 8 -26.5 25.5t-36 53.5t-19.5 68q0 74 41 109q14 10 51 30t40 22q22 13 26 43q1 11 9.5 17.5t15.5 6.5t18 -42q1 -6 5 -21.5 t6 -28.5t2 -24q0 -30 -27.5 -53t-87.5 -50q-23 -10 -33 -20t-10 -25q0 -28 14.5 -41t48.5 -13q5 0 35 5.5t41 5.5q13 0 29.5 -23.5t16.5 -46.5q0 -17 -14.5 -31t-30.5 -14z"/>
<glyph glyph-name="Agrave" horiz-adv-x="677" unicode="À" d="M238 841q13 0 45 -30q57 -54 106 -104q12 -15 12 -26q0 -3 -1 -4q-6 -6 -16 -6q-16 0 -28 7q-51 25 -147 85q-25 17 -25 28q0 10 25 33q17 17 29 17zM371 281q1 0 3 2.5t1 5.5q-37 117 -73 201q-2 5 -5.5 4t-5.5 -7q-67 -180 -72 -198q-2 -10 7 -10q78 2 145 2zM356 650 q8 0 17 -22l40 -112q90 -252 143 -386q23 -56 41 -74t48 -27q26 -8 26 -18q0 -15 -33 -15q-12 0 -63.5 2t-67.5 2q-17 0 -51.5 -1t-46.5 -1q-32 0 -32 15q0 12 26 17q41 10 41 34q0 2 -0.5 4t-0.5 4q-2 23 -46 146q-1 4 -8.5 9.5t-15.5 5.5h-41q-91 0 -127 -3q-4 0 -11 -10 q-43 -108 -43 -145q0 -16 10.5 -26.5t36.5 -17.5q29 -7 29 -20t-30 -13q-7 0 -33 1t-47 1q-23 0 -59 -2t-40 -2q-29 0 -29 12q0 13 25 20q37 10 52.5 26t38.5 63q13 27 85 209t88 221q5 10 7 20q1 4 8 14q3 4 22 27t23 29q9 13 18 13z"/>
<glyph glyph-name="Aacute" horiz-adv-x="677" unicode="Á" d="M423 825q11 8 29 8q6 0 8 -1q46 -24 46 -43q0 -6 -8.5 -15.5t-17.5 -14.5q-116 -63 -160 -80q-20 -4 -23 -4q-11 0 -16 5q-2 2 -2 4q0 12 15 27q88 81 129 114zM371 281q1 0 3 2.5t1 5.5q-37 117 -73 201q-2 5 -5.5 4t-5.5 -7q-67 -180 -72 -198q-2 -10 7 -10q78 2 145 2 zM356 650q8 0 17 -22l40 -112q90 -252 143 -386q23 -56 41 -74t48 -27q26 -8 26 -18q0 -15 -33 -15q-12 0 -63.5 2t-67.5 2q-17 0 -51.5 -1t-46.5 -1q-32 0 -32 15q0 12 26 17q41 10 41 34q0 2 -0.5 4t-0.5 4q-2 23 -46 146q-1 4 -8.5 9.5t-15.5 5.5h-41q-91 0 -127 -3 q-4 0 -11 -10q-43 -108 -43 -145q0 -16 10.5 -26.5t36.5 -17.5q29 -7 29 -20t-30 -13q-7 0 -33 1t-47 1q-23 0 -59 -2t-40 -2q-29 0 -29 12q0 13 25 20q37 10 52.5 26t38.5 63q13 27 85 209t88 221q5 10 7 20q1 4 8 14q3 4 22 27t23 29q9 13 18 13z"/>
<glyph glyph-name="Acircumflex" horiz-adv-x="677" unicode="Â" d="M345 812q13 0 45 -29q66 -62 94 -87q13 -8 13 -22q0 -10 -13 -10q-16 0 -34 10q-26 12 -100 51q-9 5 -20 0q-12 -7 -48 -24t-51 -25q-22 -11 -33 -11q-10 0 -10 9q0 11 18 28q3 2 41 35t55 47q28 28 43 28zM371 281q1 0 3 2.5t1 5.5q-37 117 -73 201q-2 5 -5.5 4t-5.5 -7 q-67 -180 -72 -198q-2 -10 7 -10q78 2 145 2zM356 650q8 0 17 -22l40 -112q90 -252 143 -386q23 -56 41 -74t48 -27q26 -8 26 -18q0 -15 -33 -15q-12 0 -63.5 2t-67.5 2q-17 0 -51.5 -1t-46.5 -1q-32 0 -32 15q0 12 26 17q41 10 41 34q0 2 -0.5 4t-0.5 4q-2 23 -46 146 q-1 4 -8.5 9.5t-15.5 5.5h-41q-91 0 -127 -3q-4 0 -11 -10q-43 -108 -43 -145q0 -16 10.5 -26.5t36.5 -17.5q29 -7 29 -20t-30 -13q-7 0 -33 1t-47 1q-23 0 -59 -2t-40 -2q-29 0 -29 12q0 13 25 20q37 10 52.5 26t38.5 63q13 27 85 209t88 221q5 10 7 20q1 4 8 14q3 4 22 27 t23 29q9 13 18 13z"/>
<glyph glyph-name="Atilde" horiz-adv-x="677" unicode="Ã" d="M200 706q25 40 49 61q11 11 28 11q23 0 78 -2.5t72 -2.5h12q20 2 45 35q5 8 11 8q3 0 8.5 -6t7.5 -10q4 -9 -6 -19q-4 -4 -29.5 -35t-34.5 -38q-13 -10 -21 -10q-13 0 -73 4.5t-80 4.5q-12 0 -15 -1q-16 -4 -37 -34q-6 -10 -11 -10q-7 0 -13 5t-6 9q0 3 15 30zM371 281 q1 0 3 2.5t1 5.5q-37 117 -73 201q-2 5 -5.5 4t-5.5 -7q-67 -180 -72 -198q-2 -10 7 -10q78 2 145 2zM356 650q8 0 17 -22l40 -112q90 -252 143 -386q23 -56 41 -74t48 -27q26 -8 26 -18q0 -15 -33 -15q-12 0 -63.5 2t-67.5 2q-17 0 -51.5 -1t-46.5 -1q-32 0 -32 15 q0 12 26 17q41 10 41 34q0 2 -0.5 4t-0.5 4q-2 23 -46 146q-1 4 -8.5 9.5t-15.5 5.5h-41q-91 0 -127 -3q-4 0 -11 -10q-43 -108 -43 -145q0 -16 10.5 -26.5t36.5 -17.5q29 -7 29 -20t-30 -13q-7 0 -33 1t-47 1q-23 0 -59 -2t-40 -2q-29 0 -29 12q0 13 25 20q37 10 52.5 26 t38.5 63q13 27 85 209t88 221q5 10 7 20q1 4 8 14q3 4 22 27t23 29q9 13 18 13z"/>
<glyph glyph-name="Adieresis" horiz-adv-x="677" unicode="Ä" d="M453 793q22 0 35.5 -18.5t13.5 -40.5t-18 -37.5t-37 -15.5t-35 14.5t-16 40.5q0 22 17 39.5t40 17.5zM247 793q22 0 35.5 -18.5t13.5 -40.5q0 -23 -18 -38t-38 -15q-18 0 -34 14.5t-16 41.5q0 21 17 38.5t40 17.5zM371 281q1 0 3 2.5t1 5.5q-37 117 -73 201q-2 5 -5.5 4 t-5.5 -7q-67 -180 -72 -198q-2 -10 7 -10q78 2 145 2zM356 650q8 0 17 -22l40 -112q90 -252 143 -386q23 -56 41 -74t48 -27q26 -8 26 -18q0 -15 -33 -15q-12 0 -63.5 2t-67.5 2q-17 0 -51.5 -1t-46.5 -1q-32 0 -32 15q0 12 26 17q41 10 41 34q0 2 -0.5 4t-0.5 4 q-2 23 -46 146q-1 4 -8.5 9.5t-15.5 5.5h-41q-91 0 -127 -3q-4 0 -11 -10q-43 -108 -43 -145q0 -16 10.5 -26.5t36.5 -17.5q29 -7 29 -20t-30 -13q-7 0 -33 1t-47 1q-23 0 -59 -2t-40 -2q-29 0 -29 12q0 13 25 20q37 10 52.5 26t38.5 63q13 27 85 209t88 221q5 10 7 20 q1 4 8 14q3 4 22 27t23 29q9 13 18 13z"/>
<glyph glyph-name="Aring" horiz-adv-x="677" unicode="Å" d="M341 811q-19 0 -32 -15t-13 -37q0 -25 13 -39t32 -14q20 0 32.5 14t12.5 41q0 21 -13 35.5t-32 14.5zM341 847q39 0 64 -26t25 -62t-25 -62.5t-64 -26.5t-64 26.5t-25 62.5t25 62t64 26zM371 281q1 0 3 2.5t1 5.5q-37 117 -73 201q-2 5 -5.5 4t-5.5 -7q-67 -180 -72 -198 q-2 -10 7 -10q78 2 145 2zM356 650q8 0 17 -22l40 -112q90 -252 143 -386q23 -56 41 -74t48 -27q26 -8 26 -18q0 -15 -33 -15q-12 0 -63.5 2t-67.5 2q-17 0 -51.5 -1t-46.5 -1q-32 0 -32 15q0 12 26 17q41 10 41 34q0 2 -0.5 4t-0.5 4q-2 23 -46 146q-1 4 -8.5 9.5 t-15.5 5.5h-41q-91 0 -127 -3q-4 0 -11 -10q-43 -108 -43 -145q0 -16 10.5 -26.5t36.5 -17.5q29 -7 29 -20t-30 -13q-7 0 -33 1t-47 1q-23 0 -59 -2t-40 -2q-29 0 -29 12q0 13 25 20q37 10 52.5 26t38.5 63q13 27 85 209t88 221q5 10 7 20q1 4 8 14q3 4 22 27t23 29 q9 13 18 13z"/>
<glyph glyph-name="AE" horiz-adv-x="914" unicode="Æ" d="M455 320q9 0 9 16q0 1 1 110.5t1 123.5q0 9 -4 9q-7 0 -17 -17q-93 -153 -133 -230q-3 -5 0.5 -8.5t8.5 -3.5h134zM491 633h227q14 0 28 1t24.5 2t18.5 2t13 2t6 1q3 0 8.5 -6t5.5 -12q0 -3 6.5 -51.5t7.5 -59.5q0 -7 -4.5 -15t-9.5 -8q-12 0 -22 26q-31 70 -63 75 q-30 5 -135 5q-16 0 -16 -15q-3 -42 -3 -239q0 -19 8 -19q87 0 120 7q20 5 35 47q10 25 24 25q5 0 8 -7.5t2 -18.5q-5 -29 -5 -85q0 -30 2 -72q0 -8 -4 -15t-9 -7q-13 0 -22 23q-12 39 -22 47q-12 10 -38 10q-7 0 -34 0.5t-53 0.5q-9 0 -11 -10v-44v-123q1 -35 13 -47 t35 -14h77h41q33 1 55 21.5t50 65.5q14 26 27 26q11 0 11 -26v-7q-3 -18 -16.5 -58.5t-17.5 -48.5q-9 -16 -32 -16q-6 0 -117 2t-151 2q-12 0 -84 -2t-86 -2q-27 0 -27 14q0 12 33 20q38 8 49.5 20.5t15.5 43.5q4 35 4 172q0 9 -8 9q-123 0 -167 -2q-2 0 -9 -5t-10 -10 q-96 -170 -96 -194q0 -21 46 -33q10 -3 16.5 -8.5t6.5 -9.5q0 -16 -26 -16q-10 0 -43 1.5t-56 1.5q-16 0 -57.5 -2.5t-47.5 -2.5q-7 0 -14.5 5t-7.5 10q0 6 9 12t24 9q38 7 61.5 25.5t53.5 64.5q14 21 58 93.5t87 145.5t83.5 142t43.5 74q6 12 -6 16q-6 2 -34 6.5t-37 7.5 q-19 5 -19 15q0 14 31 14q17 0 70.5 -1t74.5 -1z"/>
<glyph glyph-name="Ccedilla" horiz-adv-x="710" unicode="Ç" d="M426 650q66 0 130 -16q47 -12 72 -15q5 0 10 -8t5 -19q0 -10 2.5 -44.5t2.5 -51.5q0 -34 -17 -34q-10 0 -19 27q-17 52 -42 71q-69 58 -148 58q-114 0 -174 -78.5t-60 -199.5q0 -97 35 -167q39 -78 98 -114.5t125 -36.5q52 0 99 26q52 30 85 88q17 31 28 31q9 0 9 -22 q0 -7 -2 -15q-3 -14 -29 -85q-7 -21 -37 -34q-61 -24 -148 -28q-20 -25 -22 -30q-5 -8 6 -14q64 -33 64 -86q0 -24 -20 -49.5t-43 -41.5q-46 -31 -73 -31q-15 0 -23 13q-3 4 -3 12q0 12 7 23q8 10 19 8q2 0 16.5 -2t19.5 -2q17 0 27 11.5t10 27.5q0 21 -18.5 34t-43.5 13 q-10 0 -18 -1q-4 0 -11 8t-7 12q0 7 8 14q11 12 68 80q-97 2 -172.5 36.5t-111.5 76.5q-84 97 -84 225q0 81 34.5 144t75.5 96q109 90 270 90z"/>
<glyph glyph-name="Egrave" horiz-adv-x="587" unicode="È" d="M203 847q13 0 45 -30q57 -54 106 -104q12 -15 12 -26q0 -3 -1 -4q-6 -6 -16 -6q-16 0 -28 7q-51 25 -147 85q-25 17 -25 28q0 10 25 33q17 17 29 17zM250 633h150q46 0 88 6h1q9 0 11 -13q1 -18 1 -107q0 -11 -4.5 -19.5t-11.5 -8.5q-6 0 -11.5 8t-7.5 17q-15 67 -64 75 q-34 6 -115 6h-24q-12 0 -13 -28q-4 -44 -4 -192v-27q0 -3 3 -6.5t7 -3.5h80q51 0 62 6.5t26 41.5q10 26 22 26q10 0 10 -24q0 -15 -2 -38.5t-2 -34.5q0 -14 2 -36.5t2 -35.5q0 -26 -13 -26q-12 0 -19 22q-9 32 -22 42t-43 12q-32 3 -100 3q-3 0 -8 -5t-5 -7q-3 -23 -3 -76 q0 -13 0.5 -35t0.5 -28q3 -78 4 -82q7 -21 22 -24q32 -6 81 -6q67 0 92 9q47 17 79 74q19 35 31 35q9 0 9 -19q0 -2 -0.5 -5.5t-0.5 -4.5q0 -6 -16 -55.5t-22 -60.5q-2 -5 -10.5 -9t-13.5 -4q-3 0 -71 1.5t-148.5 2.5t-113.5 1q-37 0 -68.5 -2.5t-45.5 -2.5q-34 0 -34 13 t30 20q39 9 52 23t16 53q8 112 8 242v130q0 49 -1 63q-2 29 -12.5 43.5t-40.5 20.5q-32 6 -32 18q0 6 10 10.5t21 4.5q23 0 88.5 -1.5t92.5 -1.5z"/>
<glyph glyph-name="Eacute" horiz-adv-x="587" unicode="É" d="M368 827q11 8 29 8q6 0 8 -1q46 -24 46 -43q0 -6 -8.5 -15.5t-17.5 -14.5q-116 -63 -160 -80q-20 -4 -23 -4q-11 0 -16 5q-2 2 -2 4q0 12 15 27q88 81 129 114zM250 633h150q46 0 88 6h1q9 0 11 -13q1 -18 1 -107q0 -11 -4.5 -19.5t-11.5 -8.5q-6 0 -11.5 8t-7.5 17 q-15 67 -64 75q-34 6 -115 6h-24q-12 0 -13 -28q-4 -44 -4 -192v-27q0 -3 3 -6.5t7 -3.5h80q51 0 62 6.5t26 41.5q10 26 22 26q10 0 10 -24q0 -15 -2 -38.5t-2 -34.5q0 -14 2 -36.5t2 -35.5q0 -26 -13 -26q-12 0 -19 22q-9 32 -22 42t-43 12q-32 3 -100 3q-3 0 -8 -5t-5 -7 q-3 -23 -3 -76q0 -13 0.5 -35t0.5 -28q3 -78 4 -82q7 -21 22 -24q32 -6 81 -6q67 0 92 9q47 17 79 74q19 35 31 35q9 0 9 -19q0 -2 -0.5 -5.5t-0.5 -4.5q0 -6 -16 -55.5t-22 -60.5q-2 -5 -10.5 -9t-13.5 -4q-3 0 -71 1.5t-148.5 2.5t-113.5 1q-37 0 -68.5 -2.5t-45.5 -2.5 q-34 0 -34 13t30 20q39 9 52 23t16 53q8 112 8 242v130q0 49 -1 63q-2 29 -12.5 43.5t-40.5 20.5q-32 6 -32 18q0 6 10 10.5t21 4.5q23 0 88.5 -1.5t92.5 -1.5z"/>
<glyph glyph-name="Ecircumflex" horiz-adv-x="587" unicode="Ê" d="M299 834q13 0 45 -29q66 -62 94 -87q13 -8 13 -22q0 -10 -13 -10q-16 0 -34 10q-26 12 -100 51q-9 5 -20 0q-12 -7 -48 -24t-51 -25q-22 -11 -33 -11q-10 0 -10 9q0 11 18 28q3 2 41 35t55 47q28 28 43 28zM250 633h150q46 0 88 6h1q9 0 11 -13q1 -18 1 -107 q0 -11 -4.5 -19.5t-11.5 -8.5q-6 0 -11.5 8t-7.5 17q-15 67 -64 75q-34 6 -115 6h-24q-12 0 -13 -28q-4 -44 -4 -192v-27q0 -3 3 -6.5t7 -3.5h80q51 0 62 6.5t26 41.5q10 26 22 26q10 0 10 -24q0 -15 -2 -38.5t-2 -34.5q0 -14 2 -36.5t2 -35.5q0 -26 -13 -26q-12 0 -19 22 q-9 32 -22 42t-43 12q-32 3 -100 3q-3 0 -8 -5t-5 -7q-3 -23 -3 -76q0 -13 0.5 -35t0.5 -28q3 -78 4 -82q7 -21 22 -24q32 -6 81 -6q67 0 92 9q47 17 79 74q19 35 31 35q9 0 9 -19q0 -2 -0.5 -5.5t-0.5 -4.5q0 -6 -16 -55.5t-22 -60.5q-2 -5 -10.5 -9t-13.5 -4q-3 0 -71 1.5 t-148.5 2.5t-113.5 1q-37 0 -68.5 -2.5t-45.5 -2.5q-34 0 -34 13t30 20q39 9 52 23t16 53q8 112 8 242v130q0 49 -1 63q-2 29 -12.5 43.5t-40.5 20.5q-32 6 -32 18q0 6 10 10.5t21 4.5q23 0 88.5 -1.5t92.5 -1.5z"/>
<glyph glyph-name="Edieresis" horiz-adv-x="587" unicode="Ë" d="M403 806q22 0 35.5 -18.5t13.5 -40.5t-18 -37.5t-37 -15.5t-35 14.5t-16 40.5q0 22 17 39.5t40 17.5zM197 806q22 0 35.5 -18.5t13.5 -40.5q0 -23 -18 -38t-38 -15q-18 0 -34 14.5t-16 41.5q0 21 17 38.5t40 17.5zM250 633h150q46 0 88 6h1q9 0 11 -13q1 -18 1 -107 q0 -11 -4.5 -19.5t-11.5 -8.5q-6 0 -11.5 8t-7.5 17q-15 67 -64 75q-34 6 -115 6h-24q-12 0 -13 -28q-4 -44 -4 -192v-27q0 -3 3 -6.5t7 -3.5h80q51 0 62 6.5t26 41.5q10 26 22 26q10 0 10 -24q0 -15 -2 -38.5t-2 -34.5q0 -14 2 -36.5t2 -35.5q0 -26 -13 -26q-12 0 -19 22 q-9 32 -22 42t-43 12q-32 3 -100 3q-3 0 -8 -5t-5 -7q-3 -23 -3 -76q0 -13 0.5 -35t0.5 -28q3 -78 4 -82q7 -21 22 -24q32 -6 81 -6q67 0 92 9q47 17 79 74q19 35 31 35q9 0 9 -19q0 -2 -0.5 -5.5t-0.5 -4.5q0 -6 -16 -55.5t-22 -60.5q-2 -5 -10.5 -9t-13.5 -4q-3 0 -71 1.5 t-148.5 2.5t-113.5 1q-37 0 -68.5 -2.5t-45.5 -2.5q-34 0 -34 13t30 20q39 9 52 23t16 53q8 112 8 242v130q0 49 -1 63q-2 29 -12.5 43.5t-40.5 20.5q-32 6 -32 18q0 6 10 10.5t21 4.5q23 0 88.5 -1.5t92.5 -1.5z"/>
<glyph glyph-name="Igrave" horiz-adv-x="369" unicode="Ì" d="M91 848q13 0 45 -30q57 -54 106 -104q12 -15 12 -26q0 -3 -1 -4q-6 -6 -16 -6q-16 0 -28 7q-51 25 -147 85q-25 17 -25 28q0 10 25 33q17 17 29 17zM124 334q0 155 -3 193q-2 29 -4 39.5t-13 20t-35 15.5q-30 8 -30 20q0 14 32 14q14 0 55.5 -1.5t58.5 -1.5 q26 0 64.5 1.5t54.5 1.5q31 0 31 -14q0 -15 -31 -20q-18 -3 -29.5 -9t-16.5 -15.5t-6.5 -16.5t-2.5 -20q-4 -33 -4 -232q0 -149 3 -194t14 -60t52 -26q28 -6 28 -21q0 -13 -31 -13q-18 0 -68 2.5t-72 2.5h-10q-13 0 -45 -1.5t-51 -1.5q-31 0 -31 17q0 12 30 19q33 8 43 24 t12 51q5 63 5 226z"/>
<glyph glyph-name="Iacute" horiz-adv-x="369" unicode="Í" d="M270 835q11 8 29 8q6 0 8 -1q46 -24 46 -43q0 -6 -8.5 -15.5t-17.5 -14.5q-116 -63 -160 -80q-20 -4 -23 -4q-11 0 -16 5q-2 2 -2 4q0 12 15 27q88 81 129 114zM124 334q0 155 -3 193q-2 29 -4 39.5t-13 20t-35 15.5q-30 8 -30 20q0 14 32 14q14 0 55.5 -1.5t58.5 -1.5 q26 0 64.5 1.5t54.5 1.5q31 0 31 -14q0 -15 -31 -20q-18 -3 -29.5 -9t-16.5 -15.5t-6.5 -16.5t-2.5 -20q-4 -33 -4 -232q0 -149 3 -194t14 -60t52 -26q28 -6 28 -21q0 -13 -31 -13q-18 0 -68 2.5t-72 2.5h-10q-13 0 -45 -1.5t-51 -1.5q-31 0 -31 17q0 12 30 19q33 8 43 24 t12 51q5 63 5 226z"/>
<glyph glyph-name="Icircumflex" horiz-adv-x="369" unicode="Î" d="M186 832q13 0 45 -29q66 -62 94 -87q13 -8 13 -22q0 -10 -13 -10q-17 0 -34 10q-26 12 -100 51q-9 5 -20 0q-12 -7 -48 -24t-51 -25q-22 -11 -33 -11q-10 0 -10 9q0 11 18 28q3 2 41 35t55 47q28 28 43 28zM124 334q0 155 -3 193q-2 29 -4 39.5t-13 20t-35 15.5 q-30 8 -30 20q0 14 32 14q14 0 55.5 -1.5t58.5 -1.5q26 0 64.5 1.5t54.5 1.5q31 0 31 -14q0 -15 -31 -20q-18 -3 -29.5 -9t-16.5 -15.5t-6.5 -16.5t-2.5 -20q-4 -33 -4 -232q0 -149 3 -194t14 -60t52 -26q28 -6 28 -21q0 -13 -31 -13q-18 0 -68 2.5t-72 2.5h-10 q-13 0 -45 -1.5t-51 -1.5q-31 0 -31 17q0 12 30 19q33 8 43 24t12 51q5 63 5 226z"/>
<glyph glyph-name="Idieresis" horiz-adv-x="369" unicode="Ï" d="M294 804q22 0 35.5 -18.5t13.5 -40.5t-18 -37.5t-37 -15.5t-35 14.5t-16 40.5q0 22 17 39.5t40 17.5zM88 804q22 0 35.5 -18.5t13.5 -40.5q0 -23 -18 -38t-38 -15q-18 0 -34 14.5t-16 41.5q0 21 17 38.5t40 17.5zM124 334q0 155 -3 193q-2 29 -4 39.5t-13 20t-35 15.5 q-30 8 -30 20q0 14 32 14q14 0 55.5 -1.5t58.5 -1.5q26 0 64.5 1.5t54.5 1.5q31 0 31 -14q0 -15 -31 -20q-18 -3 -29.5 -9t-16.5 -15.5t-6.5 -16.5t-2.5 -20q-4 -33 -4 -232q0 -149 3 -194t14 -60t52 -26q28 -6 28 -21q0 -13 -31 -13q-18 0 -68 2.5t-72 2.5h-10 q-13 0 -45 -1.5t-51 -1.5q-31 0 -31 17q0 12 30 19q33 8 43 24t12 51q5 63 5 226z"/>
<glyph glyph-name="Eth" horiz-adv-x="760" unicode="Ð" d="M397 309l-145 -1q-7 0 -7 -8v-58q0 -98 4 -139q3 -35 19 -51q26 -26 72 -26q74 0 144 57q95 81 95 244q0 56 -21.5 113.5t-59.5 96.5q-32 32 -83.5 50.5t-105.5 18.5q-35 0 -48 -8q-6 -4 -12 -20q-4 -13 -4 -156v-61q0 -12 8 -12h144q14 0 14 -11q0 -8 -4.5 -18.5 t-9.5 -10.5zM47 349h68q9 0 9 10t-1 66t-2 89q-2 49 -11.5 63.5t-49.5 23.5q-23 6 -23 17q0 15 26 15h54q21 0 109 4t128 4q92 0 160.5 -30t108.5 -67q41 -39 66.5 -99.5t25.5 -118.5q0 -98 -48 -171.5t-110 -108.5q-94 -54 -227 -54q-84 0 -202 6q-30 1 -69 1q-31 0 -31 16 q0 13 21 17q47 6 59.5 25.5t14.5 87.5q2 110 2 154q0 9 -5 9h-73q-10 0 -10 23q0 4 3 11t7 7z"/>
<glyph glyph-name="Ntilde" horiz-adv-x="772" unicode="Ñ" d="M258 719q25 40 49 61q11 11 28 11q23 0 78 -2.5t72 -2.5h12q20 2 45 35q5 8 11 8q3 0 8.5 -6t7.5 -10q4 -9 -6 -19q-4 -4 -29.5 -35t-34.5 -38q-13 -10 -21 -10q-13 0 -73 4.5t-80 4.5q-12 0 -15 -1q-16 -4 -37 -34q-6 -10 -11 -10q-7 0 -13 5t-6 9q0 3 15 30zM22 622 q0 15 30 15q7 0 65 -2t87 -2q9 0 22 -13l84 -97q17 -21 61.5 -69t84.5 -90.5t91.5 -96.5t60.5 -63q3 -3 6 0t3 6q3 19 3 81q0 22 -0.5 72t-0.5 73q0 55 -6 107q-4 41 -62 56q-33 8 -33 23q0 12 29 12q13 0 36 -0.5t32 -0.5q27 0 66 2.5t49 2.5q24 0 24 -13t-25 -20 q-36 -12 -47 -27t-15 -48q-2 -28 -6 -170t-4 -204q0 -23 3 -84t3 -72q0 -6 -6 -12.5t-10 -6.5q-25 0 -54 38q-17 22 -65 81q-52 63 -180.5 206t-165.5 186q-4 4 -7.5 1t-3.5 -6q-4 -55 -5 -129q0 -38 -0.5 -93.5t-0.5 -72.5q0 -62 3 -98q3 -25 16 -39t47 -25q28 -8 28 -19 q0 -15 -33 -15q-14 0 -41.5 2t-45.5 2q-12 0 -49.5 -1.5t-45.5 -1.5q-26 0 -26 13q0 11 22 18q40 12 55.5 28.5t17.5 68.5q2 40 6.5 125.5l8 152t3.5 98.5q0 48 -6 56q-1 1 -6.5 7.5t-6 7.5t-5.5 6.5t-7.5 6.5t-8.5 5t-11.5 6t-13.5 4.5t-18 4.5q-9 2 -17.5 7t-8.5 10z"/>
<glyph glyph-name="Ograve" horiz-adv-x="783" unicode="Ò" d="M295 861q13 0 45 -30q57 -54 106 -104q12 -15 12 -26q0 -3 -1 -4q-6 -6 -16 -6q-16 0 -28 7q-51 25 -147 85q-25 17 -25 28q0 10 25 33q17 17 29 17zM364 615q-31 0 -62 -15.5t-51 -35.5q-70 -68 -70 -224q0 -123 68 -222t172 -99q61 0 102 41q33 33 55 95.5t22 139.5 q0 67 -26.5 143t-77.5 123q-26 23 -63 38.5t-69 15.5zM388 650q80 0 147.5 -28t110.5 -74t67 -103.5t24 -118.5q0 -171 -126 -272q-43 -33 -102 -52.5t-117 -19.5q-159 0 -260 107q-86 92 -86 229q0 157 129 260q38 29 96 50.5t117 21.5z"/>
<glyph glyph-name="Oacute" horiz-adv-x="783" unicode="Ó" d="M447 849q11 8 29 8q6 0 8 -1q46 -24 46 -43q0 -6 -8.5 -15.5t-17.5 -14.5q-116 -63 -160 -80q-20 -4 -23 -4q-11 0 -16 5q-2 2 -2 4q0 12 15 27q88 81 129 114zM364 615q-31 0 -62 -15.5t-51 -35.5q-70 -68 -70 -224q0 -123 68 -222t172 -99q61 0 102 41q33 33 55 95.5 t22 139.5q0 67 -26.5 143t-77.5 123q-26 23 -63 38.5t-69 15.5zM388 650q80 0 147.5 -28t110.5 -74t67 -103.5t24 -118.5q0 -171 -126 -272q-43 -33 -102 -52.5t-117 -19.5q-159 0 -260 107q-86 92 -86 229q0 157 129 260q38 29 96 50.5t117 21.5z"/>
<glyph glyph-name="Ocircumflex" horiz-adv-x="783" unicode="Ô" d="M388 843q13 0 45 -29q66 -62 94 -87q13 -8 13 -22q0 -10 -13 -10q-17 0 -34 10q-26 12 -100 51q-9 5 -20 0q-12 -7 -48 -24t-51 -25q-22 -11 -33 -11q-10 0 -10 9q0 11 18 28q3 2 41 35t55 47q28 28 43 28zM364 615q-31 0 -62 -15.5t-51 -35.5q-70 -68 -70 -224 q0 -123 68 -222t172 -99q61 0 102 41q33 33 55 95.5t22 139.5q0 67 -26.5 143t-77.5 123q-26 23 -63 38.5t-69 15.5zM388 650q80 0 147.5 -28t110.5 -74t67 -103.5t24 -118.5q0 -171 -126 -272q-43 -33 -102 -52.5t-117 -19.5q-159 0 -260 107q-86 92 -86 229q0 157 129 260 q38 29 96 50.5t117 21.5z"/>
<glyph glyph-name="Otilde" horiz-adv-x="783" unicode="Õ" d="M242 732q25 40 49 61q11 11 28 11q23 0 78 -2.5t72 -2.5h12q20 2 45 35q5 8 11 8q3 0 8.5 -6t7.5 -10q4 -9 -6 -19q-4 -4 -29.5 -35t-34.5 -38q-13 -10 -21 -10q-13 0 -73 4.5t-80 4.5q-12 0 -15 -1q-16 -4 -37 -34q-6 -10 -11 -10q-7 0 -13 5t-6 9q0 3 15 30zM364 615 q-31 0 -62 -15.5t-51 -35.5q-70 -68 -70 -224q0 -123 68 -222t172 -99q61 0 102 41q33 33 55 95.5t22 139.5q0 67 -26.5 143t-77.5 123q-26 23 -63 38.5t-69 15.5zM388 650q80 0 147.5 -28t110.5 -74t67 -103.5t24 -118.5q0 -171 -126 -272q-43 -33 -102 -52.5t-117 -19.5 q-159 0 -260 107q-86 92 -86 229q0 157 129 260q38 29 96 50.5t117 21.5z"/>
<glyph glyph-name="Odieresis" horiz-adv-x="783" unicode="Ö" d="M493 814q22 0 35.5 -18.5t13.5 -40.5t-18 -37.5t-37 -15.5t-35 14.5t-16 40.5q0 22 17 39.5t40 17.5zM287 814q22 0 35.5 -18.5t13.5 -40.5q0 -23 -18 -38t-38 -15q-18 0 -34 14.5t-16 41.5q0 21 17 38.5t40 17.5zM364 615q-31 0 -62 -15.5t-51 -35.5q-70 -68 -70 -224 q0 -123 68 -222t172 -99q61 0 102 41q33 33 55 95.5t22 139.5q0 67 -26.5 143t-77.5 123q-26 23 -63 38.5t-69 15.5zM388 650q80 0 147.5 -28t110.5 -74t67 -103.5t24 -118.5q0 -171 -126 -272q-43 -33 -102 -52.5t-117 -19.5q-159 0 -260 107q-86 92 -86 229q0 157 129 260 q38 29 96 50.5t117 21.5z"/>
<glyph glyph-name="multiply" horiz-adv-x="624" unicode="×" d="M88 430q-1 1 -1 3q0 14 25 39q6 6 13 6q5 0 8 -3l175 -175q6 -6 15 1l168 174q3 3 9 3t8 -2q22 -22 22 -35q0 -3 -1 -4l-174 -179q-6 -4 3 -13l174 -173q4 -4 4 -10q0 -16 -23 -39q-4 -4 -9 -4t-11 6l-179 179q-9 9 -15 1l-165 -166q-14 -15 -23 -6q-22 20 -22 37 q0 2 1 3l170 171q4 9 0 12z"/>
<glyph glyph-name="Oslash" horiz-adv-x="783" unicode="Ø" d="M366 614q-30 0 -61.5 -14.5t-50.5 -33.5q-73 -69 -73 -236q0 -97 48 -180q3 -5 7 -1q46 60 144.5 192t141.5 188q2 2 2 6.5t-2 5.5q-66 73 -156 73zM424 18q54 0 96 38q34 33 58 98t24 142q0 101 -50 198q-5 8 -8 3q-38 -50 -136.5 -182.5t-147.5 -196.5q-7 -7 -2 -13 q32 -39 76 -63t90 -24zM390 650q99 0 181 -45q6 -4 11 3l32 40q12 16 18 16q9 0 18 -13q5 -5 -1 -13l-37 -51q-3 -5 0 -8q60 -47 92.5 -114.5t32.5 -140.5q0 -169 -128 -271q-93 -72 -217 -72q-99 0 -188 51q-6 5 -11 -2q-20 -26 -54 -66q-1 -1 -8 -1q-11 0 -16 3 q-13 12 -5 20q4 6 11.5 16t19.5 25t20 26q5 6 -3 10q-112 97 -112 254q0 156 128 260q37 30 96.5 51.5t119.5 21.5z"/>
<glyph glyph-name="Ugrave" horiz-adv-x="763" unicode="Ù" d="M307 848q13 0 45 -30q57 -54 106 -104q12 -15 12 -26q0 -3 -1 -4q-6 -6 -16 -6q-16 0 -28 7q-51 25 -147 85q-25 17 -25 28q0 10 25 33q17 17 29 17zM33 623q0 14 30 14q22 0 61 -2t56 -2q20 0 63 2t52 2q29 0 29 -15q0 -14 -30 -20q-27 -5 -38.5 -17t-15.5 -41 q-4 -24 -4 -161v-109q0 -79 13.5 -117t42.5 -68q19 -19 57.5 -31.5t64.5 -12.5q145 0 175 131q19 84 19 275q0 69 -5 97q-2 23 -17 36t-49 21q-27 8 -27 20t27 12q11 0 43 -2t49 -2q21 0 51 2t42 2q25 0 25 -15q0 -11 -26 -17q-37 -9 -50.5 -28t-14.5 -66q0 -10 -8 -218 q-5 -119 -37.5 -182t-91.5 -97q-55 -31 -137 -31q-121 0 -188 61q-44 41 -62 98.5t-18 173.5q0 195 -4 243q-4 35 -50 45q-27 7 -27 19z"/>
<glyph glyph-name="Uacute" horiz-adv-x="763" unicode="Ú" d="M479 828q11 8 29 8q6 0 8 -1q46 -24 46 -43q0 -6 -8.5 -15.5t-17.5 -14.5q-116 -63 -160 -80q-20 -4 -23 -4q-11 0 -16 5q-2 2 -2 4q0 12 15 27q88 81 129 114zM33 623q0 14 30 14q22 0 61 -2t56 -2q20 0 63 2t52 2q29 0 29 -15q0 -14 -30 -20q-27 -5 -38.5 -17 t-15.5 -41q-4 -24 -4 -161v-109q0 -79 13.5 -117t42.5 -68q19 -19 57.5 -31.5t64.5 -12.5q145 0 175 131q19 84 19 275q0 69 -5 97q-2 23 -17 36t-49 21q-27 8 -27 20t27 12q11 0 43 -2t49 -2q21 0 51 2t42 2q25 0 25 -15q0 -11 -26 -17q-37 -9 -50.5 -28t-14.5 -66 q0 -10 -8 -218q-5 -119 -37.5 -182t-91.5 -97q-55 -31 -137 -31q-121 0 -188 61q-44 41 -62 98.5t-18 173.5q0 195 -4 243q-4 35 -50 45q-27 7 -27 19z"/>
<glyph glyph-name="Ucircumflex" horiz-adv-x="763" unicode="Û" d="M409 836q13 0 45 -29q66 -62 94 -87q13 -8 13 -22q0 -10 -13 -10q-16 0 -34 10q-26 12 -100 51q-9 5 -20 0q-12 -7 -48 -24t-51 -25q-22 -11 -33 -11q-10 0 -10 9q0 11 18 28q3 2 41 35t55 47q28 28 43 28zM33 623q0 14 30 14q22 0 61 -2t56 -2q20 0 63 2t52 2 q29 0 29 -15q0 -14 -30 -20q-27 -5 -38.5 -17t-15.5 -41q-4 -24 -4 -161v-109q0 -79 13.5 -117t42.5 -68q19 -19 57.5 -31.5t64.5 -12.5q145 0 175 131q19 84 19 275q0 69 -5 97q-2 23 -17 36t-49 21q-27 8 -27 20t27 12q11 0 43 -2t49 -2q21 0 51 2t42 2q25 0 25 -15 q0 -11 -26 -17q-37 -9 -50.5 -28t-14.5 -66q0 -10 -8 -218q-5 -119 -37.5 -182t-91.5 -97q-55 -31 -137 -31q-121 0 -188 61q-44 41 -62 98.5t-18 173.5q0 195 -4 243q-4 35 -50 45q-27 7 -27 19z"/>
<glyph glyph-name="Udieresis" horiz-adv-x="763" unicode="Ü" d="M520 806q22 0 35.5 -18.5t13.5 -40.5t-18 -37.5t-37 -15.5t-35 14.5t-16 40.5q0 22 17 39.5t40 17.5zM314 806q22 0 35.5 -18.5t13.5 -40.5q0 -23 -18 -38t-38 -15q-18 0 -34 14.5t-16 41.5q0 21 17 38.5t40 17.5zM33 623q0 14 30 14q22 0 61 -2t56 -2q20 0 63 2t52 2 q29 0 29 -15q0 -14 -30 -20q-27 -5 -38.5 -17t-15.5 -41q-4 -24 -4 -161v-109q0 -79 13.5 -117t42.5 -68q19 -19 57.5 -31.5t64.5 -12.5q145 0 175 131q19 84 19 275q0 69 -5 97q-2 23 -17 36t-49 21q-27 8 -27 20t27 12q11 0 43 -2t49 -2q21 0 51 2t42 2q25 0 25 -15 q0 -11 -26 -17q-37 -9 -50.5 -28t-14.5 -66q0 -10 -8 -218q-5 -119 -37.5 -182t-91.5 -97q-55 -31 -137 -31q-121 0 -188 61q-44 41 -62 98.5t-18 173.5q0 195 -4 243q-4 35 -50 45q-27 7 -27 19z"/>
<glyph glyph-name="Yacute" horiz-adv-x="641" unicode="Ý" d="M433 827q11 8 29 8q6 0 8 -1q46 -24 46 -43q0 -6 -8.5 -15.5t-17.5 -14.5q-116 -63 -160 -80q-20 -4 -23 -4q-11 0 -16 5q-2 2 -2 4q0 12 15 27q88 81 129 114zM5 626q0 13 30 13q9 0 56.5 -3t73.5 -3q13 0 44.5 1t52.5 1q25 0 25 -12q0 -15 -23 -21q-30 -5 -30 -24 q0 -11 7 -24q35 -64 115 -200q2 -2 6.5 -1t6.5 4q82 128 111 185q10 18 10 30q0 23 -41 31q-27 6 -27 22q0 10 22 10q13 0 35 -1t33 -1q16 0 64 2.5t55 2.5q23 0 23 -11q0 -13 -28 -21q-32 -8 -51.5 -24.5t-49.5 -52.5q-35 -44 -133 -195q-14 -24 -14 -54q0 -141 7 -199 q3 -21 14.5 -32t49.5 -21q26 -7 26 -19q0 -14 -31 -14q-6 0 -51.5 2.5t-58.5 2.5q-29 0 -62 -1.5t-56 -3.5t-27 -2q-26 0 -26 13t29 20q63 18 65 46q2 40 2 84q0 25 -0.5 63.5t-0.5 46.5q0 31 -9 49q-14 28 -119 199q-32 50 -51 68t-45 25q-29 6 -29 19z"/>
<glyph glyph-name="Thorn" horiz-adv-x="576" unicode="Þ" d="M412 317q0 76 -40 112t-100 36q-26 0 -31 -12q-5 -17 -5 -38v-216q0 -4 4 -11t8 -8q22 -6 41 -6q50 0 86.5 40.5t36.5 102.5zM115 131q2 60 2 393q0 44 -8.5 55.5t-44.5 22.5q-26 8 -26 19q0 6 8.5 10t18.5 4q11 0 49 -1t61 -1q18 0 57.5 1t55.5 1q27 0 27 -14 q0 -13 -26 -19q-18 -4 -25 -6.5t-14.5 -7t-9.5 -15.5t-3 -24.5t-1 -41.5q0 -3 2.5 -6t4.5 -3t32.5 2t51.5 2q84 0 146 -46t62 -132t-58.5 -138.5t-152.5 -52.5q-46 0 -81 13q-7 2 -7 -5q0 -54 6 -71.5t20 -23.5q11 -6 46 -16q23 -8 23 -17q0 -17 -32 -17q-8 0 -65 2t-82 2 q-18 0 -50.5 -1.5t-46.5 -1.5q-10 0 -18.5 4.5t-8.5 12.5q0 12 26 19q37 10 48 29t13 69z"/>
<glyph glyph-name="germandbls" horiz-adv-x="520" unicode="ß" d="M327 705q52 0 87 -26t47 -56.5t12 -59.5q0 -15 -2 -27t-3.5 -19t-7 -15.5t-8 -11.5t-10.5 -11t-10 -11l-53 -53q-30 -30 -30 -51q0 -27 20 -43q3 -2 31 -26t37 -33q55 -51 55 -113q0 -43 -32.5 -83t-76.5 -61q-34 -16 -62 -16q-58 0 -58 38q0 7 7 19.5t12 17.5 q10 10 21 4q43 -28 67 -28q46 0 46 44q0 23 -20 45.5t-71 62.5q-66 52 -66 119q0 32 25 52q7 7 26.5 26t32.5 32q58 57 58 134q0 40 -26 78t-76 38q-37 0 -58 -28t-33 -83q-14 -60 -14 -303q0 -155 4 -197q2 -20 28 -30q21 -9 21 -17q0 -15 -25 -15q-5 0 -32.5 1.5 t-45.5 1.5q-11 0 -50.5 -3t-46.5 -3q-25 0 -25 14q0 11 27 18q28 9 34 33q3 15 3 69q0 17 -0.5 48.5t-0.5 42.5v66q0 32 -1 38q-1 15 -10 17q-3 0 -14.5 2t-17.5 3q-7 1 -9.5 9t1.5 11q12 11 38 28q14 12 14 22q0 56 20.5 116.5t59.5 102.5q66 70 161 70z"/>
<glyph glyph-name="agrave" horiz-adv-x="418" unicode="à" d="M160 656q14 0 27 -35q11 -24 49 -146q3 -11 3 -19q0 -14 -8 -14q-14 0 -25 16q-53 68 -97 146q-8 16 -6 27q3 11 24 19q14 6 33 6zM190 49q20 0 38 12q9 5 9 19q4 28 4 89q0 10 -7 10q-13 0 -40 -9t-41 -17q-18 -13 -18 -40q0 -30 18.5 -47t36.5 -17zM218 407 q67 0 104 -54q22 -29 22 -86q0 -23 -2 -95t-2 -74q0 -19 11.5 -29.5t25.5 -10.5q5 0 35 12q3 2 6 -1q3 -6 3 -14q0 -17 -32.5 -42.5t-70.5 -25.5q-57 0 -75 48q-1 3 -4.5 4.5t-4.5 -0.5q-35 -25 -79 -42q-22 -8 -44 -8q-29 0 -53 30t-24 71q0 26 18 51q8 12 36 24 q10 4 37.5 12.5t60 17.5t38.5 11q18 6 18 15q2 14 2 66v11q-1 22 -18.5 43t-48.5 21q-22 0 -32 -7q-6 -3 -6 -46q0 -5 -4 -9q-5 -5 -44 -22.5t-44 -17.5q-4 0 -8.5 4.5t-4.5 9.5q0 42 84 96q25 16 56 26.5t44 10.5z"/>
<glyph glyph-name="aacute" horiz-adv-x="418" unicode="á" d="M243 636q2 6 11.5 12t17.5 6q46 0 49 -18q2 -11 -7 -27q-14 -26 -50.5 -78t-53.5 -71q-16 -16 -29 -16q-8 0 -8 12q0 5 4 19q24 75 66 161zM190 49q20 0 38 12q9 5 9 19q4 28 4 89q0 10 -7 10q-13 0 -40 -9t-41 -17q-18 -13 -18 -40q0 -30 18.5 -47t36.5 -17zM218 407 q67 0 104 -54q22 -29 22 -86q0 -23 -2 -95t-2 -74q0 -19 11.5 -29.5t25.5 -10.5q5 0 35 12q3 2 6 -1q3 -6 3 -14q0 -17 -32.5 -42.5t-70.5 -25.5q-57 0 -75 48q-1 3 -4.5 4.5t-4.5 -0.5q-35 -25 -79 -42q-22 -8 -44 -8q-29 0 -53 30t-24 71q0 26 18 51q8 12 36 24 q10 4 37.5 12.5t60 17.5t38.5 11q18 6 18 15q2 14 2 66v11q-1 22 -18.5 43t-48.5 21q-22 0 -32 -7q-6 -3 -6 -46q0 -5 -4 -9q-5 -5 -44 -22.5t-44 -17.5q-4 0 -8.5 4.5t-4.5 9.5q0 42 84 96q25 16 56 26.5t44 10.5z"/>
<glyph glyph-name="acircumflex" horiz-adv-x="418" unicode="â" d="M199 650q11 0 32 -39q3 -6 15 -28t26 -49t27 -52q7 -18 7 -25q0 -12 -10 -12q-6 0 -16.5 7.5t-14.5 13.5l-62 84q-2 3 -6.5 3t-5.5 -2q-50 -70 -63 -86q-12 -18 -27 -18q-5 0 -8 9t1 18q0 1 74 142q19 34 31 34zM190 49q20 0 38 12q9 5 9 19q4 28 4 89q0 10 -7 10 q-13 0 -40 -9t-41 -17q-18 -13 -18 -40q0 -30 18.5 -47t36.5 -17zM218 407q67 0 104 -54q22 -29 22 -86q0 -23 -2 -95t-2 -74q0 -19 11.5 -29.5t25.5 -10.5q5 0 35 12q3 2 6 -1q3 -6 3 -14q0 -17 -32.5 -42.5t-70.5 -25.5q-57 0 -75 48q-1 3 -4.5 4.5t-4.5 -0.5 q-35 -25 -79 -42q-22 -8 -44 -8q-29 0 -53 30t-24 71q0 26 18 51q8 12 36 24q10 4 37.5 12.5t60 17.5t38.5 11q18 6 18 15q2 14 2 66v11q-1 22 -18.5 43t-48.5 21q-22 0 -32 -7q-6 -3 -6 -46q0 -5 -4 -9q-5 -5 -44 -22.5t-44 -17.5q-4 0 -8.5 4.5t-4.5 9.5q0 42 84 96 q25 16 56 26.5t44 10.5z"/>
<glyph glyph-name="atilde" horiz-adv-x="418" unicode="ã" d="M123 509q-5 0 -10 -4.5t-13 -14.5t-10 -12q-4 -4 -9 -4q-3 0 -11 8.5t-8 10.5t10.5 16.5t29 35.5t35.5 32q9 8 17 5q46 -11 105 -11q25 0 34 7q7 5 19 18l11 13q0 1 1 1q4 0 12.5 -8t8.5 -12q0 -5 -3 -8q-8 -8 -38 -41t-33 -35q-8 -8 -13 -8t-57.5 5.5t-77.5 5.5zM190 49 q20 0 38 12q9 5 9 19q4 28 4 89q0 10 -7 10q-13 0 -40 -9t-41 -17q-18 -13 -18 -40q0 -30 18.5 -47t36.5 -17zM218 407q67 0 104 -54q22 -29 22 -86q0 -23 -2 -95t-2 -74q0 -19 11.5 -29.5t25.5 -10.5q5 0 35 12q3 2 6 -1q3 -6 3 -14q0 -17 -32.5 -42.5t-70.5 -25.5 q-57 0 -75 48q-1 3 -4.5 4.5t-4.5 -0.5q-35 -25 -79 -42q-22 -8 -44 -8q-29 0 -53 30t-24 71q0 26 18 51q8 12 36 24q10 4 37.5 12.5t60 17.5t38.5 11q18 6 18 15q2 14 2 66v11q-1 22 -18.5 43t-48.5 21q-22 0 -32 -7q-6 -3 -6 -46q0 -5 -4 -9q-5 -5 -44 -22.5t-44 -17.5 q-4 0 -8.5 4.5t-4.5 9.5q0 42 84 96q25 16 56 26.5t44 10.5z"/>
<glyph glyph-name="adieresis" horiz-adv-x="418" unicode="ä" d="M298 605q22 0 36.5 -18.5t14.5 -39.5q0 -23 -18.5 -39t-38.5 -16t-36.5 15t-16.5 41q0 22 17.5 39.5t41.5 17.5zM109 605q22 0 36.5 -18.5t14.5 -39.5q0 -25 -18 -40t-39 -15q-20 0 -36 14.5t-16 41.5q0 22 16.5 39.5t41.5 17.5zM190 49q20 0 38 12q9 5 9 19q4 28 4 89 q0 10 -7 10q-13 0 -40 -9t-41 -17q-18 -13 -18 -40q0 -30 18.5 -47t36.5 -17zM218 407q67 0 104 -54q22 -29 22 -86q0 -23 -2 -95t-2 -74q0 -19 11.5 -29.5t25.5 -10.5q5 0 35 12q3 2 6 -1q3 -6 3 -14q0 -17 -32.5 -42.5t-70.5 -25.5q-57 0 -75 48q-1 3 -4.5 4.5t-4.5 -0.5 q-35 -25 -79 -42q-22 -8 -44 -8q-29 0 -53 30t-24 71q0 26 18 51q8 12 36 24q10 4 37.5 12.5t60 17.5t38.5 11q18 6 18 15q2 14 2 66v11q-1 22 -18.5 43t-48.5 21q-22 0 -32 -7q-6 -3 -6 -46q0 -5 -4 -9q-5 -5 -44 -22.5t-44 -17.5q-4 0 -8.5 4.5t-4.5 9.5q0 42 84 96 q25 16 56 26.5t44 10.5z"/>
<glyph glyph-name="aring" horiz-adv-x="418" unicode="å" d="M203 596q-19 0 -32 -15t-13 -36q0 -25 13 -39t32 -14q45 0 45 54q0 21 -13 35.5t-32 14.5zM203 632q38 0 62.5 -26t24.5 -61q0 -36 -24.5 -62t-62.5 -26t-62.5 26t-24.5 62q0 35 24.5 61t62.5 26zM190 49q20 0 38 12q9 5 9 19q4 28 4 89q0 10 -7 10q-13 0 -40 -9t-41 -17 q-18 -13 -18 -40q0 -30 18.5 -47t36.5 -17zM218 407q67 0 104 -54q22 -29 22 -86q0 -23 -2 -95t-2 -74q0 -19 11.5 -29.5t25.5 -10.5q5 0 35 12q3 2 6 -1q3 -6 3 -14q0 -17 -32.5 -42.5t-70.5 -25.5q-57 0 -75 48q-1 3 -4.5 4.5t-4.5 -0.5q-35 -25 -79 -42q-22 -8 -44 -8 q-29 0 -53 30t-24 71q0 26 18 51q8 12 36 24q10 4 37.5 12.5t60 17.5t38.5 11q18 6 18 15q2 14 2 66v11q-1 22 -18.5 43t-48.5 21q-22 0 -32 -7q-6 -3 -6 -46q0 -5 -4 -9q-5 -5 -44 -22.5t-44 -17.5q-4 0 -8.5 4.5t-4.5 9.5q0 42 84 96q25 16 56 26.5t44 10.5z"/>
<glyph glyph-name="ae" horiz-adv-x="589" unicode="æ" d="M182 49q29 0 52 24q3 4 6 23q1 7 1 27q0 12 -0.5 31t-0.5 23q0 3 -3 4.5t-7 0.5q-31 -11 -48.5 -19.5t-32.5 -24t-15 -35.5q0 -25 14 -39.5t34 -14.5zM407 361q-20 0 -37 -11t-24 -23q-6 -9 -6 -23q3 -27 3 -58q0 -2 3 -4t5 -1q63 16 98 32q24 11 24 33q0 16 -16 35.5 t-50 19.5zM32 274q0 22 36 56q38 32 103 64q28 14 47 14q62 0 103 -52q4 -4 10 0q39 28 64.5 40t55.5 12q58 0 86.5 -38t28.5 -80q0 -6 -6 -14t-12 -9l-82 -23q-83 -22 -106 -29q-17 -6 -17 -15q0 -58 3 -75t17 -33q10 -12 34 -21t44 -9q66 0 113 44q4 4 8.5 0t4.5 -11 q0 -11 -11 -28q-22 -33 -63 -56t-87 -23q-99 0 -146 57q-8 8 -14 5q-5 -3 -19.5 -13.5t-21.5 -15t-20 -12.5t-22 -12t-20.5 -7t-21.5 -3q-31 0 -60 27.5t-29 70.5q0 56 61 77q12 5 68 25.5t64 23.5q15 5 17 14q1 16 1 44q0 52 -13 69q-19 24 -51 24q-16 0 -33 -13 q-6 -3 -6 -19q0 -7 1 -11q1 -15 -4 -20q-2 -2 -44 -21t-48 -19q-3 0 -8 5.5t-5 9.5z"/>
<glyph glyph-name="ccedilla" horiz-adv-x="414" unicode="ç" d="M273 407q70 0 105 -25q16 -12 16 -33q0 -12 -15 -28t-26 -16q-16 0 -50 27q-18 14 -25.5 19.5t-20.5 11t-25 5.5q-29 0 -53 -27q-37 -46 -37 -119q0 -74 41 -118.5t104 -44.5q50 0 90 30q4 4 8.5 2.5t4.5 -6.5q0 -21 -14 -35q-39 -41 -92 -55q-6 -8 -14 -18l-12 -15 t-4 -6q-5 -8 5 -14q62 -30 62 -82q0 -23 -19.5 -47t-41.5 -39q-43 -30 -68 -30q-14 0 -22 13q-3 6 -3 13q0 14 7 21q7 10 17 8q25 -5 35 -5q16 0 25 11t9 26q0 20 -17.5 32.5t-40.5 12.5q-9 0 -16 -1q-4 0 -11.5 8t-7.5 12t8 13q26 28 69 81q-4 -1 -14 -1q-54 0 -97.5 22.5 t-69.5 59.5q-31 52 -31 115q0 111 104 180q26 18 66 30t71 12z"/>
<glyph glyph-name="egrave" horiz-adv-x="414" unicode="è" d="M184 656q14 0 27 -35q11 -24 49 -146q3 -11 3 -19q0 -14 -8 -14q-14 0 -25 16q-53 68 -97 146q-8 16 -6 27q3 11 24 19q14 6 33 6zM234 379q-31 0 -57.5 -25t-35.5 -60q-2 -10 7 -10h28h79q14 0 24.5 8.5t10.5 25.5q0 21 -17.5 41t-38.5 20zM241 407q65 0 107 -42 q38 -36 38 -88q0 -6 -7 -15t-15 -9h-218q-9 0 -11 -7q-4 -11 -4 -36q0 -18 9 -46.5t22 -46.5q39 -50 111 -50q63 0 90 35q8 12 13 12q3 0 6 -4.5t3 -8.5q0 -12 -8 -25q-56 -87 -160 -87q-84 0 -134.5 57t-50.5 144q0 62 33.5 116t93.5 82q40 19 82 19z"/>
<glyph glyph-name="eacute" horiz-adv-x="414" unicode="é" d="M264 636q2 6 11.5 12t17.5 6q46 0 49 -18q2 -11 -7 -27q-14 -26 -50.5 -78t-53.5 -71q-16 -16 -29 -16q-8 0 -8 12q0 5 4 19q24 75 66 161zM234 379q-31 0 -57.5 -25t-35.5 -60q-2 -10 7 -10h28h79q14 0 24.5 8.5t10.5 25.5q0 21 -17.5 41t-38.5 20zM241 407 q65 0 107 -42q38 -36 38 -88q0 -6 -7 -15t-15 -9h-218q-9 0 -11 -7q-4 -11 -4 -36q0 -18 9 -46.5t22 -46.5q39 -50 111 -50q63 0 90 35q8 12 13 12q3 0 6 -4.5t3 -8.5q0 -12 -8 -25q-56 -87 -160 -87q-84 0 -134.5 57t-50.5 144q0 62 33.5 116t93.5 82q40 19 82 19z"/>
<glyph glyph-name="ecircumflex" horiz-adv-x="414" unicode="ê" d="M222 651q11 0 32 -39q3 -6 15 -28t26 -49t27 -52q7 -17 7 -25q0 -12 -10 -12q-6 0 -16.5 7.5t-14.5 13.5l-62 84q-2 3 -6.5 3t-5.5 -2q-50 -70 -63 -86q-12 -18 -27 -18q-5 0 -8 9t1 18q0 1 74 142q19 34 31 34zM234 379q-31 0 -57.5 -25t-35.5 -60q-2 -10 7 -10h28h79 q14 0 24.5 8.5t10.5 25.5q0 21 -17.5 41t-38.5 20zM241 407q65 0 107 -42q38 -36 38 -88q0 -6 -7 -15t-15 -9h-218q-9 0 -11 -7q-4 -11 -4 -36q0 -18 9 -46.5t22 -46.5q39 -50 111 -50q63 0 90 35q8 12 13 12q3 0 6 -4.5t3 -8.5q0 -12 -8 -25q-56 -87 -160 -87 q-84 0 -134.5 57t-50.5 144q0 62 33.5 116t93.5 82q40 19 82 19z"/>
<glyph glyph-name="edieresis" horiz-adv-x="414" unicode="ë" d="M319 605q22 0 36.5 -18.5t14.5 -39.5q0 -23 -18.5 -39t-38.5 -16t-36.5 15t-16.5 41q0 22 17.5 39.5t41.5 17.5zM130 605q22 0 36.5 -18.5t14.5 -39.5q0 -25 -18 -40t-39 -15q-20 0 -36 14.5t-16 41.5q0 22 16.5 39.5t41.5 17.5zM234 379q-31 0 -57.5 -25t-35.5 -60 q-2 -10 7 -10h28h79q14 0 24.5 8.5t10.5 25.5q0 21 -17.5 41t-38.5 20zM241 407q65 0 107 -42q38 -36 38 -88q0 -6 -7 -15t-15 -9h-218q-9 0 -11 -7q-4 -11 -4 -36q0 -18 9 -46.5t22 -46.5q39 -50 111 -50q63 0 90 35q8 12 13 12q3 0 6 -4.5t3 -8.5q0 -12 -8 -25 q-56 -87 -160 -87q-84 0 -134.5 57t-50.5 144q0 62 33.5 116t93.5 82q40 19 82 19z"/>
<glyph glyph-name="igrave" horiz-adv-x="272" unicode="ì" d="M89 656q14 0 27 -35q11 -24 49 -146q3 -11 3 -19q0 -14 -8 -14q-14 0 -25 16q-53 68 -97 146q-8 16 -6 27q3 11 24 19q14 6 33 6zM42 355q0 13 27 18q24 5 71.5 20.5t48.5 15.5q3 0 6.5 -4t3.5 -7q-5 -85 -5 -226q0 -31 2 -101q1 -21 9 -28t30 -14t22 -19q0 -13 -28 -13 q-2 0 -36 1.5t-47 1.5q-18 0 -54 -2t-43 -2q-28 0 -28 13q0 10 26 18q33 10 37 29q6 21 6 156q0 78 -2 90q-1 9 -34 36q-12 12 -12 17z"/>
<glyph glyph-name="iacute" horiz-adv-x="272" unicode="í" d="M173 636q2 6 11.5 12t17.5 6q46 0 49 -18q2 -11 -7 -27q-14 -26 -50.5 -78t-53.5 -71q-16 -16 -29 -16q-8 0 -8 12q0 5 4 19q24 75 66 161zM42 355q0 13 27 18q24 5 71.5 20.5t48.5 15.5q3 0 6.5 -4t3.5 -7q-5 -85 -5 -226q0 -31 2 -101q1 -21 9 -28t30 -14t22 -19 q0 -13 -28 -13q-2 0 -36 1.5t-47 1.5q-18 0 -54 -2t-43 -2q-28 0 -28 13q0 10 26 18q33 10 37 29q6 21 6 156q0 78 -2 90q-1 9 -34 36q-12 12 -12 17z"/>
<glyph glyph-name="icircumflex" horiz-adv-x="272" unicode="î" d="M138 651q11 0 32 -39q3 -6 15 -28t26 -49t27 -52q7 -17 7 -25q0 -12 -10 -12q-6 0 -16.5 7.5t-14.5 13.5l-62 84q-2 3 -6.5 3t-5.5 -2q-50 -70 -63 -86q-12 -18 -27 -18q-5 0 -8 9t1 18q0 1 74 142q19 34 31 34zM42 355q0 13 27 18q24 5 71.5 20.5t48.5 15.5q3 0 6.5 -4 t3.5 -7q-5 -85 -5 -226q0 -31 2 -101q1 -21 9 -28t30 -14t22 -19q0 -13 -28 -13q-2 0 -36 1.5t-47 1.5q-18 0 -54 -2t-43 -2q-28 0 -28 13q0 10 26 18q33 10 37 29q6 21 6 156q0 78 -2 90q-1 9 -34 36q-12 12 -12 17z"/>
<glyph glyph-name="idieresis" horiz-adv-x="272" unicode="ï" d="M239 605q22 0 36.5 -18.5t14.5 -39.5q0 -23 -18.5 -39t-38.5 -16t-36.5 15t-16.5 41q0 22 17.5 39.5t41.5 17.5zM50 605q22 0 36.5 -18.5t14.5 -39.5q0 -25 -18 -40t-39 -15q-20 0 -36 14.5t-16 41.5q0 22 16.5 39.5t41.5 17.5zM42 355q0 13 27 18q24 5 71.5 20.5 t48.5 15.5q3 0 6.5 -4t3.5 -7q-5 -85 -5 -226q0 -31 2 -101q1 -21 9 -28t30 -14t22 -19q0 -13 -28 -13q-2 0 -36 1.5t-47 1.5q-18 0 -54 -2t-43 -2q-28 0 -28 13q0 10 26 18q33 10 37 29q6 21 6 156q0 78 -2 90q-1 9 -34 36q-12 12 -12 17z"/>
<glyph glyph-name="eth" horiz-adv-x="499" unicode="ð" d="M253 374q-37 0 -66 -40q-33 -52 -33 -137q0 -66 32 -120.5t76 -54.5q23 0 35.5 12t28.5 41q10 18 17 60t7 76q0 91 -23 123q-34 40 -74 40zM63 689q0 7 8 12.5t16 5.5q44 -1 102 -26t110 -62q2 -1 8.5 -1.5t7.5 0.5l100 52q10 3 10 -4q7 -13 5 -19q0 -11 -16 -19l-69 -36 q-2 -1 -2.5 -5.5t0.5 -5.5q58 -64 90 -149t32 -169q0 -91 -29.5 -151t-70.5 -86q-56 -38 -116 -38q-99 0 -158.5 59t-59.5 147q0 66 37 122q30 43 81 68.5t116 25.5q22 0 54 -8q9 0 7 8q-13 75 -58 133q-3 5 -10 3l-109 -52q-11 -8 -17 0q-9 14 -9 17q1 6 7 10l101 52 q8 3 2 9q-85 79 -152 94q-18 4 -18 13z"/>
<glyph glyph-name="ntilde" horiz-adv-x="534" unicode="ñ" d="M193 510q-5 0 -10 -4.5t-13 -14.5t-10 -12q-4 -4 -9 -4q-3 0 -11 8.5t-8 10.5t10.5 16.5t29 35.5t35.5 32q9 8 17 5q46 -11 105 -11q25 0 34 7q7 5 19 18l11 13q0 1 1 1q4 0 12.5 -8t8.5 -12q0 -5 -3 -8q-8 -8 -38 -41t-33 -35q-8 -8 -13 -8t-57.5 5.5t-77.5 5.5zM49 350 q0 4 6.5 12t11.5 10q52 16 81 30q30 15 34 15q3 0 7 -6t4 -9q0 -6 -0.5 -23t-0.5 -21q0 -5 7 -5q72 54 127 54q57 0 92 -40q36 -41 36 -121q0 -140 3 -182q3 -25 35 -34q26 -7 26 -18q0 -14 -29 -14q-11 0 -44 1t-47 1t-43.5 -1.5t-35.5 -1.5q-27 0 -27 14q0 10 24 17 q17 7 22.5 16.5t7.5 34.5q2 33 2 186q0 40 -22 60q-23 21 -57 21q-38 0 -66 -20q-7 -5 -10 -22v-29q0 -195 2 -215q1 -12 7 -18t28 -13q17 -8 17 -17q0 -14 -28 -14q-9 0 -37.5 1t-39.5 1q-21 0 -54 -1.5t-39 -1.5q-27 0 -27 15q0 10 21 16q25 8 32 18t9 38q5 50 5 211 q0 15 -29 41q-11 11 -11 14z"/>
<glyph glyph-name="ograve" horiz-adv-x="504" unicode="ò" d="M206 657q14 0 27 -35q11 -24 49 -146q3 -11 3 -19q0 -14 -8 -14q-14 0 -25 16q-53 68 -97 146q-8 16 -6 27q3 11 24 19q14 6 33 6zM242 374q-26 0 -49 -22q-41 -37 -41 -131q0 -59 12 -96q15 -50 45.5 -77t63.5 -27q22 0 44 25q37 48 37 137q0 94 -40 151q-31 40 -72 40z M261 407q81 0 146 -58t65 -150q0 -58 -27.5 -103t-61.5 -67q-58 -41 -138 -41q-34 0 -72 14.5t-66 37.5q-33 27 -54 69.5t-21 84.5q0 97 69 155q67 58 160 58z"/>
<glyph glyph-name="oacute" horiz-adv-x="504" unicode="ó" d="M289 636q2 6 11.5 12t17.5 6q46 0 49 -18q2 -11 -7 -27q-14 -26 -50.5 -78t-53.5 -71q-16 -16 -29 -16q-8 0 -8 12q0 5 4 19q24 75 66 161zM242 374q-26 0 -49 -22q-41 -37 -41 -131q0 -59 12 -96q15 -50 45.5 -77t63.5 -27q22 0 44 25q37 48 37 137q0 94 -40 151 q-31 40 -72 40zM261 407q81 0 146 -58t65 -150q0 -58 -27.5 -103t-61.5 -67q-58 -41 -138 -41q-34 0 -72 14.5t-66 37.5q-33 27 -54 69.5t-21 84.5q0 97 69 155q67 58 160 58z"/>
<glyph glyph-name="ocircumflex" horiz-adv-x="504" unicode="ô" d="M251 651q11 0 32 -39q3 -6 15 -28t26 -49t27 -52q7 -17 7 -25q0 -12 -10 -12q-6 0 -16.5 7.5t-14.5 13.5l-62 84q-2 3 -6.5 3t-5.5 -2q-50 -70 -63 -86q-12 -18 -27 -18q-5 0 -8 9t1 18q0 1 74 142q19 34 31 34zM242 374q-26 0 -49 -22q-41 -37 -41 -131q0 -59 12 -96 q15 -50 45.5 -77t63.5 -27q22 0 44 25q37 48 37 137q0 94 -40 151q-31 40 -72 40zM261 407q81 0 146 -58t65 -150q0 -58 -27.5 -103t-61.5 -67q-58 -41 -138 -41q-34 0 -72 14.5t-66 37.5q-33 27 -54 69.5t-21 84.5q0 97 69 155q67 58 160 58z"/>
<glyph glyph-name="otilde" horiz-adv-x="504" unicode="õ" d="M174 508q-5 0 -10 -4.5t-13 -14.5t-10 -12q-4 -4 -9 -4q-3 0 -11 8.5t-8 10.5t10.5 16.5t29 35.5t35.5 32q9 8 17 5q46 -11 105 -11q25 0 34 7q7 5 18 18l12 13q0 1 1 1q4 0 12.5 -8t8.5 -12q0 -5 -3 -8q-8 -8 -38 -41t-33 -35q-8 -8 -13 -8t-57.5 5.5t-77.5 5.5z M242 374q-26 0 -49 -22q-41 -37 -41 -131q0 -59 12 -96q15 -50 45.5 -77t63.5 -27q22 0 44 25q37 48 37 137q0 94 -40 151q-31 40 -72 40zM261 407q81 0 146 -58t65 -150q0 -58 -27.5 -103t-61.5 -67q-58 -41 -138 -41q-34 0 -72 14.5t-66 37.5q-33 27 -54 69.5t-21 84.5 q0 97 69 155q67 58 160 58z"/>
<glyph glyph-name="odieresis" horiz-adv-x="504" unicode="ö" d="M344 605q22 0 36.5 -18.5t14.5 -39.5q0 -23 -18.5 -39t-38.5 -16t-36.5 15t-16.5 41q0 22 17.5 39.5t41.5 17.5zM155 605q22 0 36.5 -18.5t14.5 -39.5q0 -25 -18 -40t-39 -15q-20 0 -36 14.5t-16 41.5q0 22 16.5 39.5t41.5 17.5zM242 374q-26 0 -49 -22q-41 -37 -41 -131 q0 -59 12 -96q15 -50 45.5 -77t63.5 -27q22 0 44 25q37 48 37 137q0 94 -40 151q-31 40 -72 40zM261 407q81 0 146 -58t65 -150q0 -58 -27.5 -103t-61.5 -67q-58 -41 -138 -41q-34 0 -72 14.5t-66 37.5q-33 27 -54 69.5t-21 84.5q0 97 69 155q67 58 160 58z"/>
<glyph glyph-name="divide" horiz-adv-x="624" unicode="÷" d="M552 284q11 0 11 -12q0 -18 -4.5 -33t-9.5 -15h-470q-19 0 -19 15q0 12 4 28.5t9 16.5h479zM311 359q-22 0 -39 16.5t-17 39.5t17 41t39 18q25 0 41.5 -17.5t16.5 -41.5t-16.5 -40t-41.5 -16zM311 146q23 0 39.5 -16.5t16.5 -38.5q0 -25 -16 -42.5t-40 -17.5 q-25 0 -41.5 17.5t-16.5 42.5q0 22 16.5 38.5t41.5 16.5z"/>
<glyph glyph-name="oslash" horiz-adv-x="508" unicode="ø" d="M188 71q34 -50 79 -50q29 0 58 31q35 46 35 133q0 48 -14 93q-2 5 -6 4q-10 -12 -66 -85.5t-86 -111.5q-6 -8 0 -14zM242 375q-25 0 -51 -24q-15 -15 -28 -51.5t-13 -82.5q0 -56 15 -96q0 -2 3.5 -3t4.5 0q15 20 69 90.5t82 107.5q4 6 -1 11q-35 48 -81 48zM263 407 q57 0 102 -25q7 0 8 1l20 24q10 13 17 13q8 0 13.5 -6.5t5.5 -11.5q0 -2 -1 -3l-26 -35q-2 -5 2 -8q72 -65 72 -159q0 -55 -27.5 -100t-61.5 -67q-58 -42 -139 -42q-47 0 -103 27q-2 1 -6 0.5t-5 -2.5l-33 -39q-1 -1 -3 -1q-4 0 -8 2q-8 6 -10.5 12.5t0.5 8.5l28 36 q2 4 -2 8q-74 63 -74 152q0 99 69 157q70 58 162 58z"/>
<glyph glyph-name="ugrave" horiz-adv-x="513" unicode="ù" d="M195 656q14 0 27 -35q11 -24 49 -146q3 -11 3 -19q0 -14 -8 -14q-14 0 -25 16q-53 68 -97 146q-8 16 -6 27q3 11 24 19q14 6 33 6zM256 51q32 0 61 24q3 2 6.5 11t3.5 12l1 224q0 15 -17 23q-5 2 -40 15q-16 5 -16 18q0 3 5.5 6.5t11.5 3.5q69 0 132 13q20 4 24 4 q10 0 10 -16q-5 -90 -5 -322q0 -18 13 -18q3 0 20 3.5t25 3.5q2 0 7 -11.5t5 -14.5q0 -2 -4.5 -6.5t-7.5 -4.5q-30 -2 -102 -21q-44 -13 -52 -13q-3 0 -7 4.5t-4 9.5q0 7 2 41q0 2 -1 4.5t-2.5 3t-2.5 -0.5q-51 -37 -70 -44q-32 -15 -64 -15q-67 0 -102 53q-11 16 -11 53 q0 141 -3 221q0 14 -6 22.5t-11 11.5t-17 8q-18 8 -18 21q0 11 16 11q12 0 45.5 2.5t62.5 5.5t30 3q3 0 5.5 -5.5t2.5 -9.5q0 -9 0.5 -32t0.5 -36q0 -43 -1 -117.5t-1 -86.5q0 -26 19 -43q25 -19 56 -19z"/>
<glyph glyph-name="uacute" horiz-adv-x="513" unicode="ú" d="M290 630q2 6 11.5 12t17.5 6q46 0 49 -18q2 -12 -7 -27q-14 -26 -50.5 -78t-53.5 -71q-16 -16 -29 -16q-8 0 -8 12q0 5 4 19q24 75 66 161zM256 51q32 0 61 24q3 2 6.5 11t3.5 12l1 224q0 15 -17 23q-5 2 -40 15q-16 5 -16 18q0 3 5.5 6.5t11.5 3.5q69 0 132 13 q20 4 24 4q10 0 10 -16q-5 -90 -5 -322q0 -18 13 -18q3 0 20 3.5t25 3.5q2 0 7 -11.5t5 -14.5q0 -2 -4.5 -6.5t-7.5 -4.5q-30 -2 -102 -21q-44 -13 -52 -13q-3 0 -7 4.5t-4 9.5q0 7 2 41q0 2 -1 4.5t-2.5 3t-2.5 -0.5q-51 -37 -70 -44q-32 -15 -64 -15q-67 0 -102 53 q-11 16 -11 53q0 141 -3 221q0 14 -6 22.5t-11 11.5t-17 8q-18 8 -18 21q0 11 16 11q12 0 45.5 2.5t62.5 5.5t30 3q3 0 5.5 -5.5t2.5 -9.5q0 -9 0.5 -32t0.5 -36q0 -43 -1 -117.5t-1 -86.5q0 -26 19 -43q25 -19 56 -19z"/>
<glyph glyph-name="ucircumflex" horiz-adv-x="513" unicode="û" d="M251 651q11 0 32 -39q3 -6 15 -28t26 -49t27 -52q7 -17 7 -25q0 -12 -10 -12q-6 0 -16.5 7.5t-14.5 13.5l-62 84q-2 3 -6.5 3t-5.5 -2q-50 -70 -63 -86q-12 -18 -27 -18q-5 0 -8 9t1 18q0 1 74 142q19 34 31 34zM256 51q32 0 61 24q3 2 6.5 11t3.5 12l1 224q0 15 -17 23 q-5 2 -40 15q-16 5 -16 18q0 3 5.5 6.5t11.5 3.5q69 0 132 13q20 4 24 4q10 0 10 -16q-5 -90 -5 -322q0 -18 13 -18q3 0 20 3.5t25 3.5q2 0 7 -11.5t5 -14.5q0 -2 -4.5 -6.5t-7.5 -4.5q-30 -2 -102 -21q-44 -13 -52 -13q-3 0 -7 4.5t-4 9.5q0 7 2 41q0 2 -1 4.5t-2.5 3 t-2.5 -0.5q-51 -37 -70 -44q-32 -15 -64 -15q-67 0 -102 53q-11 16 -11 53q0 141 -3 221q0 14 -6 22.5t-11 11.5t-17 8q-18 8 -18 21q0 11 16 11q12 0 45.5 2.5t62.5 5.5t30 3q3 0 5.5 -5.5t2.5 -9.5q0 -9 0.5 -32t0.5 -36q0 -43 -1 -117.5t-1 -86.5q0 -26 19 -43 q25 -19 56 -19z"/>
<glyph glyph-name="udieresis" horiz-adv-x="513" unicode="ü" d="M342 605q22 0 36.5 -18.5t14.5 -39.5q0 -23 -18.5 -39t-38.5 -16t-36.5 15t-16.5 41q0 22 17.5 39.5t41.5 17.5zM153 605q22 0 36.5 -18.5t14.5 -39.5q0 -25 -18 -40t-39 -15q-20 0 -36 14.5t-16 41.5q0 22 16.5 39.5t41.5 17.5zM256 51q32 0 61 24q3 2 6.5 11t3.5 12 l1 224q0 15 -17 23q-5 2 -40 15q-16 5 -16 18q0 3 5.5 6.5t11.5 3.5q69 0 132 13q20 4 24 4q10 0 10 -16q-5 -90 -5 -322q0 -18 13 -18q3 0 20 3.5t25 3.5q2 0 7 -11.5t5 -14.5q0 -2 -4.5 -6.5t-7.5 -4.5q-30 -2 -102 -21q-44 -13 -52 -13q-3 0 -7 4.5t-4 9.5q0 7 2 41 q0 2 -1 4.5t-2.5 3t-2.5 -0.5q-51 -37 -70 -44q-32 -15 -64 -15q-67 0 -102 53q-11 16 -11 53q0 141 -3 221q0 14 -6 22.5t-11 11.5t-17 8q-18 8 -18 21q0 11 16 11q12 0 45.5 2.5t62.5 5.5t30 3q3 0 5.5 -5.5t2.5 -9.5q0 -9 0.5 -32t0.5 -36q0 -43 -1 -117.5t-1 -86.5 q0 -26 19 -43q25 -19 56 -19z"/>
<glyph glyph-name="yacute" horiz-adv-x="426" unicode="ý" d="M275 636q2 6 11.5 12t17.5 6q46 0 49 -18q2 -11 -7 -27q-14 -26 -50.5 -78t-53.5 -71q-16 -16 -29 -16q-8 0 -8 12q0 5 4 19q24 75 66 161zM-13 385q0 4 6.5 8t17.5 4q18 0 51.5 -2t47.5 -2q17 0 46.5 1t34.5 1q24 0 24 -12q0 -11 -24 -18t-24 -20q0 -6 5 -21 q10 -34 37.5 -99.5t39.5 -89.5q5 -7 10 3q61 147 72 182q2 10 2 13q0 22 -40 34q-21 5 -21 15q0 13 25 13q10 0 31.5 -1t27.5 -1t31 2t39 2q21 0 21 -11q0 -12 -24 -19q-29 -8 -52 -49q-32 -65 -113 -268l-108 -272q-6 -15 -23.5 -24.5t-33.5 -9.5q-26 0 -39.5 17t-13.5 38 q0 15 12 32t33 17q2 0 21 -0.5t25 -0.5q11 0 18 17q12 21 44 113q4 15 1 21q-6 11 -17 43q-72 180 -123 287q-9 17 -17 24.5t-27 13.5q-23 7 -23 19z"/>
<glyph glyph-name="thorn" horiz-adv-x="505" unicode="þ" d="M247 349q-38 0 -53 -9q-9 -7 -11 -25q-5 -40 -5 -131v-53q2 -28 10 -45q15 -26 40 -42t42 -16q18 0 33 11q24 17 38.5 53t18 59.5t3.5 38.5q0 71 -41 118q-16 17 -39 29t-36 12zM74 75q0 37 -0.5 119t-0.5 97q0 212 -5 297q-2 16 -15 26q-6 4 -12 8.5t-10 7t-7 5 t-4.5 4.5t-1.5 3q0 5 6.5 11t11.5 8q89 23 107 32q24 12 30 12q2 0 6.5 -5.5t4.5 -9.5q-2 -43 -5 -318q0 -2 3 -4.5t5 -1.5q15 8 57 27q27 11 70 11q30 0 61.5 -15.5t51.5 -39.5q50 -55 50 -131q0 -106 -86 -174q-64 -51 -153 -51q-30 0 -48 3q-3 1 -6 -4.5t-3 -9.5v-27 q0 -87 4 -123q3 -23 11.5 -34.5t36.5 -19.5q27 -9 27 -19q0 -6 -9 -10t-19 -4q-13 0 -63.5 2.5t-69.5 2.5q-11 0 -34.5 -1t-47.5 -1q-28 0 -28 15q0 11 26 17q35 7 44 20.5t11 59.5q4 140 4 215z"/>
<glyph glyph-name="OE" horiz-adv-x="1072" unicode="Œ" d="M389 613q-69 0 -123 -48q-34 -28 -59.5 -90.5t-25.5 -148.5q0 -72 25.5 -139t82.5 -115t134 -48q56 0 106 36q83 67 83 247q0 88 -16.5 143.5t-57.5 97.5q-62 65 -149 65zM880 633q62 0 85 5q4 2 9.5 -2t6.5 -9l1 -17v-37.5v-35.5v-18q-1 -11 -6.5 -21.5t-11.5 -10.5 q-10 0 -19 24q-25 74 -44 78q-36 6 -151 6q-11 0 -14 -15q-6 -40 -6 -186q0 -10 0.5 -25t0.5 -19q3 -10 11 -10h72q48 0 65 10.5t31 48.5q8 21 18 21q13 0 13 -20q0 -11 -2 -35.5t-2 -36.5v-13q0 -33 4 -73q0 -12 -6.5 -20.5t-12.5 -8.5q-10 0 -16 22q-13 33 -23 45.5 t-33 14.5q-32 2 -112 2q-7 0 -7 -8q0 -127 1 -173q0 -47 8 -59q9 -12 27 -17t65 -5q81 0 107.5 14t66.5 79q19 30 29 30q12 0 12 -23q0 -6 -21 -64.5t-26 -64.5q-8 -11 -25 -11q-3 0 -106.5 2.5t-122.5 2.5q-22 0 -122 -4q-12 0 -12 24l1 53q1 3 -1.5 4.5t-6.5 -1.5 q-91 -95 -236 -95q-135 0 -229 98.5t-94 234.5q0 156 128 263q38 31 96.5 52.5t109.5 21.5q137 0 226 -89q8 -10 8 6q-2 36 -2 41q0 24 11 24h257z"/>
<glyph glyph-name="oe" horiz-adv-x="738" unicode="œ" d="M553 376q-30 0 -52.5 -24t-31.5 -57q-3 -12 10 -15h25h69q16 1 28 12.5t12 26.5q0 20 -14 38.5t-46 18.5zM238 374q-22 0 -44 -22q-17 -15 -29.5 -50.5t-12.5 -84.5q0 -84 32.5 -139.5t84.5 -55.5q31 0 51 27q29 48 29 140q0 25 -4.5 52.5t-15.5 59.5t-34.5 52.5 t-56.5 20.5zM259 407q44 0 81.5 -18.5t61.5 -46.5q6 -5 13 -1q67 65 150 65q63 0 105 -39.5t42 -88.5q0 -8 -12 -19t-24 -11h-204q-7 0 -9 -7q-4 -11 -4 -27q0 -70 38.5 -109t96.5 -39q26 0 48 8.5t30.5 15t22.5 19.5q4 4 8.5 2t4.5 -11q0 -14 -11 -31q-58 -80 -159 -80 q-83 0 -134 60q-5 5 -11 -1q-62 -60 -147 -60q-88 0 -151 60t-63 145q0 105 74 161q67 53 153 53z"/>
<glyph glyph-name="Scaron" horiz-adv-x="498" unicode="Š" d="M270 686q-12 0 -45 28q-4 4 -20.5 18.5t-36 33t-38.5 36.5q-12 7 -12 21q0 10 13 10q10 0 34 -9q51 -25 99 -52q10 -6 20 0q13 8 50 25.5t50 24.5q27 10 33 10q10 0 10 -8q0 -11 -18 -28l-96 -83q-29 -27 -43 -27zM286 650q34 0 126 -17q3 -1 7.5 -8.5t5.5 -11.5 q0 -8 5 -50.5t5 -43.5q0 -25 -9 -25q-7 0 -16.5 7t-12.5 17q-14 47 -43 71q-34 28 -80 28q-38 0 -70 -29t-32 -75q0 -41 29 -70.5t105 -77.5q85 -52 116 -100t31 -100q0 -41 -23 -81.5t-65 -65.5q-58 -36 -140 -36q-77 0 -144 26q-6 3 -16 14.5t-10 14.5q-17 74 -17 107 q0 5 6 13t10 8q12 0 39 -55q22 -44 60.5 -68t78.5 -24q38 0 71 27.5t33 72.5q0 34 -24 67t-89 75q-82 54 -119.5 101t-37.5 110q0 81 61 131q57 48 159 48z"/>
<glyph glyph-name="scaron" horiz-adv-x="347" unicode="š" d="M181 446q-10 0 -32 40q-5 10 -29 54.5t-39 74.5q-7 17 -7 24q0 12 10 12q6 0 16.5 -7t14.5 -13l61 -85q2 -3 7 -3t6 2q6 9 27.5 38t34.5 49q14 17 29 17q5 0 7.5 -8.5t-1.5 -17.5q-8 -19 -20 -43t-29 -54t-25 -45q-19 -35 -31 -35zM196 407q31 0 57 -6q20 -3 36 -11 q8 -6 9 -17q4 -28 4 -64q0 -7 -5 -14t-10 -7q-9 0 -22 24q-34 65 -83 65q-19 0 -34.5 -16t-15.5 -35q0 -17 13 -33t28.5 -25.5t46.5 -27.5q60 -32 79 -60t19 -66q0 -61 -63 -101q-15 -10 -46.5 -17.5t-54.5 -7.5q-74 0 -101 23q-4 5 -11.5 32t-7.5 50t10 23q11 0 24 -23 q23 -39 49 -57t48 -18q21 0 40 13q20 16 20 45q0 30 -40 55q-54 34 -69 43q-70 44 -70 112q0 29 16.5 56t46.5 44q39 21 87 21z"/>
<glyph glyph-name="Ydieresis" horiz-adv-x="641" unicode="Ÿ" d="M455 804q22 0 35.5 -18.5t13.5 -40.5t-18 -37.5t-37 -15.5t-35 14.5t-16 40.5q0 22 17 39.5t40 17.5zM249 804q22 0 35.5 -18.5t13.5 -40.5q0 -23 -18 -38t-38 -15q-18 0 -34 14.5t-16 41.5q0 21 17 38.5t40 17.5zM5 626q0 13 30 13q9 0 56.5 -3t73.5 -3q13 0 44.5 1 t52.5 1q25 0 25 -12q0 -15 -23 -21q-30 -5 -30 -24q0 -11 7 -24q35 -64 115 -200q2 -2 6.5 -1t6.5 4q82 128 111 185q10 18 10 30q0 23 -41 31q-27 6 -27 22q0 10 22 10q13 0 35 -1t33 -1q16 0 64 2.5t55 2.5q23 0 23 -11q0 -13 -28 -21q-32 -8 -51.5 -24.5t-49.5 -52.5 q-35 -44 -133 -195q-14 -24 -14 -54q0 -141 7 -199q3 -21 14.5 -32t49.5 -21q26 -7 26 -19q0 -14 -31 -14q-6 0 -51.5 2.5t-58.5 2.5q-29 0 -62 -1.5t-56 -3.5t-27 -2q-26 0 -26 13t29 20q63 18 65 46q2 40 2 84q0 25 -0.5 63.5t-0.5 46.5q0 31 -9 49q-14 28 -119 199 q-32 50 -51 68t-45 25q-29 6 -29 19z"/>
<glyph glyph-name="circumflex" horiz-adv-x="400" unicode="ˆ" d="M199 651q11 0 32 -39q3 -6 15 -28t26 -49t27 -52q7 -17 7 -25q0 -12 -10 -12q-6 0 -16.5 7.5t-14.5 13.5l-62 84q-2 3 -6.5 3t-5.5 -2q-50 -70 -63 -86q-12 -18 -27 -18q-9 0 -9 17q0 4 2 10q0 1 74 142q19 34 31 34z"/>
<glyph glyph-name="tilde" horiz-adv-x="400" unicode="˜" d="M121 511q-5 0 -10 -4.5t-13 -14.5t-10 -12q-4 -4 -9 -4q-3 0 -11 8.5t-8 10.5t10.5 16.5t29 35.5t35.5 32q9 8 17 5q46 -11 105 -11q25 0 34 7q7 5 19 18l11 13q0 1 1 1q4 0 12.5 -8t8.5 -12q0 -5 -3 -8q-8 -8 -38 -41t-33 -35q-8 -8 -13 -8t-57.5 5.5t-77.5 5.5z"/>
<glyph glyph-name="Alpha" horiz-adv-x="677" unicode="Α" d="M371 281q1 0 3 2.5t1 5.5q-37 117 -73 201q-2 5 -5.5 4t-5.5 -7q-67 -180 -72 -198q-2 -10 7 -10q78 2 145 2zM356 650q8 0 17 -22l40 -112q90 -252 143 -386q23 -56 41 -74t48 -27q26 -8 26 -18q0 -15 -33 -15q-12 0 -63.5 2t-67.5 2q-17 0 -51.5 -1t-46.5 -1 q-32 0 -32 15q0 12 26 17q41 10 41 34q0 2 -0.5 4t-0.5 4q-2 23 -46 146q-1 4 -8.5 9.5t-15.5 5.5h-41q-91 0 -127 -3q-4 0 -11 -10q-43 -108 -43 -145q0 -16 10.5 -26.5t36.5 -17.5q29 -7 29 -20t-30 -13q-7 0 -33 1t-47 1q-23 0 -59 -2t-40 -2q-29 0 -29 12q0 13 25 20 q37 10 52.5 26t38.5 63q13 27 85 209t88 221q5 10 7 20q1 4 8 14q3 4 22 27t23 29q9 13 18 13z"/>
<glyph glyph-name="Beta" horiz-adv-x="619" unicode="Β" d="M444 176q0 43 -20 77.5t-54 52.5q-34 19 -86 19q-27 0 -34 -7q-8 -8 -8 -47v-15q0 -109 4 -161q2 -20 13 -32q32 -34 63 -34q49 0 85.5 43t36.5 104zM417 475q0 60 -36 94.5t-92 34.5q-13 0 -35 -6q-7 -3 -9 -16q-4 -32 -4 -213q0 -4 3.5 -8.5t7.5 -4.5q85 0 117 24 q48 34 48 95zM534 487q0 -35 -16.5 -64t-28 -38.5t-34.5 -25.5q-2 -1 -1.5 -5t2.5 -4q120 -50 120 -165q0 -88 -85 -145q-32 -23 -85.5 -33.5t-93.5 -10.5q-48 0 -183 3h-20q-14 0 -32.5 -0.5t-23.5 -0.5q-32 0 -32 16q0 12 28 17q43 8 54.5 20t14.5 41q8 84 8 319 q0 122 -6 150q-4 18 -15 25.5t-48 14.5q-26 4 -26 19q0 13 28 13h66q15 0 94 3.5t101 3.5q97 0 144 -30q70 -43 70 -123z"/>
<glyph glyph-name="Gamma" horiz-adv-x="535" unicode="Γ" d="M326 633q143 0 171 7q13 0 13 -11q-3 -36 -3 -114v-24q0 -10 -4.5 -20t-10.5 -10q-16 0 -25 28q-9 31 -15 47.5t-20 35t-31 20.5q-26 3 -75 3q-13 0 -31 -0.5t-21 -0.5q-25 0 -25 -16q-4 -52 -4 -209q0 -35 0.5 -137t0.5 -138q1 -31 14 -43t49 -21q26 -9 26 -20 q0 -15 -30 -15q-11 0 -57 2.5t-67 2.5t-66.5 -3t-53.5 -3q-11 0 -19 4.5t-8 9.5q0 15 30 22q29 7 38 18t11 32q11 114 11 287q0 154 -2 180t-11 36.5t-37 17.5q-30 8 -30 22q0 5 9 9t20 4q22 0 62.5 -1.5t60.5 -1.5h130z"/>
<glyph glyph-name="uni0394" horiz-adv-x="680" unicode="Δ" d="M351 58q77 0 105 4q13 1 11 14q0 7 -8 32q-15 50 -76 203t-73 172q-1 2 -3 3t-4.5 -0.5t-4.5 -5.5q-67 -145 -155 -370q-10 -28 -10 -37q0 -8 28 -11q9 -1 190 -4zM191 0q-21 0 -66.5 -1t-52.5 -1q-9 0 -18 6t-9 14q0 4 1 6l48 94q37 70 195 431q4 9 4 24q0 7 2 8 q1 1 10 8.5t12 10.5t9.5 10t11 14t8.5 16q6 11 20 11q8 0 15 -21q3 -7 18 -44.5t22 -55.5q27 -65 65.5 -157t65 -156t36.5 -86q7 -17 20.5 -45t20.5 -44.5t7 -23.5q0 -8 -10.5 -14.5t-16.5 -6.5q-9 0 -52 1.5t-60 1.5h-306z"/>
<glyph glyph-name="Epsilon" horiz-adv-x="587" unicode="Ε" d="M250 633h150q46 0 88 6h1q9 0 11 -13q1 -18 1 -107q0 -11 -4.5 -19.5t-11.5 -8.5q-6 0 -11.5 8t-7.5 17q-15 67 -64 75q-34 6 -115 6h-24q-12 0 -13 -28q-4 -44 -4 -192v-27q0 -3 3 -6.5t7 -3.5h80q51 0 62 6.5t26 41.5q10 26 22 26q10 0 10 -24q0 -15 -2 -38.5t-2 -34.5 q0 -14 2 -36.5t2 -35.5q0 -26 -13 -26q-12 0 -19 22q-9 32 -22 42t-43 12q-32 3 -100 3q-3 0 -8 -5t-5 -7q-3 -23 -3 -76q0 -13 0.5 -35t0.5 -28q3 -78 4 -82q7 -21 22 -24q32 -6 81 -6q67 0 92 9q47 17 79 74q19 35 31 35q9 0 9 -19q0 -2 -0.5 -5.5t-0.5 -4.5 q0 -6 -16 -55.5t-22 -60.5q-2 -5 -10.5 -9t-13.5 -4q-3 0 -71 1.5t-148.5 2.5t-113.5 1q-37 0 -68.5 -2.5t-45.5 -2.5q-34 0 -34 13t30 20q39 9 52 23t16 53q8 112 8 242v130q0 49 -1 63q-2 29 -12.5 43.5t-40.5 20.5q-32 6 -32 18q0 6 10 10.5t21 4.5q23 0 88.5 -1.5 t92.5 -1.5z"/>
<glyph glyph-name="Zeta" horiz-adv-x="632" unicode="Ζ" d="M309 633q196 0 235 6q19 2 19 -8q0 -14 -13 -30q-25 -31 -82 -117q-65 -100 -148.5 -240t-102.5 -178q-2 -4 0 -9.5t5 -6.5q24 -11 113 -13q70 0 101 1q76 3 142 108q18 28 26 28q12 0 12 -24q-3 -32 -51 -137q-8 -18 -57 -18q-71 0 -214 2t-156 2q-26 0 -57 -1t-33 -1 q-6 0 -11.5 3.5t-5.5 9.5q0 8 32 49q45 59 174.5 271.5t144.5 248.5q2 4 0.5 8t-3.5 4q-35 5 -149 5q-31 0 -63 -6q-30 -7 -53 -24t-45 -56q-14 -25 -24 -25q-12 0 -12 18q0 4 2 12q2 9 21.5 59.5t26.5 78.5q2 12 12 12q9 0 15 -8q13 -16 50 -20q45 -4 149 -4z"/>
<glyph glyph-name="Eta" horiz-adv-x="817" unicode="Η" d="M246 361q2 -13 12 -13q29 0 138.5 2t166.5 2q7 0 9 25q1 5 1 56q0 77 -3 112q-3 29 -11.5 39.5t-37.5 17.5q-29 8 -29 21t33 13q5 0 51.5 -1.5t61.5 -1.5q18 0 61 1.5t46 1.5q31 0 31 -13t-32 -21q-25 -6 -33.5 -17.5t-10.5 -35.5q-8 -75 -8 -279q0 -51 4 -183 q1 -28 9.5 -36t41.5 -19q28 -9 28 -21q0 -14 -32 -14q-7 0 -45.5 1.5t-55.5 1.5q-11 0 -61.5 -2.5t-60.5 -2.5q-34 0 -34 14q0 13 27 21q36 10 44 24t12 71q3 39 3 112q0 39 -1 49q0 13 -8 13q-29 0 -126.5 1t-133.5 1q-14 0 -29 -1h-16q-4 -1 -8.5 -6t-4.5 -9 q-1 -11 -1 -50q0 -82 2 -126q1 -37 9.5 -51t38.5 -23q35 -10 35 -25q0 -5 -5.5 -8t-12.5 -4t-14 -1q-2 0 -26 0.5t-54 1.5t-45 1q-10 0 -50 -2t-58 -2q-35 0 -35 13q0 14 28 22q33 9 43.5 21t14.5 44q9 90 9 326q0 9 0.5 37t0.5 44q0 31 -1 44q-1 25 -10 35.5t-34 18.5 q-34 10 -34 22q0 14 31 14q14 0 54.5 -2t53.5 -2q23 0 62 1.5t49 1.5q33 0 33 -13q0 -14 -34 -22q-29 -6 -37 -20.5t-9 -48.5q-4 -108 -4 -140q0 -26 1 -31z"/>
<glyph glyph-name="Theta" horiz-adv-x="783" unicode="Θ" d="M538 389q-31 -81 -42 -143q-5 -29 -17 -29q-10 0 -17 18q-7 22 -15 30t-22 8l-81 -2q-33 0 -46 -5t-26 -22q-13 -19 -23 -19q-6 0 -10 7.5t0 17.5q4 11 11.5 30t11 28.5t8.5 24t8 28t5 28.5q5 29 15 29q6 0 9.5 -4t8.5 -17q5 -23 13 -29.5t29 -6.5h7l65 2q31 1 44 6.5 t31 25.5q17 21 26 21t9 -16q0 -7 -2 -11zM368 615q-65 0 -115 -50q-29 -27 -50.5 -88.5t-21.5 -139.5q0 -127 66 -222.5t170 -95.5q62 0 105 41q33 32 55.5 97.5t22.5 143.5q0 65 -25.5 139t-73.5 121q-57 54 -133 54zM388 650q80 0 147.5 -28t110.5 -74t67 -103.5 t24 -118.5q0 -169 -126 -270q-43 -33 -103.5 -53.5t-117.5 -20.5q-160 0 -259 109q-85 90 -85 227q0 155 125 258q37 30 97.5 52t119.5 22z"/>
<glyph glyph-name="Iota" horiz-adv-x="369" unicode="Ι" d="M124 334q0 155 -3 193q-2 29 -4 39.5t-13 20t-35 15.5q-30 8 -30 20q0 14 32 14q14 0 55.5 -1.5t58.5 -1.5q26 0 64.5 1.5t54.5 1.5q31 0 31 -14q0 -15 -31 -20q-18 -3 -29.5 -9t-16.5 -15.5t-6.5 -16.5t-2.5 -20q-4 -33 -4 -232q0 -149 3 -194t14 -60t52 -26 q28 -6 28 -21q0 -13 -31 -13q-18 0 -68 2.5t-72 2.5h-10q-13 0 -45 -1.5t-51 -1.5q-31 0 -31 17q0 12 30 19q33 8 43 24t12 51q5 63 5 226z"/>
<glyph glyph-name="Kappa" horiz-adv-x="703" unicode="Κ" d="M43 622q0 14 30 14q11 0 50.5 -1.5t55.5 -1.5t56.5 1t51.5 1q32 0 32 -13q0 -10 -27 -18q-30 -9 -39 -19t-10 -42q-2 -19 -2 -101q0 -23 0.5 -59.5t0.5 -45.5q0 -7 7 -7q8 0 17 9q26 19 100 93.5t109 117.5q16 18 16 29q0 15 -34 24q-24 6 -24 16q0 14 25 14h42 q36 0 93 2.5t66 2.5q28 0 28 -12q0 -13 -36 -20q-27 -5 -53.5 -18.5t-39 -23t-44.5 -34.5q-78 -62 -159 -152q-5 -5 -1 -10q17 -26 110 -134t142 -159q23 -24 42 -33.5t53 -16.5q8 -2 14.5 -8t6.5 -9q0 -7 -9.5 -11.5t-19.5 -4.5q-13 0 -84.5 4t-85.5 4q-20 0 -46.5 -1 t-36.5 -1q-22 0 -22 16q0 9 47 23q7 3 0 14q-25 35 -85.5 109.5t-93.5 110.5t-37 37q-7 0 -7 -23v-26q0 -54 4 -182q0 -15 10.5 -25.5t40.5 -18.5q28 -8 28 -20q0 -15 -32 -15q-10 0 -58.5 1t-65.5 1q-15 0 -56 -2t-57 -2q-10 0 -18.5 5t-8.5 10q0 12 29 19q37 7 49 23.5 t14 61.5q3 42 3 226q0 120 -4 192q-1 35 -10 48t-38 21t-29 20z"/>
<glyph glyph-name="Lambda" horiz-adv-x="677" unicode="Λ" d="M356 650q8 0 18 -25l40 -113q95 -265 143 -382q23 -59 38 -76t46 -26q27 -6 27 -19q0 -15 -32 -15q-13 0 -62.5 3t-66.5 3t-51 -1.5t-46 -1.5q-32 0 -32 15q0 12 25 18t33.5 14.5t8.5 20.5v6q-2 25 -143 418q-1 2 -2.5 3t-4 0t-4.5 -6q-32 -78 -85.5 -227.5t-53.5 -183.5 q0 -16 10 -26.5t37 -18.5q28 -7 28 -20t-30 -13q-6 0 -32 1.5t-47 1.5q-22 0 -58 -2.5t-41 -2.5q-29 0 -29 12q0 14 25 20q36 11 52 27.5t38 62.5q14 27 86 210.5t88 221.5q4 9 4 24q0 7 2 8q51 55 53 58q7 11 18 11z"/>
<glyph glyph-name="Mu" horiz-adv-x="886" unicode="Μ" d="M46 624q0 13 29 13t74.5 -2t87.5 -2q2 0 6 -5t5 -9q9 -29 38 -90q149 -306 163 -325q6 -6 9 -3q24 44 85 166t82 174q25 60 29 77q1 3 5.5 9t6.5 6q31 0 68.5 1t63 2t27.5 1q27 0 27 -12q0 -13 -29 -19q-22 -6 -45 -17q-24 -11 -24 -80q0 -315 12 -415q4 -27 16.5 -40.5 t47.5 -22.5q12 -3 19.5 -9t7.5 -12q0 -15 -30 -15q-2 0 -61 2.5t-80 2.5q-8 0 -45.5 -1.5t-49.5 -1.5q-29 0 -29 14q0 15 28 21q28 7 36 25.5t11 55.5q5 68 5 315v42q0 5 -1.5 8.5t-4.5 3t-5 -4.5q-86 -174 -145 -309q-20 -45 -60 -143q-13 -31 -28 -31q-9 0 -19 22 q-14 46 -37 102q-35 86 -87 201t-71 151q-6 12 -6 -3q-16 -128 -16 -332v-17q1 -43 12 -58.5t49 -27.5q29 -10 29 -22q0 -14 -29 -14q-16 0 -48.5 2t-43.5 2q-12 0 -45 -2t-44 -2q-31 0 -31 14q0 9 27 19q42 14 55 32t20 70q31 266 33 403q0 50 -38 60l-41 12q-21 6 -21 18z "/>
<glyph glyph-name="Nu" horiz-adv-x="772" unicode="Ν" d="M22 622q0 15 30 15q7 0 65 -2t87 -2q9 0 22 -13l84 -97q17 -21 61.5 -69t84.5 -90.5t91.5 -96.5t60.5 -63q3 -3 6 0t3 6q3 19 3 81q0 22 -0.5 72t-0.5 73q0 55 -6 107q-4 41 -62 56q-33 8 -33 23q0 12 29 12q13 0 36 -0.5t32 -0.5q27 0 66 2.5t49 2.5q24 0 24 -13 t-25 -20q-36 -12 -47 -27t-15 -48q-2 -28 -6 -170t-4 -204q0 -23 3 -84t3 -72q0 -6 -6 -12.5t-10 -6.5q-25 0 -54 38q-17 22 -65 81q-52 63 -180.5 206t-165.5 186q-4 4 -7.5 1t-3.5 -6q-4 -55 -5 -129q0 -38 -0.5 -93.5t-0.5 -72.5q0 -62 3 -98q3 -25 16 -39t47 -25 q28 -8 28 -19q0 -15 -33 -15q-14 0 -41.5 2t-45.5 2q-12 0 -49.5 -1.5t-45.5 -1.5q-26 0 -26 13q0 11 22 18q40 12 55.5 28.5t17.5 68.5q2 40 6.5 125.5l8 152t3.5 98.5q0 48 -6 56q-1 1 -6.5 7.5t-6 7.5t-5.5 6.5t-7.5 6.5t-8.5 5t-11.5 6t-13.5 4.5t-18 4.5q-9 2 -17.5 7 t-8.5 10z"/>
<glyph glyph-name="Xi" horiz-adv-x="647" unicode="Ξ" d="M493 396q-27 -93 -27 -152q0 -12 -6 -19t-12 -7q-11 0 -17 22q-8 26 -18 32t-38 6h-145q-28 0 -38.5 -4t-22.5 -24q-13 -19 -18 -20q-2 -1 -5 -1q-5 0 -8.5 8t-2.5 18q3 17 10.5 50t11.5 55.5t4 37.5q0 13 5 21t11 8q11 0 19 -21q2 -6 4 -10t3.5 -7.5t4.5 -6t4.5 -4.5 t5.5 -3t5.5 -2t7 -1t7 -0.5t8.5 -0.5h9q11 0 33 -0.5t33 -0.5t34 0.5t35 0.5q33 0 45 6.5t28 29.5q10 15 21 15q5 0 8 -10t1 -16zM179 633h291q48 0 73 7q3 1 9.5 3.5t11 4t6.5 1.5q4 0 7.5 -7t1.5 -10q-24 -48 -35 -137q-3 -25 -17 -25q-10 0 -17 24q-10 33 -18 38.5 t-47 10.5q-14 1 -135 1q-119 0 -131 -1q-34 -4 -49.5 -12t-33.5 -34q-14 -20 -25 -20q-14 0 -10 25q0 3 16 54.5t18 84.5q0 3 5 8.5t9 5.5q5 0 10 -5q14 -17 60 -17zM606 150q0 -8 -10 -34t-23.5 -61t-19.5 -56q-1 -3 -8 -7t-11 -2q-20 10 -110 10h-290q-58 0 -91 -11h-2 q-9 0 -9 19q0 7 15 56t19 84q2 28 17 28q13 0 19 -22q10 -35 19.5 -45.5t27.5 -12.5q42 -3 189 -3q125 0 158 3q42 4 76 54q16 21 27 21q7 0 7 -21z"/>
<glyph glyph-name="Omicron" horiz-adv-x="783" unicode="Ο" d="M364 615q-31 0 -62 -15.5t-51 -35.5q-70 -68 -70 -224q0 -123 68 -222t172 -99q61 0 102 41q33 33 55 95.5t22 139.5q0 67 -26.5 143t-77.5 123q-26 23 -63 38.5t-69 15.5zM388 650q80 0 147.5 -28t110.5 -74t67 -103.5t24 -118.5q0 -171 -126 -272q-43 -33 -102 -52.5 t-117 -19.5q-159 0 -260 107q-86 92 -86 229q0 157 129 260q38 29 96 50.5t117 21.5z"/>
<glyph glyph-name="Pi" horiz-adv-x="809" unicode="Π" d="M627 633q19 0 63 1.5t48 1.5q31 0 31 -13q0 -15 -32 -22q-30 -8 -38.5 -17t-10.5 -33q-5 -51 -5 -213q0 -152 3 -251q1 -28 10.5 -37.5t40.5 -17.5q28 -9 28 -20q0 -16 -31 -16q-7 0 -49 2t-59 2q-12 0 -58.5 -2.5t-56.5 -2.5q-35 0 -35 15q0 13 27 19q36 9 45 24.5 t12 71.5q2 40 2 224v44q0 121 -3 181q0 9 -4.5 13.5t-9.5 4.5q-21 0 -99 0.5t-114 0.5q-60 0 -69 -1q-4 -1 -8.5 -5.5t-5.5 -9.5q-5 -43 -5 -242q0 -61 0.5 -142t0.5 -84q0 -36 9.5 -50.5t39.5 -23.5q35 -10 35 -23q0 -15 -32 -15q-2 0 -26 0.5t-54 1.5t-45 1 q-10 0 -48.5 -2.5t-56.5 -2.5q-38 0 -38 15q0 12 31 20q33 7 42.5 20.5t11.5 47.5q10 120 10 265q0 31 0.5 76.5t0.5 60.5q0 32 -1 45q-1 25 -11 37t-33 18q-34 9 -34 22q0 14 31 14q13 0 54 -1.5t55 -1.5h441z"/>
<glyph glyph-name="Rho" horiz-adv-x="584" unicode="Ρ" d="M419 444q0 63 -38.5 113.5t-97.5 50.5q-15 0 -27 -9q-8 -8 -9 -37q0 -9 -0.5 -46.5t-1 -102.5t-0.5 -109q0 -54 1 -115t1 -65q1 -49 11 -66.5t51 -27.5q28 -7 28 -21t-31 -14q-11 0 -57 2.5t-70 2.5q-14 0 -53.5 -1.5t-55.5 -1.5q-37 0 -37 16q0 11 24 18q36 8 49 22.5 t15 49.5q6 80 6 156q0 256 -2 285t-13 41t-50 17q-23 4 -23 15q0 13 21 16q6 1 33 1q34 0 102.5 4t88.5 4q143 0 202 -58q58 -57 58 -135q0 -94 -66 -151q-20 -17 -56 -31t-64 -14q-34 0 -52 7q-21 9 -21 20q0 3 4.5 6.5t10.5 3.5h15q37 0 70.5 41.5t33.5 112.5z"/>
<glyph glyph-name="Sigma" horiz-adv-x="650" unicode="Σ" d="M236 633h215q68 1 104 26q1 1 3 1q9 0 11 -14q9 -76 9 -130q0 -10 -5 -18t-11 -8q-5 0 -15 25q-15 38 -35.5 55.5t-52.5 20.5q-99 9 -215 9h-27q-4 0 -5.5 -2.5t1.5 -6.5q23 -34 124.5 -130.5t103.5 -98.5q3 -2 1.5 -8.5t-6.5 -10.5q-157 -143 -239 -227q-6 -6 5 -11 q48 -11 241 -11q64 0 89 11.5t56 55.5q16 24 30 24q6 0 6 -12q0 -4 -2 -16q-7 -26 -25 -79t-27 -71q-6 -11 -64 -11q-39 0 -123 2t-99 2h-128l-108 -2q-2 0 -7 3t-4 7q3 19 33 46q17 15 72.5 63.5t107 94.5t80.5 75q5 7 2 14q-11 17 -65.5 74t-125 127t-92.5 93 q-21 21 -21 32q-1 5 3 8.5t8 3.5q132 -6 197 -6z"/>
<glyph glyph-name="Tau" horiz-adv-x="678" unicode="Τ" d="M342 633q150 0 216 2q59 5 77 16q13 8 16 8t6.5 -5t3.5 -12q0 -5 -1 -8q-16 -57 -21 -116q0 -8 -5.5 -17t-13.5 -9q-12 0 -17 31q-7 42 -20.5 54t-51.5 14q-91 0 -122 -5q-10 -2 -10 -12q0 -18 -0.5 -89t-0.5 -119q0 -208 5 -271q3 -27 17.5 -41.5t60.5 -24.5 q10 -2 17.5 -8.5t7.5 -11.5q0 -13 -28 -13q-2 0 -67.5 2t-80.5 2q-17 0 -67.5 -3t-57.5 -3q-31 0 -31 12q0 14 22 21q47 12 58.5 28.5t14.5 70.5q9 133 9 334q0 32 -0.5 70t-0.5 47q0 6 -4 10t-7 4q-25 4 -113 4q-13 0 -30 -7t-25 -16q-13 -14 -34 -53q-16 -26 -22 -26 q-15 0 -15 22q0 6 9 56t10 79q0 4 5.5 12.5t10.5 8.5q2 0 4 -1t3.5 -2.5t3 -3.5t3.5 -4.5t3 -4.5q9 -14 41 -16q44 -6 222 -6z"/>
<glyph glyph-name="Upsilon" horiz-adv-x="745" unicode="Υ" d="M182 652q137 0 201 -179q5 -11 9 1q37 88 95 133t127 45q80 0 119 -57q9 -12 9 -26q0 -6 -7 -7.5t-11 1.5q-43 25 -87 25q-79 0 -126.5 -55.5t-69.5 -145.5q-14 -55 -14 -126q0 -27 0.5 -80t0.5 -77q1 -39 14.5 -52t56.5 -24q25 -7 25 -17q0 -16 -36 -16q-3 0 -58 2.5 t-65 2.5q-9 0 -59 -3t-69 -3q-32 0 -32 15q0 14 26 19q45 11 56 25t14 63q6 76 6 145q0 112 -13 159q-21 80 -58 121.5t-103 41.5q-51 0 -107 -31q-14 -4 -14 5l2 6q3 12 12 23q22 28 62.5 47t93.5 19z"/>
<glyph glyph-name="Phi" horiz-adv-x="783" unicode="Φ" d="M172 336q0 -84 36 -148t115 -82q7 -2 7 6l6 420q0 7 -6 7q-59 -10 -98 -45q-60 -54 -60 -158zM610 319q0 91 -39 150t-115 69q-5 0 -5 -6v-421q0 -7 6 -7q73 10 111 61q42 56 42 154zM265 640q0 6 9 10t21 4q14 0 49.5 -2t50.5 -2q24 0 55.5 2t42.5 2q14 0 21.5 -5 t7.5 -11q0 -10 -31 -18q-22 -4 -30 -12.5t-9 -27.5q0 -7 6 -7q77 -6 137.5 -31.5t101 -82t40.5 -136.5q0 -120 -91 -187q-72 -56 -190 -65q-1 0 -3 -3t-2 -4q1 -24 7 -31t33 -14q34 -9 34 -19q0 -17 -30 -17q-10 0 -42 1.5t-53 1.5q-20 0 -56.5 -2t-53.5 -2q-34 0 -34 16 q0 12 25 16q32 8 40.5 16.5t8.5 34.5q0 6 -6 6q-73 5 -134 31.5t-102.5 83.5t-41.5 136q0 128 105 196q74 46 178 55q6 0 6 6v5q0 16 -8 23.5t-33 13.5q-29 6 -29 19z"/>
<glyph glyph-name="Chi" horiz-adv-x="718" unicode="Χ" d="M63 638q8 0 66.5 -2.5t78.5 -2.5q21 0 47.5 1t40.5 1q29 0 29 -11q0 -14 -30 -25q-16 -4 -16 -18q0 -6 3 -12q35 -72 104 -172q6 -8 10 -1q23 26 64.5 83t57.5 84q3 6 3 11q0 19 -39 28q-13 3 -19.5 9t-6.5 11q0 13 27 13q16 0 45.5 -1t43.5 -1q13 0 55 2t54 2 q25 0 25 -11q0 -6 -8 -12t-17 -8q-46 -11 -74.5 -27t-56.5 -47q-8 -10 -38.5 -45.5t-52.5 -62.5t-42 -55q-4 -8 -1 -15q6 -15 58 -98t85 -130q32 -45 57.5 -66t76.5 -33q12 -3 18 -8.5t5 -10.5q0 -15 -33 -15q-10 0 -78.5 3.5t-95.5 3.5q-16 0 -48.5 -2.5t-37.5 -2.5 q-25 0 -25 13q0 12 24 20q25 9 30 12q3 2 4.5 7t-0.5 9q-14 28 -64 109.5t-58 89.5q-6 6 -10 2q-59 -69 -99 -133q-24 -38 -24 -59q0 -22 36 -35q25 -7 25 -18q0 -16 -25 -16q-13 0 -49 2t-54 2q-23 0 -57 -3t-43 -3q-32 0 -32 13q0 15 36 23q65 15 114 70q83 94 150 186 q5 6 2 14q-5 17 -58 102t-98 147q-18 24 -37 35.5t-49 17.5q-29 6 -29 20q0 16 30 16z"/>
<glyph glyph-name="Psi" horiz-adv-x="782" unicode="Ψ" d="M252 633q0 6 8 10.5t19 4.5q13 0 53.5 -1.5t57.5 -1.5q26 0 57 1.5t47 1.5q30 0 30 -16q0 -11 -31 -19q-28 -7 -36 -19.5t-10 -48.5q-2 -34 -2 -127v-90q0 -2 0.5 -4l1 -4t2 -3.5t2.5 -0.5q22 8 40.5 29t40.5 76q45 110 87.5 154t91.5 44q36 0 58 -20q11 -11 11 -20 q0 -5 -5.5 -9t-12.5 -5q-31 -5 -55.5 -30.5t-59.5 -83.5q-33 -56 -58 -84t-57 -50q-33 -23 -82 -31q-5 -1 -5 -11q0 -66 4 -162q1 -45 12.5 -60t49.5 -23q26 -6 26 -20q0 -6 -9 -10t-19 -4q-14 0 -51 2t-67 2q-27 0 -69 -2.5t-59 -2.5q-29 0 -29 15q0 14 31 20t44.5 22 t14.5 50q1 18 1 73v99q0 6 -5 8q-65 14 -111 56q-45 44 -91 129q-27 50 -49.5 69t-53.5 21q-13 0 -13 10q0 12 16 24q34 27 75 27q54 -1 82.5 -39.5t61.5 -135.5q36 -106 83 -125q1 -1 2.5 0.5t2.5 3.5t1 4q0 145 -2 215q-1 39 -8 51.5t-32 19.5q-32 10 -32 21z"/>
<glyph glyph-name="alpha" horiz-adv-x="479" unicode="α" d="M218 312q-29 0 -64 -48q-61 -87 -61 -187q0 -13 6.5 -26.5t17.5 -13.5q23 0 74 60t84 132q1 2 1.5 8.5t-0.5 8.5q-7 29 -22 47.5t-36 18.5zM192 405q37 0 60 -33q20 -26 38 -81q2 -12 7 1q18 41 32 95q13 47 28 47q16 0 46 -24q8 -6 15 -21.5t7 -24.5q0 -11 -20 -68 q-6 -17 -35 -71.5t-50 -85.5q-4 -7 -3 -14q4 -15 19 -27.5t35 -12.5q50 0 87 44q4 3 9.5 -1.5t6.5 -11.5v-6q0 -34 -13 -57q-28 -74 -94 -74q-26 0 -47.5 26.5t-26.5 79.5q0 3 -2 5.5t-5 0.5q-65 -79 -117 -99q-22 -8 -32 -8q-45 0 -73.5 46.5t-28.5 102.5q0 117 51 196 q50 76 106 76z"/>
<glyph glyph-name="beta" horiz-adv-x="494" unicode="β" d="M268 614q-40 0 -76 -45.5t-46 -131.5q-6 -55 -11.5 -128.5t-7.5 -117.5t-2 -53t7 -16q57 -48 126 -48q56 0 93.5 42.5t37.5 82.5q0 26 -10 50.5t-29 35.5q-8 6 -18 6q-12 0 -24 -9q-7 -5 -48 -53q-12 -14 -24 -14h-3q-8 3 -32 29.5t-24 38.5q0 21 18 33q65 51 113 110 t49 106q1 40 -22.5 61t-66.5 21zM254 705q65 0 103.5 -53.5t38.5 -124.5v-5q-1 -75 -52 -179q-5 -5 0 -9q59 -40 85 -78q34 -41 34 -101q-1 -65 -53 -125q-23 -25 -58 -37.5t-60 -12.5q-43 0 -80 26q-43 31 -80 73q-6 7 -10 -1q-5 -54 -5 -106t7 -79q3 -14 7.5 -25.5t8 -18 t12 -15.5t10.5 -11t13 -11t12 -9q3 -6 2 -13.5t-4 -11.5q-11 -17 -31.5 -30t-31.5 -13q-24 0 -35 30q-12 39 -12 175q0 16 -1 160t-1 224q0 97 1 125q4 119 55.5 187.5t124.5 68.5z"/>
<glyph glyph-name="gamma" horiz-adv-x="452" unicode="γ" d="M121 412q26 0 45.5 -8t40 -40t29.5 -87q11 -55 13 -157q0 -5 5 -1q2 1 3 2q10 17 86 182q25 56 37 113q2 3 15 3q7 0 8 -1q12 -7 23.5 -23t14.5 -28q1 -4 1 -13q0 -29 -13 -53q-74 -123 -111.5 -193.5t-46.5 -118.5q-3 -18 -3 -45q0 -166 -4 -190q-2 -8 -11.5 -14.5 t-17.5 -6.5q-18 1 -43.5 16.5t-35.5 34.5q-8 13 -8 32q0 2 0.5 3.5t0.5 2.5q11 47 61 189q8 24 8 65q0 17 -1 24q-22 201 -124 201q-48 0 -79 -31q-3 -2 -6.5 -1.5t-6.5 6t-3 13.5q0 22 16 50q15 27 44 50.5t63 23.5z"/>
<glyph glyph-name="delta" horiz-adv-x="427" unicode="δ" d="M281 304q-4 15 -18 15q-63 0 -124 -69q-22 -21 -36.5 -56t-14.5 -69q0 -37 32 -56q16 -10 49 -10q45 0 85 52.5t40 124.5q0 20 -13 68zM162 705q36 0 110.5 -44.5t123.5 -116.5q19 -28 23 -49l1 -3v-4q0 -12 -4 -21q-3 -5 -9.5 -3t-9.5 6q-102 136 -223 136q-6 0 -8 -5.5 t0 -10.5q2 -15 32 -55q33 -42 113 -138q82 -97 82 -194q0 -77 -58 -150q-26 -33 -67.5 -49t-73.5 -16q-23 0 -52.5 15.5t-54.5 42.5q-55 60 -55 148q1 94 58 151q14 14 40.5 26.5t37.5 12.5q9 0 44.5 -11.5t43.5 -15.5q4 -1 5.5 1.5t-0.5 6.5q-7 21 -36 62t-66.5 87.5 t-41.5 52.5q-44 57 -44 79q0 7 6.5 20t15.5 20q27 19 67 19z"/>
<glyph glyph-name="epsilon" horiz-adv-x="349" unicode="ε" d="M337 107q0 -7 -7.5 -24t-17.5 -29q-55 -70 -153 -70q-54 0 -86.5 35.5t-32.5 69.5q0 48 52 98q1 1 0.5 5t-3.5 5q-50 31 -50 72q0 61 61 108q49 36 121 36q33 0 56 -11t23 -29q0 -16 -12 -30t-23 -14q-79 -2 -119.5 -27.5t-40.5 -61.5q0 -19 13 -22q7 -2 16 2 q79 47 111 47q16 0 27.5 -13.5t11.5 -25.5q0 -28 -21.5 -47t-49.5 -19h-35q-12 2 -26 2q-31 -5 -44.5 -21t-13.5 -33t20 -27t48 -10q93 0 158 50q7 6 12 0.5t5 -16.5z"/>
<glyph glyph-name="zeta" horiz-adv-x="346" unicode="ζ" d="M360 620q0 -18 -22 -40q-9 -9 -34.5 -24t-32.5 -20q-61 -49 -126 -165t-65 -195q0 -25 5 -40.5t16 -22t20.5 -8t25.5 -1.5q17 0 60.5 4.5t55.5 4.5q26 0 48.5 -34t22.5 -65q0 -68 -33.5 -114.5t-71.5 -68.5q-23 -13 -42 -13q-25 0 -41.5 22t-16.5 37q0 6 3.5 14t8.5 9 q52 10 105 34.5t53 49.5q0 17 -18 18q-6 0 -66 -5.5t-71 -5.5q-29 0 -49 20q-18 17 -26 27t-17.5 41.5t-9.5 77.5q0 41 15.5 108.5t34.5 111.5q35 87 71 147q6 9 -1 11q-23 3 -39 7t-36.5 13t-31.5 26.5t-11 42.5q0 44 39 71q14 10 36 17.5t30 7.5q7 0 11.5 -4t4.5 -8t-2 -6 q-9 -10 -18 -31t-9 -37q0 -29 12 -47.5t29 -22.5q7 0 17 12q17 22 46.5 53t45.5 42q17 13 34 13q13 0 26.5 -22.5t13.5 -41.5z"/>
<glyph glyph-name="eta" horiz-adv-x="470" unicode="η" d="M92 412q29 0 46 -22q14 -17 14 -58q0 -13 -2 -31q-1 -17 -6.5 -58.5t-5.5 -44.5q-1 -4 3 -5q4 0 6 5q51 123 111 183q35 31 64 31q20 0 40.5 -21t30.5 -53q8 -29 8 -72q3 -362 6 -505q0 -5 -7.5 -11t-11.5 -6h-3q-20 0 -51 15.5t-37 29.5q-3 6 -3 20q0 18 4 38 q1 14 14 126.5t24 212.5t11 114q0 32 -20 32q-12 0 -29.5 -13.5t-31.5 -35.5q-53 -80 -116 -283q-2 -5 -9 -10.5t-12 -5.5q-31 0 -44 16q-7 8 -11 24q27 133 30 158q3 24 3 45q0 40 -10 51q-12 18 -43 18q-22 0 -34 -5q-5 -2 -10 3.5t-5 11.5q0 25 16 57q25 49 71 49z"/>
<glyph glyph-name="theta" horiz-adv-x="440" unicode="θ" d="M331 286q1 7 -2 12t-7 5q-8 0 -108.5 -2t-104.5 -2q-3 0 -6 -5t-3 -9q-1 -4 -1 -15q0 -6 0.5 -18.5t0.5 -17.5q2 -72 33 -110q26 -32 78 -32q30 0 53.5 22t37 57t20 62.5t9.5 52.5zM339 396q1 11 1 36q0 86 -27 125q-25 37 -76 37q-35 0 -64 -36t-43 -78t-19 -82 q-1 -4 2.5 -9t7.5 -6q21 -5 199 -5q7 0 12.5 5.5t6.5 12.5zM393 348q0 -97 -23.5 -184t-64.5 -133q-16 -19 -42 -31t-46 -12q-30 0 -63 30.5t-61 91.5q-45 101 -45 229q0 193 74 292q22 29 53.5 47.5t54.5 18.5q44 0 82.5 -54t59.5 -134t21 -161z"/>
<glyph glyph-name="iota" horiz-adv-x="251" unicode="ι" d="M151 -13q-42 0 -64 29q-19 27 -19 84q0 32 -1.5 157.5t-1.5 131.5q0 7 6 15t10 8q49 0 86 -7q12 -2 12 -37q0 -21 -13.5 -116t-13.5 -126q0 -33 40 -33q22 0 37 4q3 1 5.5 -5t2.5 -11q0 -25 -12 -44.5t-28 -29.5t-28.5 -15t-17.5 -5z"/>
<glyph glyph-name="kappa" horiz-adv-x="471" unicode="κ" d="M468 101q0 -19 -13 -39q-44 -76 -107 -76q-52 0 -84 59q-18 34 -43 127q-2 3 -5 2t-5 -4q-28 -42 -48 -104q-1 -8 -8 -32t-8 -31q0 -4 -5.5 -9.5t-9.5 -5.5q-17 0 -56 13q-9 9 -7 18q0 1 17.5 112.5t17.5 146.5q0 11 -16.5 21t-36.5 10q-19 0 -32 -3q-1 0 -2.5 2.5 t-2.5 6.5t-1 8q0 1 1 3v2q9 35 34.5 59.5t51.5 24.5q60 0 60 -88q0 -17 -7.5 -70t-7.5 -56t3 -4.5t5 2.5q140 215 224 215q25 0 42 -19t17 -43q0 -11 -2 -21q-1 -3 -4.5 -7t-6.5 -3q-9 3 -32 3q-41 0 -85.5 -34.5t-65.5 -68.5q-3 -6 -1 -10q19 -53 54.5 -86t84.5 -33 q38 0 81 26q3 2 6 -3.5t3 -10.5z"/>
<glyph glyph-name="lambda" horiz-adv-x="433" unicode="λ" d="M60 705q56 0 88.5 -38t58.5 -115q9 -25 50.5 -203t49.5 -205q3 -9 10 -20t26 -23t43 -12q18 0 44 4q2 1 5 -4.5t4 -12.5q0 -16 -7 -33q-25 -60 -76 -60q-53 0 -71 77q-8 27 -30 117.5t-24 100.5q0 2 -2 2t-4 -1.5t-2 -3.5q-2 -5 -45 -120.5t-44 -118.5 q-5 -16 -16.5 -35.5t-23.5 -19.5q-9 0 -31 9t-34 17q-5 5 -9 15t-3 13q2 5 71 137t74 143q24 53 37 62q7 4 5 16q-12 41 -22.5 69.5t-31.5 66t-52.5 58t-70.5 20.5q-51 0 -88 -28q-4 -2 -8.5 2.5t-4.5 9.5q0 30 27 60q44 54 107 54z"/>
<glyph glyph-name="uni03BC" horiz-adv-x="485" unicode="μ" d="M104 412q34 0 65 -21q10 -7 10 -33q0 -11 -26 -112l-27 -104q-2 -12 -2 -17q0 -9 3 -18q4 -11 15.5 -19t22.5 -8q31 0 70.5 41t58.5 90q6 17 8 35q11 132 12 135q2 11 7.5 21.5t10.5 10.5q24 0 47 -9.5t32 -18.5q8 -8 8 -30q0 -2 -0.5 -7t-0.5 -8q-4 -34 -27.5 -96.5 t-41.5 -93.5q-5 -8 -3 -21q1 -26 19 -36.5t38 -10.5q34 0 73 29q5 8 11 -4q3 -5 3 -11q0 -35 -11 -55q-33 -61 -82 -61q-34 0 -52.5 26.5t-23.5 84.5q0 2 -3.5 3t-5.5 -2q-39 -60 -65.5 -83.5t-55.5 -23.5q-43 0 -79 68q-4 9 -7 -6q-1 -5 -2 -12q-2 -34 -2 -74q0 -45 4 -65 q7 -29 34 -58t43 -38q6 -6 -1 -25q-3 -7 -14.5 -18t-21.5 -17q-17 -10 -36 -10t-37 30q-10 17 -10 86v42q0 53 6 203q0 15 -1 51q-3 27 -3 193q0 13 0.5 30t0.5 20q2 17 13 22q10 5 26 5z"/>
<glyph glyph-name="nu" horiz-adv-x="417" unicode="ν" d="M115 412q26 0 50 -23.5t29 -64.5q5 -45 5 -85q0 -60 -7 -118q0 -5 3 -7.5t6 -1.5q28 16 57 57.5t43 78.5q13 29 13 60v7q0 35 -18 86q-1 4 6 7.5t13 3.5q22 0 32 -9q38 -31 38 -113q0 -36 -18.5 -85.5t-39.5 -79.5q-58 -84 -102 -126q-19 -19 -30 -19q-7 0 -18 6t-17 14 q-4 8 -3 13q2 20 2 88q0 71 -13 118q-16 52 -40 72q-23 23 -71 23q-17 0 -27 -1q-10 0 -12 12q0 17 19 38q47 49 100 49z"/>
<glyph glyph-name="xi" horiz-adv-x="389" unicode="ξ" d="M390 -3q0 -22 -10 -56.5t-25 -57.5q-51 -81 -111 -81q-24 0 -47 19.5t-23 33.5q0 6 7.5 17t12.5 13q160 44 160 86q0 10 -9.5 18t-17.5 8q-15 0 -74.5 -5.5t-82.5 -5.5h-9q-14 1 -38 8.5t-36 17.5q-49 39 -49 104q0 54 31 107t75 90q2 1 1.5 5.5t-3.5 5.5q-72 31 -72 102 q0 51 51 120q6 8 0 9q-86 26 -86 75q0 42 33 66q34 27 84 27q14 0 21.5 -8t7.5 -14q0 -2 -5.5 -7.5t-10.5 -8.5q-19 -11 -33 -32.5t-14 -40.5q0 -30 24 -30q8 0 12 7q41 37 91.5 62.5t74.5 25.5q14 0 25 -9.5t11 -20.5q0 -13 -12 -38.5t-17 -30.5q-5 -4 -13.5 -8t-21 -8.5 t-19.5 -7.5q-31 -14 -35 -16q-49 -29 -80.5 -66t-31.5 -71q0 -43 40 -55q3 -1 9 0t8 2q86 45 124 50h2q13 0 30 -10.5t17 -30.5q0 -9 -7.5 -25t-15.5 -24q-12 -9 -33 -18q-63 -16 -85 -30q-50 -23 -94.5 -62.5t-44.5 -70.5q0 -38 49 -38q15 0 90 9t92 9q25 0 56 -28 q27 -31 27 -82z"/>
<glyph glyph-name="omicron" horiz-adv-x="415" unicode="ο" d="M258 319q-80 0 -129 -48q-52 -46 -52 -103q0 -12 1 -18q7 -37 30 -52q21 -13 44 -13q77 0 123 43q60 52 60 119q0 28 -11 40q-24 32 -66 32zM220 412q48 0 90 -38q34 -30 53 -78t19 -87q0 -109 -66 -173q-27 -28 -64 -41t-65 -13q-23 0 -53.5 17.5t-55.5 47.5 q-22 26 -33.5 64t-11.5 70q0 103 52 167q27 34 65 49t70 15z"/>
<glyph glyph-name="pi" horiz-adv-x="498" unicode="π" d="M503 392q0 -19 -17.5 -54t-29.5 -38q-8 -2 -37 -2h-41q-2 0 -5 -3t-3 -5q-26 -95 -26 -131v-5q3 -39 40 -49q3 -1 13 -1q22 0 42 5q2 1 5 -3t4.5 -10t0.5 -11q-8 -40 -32 -68.5t-55 -28.5q-35 0 -52 29q-11 19 -15 56v5q0 48 29 212q1 5 -2 9t-6 4q-8 1 -25 3t-30 3.5 t-15 1.5t-6 -4t-5 -8q-55 -144 -55 -229q0 -3 0.5 -8.5t0.5 -7.5q4 -34 9 -54q1 -5 -4.5 -12t-10.5 -7q-25 0 -44 13q-18 11 -20 37q0 4 14 51t32.5 115t27.5 113q0 6 -4 6t-15.5 0.5t-14.5 0.5q-89 0 -117 -68q-5 -9 -14 -9q-12 0 -14 28v3q0 40 22 72q44 60 134 60 q37 0 134 -4t134 -4q32 0 60 17h2q4 0 7.5 -7t3.5 -13z"/>
<glyph glyph-name="rho" horiz-adv-x="456" unicode="ρ" d="M295 335q-144 0 -144 -228q0 -9 9 -18q11 -10 38 -10q64 0 115 58t51 118q0 41 -19 60.5t-50 19.5zM423 209q0 -101 -66 -162q-25 -24 -60 -37t-62 -13q-36 0 -76 51q-1 1 -2.5 0t-3 -2.5t-1.5 -3.5q0 -106 15 -236q1 -6 3.5 -17t5 -22.5t3.5 -13.5q3 -8 -17 -23 q-1 0 -4 -0.5t-5 -0.5q-38 0 -65 10q-11 5 -19.5 21t-8.5 29q0 4 3 85t5.5 180t2.5 147q0 127 73 179q43 32 101 32q72 0 125 -63.5t53 -139.5z"/>
<glyph glyph-name="uni03C2" horiz-adv-x="348" unicode="ς" d="M326 356q0 -15 -12 -39q-8 -6 -17 -6q-115 -1 -164 -35.5t-49 -84.5q0 -34 21 -57t63 -23q10 0 43 2.5t50 2.5q19 0 37 -16q29 -28 29 -91q0 -69 -41.5 -129t-85.5 -60q-7 0 -20 4.5t-19 10.5q-18 21 -18 46q3 15 15 19q54 14 88 37t34 41q0 22 -20 22q-8 0 -50.5 -4 t-61.5 -4q-46 0 -70 24q-44 44 -44 139q0 58 29.5 115.5t64.5 84.5q76 58 136 58q23 0 42.5 -18t19.5 -39z"/>
<glyph glyph-name="sigma" horiz-adv-x="479" unicode="σ" d="M509 415q0 -16 -9 -47t-20 -48q-2 -6 -15.5 -13t-24.5 -7q-72 0 -111 4q-2 0 -3 -3t1 -5q22 -24 33.5 -52.5t11.5 -48.5q0 -99 -50 -154q-53 -58 -119 -58q-49 0 -109 56t-60 143q0 114 66 175q22 20 55 34.5t57 14.5q21 0 93 -3t99 -3h5q53 0 88 29h1q4 0 7.5 -5t3.5 -9 zM223 312q-25 0 -49.5 -12.5t-39.5 -32.5q-45 -61 -45 -130q0 -31 19.5 -53t52.5 -22q50 0 95.5 54.5t45.5 122.5q0 58 -22 66q-18 7 -57 7z"/>
<glyph glyph-name="tau" horiz-adv-x="431" unicode="τ" d="M397 319q-18 -16 -45 -16q-12 0 -55.5 3.5t-45.5 3.5q-7 0 -9 -8q-16 -78 -16 -158q0 -18 16.5 -29t35.5 -11h12q21 0 42 5q2 0 4.5 -3.5t3.5 -8.5t0 -9q-8 -44 -40 -73t-60 -29q-74 0 -74 115q0 32 18 116.5t18 87.5q0 6 -9 8q-30 2 -55 2q-67 0 -95 -54q-6 -9 -12 -9 q-17 0 -17 30q0 25 11 51.5t30 42.5q39 34 96 34q27 0 105 -4t105 -4q36 0 61 18q1 1 3 1q4 0 7 -5.5t3 -10.5q0 -19 -12.5 -45.5t-25.5 -40.5z"/>
<glyph glyph-name="upsilon" horiz-adv-x="428" unicode="υ" d="M391 260q0 -116 -59 -200q-29 -40 -67 -57t-67 -17q-36 0 -68.5 25.5t-43.5 53.5q-3 7 -3 18q0 12 4 29q19 74 19 141q0 27 -15 40t-51 13h-8q-15 0 -19 7q-1 2 -1 7q0 11 7 25q14 27 41 47t62 20q46 0 62 -40q4 -8 4 -24q0 -12 -3 -19q-16 -37 -33 -95.5t-17 -83.5 q0 -23 12 -30q27 -23 56 -23q42 0 75 47t33 128q0 83 -24 128q-3 5 5.5 10t15.5 5q17 0 49 -36q16 -17 25 -52t9 -67z"/>
<glyph glyph-name="phi" horiz-adv-x="519" unicode="φ" d="M313 332q-4 2 -5.5 1t-2 -2.5t-0.5 -5.5q-3 -27 -3 -194q0 -42 1 -46q2 -9 5 -10h4q55 10 93 39t38 76q0 54 -37.5 89.5t-92.5 52.5zM257 333q-1 4 -2.5 6t-4.5 1q-95 -24 -131 -70q-41 -48 -41 -97q-2 -39 38 -62q22 -14 61 -25.5t66 -13.5q7 0 7 14q0 8 3.5 126 t3.5 121zM245 -23q-37 3 -81.5 24t-65.5 42q-65 72 -65 161q0 86 68 154q26 26 60 44.5t52.5 24.5t27.5 7q6 0 10.5 3t3.5 9q0 4 -3.5 73.5t-3.5 75.5q0 9 10 15.5t21 6.5q6 0 26 -8q8 -3 14 -12.5t6 -17.5q0 -1 -5 -65t-6 -70q-1 -10 12 -15q71 -28 116 -87.5t45 -133.5 q0 -42 -20.5 -93.5t-49.5 -75.5q-50 -41 -113 -56l-7 -12q3 -167 13 -210q0 -1 0.5 -2.5t0.5 -2.5q0 -9 -7.5 -15.5t-14.5 -6.5q-24 0 -45 14q-3 2 -5 4t-3.5 4.5t-2 4t-1 4.5t-0.5 4v5v6q0 11 8 88.5t9 99.5q0 9 -4 9z"/>
<glyph glyph-name="chi" horiz-adv-x="443" unicode="χ" d="M114 412q34 0 53 -31t26 -66q8 -42 18 -118q0 -9 5 -9q2 0 3 2q13 23 61.5 103.5t59.5 91.5q21 27 42 27q49 0 67 -18q5 -2 5 -16q0 -5 -2 -6q-37 -28 -74 -78q-29 -40 -76 -112t-57 -95q-3 -7 -3 -24v-8q29 -179 121 -179q37 0 79 25q3 2 6.5 -3.5t3.5 -11.5 q0 -37 -28 -75q-37 -48 -86 -48q-38 0 -64 31.5t-41 106.5q-12 59 -19 126q-1 4 -4.5 2.5t-4.5 -3.5q-17 -23 -79 -165q-20 -48 -20 -89q0 -6 1.5 -17.5t1.5 -16.5q0 -14 -16 -14q-5 0 -12 3q-49 28 -57 76v7q0 32 16 70q19 44 134 242q11 19 11 31q0 70 -29 106.5t-61 36.5 q-29 0 -67 -24q-5 -4 -10.5 -0.5t-7.5 9.5q0 1 -0.5 4t-0.5 5q0 27 12 54q33 68 93 68z"/>
<glyph glyph-name="psi" horiz-adv-x="576" unicode="ψ" d="M78 413q34 0 53 -51t46 -173q17 -80 90 -100q3 -1 5 1.5t2 7.5q-1 77 -7 239t-7 214q0 6 10.5 16.5t17.5 10.5q13 0 32 -11t19 -26q0 -63 -6 -231.5t-7 -208.5q0 -9 9 -6q15 5 27 14.5t33.5 49t43.5 106.5q23 70 56.5 109t68.5 39q32 0 47 -21q1 -2 1 -6q0 -6 -3 -7 q-36 -9 -57 -35t-37 -68q-11 -29 -28.5 -81t-21.5 -63q-50 -126 -135 -143q-9 -2 -9 -11q-3 -33 -3 -138q0 -58 34 -79q8 -5 -4 -19q-6 -7 -22.5 -13.5t-24.5 -6.5q-9 0 -17 13t-8 29v212q0 9 -10 9q-82 20 -115 148q-30 125 -33 133q-4 12 -15 22t-23 10q-37 0 -61 -13 q-3 -2 -8.5 1t-7.5 8q-2 6 -2 23q0 31 9 51q13 26 26 33q17 12 42 12z"/>
<glyph glyph-name="uni03D1" horiz-adv-x="449" unicode="ϑ" d="M186 607q-44 0 -66 -22t-22 -57q0 -38 49.5 -70.5t105.5 -48t92 -15.5q6 0 6 12q0 93 -47.5 147t-117.5 54zM218 -12q-22 0 -37.5 12.5t-21.5 29.5q-4 12 -12.5 44.5t-11.5 42.5q-6 14 -16 14q-6 0 -27.5 -7.5t-34.5 -16.5q-6 -4 -13 1q-8 7 -17.5 29.5t-9.5 35.5 q0 15 15 35q22 29 61 29h3q23 -1 35.5 -21.5t25.5 -62.5q16 -58 56 -58q41 0 79 49.5t53 142.5q1 4 -2 7.5t-6 3.5q-101 6 -188.5 65.5t-87.5 144.5q0 91 77 155q22 18 50 27t41 9q64 0 111 -90.5t57 -206.5q1 -6 9 -6l44 4q4 1 7.5 -3.5t3.5 -7.5q0 -41 -18 -70 q-5 -14 -14 -16l-26 -6q-4 0 -6 -11q-6 -134 -53 -216t-126 -82z"/>
<glyph glyph-name="uni03D6" horiz-adv-x="569" unicode="ϖ" d="M479 286q0 97 -57 139t-178 42q-26 0 -72 -7.5t-65 -15.5q-8 -1 -16 3t-8 9q0 17 7.5 36t14.5 27q43 40 140 40q112 0 187 -76q46 -47 75 -116.5t29 -134.5q0 -63 -18 -113.5t-44 -78t-50.5 -41.5t-43.5 -14q-23 0 -41 14.5t-26 30.5t-20 44q-1 3 -5 3.5t-7 -3.5 q-55 -88 -117 -88q-47 0 -88.5 59.5t-41.5 130.5q0 105 43 175q16 27 37.5 44t36.5 17q16 0 40.5 -16t24.5 -25q0 -21 -12 -32q-38 -30 -80.5 -89t-42.5 -111q0 -20 5 -32.5t15.5 -18t19.5 -7t22 -1.5q29 0 59.5 27.5t30.5 56.5q0 12 -1.5 28t-1.5 25q0 31 12 40 q19 17 52 17q24 0 40.5 -14.5t16.5 -36.5q0 -23 -28 -77q-11 -17 -9 -27q0 -37 46 -37q36 0 78 62.5t41 141.5z"/>
<glyph glyph-name="uni0400" horiz-adv-x="587" unicode="Ѐ" d="M203 847q13 0 45 -30q57 -54 106 -104q12 -15 12 -26q0 -3 -1 -4q-6 -6 -16 -6q-16 0 -28 7q-51 25 -147 85q-25 17 -25 28q0 10 25 33q17 17 29 17zM250 633h150q46 0 88 6h1q9 0 11 -13q1 -18 1 -107q0 -11 -4.5 -19.5t-11.5 -8.5q-6 0 -11.5 8t-7.5 17q-15 67 -64 75 q-34 6 -115 6h-24q-12 0 -13 -28q-4 -44 -4 -192v-27q0 -3 3 -6.5t7 -3.5h80q51 0 62 6.5t26 41.5q10 26 22 26q10 0 10 -24q0 -15 -2 -38.5t-2 -34.5q0 -14 2 -36.5t2 -35.5q0 -26 -13 -26q-12 0 -19 22q-9 32 -22 42t-43 12q-32 3 -100 3q-3 0 -8 -5t-5 -7q-3 -23 -3 -76 q0 -13 0.5 -35t0.5 -28q3 -78 4 -82q7 -21 22 -24q32 -6 81 -6q67 0 92 9q47 17 79 74q19 35 31 35q9 0 9 -19q0 -2 -0.5 -5.5t-0.5 -4.5q0 -6 -16 -55.5t-22 -60.5q-2 -5 -10.5 -9t-13.5 -4q-3 0 -71 1.5t-148.5 2.5t-113.5 1q-37 0 -68.5 -2.5t-45.5 -2.5q-34 0 -34 13 t30 20q39 9 52 23t16 53q8 112 8 242v130q0 49 -1 63q-2 29 -12.5 43.5t-40.5 20.5q-32 6 -32 18q0 6 10 10.5t21 4.5q23 0 88.5 -1.5t92.5 -1.5z"/>
<glyph glyph-name="uni0401" horiz-adv-x="587" unicode="Ё" d="M403 806q22 0 35.5 -18.5t13.5 -40.5t-18 -37.5t-37 -15.5t-35 14.5t-16 40.5q0 22 17 39.5t40 17.5zM197 806q22 0 35.5 -18.5t13.5 -40.5q0 -23 -18 -38t-38 -15q-18 0 -34 14.5t-16 41.5q0 21 17 38.5t40 17.5zM250 633h150q46 0 88 6h1q9 0 11 -13q1 -18 1 -107 q0 -11 -4.5 -19.5t-11.5 -8.5q-6 0 -11.5 8t-7.5 17q-15 67 -64 75q-34 6 -115 6h-24q-12 0 -13 -28q-4 -44 -4 -192v-27q0 -3 3 -6.5t7 -3.5h80q51 0 62 6.5t26 41.5q10 26 22 26q10 0 10 -24q0 -15 -2 -38.5t-2 -34.5q0 -14 2 -36.5t2 -35.5q0 -26 -13 -26q-12 0 -19 22 q-9 32 -22 42t-43 12q-32 3 -100 3q-3 0 -8 -5t-5 -7q-3 -23 -3 -76q0 -13 0.5 -35t0.5 -28q3 -78 4 -82q7 -21 22 -24q32 -6 81 -6q67 0 92 9q47 17 79 74q19 35 31 35q9 0 9 -19q0 -2 -0.5 -5.5t-0.5 -4.5q0 -6 -16 -55.5t-22 -60.5q-2 -5 -10.5 -9t-13.5 -4q-3 0 -71 1.5 t-148.5 2.5t-113.5 1q-37 0 -68.5 -2.5t-45.5 -2.5q-34 0 -34 13t30 20q39 9 52 23t16 53q8 112 8 242v130q0 49 -1 63q-2 29 -12.5 43.5t-40.5 20.5q-32 6 -32 18q0 6 10 10.5t21 4.5q23 0 88.5 -1.5t92.5 -1.5z"/>
<glyph glyph-name="uni0402" horiz-adv-x="747" unicode="Ђ" d="M324 633q165 0 231 2q57 5 76 15q14 9 17 9q4 0 8 -8t1 -18q-17 -53 -22 -116q0 -8 -5 -17t-13 -9q-13 0 -18 32q-7 42 -21.5 54t-50.5 14q-121 0 -151 -4q-9 -1 -9 -13q0 -26 -0.5 -100.5t-0.5 -110.5q0 -7 7 -4q57 23 116 23q99 0 157.5 -67t58.5 -183q0 -73 -29 -138 t-70.5 -104.5t-80 -62.5t-63.5 -25h-4q-22 0 -22 17q0 4 17 15q122 83 122 278q0 109 -40.5 165.5t-112.5 56.5q-31 0 -49 -8q-7 -4 -7 -12q2 -204 4 -219q2 -28 13 -42t52 -24q10 -3 17 -9t7 -11q0 -13 -27 -13q-2 0 -60.5 2t-74.5 2q-17 0 -67.5 -3t-56.5 -3q-31 0 -31 11 q0 7 7 13t14 8q48 12 60 29t14 71q9 133 9 335q0 33 -0.5 70t-0.5 46q0 6 -4 10t-7 4q-25 4 -81 4q-13 0 -30 -7t-25 -16q-12 -13 -34 -52q-17 -28 -22 -28q-15 0 -15 23q0 6 9 54t10 77q0 4 5.5 12.5t10.5 8.5q6 0 17 -15q8 -11 41 -13q44 -6 204 -6z"/>
<glyph glyph-name="uni0403" horiz-adv-x="535" unicode="Ѓ" d="M373 834q11 8 29 8q6 0 8 -1q46 -24 46 -43q0 -6 -8.5 -15.5t-17.5 -14.5q-116 -63 -160 -80q-20 -4 -23 -4q-11 0 -16 5q-2 2 -2 4q0 12 15 27q88 81 129 114zM326 633q143 0 171 7q13 0 13 -11q-3 -36 -3 -114v-24q0 -10 -4.5 -20t-10.5 -10q-16 0 -25 28 q-9 31 -15 47.5t-20 35t-31 20.5q-26 3 -75 3q-13 0 -31 -0.5t-21 -0.5q-25 0 -25 -16q-4 -52 -4 -209q0 -35 0.5 -137t0.5 -138q1 -31 14 -43t49 -21q26 -9 26 -20q0 -15 -30 -15q-11 0 -57 2.5t-67 2.5t-66.5 -3t-53.5 -3q-11 0 -19 4.5t-8 9.5q0 15 30 22q29 7 38 18 t11 32q11 114 11 287q0 154 -2 180t-11 36.5t-37 17.5q-30 8 -30 22q0 5 9 9t20 4q22 0 62.5 -1.5t60.5 -1.5h130z"/>
<glyph glyph-name="uni0404" horiz-adv-x="687" unicode="Є" d="M423 616q-110 0 -172.5 -75.5t-63.5 -187.5q0 -9 8 -9q43 0 107.5 1t90.5 1q65 2 133 7q4 1 5.5 -2t1.5 -8q0 -12 -25.5 -30t-53.5 -18q-54 0 -150.5 4.5t-107.5 4.5q-8 0 -8 -10q1 -23 10 -61.5t20 -61.5q38 -79 97 -114t120 -35q112 0 170 104q19 34 29 34q12 0 12 -22 q0 -5 -1 -7l-26 -89q-6 -20 -40 -33q-73 -28 -163 -28q-106 0 -181 35t-113 79q-77 87 -77 220q0 81 35 147t75 100q108 88 267 88q72 0 129 -16q48 -10 66 -13q5 0 12.5 -11.5t7.5 -18.5l2 -93q0 -10 -2.5 -17t-6 -10t-5.5 -3q-11 0 -19 24q-16 52 -57 84q-53 40 -126 40z "/>
<glyph glyph-name="uni0405" horiz-adv-x="498" unicode="Ѕ" d="M286 650q34 0 126 -17q3 -1 7.5 -8.5t5.5 -11.5q0 -8 5 -50.5t5 -43.5q0 -25 -9 -25q-7 0 -16.5 7t-12.5 17q-14 47 -43 71q-34 28 -80 28q-38 0 -70 -29t-32 -75q0 -41 29 -70.5t105 -77.5q85 -52 116 -100t31 -100q0 -41 -23 -81.5t-65 -65.5q-58 -36 -140 -36 q-77 0 -144 26q-6 3 -16 14.5t-10 14.5q-17 74 -17 107q0 5 6 13t10 8q12 0 39 -55q22 -44 60.5 -68t78.5 -24q38 0 71 27.5t33 72.5q0 34 -24 67t-89 75q-82 54 -119.5 101t-37.5 110q0 81 61 131q57 48 159 48z"/>
<glyph glyph-name="uni0406" horiz-adv-x="369" unicode="І" d="M124 334q0 155 -3 193q-2 29 -4 39.5t-13 20t-35 15.5q-30 8 -30 20q0 14 32 14q14 0 55.5 -1.5t58.5 -1.5q26 0 64.5 1.5t54.5 1.5q31 0 31 -14q0 -15 -31 -20q-18 -3 -29.5 -9t-16.5 -15.5t-6.5 -16.5t-2.5 -20q-4 -33 -4 -232q0 -149 3 -194t14 -60t52 -26 q28 -6 28 -21q0 -13 -31 -13q-18 0 -68 2.5t-72 2.5h-10q-13 0 -45 -1.5t-51 -1.5q-31 0 -31 17q0 12 30 19q33 8 43 24t12 51q5 63 5 226z"/>
<glyph glyph-name="uni0407" horiz-adv-x="369" unicode="Ї" d="M294 804q22 0 35.5 -18.5t13.5 -40.5t-18 -37.5t-37 -15.5t-35 14.5t-16 40.5q0 22 17 39.5t40 17.5zM88 804q22 0 35.5 -18.5t13.5 -40.5q0 -23 -18 -38t-38 -15q-18 0 -34 14.5t-16 41.5q0 21 17 38.5t40 17.5zM124 334q0 155 -3 193q-2 29 -4 39.5t-13 20t-35 15.5 q-30 8 -30 20q0 14 32 14q14 0 55.5 -1.5t58.5 -1.5q26 0 64.5 1.5t54.5 1.5q31 0 31 -14q0 -15 -31 -20q-18 -3 -29.5 -9t-16.5 -15.5t-6.5 -16.5t-2.5 -20q-4 -33 -4 -232q0 -149 3 -194t14 -60t52 -26q28 -6 28 -21q0 -13 -31 -13q-18 0 -68 2.5t-72 2.5h-10 q-13 0 -45 -1.5t-51 -1.5q-31 0 -31 17q0 12 30 19q33 8 43 24t12 51q5 63 5 226z"/>
<glyph glyph-name="uni0408" horiz-adv-x="357" unicode="Ј" d="M-77 -168q0 8 11 24.5t20 25.5q3 4 14 9.5t15 5.5q13 0 31 -11q41 -29 63 -29q18 0 27 12q15 19 20 65q3 38 3 194v137q0 180 -5 285q-2 38 -56 51q-32 7 -32 22q0 14 31 14q14 0 52.5 -2t61.5 -2q31 0 70 1.5t52 1.5q28 0 28 -12q0 -14 -30 -22q-27 -6 -37 -20t-11 -50 q-3 -275 -7 -430q-3 -86 -38.5 -156.5t-87.5 -107.5q-71 -51 -123 -51q-26 0 -49 12.5t-23 32.5z"/>
<glyph glyph-name="uni0409" horiz-adv-x="887" unicode="Љ" d="M715 167q0 68 -44 116.5t-116 48.5q-47 0 -59 -6q-6 -6 -2 -13q44 -129 88 -238q20 -44 44 -44q33 0 61 37t28 99zM842 191q0 -62 -37.5 -108t-89 -66t-105.5 -20q-35 0 -105 2q-13 0 -45.5 -1.5t-45.5 -1.5q-28 0 -28 16q0 12 23 17q19 4 28.5 11t10.5 12t1 15 q0 15 -38 127q-22 63 -106 292q-4 16 -10 -1q-72 -198 -98 -276q-39 -115 -39 -135q0 -17 10.5 -26t41.5 -18q26 -9 26 -21q0 -11 -26 -11q-7 0 -44 1t-58 1q-22 0 -49 -2t-32 -2q-27 0 -27 14q0 11 22 17q35 10 50.5 25t39.5 64q11 22 43.5 104.5t72.5 187t54 138.5 q1 3 6 22q3 8 6 10q18 19 49 62q6 10 16 10q7 0 12.5 -12t23.5 -64q9 -25 77 -207q2 -11 10 -9q70 17 140 17q103 0 161.5 -48t58.5 -136z"/>
<glyph glyph-name="uni040A" horiz-adv-x="1002" unicode="Њ" d="M826 178q0 67 -37.5 109t-106.5 42q-32 0 -40 -2q-8 -3 -8 -18q0 -11 1.5 -106.5t1.5 -106.5q0 -25 24.5 -45.5t47.5 -20.5q38 0 73 30q16 13 30 48t14 70zM515 390q0 5 0.5 28t0.5 38q0 56 -3 91q-3 27 -12 38t-36 18q-29 8 -29 20q0 13 31 13q5 0 49 -1.5t59 -1.5 q21 0 63.5 1.5t47.5 1.5q31 0 31 -13q0 -14 -33 -21q-25 -7 -33.5 -18t-10.5 -37q-6 -68 -6 -168q0 -13 8 -13q50 2 90 2q109 0 167 -45.5t58 -131.5q0 -94 -86 -152q-31 -22 -83 -32.5t-89 -10.5q-19 0 -157 3h-16q-18 0 -46 -1t-33 -1q-29 0 -29 15q0 14 23 18 q45 10 57 22.5t14 47.5q3 41 3 149q0 13 -0.5 26.5t-0.5 22v9.5q-1 14 -9 14q-10 0 -79 0.5t-105 0.5q-56 0 -63 -1q-4 -1 -8 -5.5t-4 -8.5q-2 -30 -2 -73q0 -76 2 -126q1 -36 10 -50t39 -23q35 -10 35 -25q0 -13 -31 -13l-53 1q-52 2 -73 2q-10 0 -50 -2t-58 -2 q-36 0 -36 14q0 13 28 21q33 8 43.5 20t14.5 46q9 85 9 339v55q0 38 -1 57q-1 25 -10 35t-33 18q-34 11 -34 22q0 14 29 14q13 0 54 -2t54 -2q23 0 63.5 1.5t50.5 1.5q31 0 31 -13t-35 -23q-29 -9 -36 -21.5t-9 -46.5q-4 -116 -4 -132q0 -6 0.5 -14t0.5 -10q3 -13 13 -13 q36 0 129 1t118 1q8 0 10 25z"/>
<glyph glyph-name="uni040B" horiz-adv-x="772" unicode="Ћ" d="M323 633q150 0 218 2q59 5 75 15q13 8 17 8t8 -8t1 -17q-18 -62 -22 -116q0 -8 -5 -17t-13 -9q-12 0 -18 32q-7 42 -21.5 54t-50.5 14q-107 0 -137 -4q-9 -1 -9 -13q0 -26 -1 -101.5t-1 -111.5q0 -4 2.5 -7t4.5 -2q80 25 140 25q91 0 131 -46q40 -47 40 -115 q0 -35 1 -81.5t1 -47.5q1 -29 8.5 -39t36.5 -20q21 -6 21 -17q0 -15 -26 -15q-7 0 -60.5 2t-70.5 2q-12 0 -39 -2t-37 -2q-28 0 -28 14q0 13 19 18q32 8 40 20.5t10 48.5q1 44 1 107q0 54 -27.5 90t-87.5 36q-38 0 -73 -11q-7 -1 -7 -15q0 -158 4 -209q3 -33 12 -43 q13 -14 49 -23q9 -3 16 -9t7 -11q0 -13 -26 -13q-2 0 -58 2t-72 2q-17 0 -65 -3t-55 -3q-30 0 -30 11q0 7 6.5 13t14.5 8q45 11 55.5 27t13.5 73q8 157 8 335v116q0 6 -4 10t-7 4q-25 4 -80 4q-36 0 -54 -19q-9 -10 -35 -56q-17 -28 -22 -28q-15 0 -15 23q0 6 9 55t10 78 q0 4 5.5 12t10.5 8t17 -16q8 -11 41 -13q44 -6 203 -6z"/>
<glyph glyph-name="uni040C" horiz-adv-x="716" unicode="Ќ" d="M454 827q11 8 29 8q6 0 8 -1q46 -24 46 -43q0 -6 -8.5 -15.5t-17.5 -14.5q-116 -63 -160 -80q-20 -4 -23 -4q-11 0 -16 5q-2 2 -2 4q0 12 15 27q88 81 129 114zM39 624q0 14 30 14q11 0 49 -2.5t54 -2.5t58.5 2.5t53.5 2.5q31 0 31 -15q0 -10 -26 -17q-30 -9 -39 -18.5 t-11 -42.5q-1 -18 -1 -94v-102q0 -10 7 -10q42 3 69.5 20t53.5 59q13 21 36.5 62t36.5 62q67 107 138 107q25 0 40.5 -11t15.5 -32q0 -8 -5.5 -27t-9.5 -23q-9 -11 -20 -11q-3 0 -9 2q-30 10 -50 10q-32 0 -51 -15.5t-44 -56.5q-52 -83 -65 -100q-2 -4 0 -8 q18 -35 71.5 -118t84.5 -125q46 -60 72.5 -78t72.5 -28q16 -5 16 -11q0 -13 -20 -19q-18 -5 -60 -5q-67 0 -104 14t-66 52q-42 52 -125 184q-27 43 -41 56.5t-37 13.5q-5 0 -7 -12q0 -74 4 -222q1 -18 10.5 -28t39.5 -18q29 -8 29 -20q0 -6 -10 -10.5t-23 -4.5 q-10 0 -57.5 1t-64.5 1q-15 0 -56 -2t-57 -2q-11 0 -19 5t-8 10q0 12 30 19q36 8 48 24.5t14 61.5q2 50 2 226q0 83 -3 191q-1 35 -10 48.5t-35 21.5q-33 9 -33 21z"/>
<glyph glyph-name="uni040D" horiz-adv-x="814" unicode="Ѝ" d="M320 844q13 0 45 -30q57 -54 106 -104q12 -15 12 -26q0 -3 -1 -4q-6 -6 -16 -6q-16 0 -28 7q-51 25 -147 85q-25 17 -25 28q0 10 25 33q17 17 29 17zM46 622q0 15 29 15q13 0 53 -2t54 -2q23 0 64 1.5t51 1.5q31 0 31 -14q0 -12 -34 -22q-28 -8 -36 -22t-10 -47 q-5 -112 -5 -276q0 -66 1 -71q1 -4 4 -6t5 0q253 274 308 342q8 12 8 19v19q-1 16 -10 26t-34 17q-25 8 -25 22q0 12 26 12q5 0 49 -1t60 -1q19 0 62.5 1.5t46.5 1.5q29 0 29 -12q0 -14 -30 -22q-27 -6 -36 -16.5t-11 -34.5q-7 -55 -7 -275q0 -49 4 -181q1 -33 10 -43 t41 -19q28 -11 28 -22q0 -14 -32 -14q-7 0 -48 1.5t-57 1.5q-12 0 -59.5 -2.5t-57.5 -2.5q-35 0 -35 15q0 12 27 20q37 9 45 23.5t11 70.5q5 118 5 289q0 10 -0.5 20t-0.5 16v7q0 3 -1.5 5.5t-3.5 3t-4 -1.5q-74 -80 -183.5 -202.5t-127.5 -141.5q-7 -9 -7 -21v-24 q2 -26 36 -37q35 -12 35 -25q0 -15 -32 -15l-44 1q-45 2 -66 2q-10 0 -49.5 -2t-57.5 -2q-36 0 -36 14q0 12 29 22q33 8 44 20.5t14 46.5q8 76 8 245v118q0 67 -1 86q-1 25 -10 35t-33 18q-34 11 -34 21z"/>
<glyph glyph-name="uni040E" horiz-adv-x="661" unicode="Ў" d="M350 672q-65 0 -103.5 29t-38.5 64q0 18 13 33t36 15q17 0 27.5 -12t10.5 -31q0 -6 -2.5 -15.5t-2.5 -14.5q0 -14 17.5 -23t47.5 -9q70 0 70 30q0 6 -3 16.5t-3 18.5q0 19 12.5 31.5t29.5 12.5t29.5 -12.5t12.5 -30.5q0 -51 -49.5 -76.5t-103.5 -25.5zM196 -39 q-37 0 -56 19q-19 21 -19 58q0 9 4 21t8 12q14 0 42.5 -6.5t42.5 -6.5q56 0 87 50q5 7 5 20q0 11 -3 17q-15 33 -50.5 100.5t-85.5 157.5t-67 121q-23 44 -37 57.5t-42 20.5q-27 7 -27 21q0 15 32 15q6 0 50 -2.5t71 -2.5q19 0 63.5 1t54.5 1q9 0 16 -4.5t7 -10.5t-8 -12 t-16 -8q-42 -8 -42 -28q0 -6 3 -13q7 -20 74.5 -143.5t84.5 -150.5q6 -10 12 1q52 100 110 260q7 18 7 33q0 16 -11.5 25.5t-38.5 18.5q-23 8 -23 17q0 6 7 10.5t18 4.5q10 0 36.5 -1t44.5 -1q16 0 50 1.5t44 1.5q28 0 28 -11q0 -12 -23 -20q-36 -12 -53 -26t-33 -48 q-7 -15 -30 -65t-36.5 -79t-34 -72.5t-40 -80.5t-37.5 -69q-61 -109 -106 -156.5t-83 -47.5z"/>
<glyph glyph-name="uni040F" horiz-adv-x="805" unicode="Џ" d="M627 0h-142q-25 0 -36 -28q-22 -43 -33 -156q-1 -10 -7 -20t-14 -10q-19 0 -23 33q-10 101 -29 155q-10 26 -28 26h-142q-11 0 -50.5 -1.5t-57.5 -1.5q-38 0 -38 13q0 15 27 20q34 8 47 23t15 43q4 48 4 181q0 232 -2 270q-2 24 -11.5 36t-35.5 19q-28 9 -28 21 q0 13 28 13q13 0 54 -1.5t54 -1.5q23 0 62.5 1t49.5 1q29 0 29 -11q0 -16 -28 -22q-30 -7 -38 -18t-11 -49q-1 -20 -1 -204q2 -220 4 -267q1 -18 13 -21q36 -4 102 -4q39 0 102.5 1.5t76.5 1.5q8 0 12 26q0 17 2 121.5t2 150.5v85v124q-1 26 -11.5 36t-40.5 18q-26 7 -26 21 q0 12 30 12q7 0 54 -1.5t62 -1.5q18 0 62 1.5t48 1.5q28 0 28 -13q0 -4 -8 -10.5t-22 -9.5q-23 -5 -33 -12.5t-12 -13.5t-3 -24q-7 -75 -7 -279q0 -50 0.5 -93.5t1.5 -67t1 -26.5q0 -15 2 -23t9.5 -14.5t14.5 -9t25 -8.5q28 -9 28 -21q0 -14 -32 -14q-7 0 -45.5 1.5 t-54.5 1.5z"/>
<glyph glyph-name="uni0410" horiz-adv-x="677" unicode="А" d="M371 281q1 0 3 2.5t1 5.5q-37 117 -73 201q-2 5 -5.5 4t-5.5 -7q-67 -180 -72 -198q-2 -10 7 -10q78 2 145 2zM356 650q8 0 17 -22l40 -112q90 -252 143 -386q23 -56 41 -74t48 -27q26 -8 26 -18q0 -15 -33 -15q-12 0 -63.5 2t-67.5 2q-17 0 -51.5 -1t-46.5 -1 q-32 0 -32 15q0 12 26 17q41 10 41 34q0 2 -0.5 4t-0.5 4q-2 23 -46 146q-1 4 -8.5 9.5t-15.5 5.5h-41q-91 0 -127 -3q-4 0 -11 -10q-43 -108 -43 -145q0 -16 10.5 -26.5t36.5 -17.5q29 -7 29 -20t-30 -13q-7 0 -33 1t-47 1q-23 0 -59 -2t-40 -2q-29 0 -29 12q0 13 25 20 q37 10 52.5 26t38.5 63q13 27 85 209t88 221q5 10 7 20q1 4 8 14q3 4 22 27t23 29q9 13 18 13z"/>
<glyph glyph-name="uni0411" horiz-adv-x="610" unicode="Б" d="M439 180q0 66 -38 110t-108 44q-31 0 -42 -7q-6 -3 -8 -17v-17q0 -28 1 -107t1 -85q0 -30 26 -51t48 -21q54 0 89 51q31 42 31 100zM245 575q-3 -54 -3 -150q0 -42 1 -48t3 -9t6 -2q63 5 88 5q108 0 167.5 -46t59.5 -133q0 -48 -24 -88.5t-61 -64.5q-31 -22 -85 -32.5 t-91 -10.5q-26 0 -161 3h-18q-19 0 -44 -1t-29 -1q-31 0 -31 14q0 6 7.5 11.5t16.5 7.5q41 8 54.5 20.5t16.5 39.5q8 56 8 294v94q0 73 -2 81q-7 33 -64 44q-27 5 -27 20q0 13 30 13l126 -3h195q72 0 88 7q13 5 19 5q5 0 9.5 -5.5t4.5 -15.5v-110q0 -10 -6 -18t-13 -8 q-13 0 -20 31q-20 72 -74 74q-32 3 -108 3h-27q-11 -3 -12 -21z"/>
<glyph glyph-name="uni0412" horiz-adv-x="619" unicode="В" d="M444 176q0 43 -20 77.5t-54 52.5q-34 19 -86 19q-27 0 -34 -7q-8 -8 -8 -47v-15q0 -109 4 -161q2 -20 13 -32q32 -34 63 -34q49 0 85.5 43t36.5 104zM417 475q0 60 -36 94.5t-92 34.5q-13 0 -35 -6q-7 -3 -9 -16q-4 -32 -4 -213q0 -4 3.5 -8.5t7.5 -4.5q85 0 117 24 q48 34 48 95zM534 487q0 -35 -16.5 -64t-28 -38.5t-34.5 -25.5q-2 -1 -1.5 -5t2.5 -4q120 -50 120 -165q0 -88 -85 -145q-32 -23 -85.5 -33.5t-93.5 -10.5q-48 0 -183 3h-20q-14 0 -32.5 -0.5t-23.5 -0.5q-32 0 -32 16q0 12 28 17q43 8 54.5 20t14.5 41q8 84 8 319 q0 122 -6 150q-4 18 -15 25.5t-48 14.5q-26 4 -26 19q0 13 28 13h66q15 0 94 3.5t101 3.5q97 0 144 -30q70 -43 70 -123z"/>
<glyph glyph-name="uni0413" horiz-adv-x="535" unicode="Г" d="M326 633q143 0 171 7q13 0 13 -11q-3 -36 -3 -114v-24q0 -10 -4.5 -20t-10.5 -10q-16 0 -25 28q-9 31 -15 47.5t-20 35t-31 20.5q-26 3 -75 3q-13 0 -31 -0.5t-21 -0.5q-25 0 -25 -16q-4 -52 -4 -209q0 -35 0.5 -137t0.5 -138q1 -31 14 -43t49 -21q26 -9 26 -20 q0 -15 -30 -15q-11 0 -57 2.5t-67 2.5t-66.5 -3t-53.5 -3q-11 0 -19 4.5t-8 9.5q0 15 30 22q29 7 38 18t11 32q11 114 11 287q0 154 -2 180t-11 36.5t-37 17.5q-30 8 -30 22q0 5 9 9t20 4q22 0 62.5 -1.5t60.5 -1.5h130z"/>
<glyph glyph-name="uni0414" horiz-adv-x="704" unicode="Д" d="M453 56q0 2 -1 7.5t-2.5 12t-1.5 8.5q-10 38 -57.5 184.5t-70.5 211.5q-1 3 -3.5 3.5t-4.5 -2.5q-10 -26 -69 -188t-71 -196q-10 -28 -10 -39t20 -13q51 -3 177 -3q61 0 83 2q11 4 11 12zM164 0q-22 0 -41 -14q-18 -13 -26 -45t-15 -96q-4 -33 -20 -33q-7 0 -13.5 9 t-8.5 21q-2 13 -8 180q0 5 3.5 11.5t7.5 6.5l44 3q15 3 24 23q19 42 85.5 215.5t99.5 268.5q2 5 5 23q3 8 5 10q30 28 49 58q9 10 19 10q8 0 14.5 -13t24.5 -63q12 -34 84 -245t98 -273q9 -14 20 -14l63 -2q6 0 6 -12q0 -18 -15.5 -85t-20.5 -100q-2 -14 -10.5 -24.5 t-16.5 -10.5q-13 0 -13 26v10v8q0 7 -0.5 19t-0.5 16q0 112 -62 112h-381z"/>
<glyph glyph-name="uni0415" horiz-adv-x="587" unicode="Е" d="M250 633h150q46 0 88 6h1q9 0 11 -13q1 -18 1 -107q0 -11 -4.5 -19.5t-11.5 -8.5q-6 0 -11.5 8t-7.5 17q-15 67 -64 75q-34 6 -115 6h-24q-12 0 -13 -28q-4 -44 -4 -192v-27q0 -3 3 -6.5t7 -3.5h80q51 0 62 6.5t26 41.5q10 26 22 26q10 0 10 -24q0 -15 -2 -38.5t-2 -34.5 q0 -14 2 -36.5t2 -35.5q0 -26 -13 -26q-12 0 -19 22q-9 32 -22 42t-43 12q-32 3 -100 3q-3 0 -8 -5t-5 -7q-3 -23 -3 -76q0 -13 0.5 -35t0.5 -28q3 -78 4 -82q7 -21 22 -24q32 -6 81 -6q67 0 92 9q47 17 79 74q19 35 31 35q9 0 9 -19q0 -2 -0.5 -5.5t-0.5 -4.5 q0 -6 -16 -55.5t-22 -60.5q-2 -5 -10.5 -9t-13.5 -4q-3 0 -71 1.5t-148.5 2.5t-113.5 1q-37 0 -68.5 -2.5t-45.5 -2.5q-34 0 -34 13t30 20q39 9 52 23t16 53q8 112 8 242v130q0 49 -1 63q-2 29 -12.5 43.5t-40.5 20.5q-32 6 -32 18q0 6 10 10.5t21 4.5q23 0 88.5 -1.5 t92.5 -1.5z"/>
<glyph glyph-name="uni0416" horiz-adv-x="1038" unicode="Ж" d="M379 624q0 11 25 11q10 0 51 -1t57 -1q14 0 58.5 1.5t54.5 1.5q29 0 29 -11q0 -13 -26 -22q-30 -9 -40 -18.5t-11 -33.5q-3 -81 -3 -168v-20l1 -11q2 -9 9 -9q43 0 66.5 12.5t44.5 44.5q14 20 24 38.5t26 50t27 50.5q63 110 141 110q27 0 41 -11.5t14 -30.5q0 -9 -5 -26 t-10 -23q-12 -15 -24 -11q-44 12 -62 12q-42 0 -78 -62q-70 -115 -74 -120q-3 -4 1 -10q23 -23 60 -83q62 -100 101 -154q41 -56 70.5 -75.5t67.5 -25.5q6 -1 13.5 -6.5t7.5 -9.5q0 -10 -21 -17q-23 -6 -65 -6q-65 0 -103.5 16t-68.5 54q-16 21 -35 50.5t-44 71t-40 64.5 q-23 39 -40 54.5t-37 15.5q-5 0 -7 -9q0 -1 -0.5 -11t-0.5 -19q0 -110 5 -188q2 -25 13 -37t40 -20q24 -6 24 -19q0 -5 -8 -10.5t-19 -5.5q-7 0 -46 1.5t-66 1.5t-66.5 -2.5t-51.5 -2.5q-28 0 -28 14q0 13 29 21q33 7 43 23t12 61q4 74 4 160q0 31 -1 35q0 7 -3 7 q-37 0 -82 -64q-11 -16 -41 -62t-53 -79.5t-38 -51.5q-26 -32 -61.5 -49.5t-98.5 -17.5q-45 0 -60 4q-21 4 -21 16q0 9 20 14q40 10 66.5 29t70.5 79q20 25 51.5 71.5t45.5 65.5q46 64 80 86q5 3 1 9q-7 9 -39.5 61t-53.5 79q-42 51 -82 51q-10 0 -20.5 -2t-22.5 -6t-16 -5 q-15 -5 -26 6q-17 17 -17 45q0 24 18 39.5t49 15.5q41 0 69.5 -22t58.5 -67q27 -42 54.5 -92.5t42.5 -71.5q38 -54 100 -54q6 0 8 8q1 3 1 35q0 100 -4 150q-2 37 -10.5 47.5t-39.5 18.5q-26 6 -26 22z"/>
<glyph glyph-name="uni0417" horiz-adv-x="544" unicode="З" d="M462 492q0 -49 -29 -84.5t-69 -54.5q-2 -2 -1 -4.5t4 -3.5q57 -17 95 -57.5t38 -100.5q0 -67 -41.5 -115.5t-101 -70t-126.5 -21.5q-77 0 -152 31q-10 4 -21.5 15.5t-13.5 19.5q-7 22 -15 91v5q0 11 4.5 19.5t11.5 8.5q12 0 26 -27q61 -128 162 -128q65 0 101 56 q30 47 30 108t-31 98t-71 37q-5 0 -28.5 -6t-39.5 -6q-18 0 -31.5 9.5t-13.5 20.5q0 13 13.5 23t34.5 10q11 0 37 -3t35 -3q22 0 44 27t22 83q0 55 -27 100.5t-82 45.5q-51 0 -86 -43q-32 -39 -46 -83q-11 -26 -22 -26q-5 0 -10.5 9t-4.5 23l5 84q0 9 6.5 22.5t11.5 13.5 q35 5 59 13q72 24 118 24q97 0 151 -44t54 -116z"/>
<glyph glyph-name="uni0418" horiz-adv-x="814" unicode="И" d="M46 622q0 15 29 15q13 0 53 -2t54 -2q23 0 64 1.5t51 1.5q31 0 31 -14q0 -12 -34 -22q-28 -8 -36 -22t-10 -47q-5 -112 -5 -276q0 -66 1 -71q1 -4 4 -6t5 0q253 274 308 342q8 12 8 19v19q-1 16 -10 26t-34 17q-25 8 -25 22q0 12 26 12q5 0 49 -1t60 -1q19 0 62.5 1.5 t46.5 1.5q29 0 29 -12q0 -14 -30 -22q-27 -6 -36 -16.5t-11 -34.5q-7 -55 -7 -275q0 -49 4 -181q1 -33 10 -43t41 -19q28 -11 28 -22q0 -14 -32 -14q-7 0 -48 1.5t-57 1.5q-12 0 -59.5 -2.5t-57.5 -2.5q-35 0 -35 15q0 12 27 20q37 9 45 23.5t11 70.5q5 118 5 289 q0 10 -0.5 20t-0.5 16v7q0 3 -1.5 5.5t-3.5 3t-4 -1.5q-74 -80 -183.5 -202.5t-127.5 -141.5q-7 -9 -7 -21v-24q2 -26 36 -37q35 -12 35 -25q0 -15 -32 -15l-44 1q-45 2 -66 2q-10 0 -49.5 -2t-57.5 -2q-36 0 -36 14q0 12 29 22q33 8 44 20.5t14 46.5q8 76 8 245v118 q0 67 -1 86q-1 25 -10 35t-33 18q-34 11 -34 21z"/>
<glyph glyph-name="uni0419" horiz-adv-x="814" unicode="Й" d="M412 673q-65 0 -103.5 29t-38.5 64q0 18 13 33t36 15q17 0 27.5 -12t10.5 -31q0 -6 -2.5 -15.5t-2.5 -14.5q0 -14 17.5 -23t47.5 -9q70 0 70 30q0 6 -3 16.5t-3 18.5q0 19 12.5 31.5t29.5 12.5t29.5 -12.5t12.5 -30.5q0 -51 -49.5 -76.5t-103.5 -25.5zM46 622q0 15 29 15 q13 0 53 -2t54 -2q23 0 64 1.5t51 1.5q31 0 31 -14q0 -12 -34 -22q-28 -8 -36 -22t-10 -47q-5 -112 -5 -276q0 -66 1 -71q1 -4 4 -6t5 0q253 274 308 342q8 12 8 19v19q-1 16 -10 26t-34 17q-25 8 -25 22q0 12 26 12q5 0 49 -1t60 -1q19 0 62.5 1.5t46.5 1.5q29 0 29 -12 q0 -14 -30 -22q-27 -6 -36 -16.5t-11 -34.5q-7 -55 -7 -275q0 -49 4 -181q1 -33 10 -43t41 -19q28 -11 28 -22q0 -14 -32 -14q-7 0 -48 1.5t-57 1.5q-12 0 -59.5 -2.5t-57.5 -2.5q-35 0 -35 15q0 12 27 20q37 9 45 23.5t11 70.5q5 118 5 289q0 10 -0.5 20t-0.5 16v7 q0 3 -1.5 5.5t-3.5 3t-4 -1.5q-74 -80 -183.5 -202.5t-127.5 -141.5q-7 -9 -7 -21v-24q2 -26 36 -37q35 -12 35 -25q0 -15 -32 -15l-44 1q-45 2 -66 2q-10 0 -49.5 -2t-57.5 -2q-36 0 -36 14q0 12 29 22q33 8 44 20.5t14 46.5q8 76 8 245v118q0 67 -1 86q-1 25 -10 35 t-33 18q-34 11 -34 21z"/>
<glyph glyph-name="uni041A" horiz-adv-x="716" unicode="К" d="M39 624q0 14 30 14q11 0 49 -2.5t54 -2.5t58.5 2.5t53.5 2.5q31 0 31 -15q0 -10 -26 -17q-30 -9 -39 -18.5t-11 -42.5q-1 -18 -1 -94v-102q0 -10 7 -10q42 3 69.5 20t53.5 59q13 21 36.5 62t36.5 62q67 107 138 107q25 0 40.5 -11t15.5 -32q0 -8 -5.5 -27t-9.5 -23 q-9 -11 -20 -11q-3 0 -9 2q-30 10 -50 10q-32 0 -51 -15.5t-44 -56.5q-52 -83 -65 -100q-2 -4 0 -8q18 -35 71.5 -118t84.5 -125q46 -60 72.5 -78t72.5 -28q16 -5 16 -11q0 -13 -20 -19q-18 -5 -60 -5q-67 0 -104 14t-66 52q-42 52 -125 184q-27 43 -41 56.5t-37 13.5 q-5 0 -7 -12q0 -74 4 -222q1 -18 10.5 -28t39.5 -18q29 -8 29 -20q0 -6 -10 -10.5t-23 -4.5q-10 0 -57.5 1t-64.5 1q-15 0 -56 -2t-57 -2q-11 0 -19 5t-8 10q0 12 30 19q36 8 48 24.5t14 61.5q2 50 2 226q0 83 -3 191q-1 35 -10 48.5t-35 21.5q-33 9 -33 21z"/>
<glyph glyph-name="uni041B" horiz-adv-x="677" unicode="Л" d="M356 650q8 0 18 -25l40 -113q95 -265 143 -382q23 -59 38 -76t46 -26q27 -6 27 -19q0 -15 -32 -15q-13 0 -62.5 3t-66.5 3t-51 -1.5t-46 -1.5q-32 0 -32 15q0 12 25 18t33.5 14.5t8.5 20.5v6q-2 25 -143 418q-1 2 -2.5 3t-4 0t-4.5 -6q-32 -78 -85.5 -227.5t-53.5 -183.5 q0 -16 10 -26.5t37 -18.5q28 -7 28 -20t-30 -13q-6 0 -32 1.5t-47 1.5q-22 0 -58 -2.5t-41 -2.5q-29 0 -29 12q0 14 25 20q36 11 52 27.5t38 62.5q14 27 86 210.5t88 221.5q4 9 4 24q0 7 2 8q51 55 53 58q7 11 18 11z"/>
<glyph glyph-name="uni041C" horiz-adv-x="886" unicode="М" d="M46 624q0 13 29 13t74.5 -2t87.5 -2q2 0 6 -5t5 -9q9 -29 38 -90q149 -306 163 -325q6 -6 9 -3q24 44 85 166t82 174q25 60 29 77q1 3 5.5 9t6.5 6q31 0 68.5 1t63 2t27.5 1q27 0 27 -12q0 -13 -29 -19q-22 -6 -45 -17q-24 -11 -24 -80q0 -315 12 -415q4 -27 16.5 -40.5 t47.5 -22.5q12 -3 19.5 -9t7.5 -12q0 -15 -30 -15q-2 0 -61 2.5t-80 2.5q-8 0 -45.5 -1.5t-49.5 -1.5q-29 0 -29 14q0 15 28 21q28 7 36 25.5t11 55.5q5 68 5 315v42q0 5 -1.5 8.5t-4.5 3t-5 -4.5q-86 -174 -145 -309q-20 -45 -60 -143q-13 -31 -28 -31q-9 0 -19 22 q-14 46 -37 102q-35 86 -87 201t-71 151q-6 12 -6 -3q-16 -128 -16 -332v-17q1 -43 12 -58.5t49 -27.5q29 -10 29 -22q0 -14 -29 -14q-16 0 -48.5 2t-43.5 2q-12 0 -45 -2t-44 -2q-31 0 -31 14q0 9 27 19q42 14 55 32t20 70q31 266 33 403q0 50 -38 60l-41 12q-21 6 -21 18z "/>
<glyph glyph-name="uni041D" horiz-adv-x="817" unicode="Н" d="M246 361q2 -13 12 -13q29 0 138.5 2t166.5 2q7 0 9 25q1 5 1 56q0 77 -3 112q-3 29 -11.5 39.5t-37.5 17.5q-29 8 -29 21t33 13q5 0 51.5 -1.5t61.5 -1.5q18 0 61 1.5t46 1.5q31 0 31 -13t-32 -21q-25 -6 -33.5 -17.5t-10.5 -35.5q-8 -75 -8 -279q0 -51 4 -183 q1 -28 9.5 -36t41.5 -19q28 -9 28 -21q0 -14 -32 -14q-7 0 -45.5 1.5t-55.5 1.5q-11 0 -61.5 -2.5t-60.5 -2.5q-34 0 -34 14q0 13 27 21q36 10 44 24t12 71q3 39 3 112q0 39 -1 49q0 13 -8 13q-29 0 -126.5 1t-133.5 1q-14 0 -29 -1h-16q-4 -1 -8.5 -6t-4.5 -9 q-1 -11 -1 -50q0 -82 2 -126q1 -37 9.5 -51t38.5 -23q35 -10 35 -25q0 -5 -5.5 -8t-12.5 -4t-14 -1q-2 0 -26 0.5t-54 1.5t-45 1q-10 0 -50 -2t-58 -2q-35 0 -35 13q0 14 28 22q33 9 43.5 21t14.5 44q9 90 9 326q0 9 0.5 37t0.5 44q0 31 -1 44q-1 25 -10 35.5t-34 18.5 q-34 10 -34 22q0 14 31 14q14 0 54.5 -2t53.5 -2q23 0 62 1.5t49 1.5q33 0 33 -13q0 -14 -34 -22q-29 -6 -37 -20.5t-9 -48.5q-4 -108 -4 -140q0 -26 1 -31z"/>
<glyph glyph-name="uni041E" horiz-adv-x="783" unicode="О" d="M364 615q-31 0 -62 -15.5t-51 -35.5q-70 -68 -70 -224q0 -123 68 -222t172 -99q61 0 102 41q33 33 55 95.5t22 139.5q0 67 -26.5 143t-77.5 123q-26 23 -63 38.5t-69 15.5zM388 650q80 0 147.5 -28t110.5 -74t67 -103.5t24 -118.5q0 -171 -126 -272q-43 -33 -102 -52.5 t-117 -19.5q-159 0 -260 107q-86 92 -86 229q0 157 129 260q38 29 96 50.5t117 21.5z"/>
<glyph glyph-name="uni041F" horiz-adv-x="809" unicode="П" d="M627 633q19 0 63 1.5t48 1.5q31 0 31 -13q0 -15 -32 -22q-30 -8 -38.5 -17t-10.5 -33q-5 -51 -5 -213q0 -152 3 -251q1 -28 10.5 -37.5t40.5 -17.5q28 -9 28 -20q0 -16 -31 -16q-7 0 -49 2t-59 2q-12 0 -58.5 -2.5t-56.5 -2.5q-35 0 -35 15q0 13 27 19q36 9 45 24.5 t12 71.5q2 40 2 224v44q0 121 -3 181q0 9 -4.5 13.5t-9.5 4.5q-21 0 -99 0.5t-114 0.5q-60 0 -69 -1q-4 -1 -8.5 -5.5t-5.5 -9.5q-5 -43 -5 -242q0 -61 0.5 -142t0.5 -84q0 -36 9.5 -50.5t39.5 -23.5q35 -10 35 -23q0 -15 -32 -15q-2 0 -26 0.5t-54 1.5t-45 1 q-10 0 -48.5 -2.5t-56.5 -2.5q-38 0 -38 15q0 12 31 20q33 7 42.5 20.5t11.5 47.5q10 120 10 265q0 31 0.5 76.5t0.5 60.5q0 32 -1 45q-1 25 -11 37t-33 18q-34 9 -34 22q0 14 31 14q13 0 54 -1.5t55 -1.5h441z"/>
<glyph glyph-name="uni0420" horiz-adv-x="584" unicode="Р" d="M419 444q0 63 -38.5 113.5t-97.5 50.5q-15 0 -27 -9q-8 -8 -9 -37q0 -9 -0.5 -46.5t-1 -102.5t-0.5 -109q0 -54 1 -115t1 -65q1 -49 11 -66.5t51 -27.5q28 -7 28 -21t-31 -14q-11 0 -57 2.5t-70 2.5q-14 0 -53.5 -1.5t-55.5 -1.5q-37 0 -37 16q0 11 24 18q36 8 49 22.5 t15 49.5q6 80 6 156q0 256 -2 285t-13 41t-50 17q-23 4 -23 15q0 13 21 16q6 1 33 1q34 0 102.5 4t88.5 4q143 0 202 -58q58 -57 58 -135q0 -94 -66 -151q-20 -17 -56 -31t-64 -14q-34 0 -52 7q-21 9 -21 20q0 3 4.5 6.5t10.5 3.5h15q37 0 70.5 41.5t33.5 112.5z"/>
<glyph glyph-name="uni0421" horiz-adv-x="710" unicode="С" d="M426 650q66 0 130 -16q47 -12 72 -15q5 0 10 -8t5 -19q0 -10 2.5 -44.5t2.5 -51.5q0 -34 -17 -34q-10 0 -19 27q-17 52 -42 71q-69 58 -148 58q-114 0 -174 -78.5t-60 -199.5q0 -101 34 -169q39 -77 99 -113t125 -36q59 0 97 23q53 30 87 91q17 31 27 31t10 -22 q0 -7 -2 -15q-9 -45 -30 -87q-2 -7 -13.5 -17t-22.5 -15q-81 -29 -175 -29q-100 0 -178 35t-116 78q-84 97 -84 225q0 81 34.5 144t75.5 96q109 90 270 90z"/>
<glyph glyph-name="uni0422" horiz-adv-x="678" unicode="Т" d="M342 633q150 0 216 2q59 5 77 16q13 8 16 8t6.5 -5t3.5 -12q0 -5 -1 -8q-16 -57 -21 -116q0 -8 -5.5 -17t-13.5 -9q-12 0 -17 31q-7 42 -20.5 54t-51.5 14q-91 0 -122 -5q-10 -2 -10 -12q0 -18 -0.5 -89t-0.5 -119q0 -208 5 -271q3 -27 17.5 -41.5t60.5 -24.5 q10 -2 17.5 -8.5t7.5 -11.5q0 -13 -28 -13q-2 0 -67.5 2t-80.5 2q-17 0 -67.5 -3t-57.5 -3q-31 0 -31 12q0 14 22 21q47 12 58.5 28.5t14.5 70.5q9 133 9 334q0 32 -0.5 70t-0.5 47q0 6 -4 10t-7 4q-25 4 -113 4q-13 0 -30 -7t-25 -16q-13 -14 -34 -53q-16 -26 -22 -26 q-15 0 -15 22q0 6 9 56t10 79q0 4 5.5 12.5t10.5 8.5q2 0 4 -1t3.5 -2.5t3 -3.5t3.5 -4.5t3 -4.5q9 -14 41 -16q44 -6 222 -6z"/>
<glyph glyph-name="uni0423" horiz-adv-x="661" unicode="У" d="M196 -39q-37 0 -56 19q-19 21 -19 58q0 9 4 21t8 12q14 0 42.5 -6.5t42.5 -6.5q56 0 87 50q5 7 5 20q0 11 -3 17q-15 33 -50.5 100.5t-85.5 157.5t-67 121q-23 44 -37 57.5t-42 20.5q-27 7 -27 21q0 15 32 15q6 0 50 -2.5t71 -2.5q19 0 63.5 1t54.5 1q9 0 16 -4.5 t7 -10.5t-8 -12t-16 -8q-42 -8 -42 -28q0 -6 3 -13q7 -20 74.5 -143.5t84.5 -150.5q6 -10 12 1q52 100 110 260q7 18 7 33q0 16 -11.5 25.5t-38.5 18.5q-23 8 -23 17q0 6 7 10.5t18 4.5q10 0 36.5 -1t44.5 -1q16 0 50 1.5t44 1.5q28 0 28 -11q0 -12 -23 -20q-36 -12 -53 -26 t-33 -48q-7 -15 -30 -65t-36.5 -79t-34 -72.5t-40 -80.5t-37.5 -69q-61 -109 -106 -156.5t-83 -47.5z"/>
<glyph glyph-name="uni0424" horiz-adv-x="781" unicode="Ф" d="M450 507v-374q0 -7 7 -7q56 2 99 43q49 47 49 149q0 177 -148 197q-3 1 -5 -1.5t-2 -6.5zM334 135q0 335 -2 372q0 9 -9 8q-57 -5 -95 -40q-24 -19 -38.5 -56.5t-14.5 -79.5q0 -177 151 -213q3 -1 5.5 1.5t2.5 7.5zM262 637q0 6 8.5 10t19.5 4q15 0 51.5 -1.5t51.5 -1.5 q25 0 58.5 1.5t43.5 1.5q12 0 20.5 -4.5t8.5 -9.5q0 -16 -29 -20q-20 -4 -29.5 -11t-11.5 -14t-3 -20v-15q0 -6 7 -8q126 -9 201.5 -64t75.5 -161q0 -104 -82 -168q-76 -56 -194 -65q-9 0 -9 -9q0 -10 1 -18q0 -33 41 -44q32 -7 32 -20q0 -8 -10 -13t-21 -5t-41.5 1.5 t-51.5 1.5q-20 0 -54.5 -2t-51.5 -2q-38 0 -38 18q0 13 32 18q19 5 30 14.5t13 16t3 18.5v15q0 10 -7 10q-124 8 -202.5 66.5t-78.5 166.5q0 110 94 171q71 46 180 53q11 0 11 9v18q-4 33 -41 42q-28 6 -28 20z"/>
<glyph glyph-name="uni0425" horiz-adv-x="718" unicode="Х" d="M63 638q8 0 66.5 -2.5t78.5 -2.5q21 0 47.5 1t40.5 1q29 0 29 -11q0 -14 -30 -25q-16 -4 -16 -18q0 -6 3 -12q35 -72 104 -172q6 -8 10 -1q23 26 64.5 83t57.5 84q3 6 3 11q0 19 -39 28q-13 3 -19.5 9t-6.5 11q0 13 27 13q16 0 45.5 -1t43.5 -1q13 0 55 2t54 2 q25 0 25 -11q0 -6 -8 -12t-17 -8q-46 -11 -74.5 -27t-56.5 -47q-8 -10 -38.5 -45.5t-52.5 -62.5t-42 -55q-4 -8 -1 -15q6 -15 58 -98t85 -130q32 -45 57.5 -66t76.5 -33q12 -3 18 -8.5t5 -10.5q0 -15 -33 -15q-10 0 -78.5 3.5t-95.5 3.5q-16 0 -48.5 -2.5t-37.5 -2.5 q-25 0 -25 13q0 12 24 20q25 9 30 12q3 2 4.5 7t-0.5 9q-14 28 -64 109.5t-58 89.5q-6 6 -10 2q-59 -69 -99 -133q-24 -38 -24 -59q0 -22 36 -35q25 -7 25 -18q0 -16 -25 -16q-13 0 -49 2t-54 2q-23 0 -57 -3t-43 -3q-32 0 -32 13q0 15 36 23q65 15 114 70q83 94 150 186 q5 6 2 14q-5 17 -58 102t-98 147q-18 24 -37 35.5t-49 17.5q-29 6 -29 20q0 16 30 16z"/>
<glyph glyph-name="uni0426" horiz-adv-x="805" unicode="Ц" d="M178 0q-13 0 -55.5 -1.5t-55.5 -1.5q-37 0 -37 14t28 20q57 12 60 62q5 77 5 152q0 270 -3 302q-2 26 -10.5 36t-38.5 19q-27 8 -27 20q0 14 28 14q12 0 54 -1.5t57 -1.5q19 0 59.5 1t50.5 1q29 0 29 -12q0 -5 -6.5 -12t-18.5 -9q-34 -7 -41.5 -18.5t-9.5 -57.5 q-1 -12 -1 -116v-80q2 -258 3 -261q4 -22 17 -25q11 -2 70 -2q194 0 206 3q5 1 9.5 11.5t4.5 15.5q2 93 4 245q0 205 -1 225q-1 29 -10.5 41t-38.5 20q-28 7 -28 20t28 13q3 0 51 -1.5t65 -1.5t60 1t50 1q29 0 29 -13q0 -12 -30 -20q-18 -4 -27.5 -7.5t-14 -12t-5 -13 t-1.5 -22.5q-6 -62 -6 -260v-64q0 -122 2 -156q0 -19 10 -21q8 0 36 -0.5t31 -0.5q8 0 8 -13q0 -15 -15.5 -80.5t-18.5 -103.5q-2 -13 -9.5 -25t-16.5 -12q-17 0 -17 32q0 6 0.5 25.5t0.5 24.5q0 62 -18 85t-52 23z"/>
<glyph glyph-name="uni0427" horiz-adv-x="691" unicode="Ч" d="M445 550q-1 26 -11.5 35.5t-42.5 18.5q-21 7 -21 21q0 11 25 11q15 0 50.5 -1.5t58.5 -1.5q32 0 71 1.5t50 1.5q26 0 26 -14q0 -10 -24 -17q-35 -11 -45.5 -18t-11.5 -27q-4 -35 -4 -151q0 -250 5 -325q1 -25 11 -35t41 -19q27 -8 27 -17q0 -16 -33 -16q-4 0 -44 1.5 t-73 1.5q-24 0 -69 -1.5t-46 -1.5q-28 0 -28 14t24 18q41 7 51 21t13 62q3 75 3 160q0 10 -0.5 22.5t-0.5 15.5q0 4 -2 6t-5 1q-79 -37 -166 -37q-106 0 -153 66q-27 34 -28 106q0 13 -2 97q0 26 -9.5 36.5t-37.5 18.5q-25 8 -25 21q0 11 28 11q14 0 48.5 -1.5t55.5 -1.5 q30 0 66 1t45 1q25 0 25 -14q0 -11 -28 -19q-30 -8 -36 -16.5t-7 -40.5q-1 -13 -1 -59v-29q3 -122 135 -122q54 0 87 13q8 5 10 23q0 2 0.5 11.5t0.5 15.5q0 23 -1.5 79.5t-1.5 72.5z"/>
<glyph glyph-name="uni0428" horiz-adv-x="1051" unicode="Ш" d="M175 0q-13 0 -55 -2t-56 -2q-35 0 -35 13q0 16 29 22q33 6 43.5 18.5t13.5 43.5q9 77 9 314q0 23 0.5 57t0.5 46q0 26 -1 37q-2 25 -11.5 35.5t-34.5 18.5q-32 11 -32 21q0 14 31 14q12 0 53.5 -1.5t56.5 -1.5q20 0 60.5 1.5t49.5 1.5q31 0 31 -14q0 -11 -32 -22 q-32 -9 -40 -22t-9 -51q-2 -34 -2 -185q0 -253 1 -274q1 -18 21 -22q52 -3 153 -3h29q11 0 13 21q3 105 3 261q0 180 -1 209q-1 37 -9 49t-34 19q-31 7 -31 20q0 14 31 14q10 0 49 -1.5t57 -1.5q21 0 57.5 1.5t52.5 1.5q33 0 33 -14q0 -13 -30 -19q-32 -6 -41 -20.5 t-10 -43.5q0 -8 -1.5 -56t-1.5 -88q0 -254 4 -334q0 -19 16 -19q98 0 180 2q6 1 8.5 2.5t5 7.5t3.5 17q3 46 3 253v84q0 110 -2 132q-2 31 -11 43t-37 19q-30 9 -30 20q0 14 32 14q4 0 49 -1.5t61 -1.5q17 0 58 1.5t48 1.5q33 0 33 -13q0 -15 -33 -21q-26 -6 -33.5 -17 t-9.5 -40q-5 -43 -5 -224q0 -157 4 -237q1 -26 9 -33.5t39 -17.5t31 -22q0 -14 -33 -14q-9 0 -55.5 1.5t-60.5 1.5h-685z"/>
<glyph glyph-name="uni0429" horiz-adv-x="1051" unicode="Щ" d="M175 0q-13 0 -55 -2t-56 -2q-35 0 -35 13q0 16 29 22q33 7 44 19t14 43q8 69 8 314q0 23 0.5 57t0.5 46q0 26 -1 37q-2 26 -11.5 36.5t-34.5 17.5q-32 11 -32 22q0 14 31 14q11 0 53 -2t57 -2q20 0 60.5 1.5t49.5 1.5q31 0 31 -14q0 -11 -32 -22q-32 -9 -40 -22t-9 -51 q-2 -34 -2 -185q0 -253 1 -274q1 -18 21 -22q52 -3 153 -3h29q11 0 13 21q3 105 3 261q0 180 -1 209q-1 37 -9 49t-34 19q-31 7 -31 20q0 14 31 14q10 0 49 -1.5t57 -1.5q21 0 57.5 1.5t52.5 1.5q33 0 33 -14q0 -13 -30 -19q-32 -6 -41 -20.5t-10 -43.5q0 -8 -1.5 -56 t-1.5 -88q0 -254 4 -334q0 -19 16 -19q98 0 180 2q6 1 8.5 2.5t5 7.5t3.5 17q3 46 3 253v84q0 110 -2 132q-2 31 -11 43t-37 19q-30 9 -30 20q0 14 32 14q4 0 49 -1.5t61 -1.5q17 0 58 1.5t48 1.5q33 0 33 -13q0 -15 -33 -21q-26 -6 -33.5 -17t-9.5 -40q-5 -43 -5 -224 q0 -168 4 -248q0 -8 4.5 -16.5t10.5 -8.5q7 0 35.5 -1t31.5 -1q7 0 7 -12q0 -19 -15.5 -85.5t-19.5 -101.5q-1 -13 -9 -24.5t-18 -11.5q-16 0 -16 31q0 6 -0.5 27t-0.5 26q0 105 -70 105h-695z"/>
<glyph glyph-name="uni042A" horiz-adv-x="711" unicode="Ъ" d="M537 179q0 74 -39 115t-107 41q-29 0 -38 -6q-7 -5 -7 -24q0 -11 1.5 -105t1.5 -105q0 -26 25 -45.5t49 -19.5q39 0 73 31q14 13 27.5 48.5t13.5 69.5zM298 633q25 0 59 1t48 1q26 0 26 -14q0 -12 -31 -19q-32 -6 -41.5 -17.5t-11.5 -38.5q-2 -50 -2 -166q0 -4 3 -9t6 -4 q43 5 88 5q106 0 166 -45.5t60 -134.5q0 -94 -86 -151q-30 -21 -81 -33t-90 -12q-23 0 -161 3h-17q-19 0 -46.5 -1t-32.5 -1q-11 0 -19.5 4.5t-8.5 11.5q0 6 7 11t16 7q46 8 58.5 19.5t15.5 39.5q5 52 5 252v145q0 89 -1 99q0 11 -8 11q-33 0 -83 -5q-24 -3 -39 -20.5 t-33 -57.5q-13 -28 -24 -28q-12 0 -12 26q0 3 9 46.5t9 78.5q0 4 5.5 8.5t9.5 4.5t10 -6t55 -9q38 -2 172 -2z"/>
<glyph glyph-name="uni042B" horiz-adv-x="911" unicode="Ы" d="M664 334v79q0 91 -2 114q-3 46 -11 56q-9 12 -38 19q-31 7 -31 21q0 13 30 13q14 0 55.5 -1.5t58.5 -1.5q26 0 64.5 1.5t53.5 1.5q31 0 31 -14t-30 -20q-23 -4 -35.5 -14.5t-15.5 -20.5t-4 -26q-4 -50 -4 -232q0 -149 3 -194t14 -60t52 -26q28 -6 28 -21q0 -13 -32 -13 q-17 0 -67 2.5t-72 2.5h-10q-14 0 -45.5 -1.5t-50.5 -1.5q-32 0 -32 17q0 11 31 19q32 8 42.5 24t12.5 51q4 76 4 226zM435 179q0 72 -39.5 114t-107.5 42q-29 0 -38 -6q-8 -6 -8 -24q0 -122 4 -210q0 -26 25 -45.5t49 -19.5q39 0 73 31q14 14 28 49t14 69zM340 373 q105 0 165 -46t60 -135q0 -95 -86 -151q-30 -21 -81 -33t-91 -12q-24 0 -159 3h-18q-20 0 -47 -1t-31 -1q-11 0 -20 4.5t-9 11.5q0 6 7.5 11t16.5 6q44 8 57 20t16 40q5 50 5 226q0 20 0.5 78t0.5 86q0 65 -2 77q-3 19 -13.5 29t-39.5 17q-25 6 -25 20q0 13 28 13 q99 -3 109 -3q5 0 13.5 -0.5t12.5 -0.5q18 0 46 1.5t38 1.5q28 0 28 -13q0 -14 -32 -22q-27 -7 -34.5 -16.5t-9.5 -37.5q-3 -39 -3 -166q0 -4 3 -9t6 -4q51 6 89 6z"/>
<glyph glyph-name="uni042C" horiz-adv-x="608" unicode="Ь" d="M435 179q0 74 -39.5 115t-107.5 41q-29 0 -38 -6q-8 -4 -8 -24q0 -122 4 -210q0 -26 25 -45.5t49 -19.5q39 0 73 31q14 14 28 49t14 69zM340 373q105 0 165 -46t60 -135q0 -95 -86 -151q-30 -21 -81 -33t-91 -12q-24 0 -159 3h-18q-20 0 -47 -1t-31 -1q-11 0 -20 4.5 t-9 11.5q0 6 7.5 11t16.5 6q44 8 57 20t16 40q5 50 5 226v113q0 119 -2 128q-3 19 -13 29t-39 17q-25 6 -25 20q0 13 28 13q99 -3 109 -3q5 0 13.5 -0.5t12.5 -0.5q18 0 46 1.5t38 1.5q28 0 28 -13q0 -14 -32 -22q-27 -7 -34.5 -16.5t-9.5 -37.5q-3 -39 -3 -166q0 -4 2.5 -9 t5.5 -4q54 6 90 6z"/>
<glyph glyph-name="uni042D" horiz-adv-x="695" unicode="Э" d="M287 615q-74 0 -123 -43q-34 -29 -51 -72q-11 -27 -18 -30q-3 -1 -6 -1q-6 0 -10.5 7.5t-4.5 17.5q0 1 1 39t3 48q7 29 21 32q15 3 65 15q85 23 157 23q151 0 253 -98q82 -86 82 -231q0 -81 -31 -145.5t-70 -100.5q-103 -95 -262 -95q-103 0 -173 31q-37 15 -47 43 q-3 10 -8.5 44t-7.5 42q-1 4 -1 10q0 24 15 24q13 0 26 -27q17 -33 33 -52q66 -79 165 -79q97 0 158.5 83.5t61.5 191.5q0 10 -9 10q-35 0 -102 -1t-101 -1q-83 0 -129 -7q-2 -1 -5.5 2t-3.5 7q0 12 25.5 31.5t48.5 19.5q41 0 148 -5.5t119 -5.5q4 0 7 4t3 6 q-2 67 -26 124.5t-77 98t-126 40.5z"/>
<glyph glyph-name="uni042E" horiz-adv-x="1047" unicode="Ю" d="M659 614q-54 0 -99 -49q-63 -74 -63 -238q0 -127 60 -217.5t149 -90.5q52 0 93 45q27 32 44 95t17 141q0 47 -10 97.5t-31.5 101t-63 83t-96.5 32.5zM244 276v-32q0 -99 3 -129q4 -45 15 -59.5t51 -25.5q28 -8 28 -22q0 -13 -32 -13q-14 0 -60.5 2.5t-68.5 2.5h-10 q-14 0 -50.5 -1.5t-55.5 -1.5q-31 0 -31 16q0 12 31 19q32 8 42.5 24.5t12.5 49.5q5 67 5 218v82q0 98 -2 123q-2 29 -4 38.5t-12.5 19t-34.5 15.5q-29 8 -29 20q0 14 30 14q14 0 55 -1.5t58 -1.5q26 0 63.5 1.5t53.5 1.5q33 0 33 -13q0 -15 -32 -21q-51 -9 -55 -58 q-5 -50 -5 -165q0 -7 0.5 -14t0.5 -8q2 -10 10 -10q14 0 48.5 0.5t51.5 0.5q8 0 10 11q15 132 110 216q85 76 203 76q147 0 235 -99.5t88 -235.5q0 -165 -116 -266q-82 -69 -202 -69q-128 0 -218 85t-102 226q0 4 -3 7.5t-6 3.5l-100 -4q-6 0 -9 -23z"/>
<glyph glyph-name="uni042F" horiz-adv-x="663" unicode="Я" d="M424 346v62q0 131 -1 163q-1 23 -10 27q-9 6 -36 6q-59 0 -92.5 -37t-33.5 -93q0 -67 47 -106q42 -36 116 -36q10 0 10 14zM625 13q0 -7 -8.5 -12t-20.5 -5q-1 0 -43 2t-69 2q-22 0 -65 -2.5t-52 -2.5q-7 0 -15.5 4t-8.5 11q0 12 23 19q34 9 45 22t12 44q0 13 1.5 44.5 t2 60t0.5 49.5q0 31 -1 42q0 11 -5 11q-26 -4 -48.5 -22.5t-50.5 -60.5q-90 -135 -114 -165q-54 -64 -155 -64q-69 0 -69 19q0 13 24 17q37 7 67.5 37.5t89.5 113.5q39 55 61 80t49 44q5 4 -1 7q-60 15 -104 54t-44 110q0 70 57 118q56 47 200 47q27 0 72 -1t62 -1h77 q30 0 30 -14q0 -15 -25 -20q-23 -4 -35.5 -10.5t-15 -11t-4.5 -13.5q-5 -21 -5 -208q0 -213 5 -264q3 -31 13 -43t43 -20q25 -7 25 -18z"/>
<glyph glyph-name="uni0430" horiz-adv-x="418" unicode="а" d="M190 49q20 0 38 12q9 5 9 19q4 28 4 89q0 10 -7 10q-13 0 -40 -9t-41 -17q-18 -13 -18 -40q0 -30 18.5 -47t36.5 -17zM218 407q67 0 104 -54q22 -29 22 -86q0 -23 -2 -95t-2 -74q0 -19 11.5 -29.5t25.5 -10.5q5 0 35 12q3 2 6 -1q3 -6 3 -14q0 -17 -32.5 -42.5 t-70.5 -25.5q-57 0 -75 48q-1 3 -4.5 4.5t-4.5 -0.5q-35 -25 -79 -42q-22 -8 -44 -8q-29 0 -53 30t-24 71q0 26 18 51q8 12 36 24q10 4 37.5 12.5t60 17.5t38.5 11q18 6 18 15q2 14 2 66v11q-1 22 -18.5 43t-48.5 21q-22 0 -32 -7q-6 -3 -6 -46q0 -5 -4 -9q-5 -5 -44 -22.5 t-44 -17.5q-4 0 -8.5 4.5t-4.5 9.5q0 42 84 96q25 16 56 26.5t44 10.5z"/>
<glyph glyph-name="uni0431" horiz-adv-x="486" unicode="б" d="M337 186q0 76 -25.5 128t-71.5 52q-36 0 -63 -31q-21 -25 -21 -94q0 -92 28.5 -156t75.5 -64q76 0 77 165zM450 683q-1 -30 -21.5 -65.5t-47.5 -52.5q-22 -10 -30 -12q-45 -11 -125 -22q-51 -9 -78.5 -35t-27.5 -86q0 -34 7 -59q0 -3 3.5 -4t4.5 1q26 25 63.5 42t74.5 17 q86 0 133 -56t47 -144q0 -103 -59 -161t-148 -58q-103 0 -155.5 74.5t-52.5 194.5q0 75 25 149t72 131q64 78 165 106q111 30 135 53q2 2 4 2q11 0 11 -15z"/>
<glyph glyph-name="uni0432" horiz-adv-x="465" unicode="в" d="M323 115q0 39 -36 64q-25 17 -63 17q-18 0 -27 -2q-5 -1 -7 -12q-2 -12 -2 -40q0 -6 0.5 -20t0.5 -21q0 -32 11 -49q6 -8 18.5 -15.5t20.5 -7.5q35 0 59.5 25.5t24.5 60.5zM303 295q0 25 -21.5 47.5t-60.5 22.5q-19 0 -27 -6q-5 -5 -6 -22q-1 -8 -1 -60q0 -34 1 -40 q1 -10 11 -10q45 0 64 7q40 15 40 61zM407 303q0 -55 -60 -83q-5 -2 2 -7q30 -8 48 -22q36 -29 36 -71q0 -38 -23.5 -65t-59.5 -40q-43 -16 -128 -16q-11 0 -33.5 0.5t-36.5 0.5q-2 0 -107 -3h-2q-10 0 -17.5 5t-7.5 11q0 9 25 15q17 4 25.5 11.5t10.5 14t3 21.5q4 28 4 132 q0 74 -1 113q-1 20 -7.5 28t-30.5 15q-22 5 -22 23q0 10 21 10q9 0 39 -1.5t40 -1.5q8 0 62.5 2.5t72.5 2.5q37 0 67 -6.5t55 -29t25 -59.5z"/>
<glyph glyph-name="uni0433" horiz-adv-x="369" unicode="г" d="M202 358q-7 0 -7 -7q0 -2 -0.5 -23.5t-0.5 -53.5v-57q0 -54 3 -144q1 -23 8.5 -30t33.5 -14q23 -7 23 -18q0 -5 -8 -9.5t-19 -4.5q-2 0 -18.5 0.5t-38.5 1.5t-39 1q-19 0 -51 -1.5t-39 -1.5q-30 0 -30 15q0 12 24 17q35 8 38 28q5 27 5 139t-1 124q-1 15 -6.5 24t-11 12 t-17.5 7q-25 9 -25 20q0 13 28 13q6 0 47 -1.5t53 -1.5h118q49 0 84 7q3 0 6 -3.5t3 -6.5q-3 -36 -3 -80v-22q0 -12 -4.5 -21.5t-12.5 -9.5q-11 0 -18 28q-18 71 -61 73q-3 0 -15.5 0.5t-19.5 0.5q-8 0 -17.5 -0.5t-10.5 -0.5z"/>
<glyph glyph-name="uni0434" horiz-adv-x="480" unicode="д" d="M290 45q-5 21 -34.5 110t-39.5 113q-2 5 -5 4t-4 -4q-7 -19 -26.5 -73t-33.5 -94t-18 -55q-2 -9 5 -9q1 0 34.5 -0.5t56.5 -0.5q48 0 60 2q7 1 5 7zM73 38q10 2 13 9q52 120 107 273l9 27q3 12 43 49q10 12 20 12q9 0 25 -42q98 -281 112 -311q6 -16 18 -16q13 -3 45 -3 q6 0 6 -9q0 -13 -13 -61t-16 -79q-5 -36 -24 -36q-15 0 -15 33v32q0 84 -47 84h-225q-15 0 -26 -10q-23 -21 -32 -108q-4 -31 -20 -31q-13 0 -17 27q-7 72 -7 146q0 11 8 11q18 0 36 3z"/>
<glyph glyph-name="uni0435" horiz-adv-x="414" unicode="е" d="M234 379q-31 0 -57.5 -25t-35.5 -60q-2 -10 7 -10h28h79q14 0 24.5 8.5t10.5 25.5q0 21 -17.5 41t-38.5 20zM241 407q65 0 107 -42q38 -36 38 -88q0 -6 -7 -15t-15 -9h-218q-9 0 -11 -7q-4 -11 -4 -36q0 -18 9 -46.5t22 -46.5q39 -50 111 -50q63 0 90 35q8 12 13 12 q3 0 6 -4.5t3 -8.5q0 -12 -8 -25q-56 -87 -160 -87q-84 0 -134.5 57t-50.5 144q0 62 33.5 116t93.5 82q40 19 82 19z"/>
<glyph glyph-name="uni0436" horiz-adv-x="681" unicode="ж" d="M293 217v89v19q-1 15 -6 24t-10 11.5t-16 5.5q-22 6 -22 18t24 12q2 0 32.5 -1.5t42.5 -1.5q18 0 46 1.5t35 1.5q26 0 26 -12q0 -10 -20 -15q-32 -9 -34 -38q0 -2 -0.5 -18.5t-1 -43t-0.5 -51.5q0 -6 6 -6q41 0 68 38q11 15 43 73q18 35 44 58t56 23q48 0 48 -42 q0 -18 -9.5 -34.5t-17.5 -16.5h-2q-4 1 -21.5 7t-29.5 6q-32 0 -49 -29q-30 -47 -38 -56q-2 -2 1 -5q16 -9 34 -36q9 -13 43 -65t49 -73q22 -28 61 -38q16 -4 16 -14q0 -18 -67 -18q-75 0 -113 53q-10 15 -63 95q-17 28 -27.5 39t-26.5 12q-4 0 -4 -8q0 -85 1 -112 q1 -22 8 -29.5t24 -11.5q25 -5 25 -16q0 -15 -26 -15q-11 0 -40 1.5t-46 1.5q-16 0 -43 -1.5t-37 -1.5q-9 0 -16.5 5t-7.5 10q0 10 26 17q27 7 30 26q4 24 4 127q0 6 -4 6h-1q-18 0 -39 -32q-26 -38 -78 -107q-44 -58 -115 -58q-63 0 -63 19q0 8 15 13q38 12 61 38 q16 19 49.5 65t40.5 55q26 33 44 43q4 2 0 6q-3 4 -46 67q-21 27 -48 27q-11 0 -29 -6t-20 -6q-11 -3 -21 6q-12 14 -12 40q0 20 14.5 33t44.5 13q51 0 84 -61q8 -15 18 -34.5t14.5 -27.5t11 -18.5t14.5 -20.5q24 -30 62 -30q4 0 4 5z"/>
<glyph glyph-name="uni0437" horiz-adv-x="397" unicode="з" d="M364 120q0 -63 -56 -97.5t-132 -34.5q-41 0 -107 22q-7 3 -14.5 10t-8.5 14q-6 17 -12 65v5q0 10 3 17t6 9.5t5 2.5q10 0 22 -25q46 -89 104 -89q30 0 53 24t23 69q0 30 -12 54t-38 24q-9 0 -24.5 -3.5t-25.5 -3.5q-36 0 -36 25q0 10 10.5 17t25.5 7q14 0 29 -2.5 t23 -2.5q14 0 26 16.5t12 43.5q0 38 -20 62.5t-52 24.5t-50 -21.5t-34 -61.5q-11 -24 -19 -24q-7 0 -11.5 7.5t-4.5 12.5q0 48 2 72q1 12 9 18q1 0 7 2t14.5 4t13.5 4q66 20 105 20q63 0 103 -27.5t40 -73.5q0 -59 -64 -86q-7 -2 1 -8q2 -1 3 -1q26 -10 40 -19 q41 -27 41 -72z"/>
<glyph glyph-name="uni0438" horiz-adv-x="538" unicode="и" d="M29 383q0 13 26 13q8 0 38 -1.5t46 -1.5q11 0 40.5 1.5t45.5 1.5q23 0 23 -11q0 -14 -23 -20q-10 -3 -16 -5.5t-9.5 -7.5t-4.5 -7t-1 -9l-1 -7q-3 -54 -3 -120q0 -12 0.5 -33t0.5 -29q2 -9 8 -3l136 153q15 16 15 28v12q0 21 -29 30q-17 6 -17 16q0 13 25 13 q9 0 35.5 -1.5t42.5 -1.5q12 0 38 2t40 2q25 0 25 -13q0 -12 -24 -19q-31 -10 -33 -35q0 -2 -0.5 -15.5t-0.5 -33.5v-39q0 -64 3 -169q0 -15 7 -24t13.5 -12t18.5 -6q24 -6 24 -19q0 -5 -7.5 -10t-15.5 -5q-12 0 -41.5 1.5t-45.5 1.5q-12 0 -45 -1.5t-52 -1.5q-25 0 -25 15 q0 11 24 17q33 10 35 34q5 67 5 193q0 4 -2.5 4.5t-4.5 -2.5q-112 -124 -142 -160q-10 -12 -10 -21v-15q0 -20 26 -30q23 -6 23 -16q0 -7 -8 -12.5t-18 -5.5q-3 0 -39.5 1t-49.5 1q-18 0 -43 -1.5t-32 -1.5q-28 0 -28 14q0 13 26 19q32 9 35 28q3 14 3 81v148v37 q-2 17 -8 24.5t-25 14.5q-24 9 -24 20z"/>
<glyph glyph-name="uni0439" horiz-adv-x="538" unicode="й" d="M265 468q-59 0 -92 28.5t-33 62.5q0 18 12.5 33.5t35.5 15.5q10 0 22 -10t12 -26q0 -5 -3.5 -18t-3.5 -17q0 -14 13.5 -24t42.5 -10q32 0 46 9t14 20q0 5 -5 19.5t-5 21.5q0 14 11.5 25.5t26.5 11.5q18 0 29 -12t11 -30q0 -51 -41 -75.5t-93 -24.5zM29 383q0 13 26 13 q8 0 38 -1.5t46 -1.5q11 0 40.5 1.5t45.5 1.5q23 0 23 -11q0 -14 -23 -20q-10 -3 -16 -5.5t-9.5 -7.5t-4.5 -7t-1 -9l-1 -7q-3 -54 -3 -120q0 -12 0.5 -33t0.5 -29q2 -9 8 -3l136 153q15 16 15 28v12q0 21 -29 30q-17 6 -17 16q0 13 25 13q9 0 35.5 -1.5t42.5 -1.5 q12 0 38 2t40 2q25 0 25 -13q0 -12 -24 -19q-31 -10 -33 -35q0 -2 -0.5 -15.5t-0.5 -33.5v-39q0 -64 3 -169q0 -15 7 -24t13.5 -12t18.5 -6q24 -6 24 -19q0 -5 -7.5 -10t-15.5 -5q-12 0 -41.5 1.5t-45.5 1.5q-12 0 -45 -1.5t-52 -1.5q-25 0 -25 15q0 11 24 17q33 10 35 34 q5 67 5 193q0 4 -2.5 4.5t-4.5 -2.5q-112 -124 -142 -160q-10 -12 -10 -21v-15q0 -20 26 -30q23 -6 23 -16q0 -7 -8 -12.5t-18 -5.5q-3 0 -39.5 1t-49.5 1q-18 0 -43 -1.5t-32 -1.5q-28 0 -28 14q0 13 26 19q32 9 35 28q3 14 3 81v148v37q-2 17 -8 24.5t-25 14.5 q-24 9 -24 20z"/>
<glyph glyph-name="uni043A" horiz-adv-x="486" unicode="к" d="M31 382q0 14 25 14q2 0 35.5 -1.5t46.5 -1.5q18 0 46.5 1.5t35.5 1.5q27 0 27 -13q0 -4 -6 -9.5t-15 -7.5q-22 -5 -28.5 -13t-7.5 -20q0 -2 -0.5 -18t-1 -41.5t-0.5 -50.5q0 -7 7 -7q43 0 67 36q5 8 49 83q41 70 95 70q23 0 36 -12t13 -32q0 -18 -12 -36t-22 -18 q-1 0 -3 1q-30 14 -48 14q-28 0 -50 -31q-10 -15 -24 -40q-3 -5 0 -8q71 -125 120 -181q24 -29 63 -41q15 -5 15 -10q0 -20 -67 -20q-81 0 -120 51q-24 31 -77 119q-17 26 -36 26q-6 0 -6 -7q0 -55 2 -109q1 -21 9 -29t25 -13q21 -7 21 -17q0 -6 -8 -10.5t-18 -4.5 q-11 0 -39 1.5t-45 1.5t-46 -1.5t-42 -1.5q-8 0 -16 5t-8 10q0 12 26 19q30 8 33 26q4 28 4 135v95q0 31 -1 37q0 16 -4 23.5t-8.5 10t-18.5 6.5q-23 8 -23 18z"/>
<glyph glyph-name="uni043B" horiz-adv-x="471" unicode="л" d="M124 64v-6q0 -12 6.5 -18t25.5 -13q21 -8 21 -16q0 -14 -27 -14q-11 0 -31 1.5t-33 1.5t-30.5 -1.5t-28.5 -1.5q-25 0 -25 14q0 11 23 16q20 7 31 17t25 36q17 34 96 235q5 14 9 27.5t5 14.5q2 5 18.5 19t21.5 20q14 14 19 14q10 0 15 -18q46 -122 135 -312 q11 -24 20.5 -34.5t29.5 -17.5q26 -8 26 -18q0 -14 -24 -14q-15 0 -47.5 2t-43.5 2t-46.5 -1.5t-47.5 -1.5q-28 0 -28 16q0 10 23 15q29 8 29 24q0 1 -0.5 2.5t-0.5 2.5q-9 29 -41 109t-45 107q-1 3 -4 3.5t-5 -3.5q-70 -189 -71 -209z"/>
<glyph glyph-name="uni043C" horiz-adv-x="600" unicode="м" d="M198 382q30 -74 106 -214q3 -4 7 2q11 19 52 106.5t47 108.5q2 9 10 9h57h10q13 0 34.5 1.5t33.5 1.5q22 0 22 -8q0 -16 -22 -21q-24 -7 -33 -16.5t-10 -31.5q-1 -15 -1 -62q0 -124 4 -188q1 -12 3.5 -18.5t10.5 -11.5t9.5 -5.5t15.5 -5.5q23 -6 23 -16q0 -16 -28 -16 q-16 0 -53 1.5t-46 1.5q-10 0 -35 -1.5t-37 -1.5q-30 0 -30 16q0 10 28 18q16 5 22 11t7 23q7 68 7 233q0 3 -4 2q-2 -1 -4 -5q-95 -217 -109 -256q-4 -12 -13 -23t-16 -11q-12 0 -20 29q-13 34 -109 258q-2 3 -5 3t-3 -3q-4 -108 -4 -167q0 -36 1 -47q2 -21 11.5 -32 t36.5 -18q22 -7 22 -17q0 -14 -26 -14q-8 0 -32 1.5t-34 1.5q-18 0 -40.5 -1.5t-30.5 -1.5q-23 0 -23 13q0 10 22 17q42 11 48 56q16 107 16 243q0 30 -47 43q-23 6 -23 17q0 13 27 13q12 0 44 -2.5t51 -2.5q9 0 22.5 -0.5t15.5 -0.5q10 0 12 -11z"/>
<glyph glyph-name="uni043D" horiz-adv-x="531" unicode="н" d="M510 11q0 -15 -25 -15q-13 0 -49 2t-47 2t-38.5 -1t-42.5 -1q-27 0 -27 15q0 10 28 18q13 3 20.5 10t8.5 14q3 25 3 119q0 12 -8 12l-131 -1q-9 0 -10 -19v-20q0 -40 2 -76q1 -34 24 -39q25 -8 25 -18q0 -6 -7.5 -11t-21.5 -5q-2 0 -31 1.5t-42 1.5q-18 0 -52 -1.5 t-41 -1.5q-24 0 -24 17q0 11 25 17q25 7 32 23q5 19 5 135v108v27q-1 19 -7 26t-27 14q-23 8 -23 19q0 13 25 13q12 0 43.5 -1.5t42.5 -1.5q16 0 39 1.5t38 1.5q25 0 25 -13q0 -10 -20 -18q-18 -6 -23 -13t-6 -21q-1 -31 -1 -100q3 -8 8 -8h132q2 0 5.5 3t3.5 6q0 6 0.5 25 t0.5 30q0 12 -0.5 27t-0.5 16q-1 17 -6.5 23.5t-18.5 11.5q-24 10 -24 20q0 11 26 11q8 0 35.5 -1.5t40.5 -1.5q17 0 43 1.5t39 1.5q27 0 27 -12q0 -11 -22 -18q-12 -4 -18.5 -7t-10 -10t-4 -10.5t-2.5 -16.5q-1 -9 -1 -120q0 -86 3 -132q1 -18 9.5 -25t29.5 -15 q23 -7 23 -19z"/>
<glyph glyph-name="uni043E" horiz-adv-x="504" unicode="о" d="M242 374q-26 0 -49 -22q-41 -37 -41 -131q0 -59 12 -96q15 -50 45.5 -77t63.5 -27q22 0 44 25q37 48 37 137q0 94 -40 151q-31 40 -72 40zM261 407q81 0 146 -58t65 -150q0 -58 -27.5 -103t-61.5 -67q-58 -41 -138 -41q-34 0 -72 14.5t-66 37.5q-33 27 -54 69.5t-21 84.5 q0 97 69 155q67 58 160 58z"/>
<glyph glyph-name="uni043F" horiz-adv-x="529" unicode="п" d="M391 393q17 0 43.5 1.5t39.5 1.5q27 0 27 -12t-22 -18q-17 -5 -24.5 -11.5t-8.5 -10.5t-3 -19q-1 -8 -1 -115q0 -90 3 -138q1 -20 9 -27t30 -15q23 -7 23 -19q0 -6 -7.5 -10.5t-16.5 -4.5q-11 0 -48.5 2t-48.5 2q-12 0 -39 -1t-43 -1q-27 0 -27 14q0 11 32 19q26 7 26 33 q0 10 0.5 31.5t1 56.5t0.5 61q0 103 -3 131q0 12 -9 13h-24q-16 0 -47.5 -0.5t-47.5 -0.5q-10 0 -11 -13q-2 -22 -4 -139v-45q0 -78 1 -89q1 -32 24 -39q23 -6 23 -18q0 -16 -27 -16q-2 0 -32 1.5t-43 1.5q-18 0 -50.5 -1.5t-39.5 -1.5q-25 0 -25 17q0 10 26 17 q16 4 21.5 9.5t8.5 14.5q6 21 8 148q1 40 1 99v22q-1 19 -8 26.5t-28 14.5q-22 6 -22 17q0 14 26 14q21 0 87 -3h249z"/>
<glyph glyph-name="uni0440" horiz-adv-x="514" unicode="р" d="M250 346q-31 0 -53 -12q-9 -10 -11 -26q-5 -35 -5 -112q0 -47 1 -66q0 -28 10 -46q15 -26 39.5 -41.5t42.5 -15.5t33 12q34 25 47.5 70.5t13.5 80.5q0 72 -42 119q-15 17 -38 27t-38 10zM319 405q29 0 60.5 -16t52.5 -40q49 -56 49 -131q0 -107 -86 -174 q-65 -51 -154 -51q-31 0 -49 3q-3 1 -5.5 -4.5t-2.5 -9.5v-27q0 -85 4 -121q3 -23 11.5 -34.5t36.5 -19.5q27 -8 27 -21q0 -14 -28 -14q-13 0 -63.5 2.5t-69.5 2.5q-10 0 -33.5 -1.5t-47.5 -1.5q-29 0 -29 16q0 11 26 18q35 7 44 21.5t11 59.5q4 70 4 213v119q0 79 -1 98 q-1 23 -8 28q-37 30 -37 36q0 4 6.5 12t14.5 11q73 22 102 39q15 9 20 9q3 0 7.5 -5t4.5 -9q0 -1 -3 -47q0 -3 3 -5.5t5 -1.5q28 19 59 32q34 14 69 14z"/>
<glyph glyph-name="uni0441" horiz-adv-x="414" unicode="с" d="M273 402q25 0 55 -6t43 -16q17 -12 17 -36q0 -12 -16.5 -29.5t-22.5 -17.5q-17 0 -46 25q-3 2 -11 9t-11.5 9.5t-10 7.5t-11 7t-11 5t-12.5 4t-12 1q-22 0 -43 -22q-39 -41 -39 -122q0 -67 32 -105q39 -54 109 -54q43 0 96 33q4 3 8.5 0.5t4.5 -8.5q0 -15 -16 -31 q-27 -29 -68.5 -48t-85.5 -19q-52 0 -93 23t-64 57q-33 51 -33 116q0 109 100 174q26 18 68 30.5t73 12.5z"/>
<glyph glyph-name="uni0442" horiz-adv-x="417" unicode="т" d="M205 0q-10 0 -44.5 -1.5t-52.5 -1.5q-25 0 -25 12t24 19q42 11 44 33q5 75 5 167v118q0 9 -8 10q-26 2 -46 2q-33 0 -53 -57q-12 -28 -24 -28t-12 28q0 19 3.5 49t3.5 40q-1 4 3.5 9.5t7.5 5.5l19 -7q10 -5 63 -5h196q53 0 69 6q14 6 19 6q9 0 9 -15q-2 -14 -2 -42 q0 -7 0.5 -23t0.5 -25q0 -13 -5.5 -21t-12.5 -8q-11 0 -17 26q-14 61 -51 61q-36 0 -50 -2q-6 -1 -8 -15v-35v-91q0 -106 4 -143q2 -21 9 -29t29 -14q23 -7 23 -16q0 -6 -8 -11t-17 -5q-19 0 -53 1.5t-43 1.5z"/>
<glyph glyph-name="uni0443" horiz-adv-x="426" unicode="у" d="M-13 385q0 4 6.5 8t17.5 4q18 0 51.5 -2t47.5 -2q17 0 46.5 1t34.5 1q24 0 24 -12q0 -11 -24 -18t-24 -20q0 -6 5 -21q10 -34 37.5 -99.5t39.5 -89.5q5 -7 10 3q61 147 72 182q2 10 2 13q0 22 -40 34q-21 5 -21 15q0 13 25 13q10 0 31.5 -1t27.5 -1t31 2t39 2 q21 0 21 -11q0 -12 -24 -19q-29 -8 -52 -49q-32 -65 -113 -268l-108 -272q-6 -15 -23.5 -24.5t-33.5 -9.5q-26 0 -39.5 17t-13.5 38q0 15 12 32t33 17q2 0 21 -0.5t25 -0.5q11 0 18 17q12 21 44 113q4 15 1 21q-6 11 -17 43q-72 180 -123 287q-9 17 -17 24.5t-27 13.5 q-23 7 -23 19z"/>
<glyph glyph-name="uni0444" horiz-adv-x="625" unicode="ф" d="M261 36l1 25v65v75v75v66l-1 25q0 8 -6 8q-105 -17 -105 -155q0 -86 32.5 -133t72.5 -60q6 -1 6 9zM475 184q0 80 -31.5 129.5t-74.5 58.5q-3 1 -4 -2t-1 -7v-99v-233q0 -8 5 -8q1 0 8 1.5t10 2t9.5 2t10.5 3.5t10.5 5t10.5 6.5t9 8.5t9 11q29 43 29 121zM591 203 q0 -105 -75 -163q-54 -42 -145 -52q-7 -1 -7 -10q0 -101 4 -143q2 -17 4 -24.5t11.5 -16t28.5 -13.5q27 -7 27 -20q0 -14 -24 -14q-14 0 -47 1.5t-52 1.5q-12 0 -50 -2t-58 -2q-30 0 -30 15q0 11 26 18q33 9 43.5 23.5t12.5 66.5q2 31 2 110q0 9 -6 9q-90 5 -155.5 58 t-65.5 150q0 126 107 180q53 27 114 32q5 0 5 7q0 104 -4 134q-1 13 -28 23q-25 10 -25 16q0 4 4 11t9 8q15 4 41 11.5t43.5 13t27.5 9.5l26 11q11 0 11 -18q-3 -120 -3 -217q0 -9 5 -9q38 -2 74 -13.5t71 -34t56.5 -63t21.5 -94.5z"/>
<glyph glyph-name="uni0445" horiz-adv-x="434" unicode="х" d="M9 386q0 13 28 13q7 0 46 -3t63 -3q12 0 32.5 1t28.5 1q22 0 22 -12q0 -11 -18 -17q-17 -7 -17 -18q0 -6 18 -36.5t31 -48.5q1 -2 3 -2t3 2q34 42 49 70q6 9 6 15q0 10 -15 15q-29 10 -29 20q0 12 20 12q5 0 25.5 -1t30.5 -1q14 0 43 2.5t37 2.5q22 0 22 -11 q0 -9 -19 -16q-53 -13 -85 -50q-27 -30 -69 -84q-3 -3 -1 -7q15 -35 89 -151q29 -40 69 -51q25 -6 25 -17q0 -15 -25 -15q-6 0 -57.5 2t-67.5 2q-10 0 -31 -1.5t-32 -1.5q-8 0 -15 4.5t-7 9.5q0 11 22 17q20 5 20 15q0 8 -9 23q-39 67 -46 77q-3 5 -7 1q-57 -70 -57 -89 t32 -31q14 -4 14 -15t-22 -11q-12 0 -26 1t-21 1q-19 0 -46.5 -2t-38.5 -2q-31 0 -31 12q0 10 24 18q38 10 72 42q29 30 84 105q3 4 -1 11q-11 30 -74 129q-29 44 -64 53q-28 9 -28 20z"/>
<glyph glyph-name="uni0446" horiz-adv-x="532" unicode="ц" d="M29 383q0 13 25 13q6 0 42 -1.5t48 -1.5q17 0 43.5 1.5t35.5 1.5q21 0 21 -11q0 -12 -21 -18q-18 -5 -24 -17t-6 -40q0 -15 -0.5 -51.5t-0.5 -55.5l1 -151q0 -14 10 -16q112 0 125 1q11 0 11 19q1 44 1 146v86v37q0 11 -2 18.5t-7 12t-7.5 5.5t-9.5 4q-22 8 -22 20 q0 11 24 11q5 0 33.5 -1.5t40.5 -1.5q18 0 49 1.5t39 1.5q26 0 26 -12q0 -13 -23 -18q-33 -10 -34 -35q-2 -50 -2 -129q0 -54 1 -97t1 -44q0 -23 15 -23q6 0 21 0.5t23 0.5q7 0 7 -10q0 -1 -1 -3v-1q0 -2 -9 -34t-14.5 -58.5t-7.5 -52.5q-1 -16 -9.5 -26.5t-17.5 -10.5 q-15 0 -15 29q0 7 0.5 19t0.5 17q0 92 -50 92h-266q-18 0 -42.5 -1.5t-31.5 -1.5q-9 0 -18 4t-9 10q0 13 26 20q16 4 24 11t9 12.5t2 17.5q2 28 2 129v44q0 49 -1 77q-1 22 -7 29t-22 12q-27 8 -27 20z"/>
<glyph glyph-name="uni0447" horiz-adv-x="469" unicode="ч" d="M444 10q0 -4 -7 -8.5t-19 -4.5q-9 0 -39 1.5t-53 1.5q-17 0 -48 -1.5t-43 -1.5q-9 0 -16.5 4t-7.5 9q0 12 25 18q34 9 39 25q5 25 5 132q-2 7 -7 5q-44 -24 -103 -24q-54 0 -86 26q-31 25 -31 77v64q0 13 -6.5 19t-21.5 11q-25 8 -25 21q0 12 28 12q15 0 37.5 -1.5 t32.5 -1.5q16 0 45 1.5t36 1.5q27 0 27 -13q0 -10 -25 -19q-12 -4 -16 -11.5t-6 -25.5q-1 -16 -1 -54q0 -29 21 -45t49 -16q30 0 44 8q8 5 8 15q0 89 -1 99q-2 24 -24 31q-23 9 -23 19q0 12 23 12q10 0 40 -1.5t41 -1.5q18 0 46.5 1.5t35.5 1.5q23 0 23 -12t-24 -19 q-20 -5 -25 -12t-6 -19q0 -3 -0.5 -19.5t-1 -42.5t-0.5 -51q0 -115 1 -150q1 -19 8.5 -26t30.5 -15q20 -8 20 -20z"/>
<glyph glyph-name="uni0448" horiz-adv-x="757" unicode="ш" d="M28 383q0 13 25 13q7 0 43.5 -1.5t47.5 -1.5q18 0 44 1.5t33 1.5q23 0 23 -11q0 -13 -23 -19q-18 -6 -23.5 -17.5t-5.5 -43.5q-1 -5 -1 -86q0 -151 3 -169q2 -12 12 -14q82 0 106 1q8 0 11 11q4 23 4 159q0 51 -2 117q0 22 -5 29t-18 11q-24 10 -24 20q0 12 23 12 q6 0 39.5 -1.5t45.5 -1.5q18 0 39.5 1.5t28.5 1.5q25 0 25 -12q0 -14 -23 -20q-14 -4 -18.5 -14.5t-6.5 -37.5q-1 -23 -1 -105q0 -108 2 -152q0 -5 5 -11t9 -6q48 -2 104 -2q13 0 14 15q2 38 2 153v63q0 40 -1 59q-1 20 -4 27t-15 11q-24 9 -24 19q0 13 27 13q5 0 31.5 -1.5 t38.5 -1.5q18 0 49.5 1.5t38.5 1.5q23 0 23 -11q0 -13 -22 -18q-33 -9 -34 -38q-4 -88 -4 -144q0 -72 2 -112q2 -18 8 -27t27 -15q11 -3 16 -5t9 -5.5t4 -9.5q0 -14 -26 -14q-10 0 -40 1.5t-43 1.5h-353h-150q-15 0 -39.5 -1.5t-34.5 -1.5q-9 0 -18 4t-9 10q0 13 26 20 q23 5 29 14t7 27q0 1 0.5 30t0.5 49q0 101 -2 171q-1 22 -6.5 28.5t-23.5 12.5q-26 10 -26 20z"/>
<glyph glyph-name="uni0449" horiz-adv-x="757" unicode="щ" d="M124 0q-15 0 -39.5 -1.5t-34.5 -1.5q-9 0 -18 4t-9 10q0 13 26 20q23 5 29 14t7 27q0 1 0.5 30t0.5 49q0 101 -2 171q-1 22 -6.5 28.5t-23.5 12.5q-26 10 -26 20q0 13 25 13q7 0 43.5 -1.5t47.5 -1.5q18 0 44 1.5t33 1.5q23 0 23 -11q0 -13 -23 -19q-18 -6 -23.5 -17.5 t-5.5 -43.5q-1 -28 -1 -88q0 -10 1 -75.5t2 -89.5q2 -14 12 -16q82 0 106 1q6 0 11 11q4 17 4 159q0 51 -2 117q0 22 -5 29t-18 11q-24 10 -24 20q0 12 23 12q6 0 39.5 -1.5t45.5 -1.5q18 0 39.5 1.5t28.5 1.5q25 0 25 -12q0 -14 -23 -20q-14 -4 -18.5 -14.5t-6.5 -37.5 q-1 -23 -1 -105q0 -108 2 -152q0 -17 14 -17q48 -2 104 -2q13 0 14 15q2 38 2 153v63q0 40 -1 59q-1 20 -4 27t-15 11q-24 9 -24 19q0 13 27 13q5 0 31.5 -1.5t38.5 -1.5q18 0 49.5 1.5t38.5 1.5q23 0 23 -11q0 -13 -22 -18q-33 -9 -34 -38q-4 -88 -4 -144q0 -43 1 -80 t1 -41q2 -25 16 -25h46q8 0 8 -11v-2l-1 -2q-28 -117 -31 -149q-1 -17 -9 -26t-17 -9q-15 0 -15 25v7v30q0 98 -51 98h-347h-147z"/>
<glyph glyph-name="uni044A" horiz-adv-x="508" unicode="ъ" d="M369 123q0 36 -21.5 60.5t-57.5 24.5q-18 0 -26 -3q-6 -2 -6 -10q0 -7 -0.5 -28.5t-0.5 -33.5q0 -47 2 -64q1 -18 14.5 -29.5t25.5 -11.5q25 0 45 20q12 12 18.5 35.5t6.5 39.5zM475 125q0 -61 -50.5 -93.5t-134.5 -32.5q-5 0 -35.5 0.5t-43.5 0.5q-12 0 -51.5 -2 t-43.5 -2q-28 0 -28 16q0 11 25 18q35 10 38 30q5 52 5 152v107v21q0 13 -7 15q-15 4 -38 4q-24 0 -38.5 -12.5t-24.5 -45.5q-9 -29 -21 -29q-14 0 -14 26v5q1 13 4 42.5t3 44.5q-1 4 3 10t8 6q2 0 3 -1q21 -12 70 -12h105q18 0 46 1.5t35 1.5q28 0 28 -13q0 -12 -25 -18 q-20 -5 -26 -10.5t-8 -24.5q-1 -9 -1 -85q0 -3 2 -6t4 -2q18 3 55 3q156 0 156 -115z"/>
<glyph glyph-name="uni044B" horiz-adv-x="659" unicode="ы" d="M299 123q0 36 -22.5 60.5t-57.5 24.5q-8 0 -23 -3q-8 -2 -8 -11v-48q0 -57 2 -76q1 -19 15 -31t24 -12q22 0 42 18q13 12 20.5 35.5t7.5 42.5zM405 125q0 -61 -50.5 -93.5t-134.5 -32.5q-5 0 -35.5 0.5t-42.5 0.5t-51.5 -2t-42.5 -2q-28 0 -28 16q0 11 24 18 q21 6 27.5 12.5t8.5 17.5q6 42 6 147q0 103 -1 115q-1 21 -7.5 29t-23.5 13q-22 4 -22 19q0 13 26 13q2 0 35.5 -1.5t46.5 -1.5q12 0 41.5 1.5t39.5 1.5q27 0 27 -13q0 -12 -24 -18q-22 -6 -27.5 -11.5t-7.5 -24.5q-1 -9 -1 -84q0 -4 1.5 -6.5t5.5 -1.5q22 3 53 3 q157 0 157 -115zM636 11q0 -15 -25 -15q-11 0 -48.5 2t-47.5 2q-12 0 -39 -1t-43 -1q-27 0 -27 14q0 12 29 19q29 8 31 26q4 38 4 145q0 112 -2 128q-1 25 -27 35q-24 7 -24 19t25 12q8 0 38.5 -1.5t43.5 -1.5q17 0 43 1.5t39 1.5q27 0 27 -12q0 -11 -22 -18q-7 -2 -12.5 -4 t-9 -5t-5.5 -4.5t-3 -6t-1.5 -6t-1.5 -7.5t-1 -8q-3 -39 -3 -122v-75q0 -40 1 -57q0 -13 5.5 -21.5t12 -11.5t20.5 -8q23 -8 23 -19z"/>
<glyph glyph-name="uni044C" horiz-adv-x="434" unicode="ь" d="M299 123q0 36 -22.5 60.5t-57.5 24.5q-8 0 -23 -3q-8 -2 -8 -11v-48q0 -57 2 -76q1 -19 15 -30.5t24 -11.5q23 0 43 18q12 12 19.5 35.5t7.5 41.5zM405 125q0 -61 -50.5 -93.5t-134.5 -32.5q-5 0 -35.5 0.5t-42.5 0.5t-51.5 -2t-42.5 -2q-10 0 -19.5 4.5t-9.5 11.5 q0 11 25 18q21 6 27.5 12.5t8.5 17.5q6 42 6 147v97v18q-1 21 -7.5 29t-24.5 13q-22 4 -22 19q0 13 26 13q2 0 35.5 -1.5t46.5 -1.5q12 0 41.5 1.5t39.5 1.5q27 0 27 -13q0 -12 -24 -18q-22 -6 -27.5 -11.5t-7.5 -24.5q-1 -9 -1 -84q0 -4 1.5 -6.5t5.5 -1.5q22 3 53 3 q157 0 157 -115z"/>
<glyph glyph-name="uni044D" horiz-adv-x="422" unicode="э" d="M202 27q22 0 38.5 15t25 38.5t12.5 47t4 46.5q0 8 -6 8q-53 0 -74 -1q-78 -2 -96 -5q-6 0 -6 9q0 12 18.5 26t39.5 14q24 0 65 -3t50 -3q7 0 5 8q-8 59 -39 92.5t-75 33.5q-32 0 -54 -10t-52 -33q-8 -6 -14 -5.5t-6 6.5q0 13 13 30q23 28 64 48.5t88 20.5q81 0 134 -56.5 t53 -141.5q0 -124 -101 -187q-59 -37 -128 -37q-77 0 -113 42q-19 23 -19 52q0 14 5.5 21.5t12.5 7.5q6 0 36 -30q54 -54 119 -54z"/>
<glyph glyph-name="uni044E" horiz-adv-x="707" unicode="ю" d="M462 374q-22 0 -38 -17t-23.5 -43.5t-11 -50.5t-3.5 -46q0 -91 27.5 -143t68.5 -52q29 0 49 29q28 39 28 135q0 37 -8 77t-31 75.5t-58 35.5zM192 174v-17q0 -45 2 -87q1 -22 7.5 -29t25.5 -13q24 -6 24 -17q0 -5 -6.5 -9.5t-14.5 -4.5q-2 0 -40.5 1.5t-50.5 1.5 q-19 0 -52.5 -1.5t-40.5 -1.5q-8 0 -15.5 4.5t-7.5 9.5q0 13 25 19q28 8 33 25q5 20 5 156q0 99 -1 112q-1 21 -8 28.5t-25 11.5q-24 7 -24 20q0 4 7.5 8.5t15.5 4.5q5 0 42 -1.5t49 -1.5q18 0 46 1.5t37 1.5q22 0 22 -12q0 -14 -25 -20q-13 -4 -20 -10.5t-8 -11t-2 -13.5 q-2 -24 -2 -55q0 -8 0.5 -22t0.5 -18q0 -9 8 -9l68 1q5 0 7 7q12 77 70.5 125.5t134.5 48.5q79 0 137.5 -56.5t58.5 -151.5q0 -60 -24 -103t-55 -66q-54 -42 -126 -42q-75 0 -132 52.5t-66 134.5q0 9 -7 9l-66 -2q-7 0 -7 -8z"/>
<glyph glyph-name="uni044F" horiz-adv-x="491" unicode="я" d="M303 219v33q0 66 -1 91q0 20 -7 20q-11 3 -23 3q-34 0 -57.5 -18.5t-23.5 -52.5q0 -39 30 -60.5t77 -22.5q5 0 5 7zM441 395q26 -2 26 -9q0 -18 -24 -22q-16 -4 -24 -10.5t-9 -10.5t-2 -13q0 -2 -0.5 -17t-1 -40t-0.5 -50q0 -80 2 -150q0 -5 1 -9t1.5 -7t2.5 -6l3 -4.5 t4 -3.5t4 -3t4.5 -2.5t4.5 -2t5.5 -2t5.5 -1.5q25 -8 25 -21q0 -5 -8 -9.5t-18 -4.5q-2 0 -49 1.5t-59 1.5q-18 0 -38.5 -1.5t-27.5 -1.5q-29 0 -29 15q0 11 24 17q33 9 37 30q2 12 2 119q0 8 -5 8q-22 0 -54 -44q-13 -18 -34.5 -48t-32.5 -45q-23 -30 -49.5 -43.5 t-72.5 -13.5h-11q-23 0 -30 3q-19 5 -19 14q0 7 18 13q21 6 42 24t62 72q43 54 67 68q1 2 0 3q-50 11 -77 37.5t-27 61.5q0 108 174 108q20 0 61.5 -1t57.5 -1h16q11 0 28.5 0.5t23.5 0.5z"/>
<glyph glyph-name="uni0450" horiz-adv-x="414" unicode="ѐ" d="M184 656q14 0 27 -35q11 -24 49 -146q3 -11 3 -19q0 -14 -8 -14q-14 0 -25 16q-53 68 -97 146q-8 16 -6 27q3 11 24 19q14 6 33 6zM234 379q-31 0 -57.5 -25t-35.5 -60q-2 -10 7 -10h28h79q14 0 24.5 8.5t10.5 25.5q0 21 -17.5 41t-38.5 20zM241 407q65 0 107 -42 q38 -36 38 -88q0 -6 -7 -15t-15 -9h-218q-9 0 -11 -7q-4 -11 -4 -36q0 -18 9 -46.5t22 -46.5q39 -50 111 -50q63 0 90 35q8 12 13 12q3 0 6 -4.5t3 -8.5q0 -12 -8 -25q-56 -87 -160 -87q-84 0 -134.5 57t-50.5 144q0 62 33.5 116t93.5 82q40 19 82 19z"/>
</font>
</defs>
</svg>
