<?xml version="1.0" standalone="no"?>
<!DOCTYPE svg PUBLIC "-//W3C//DTD SVG 1.1//EN" "http://www.w3.org/Graphics/SVG/1.1/DTD/svg11.dtd" >
<svg xmlns="http://www.w3.org/2000/svg" xmlns:xlink="http://www.w3.org/1999/xlink" version="1.1">
<metadata>
Created by FontForge 20150913 at Tue Apr  5 14:03:58 2016
 By Jimmy Wärting
Copyright 2005, 2007 Adobe Systems Incorporated. All rights reserved.
</metadata>
<defs>
<font id="GaramondPremrPro-SmbdIt" horiz-adv-x="536" >
  <font-face 
    font-family="Garamond Premier Pro"
    font-weight="600"
    font-style="italic"
    font-stretch="normal"
    units-per-em="1000"
    panose-1="2 2 6 2 5 5 6 9 4 3"
    ascent="725"
    descent="-275"
    x-height="407"
    cap-height="637"
    bbox="-246.015 -418 1599 932.269"
    underline-thickness="50"
    underline-position="-100"
    slope="-18"
    stemh="30"
    stemv="110"
    unicode-range="U+0020-FB06"
  />
<missing-glyph horiz-adv-x="500" 
d="M0 0v700h500v-700h-500zM250 395l170 255h-340zM280 350l170 -255v510zM80 50h340l-170 255zM50 605v-510l170 255z" />
    <glyph glyph-name="T_h" unicode="Th" horiz-adv-x="1050" 
d="M1017 335c0 -96 -57 -212 -86 -253c-24 -31 -67 -56 -91 -73c-19 -13 -48 -29 -62 -29c-29 0 -47 12 -47 35c0 7 16 26 22 33c3 5 9 5 11 4c16 -11 36 -22 47 -22c8 0 14 4 22 18c40 74 76 208 76 259c0 26 -9 42 -24 42c-29 0 -57 -26 -125 -116
c-44 -62 -108 -176 -129 -217c-11 -20 -30 -29 -39 -29c-13 0 -29 7 -36 16c-6 7 -6 18 -5 24c25 93 120 391 169 554c2 5 -5 14 -9 14c-27 3 -162 7 -197 5c-4 0 -14 -7 -16 -12c-23 -60 -114 -374 -136 -474c-14 -63 -2 -78 60 -88c14 -3 25 -8 25 -15
c0 -9 -13 -15 -31 -15s-67 4 -125 4c-67 0 -148 -5 -166 -5c-19 0 -30 7 -30 12c0 7 14 15 27 16c76 12 91 24 117 98c42 124 121 391 141 467c1 6 -1 11 -7 12c-40 2 -93 1 -125 -3c-37 -5 -81 -42 -108 -83c-13 -20 -23 -22 -30 -22s-7 9 -4 18c5 19 39 72 55 131
c1 5 14 14 20 14c1 0 5 -2 8 -6c1 -5 13 -13 43 -15c26 -1 88 -1 153 -1h224c72 0 110 3 124 7c8 3 11 6 19 21c10 18 67 25 86 25c10 0 22 -7 18 -19c-49 -151 -138 -398 -143 -416c-4 -9 7 -10 12 -3c42 49 91 98 128 123c40 26 73 36 100 36c50 0 64 -51 64 -72z" />
    <glyph glyph-name="f_b" unicode="fb" horiz-adv-x="742" 
d="M439 706c33 0 68 -8 90 -24c3 -2 9 -6 13 -1c6 6 29 24 37 24c7 0 12 -16 7 -30c-24 -47 -118 -301 -151 -402c-1 -4 6 -6 8 -2c55 72 132 136 193 136c51 0 84 -40 84 -88c0 -102 -92 -236 -195 -297c-50 -29 -98 -38 -123 -38c-53 0 -108 32 -108 107
c0 23 19 93 43 166c18 55 97 285 117 336c8 21 11 43 4 53c-12 18 -32 28 -48 28c-29 0 -54 -14 -81 -49c-39 -56 -65 -125 -93 -220c-1 -4 2 -10 5 -10c25 0 54 1 79 1c5 0 14 -6 14 -9c0 -13 -18 -26 -29 -26c-23 -2 -47 -3 -75 -4c-4 0 -8 -5 -12 -11
c-25 -88 -82 -298 -112 -398c-29 -100 -79 -152 -132 -185c-37 -22 -80 -35 -107 -35c-52 0 -79 30 -79 53c0 20 20 43 38 53c7 5 22 5 24 1c29 -38 55 -62 77 -62s40 33 65 126c31 108 72 259 124 437c3 9 -1 17 -5 17h-53c-13 0 -17 7 -17 12c1 5 11 23 27 24
c10 2 48 2 56 3c5 1 9 6 11 11c51 135 108 246 219 287c31 11 57 16 85 16zM592 359c-48 0 -97 -67 -138 -132c-48 -78 -68 -147 -68 -169c0 -17 15 -42 32 -42c12 0 38 14 61 37c64 65 139 213 139 276c0 14 -9 30 -26 30z" />
    <glyph glyph-name="f_f" unicode="ff" horiz-adv-x="535" 
d="M413 676c55 0 83 -16 102 -36c2 -2 7 -2 10 2c31 31 86 64 142 64c52 0 81 -30 80 -60c0 -25 -9 -40 -20 -53c-11 -12 -36 -20 -42 -20c-4 0 -13 4 -10 12c2 9 2 27 2 41c0 23 -12 49 -36 49c-32 0 -57 -31 -84 -90c-23 -49 -40 -104 -60 -172c-2 -7 1 -11 6 -11l88 4
c6 0 10 -5 10 -11s-14 -24 -23 -25c-28 -3 -66 -5 -89 -6c-5 0 -7 -4 -11 -12c-42 -150 -90 -313 -116 -391c-25 -79 -76 -128 -120 -156c-37 -23 -105 -49 -141 -49c-39 0 -80 17 -98 41c-22 -24 -96 -69 -139 -69c-59 0 -80 31 -79 49c1 19 13 42 32 55c10 6 23 7 26 4
c30 -30 60 -56 81 -56c24 0 35 25 53 70c19 53 94 314 145 493c2 6 -1 8 -8 8l-64 -2c-7 0 -8 3 -8 7c1 15 16 30 23 30c16 2 44 5 61 5c6 0 9 3 11 10c28 75 66 172 153 234c30 21 89 41 123 41zM246 395l137 5c6 0 12 7 13 12c20 50 35 100 69 155c4 5 4 15 3 17
c-14 41 -57 60 -79 60c-34 0 -68 -32 -96 -90c-21 -44 -42 -107 -55 -153c-1 -3 1 -6 8 -6zM372 361l-140 -6c-3 0 -8 -3 -10 -7c-30 -108 -78 -269 -104 -364c-18 -66 -46 -113 -54 -127c-3 -5 -1 -11 2 -15c19 -26 58 -41 87 -41c34 0 66 18 95 111c34 109 74 249 129 436
c1 6 2 13 -5 13z" />
    <glyph glyph-name="f_f_b" unicode="ffb" horiz-adv-x="1005" 
d="M694 706c33 0 76 -12 97 -26c4 -2 8 -2 10 1c6 6 31 25 39 25c7 0 13 -15 8 -29c-24 -48 -117 -303 -150 -404c-2 -4 5 -6 7 -2c55 72 133 136 193 136c52 0 84 -40 84 -88c0 -102 -92 -236 -195 -297c-49 -29 -98 -38 -123 -38c-53 0 -107 32 -107 107
c0 23 20 93 42 165c18 55 99 287 119 337c9 26 10 43 2 54c-12 17 -33 28 -48 28c-30 0 -57 -12 -83 -48c-39 -56 -64 -124 -91 -217c-1 -4 2 -9 5 -9c21 0 59 1 82 2c4 0 8 -7 8 -11c0 -12 -10 -25 -23 -26c-21 -2 -61 -4 -78 -4c-4 0 -9 -4 -12 -11
c-43 -153 -88 -308 -113 -386c-26 -79 -78 -131 -123 -160c-37 -23 -106 -50 -142 -50c-39 0 -81 17 -100 41c-22 -24 -90 -68 -137 -68c-62 0 -81 32 -80 48c1 17 13 43 33 56c11 6 24 6 27 4c27 -26 57 -55 78 -55c24 0 38 24 55 69c16 48 93 314 144 493c2 6 -1 9 -8 9
c-14 -1 -37 -1 -65 -1c-7 0 -8 3 -8 7c1 15 15 29 22 29c16 2 47 3 63 3c6 0 9 4 11 11c32 81 67 171 155 234c30 21 80 41 123 41c55 0 81 -14 103 -36c2 -2 6 -2 10 1c38 30 90 65 166 65zM247 395l138 3c8 0 9 4 12 13c20 50 39 104 73 159c4 6 5 13 4 15
c-15 41 -58 58 -81 58c-35 0 -70 -28 -99 -89c-21 -44 -43 -110 -55 -152c-1 -3 0 -7 8 -7zM372 360l-138 -5c-4 0 -9 -3 -11 -7c-31 -108 -79 -270 -105 -365c-18 -66 -45 -111 -53 -125c-3 -4 -2 -11 1 -15c18 -25 56 -42 92 -42c32 0 66 23 95 115c33 109 72 249 127 435
c2 6 -1 9 -8 9zM855 359c-49 0 -97 -67 -138 -132c-49 -78 -69 -147 -69 -169c0 -17 15 -42 32 -42c12 0 38 14 62 37c63 65 139 213 139 276c0 14 -9 30 -26 30z" />
    <glyph glyph-name="f_f_h" unicode="ffh" horiz-adv-x="1043" 
d="M415 676c50 0 84 -14 106 -32c1 -2 7 -1 9 1c39 29 88 61 164 61c33 0 72 -11 93 -25c2 -1 7 -1 9 1c6 6 36 24 44 24c7 0 13 -15 8 -29c-50 -151 -139 -411 -144 -429c-2 -7 8 -7 11 -4c45 58 93 100 130 127c39 28 73 36 100 36c49 0 65 -51 65 -70
c0 -101 -61 -226 -97 -270c-22 -26 -68 -50 -88 -63c-16 -11 -46 -24 -59 -24c-15 0 -27 1 -34 9c-10 10 -12 16 -12 26c0 7 24 35 29 41c2 3 7 3 8 2c16 -10 37 -23 52 -23c6 0 10 3 17 14c36 60 75 205 75 257c0 26 -8 43 -24 43c-27 0 -55 -24 -123 -116
c-40 -53 -105 -169 -131 -217c-11 -20 -31 -29 -38 -29c-27 0 -43 29 -41 39c28 104 129 412 174 569c9 25 10 39 2 50c-12 17 -33 30 -48 30c-30 0 -57 -12 -83 -48c-39 -55 -64 -124 -91 -217c-1 -4 2 -9 5 -9c32 1 68 2 82 2c4 0 8 -7 8 -11c0 -12 -10 -25 -23 -26
c-21 -3 -66 -4 -78 -4c-4 0 -9 -4 -12 -11c-43 -153 -87 -308 -113 -386c-25 -79 -77 -131 -122 -159c-37 -23 -107 -51 -142 -51c-39 0 -82 17 -99 42c-23 -24 -92 -69 -138 -69c-62 0 -81 32 -80 48c0 18 12 43 32 56c12 7 24 8 28 4c27 -26 57 -55 78 -55
c24 0 38 24 54 69c17 49 93 314 144 493c2 5 -1 8 -6 8h-67c-7 0 -8 3 -8 7c1 15 15 29 22 29c16 2 48 3 64 3c5 0 8 4 10 11c32 81 67 171 155 234c30 21 90 41 123 41zM159 -198c32 0 65 22 94 114c34 109 72 249 127 435c1 5 -1 8 -6 8l-142 -4c-3 0 -8 -4 -9 -7
c-31 -108 -78 -270 -104 -365c-19 -66 -45 -110 -53 -124c-3 -5 -1 -13 1 -16c18 -25 56 -41 92 -41zM393 643c-35 0 -70 -28 -99 -89c-21 -44 -43 -110 -55 -152c-1 -3 1 -7 6 -7l141 4c6 0 9 5 11 12c20 50 39 104 73 159c2 3 5 13 4 15c-15 40 -58 58 -81 58z" />
    <glyph glyph-name="f_f_i" unicode="ffi" horiz-adv-x="790" 
d="M416 677c51 0 81 -15 102 -36c2 -2 7 -4 11 -1c34 28 89 66 168 66c100 0 115 -58 115 -75c0 -40 -38 -61 -62 -61c-13 0 -32 12 -32 28c-2 47 -14 76 -50 76c-38 0 -70 -30 -98 -80c-24 -43 -53 -118 -69 -183c-2 -5 0 -12 3 -12c13 0 121 2 160 5c34 3 68 8 76 10
c7 1 12 -7 8 -17c-29 -66 -93 -244 -112 -308c-3 -11 2 -18 7 -18c9 0 48 22 83 56c6 7 14 9 20 9c11 0 -1 -26 -10 -38c-40 -56 -142 -116 -185 -116c-14 0 -35 15 -35 36c0 11 3 25 9 40c18 46 102 271 109 292c3 11 0 14 -9 14c-52 0 -122 -3 -132 -4
c-5 0 -12 -7 -13 -12c-43 -151 -89 -307 -114 -385c-26 -80 -77 -129 -122 -158c-37 -23 -107 -49 -142 -49c-37 0 -75 14 -95 36c-1 1 -7 3 -9 0c-29 -27 -93 -64 -134 -64c-63 0 -80 34 -79 50c1 18 13 41 32 54c11 6 24 8 27 5c28 -28 58 -55 79 -55c24 0 38 23 54 69
c17 48 92 303 145 492c2 6 -2 8 -7 8l-65 -2c-7 0 -8 3 -8 7c1 15 15 29 22 30c16 2 48 4 62 5c5 0 8 3 10 8c29 76 67 173 154 235c31 21 89 43 126 43zM393 644c-39 0 -73 -32 -100 -90c-21 -44 -42 -109 -54 -152c-1 -3 0 -7 6 -7l139 3c6 0 10 4 13 11
c19 50 37 103 71 158c3 5 4 14 3 16c-14 37 -51 61 -78 61zM156 -198c31 0 66 18 95 110c34 109 74 252 128 438c2 5 -1 10 -6 10l-140 -5c-4 0 -9 -3 -11 -7c-32 -115 -78 -268 -104 -363c-18 -66 -46 -113 -54 -127c-3 -6 -1 -10 2 -15c20 -26 61 -41 90 -41z" />
    <glyph glyph-name="f_f_j" unicode="ffj" horiz-adv-x="776" 
d="M414 671c55 0 83 -16 102 -36c2 -3 7 -4 12 0c32 26 87 65 166 65c100 0 117 -57 117 -74c0 -40 -38 -61 -63 -61c-12 0 -31 14 -32 29c-3 46 -14 73 -50 73c-39 0 -71 -30 -99 -80c-24 -43 -50 -112 -66 -176c-1 -5 2 -12 6 -12c13 0 116 1 155 4c34 3 68 9 77 10
c8 1 15 -10 12 -23c-17 -63 -82 -299 -118 -410c-30 -90 -99 -140 -150 -167c-27 -15 -62 -22 -75 -22c-47 0 -62 25 -62 40c0 16 21 36 32 43c12 8 21 8 29 3c20 -14 38 -37 59 -37c19 0 30 15 47 66c42 124 108 369 125 438c3 13 -1 21 -10 21c-54 0 -122 -4 -133 -5
c-5 0 -12 -12 -13 -16c-43 -149 -89 -298 -115 -376c-26 -80 -74 -131 -125 -163c-36 -24 -106 -49 -141 -49c-39 0 -79 18 -98 41c-23 -24 -94 -69 -137 -69c-65 0 -82 34 -81 49c1 18 13 42 33 55c12 7 24 8 27 4c27 -26 57 -54 78 -54c24 0 37 22 54 68
c17 48 92 304 145 493c2 6 -1 8 -8 8l-64 -2c-7 0 -8 3 -8 7c1 15 16 29 23 30c15 2 46 3 62 4c4 0 8 5 10 10c28 75 64 166 153 229c30 21 81 42 124 42zM155 -198c30 0 67 18 96 111c34 109 74 255 128 437c2 5 -1 9 -5 9l-141 -4c-4 0 -9 -3 -11 -7
c-30 -108 -77 -265 -103 -360c-18 -66 -46 -116 -54 -130c-4 -6 -2 -10 2 -15c20 -26 59 -41 88 -41zM389 638c-34 0 -69 -30 -97 -89c-21 -44 -40 -101 -53 -149c-1 -3 1 -6 6 -6l140 4c6 0 10 5 12 11c20 51 35 97 69 152c4 6 4 14 3 16c-14 40 -53 61 -80 61z" />
    <glyph glyph-name="f_f_k" unicode="ffk" horiz-adv-x="995" 
d="M393 642c-36 0 -71 -28 -100 -88c-21 -44 -42 -110 -54 -152c-1 -3 1 -7 6 -7l140 3c8 0 9 4 12 13c20 50 39 103 73 158c4 6 4 14 3 16c-15 40 -53 57 -80 57zM159 -194c33 0 66 23 95 114c34 109 71 245 126 431c2 6 -1 9 -8 9l-138 -5c-4 0 -9 -3 -11 -7
c-31 -108 -77 -270 -104 -360c-19 -66 -44 -111 -52 -125c-4 -5 -2 -12 1 -15c18 -25 55 -42 91 -42zM415 675c50 0 84 -14 106 -32c2 -2 5 -3 9 1c39 30 88 61 164 61c33 0 73 -10 93 -24c2 -2 7 -2 9 0c6 6 36 24 44 24c7 0 13 -15 6 -34c-6 -18 -94 -246 -146 -395
c-4 -11 9 -10 14 -2c33 50 73 86 124 112c29 15 51 21 87 21c35 0 56 -21 56 -42s-23 -72 -73 -107c-33 -22 -73 -40 -99 -50c-8 -3 -7 -8 -5 -14c5 -22 15 -68 29 -98c12 -28 19 -33 30 -33c15 0 43 14 70 46c8 10 11 13 18 13c9 0 6 -22 -6 -41c-39 -55 -96 -97 -126 -97
c-26 0 -51 29 -65 64c-12 32 -21 58 -34 95c-7 22 -17 35 -29 35c-9 0 -15 -11 -23 -28c-20 -49 -53 -122 -68 -150c-4 -8 -20 -13 -29 -13c-24 0 -43 21 -43 32c0 4 2 14 8 29c7 18 124 368 185 553c5 17 3 37 -1 43c-12 17 -33 30 -49 30c-30 0 -58 -12 -84 -47
c-39 -56 -62 -124 -89 -217c-1 -4 2 -9 5 -9l82 1c4 0 8 -7 8 -10c0 -13 -10 -25 -22 -26c-22 -2 -62 -4 -79 -4c-4 0 -9 -4 -12 -11c-43 -153 -86 -303 -112 -381c-26 -80 -78 -132 -122 -160c-37 -23 -107 -51 -142 -51c-39 0 -82 18 -100 42c-22 -23 -92 -73 -139 -73
c-62 0 -80 37 -79 53c1 18 13 43 33 56c12 6 24 8 27 4c27 -26 58 -55 78 -55c24 0 38 23 55 69c17 48 92 309 143 488c2 5 -1 9 -5 9l-68 -1c-7 0 -8 3 -8 7c1 15 15 29 22 29c16 2 48 3 64 3c5 0 9 6 10 11c32 81 67 171 155 233c30 21 86 41 123 41zM853 351
c-9 0 -32 -7 -49 -18c-34 -21 -70 -71 -88 -113c-3 -9 2 -15 10 -15c62 2 157 66 157 126c0 11 -6 20 -30 20z" />
    <glyph glyph-name="f_f_l" unicode="ffl" horiz-adv-x="777" 
d="M697 706c38 0 73 -9 93 -26c3 -3 9 -2 11 1c6 6 28 25 36 25c7 0 13 -15 8 -29c-57 -146 -187 -523 -215 -611c-7 -19 -3 -28 6 -28c22 0 87 67 109 90c7 6 15 4 15 -2s-5 -24 -8 -30c-36 -69 -113 -112 -174 -112c-34 0 -52 25 -52 45c0 10 7 38 25 91
c15 42 47 131 82 237c1 5 0 11 -4 11l-139 -7c-4 0 -9 -6 -10 -10c-43 -153 -88 -308 -113 -386c-26 -80 -78 -131 -123 -159c-37 -23 -106 -51 -142 -51c-37 0 -78 15 -96 38c-1 1 -5 3 -7 1c-25 -26 -90 -66 -134 -66c-62 0 -81 32 -80 48c1 19 15 44 33 56
c10 6 24 7 27 4c27 -26 57 -55 78 -55c24 0 38 24 55 69c16 49 92 312 144 492c1 5 -1 8 -5 8l-68 -2c-7 0 -8 3 -8 7c1 15 14 29 21 30l65 5c4 0 8 5 10 9c32 82 67 174 155 236c30 21 90 42 123 42c55 0 86 -14 105 -33c3 -4 6 -4 11 1c36 28 89 61 166 61zM158 -198
c32 0 67 25 96 116c34 109 71 247 126 433c1 5 -2 9 -5 9l-142 -6c-4 0 -8 -4 -10 -7c-32 -108 -79 -269 -105 -364c-10 -34 -39 -99 -53 -124c-3 -5 -1 -12 1 -16c18 -25 56 -41 92 -41zM670 675c-30 0 -55 -11 -81 -47c-39 -55 -66 -135 -92 -220c-1 -4 2 -8 8 -8
c13 0 120 6 138 6c3 0 7 5 9 8c5 8 47 132 64 180c9 26 11 43 4 53c-12 19 -35 28 -50 28zM245 394l141 6c6 0 10 4 13 12c19 50 37 104 71 159c5 7 5 12 3 16c-14 40 -45 56 -80 56s-70 -28 -99 -88c-21 -44 -44 -112 -55 -154c-1 -3 1 -7 6 -7z" />
    <glyph glyph-name="f_f_t" unicode="fft" horiz-adv-x="817" 
d="M413 675c55 0 83 -14 101 -35c3 -4 7 -5 12 1c32 32 86 64 142 64c52 0 81 -30 81 -60c0 -25 -10 -40 -20 -53c-11 -12 -36 -20 -42 -20c-4 0 -13 4 -11 12c2 9 2 27 2 41c1 23 -11 49 -36 49c-32 0 -57 -31 -84 -90c-23 -49 -42 -111 -60 -177c-3 -7 1 -11 6 -11l148 3
c5 0 11 5 13 9c18 35 35 60 50 79c13 18 35 28 60 28c9 0 13 -9 7 -30l-22 -77c-2 -7 0 -10 7 -10c21 0 58 0 85 -1c8 0 7 -4 7 -10c0 -9 -11 -24 -22 -25c-12 -2 -64 -5 -83 -5c-7 0 -10 0 -14 -7c-17 -36 -62 -161 -93 -248c-3 -10 1 -23 9 -23c18 0 67 32 93 57
c7 6 22 11 22 2c0 -8 -2 -16 -11 -29c-44 -61 -149 -122 -199 -122c-15 0 -37 24 -37 39c0 5 1 15 5 27c4 10 69 182 112 292c4 10 -1 13 -6 13c-19 -1 -123 -1 -143 -1c-4 0 -10 -4 -13 -9c-42 -150 -89 -309 -115 -387c-25 -79 -76 -127 -121 -156
c-37 -23 -106 -49 -142 -49c-39 0 -81 17 -98 42c-22 -24 -97 -70 -140 -70c-58 0 -79 31 -79 49c1 19 14 43 33 55c9 6 22 8 25 4c30 -30 60 -55 81 -55c24 0 35 24 53 69c20 53 95 314 146 493c2 6 -1 8 -8 8h-64c-7 0 -8 3 -8 7c1 15 16 30 23 30c16 2 44 3 61 3
c6 0 9 3 11 10c28 75 65 171 153 233c30 21 82 41 123 41zM153 -198c34 0 68 18 97 110c33 109 73 247 128 435c2 5 -1 9 -8 9l-138 -2c-4 0 -9 -3 -11 -7c-30 -108 -77 -268 -103 -363c-19 -66 -45 -111 -53 -125c-4 -6 -3 -12 0 -17c19 -25 59 -40 88 -40zM389 643
c-35 0 -68 -31 -96 -90c-21 -44 -43 -106 -55 -152c-1 -3 0 -7 7 -7l137 1c5 0 10 5 13 12c16 47 37 104 71 159c5 7 5 14 4 18c-15 40 -59 59 -81 59z" />
    <glyph glyph-name="f_h" unicode="fh" horiz-adv-x="780" 
d="M581 705c7 0 13 -13 8 -27c-50 -151 -142 -412 -147 -430c-3 -7 7 -7 10 -4c45 58 95 103 134 128c41 27 70 35 96 35c50 0 65 -51 65 -70c0 -101 -61 -226 -97 -270c-22 -26 -68 -50 -87 -63c-17 -11 -47 -24 -60 -24c-15 0 -26 1 -33 9c-10 10 -12 16 -12 26
c0 7 22 35 28 41c2 3 7 3 8 2c16 -10 37 -23 52 -23c7 0 11 3 18 14c35 60 75 205 75 257c0 26 -9 43 -25 43c-27 0 -55 -24 -124 -116c-38 -53 -104 -169 -130 -217c-11 -20 -30 -29 -38 -29c-27 0 -43 29 -41 39c28 104 128 412 175 569c8 22 10 42 4 51
c-12 18 -34 28 -50 28c-29 0 -54 -14 -81 -49c-39 -56 -65 -125 -93 -220c-1 -4 2 -10 5 -10c25 0 56 1 82 1c4 0 8 -6 8 -10c0 -12 -14 -25 -24 -25c-23 -2 -54 -3 -77 -4c-4 0 -8 -5 -12 -11c-25 -88 -82 -297 -112 -398c-29 -99 -79 -151 -132 -184
c-38 -22 -81 -35 -107 -35c-53 0 -80 30 -79 52c0 20 20 43 38 53c7 5 20 7 25 1c28 -38 53 -61 76 -61c22 0 40 33 65 126c31 107 72 258 124 436c4 12 3 17 -5 17h-53c-13 0 -17 7 -17 12c1 5 11 23 27 24c10 2 48 2 56 3c5 1 9 6 11 11c51 135 108 245 220 286
c30 11 54 17 82 17c33 0 76 -9 97 -26c1 -1 6 -2 8 1c6 6 31 24 39 24z" />
    <glyph glyph-name="f_i" unicode="fi" horiz-adv-x="512" 
d="M551 633c0 -31 -27 -64 -64 -64c-15 0 -31 14 -32 30c-2 46 -13 72 -49 72c-39 0 -67 -31 -93 -74c-27 -44 -58 -129 -73 -189c-1 -5 1 -11 6 -11c13 0 111 2 151 5c37 3 72 10 80 12c7 1 14 -7 9 -17c-26 -61 -93 -245 -113 -309c-3 -7 2 -16 7 -16c13 0 57 30 84 54
c6 6 15 12 21 12c2 0 6 -3 6 -8c0 -7 -7 -21 -18 -35c-45 -57 -144 -113 -185 -113c-14 0 -34 17 -34 34c0 6 3 23 6 31c13 32 104 280 113 304c2 8 -2 13 -8 13c-55 0 -123 -4 -133 -5c-6 0 -10 -10 -12 -14c-36 -127 -85 -295 -112 -397c-28 -103 -74 -153 -132 -188
c-41 -23 -78 -32 -102 -32c-49 0 -81 27 -81 53c0 19 22 43 37 52c8 4 22 6 25 1c29 -37 57 -60 77 -60c21 0 37 17 69 136c23 88 63 240 117 433c2 8 -1 12 -7 12h-61c-9 0 -13 5 -13 10c0 4 12 20 27 23c15 4 50 5 59 7c6 1 12 4 13 9c27 80 66 163 135 230
c23 23 87 70 167 70c102 0 113 -59 113 -71z" />
    <glyph glyph-name="f_j" unicode="fj" horiz-adv-x="514" 
d="M438 704c101 0 113 -59 113 -71c0 -37 -36 -64 -64 -64c-12 0 -31 14 -32 30c-3 46 -12 72 -49 72c-39 0 -67 -30 -93 -73c-27 -45 -58 -127 -72 -187c-2 -9 1 -13 6 -13c13 0 114 3 151 6c35 3 71 8 80 9c7 1 17 -6 11 -23c-18 -62 -86 -323 -122 -434
c-30 -91 -100 -142 -149 -168c-28 -15 -59 -22 -76 -22c-46 0 -61 26 -61 41s20 36 31 43c8 6 19 8 25 4c20 -14 42 -37 64 -37c19 0 30 15 47 65c41 124 112 393 129 462c4 15 0 22 -10 22c-47 -1 -119 -5 -135 -7c-6 0 -11 -12 -13 -16c-35 -126 -83 -292 -109 -393
c-26 -103 -75 -153 -132 -189c-37 -23 -79 -33 -103 -33c-49 0 -81 27 -81 54c0 21 22 42 38 50c7 5 21 7 24 2c29 -37 56 -60 76 -60c21 0 39 18 70 135c23 88 62 241 116 434c2 8 -1 13 -7 13c-23 -1 -43 -1 -60 -1c-9 0 -14 5 -14 10c0 4 12 20 27 24c14 3 49 6 58 6
c6 0 12 2 15 10c27 82 63 162 132 229c23 23 88 70 169 70z" />
    <glyph glyph-name="f_k" unicode="fk" horiz-adv-x="730" 
d="M578 704c7 0 11 -16 6 -30c-6 -18 -93 -249 -146 -398c-4 -11 9 -10 14 -2c33 50 71 86 122 112c30 15 51 21 87 21c35 0 56 -21 56 -42s-22 -72 -73 -107c-32 -22 -74 -40 -99 -50c-3 -1 -7 -8 -6 -10c4 -22 15 -72 29 -102c12 -28 19 -33 31 -33c15 0 43 14 69 46
c8 10 12 13 18 13c10 0 7 -22 -6 -41c-38 -55 -95 -97 -126 -97c-25 0 -50 29 -64 64c-13 32 -21 58 -34 95c-7 22 -17 35 -29 35c-9 0 -15 -11 -23 -28c-21 -49 -54 -122 -68 -150c-4 -8 -20 -13 -29 -13c-25 0 -42 20 -42 31c0 4 1 15 7 30c7 18 119 361 181 546
c8 25 11 42 3 52c-12 18 -31 27 -47 27c-29 0 -54 -13 -80 -49c-40 -56 -65 -124 -93 -219c-1 -4 2 -10 5 -10c25 0 56 0 82 1c4 0 8 -6 8 -10c0 -12 -13 -25 -24 -26c-19 -2 -61 -3 -77 -3c-4 0 -8 -5 -12 -11c-25 -88 -82 -298 -112 -399c-29 -99 -79 -151 -132 -185
c-38 -22 -81 -34 -107 -34c-53 0 -80 29 -79 52c0 20 20 42 38 53c6 4 20 6 23 1c30 -37 55 -62 78 -62c22 0 40 34 65 127c31 107 73 263 125 441c2 5 -1 13 -6 13h-53c-13 0 -17 7 -17 12c1 5 11 23 27 24c10 2 48 2 56 3c5 1 9 6 11 11c45 133 108 245 219 286
c31 11 54 16 81 16c33 0 71 -8 92 -24c4 -3 10 -6 14 -1c6 6 29 24 37 24zM589 351c-9 0 -32 -7 -50 -18c-33 -21 -68 -71 -87 -113c-3 -9 2 -15 10 -15c62 2 157 66 157 126c0 11 -6 20 -30 20z" />
    <glyph glyph-name="f_l" unicode="fl" horiz-adv-x="517" 
d="M444 705c33 0 62 -6 83 -23c5 -3 10 -6 14 -1c6 6 28 24 35 24s12 -15 7 -29c-57 -146 -186 -524 -214 -612c-6 -19 0 -29 7 -29c19 0 88 71 109 93c7 6 14 4 14 -2s-4 -23 -8 -30c-36 -70 -112 -112 -172 -112c-37 0 -53 33 -52 49c1 9 8 34 24 83l83 241c2 6 -1 9 -5 9
l-137 -5c-3 0 -9 -5 -11 -11c-25 -87 -85 -303 -115 -403c-29 -100 -79 -152 -132 -185c-38 -22 -81 -35 -107 -35c-53 0 -80 30 -79 53c0 20 20 42 38 52c6 4 21 7 24 3c29 -38 54 -63 77 -63c22 0 40 33 65 126c31 108 72 264 124 442c3 11 2 16 -4 16h-54
c-13 0 -22 7 -22 12c1 5 12 23 27 25c10 2 55 4 63 5c4 0 9 6 11 11c50 134 105 239 217 280c30 11 65 16 90 16zM409 673c-29 0 -52 -11 -78 -47c-40 -56 -66 -130 -93 -218c-1 -4 2 -9 8 -9c13 0 115 4 133 4c4 0 8 4 12 9c4 8 46 133 63 181c8 23 12 47 8 55
c-9 13 -37 25 -53 25z" />
    <glyph glyph-name="f_r" unicode="fr" horiz-adv-x="622" 
d="M406 705c66 0 83 -34 83 -65c0 -42 -35 -67 -60 -67c-8 0 -11 4 -12 14c0 32 -7 90 -39 85c-18 0 -41 -12 -66 -60c-31 -58 -61 -149 -75 -204c-1 -3 2 -11 5 -11c22 1 150 7 162 7c27 1 51 -17 51 -49c0 -13 -20 -72 -32 -107c-5 -13 3 -21 14 -5c26 39 49 78 73 107
c34 42 61 57 88 57c34 0 45 -27 45 -48c0 -55 -39 -88 -61 -88c-7 0 -13 3 -15 15c-7 27 -17 35 -26 35c-13 0 -29 -17 -55 -54c-44 -67 -110 -203 -130 -243c-14 -27 -38 -40 -61 -40c-12 0 -25 10 -26 23c11 41 23 83 34 118c25 71 43 143 63 213c2 16 -14 27 -26 27
c-28 -1 -84 -4 -111 -6c-5 0 -8 -5 -11 -12c-36 -125 -83 -301 -109 -404c-29 -102 -76 -146 -133 -182c-38 -23 -78 -33 -102 -33c-37 0 -80 21 -80 53c0 18 22 42 37 50c7 5 21 7 25 2c26 -33 53 -58 76 -58c22 0 40 28 70 136c23 88 62 242 116 435c1 2 0 9 -4 9
c-18 0 -44 -1 -63 -1c-7 0 -8 8 -8 12c2 11 11 23 22 23l61 3c2 0 7 5 8 7c34 108 89 205 145 251c34 28 77 55 127 55z" />
    <glyph glyph-name="f_t" unicode="ft" horiz-adv-x="557" 
d="M514 514c9 0 13 -9 7 -30c-3 -12 -20 -64 -23 -75c-1 -4 1 -10 5 -10c21 0 66 3 88 2c8 -1 8 -5 8 -10c1 -8 -9 -22 -20 -24c-12 -2 -70 -6 -89 -6c-4 0 -10 -4 -11 -8c-17 -35 -60 -164 -91 -251c-3 -10 1 -23 9 -23c18 0 67 32 93 57c8 6 22 11 22 2
c0 -8 -1 -16 -10 -29c-45 -61 -151 -122 -200 -122c-15 0 -38 24 -38 39c0 5 2 15 6 27c4 10 65 184 108 295c3 6 1 12 -2 12c-42 0 -120 -3 -147 -3c-4 0 -8 -5 -11 -11c-35 -123 -83 -302 -113 -421c-24 -96 -76 -131 -121 -160c-36 -23 -84 -37 -107 -37
c-56 0 -83 28 -83 53c0 19 28 47 45 53c6 2 19 3 22 -2c27 -37 50 -58 73 -58c21 0 43 28 68 130c29 113 67 267 116 443c1 2 -4 7 -8 7h-56c-7 0 -9 7 -9 11c0 12 10 25 21 25c18 0 47 2 61 2c2 0 6 5 7 7c33 103 95 218 153 260c39 30 79 47 117 47c62 0 84 -34 84 -66
c0 -46 -36 -71 -62 -71c-6 0 -12 7 -12 14c0 5 1 18 1 22c0 44 -12 70 -37 70c-18 0 -40 -9 -71 -69c-19 -38 -54 -131 -72 -202c-1 -4 3 -10 5 -10c52 1 134 2 152 4c4 0 11 8 12 10c18 34 35 59 49 78c13 18 36 28 61 28z" />
    <glyph glyph-name="longs_b" unicode="&#x17f;b" horiz-adv-x="716" 
d="M614 407c22 0 41 -8 55 -21c17 -16 27 -40 27 -67c0 -107 -97 -239 -193 -295c-49 -30 -99 -40 -125 -40c-53 0 -106 31 -106 106c0 24 18 95 42 169c24 75 98 284 116 340c5 12 5 33 -1 40c-17 16 -36 23 -56 23c-50 0 -93 -69 -146 -242c-41 -135 -80 -283 -109 -411
c-26 -116 -60 -178 -122 -219c-52 -34 -106 -62 -149 -62c-34 0 -82 20 -82 54c0 10 17 36 39 49c9 4 22 5 26 2c28 -26 52 -52 84 -52c36 0 57 36 95 203c22 94 67 266 105 384c55 168 115 249 177 290c32 22 95 47 131 47c33 0 60 -9 77 -19c3 -2 12 -1 24 7
c12 7 26 12 33 12c8 0 13 -15 2 -37c-25 -47 -113 -295 -146 -394c-1 -4 6 -7 8 -3c54 72 131 136 194 136zM570 359c-48 0 -100 -70 -139 -131c-49 -78 -68 -146 -68 -168s14 -43 32 -43c12 0 38 15 62 37c62 64 138 211 138 274c0 15 -9 31 -25 31z" />
    <glyph glyph-name="longs_h" unicode="&#x17f;h" horiz-adv-x="752" 
d="M430 705c33 0 63 -9 79 -20c3 -2 11 1 22 8c15 10 24 12 31 12c9 0 7 -22 4 -31c-51 -151 -142 -408 -147 -426c-2 -7 7 -7 10 -4c46 58 94 100 131 127c38 29 73 37 100 37c49 0 64 -53 64 -72c0 -101 -61 -225 -97 -269c-22 -26 -67 -51 -87 -64
c-17 -11 -43 -23 -56 -23c-14 0 -25 1 -32 9c-9 9 -12 15 -12 26c0 7 16 29 21 35c3 3 8 3 10 2c15 -9 33 -22 48 -22c6 0 13 5 19 15c36 60 78 207 78 260c0 25 -8 43 -25 43c-28 0 -55 -23 -124 -115c-45 -62 -106 -176 -129 -216c-10 -20 -30 -30 -39 -30
c-27 0 -43 29 -41 39c29 104 129 414 178 573c4 13 10 33 4 39c-18 17 -46 23 -67 23c-49 0 -96 -70 -147 -242c-40 -136 -78 -280 -107 -409c-26 -116 -60 -178 -122 -219c-52 -34 -107 -63 -150 -63c-35 0 -82 22 -82 54c0 10 17 37 39 49c10 5 20 7 25 3
c29 -27 55 -49 87 -49c35 0 56 32 94 199c21 94 66 264 103 383c56 173 121 252 179 291c31 22 101 47 138 47z" />
    <glyph glyph-name="longs_i" unicode="&#x17f;i" horiz-adv-x="519" 
d="M415 705c59 0 95 -28 95 -68c0 -25 -25 -51 -49 -51c-9 0 -18 6 -26 16c-15 18 -45 51 -78 51c-43 0 -80 -31 -138 -247c-36 -136 -70 -268 -99 -395c-29 -122 -61 -180 -122 -221c-52 -34 -106 -62 -150 -62c-35 0 -81 20 -81 53c0 13 19 40 40 50c8 4 22 5 25 2
c28 -26 53 -48 86 -48c35 0 55 32 92 199c21 94 67 273 104 395c50 162 112 236 174 278c32 22 90 48 127 48zM453 405c13 0 24 -20 24 -29s-7 -26 -11 -35c-47 -114 -68 -175 -101 -254c-4 -11 2 -15 9 -15c11 0 52 27 83 55c10 9 14 12 20 12c2 0 7 -3 7 -8
c0 -7 -6 -22 -18 -35c-45 -56 -145 -114 -186 -114c-14 0 -37 14 -37 28c0 6 0 8 4 18c35 88 69 165 113 273c4 11 1 19 -9 17c-16 -4 -45 -18 -66 -33c-4 -4 -12 2 -12 7c0 8 4 14 11 23c21 25 114 90 169 90z" />
    <glyph glyph-name="longs_k" unicode="&#x17f;k" horiz-adv-x="693" 
d="M430 705c33 0 62 -9 79 -20c3 -2 11 0 22 7c14 11 23 13 30 13c8 0 7 -21 4 -30c-6 -18 -91 -239 -144 -387c-4 -11 2 -16 8 -8c34 45 73 81 123 107c30 15 52 20 88 20c35 0 55 -22 55 -49c0 -23 -22 -63 -72 -98c-33 -22 -72 -40 -97 -50c-7 -3 -8 -9 -6 -16
c5 -21 15 -67 29 -98c13 -27 20 -32 31 -32c16 0 42 13 69 46c8 10 11 12 17 12c9 0 7 -21 -5 -40c-39 -58 -96 -98 -126 -98c-26 0 -51 30 -65 64c-12 32 -21 60 -34 97c-8 23 -18 33 -29 33c-9 0 -16 -10 -24 -28c-20 -48 -51 -121 -65 -149c-5 -8 -22 -14 -31 -14
c-25 0 -42 17 -42 28c0 4 0 19 6 34c7 17 125 371 186 556c3 11 6 29 2 35c-19 18 -45 25 -65 25c-50 0 -97 -74 -148 -246c-40 -136 -78 -280 -107 -409c-26 -116 -60 -178 -122 -219c-52 -34 -107 -63 -150 -63c-35 0 -82 22 -82 54c0 10 17 37 39 49c10 5 20 7 25 3
c29 -27 55 -49 87 -49c35 0 56 32 94 199c21 94 66 264 103 383c56 177 121 252 178 291c32 22 96 47 139 47zM566 350c-49 0 -114 -71 -140 -130c-3 -9 0 -15 11 -15c54 1 158 62 159 125c0 11 -6 20 -30 20z" />
    <glyph glyph-name="longs_l" unicode="&#x17f;l" horiz-adv-x="500" 
d="M430 705c33 0 62 -10 79 -21c3 -2 9 0 21 8c14 10 25 13 32 13c9 0 8 -22 5 -31c-69 -182 -198 -547 -217 -603c-9 -24 -4 -33 7 -33c19 0 85 69 108 91c7 6 13 2 13 -4s-4 -24 -7 -30c-37 -68 -115 -111 -174 -111c-29 0 -53 25 -53 45c0 9 9 38 29 96
c39 114 109 305 167 474c4 11 5 34 0 39c-18 15 -45 24 -65 24c-50 0 -98 -71 -149 -243c-40 -136 -78 -280 -107 -409c-26 -116 -60 -178 -122 -219c-52 -34 -107 -63 -150 -63c-35 0 -82 22 -82 54c0 10 17 37 39 49c8 4 21 5 25 3c29 -27 55 -53 87 -53
c35 0 56 36 94 203c21 94 66 264 103 383c56 173 121 252 179 291c31 22 93 47 138 47z" />
    <glyph glyph-name="longs_longs" unicode="&#x17f;&#x17f;" horiz-adv-x="482" 
d="M415 684c42 0 71 -14 101 -37c3 -3 8 -2 10 0c31 24 84 58 131 58c45 0 79 -22 78 -60c-1 -25 -29 -51 -47 -51c-9 0 -12 7 -19 17c-15 21 -36 45 -63 45c-44 0 -82 -52 -138 -245c-38 -135 -70 -255 -100 -367c-32 -121 -72 -194 -134 -234c-52 -35 -103 -61 -148 -61
c-28 0 -75 18 -96 38c-1 1 -6 2 -11 -1c-45 -33 -99 -58 -142 -58c-34 0 -81 19 -80 53c0 14 18 37 40 49c13 6 19 8 27 3c29 -25 51 -52 83 -52c35 0 58 51 100 217c24 91 64 232 96 334c44 132 88 238 188 306c33 21 88 46 124 46zM373 643c-79 0 -135 -193 -168 -297
c-29 -102 -61 -213 -88 -323c-14 -59 -40 -129 -64 -168c-1 -2 0 -9 3 -12c24 -28 49 -47 88 -47c41 0 66 47 113 214c25 89 69 249 107 365c25 82 64 165 91 203c3 4 5 11 2 16c-15 29 -38 49 -84 49z" />
    <glyph glyph-name="longs_longs_i" unicode="&#x17f;&#x17f;i" horiz-adv-x="755" 
d="M372 642c-79 0 -134 -192 -167 -296c-29 -102 -61 -212 -88 -323c-14 -58 -40 -129 -63 -167c-1 -3 -1 -9 2 -12c25 -28 53 -45 92 -45c34 0 62 45 109 212c25 89 69 248 107 364c25 82 64 168 90 206c4 5 5 10 2 15c-15 27 -38 46 -84 46zM698 405c9 0 24 -20 24 -29
s-7 -26 -11 -35c-48 -114 -69 -175 -101 -254c-3 -9 2 -15 11 -15c11 0 46 24 80 55c10 9 15 12 20 12c2 0 8 -3 8 -7c0 -9 -7 -23 -18 -36c-48 -58 -144 -114 -185 -114c-15 0 -39 16 -39 29c0 6 0 7 4 17c36 88 70 165 112 273c3 9 0 18 -8 17c-14 -2 -40 -14 -66 -33
c-5 -5 -14 1 -14 6c0 7 5 16 13 25c21 24 115 89 170 89zM415 684c42 0 70 -8 101 -33c3 -3 7 -3 10 -1c32 21 82 54 140 54c89 0 109 -56 108 -73c0 -36 -35 -61 -58 -61c-11 0 -32 13 -34 27c-4 41 -17 69 -51 69c-59 0 -111 -75 -163 -255c-38 -135 -69 -254 -100 -366
c-32 -122 -71 -194 -133 -234c-52 -35 -104 -61 -149 -61c-28 0 -74 18 -95 38c-1 1 -7 2 -12 -1c-45 -33 -100 -59 -142 -59c-34 0 -81 20 -80 54c1 14 18 37 40 49c15 7 18 8 27 2c30 -25 51 -49 83 -49c35 0 58 49 101 215c23 91 63 231 95 333c44 132 88 238 188 306
c33 21 88 46 124 46z" />
    <glyph glyph-name="longs_longs_l" unicode="&#x17f;&#x17f;l" horiz-adv-x="741" 
d="M370 648c-78 0 -131 -181 -164 -286c-29 -102 -63 -231 -92 -340c-16 -58 -40 -129 -63 -168c-1 -2 -1 -9 2 -12c25 -27 53 -45 92 -45c34 0 62 45 109 212c25 89 70 254 108 371c26 82 65 165 92 204c3 4 4 10 2 15c-15 28 -39 49 -86 49zM414 689c42 0 70 -8 101 -33
c3 -3 8 -2 10 0c32 25 84 54 136 54c30 0 73 -9 92 -24c2 -1 9 -1 12 2c9 9 30 24 38 24c6 0 11 -16 6 -32c-69 -182 -202 -548 -222 -604c-9 -25 -3 -33 7 -33c20 0 86 69 109 91c7 5 13 2 13 -4s-5 -24 -8 -30c-37 -68 -114 -111 -173 -111c-30 0 -54 25 -54 45
c0 9 9 38 29 96c40 114 107 303 168 471c6 20 9 40 3 48c-10 15 -33 26 -51 26c-47 0 -105 -58 -163 -259c-38 -135 -71 -260 -102 -373c-32 -121 -73 -193 -133 -235c-49 -36 -104 -60 -149 -60c-28 0 -75 18 -95 39c-2 1 -7 2 -12 -2c-45 -32 -99 -57 -141 -57
c-34 0 -82 19 -81 52c1 14 18 37 40 49c13 7 19 8 27 1c30 -24 51 -49 83 -49c35 0 58 50 101 217c23 90 64 237 97 339c43 132 87 240 188 308c32 21 87 44 124 44z" />
    <glyph glyph-name="longs_t" unicode="&#x17f;t" horiz-adv-x="540" 
d="M443 698c71 0 114 -45 114 -80c0 -14 -44 -129 -74 -210c-2 -5 -2 -13 4 -13c24 0 85 -1 89 -1s7 -8 6 -10c1 -9 -11 -24 -21 -26c-11 -1 -69 -3 -88 -3c-4 0 -8 -5 -10 -8c-18 -37 -55 -138 -92 -244c-3 -9 1 -23 9 -23c18 0 67 33 92 57c8 7 22 11 22 2
c0 -8 -1 -16 -10 -29c-45 -61 -150 -122 -200 -122c-14 0 -36 23 -37 39c0 5 2 15 6 27l111 289c3 5 1 13 -2 13c-20 0 -36 1 -53 1c-11 0 -13 6 -13 10c0 13 14 26 17 26l63 2c3 0 8 5 11 10c17 38 57 150 73 195c2 10 4 23 -4 30c-22 19 -49 23 -70 23
c-61 0 -111 -78 -159 -239c-42 -134 -79 -259 -114 -404c-28 -116 -60 -178 -123 -219c-51 -34 -105 -63 -149 -63c-35 0 -82 21 -82 54c0 9 17 36 39 49c9 5 20 6 25 2c28 -25 55 -50 87 -50c35 0 55 38 94 204c27 108 63 242 103 358c58 168 128 257 200 305
c21 15 75 48 136 48z" />
    <glyph glyph-name="Tcommaaccent_h" unicode="&#x162;h" horiz-adv-x="1050" 
d="M1017 335c0 -96 -57 -212 -86 -253c-24 -31 -67 -56 -91 -73c-19 -13 -48 -29 -62 -29c-29 0 -47 12 -47 35c0 7 16 26 22 33c3 5 9 5 11 4c16 -11 36 -22 47 -22c8 0 14 4 22 18c40 74 76 208 76 259c0 26 -9 42 -24 42c-29 0 -57 -26 -125 -116
c-44 -62 -108 -176 -129 -217c-11 -20 -30 -29 -39 -29c-13 0 -29 7 -36 16c-6 7 -6 18 -5 24c25 93 120 391 169 554c2 5 -5 14 -9 14c-27 3 -162 7 -197 5c-4 0 -14 -7 -16 -12c-23 -60 -114 -374 -136 -474c-14 -63 -2 -78 60 -88c14 -3 25 -8 25 -15
c0 -9 -13 -15 -31 -15s-67 4 -125 4c-67 0 -148 -5 -166 -5c-19 0 -30 7 -30 12c0 7 14 15 27 16c76 12 91 24 117 98c42 124 121 391 141 467c1 6 -1 11 -7 12c-40 2 -93 1 -125 -3c-37 -5 -81 -42 -108 -83c-13 -20 -23 -22 -30 -22s-7 9 -4 18c5 19 39 72 55 131
c1 5 14 14 20 14c1 0 5 -2 8 -6c1 -5 13 -13 43 -15c26 -1 88 -1 153 -1h224c72 0 110 3 124 7c8 3 11 6 19 21c10 18 67 25 86 25c10 0 22 -7 18 -19c-49 -151 -138 -398 -143 -416c-4 -9 7 -10 12 -3c42 49 91 98 128 123c40 26 73 36 100 36c50 0 64 -51 64 -72zM257 -43
c31 0 57 -22 57 -65c0 -82 -94 -115 -133 -115c-6 0 -15 3 -15 8c0 8 7 14 16 17c41 14 70 35 70 59c0 11 -5 18 -21 20c-16 3 -28 14 -28 32c0 19 22 44 54 44z" />
    <glyph glyph-name="Tcaron_h" unicode="&#x164;h" horiz-adv-x="1050" 
d="M1017 335c0 -96 -57 -212 -86 -253c-24 -31 -67 -56 -91 -73c-19 -13 -48 -29 -62 -29c-29 0 -47 12 -47 35c0 7 16 26 22 33c3 5 9 5 11 4c16 -11 36 -22 47 -22c8 0 14 4 22 18c40 74 76 208 76 259c0 26 -9 42 -24 42c-29 0 -57 -26 -125 -116
c-44 -62 -108 -176 -129 -217c-11 -20 -30 -29 -39 -29c-13 0 -29 7 -36 16c-6 7 -6 18 -5 24c25 93 120 391 169 554c2 5 -5 14 -9 14c-27 3 -162 7 -197 5c-4 0 -14 -7 -16 -12c-23 -60 -114 -374 -136 -474c-14 -63 -2 -78 60 -88c14 -3 25 -8 25 -15
c0 -9 -13 -15 -31 -15s-67 4 -125 4c-67 0 -148 -5 -166 -5c-19 0 -30 7 -30 12c0 7 14 15 27 16c76 12 91 24 117 98c42 124 121 391 141 467c1 6 -1 11 -7 12c-40 2 -93 1 -125 -3c-37 -5 -81 -42 -108 -83c-13 -20 -23 -22 -30 -22s-7 9 -4 18c5 19 39 72 55 131
c1 5 14 14 20 14c1 0 5 -2 8 -6c1 -5 13 -13 43 -15c26 -1 88 -1 153 -1h224c72 0 110 3 124 7c8 3 11 6 19 21c10 18 67 25 86 25c10 0 22 -7 18 -19c-49 -151 -138 -398 -143 -416c-4 -9 7 -10 12 -3c42 49 91 98 128 123c40 26 73 36 100 36c50 0 64 -51 64 -72zM447 676
c-8 0 -18 13 -24 22c-15 25 -43 61 -71 92c-11 12 -7 26 4 26s23 -6 30 -11c24 -13 51 -32 75 -46c5 -3 15 -3 18 -1c36 17 97 43 124 51c13 6 23 7 33 7c8 0 15 -7 -7 -25c-26 -19 -95 -62 -137 -93c-9 -7 -31 -22 -45 -22z" />
    <glyph glyph-name="gamma_gamma" unicode="&#x3b3;&#x3b3;" horiz-adv-x="797" 
d="M154 409c47 0 86 -28 81 -143c-1 -30 -12 -102 -28 -155c-1 -4 8 -5 12 1c41 72 104 171 156 225c36 35 83 72 138 72c46 0 93 -28 88 -147c-1 -31 -15 -107 -26 -151c-1 -3 8 -3 12 2c28 40 88 126 130 191c30 46 51 84 64 111c2 4 16 4 18 2c11 -10 26 -43 26 -58
c0 -24 -22 -58 -28 -67c-52 -70 -189 -211 -229 -302c-10 -22 -14 -37 -19 -56c-17 -63 -41 -132 -48 -149c-5 -11 -22 -27 -33 -24c-21 8 -49 24 -58 52c-2 9 -3 31 1 40c16 35 60 97 95 149c18 24 33 67 37 91c10 80 20 205 -77 205c-100 -2 -228 -210 -266 -308
c-8 -22 -14 -33 -19 -52c-12 -39 -51 -153 -64 -182c-5 -11 -23 -27 -33 -24c-20 8 -48 27 -57 57c-2 8 -4 30 1 38c20 46 72 121 108 173c17 23 35 65 38 89c8 68 26 214 -60 214c-40 0 -74 -31 -92 -44c-7 -6 -19 -9 -18 11c1 15 18 51 31 68c30 39 77 71 119 71z" />
    <glyph glyph-name="lambda_lambda" unicode="&#x3bb;&#x3bb;" horiz-adv-x="746" 
d="M168 684c84 0 101 -74 108 -149c4 -51 3 -287 2 -365c0 -60 16 -100 38 -100c9 0 23 9 32 22c57 73 154 204 169 224c16 20 40 52 47 58c5 4 12 16 11 24c-3 87 6 220 -112 220c-40 0 -72 -13 -96 -25c-14 -7 -19 5 -16 16c3 8 13 26 25 40c28 32 62 57 116 57
c74 0 103 -75 113 -157c6 -45 9 -301 8 -379c-1 -79 26 -85 39 -85c22 0 49 11 79 39c5 4 10 -5 10 -12c0 -5 -4 -24 -11 -37c-32 -62 -75 -91 -110 -91c-42 0 -56 44 -56 80c0 38 13 197 14 206c0 4 -6 8 -9 3c-5 -8 -158 -224 -172 -238c-26 -32 -65 -53 -101 -53
c-47 0 -65 32 -65 83c0 38 12 199 13 208c0 4 -6 8 -9 3c-6 -8 -139 -234 -143 -241c-6 -13 -32 -53 -50 -53c-12 0 -48 14 -60 25c-5 4 -9 23 -5 27c7 11 192 264 206 285c13 21 41 56 48 62c5 4 12 16 11 24c-2 90 -11 191 -112 191c-36 0 -64 -15 -79 -22
c-11 -9 -18 4 -15 15c2 9 11 24 23 38c28 33 65 57 109 57z" />
    <glyph glyph-name=".notdef" horiz-adv-x="500" 
d="M0 0v700h500v-700h-500zM250 395l170 255h-340zM280 350l170 -255v510zM80 50h340l-170 255zM50 605v-510l170 255z" />
    <glyph glyph-name="space" unicode=" " horiz-adv-x="193" 
 />
    <glyph glyph-name="exclam" unicode="!" horiz-adv-x="299" 
d="M281 612c42 0 59 -70 34 -127c-25 -58 -107 -219 -138 -276c-4 -10 -17 -22 -29 -22c-9 0 -13 14 -12 28c3 21 32 206 49 294c12 66 52 103 96 103zM124 134c42 0 64 -28 64 -70c0 -54 -44 -78 -76 -78c-44 0 -64 29 -64 68c0 44 37 80 76 80z" />
    <glyph glyph-name="quotedbl" unicode="&#x22;" horiz-adv-x="328" 
d="M252 688c7 0 15 -10 10 -31c-9 -42 -49 -124 -97 -187c-8 -8 -32 -26 -44 -26c-6 0 -10 13 -8 19c26 69 47 157 50 180c1 3 5 10 11 14c16 12 53 31 78 31zM412 688c6 0 15 -10 10 -31c-9 -42 -49 -126 -98 -188c-7 -8 -31 -25 -42 -25c-6 0 -11 12 -8 18
c26 71 46 159 49 181c1 3 5 9 13 15c16 12 52 30 76 30z" />
    <glyph glyph-name="numbersign" unicode="#" horiz-adv-x="494" 
d="M511 429c-5 -10 -19 -37 -27 -37l-75 -3c-2 0 -8 -6 -10 -10l-42 -97c-1 -3 0 -7 4 -6l80 3c5 0 7 -22 5 -28c-4 -11 -24 -50 -35 -50l-80 -3c-6 0 -11 -6 -11 -7l-65 -160c-3 -8 -16 -14 -27 -14c-3 0 -12 6 -10 10l64 161c2 5 -3 9 -6 9l-91 -4c-2 0 -10 -6 -10 -8
l-67 -162c-3 -8 -23 -11 -26 -11c-7 0 -11 9 -10 13l63 157c2 4 1 10 -5 10l-73 -2c-3 0 -4 22 -3 24c9 30 22 52 30 52l81 4c4 0 7 1 10 7l39 96c2 4 0 11 -5 10l-82 -3c-4 4 0 27 6 43c2 7 19 32 25 33l82 4c7 0 11 4 12 7l55 142c2 6 21 12 33 12c4 0 10 -7 8 -10
l-59 -143c-1 -3 1 -7 2 -7l91 3c5 0 11 4 13 9l62 146c3 6 16 10 32 10c1 0 9 -4 4 -14l-60 -140c-3 -8 1 -9 2 -9l79 2c4 -10 0 -34 -3 -39zM361 377c2 7 2 11 -3 10l-95 -3c-4 0 -8 -4 -9 -8l-43 -97c-1 -2 1 -9 5 -8l91 3c5 0 10 2 13 9z" />
    <glyph glyph-name="dollar" unicode="$" horiz-adv-x="494" 
d="M359 621l21 64c1 2 7 6 14 6c10 0 16 -7 16 -11l-20 -62c-1 -4 1 -7 4 -8c22 -8 50 -20 61 -27c11 -8 20 -10 25 -9c10 2 22 7 28 8c4 0 13 -6 9 -15c-11 -23 -39 -77 -48 -115c-5 -21 -11 -25 -16 -25c-7 0 -17 11 -14 34c8 51 -7 95 -53 118c-3 1 -7 0 -8 -4l-65 -201
c0 -3 3 -10 5 -11c73 -62 121 -125 121 -187c0 -63 -42 -117 -103 -148c-31 -16 -83 -28 -134 -29c-6 0 -9 -3 -10 -7l-25 -73c-4 -4 -6 -8 -18 -8c-7 0 -13 4 -14 8l25 78c1 0 0 5 -3 6c-27 6 -70 24 -87 35c-13 8 -20 6 -35 -1c-11 -6 -26 -9 -33 -4c-3 3 -4 12 -1 18
c14 34 36 110 45 139c7 20 16 26 21 26c7 0 11 -8 11 -28c-4 -97 36 -136 87 -154c4 -1 7 2 8 5l70 219c1 3 1 6 -3 10c-51 47 -110 107 -110 178c0 118 104 182 221 170c3 0 6 0 8 5zM287 394l59 187c1 2 -1 6 -3 6c-68 7 -117 -43 -117 -95c0 -45 27 -70 55 -98
c3 -4 5 -3 6 0zM269 232l-62 -195c-1 -2 -1 -9 5 -9c87 3 122 62 122 109c0 25 -12 54 -58 98c-2 2 -6 1 -7 -3z" />
    <glyph glyph-name="percent" unicode="%" horiz-adv-x="748" 
d="M303 625c65 0 98 -60 98 -118c0 -77 -54 -179 -132 -219c-21 -10 -47 -17 -74 -17c-63 0 -96 54 -96 109c-1 84 41 158 100 207c19 17 54 38 104 38zM300 598c-16 0 -36 -14 -52 -37c-40 -53 -71 -138 -70 -213c0 -19 5 -48 28 -48c10 0 24 5 44 29c29 35 79 157 79 223
c0 28 -12 46 -29 46zM650 626c8 0 18 -8 21 -13c3 -4 2 -11 -3 -16c-183 -216 -350 -418 -518 -621c-4 -3 -8 -5 -12 -4c-7 2 -15 10 -17 18c-2 3 -1 9 5 16c175 207 334 400 506 608c10 10 13 12 18 12zM604 342c65 0 97 -61 97 -118c0 -85 -53 -179 -131 -219
c-21 -10 -49 -17 -75 -17c-64 0 -95 55 -95 110c0 84 40 156 100 206c19 16 54 38 104 38zM601 313c-17 0 -36 -14 -53 -36c-39 -53 -69 -136 -69 -212c0 -19 4 -48 28 -48c10 0 25 5 44 29c30 36 77 155 77 221c0 28 -10 46 -27 46z" />
    <glyph glyph-name="ampersand" unicode="&#x26;" horiz-adv-x="811" 
d="M288 487c23 0 61 -21 70 -82c1 -6 7 -5 10 -2c47 42 113 112 113 186c0 19 -7 37 -14 50c-2 5 -6 15 -1 23c8 13 32 25 41 25c28 0 43 -27 43 -63c0 -98 -95 -184 -173 -254c-52 -46 -182 -127 -204 -143c-6 -5 -7 -11 -7 -17c4 -67 67 -153 164 -153c56 0 97 15 136 43
c78 57 129 152 131 213c0 12 -2 12 -5 21c-2 5 -26 20 -58 20c-52 0 -50 -37 -50 -53c0 -20 7 -37 15 -53c2 -6 2 -13 -1 -17c-4 -6 -20 -13 -34 -13c-33 0 -54 23 -54 46c0 35 25 66 59 98c33 31 79 53 115 53c70 0 127 -53 141 -67c8 -8 17 -16 27 -16c6 0 9 8 9 19
c0 22 -19 63 -27 75c-5 7 -4 18 13 18c42 0 65 -46 65 -73c0 -22 -15 -44 -29 -52c-13 -8 -52 -32 -69 -45c-8 -4 -15 -4 -19 1c-15 16 -34 31 -53 43c-4 2 -9 -7 -9 -12c-1 -9 -2 -19 -5 -33c-13 -69 -52 -149 -90 -192c-67 -76 -160 -120 -240 -120
c-190 0 -227 146 -227 232c0 66 19 149 101 227c23 22 83 67 116 67zM161 270c0 -4 4 -8 8 -5c26 15 96 60 104 67c5 5 8 14 8 32c-1 19 -18 60 -48 60c-40 0 -75 -74 -72 -154z" />
    <glyph glyph-name="quoteright" unicode="&#x2019;" horiz-adv-x="233" 
d="M113 459c0 8 8 14 22 21c36 16 75 53 75 95c0 28 -17 43 -38 51c-6 2 -12 11 -12 16c0 20 25 47 63 47c50 0 73 -50 73 -86c0 -99 -97 -149 -155 -157c-9 -1 -28 1 -28 13z" />
    <glyph glyph-name="parenleft" unicode="(" horiz-adv-x="369" 
d="M458 724c9 0 13 -3 13 -10c0 -6 -8 -17 -19 -26c-202 -155 -284 -360 -284 -592c0 -129 31 -225 49 -268c5 -12 3 -22 -5 -22c-13 0 -24 11 -33 20c-24 22 -98 115 -98 306c0 284 163 473 322 567c32 18 51 25 55 25z" />
    <glyph glyph-name="parenright" unicode=")" horiz-adv-x="369" 
d="M-42 -194c-9 0 -14 3 -14 11c0 7 17 22 21 25c202 155 283 359 283 592c0 128 -32 224 -50 268c-6 12 -3 22 5 22c13 0 24 -11 34 -20c23 -22 98 -116 98 -306c0 -284 -165 -471 -323 -567c-30 -19 -50 -25 -54 -25z" />
    <glyph glyph-name="asterisk" unicode="*" horiz-adv-x="367" 
d="M412 552c6 1 26 1 26 -12c0 -6 -11 -16 -21 -20c-38 -15 -56 -21 -81 -29c-4 -1 -4 -4 1 -9c23 -23 42 -50 60 -72c10 -13 9 -20 9 -25s-14 -11 -31 0c-20 13 -60 49 -77 66c-5 5 -8 3 -9 -1c-16 -54 -29 -86 -35 -94c-5 -9 -13 -15 -21 -15c-7 0 -12 13 -5 47
c5 28 12 58 15 73c1 4 -5 5 -9 4c-16 -4 -81 -20 -96 -20c-14 0 -26 4 -26 11c0 5 6 13 18 18c31 15 48 20 93 36c3 1 6 5 2 10c-20 20 -56 49 -72 75c-8 14 -1 27 19 20c4 -1 31 -16 84 -61c4 -4 9 -3 10 1c8 20 21 63 32 84c5 10 12 19 21 19c5 0 10 -10 10 -23
c-1 -23 -7 -63 -12 -89c-1 -7 2 -9 7 -9c15 4 54 11 88 15z" />
    <glyph glyph-name="plus" unicode="+" horiz-adv-x="624" 
d="M293 498c0 8 29 15 43 15c13 0 25 -4 25 -18v-202c0 -7 2 -9 8 -9h197c10 0 13 -8 13 -16c0 -24 -8 -44 -14 -44h-195c-7 0 -9 -5 -9 -11l-1 -209c0 -13 -28 -19 -47 -19c-6 0 -20 3 -20 14v214c0 7 -2 11 -9 11h-191c-13 0 -17 9 -17 23c0 13 7 37 14 37h196
c5 0 7 3 7 8v206z" />
    <glyph glyph-name="comma" unicode="," horiz-adv-x="247" 
d="M87 150c50 0 69 -50 69 -86c0 -104 -117 -157 -168 -172c-16 -3 -31 2 -31 10c0 11 11 18 26 27c45 25 85 58 85 99c0 23 -15 31 -38 40c-6 3 -15 14 -15 19c0 29 29 63 72 63z" />
    <glyph glyph-name="hyphen" unicode="-" horiz-adv-x="332" 
d="M77 245c31 5 200 23 205 23c8 0 12 -11 11 -16c0 -14 -16 -57 -34 -59c-57 -7 -150 -15 -199 -20c-7 -1 -12 9 -12 13c0 17 21 58 29 59z" />
    <glyph glyph-name="period" unicode="." horiz-adv-x="247" 
d="M86 134c42 0 64 -28 64 -70c0 -54 -44 -78 -76 -78c-45 0 -65 29 -65 68c0 44 38 80 77 80z" />
    <glyph glyph-name="slash" unicode="/" horiz-adv-x="347" 
d="M-28 -45c134 224 286 473 420 689c5 7 14 11 18 11c11 0 21 -1 26 -3c4 -2 8 -8 4 -14l-420 -687c-10 -14 -16 -17 -20 -17s-18 3 -22 5c-5 2 -9 11 -6 16z" />
    <glyph glyph-name="zero" unicode="0" horiz-adv-x="494" 
d="M356 625c119 0 151 -100 151 -189c0 -119 -47 -260 -121 -352c-50 -62 -119 -97 -181 -97c-131 0 -157 113 -157 187c0 133 56 272 117 345c46 57 111 106 191 106zM352 595c-32 0 -60 -29 -94 -92c-61 -112 -100 -276 -100 -396c0 -54 17 -89 47 -89
c61 0 100 94 136 188c29 80 57 217 57 299c0 51 -11 90 -46 90z" />
    <glyph glyph-name="one" unicode="1" horiz-adv-x="494" 
d="M54 9c0 9 10 13 30 16c48 7 57 18 75 61c11 28 40 114 91 288c26 88 41 138 42 154c1 14 -1 20 -8 20c-17 3 -28 5 -43 6c-9 1 -25 5 -25 15c0 9 9 13 27 15c56 7 106 13 149 33c11 5 22 8 27 8c4 0 10 -11 8 -16c-2 -7 -13 -38 -35 -111c-20 -71 -81 -277 -111 -397
c-13 -55 -9 -67 44 -76c10 -2 20 -6 20 -14c0 -10 -15 -14 -32 -14c-32 0 -82 3 -110 3c-55 0 -100 -5 -117 -5c-19 0 -32 5 -32 14z" />
    <glyph glyph-name="two" unicode="2" horiz-adv-x="494" 
d="M317 625c97 0 157 -76 157 -155c0 -93 -64 -151 -123 -201c-75 -64 -141 -110 -228 -174c-7 -6 0 -10 4 -10c24 -1 216 -2 246 3c15 3 34 8 62 47c10 14 14 16 21 16s8 -14 3 -29c-10 -36 -45 -96 -58 -115c-7 -9 -19 -12 -37 -12c-15 0 -210 5 -257 5h-96
c-10 0 -22 1 -22 14c0 6 18 24 26 31c51 36 126 97 190 156c80 72 160 150 160 247c0 67 -49 97 -93 97c-50 0 -93 -26 -119 -51c-14 -13 -24 -22 -29 -22s-9 5 -9 10c1 8 2 12 11 27c37 60 108 116 191 116z" />
    <glyph glyph-name="three" unicode="3" horiz-adv-x="494" 
d="M324 625c89 0 138 -57 138 -113c0 -55 -31 -86 -86 -121c-26 -16 -50 -26 -71 -37c-5 -2 -4 -6 -1 -8c54 -14 93 -42 111 -64c20 -23 28 -58 28 -92c0 -86 -76 -166 -214 -215c-24 -9 -78 -25 -127 -25c-57 0 -98 25 -98 70c1 9 6 24 13 30c5 5 13 1 16 -2
c37 -33 95 -52 136 -52s67 8 88 24c40 29 63 83 63 146c0 89 -51 122 -95 122c-22 0 -36 -2 -55 -7c-7 -2 -17 -4 -23 -4s-12 4 -12 10s10 21 22 27c15 7 57 20 98 41c62 33 91 71 91 134c0 52 -35 80 -81 80c-49 0 -90 -44 -111 -85c-1 -1 -8 -5 -13 0c-6 7 -14 20 -14 32
c0 8 9 22 24 33c28 24 100 76 173 76z" />
    <glyph glyph-name="four" unicode="4" horiz-adv-x="494" 
d="M271 187c-40 0 -182 -6 -230 -8c-4 0 -15 3 -19 8s0 8 1 16c136 135 319 306 415 395c13 13 43 27 63 27c5 0 11 -10 7 -22c-32 -109 -57 -203 -100 -350c-2 -6 3 -9 4 -9c34 1 66 2 85 2c3 1 7 -6 7 -12c0 -18 -18 -40 -23 -40c-8 0 -66 -4 -84 -4c-6 0 -10 -6 -11 -11
c-14 -48 -33 -122 -52 -187c-1 -4 -6 -14 -13 -17c-25 -11 -77 -12 -91 -12c-9 0 -20 9 -17 17c6 21 34 101 62 200c1 5 0 7 -4 7zM286 239c4 0 7 5 9 10c43 134 66 188 80 239c2 4 -2 12 -9 3c-93 -90 -192 -184 -258 -252c-3 -3 -1 -8 5 -8c56 2 108 4 173 8z" />
    <glyph glyph-name="five" unicode="5" horiz-adv-x="494" 
d="M251 601c43 8 189 24 226 24c12 0 16 -8 16 -11c-1 -28 -25 -66 -53 -88c-6 -5 -18 -7 -33 -9c-20 -2 -135 -2 -180 -2c-3 0 -11 -6 -15 -12c-10 -13 -28 -44 -28 -55c0 -5 2 -13 14 -19c38 -19 80 -39 115 -60c76 -44 132 -94 132 -180c0 -59 -32 -112 -91 -158
c-48 -37 -147 -81 -237 -81c-31 0 -88 15 -88 66c0 5 2 17 7 26c3 4 13 9 18 6c34 -25 100 -46 140 -46c63 0 148 25 148 139c0 74 -74 131 -162 170c-55 24 -66 50 -66 56c0 8 8 36 19 60c18 45 63 123 80 144c14 18 26 28 38 30z" />
    <glyph glyph-name="six" unicode="6" horiz-adv-x="494" 
d="M356 416c85 0 119 -78 119 -147c0 -99 -47 -176 -110 -228c-52 -43 -114 -55 -154 -55c-88 0 -160 56 -160 182c0 162 130 326 298 430c70 44 142 72 182 72c17 0 23 -9 23 -13s-2 -6 -12 -12c-118 -61 -221 -145 -284 -242c-4 -6 2 -7 5 -7c29 7 78 20 93 20zM286 375
c-17 0 -42 -11 -54 -24c-42 -47 -71 -157 -71 -240c0 -70 26 -96 62 -96c24 0 49 20 71 48c20 25 66 128 66 211c0 43 -17 101 -74 101z" />
    <glyph glyph-name="seven" unicode="7" horiz-adv-x="494" 
d="M341 612c120 0 179 3 219 3c4 0 13 -4 13 -10c0 -12 -16 -34 -44 -69c-142 -192 -275 -375 -412 -570c-7 -10 -14 -16 -20 -16c-8 0 -21 11 -21 23c-1 7 12 26 27 45c135 177 250 331 362 490c2 3 1 8 -3 8c-9 1 -47 3 -127 3c-74 0 -103 -1 -132 -3
c-36 -3 -43 -15 -71 -53c-10 -14 -19 -20 -25 -20c-14 0 -10 23 -4 35c15 28 61 115 70 129c6 6 15 8 21 8c18 0 69 -3 147 -3z" />
    <glyph glyph-name="eight" unicode="8" horiz-adv-x="494" 
d="M354 640c91 0 148 -58 148 -136c0 -37 -23 -69 -51 -90c-32 -25 -73 -55 -102 -72c-3 -1 -3 -3 -1 -5c51 -58 97 -106 97 -177c0 -50 -34 -97 -82 -129c-41 -26 -95 -44 -151 -44c-112 0 -174 59 -174 139c0 49 37 80 78 111c31 22 66 43 97 65c3 2 2 6 1 7
c-38 43 -70 93 -70 151c0 52 24 104 82 142c46 30 91 38 128 38zM329 609c-39 0 -92 -29 -92 -108c0 -43 42 -101 84 -136c4 -4 7 -3 9 -1c59 44 89 96 89 140c0 64 -36 105 -90 105zM235 19c73 0 107 57 107 104c0 40 -32 88 -96 157c-5 5 -9 5 -12 4
c-57 -39 -105 -88 -105 -147c0 -75 49 -118 106 -118z" />
    <glyph glyph-name="nine" unicode="9" horiz-adv-x="494" 
d="M349 625c113 0 154 -93 154 -175c0 -97 -43 -197 -109 -281c-83 -107 -224 -184 -268 -204c-35 -17 -59 -24 -65 -24s-22 1 -24 7c-2 7 7 13 11 15c85 49 205 160 264 253c1 1 -1 8 -6 6c-38 -11 -79 -19 -94 -19c-58 0 -125 49 -125 156c0 60 32 133 85 185
c54 54 120 81 177 81zM341 595c-19 0 -51 -19 -75 -49c-32 -39 -67 -114 -67 -191c0 -80 39 -110 71 -110c35 0 58 15 76 43c18 31 53 138 53 208c0 47 -8 99 -58 99z" />
    <glyph glyph-name="colon" unicode=":" horiz-adv-x="286" 
d="M182 397c38 0 59 -25 59 -64c0 -50 -41 -74 -70 -74c-41 0 -61 28 -61 65c0 41 36 73 72 73zM105 124c38 0 58 -25 58 -65c0 -49 -40 -72 -70 -72c-40 0 -59 25 -59 62c0 41 35 75 71 75z" />
    <glyph glyph-name="semicolon" unicode=";" horiz-adv-x="286" 
d="M182 397c38 0 59 -25 59 -64c0 -50 -41 -74 -70 -74c-41 0 -61 28 -61 65c0 41 36 73 72 73zM106 150c51 0 70 -50 70 -86c0 -104 -117 -157 -169 -172c-15 -3 -30 2 -30 10c0 11 10 18 25 27c46 25 86 58 86 99c0 23 -15 31 -38 40c-6 3 -15 14 -15 19c0 29 29 63 71 63
z" />
    <glyph glyph-name="less" unicode="&#x3c;" horiz-adv-x="615" 
d="M486 87c5 -3 -1 -37 -19 -54c-6 -6 -8 -4 -19 2l-326 180c-35 20 -41 26 -41 33c0 3 1 9 6 16c6 7 19 18 32 25l327 184c9 5 13 5 19 1c11 -11 31 -45 18 -52l-297 -161c-4 -2 -7 -7 -1 -11z" />
    <glyph glyph-name="equal" unicode="=" horiz-adv-x="624" 
d="M566 377c13 0 15 -3 15 -12c0 -24 -8 -48 -14 -48h-471c-13 0 -18 7 -18 21c0 13 7 39 14 39h474zM566 192c13 0 15 -3 15 -12c0 -25 -8 -48 -14 -48h-473c-12 0 -16 9 -16 22c0 14 7 38 14 38h474z" />
    <glyph glyph-name="greater" unicode="&#x3e;" horiz-adv-x="615" 
d="M544 258c0 -4 -1 -10 -6 -16c-6 -7 -20 -17 -33 -24l-325 -184c-12 -7 -14 -7 -20 -2c-11 11 -32 45 -18 53l296 160c6 2 8 6 2 10l-301 164c-5 3 1 37 19 55c6 6 8 4 19 -2c106 -59 207 -116 325 -181c36 -20 42 -26 42 -33z" />
    <glyph glyph-name="question" unicode="?" horiz-adv-x="392" 
d="M276 619c34 0 55 -7 92 -36c25 -20 53 -66 53 -112c0 -37 -33 -77 -55 -93c-30 -22 -69 -42 -109 -67c-29 -17 -36 -33 -36 -50c0 -18 10 -41 24 -65c4 -7 2 -19 -19 -14c-18 4 -88 42 -88 120c1 39 16 55 40 77c22 19 78 52 123 75c40 20 63 46 63 65
c0 27 -12 50 -47 50c-30 0 -48 -21 -58 -36c-15 -23 -24 -27 -42 -27c-21 0 -42 16 -42 46c0 38 49 67 101 67zM172 134c42 0 63 -28 63 -70c0 -54 -44 -78 -75 -78c-45 0 -65 29 -65 68c0 44 38 80 77 80z" />
    <glyph glyph-name="at" unicode="@" horiz-adv-x="861" 
d="M338 113c0 -19 8 -35 20 -35c8 0 27 4 61 35c55 49 100 138 118 179c1 4 0 9 -3 12c-9 8 -29 16 -48 16c-18 0 -42 -6 -72 -40c-41 -45 -76 -112 -76 -167zM236 55c-1 35 30 99 98 183c57 70 150 135 189 135c10 0 31 -5 40 -11c1 0 4 0 5 1c5 8 11 23 14 30
c2 5 10 7 14 7c11 0 47 -7 54 -14c2 -2 5 -6 4 -10c-20 -47 -90 -215 -103 -283c-5 -26 3 -43 26 -43c103 0 197 96 197 227c0 165 -123 259 -286 259c-242 0 -361 -204 -361 -392c0 -150 91 -312 305 -312c87 0 161 26 221 78c5 5 17 9 17 -3c0 -8 -7 -22 -15 -30
c-59 -60 -165 -91 -249 -91c-175 0 -358 110 -358 358c0 272 244 430 436 430c223 0 336 -142 336 -296c0 -138 -123 -273 -292 -273c-48 0 -69 19 -70 32c0 7 2 18 5 27l28 72c2 6 -2 8 -8 2c-70 -71 -152 -133 -210 -133c-19 0 -37 27 -37 50z" />
    <glyph glyph-name="A" unicode="A" horiz-adv-x="655" 
d="M628 654c9 0 14 -7 4 -37c-9 -26 -23 -69 -33 -110c-24 -112 -56 -268 -77 -388c-13 -70 -4 -85 46 -93c14 -2 26 -8 26 -17c0 -8 -18 -12 -32 -12c-34 0 -50 3 -87 3c-50 0 -113 -7 -154 -7c-12 0 -28 3 -27 12c0 7 13 14 31 17c58 7 66 48 71 62c13 43 31 121 38 156
c2 8 0 14 -11 14c-17 0 -106 -5 -140 -10c-12 -2 -26 -12 -39 -26c-23 -24 -67 -78 -93 -119c-21 -34 -20 -64 30 -75c10 -3 18 -8 18 -15c0 -8 -14 -13 -27 -13c-41 0 -65 4 -113 4c-38 0 -83 -5 -94 -5c-25 0 -33 6 -33 15c0 8 13 13 32 16c59 7 92 30 130 73
c137 151 293 345 368 438c17 20 36 43 43 57c2 3 11 12 14 12c20 1 62 5 88 36c6 7 16 12 21 12zM311 283c9 0 91 4 123 8c3 0 11 9 13 14c9 22 34 144 41 176c4 23 6 31 2 31s-12 -7 -22 -17c-42 -42 -132 -161 -160 -200c-2 -4 0 -12 3 -12z" />
    <glyph glyph-name="B" unicode="B" horiz-adv-x="610" 
d="M593 517c0 -92 -76 -141 -170 -165c-7 -1 -10 -10 -2 -13c32 -12 67 -31 90 -50c23 -21 42 -57 42 -102c0 -73 -47 -127 -104 -156c-40 -21 -123 -36 -207 -36c-56 0 -85 5 -126 5c-11 0 -87 -4 -121 -4c-12 0 -28 5 -28 12c0 8 8 13 30 16c67 8 71 24 97 92
c22 53 114 362 130 431c7 29 10 49 -19 54c-8 1 -27 2 -43 4c-15 2 -29 8 -29 15c0 8 13 13 29 13h113c10 0 75 8 127 8c51 0 101 -4 135 -25c38 -26 56 -62 56 -99zM429 193c0 38 -17 85 -40 105c-26 24 -61 36 -103 36c-4 0 -10 -5 -14 -14c-14 -33 -55 -167 -66 -223
c-5 -24 0 -37 12 -49c19 -18 51 -24 58 -24c27 0 77 21 111 61c23 29 42 74 42 108zM479 508c0 50 -37 104 -105 104c-10 0 -19 -9 -26 -30c-11 -36 -46 -159 -61 -213c-1 -5 5 -10 10 -10c37 0 79 5 100 16c35 16 82 68 82 133z" />
    <glyph glyph-name="C" unicode="C" horiz-adv-x="657" 
d="M76 234c0 107 52 223 136 303c80 75 195 113 296 113c61 0 115 -14 142 -26c18 -8 24 -7 40 2c14 7 18 8 21 4c2 -2 9 -15 3 -24c-24 -35 -41 -73 -57 -129c-5 -16 -9 -19 -13 -19c-9 0 -17 15 -15 29c7 45 1 65 -19 89c-25 32 -71 47 -94 47c-42 0 -116 -16 -195 -96
c-77 -77 -116 -207 -116 -304c0 -57 13 -105 34 -135c39 -54 87 -70 126 -70c29 0 86 25 118 48c24 20 60 49 87 82c7 7 12 12 17 12c7 0 6 -18 3 -32c-9 -28 -77 -126 -82 -133c-3 -4 -15 -10 -18 -7c-12 10 -30 19 -53 14c-21 -4 -73 -20 -118 -20c-73 0 -181 27 -224 134
c-14 32 -19 71 -19 118z" />
    <glyph glyph-name="D" unicode="D" horiz-adv-x="737" 
d="M411 639c72 0 148 -16 208 -63c68 -53 98 -133 98 -213c0 -143 -88 -253 -169 -301c-82 -50 -168 -68 -278 -68c-74 0 -114 6 -156 6c-41 0 -97 -4 -117 -4c-21 0 -34 4 -35 14c0 8 12 14 31 16c51 6 78 12 103 95c36 115 91 303 127 422c12 39 4 57 -18 60
c-17 2 -34 4 -52 5c-14 0 -28 5 -28 12c0 8 10 15 32 15c20 0 64 -2 91 -2c29 0 107 6 163 6zM404 610c-9 0 -25 -4 -29 -6c-6 -2 -15 -10 -18 -17c-16 -30 -38 -104 -83 -259c-43 -145 -54 -202 -56 -239c-1 -19 3 -40 12 -45c17 -10 49 -21 56 -21c53 0 109 22 159 56
c82 55 144 174 144 303c0 75 -28 154 -72 188c-31 25 -72 40 -113 40z" />
    <glyph glyph-name="E" unicode="E" horiz-adv-x="605" 
d="M290 335l94 3c63 2 74 14 103 54c8 10 15 18 23 18c9 0 9 -21 1 -38c-21 -42 -35 -98 -43 -132c-3 -15 -12 -25 -17 -25c-6 0 -13 8 -13 30c-1 41 -16 51 -41 51l-111 -3c-8 0 -21 -6 -25 -16c-11 -31 -29 -102 -40 -148c-10 -40 -11 -59 0 -78c8 -14 18 -17 38 -19
c34 -4 92 -6 112 -6c22 0 52 11 69 22c26 14 59 47 87 85c13 16 20 24 28 24c7 0 9 -6 5 -26c-7 -31 -32 -88 -50 -111c-9 -10 -15 -17 -24 -20c-9 -4 -40 -6 -60 -6c-46 0 -251 6 -308 6c-56 0 -98 -5 -128 -5c-18 0 -31 6 -31 14c0 6 10 14 30 16c75 8 87 30 102 81
c35 110 95 308 130 424c17 55 4 69 -62 80c-14 3 -24 7 -24 16c0 7 15 11 35 11c25 0 75 -4 126 -4h94c150 0 191 2 222 10c7 2 9 -14 7 -17c-20 -36 -36 -105 -39 -122c-1 -5 -5 -8 -9 -8c-8 0 -22 12 -23 31c-2 44 -12 61 -32 68c-16 6 -46 7 -99 7c-41 0 -47 -10 -59 -29
c-20 -32 -62 -177 -75 -225c-2 -6 3 -13 7 -13z" />
    <glyph glyph-name="F" unicode="F" horiz-adv-x="548" 
d="M292 633h105c122 0 192 1 218 10c4 1 5 1 8 -1c4 -3 7 -13 4 -17c-16 -22 -39 -88 -45 -118c-3 -19 -8 -23 -14 -23s-16 11 -16 32c0 47 -8 87 -99 87c-26 0 -66 -1 -80 -3c-9 -1 -17 -9 -26 -31c-14 -32 -57 -180 -65 -217c-1 -5 2 -13 9 -15c10 -4 37 -7 51 -7
c36 0 55 1 74 4c21 4 42 16 60 43c12 19 18 21 23 21c8 0 10 -15 4 -30c-29 -67 -39 -126 -42 -140c-3 -19 -12 -26 -17 -26c-7 0 -12 10 -12 27c-2 51 -14 59 -34 60c-12 1 -32 2 -53 2c-24 0 -57 0 -69 -1c-8 -1 -15 -11 -19 -24c-6 -22 -28 -106 -38 -153
c-14 -68 2 -78 68 -89c11 -2 19 -7 19 -13c0 -8 -12 -14 -33 -14c-44 0 -77 3 -116 3c-41 0 -101 -6 -160 -6c-20 0 -28 9 -28 14c0 6 7 13 31 16c65 8 70 25 92 89c28 84 106 351 123 421c13 54 5 67 -57 75c-16 2 -29 8 -30 15c0 7 14 14 32 14c36 0 76 -5 132 -5z" />
    <glyph glyph-name="G" unicode="G" horiz-adv-x="707" 
d="M530 651c48 0 101 -9 128 -16c15 -4 29 1 44 5c10 2 16 4 21 4c4 0 11 -15 6 -23c-29 -32 -56 -98 -63 -133c-3 -15 -7 -25 -12 -25c-9 0 -19 9 -19 31c0 33 6 57 -5 78c-15 29 -56 50 -103 50c-76 0 -137 -36 -201 -102c-74 -77 -119 -195 -119 -298
c0 -105 41 -210 165 -210c15 0 25 5 37 13c9 5 14 10 21 22c18 26 40 96 57 152c8 31 8 53 -60 60c-15 2 -29 8 -29 17c0 7 16 13 32 13c40 0 67 -4 114 -4c53 0 90 10 121 10c20 0 27 -7 27 -13c-1 -7 -11 -12 -26 -16c-41 -11 -46 -24 -60 -51c-10 -22 -21 -56 -30 -87
c-8 -30 -16 -61 -18 -86c0 -3 -19 -21 -33 -25c-38 -9 -107 -36 -179 -36c-191 0 -269 107 -269 252c0 88 41 203 121 286c81 84 197 132 332 132z" />
    <glyph glyph-name="H" unicode="H" horiz-adv-x="771" 
d="M149 624c0 9 9 13 34 13s69 -4 117 -4c62 0 107 4 123 4c19 0 28 -6 28 -13c-1 -9 -16 -15 -33 -17c-46 -7 -56 -23 -68 -50c-18 -39 -46 -128 -58 -174c-8 -28 -3 -32 2 -34c14 -2 40 -2 56 -2c69 -1 186 1 213 4c12 1 18 13 21 23c10 27 33 98 50 168
c10 39 3 60 -46 67c-14 3 -24 9 -23 15c0 6 5 13 33 13c22 0 82 -4 121 -4c40 0 83 4 114 4c18 0 26 -7 26 -12c-1 -10 -14 -15 -29 -17c-46 -7 -56 -21 -78 -69c-36 -83 -115 -377 -126 -431c-11 -61 0 -73 44 -81c24 -6 29 -11 29 -17c0 -10 -12 -14 -26 -14
c-36 0 -107 4 -142 4c-41 0 -88 -4 -113 -4c-21 0 -27 9 -27 14c0 7 7 13 30 16c46 6 57 22 73 55c15 36 52 168 66 213c0 2 -5 11 -10 11c-81 0 -202 -2 -270 -4c-5 0 -11 -1 -24 -33c-11 -30 -39 -125 -45 -165c-8 -49 -3 -67 53 -77c16 -3 26 -8 26 -17
c0 -6 -11 -14 -31 -14s-86 5 -129 5c-48 0 -122 -5 -134 -5s-27 7 -27 14c0 8 11 15 28 17c65 9 71 19 93 81c20 56 121 386 135 441c11 43 1 52 -50 60c-14 3 -26 8 -26 16z" />
    <glyph glyph-name="I" unicode="I" horiz-adv-x="360" 
d="M147 622c0 5 8 12 28 12c30 0 53 -1 86 -1c54 0 127 5 155 5c17 0 27 -6 27 -11c0 -10 -8 -15 -31 -19c-52 -10 -56 -22 -76 -70c-26 -64 -108 -375 -120 -432c-12 -59 -9 -70 42 -80c17 -3 26 -10 26 -15c0 -9 -10 -14 -29 -14c-32 0 -65 3 -88 3c-60 0 -119 -7 -165 -7
c-19 0 -27 7 -27 12c0 8 12 15 27 17c65 8 70 30 93 89c21 52 101 343 117 412c15 65 10 74 -39 83c-17 3 -25 7 -26 16z" />
    <glyph glyph-name="J" unicode="J" horiz-adv-x="362" 
d="M-63 -204c-42 0 -74 10 -83 21c-7 8 -17 22 -17 50c0 29 12 42 23 42c17 0 49 -28 65 -42c19 -16 42 -33 59 -33c24 0 49 37 104 219c21 72 108 382 127 458c18 72 8 88 -47 96c-18 3 -28 8 -28 19c0 5 12 10 29 10c33 0 78 -3 127 -3c58 0 94 4 125 4c17 0 28 -6 28 -13
c1 -9 -14 -14 -27 -16c-53 -10 -55 -21 -77 -78c-25 -64 -111 -380 -117 -400c-18 -68 -31 -106 -43 -137c-51 -141 -183 -197 -248 -197z" />
    <glyph glyph-name="K" unicode="K" horiz-adv-x="681" 
d="M152 624c0 7 15 12 29 12c36 0 75 -3 122 -3c42 0 86 6 118 6c21 0 26 -6 26 -12c0 -9 -14 -16 -30 -18c-45 -7 -63 -25 -77 -65c-10 -29 -27 -84 -58 -190c-3 -8 2 -13 8 -13c25 0 41 7 52 12c54 28 192 157 242 205c29 29 16 42 -10 48c-19 4 -24 11 -24 17
c0 7 10 11 29 11c13 0 21 -1 39 -1c61 0 131 6 159 6c13 0 25 -3 25 -11s-7 -13 -27 -16c-77 -14 -117 -46 -174 -89c-46 -36 -152 -122 -183 -153c-5 -5 -8 -9 -8 -14c0 -7 9 -41 14 -55c29 -80 75 -184 104 -225c22 -28 41 -54 97 -54c16 0 27 -7 27 -14
c0 -10 -15 -15 -39 -15c-35 0 -109 4 -141 4c-14 0 -23 1 -31 7c-16 11 -32 25 -54 78l-76 195c-9 24 -19 37 -30 37c-9 0 -10 -1 -15 -16c-7 -21 -40 -125 -56 -195c-12 -52 3 -68 46 -78c26 -5 28 -9 28 -18c0 -7 -11 -12 -25 -12c-41 0 -97 5 -129 5
c-27 0 -106 -5 -124 -5c-17 0 -31 5 -30 12c0 10 9 14 29 18c53 10 65 26 83 69c25 65 108 353 128 427c18 66 16 76 -36 86c-17 3 -29 11 -28 17z" />
    <glyph glyph-name="L" unicode="L" horiz-adv-x="615" 
d="M298 26c50 0 117 2 152 14c31 11 76 48 106 106c11 21 17 26 25 26c10 0 7 -26 1 -43c-10 -28 -43 -88 -55 -114c-4 -7 -17 -18 -24 -19c-8 -2 -45 -4 -101 -4c-55 0 -220 8 -287 8c-40 0 -102 -7 -125 -7s-32 6 -32 13c0 9 11 13 31 16c55 8 79 20 98 70
c34 87 117 351 139 420c24 80 15 88 -29 96c-19 4 -28 9 -28 18c1 6 11 11 30 11c22 0 87 -4 117 -4c23 0 104 5 136 5c20 0 27 -9 27 -14c0 -6 -13 -13 -28 -15c-66 -8 -78 -32 -101 -90c-28 -70 -114 -329 -137 -413c-7 -28 -4 -55 14 -68c11 -7 33 -12 71 -12z" />
    <glyph glyph-name="M" unicode="M" horiz-adv-x="872" 
d="M143 623c0 11 18 14 36 14c15 0 84 -4 130 -4c16 0 36 1 41 1c7 0 16 -4 19 -25c11 -89 29 -182 43 -261c10 -55 20 -110 28 -128c3 -8 10 -5 13 0c47 67 156 216 201 269c45 55 69 98 84 127c3 5 15 17 24 17c31 0 130 5 163 5c20 0 28 -6 28 -12c0 -10 -14 -15 -38 -18
c-57 -8 -68 -42 -78 -71c-44 -126 -91 -330 -106 -426c-10 -60 1 -77 48 -86c26 -5 29 -12 29 -19c0 -6 -12 -11 -28 -11c-22 0 -116 5 -159 5c-36 0 -64 -5 -95 -5c-18 0 -30 2 -30 12c0 9 8 14 30 18c42 8 58 30 70 68c26 80 86 288 119 407c4 12 -7 11 -14 3
c-41 -43 -170 -226 -214 -292c-46 -70 -73 -125 -99 -167c-16 -26 -29 -36 -36 -36c-14 0 -18 15 -19 35c-1 42 -7 105 -15 159c-14 119 -32 247 -42 270c-3 6 -8 9 -13 -1c-19 -28 -104 -256 -120 -320c-20 -83 -14 -114 41 -124c21 -4 28 -9 28 -17c0 -7 -14 -13 -31 -13
c-21 0 -40 3 -82 3c-52 0 -87 -6 -128 -6c-17 0 -26 8 -26 13c0 9 9 13 29 16c65 9 85 32 102 75c26 60 147 365 164 411c23 60 5 85 -26 92c-15 4 -27 6 -42 8c-17 3 -29 7 -29 14z" />
    <glyph glyph-name="N" unicode="N" horiz-adv-x="735" 
d="M123 625c0 6 9 12 30 12c30 0 83 -4 126 -4c7 0 53 2 61 2c7 1 14 -12 21 -33c27 -75 161 -413 180 -454c2 -5 10 -8 12 -2c41 119 95 303 110 374c13 58 6 78 -59 89c-15 2 -29 8 -29 16c0 6 7 11 28 11c30 0 54 -3 81 -3c42 0 101 4 122 4c20 1 27 -6 27 -12
c1 -6 -10 -12 -30 -16c-47 -8 -66 -26 -93 -98c-23 -61 -71 -201 -127 -389c-5 -19 -8 -28 -8 -39c0 -28 7 -41 43 -59c9 -4 13 -8 13 -15c0 -5 -15 -13 -22 -13c-13 1 -61 4 -68 4c-18 0 -50 -2 -56 -3c-9 0 -18 3 -22 16c-7 26 -20 61 -32 92c-29 83 -86 236 -128 344
c-10 27 -22 60 -30 72c-6 9 -11 7 -16 -6c-28 -68 -96 -313 -107 -374c-15 -89 -5 -105 47 -116c27 -5 32 -10 32 -17c0 -9 -12 -13 -32 -13c-25 0 -59 5 -97 5c-39 0 -81 -6 -109 -6c-27 0 -33 7 -33 13c0 7 11 13 28 16c59 9 81 20 101 77c38 111 121 367 135 420
c6 24 8 39 5 51c-3 14 -11 25 -30 30c-17 5 -37 7 -49 9c-14 2 -25 9 -25 15z" />
    <glyph glyph-name="O" unicode="O" horiz-adv-x="697" 
d="M467 652c129 0 220 -100 220 -246c0 -135 -82 -303 -206 -376c-53 -32 -120 -50 -177 -50c-58 0 -122 17 -165 60c-29 28 -68 85 -68 180c0 110 64 271 181 361c52 41 135 71 215 71zM467 624c-47 0 -86 -25 -124 -63c-92 -90 -150 -267 -150 -403
c0 -77 30 -148 112 -148c39 0 78 19 120 63c60 62 142 237 142 383c0 93 -29 168 -100 168z" />
    <glyph glyph-name="P" unicode="P" horiz-adv-x="590" 
d="M380 640c68 0 130 -11 166 -35c46 -31 64 -78 64 -125c0 -112 -92 -177 -141 -197c-47 -18 -95 -21 -119 -21c-11 0 -36 3 -36 17c0 10 9 11 19 13c22 5 42 10 58 18c63 31 102 122 102 172c0 56 -14 98 -49 115c-16 7 -36 14 -65 14c-6 0 -18 -8 -22 -19
c-35 -83 -109 -343 -141 -475c-19 -74 1 -81 50 -93c18 -4 26 -9 26 -17s-14 -12 -30 -12c-20 0 -59 5 -115 5c-41 0 -111 -5 -151 -5c-15 0 -26 5 -26 11c0 9 11 15 30 19c59 9 71 23 88 75c22 66 98 318 135 439c13 40 9 61 -44 66c-34 3 -39 10 -39 18c-1 5 8 10 25 10
h55c38 2 108 7 160 7z" />
    <glyph glyph-name="Q" unicode="Q" horiz-adv-x="692" 
d="M467 651c156 0 219 -130 219 -231c0 -167 -99 -305 -213 -376c-84 -52 -160 -74 -267 -111c-8 -3 -14 -8 -6 -8c125 1 187 -46 244 -79c73 -41 135 -74 188 -74c68 0 103 8 141 39c16 16 27 11 27 3c0 -9 -3 -17 -14 -31c-46 -59 -125 -92 -203 -92
c-98 0 -177 51 -252 100c-73 48 -127 82 -199 82c-54 0 -94 -15 -121 -28c-7 -4 -19 -3 -19 6c-1 5 6 22 32 35c77 39 159 70 224 97c6 2 7 4 -3 8c-50 13 -173 77 -173 231c0 184 117 319 205 373c39 24 109 56 190 56zM464 621c-21 0 -68 0 -119 -52
c-86 -84 -151 -253 -151 -385c0 -114 42 -176 103 -176c8 0 38 11 68 33c112 85 200 265 200 421c0 45 -15 159 -101 159z" />
    <glyph glyph-name="R" unicode="R" horiz-adv-x="631" 
d="M608 508c0 -63 -35 -110 -86 -143c-18 -11 -50 -22 -75 -30c-5 -1 -9 -10 -8 -16c18 -82 38 -172 63 -220c26 -52 45 -71 100 -77c16 -2 24 -7 24 -15c0 -7 -11 -12 -27 -14c-25 -3 -78 2 -105 3c-68 1 -85 12 -111 97c-20 61 -31 110 -44 164c-5 16 -22 48 -39 48
c-14 0 -18 -1 -27 -1c-5 0 -12 -3 -18 -21c-6 -15 -35 -123 -44 -166c-14 -68 -6 -82 49 -93c12 -3 24 -8 24 -16c0 -10 -14 -13 -30 -13c-52 0 -97 5 -149 5c-31 0 -64 -4 -95 -4c-16 0 -32 4 -32 12c0 11 18 16 33 18c52 7 60 30 66 46c23 54 135 420 145 465
c11 45 15 64 -52 69c-21 1 -33 7 -33 14c0 9 12 13 28 13c44 0 76 0 108 1c33 1 101 7 130 7c67 0 121 -6 156 -33c30 -23 49 -54 49 -100zM489 493c0 65 -38 118 -112 118c-6 0 -21 -12 -25 -20c-21 -46 -65 -203 -77 -246c-1 -7 6 -14 12 -14c29 0 68 5 89 12
c65 24 113 81 113 150z" />
    <glyph glyph-name="S" unicode="S" horiz-adv-x="495" 
d="M351 651c56 0 85 -11 112 -20c11 -4 30 -8 35 -8c13 0 19 2 24 2c4 1 10 -9 7 -15c-20 -34 -41 -95 -47 -133c-1 -12 -5 -21 -11 -21c-7 0 -19 11 -18 30c2 31 5 59 -12 86c-17 28 -49 53 -90 53c-64 0 -101 -57 -101 -108c0 -39 16 -70 38 -97c14 -17 66 -74 106 -126
c46 -57 52 -89 52 -131c0 -60 -38 -118 -89 -147c-48 -27 -103 -35 -150 -35c-50 0 -106 20 -130 31c-15 6 -24 3 -47 -6c-6 -3 -14 -1 -21 5c-5 5 -6 8 -1 16c20 37 46 121 55 148c6 17 17 26 25 26c6 0 8 -7 6 -29c-6 -52 4 -94 15 -107c27 -32 64 -55 109 -55
c38 0 67 15 84 32c21 18 30 47 30 75c0 45 -28 89 -98 169c-60 68 -90 122 -90 185c0 53 24 97 56 127c30 28 81 53 151 53z" />
    <glyph glyph-name="T" unicode="T" horiz-adv-x="653" 
d="M353 633h248c53 0 92 2 107 8c8 4 15 7 19 7s15 -11 7 -22c-18 -30 -43 -82 -51 -125c-1 -9 -5 -20 -12 -20c-8 0 -16 8 -16 27c2 63 7 84 -42 92c-23 3 -74 4 -107 1c-4 0 -15 -9 -17 -14c-18 -40 -120 -396 -136 -470c-14 -65 -6 -81 58 -91c12 -2 26 -8 26 -16
s-10 -14 -30 -14c-18 0 -67 4 -116 4c-65 0 -144 -5 -173 -5c-19 0 -31 6 -31 12c0 8 14 15 27 16c77 11 90 23 116 97c46 136 124 404 141 467c1 6 -3 12 -8 13c-28 3 -80 2 -113 -2c-37 -5 -80 -37 -109 -83c-13 -20 -23 -23 -31 -23s-7 8 -4 19c6 19 39 71 55 131
c1 4 14 13 20 13c1 0 5 -2 7 -6c2 -5 15 -13 45 -15c26 -1 64 -1 120 -1z" />
    <glyph glyph-name="U" unicode="U" horiz-adv-x="721" 
d="M126 624c0 8 10 12 30 12c33 0 100 -3 129 -3c23 0 83 4 113 4c20 0 25 -6 25 -11c0 -8 -9 -12 -28 -17c-37 -8 -49 -13 -64 -53c-30 -79 -68 -225 -85 -287c-29 -106 -19 -152 -7 -172c20 -33 75 -59 127 -59c103 0 152 50 182 126c30 72 97 284 109 344
c18 84 8 89 -55 99c-16 3 -27 7 -27 16c0 7 11 12 26 12c29 0 78 -2 107 -2c36 0 68 4 91 4c22 0 27 -7 27 -12c1 -6 -11 -13 -29 -17c-50 -10 -60 -25 -92 -105c-25 -66 -79 -221 -106 -300c-16 -46 -39 -109 -73 -143c-64 -67 -134 -78 -209 -78c-55 0 -144 18 -184 91
c-27 49 -23 102 -18 127c14 67 60 233 81 305c22 75 17 94 -41 103c-21 4 -29 10 -29 16z" />
    <glyph glyph-name="V" unicode="V" horiz-adv-x="625" 
d="M105 624c0 5 13 11 29 11c18 0 69 -2 106 -2c41 0 120 5 133 5c15 0 27 -4 27 -12c0 -7 -9 -13 -26 -17c-57 -9 -63 -25 -76 -73c-13 -49 -53 -314 -54 -356c0 -7 5 -9 11 -4c72 73 272 298 309 352c34 51 36 73 -4 79c-16 3 -25 7 -25 17c0 6 10 11 31 11
c11 0 34 -2 75 -2c37 0 77 3 105 3c14 0 24 -4 24 -11c0 -9 -13 -14 -29 -17c-47 -9 -83 -31 -139 -93c-109 -124 -264 -290 -375 -422c-27 -33 -58 -70 -76 -93c-13 -16 -24 -22 -30 -22c-10 0 -22 16 -18 37c5 26 16 76 27 138c20 119 41 283 53 367c7 59 6 80 -50 88
c-19 2 -28 7 -28 16z" />
    <glyph glyph-name="W" unicode="W" horiz-adv-x="934" 
d="M100 624c0 9 17 12 31 12c33 0 71 -3 104 -3c34 0 80 4 115 4c18 0 30 -6 30 -11c0 -9 -10 -14 -22 -17c-35 -6 -48 -13 -59 -51c-18 -61 -58 -326 -60 -364c-1 -8 9 -3 13 2c77 89 221 265 251 327c5 8 8 15 8 23c5 32 3 55 -41 61c-14 2 -28 8 -27 16c0 10 14 12 29 12
c34 0 73 -2 105 -2c31 0 105 5 119 5s26 -5 26 -11c0 -9 -10 -15 -27 -18c-47 -10 -59 -16 -67 -53c-13 -58 -36 -340 -32 -370c1 -4 5 -10 11 -4c46 43 233 280 267 337c45 73 28 81 -20 88c-15 2 -27 8 -26 14c0 10 10 14 30 14c14 0 58 -2 96 -2c39 0 76 4 96 4
c10 0 27 -2 27 -10c-1 -12 -20 -17 -31 -19c-58 -9 -90 -51 -127 -94c-69 -84 -241 -300 -295 -363c-47 -57 -92 -122 -107 -142c-17 -20 -30 -26 -36 -26c-11 0 -14 17 -13 24c9 70 12 95 18 156c10 115 19 242 21 285c1 10 -11 6 -15 0c-68 -94 -211 -268 -255 -322
c-47 -60 -73 -102 -88 -119c-13 -15 -35 -28 -44 -28c-7 0 -14 11 -11 25c9 36 20 95 32 162c22 123 43 290 51 352c9 71 -2 80 -50 89c-21 4 -27 11 -27 17z" />
    <glyph glyph-name="X" unicode="X" horiz-adv-x="640" 
d="M126 624c0 7 12 12 34 12c21 0 78 -3 116 -3c57 0 90 3 107 3c16 0 25 -6 25 -12c0 -10 -13 -14 -29 -16c-33 -5 -38 -17 -34 -45c5 -44 34 -143 47 -173c2 -3 5 -4 8 -1c39 37 127 138 145 168c24 36 2 46 -29 54c-14 3 -17 8 -17 14c0 8 15 11 31 11s57 -3 75 -3
c37 0 92 5 113 5s29 -4 29 -12c1 -7 -11 -13 -25 -15c-57 -7 -94 -29 -146 -79c-50 -49 -118 -121 -164 -170c-5 -6 -6 -17 -5 -20c15 -64 59 -202 81 -255c16 -36 34 -57 83 -63c21 -3 30 -9 30 -16c0 -8 -10 -13 -30 -13c-16 0 -105 5 -148 5c-40 0 -73 -6 -92 -6
c-24 0 -29 9 -29 14c0 8 12 11 23 14c38 10 44 29 44 41c-4 42 -44 178 -54 206c-1 4 -4 6 -8 3c-38 -37 -105 -120 -134 -169c-20 -32 -30 -68 15 -77c18 -4 24 -8 24 -15c-1 -7 -13 -14 -26 -14c-36 0 -57 3 -93 3c-53 0 -96 -6 -118 -6c-27 0 -34 8 -34 14
c1 7 8 12 25 14c57 7 99 22 164 93l165 188c4 5 5 17 4 21c-4 14 -43 152 -62 200c-18 49 -25 78 -80 84c-17 2 -31 7 -31 16z" />
    <glyph glyph-name="Y" unicode="Y" horiz-adv-x="617" 
d="M107 624c1 7 13 12 34 12c24 0 79 -3 115 -3c48 0 88 4 107 4c16 0 27 -6 27 -11c0 -8 -11 -14 -27 -17c-49 -10 -47 -26 -42 -51c7 -42 38 -176 51 -206c3 -4 6 -4 8 -1c41 43 140 163 166 204c23 38 4 49 -29 55c-12 3 -18 9 -18 15c0 7 15 11 32 11c14 0 48 -3 83 -3
c24 0 82 4 97 4c16 0 27 -2 27 -12c0 -9 -16 -13 -33 -17c-54 -10 -73 -30 -125 -79c-54 -51 -147 -159 -187 -209c-5 -6 -20 -31 -27 -56c-16 -55 -45 -150 -51 -185c-1 -10 -5 -46 52 -54c15 -2 29 -8 29 -16s-15 -14 -34 -14c-22 0 -75 5 -119 5c-65 0 -106 -6 -144 -6
c-19 0 -30 7 -30 13c0 8 14 13 29 16c63 9 87 23 109 90l40 120c14 42 19 69 16 93c-6 45 -30 131 -49 191c-24 75 -38 85 -85 93c-12 2 -22 6 -22 14z" />
    <glyph glyph-name="Z" unicode="Z" horiz-adv-x="652" 
d="M358 633c99 -1 293 4 317 4c12 0 18 -3 18 -7c0 -7 -9 -21 -18 -29c-16 -13 -48 -45 -113 -117c-68 -74 -326 -367 -380 -435c-4 -6 -2 -16 5 -17c65 -4 116 -3 176 -3c57 0 89 9 113 20c37 17 86 61 112 103c14 21 22 31 28 31c8 0 10 -19 6 -31
c-7 -21 -38 -82 -50 -106c-15 -27 -22 -35 -34 -44c-7 -6 -80 -7 -116 -7c-59 0 -289 5 -326 5c-31 0 -81 -5 -100 -5c-9 0 -11 17 0 28c152 141 469 507 511 565c3 4 4 14 -1 14c-69 0 -103 1 -171 -2c-63 -3 -94 -11 -117 -34c-23 -22 -53 -69 -62 -87
c-7 -14 -11 -17 -16 -17c-8 0 -12 13 -9 31c3 21 36 94 49 124c2 6 15 21 21 21c7 0 25 -5 38 -5c44 -1 61 0 119 0z" />
    <glyph glyph-name="bracketleft" unicode="[" horiz-adv-x="380" 
d="M300 703c57 0 125 1 141 1c17 0 25 -6 25 -13c0 -8 -12 -17 -32 -20l-86 -7c-14 0 -17 -10 -23 -26c-19 -55 -55 -173 -99 -322c-31 -108 -66 -241 -109 -400c-9 -33 -7 -51 5 -52c13 -2 70 -4 84 -5c10 0 29 -4 26 -17c-2 -8 -16 -13 -34 -16c-8 -1 -56 -2 -84 -2
s-69 1 -81 2c-7 0 -14 16 -11 25l172 596l68 235c4 13 8 15 13 18c4 3 14 3 25 3z" />
    <glyph glyph-name="backslash" unicode="\" horiz-adv-x="386" 
d="M284 -48c0 -2 -10 -16 -28 -16h-8c-8 0 -10 8 -10 11c-26 233 -50 464 -71 697c0 2 9 9 11 9l24 2c7 1 10 -4 12 -7c21 -232 46 -463 70 -696z" />
    <glyph glyph-name="bracketright" unicode="]" horiz-adv-x="380" 
d="M100 -175c-56 0 -125 -1 -140 -1c-17 0 -25 6 -25 13c0 8 12 16 32 19c11 2 67 5 86 6c14 1 17 11 23 27c19 56 55 173 98 323c31 108 67 240 110 400c9 33 7 50 -5 51l-81 5c-11 0 -32 5 -29 17c2 9 18 14 36 17c8 1 54 2 82 2c27 0 69 -1 81 -2c7 0 14 -16 11 -25
l-172 -597l-68 -234c-4 -13 -8 -15 -13 -18c-4 -3 -15 -3 -26 -3z" />
    <glyph glyph-name="asciicircum" unicode="^" horiz-adv-x="485" 
d="M273 626c14 0 26 -25 35 -42l151 -299c6 -12 7 -14 2 -19c-11 -12 -46 -33 -53 -19l-133 281c-3 6 -7 8 -11 2l-138 -288c-2 -5 -36 3 -54 19c-6 7 -4 9 2 20l153 304c18 36 39 41 46 41z" />
    <glyph glyph-name="underscore" unicode="_" horiz-adv-x="495" 
d="M-60 -124h495v-49h-495v49z" />
    <glyph glyph-name="quoteleft" unicode="&#x2018;" horiz-adv-x="238" 
d="M312 676c0 -8 -8 -16 -22 -22c-35 -15 -75 -51 -75 -94c0 -29 18 -43 39 -51c8 -2 12 -11 12 -16c0 -22 -25 -47 -64 -47c-49 0 -73 50 -73 87c0 97 98 148 156 156c8 1 27 0 27 -13z" />
    <glyph glyph-name="a" unicode="a" horiz-adv-x="468" 
d="M299 392c3 0 29 -7 43 -21c2 -2 9 0 10 4l17 29c2 4 14 9 19 9c15 0 36 -8 54 -18c2 -1 4 -12 1 -19c-22 -57 -82 -205 -107 -284c-6 -19 7 -25 16 -25c21 0 57 28 82 56c8 9 15 4 15 -4c0 -7 -2 -16 -9 -27c-47 -79 -119 -108 -160 -108c-28 0 -48 17 -49 39
c0 13 23 67 35 98c4 8 -2 16 -7 10c-79 -88 -163 -147 -214 -147c-18 0 -53 18 -53 43c0 23 11 56 40 105c61 101 168 207 230 245c18 11 31 15 37 15zM282 327c-38 0 -74 -21 -102 -58c-33 -42 -70 -117 -70 -169c0 -24 11 -36 21 -36c15 0 45 19 83 63
c33 36 78 107 100 157c6 12 5 22 3 25c-11 11 -28 18 -35 18z" />
    <glyph glyph-name="b" unicode="b" horiz-adv-x="484" 
d="M379 407c51 0 83 -40 83 -88c0 -102 -91 -236 -195 -297c-50 -29 -98 -38 -123 -38c-54 0 -107 32 -107 107c0 23 19 92 43 166c23 75 97 286 116 341c12 35 2 41 -24 57c-7 4 -13 12 -13 15c0 6 13 14 25 17s126 19 145 19c5 0 8 -10 6 -16c-25 -47 -125 -316 -159 -417
c-1 -4 6 -6 8 -2c55 72 134 136 195 136zM335 359c-49 0 -98 -67 -140 -132c-46 -76 -67 -147 -67 -169c0 -17 16 -42 32 -42c12 0 38 14 61 37c64 65 140 213 140 276c0 14 -9 30 -26 30z" />
    <glyph glyph-name="c" unicode="c" horiz-adv-x="343" 
d="M291 408c18 0 35 -4 46 -10c8 -3 18 -12 18 -23c0 -37 -30 -68 -43 -68c-4 0 -13 3 -18 11c-15 31 -25 57 -50 57c-15 0 -36 -17 -62 -69c-27 -50 -50 -124 -50 -178c0 -64 27 -70 45 -70c27 0 62 12 103 51c8 8 19 7 19 0c0 -8 -7 -24 -13 -32
c-45 -55 -102 -88 -167 -88c-70 0 -92 67 -92 109c0 41 18 111 43 155c36 67 76 112 138 138c24 11 70 17 83 17z" />
    <glyph glyph-name="d" unicode="d" horiz-adv-x="507" 
d="M12 61c0 70 69 248 208 323c31 18 65 24 81 24c18 0 46 -14 60 -28c3 -1 8 2 9 5c9 31 42 133 64 216c8 32 5 39 -9 46c-25 12 -34 18 -34 22c0 7 10 15 15 17c19 6 120 20 143 20c11 0 13 -15 3 -50c-20 -64 -48 -146 -95 -296c-30 -100 -61 -198 -79 -263
c-4 -16 4 -26 16 -26c19 0 53 30 77 59c6 7 9 7 11 4c2 -2 3 -6 2 -16c-6 -46 -100 -135 -170 -135c-20 0 -40 29 -40 44c0 16 24 93 34 124c2 5 -5 10 -9 4c-80 -117 -150 -170 -226 -170c-14 0 -32 6 -43 16c-12 13 -18 43 -18 60zM119 82c0 -19 8 -31 19 -31
c30 0 81 42 128 103c25 35 54 90 70 136c10 26 10 46 6 57c-5 10 -15 26 -26 26c-16 0 -45 -17 -89 -67c-54 -64 -108 -171 -108 -224z" />
    <glyph glyph-name="e" unicode="e" horiz-adv-x="375" 
d="M288 407c64 0 85 -40 85 -69c0 -47 -40 -82 -90 -106c-37 -18 -96 -34 -129 -42c-8 -2 -11 -7 -14 -16c-4 -12 -9 -35 -9 -60c0 -39 23 -59 47 -59c28 0 64 14 106 50c9 7 17 15 24 15c4 0 7 -4 7 -7c0 -7 -7 -23 -13 -30c-41 -51 -111 -97 -185 -97
c-32 0 -92 43 -92 116c0 70 48 168 102 225c51 51 115 80 161 80zM276 379c-44 0 -101 -81 -121 -151c-1 -5 0 -12 6 -10c88 30 133 97 133 133c0 19 -8 28 -18 28z" />
    <glyph glyph-name="f" unicode="f" horiz-adv-x="273" 
d="M244 394l85 3c5 0 8 -7 8 -10c0 -6 -11 -27 -24 -27c-23 0 -52 -3 -81 -3c-4 0 -8 -5 -12 -11c-37 -123 -87 -302 -119 -421c-27 -96 -79 -131 -123 -160c-37 -23 -85 -37 -109 -37c-56 0 -81 28 -81 53c0 19 28 47 45 53c6 2 19 3 23 -2c26 -37 49 -58 72 -58
c21 0 43 28 69 130c31 113 71 267 124 443c1 2 -4 8 -9 8l-56 -2c-7 0 -9 8 -9 12c1 11 11 25 22 25c18 0 48 2 62 2c1 0 6 5 7 7c34 103 98 218 157 260c40 30 80 47 118 47c61 0 83 -34 83 -66c-1 -46 -38 -71 -63 -71c-6 0 -12 7 -12 14c0 5 1 18 1 22
c1 44 -11 70 -36 70c-18 0 -40 -9 -72 -69c-20 -38 -56 -131 -75 -202c-1 -4 3 -10 5 -10z" />
    <glyph glyph-name="g" unicode="g" horiz-adv-x="414" 
d="M272 410c21 0 50 -9 69 -20c9 -5 15 -5 35 0c15 3 46 12 63 12c19 0 30 -8 30 -31c-1 -29 -14 -34 -30 -34c-28 0 -41 12 -61 12c-9 0 -10 -9 -9 -12c3 -14 4 -23 4 -31c-1 -86 -76 -176 -136 -205c-31 -16 -72 -20 -97 -21c-2 0 -4 -2 -6 -4c-2 -4 -3 -11 -3 -14
c0 -16 14 -28 32 -39c35 -23 104 -60 128 -78c30 -22 56 -49 56 -85c0 -26 -25 -58 -54 -77c-65 -42 -139 -54 -193 -54c-58 0 -102 14 -132 32c-36 20 -56 50 -56 75c0 34 32 57 58 73c31 21 72 36 99 47c3 2 4 6 3 7c-7 12 -21 25 -21 43c0 9 1 17 12 30
c14 15 33 28 43 40c3 3 0 9 -1 9c-41 15 -66 53 -66 89c1 89 66 163 115 198c29 21 71 38 118 38zM264 381c-9 0 -23 -6 -37 -19c-55 -51 -108 -173 -108 -218c0 -19 10 -37 29 -37c7 0 17 5 34 20c38 33 104 147 106 217c0 21 -10 37 -24 37zM157 -234c52 0 97 25 97 56
c0 10 -2 24 -24 41c-32 26 -94 58 -122 72c-4 2 -20 3 -25 1c-33 -12 -81 -53 -81 -86c0 -13 7 -32 23 -45c35 -27 89 -39 132 -39z" />
    <glyph glyph-name="h" unicode="h" horiz-adv-x="511" 
d="M478 337c0 -101 -61 -226 -98 -270c-21 -26 -67 -50 -87 -63c-16 -11 -46 -24 -59 -24c-15 0 -27 1 -35 9c-10 10 -11 16 -11 26c0 7 23 35 29 41c2 3 5 3 8 2c16 -10 37 -23 52 -23c7 0 10 3 16 14c36 60 76 205 76 257c0 26 -8 43 -24 43c-27 0 -56 -24 -124 -116
c-39 -53 -105 -169 -131 -217c-10 -20 -30 -29 -37 -29c-27 0 -44 29 -42 39c29 104 129 412 178 571c8 30 8 44 -27 52c-15 4 -22 11 -22 15c0 5 9 14 21 18c31 8 132 24 152 24c6 0 11 -14 8 -23c-49 -152 -144 -417 -148 -435c-3 -7 6 -7 9 -4c46 58 94 100 131 127
c39 28 73 36 100 36c50 0 65 -51 65 -70z" />
    <glyph glyph-name="i" unicode="i" horiz-adv-x="280" 
d="M225 405c10 0 24 -20 24 -29s-7 -26 -11 -35c-47 -114 -68 -175 -101 -254c-3 -9 3 -15 11 -15c11 0 47 22 80 53c11 10 15 14 21 14c2 0 7 -3 7 -7c0 -9 -6 -23 -18 -36c-47 -58 -144 -114 -185 -114c-15 0 -39 16 -39 29c0 6 0 7 4 17c36 88 70 165 113 273
c3 9 0 18 -8 17c-15 -2 -41 -13 -66 -33c-5 -4 -14 1 -14 6c0 7 5 16 12 25c22 24 116 89 170 89zM238 613c33 0 48 -25 48 -52c0 -30 -30 -66 -62 -66c-9 0 -17 2 -22 6c-13 9 -24 24 -24 46c0 25 15 44 29 55c12 8 24 11 31 11z" />
    <glyph glyph-name="j" unicode="j" horiz-adv-x="256" 
d="M227 619c34 0 49 -25 49 -55c0 -36 -34 -67 -61 -67c-26 0 -47 21 -47 51s18 51 32 61c11 7 22 10 27 10zM218 409c10 0 24 -29 20 -47c-20 -73 -112 -370 -149 -452c-38 -85 -100 -133 -150 -160c-28 -14 -57 -22 -74 -22c-47 0 -64 27 -64 41c0 16 19 43 30 50
c12 8 21 7 29 2c21 -16 42 -46 64 -46c21 0 36 30 47 56c35 90 144 450 151 478c3 11 -1 16 -8 16c-9 0 -44 -19 -68 -38c-14 -10 -20 -5 -20 1c0 9 4 20 13 29c38 37 120 92 179 92z" />
    <glyph glyph-name="k" unicode="k" horiz-adv-x="465" 
d="M400 407c36 0 57 -21 57 -42s-23 -72 -74 -107c-32 -22 -74 -40 -99 -50c-4 -1 -7 -7 -6 -11c4 -21 16 -71 30 -101c12 -28 19 -33 31 -33c15 0 42 14 69 46c8 10 14 15 17 15c10 0 8 -24 -5 -43c-39 -55 -96 -97 -126 -97c-25 0 -51 29 -65 64c-12 32 -21 58 -33 95
c-8 22 -18 35 -29 35c-9 0 -16 -11 -24 -28c-20 -49 -54 -122 -67 -150c-5 -8 -21 -13 -28 -13c-25 0 -45 21 -45 32c0 4 2 14 8 29c7 18 125 373 186 558c7 22 6 29 -24 41c-10 4 -17 10 -17 12c0 7 6 12 15 17c15 8 123 27 146 27c8 0 9 -19 6 -31
c-6 -18 -96 -247 -148 -396c-4 -11 6 -16 11 -8c34 50 77 92 127 118c30 15 51 21 87 21zM328 351c-9 0 -32 -7 -49 -18c-34 -21 -69 -71 -88 -113c-3 -9 2 -15 10 -15c63 2 157 66 157 126c0 11 -5 20 -30 20z" />
    <glyph glyph-name="l" unicode="l" horiz-adv-x="265" 
d="M159 663c0 5 9 14 21 16c11 2 92 14 120 21c12 3 24 6 29 6c10 0 10 -18 5 -31c-69 -182 -198 -549 -218 -605c-7 -22 -3 -35 6 -35c21 0 89 76 111 95c6 5 13 1 13 -4c0 -7 -5 -25 -8 -31c-36 -68 -115 -111 -174 -111c-29 0 -53 27 -53 44c0 9 9 39 29 97l166 473
c14 39 9 43 -24 51c-15 4 -23 9 -23 14z" />
    <glyph glyph-name="m" unicode="m" horiz-adv-x="761" 
d="M193 407c15 0 32 -6 39 -11c9 -7 9 -24 5 -38c-4 -9 -36 -85 -48 -110c-6 -12 4 -15 16 -1c30 35 78 97 121 128c30 22 57 32 91 32c32 0 58 -29 58 -55c-1 -27 -11 -53 -29 -93c-4 -10 2 -12 8 -5c32 39 66 81 97 108c27 22 67 45 103 45c49 0 62 -39 62 -65
c0 -18 -8 -52 -14 -63c-16 -28 -68 -140 -90 -186c-4 -6 2 -12 5 -12c15 1 67 31 107 65c7 6 16 4 16 -2c0 -21 -19 -42 -38 -59c-44 -44 -135 -101 -183 -101c-6 0 -27 5 -37 19c-4 5 -4 13 0 21c5 14 119 249 133 279c18 36 8 57 -8 57c-33 0 -82 -59 -134 -136
c-49 -73 -94 -152 -122 -200c-15 -24 -54 -40 -66 -40c-10 0 -25 8 -29 19c-1 3 -1 13 4 26c29 75 123 281 125 297c5 21 -3 34 -16 34c-33 0 -91 -58 -175 -196c-44 -75 -79 -125 -97 -149c-15 -19 -26 -31 -33 -31c-24 0 -43 19 -44 29c0 10 4 29 9 39
c26 53 76 175 119 268c6 14 7 25 -9 25c-18 0 -48 -23 -77 -49c-7 -6 -13 -10 -17 -10c-5 0 -10 9 -6 24c11 41 59 97 154 97z" />
    <glyph glyph-name="n" unicode="n" horiz-adv-x="523" 
d="M408 406c44 0 67 -33 67 -64c0 -17 -3 -36 -14 -64c-22 -59 -69 -162 -78 -178c-9 -18 -5 -27 4 -27c16 0 59 29 84 52c12 12 18 8 18 -2c0 -12 -9 -25 -15 -33c-39 -53 -128 -107 -184 -107c-10 0 -28 9 -37 23c-5 8 -8 16 -1 30c9 17 119 243 130 275
c10 31 3 44 -16 44c-23 0 -65 -37 -102 -90c-45 -63 -108 -175 -139 -222c-27 -44 -43 -61 -53 -61c-28 0 -49 24 -49 39c-1 21 19 63 23 72c28 63 71 150 100 225c6 12 2 16 -5 16c-29 0 -56 -28 -78 -48c-5 -5 -8 -7 -14 -7c-3 -1 -7 7 -7 11c0 44 63 116 154 116
c10 0 32 -8 37 -26c3 -8 3 -15 -4 -32l-54 -124c-6 -14 3 -21 11 -7c28 43 89 116 120 141c45 36 79 48 102 48z" />
    <glyph glyph-name="o" unicode="o" horiz-adv-x="443" 
d="M292 407c77 0 116 -71 116 -125c0 -129 -88 -237 -177 -277c-25 -11 -61 -21 -93 -21c-51 0 -112 38 -112 122c0 59 42 174 119 241c40 35 94 60 147 60zM282 378c-14 0 -33 -12 -53 -36c-50 -60 -102 -184 -102 -287c0 -23 14 -42 33 -42c13 0 22 7 42 28
c43 45 112 208 112 296c0 22 -10 41 -32 41z" />
    <glyph glyph-name="p" unicode="p" horiz-adv-x="459" 
d="M432 287c0 -135 -119 -244 -204 -285c-23 -11 -53 -16 -61 -16c-16 0 -31 6 -46 13c-25 -76 -37 -127 -46 -173c-7 -32 5 -41 45 -50c20 -4 27 -9 27 -17c0 -7 -13 -13 -30 -13c-29 0 -47 1 -73 1c-53 0 -106 -7 -133 -7c-22 -1 -29 4 -29 11s8 13 27 18
c40 10 50 22 61 56l164 515c2 4 -1 8 -6 6c-28 -8 -48 -19 -76 -33c-13 -6 -27 -3 -27 3c0 9 7 16 11 19c33 23 88 47 107 54c4 1 7 7 8 9c13 40 19 54 28 64s47 16 68 16c13 0 14 -13 14 -19c0 -9 -7 -29 -12 -45c-1 -4 -1 -9 3 -9c86 0 180 -28 180 -118zM330 305
c0 30 -36 61 -80 61c-4 0 -14 -4 -15 -7c-31 -93 -63 -187 -95 -302c-1 -3 -1 -14 0 -17c6 -15 19 -27 25 -27c13 0 32 12 49 27c67 65 116 170 116 265z" />
    <glyph glyph-name="q" unicode="q" horiz-adv-x="482" 
d="M310 407c31 0 61 -27 77 -55c3 -4 10 -4 14 2c13 19 25 39 37 53c10 12 20 21 27 21c10 0 17 -16 7 -44c-16 -49 -35 -103 -58 -184c-45 -156 -91 -314 -107 -376c-8 -30 9 -36 35 -40c19 -3 25 -8 25 -14c0 -5 -6 -13 -22 -15c-55 -6 -153 -12 -210 -26
c-13 -3 -30 -1 -30 8s13 16 22 19c54 22 63 32 79 77c16 42 66 187 101 302c3 7 -4 8 -9 2c-72 -89 -176 -151 -232 -151c-14 0 -59 17 -59 69c0 48 26 127 78 201c40 59 75 90 138 126c31 17 67 25 87 25zM310 379c-14 0 -58 -33 -91 -76c-46 -61 -98 -164 -98 -222
c0 -29 11 -35 23 -35c19 0 64 30 121 104c34 45 77 129 77 181c0 12 -10 48 -32 48z" />
    <glyph glyph-name="r" unicode="r" horiz-adv-x="373" 
d="M155 407c33 0 51 -29 51 -54c0 -26 -15 -71 -24 -94c-5 -15 1 -19 12 -1c24 36 47 70 67 93c37 43 65 56 92 56c33 0 45 -27 45 -48c0 -54 -47 -91 -61 -91c-7 0 -15 2 -17 15c-6 26 -15 48 -24 48c-10 0 -24 -9 -48 -49c-43 -75 -110 -224 -131 -260
c-15 -26 -28 -38 -51 -38c-9 0 -33 6 -40 17c-1 2 -1 14 0 19c19 55 62 165 94 265c10 29 1 38 -10 38c-10 0 -29 -8 -54 -35c-8 -9 -15 -16 -19 -16c-9 0 -12 14 -6 31c25 68 80 104 124 104z" />
    <glyph glyph-name="s" unicode="s" horiz-adv-x="307" 
d="M232 407c27 0 49 -12 58 -21c6 -6 12 -17 12 -25c0 -16 -21 -44 -33 -52c-3 -2 -10 -1 -14 2c-19 15 -49 47 -79 47c-9 0 -32 -13 -32 -37c0 -21 22 -51 61 -94c33 -38 50 -67 50 -92c0 -35 -28 -74 -63 -100c-42 -33 -97 -49 -118 -49c-41 0 -85 26 -85 59
c0 8 16 36 30 51c4 4 13 5 16 1c18 -15 60 -56 100 -56c24 0 44 15 44 35c0 12 -13 40 -58 88c-40 45 -46 75 -46 97c0 24 16 65 53 97c42 38 82 49 104 49z" />
    <glyph glyph-name="t" unicode="t" horiz-adv-x="317" 
d="M275 514c9 0 13 -9 7 -30c-3 -12 -20 -67 -23 -78c-1 -6 1 -11 6 -11c20 0 61 -2 83 -3c8 0 12 -4 12 -9c0 -9 -13 -22 -24 -24c-12 -2 -68 -5 -87 -5c-4 0 -9 -3 -11 -7c-16 -36 -62 -158 -92 -245c-4 -10 1 -23 9 -23c18 0 66 32 92 57c8 6 23 11 23 2
c0 -8 -2 -16 -11 -29c-45 -61 -150 -122 -199 -122c-16 0 -38 24 -38 39c0 5 1 15 5 27l112 289c3 7 1 12 -2 12l-45 3c-12 1 -21 5 -21 11c0 10 17 22 25 23c19 2 39 3 55 4c5 0 11 6 13 10c18 34 36 62 50 81c13 18 36 28 61 28z" />
    <glyph glyph-name="u" unicode="u" horiz-adv-x="507" 
d="M218 407c6 0 20 -11 26 -23c3 -7 2 -16 -3 -26c-23 -47 -91 -218 -100 -250c-8 -27 2 -39 12 -39c32 0 100 71 156 164c34 57 67 118 81 144c6 11 22 30 35 30c24 0 47 -22 47 -31c0 -8 -1 -20 -9 -38c-27 -64 -74 -177 -93 -237c-3 -11 1 -20 8 -20c11 0 46 16 94 64
c5 5 16 7 16 -1c0 -6 -1 -13 -6 -23c-29 -61 -135 -137 -191 -137c-15 0 -31 24 -31 32c0 5 1 9 3 16c5 15 41 99 47 118c7 21 -3 19 -15 5c-57 -70 -125 -122 -164 -147c-22 -14 -52 -24 -69 -24s-28 6 -35 15c-6 7 -10 28 -2 49c10 28 67 169 103 253c7 16 5 21 -1 21
c-9 0 -52 -29 -64 -37c-10 -7 -24 -9 -24 -2c0 5 5 14 8 19c16 29 115 105 171 105z" />
    <glyph glyph-name="v" unicode="v" horiz-adv-x="429" 
d="M106 -12c-36 0 -63 30 -63 70c0 16 4 40 16 72c18 51 54 136 70 182c2 6 0 11 -6 11c-21 0 -57 -32 -72 -45c-8 -7 -19 -5 -19 2c0 11 8 21 14 29c18 24 101 98 161 98c14 0 24 -19 27 -25c6 -15 4 -36 -4 -53c-27 -68 -73 -185 -83 -217c-10 -33 11 -50 26 -50
c66 0 166 109 166 216c0 14 -12 39 -20 51c-5 8 -9 19 -9 24c0 15 36 55 72 55c20 0 38 -27 38 -63c0 -72 -70 -186 -130 -250c-43 -45 -118 -107 -184 -107z" />
    <glyph glyph-name="w" unicode="w" horiz-adv-x="648" 
d="M213 407c10 0 23 -9 27 -18c10 -22 -2 -59 -5 -68c-26 -65 -64 -161 -77 -199c-12 -34 -11 -64 6 -64c26 0 74 32 123 105c10 15 17 30 22 45c8 27 17 66 26 93c8 22 12 36 28 50c10 10 37 25 66 25c31 0 24 -40 12 -77c-16 -42 -39 -80 -53 -108c-8 -16 -18 -50 -19 -66
c-4 -34 1 -72 34 -72c24 0 57 20 75 41c59 62 78 133 78 174c0 32 -11 56 -17 70c-2 6 -2 12 1 18c12 20 53 51 75 51c18 0 25 -27 25 -63c0 -117 -127 -280 -222 -334c-29 -18 -55 -25 -84 -25c-41 0 -63 52 -48 120c1 6 -5 8 -9 2c-30 -33 -80 -75 -93 -84
c-34 -24 -58 -37 -91 -37c-27 0 -48 28 -46 70c0 16 11 58 24 90l63 167c4 7 1 11 -5 11c-13 0 -51 -22 -80 -46c-7 -5 -11 2 -11 7c0 8 4 17 10 25c28 36 112 97 165 97z" />
    <glyph glyph-name="x" unicode="x" horiz-adv-x="452" 
d="M185 405c20 0 36 -35 41 -53c12 -38 20 -61 31 -94c1 -3 5 -1 7 2c40 52 75 99 110 126c9 9 30 21 49 21c37 0 46 -26 46 -45c0 -17 -30 -63 -53 -63c-8 0 -11 2 -17 11c-3 6 -13 20 -22 20c-28 0 -87 -76 -106 -103c-4 -6 -4 -17 -3 -22c28 -96 42 -134 61 -134
c15 0 37 23 59 55c4 6 10 10 12 10c6 0 10 -6 8 -22c-7 -66 -82 -127 -128 -127c-22 0 -49 29 -63 70c-9 28 -16 56 -24 82c-1 1 -5 2 -6 0c-82 -113 -125 -159 -172 -159c-26 0 -46 25 -44 46c1 34 29 59 44 66c8 2 18 3 20 -3c5 -13 14 -25 31 -25c24 0 72 49 112 106
c5 6 4 16 3 21c-1 7 -27 88 -33 106c-7 21 -13 22 -18 22c-16 0 -33 -17 -56 -47c-3 -4 -8 -9 -11 -9c-6 0 -9 8 -9 16c3 40 71 126 131 126z" />
    <glyph glyph-name="y" unicode="y" horiz-adv-x="399" 
d="M158 407c28 0 55 -48 60 -93c8 -65 14 -169 6 -245c0 -6 5 -11 15 5c47 82 83 197 86 318c0 10 13 19 19 19c20 0 44 -37 44 -48c0 -84 -76 -230 -115 -295c-43 -70 -90 -134 -110 -161c-31 -41 -77 -97 -122 -132c-40 -30 -76 -43 -111 -43c-22 0 -52 15 -52 44
c0 32 35 63 49 63c4 0 12 -1 14 -4c15 -11 35 -34 55 -34c26 0 48 8 79 46c38 48 64 170 64 276c0 89 -3 149 -11 180c-6 23 -11 35 -21 35c-11 0 -34 -32 -56 -71c-8 -14 -15 -21 -20 -21c-6 0 -10 11 -11 21c-1 45 60 140 138 140z" />
    <glyph glyph-name="z" unicode="z" horiz-adv-x="424" 
d="M192 407c33 0 65 -11 99 -26c21 -9 34 -8 45 -8c13 0 36 10 60 28c12 9 17 12 23 12s12 -5 12 -10c0 -8 -8 -20 -14 -25c-44 -38 -245 -215 -282 -256c-5 -5 -3 -9 2 -9c36 -1 73 -20 108 -45c24 -17 48 -22 58 -22c41 0 45 31 45 72c0 8 -3 27 -4 33c-1 4 5 8 11 8
c23 0 39 -23 38 -52c0 -37 -37 -73 -68 -97s-68 -41 -97 -41c-18 0 -45 17 -82 45c-38 29 -50 34 -67 34c-8 0 -25 -3 -38 -18c-4 -5 -17 -25 -23 -39c-2 -4 -8 -7 -10 -7c-6 0 -19 14 -19 26c-1 18 15 38 36 57c59 55 242 216 249 231c2 5 0 5 -3 5c-15 1 -33 5 -55 11
c-34 9 -68 27 -94 27c-16 0 -26 -8 -27 -22c0 -9 0 -29 5 -43c2 -6 -1 -8 -7 -14c-11 -10 -32 -21 -42 -21c-11 0 -15 19 -15 31c0 20 26 59 62 90c39 32 75 45 94 45z" />
    <glyph glyph-name="braceleft" unicode="{" horiz-adv-x="388" 
d="M90 289c1 6 4 10 15 12c86 14 103 49 113 87c9 34 13 143 27 188c9 31 37 71 83 99c54 33 119 40 133 40c11 0 22 -6 22 -11c0 -6 -3 -12 -14 -15c-54 -17 -116 -35 -138 -111c-17 -60 -5 -124 -19 -173c-14 -47 -87 -96 -145 -116c-3 -1 -9 -5 -1 -9
c60 -32 85 -81 74 -128c-12 -47 -25 -75 -47 -117c-8 -18 -15 -40 -19 -58c-13 -57 3 -111 69 -134c7 -3 15 -13 14 -16c-1 -6 -9 -11 -27 -11c-67 0 -168 90 -137 196c8 28 41 102 53 140c20 65 10 96 -32 112c-18 5 -26 18 -24 25z" />
    <glyph glyph-name="bar" unicode="|" horiz-adv-x="295" 
d="M141 690h71v-886h-71v886z" />
    <glyph glyph-name="braceright" unicode="}" horiz-adv-x="351" 
d="M201 715c67 0 169 -89 137 -196c-8 -28 -29 -77 -42 -115c-20 -58 -13 -97 33 -114c21 -8 27 -15 27 -20c0 -4 -8 -14 -18 -15c-79 -13 -106 -50 -115 -88c-8 -33 -22 -167 -35 -213c-9 -30 -35 -70 -82 -99c-53 -32 -120 -39 -134 -39c-15 0 -23 7 -23 13
c0 9 14 14 25 17c57 18 104 30 125 107c16 57 16 147 30 197c14 47 67 96 145 118c4 1 5 6 0 9c-57 37 -82 80 -71 126c8 36 23 60 33 88c6 15 17 45 21 62c13 58 -2 106 -66 133c-7 3 -15 10 -15 16s8 13 25 13z" />
    <glyph glyph-name="asciitilde" unicode="~" horiz-adv-x="624" 
d="M227 347c78 0 159 -115 204 -115c34 0 55 22 90 105c3 7 5 9 11 9c15 0 48 -14 43 -28c-31 -87 -77 -152 -151 -152c-83 0 -147 115 -205 115c-30 0 -61 -30 -88 -100c-4 -11 -6 -15 -13 -15c-9 0 -46 13 -42 26c25 81 71 155 151 155z" />
    <glyph glyph-name="exclamdown" unicode="&#xa1;" horiz-adv-x="309" 
d="M26 -194c-42 0 -59 71 -34 127c25 59 106 220 138 276c5 10 17 22 30 22c8 0 13 -13 12 -28c-3 -21 -32 -205 -49 -292c-13 -67 -53 -105 -97 -105zM182 284c-41 0 -63 28 -63 70c0 54 44 78 75 78c45 0 65 -28 65 -68c0 -44 -38 -80 -77 -80z" />
    <glyph glyph-name="cent" unicode="&#xa2;" horiz-adv-x="494" 
d="M371 522l20 61c3 5 7 8 10 8c7 0 25 -9 25 -13l-18 -56c-1 -4 0 -7 3 -7c30 -3 55 -11 66 -18c10 -7 18 -13 18 -28c0 -25 -30 -56 -43 -56c-7 0 -14 6 -19 16c-9 21 -24 47 -36 53c-2 1 -6 -1 -7 -4l-108 -325c-1 -4 2 -6 7 -5c49 6 96 25 143 62c6 4 11 -1 11 -7
c0 -5 -4 -18 -15 -30c-45 -52 -115 -74 -159 -80c-3 -1 -7 -3 -9 -8l-25 -71c-5 -4 -8 -7 -21 -7c-4 0 -12 4 -14 9l26 72c2 4 -1 7 -3 8c-70 9 -133 57 -133 144c0 112 75 205 174 251c19 9 70 23 100 25c4 1 6 4 7 6zM252 164l105 316c2 6 -1 6 -4 6
c-59 -5 -149 -118 -149 -248c0 -37 19 -69 41 -78c3 -1 5 1 7 4z" />
    <glyph glyph-name="sterling" unicode="&#xa3;" horiz-adv-x="494" 
d="M406 625c61 0 96 -37 96 -75c1 -33 -29 -60 -53 -62c-7 -1 -16 2 -15 11c1 8 1 16 1 35c-1 25 -18 62 -50 62c-45 0 -80 -56 -119 -252c-1 -3 0 -8 4 -8l117 6c3 0 8 -9 6 -18c-1 -8 -10 -19 -14 -19l-116 -7c-3 0 -6 -5 -7 -8c-26 -76 -51 -119 -98 -161
c-1 -2 -3 -6 2 -8c28 -9 45 -15 83 -34c37 -17 86 -41 117 -41c41 0 69 15 69 68c0 21 -5 47 -8 62c-1 5 10 14 16 14c19 0 41 -19 41 -56c0 -80 -113 -166 -199 -166c-47 0 -88 29 -140 67c-23 16 -29 21 -43 25c-7 2 -15 -4 -25 -12c-35 -31 -63 -52 -83 -52
c-21 0 -30 10 -30 22c0 34 56 77 102 93c6 2 17 5 23 10c21 15 30 51 52 164c0 4 -3 7 -7 7l-68 -3c-4 0 -8 9 -6 15c2 9 9 21 13 22l67 5c7 0 9 3 10 9c37 134 78 204 144 247c33 22 71 38 118 38z" />
    <glyph glyph-name="fraction" unicode="&#x2044;" horiz-adv-x="106" 
d="M340 636c12 0 23 -15 20 -19c-190 -231 -349 -422 -534 -643c-2 -3 -9 -9 -14 -9c-9 0 -23 21 -16 30c182 217 358 428 524 629c9 10 14 12 20 12z" />
    <glyph glyph-name="yen" unicode="&#xa5;" horiz-adv-x="494" 
d="M105 606c0 9 15 10 27 10c16 0 65 -3 89 -3c28 0 72 3 90 3c17 0 24 -7 24 -11c0 -7 -6 -13 -25 -17c-23 -6 -32 -13 -29 -38c9 -61 21 -150 28 -185c0 -4 5 -5 9 -1c39 46 76 92 109 137c33 43 42 57 45 66c2 7 0 16 -29 22c-8 2 -20 8 -20 16c0 7 13 11 28 11
c19 0 44 -3 62 -3c23 -1 53 3 75 3c16 0 23 -4 23 -11c0 -8 -15 -15 -23 -16c-46 -8 -65 -28 -107 -75c-45 -51 -91 -107 -150 -177c-4 -4 -2 -9 2 -9l93 2c4 0 6 -6 6 -13c0 -10 -10 -19 -15 -19l-97 -2c-5 0 -8 -6 -10 -10l-15 -48c-1 -5 1 -6 5 -6l96 2c4 0 7 -6 7 -14
c0 -11 -12 -19 -17 -19l-94 -2c-5 0 -10 -3 -11 -8c-8 -33 -18 -65 -26 -99c-14 -48 -3 -57 43 -66c9 -2 22 -6 22 -16c0 -9 -14 -13 -30 -13c-22 0 -79 3 -115 3c-28 0 -69 -3 -107 -3c-13 0 -30 3 -30 13c0 6 6 14 32 18c49 8 59 16 81 86l24 75c1 4 -1 9 -5 9l-86 -3
c-4 0 -5 3 -5 11c0 7 9 21 12 21l91 3c3 0 6 2 7 5l16 49c2 5 1 10 -3 10l-90 -3c-4 0 -8 1 -8 8c0 14 8 25 16 25l87 3c3 0 8 2 7 7c-11 76 -23 136 -38 202c-7 32 -14 45 -51 54c-7 2 -20 7 -20 16z" />
    <glyph glyph-name="florin" unicode="&#x192;" horiz-adv-x="494" 
d="M476 657c61 0 81 -30 81 -56c0 -35 -40 -62 -60 -65c-7 0 -12 2 -12 10c-1 9 2 21 2 31c0 35 -16 52 -33 52s-32 -12 -52 -48c-23 -40 -41 -109 -69 -206c-1 -6 4 -7 10 -7l91 3c6 1 8 -7 8 -16s-7 -19 -11 -19l-103 -6c-3 0 -8 -5 -10 -11c-31 -103 -39 -138 -78 -272
c-24 -79 -75 -133 -151 -182c-36 -22 -72 -34 -103 -34c-36 0 -69 26 -69 54c0 22 21 41 32 48c5 4 11 4 16 -1c23 -26 57 -54 75 -54c23 0 36 5 71 132c29 97 62 222 84 308c1 2 1 10 -5 10l-72 -3c-4 0 -7 5 -7 12c0 10 8 22 12 22l78 5c2 0 9 8 10 10
c38 123 92 206 152 247c36 25 73 36 113 36z" />
    <glyph glyph-name="section" unicode="&#xa7;" horiz-adv-x="438" 
d="M394 632c22 0 39 -8 49 -18c6 -4 10 -15 9 -20c-1 -13 -31 -39 -36 -45c-6 -2 -15 -6 -21 -3c-15 10 -46 30 -75 30c-45 0 -58 -37 -58 -57c-1 -36 35 -91 63 -140c21 -34 59 -104 60 -167c0 -83 -54 -155 -95 -205c-48 -58 -154 -134 -238 -134c-18 0 -38 10 -47 20
c-10 13 -15 31 -13 58c0 7 10 21 15 19c31 -22 84 -38 110 -38c58 0 84 25 84 56c0 33 -30 88 -57 137c-41 70 -59 130 -59 173c0 85 55 158 113 215c12 16 46 55 84 79c44 28 81 40 112 40zM190 465c-34 -35 -41 -74 -42 -111c0 -34 21 -89 57 -161c29 -58 61 -116 61 -160
c-1 -4 3 -7 7 -3c34 35 42 85 42 111c0 55 -16 106 -54 174c-39 68 -58 115 -64 149c0 4 -4 4 -7 1z" />
    <glyph glyph-name="currency" unicode="&#xa4;" horiz-adv-x="494" 
d="M473 470l-51 -59c-1 -3 -2 -8 -1 -11c20 -31 32 -70 32 -108c0 -36 -13 -73 -33 -103c-2 -2 -3 -6 -2 -7l55 -64c5 -5 2 -22 -12 -35c-7 -8 -22 -14 -27 -9l-63 60c-2 2 -8 0 -10 -1c-28 -18 -58 -32 -89 -32c-35 0 -66 10 -93 27c-2 1 -5 3 -12 -1l-55 -56
c-5 -5 -15 -4 -30 9c-17 17 -13 35 -11 38l49 54c1 2 3 7 0 11c-20 32 -31 70 -31 108c0 39 13 72 31 102c1 1 3 10 0 13l-53 63c-6 8 8 29 14 35c10 10 24 16 32 10l52 -56c3 -3 12 -5 15 -3c28 17 60 26 92 26c33 0 67 -11 95 -28c2 -1 7 -2 10 1l51 57c5 4 15 8 34 -10
c13 -11 15 -25 11 -31zM272 417c-71 0 -123 -53 -123 -126c0 -75 58 -124 123 -124c63 0 122 50 122 124c0 71 -64 126 -122 126z" />
    <glyph glyph-name="quotesingle" unicode="'" horiz-adv-x="166" 
d="M255 688c7 0 15 -10 10 -31c-9 -42 -51 -124 -100 -187c-7 -8 -30 -26 -41 -26c-10 0 -13 16 -11 21c19 55 43 154 46 177c1 3 7 12 14 17c18 12 58 29 82 29z" />
    <glyph glyph-name="quotedblleft" unicode="&#x201c;" horiz-adv-x="411" 
d="M318 678c0 -8 -10 -17 -21 -24c-35 -18 -76 -54 -76 -94c0 -29 20 -44 38 -51c4 -1 12 -11 12 -16c0 -16 -21 -47 -61 -47c-49 0 -74 46 -74 86c0 96 100 152 153 157c9 1 29 -1 29 -11zM499 678c0 -8 -6 -14 -22 -22c-35 -16 -77 -55 -77 -96c0 -31 16 -44 35 -50
c6 -1 15 -10 15 -17c0 -18 -23 -47 -62 -47c-50 0 -73 43 -73 83c0 92 95 154 157 161c9 2 27 -1 27 -12z" />
    <glyph glyph-name="guillemotleft" unicode="&#xab;" horiz-adv-x="677" 
d="M73 196c0 5 7 10 13 12c93 42 211 105 291 159c4 2 17 8 23 8c8 0 16 -11 -9 -34c-49 -47 -121 -94 -187 -138c-8 -5 -12 -13 -7 -19c35 -42 92 -105 106 -136c4 -8 7 -28 -4 -29c-5 0 -11 1 -20 10c-39 39 -138 117 -196 155c-5 4 -10 8 -10 12zM303 197c0 6 7 9 12 11
c96 42 219 112 291 159c5 2 16 8 23 8s17 -9 -8 -32c-49 -48 -125 -97 -189 -140c-9 -6 -12 -12 -8 -18c39 -44 93 -101 108 -137c4 -8 6 -28 -4 -29c-4 0 -11 1 -19 10c-40 42 -139 117 -198 156c-4 3 -8 8 -8 12z" />
    <glyph glyph-name="guilsinglleft" unicode="&#x2039;" horiz-adv-x="469" 
d="M74 196c0 5 6 10 11 12c95 42 227 106 310 159c4 2 16 8 23 8c8 0 15 -10 -9 -34c-49 -48 -142 -100 -201 -139c-8 -5 -10 -12 -6 -18c34 -35 101 -101 115 -137c4 -9 5 -27 -4 -28c-4 0 -11 2 -20 10c-40 37 -155 118 -211 156c-5 3 -8 7 -8 11z" />
    <glyph glyph-name="guilsinglright" unicode="&#x203a;" horiz-adv-x="483" 
d="M398 198c0 -4 -7 -10 -12 -12c-95 -42 -226 -105 -309 -158c-4 -2 -17 -9 -23 -9c-8 0 -16 11 8 34c50 48 142 101 201 139c8 5 10 12 6 18c-34 35 -101 101 -115 137c-3 9 -5 27 5 28c3 0 11 -1 20 -10c40 -37 154 -117 211 -156c5 -3 8 -7 8 -11z" />
    <glyph glyph-name="endash" unicode="&#x2013;" horiz-adv-x="562" 
d="M84 246l416 2c4 0 9 -8 9 -15c0 -11 -15 -49 -28 -49h-411c-7 0 -10 12 -10 18c0 16 18 44 24 44z" />
    <glyph glyph-name="dagger" unicode="&#x2020;" horiz-adv-x="463" 
d="M343 615c17 0 34 -34 26 -61c-7 -26 -38 -76 -67 -139c-3 -2 0 -6 3 -6c49 4 88 18 121 18c21 0 39 -20 36 -35c-3 -18 -31 -34 -58 -34s-66 15 -110 18c-5 0 -9 -4 -10 -7c-37 -138 -90 -371 -97 -396c-13 -40 -40 -56 -55 -56c-18 0 -35 23 -22 63c8 26 99 269 138 388
c1 2 0 8 -5 7c-39 0 -79 -17 -118 -17c-18 0 -44 19 -39 38c6 16 28 31 60 31c28 0 58 -15 107 -18c4 0 8 2 9 7c10 58 13 115 22 145c6 26 31 54 59 54z" />
    <glyph glyph-name="daggerdbl" unicode="&#x2021;" horiz-adv-x="463" 
d="M355 615c23 0 28 -45 24 -60c-8 -27 -25 -70 -43 -121c-1 -3 1 -7 5 -7c39 4 68 16 100 16c29 0 44 -23 40 -36c-5 -13 -23 -30 -54 -30c-28 0 -61 13 -100 16c-4 1 -8 -1 -8 -6l-38 -115c-1 -4 1 -6 5 -6c44 3 79 13 109 13c24 0 40 -19 36 -33c-5 -15 -26 -30 -54 -30
c-29 0 -61 12 -104 17c-4 0 -7 -5 -8 -8c-33 -106 -80 -242 -86 -263c-12 -37 -27 -46 -35 -46s-16 11 -7 50c4 18 44 161 70 258c1 3 -3 7 -6 7c-38 -4 -80 -15 -103 -15c-28 0 -44 19 -40 35c5 15 27 28 54 28s68 -10 102 -13c1 0 7 3 7 5l33 115c1 5 -2 8 -4 7
c-37 -4 -78 -16 -103 -16c-24 0 -43 21 -40 34c6 18 32 32 59 32c28 0 56 -12 92 -16c2 0 7 3 8 7c13 45 25 97 33 123c10 35 37 58 56 58z" />
    <glyph glyph-name="periodcentered" unicode="&#xb7;" horiz-adv-x="247" 
d="M127 265c42 0 63 -28 63 -71c0 -53 -43 -77 -76 -77c-39 0 -64 29 -64 68c0 45 38 80 77 80z" />
    <glyph glyph-name="paragraph" unicode="&#xb6;" horiz-adv-x="598" 
d="M99 333c0 110 61 183 109 218c48 36 118 62 221 67c62 3 145 7 208 7c18 0 22 -11 22 -17c0 -12 -13 -24 -27 -24c-7 0 -47 4 -63 4c-18 0 -25 -10 -35 -47c-85 -300 -138 -488 -158 -561c-34 -116 -67 -171 -109 -204c-28 -22 -59 -36 -106 -36c-79 0 -119 50 -119 104
c0 65 48 104 91 104c40 0 56 -30 57 -56c1 -22 -20 -51 -43 -51c-12 0 -16 4 -23 8c-5 3 -9 7 -15 7c-5 0 -18 -5 -18 -23c0 -29 35 -57 84 -57c95 0 130 125 147 178c19 64 32 110 41 143c0 7 -3 13 -8 12c-7 -1 -19 -1 -37 -1c-147 0 -219 113 -219 225zM472 586
c-20 0 -42 -13 -63 -44c-39 -64 -93 -235 -98 -322c-1 -40 9 -77 45 -77c12 0 19 4 24 20c11 31 86 313 112 404c3 11 -10 19 -20 19z" />
    <glyph glyph-name="bullet" unicode="&#x2022;" horiz-adv-x="453" 
d="M220 340c80 0 147 -69 147 -153c0 -81 -68 -150 -147 -150c-76 0 -143 74 -143 150c0 86 69 153 143 153z" />
    <glyph glyph-name="quotesinglbase" unicode="&#x201a;" horiz-adv-x="247" 
d="M86 147c53 0 71 -51 71 -86c0 -103 -113 -156 -166 -166c-14 -2 -29 2 -29 10c0 11 11 17 24 25c42 21 82 51 82 94c0 24 -13 33 -37 43c-7 2 -14 13 -14 17c0 29 30 63 69 63z" />
    <glyph glyph-name="quotedblbase" unicode="&#x201e;" horiz-adv-x="437" 
d="M86 147c58 0 71 -50 71 -85c0 -97 -107 -152 -163 -166c-9 -2 -32 -4 -32 7c0 10 9 18 22 26c31 16 82 57 82 99c0 27 -15 37 -35 39c-6 0 -15 6 -15 15c0 31 31 65 70 65zM272 147c58 0 70 -50 70 -85c0 -97 -105 -151 -162 -165c-8 -2 -32 -4 -32 7c0 10 8 17 22 25
c31 16 81 57 81 99c0 27 -15 37 -34 39c-6 0 -15 6 -15 15c0 31 31 65 70 65z" />
    <glyph glyph-name="quotedblright" unicode="&#x201d;" horiz-adv-x="412" 
d="M290 459c0 7 10 16 22 22c35 20 76 55 76 95c0 30 -20 45 -38 51c-5 2 -12 12 -12 17c0 15 21 46 60 46c50 0 74 -45 74 -85c0 -97 -100 -153 -153 -157c-9 -1 -29 0 -29 11zM109 458c0 7 7 14 23 22c35 16 77 55 77 96c0 32 -16 44 -35 50c-6 2 -15 11 -15 18
c0 16 23 46 61 46c50 0 74 -42 74 -82c0 -92 -96 -155 -158 -162c-9 -1 -27 1 -27 12z" />
    <glyph glyph-name="guillemotright" unicode="&#xbb;" horiz-adv-x="697" 
d="M612 198c0 -5 -6 -9 -13 -12c-93 -41 -210 -105 -291 -158c-4 -3 -16 -9 -23 -9c-8 0 -16 11 9 34c50 47 122 94 188 138c7 5 11 13 6 19c-35 43 -92 106 -106 136c-4 9 -7 28 4 29c5 0 12 -1 20 -10c39 -39 139 -117 196 -155c5 -3 10 -8 10 -12zM382 197
c0 -5 -7 -9 -11 -11c-97 -42 -220 -111 -292 -158c-5 -3 -16 -9 -23 -9c-6 0 -17 9 8 33c49 47 125 96 190 140c8 5 12 11 7 17c-39 44 -92 102 -108 137c-4 9 -6 28 4 29c4 0 11 -1 19 -10c40 -42 140 -117 198 -156c4 -3 8 -8 8 -12z" />
    <glyph glyph-name="ellipsis" unicode="&#x2026;" horiz-adv-x="710" 
d="M86 129c39 0 61 -27 61 -68c0 -47 -42 -75 -73 -75c-42 0 -62 27 -62 65c0 43 36 78 74 78zM324 129c40 0 61 -27 61 -68c0 -49 -42 -75 -73 -75c-42 0 -62 29 -62 67c0 42 36 76 74 76zM562 129c40 0 61 -27 61 -68c0 -52 -42 -75 -72 -75c-43 0 -64 29 -64 67
c0 42 37 76 75 76z" />
    <glyph glyph-name="perthousand" unicode="&#x2030;" horiz-adv-x="1071" 
d="M303 625c65 0 98 -60 98 -118c0 -77 -54 -179 -132 -219c-21 -10 -47 -17 -74 -17c-63 0 -96 54 -96 109c-1 84 41 158 100 207c19 17 54 38 104 38zM300 598c-16 0 -36 -14 -52 -37c-40 -53 -71 -138 -70 -213c0 -19 5 -48 28 -48c10 0 24 5 44 29c29 35 79 157 79 223
c0 28 -12 46 -29 46zM650 626c8 0 18 -8 21 -13c3 -4 2 -11 -3 -16c-183 -216 -350 -418 -518 -621c-4 -3 -8 -5 -12 -4c-7 2 -15 10 -17 18c-2 3 -1 9 5 16c175 207 334 400 506 608c10 10 13 12 18 12zM604 342c65 0 97 -61 97 -118c0 -85 -53 -179 -131 -219
c-21 -10 -49 -17 -75 -17c-64 0 -95 55 -95 110c0 84 40 156 100 206c19 16 54 38 104 38zM601 313c-17 0 -36 -14 -53 -36c-39 -53 -69 -136 -69 -212c0 -19 4 -48 28 -48c10 0 25 5 44 29c30 36 77 155 77 221c0 28 -10 46 -27 46zM928 342c64 0 97 -61 97 -118
c0 -85 -54 -179 -132 -219c-21 -10 -48 -17 -75 -17c-63 0 -94 55 -94 110c0 84 40 156 99 206c20 16 54 38 105 38zM924 313c-16 0 -37 -14 -52 -36c-39 -53 -70 -136 -69 -212c0 -19 4 -48 28 -48c10 0 25 5 43 29c30 36 78 155 78 221c0 28 -10 46 -28 46z" />
    <glyph glyph-name="questiondown" unicode="&#xbf;" horiz-adv-x="387" 
d="M124 -201c-34 0 -54 8 -91 36c-26 20 -53 67 -53 111c0 39 32 79 55 94c29 21 67 43 108 67c32 19 36 31 36 50c0 18 -9 42 -24 65c-4 7 -2 19 19 14c18 -3 88 -42 88 -119c0 -39 -16 -57 -40 -78c-22 -19 -78 -51 -123 -75c-40 -20 -63 -45 -63 -65c0 -27 12 -51 48 -51
c29 0 48 22 57 38c15 22 24 26 41 26c22 0 44 -16 44 -46c0 -38 -50 -67 -102 -67zM228 284c-42 0 -63 28 -63 70c0 54 43 78 76 78c43 0 64 -28 64 -68c0 -44 -38 -80 -77 -80z" />
    <glyph glyph-name="grave" unicode="`" horiz-adv-x="400" 
d="M292 658c6 0 13 -11 18 -42c6 -45 10 -106 12 -144c0 -15 -7 -30 -14 -30c-8 0 -17 12 -19 19c-18 42 -39 96 -47 125c-5 17 -4 27 -3 30c7 18 37 42 53 42z" />
    <glyph glyph-name="acute" unicode="&#xb4;" horiz-adv-x="400" 
d="M336 625c7 10 16 17 27 17c13 0 32 -36 32 -52c-1 -6 -4 -16 -12 -26c-31 -35 -74 -75 -110 -105c-8 -7 -19 -17 -33 -16c-8 0 -11 13 -2 29c30 54 68 109 98 153z" />
    <glyph glyph-name="circumflex" unicode="&#x2c6;" horiz-adv-x="400" 
d="M336 641c9 0 15 -17 16 -27l15 -141c1 -11 -3 -29 -14 -29c-5 0 -12 10 -17 21c-9 22 -17 45 -29 74c-1 2 -3 5 -9 0c-21 -21 -61 -55 -89 -77c-7 -7 -21 -15 -33 -15c-10 0 -9 16 1 27c28 30 109 124 124 142c12 14 24 25 35 25z" />
    <glyph glyph-name="tilde" unicode="&#x2dc;" horiz-adv-x="400" 
d="M212 516c-10 0 -21 -13 -30 -24c-4 -4 -8 -6 -11 -6c-4 0 -18 16 -18 18s34 51 74 77c6 4 13 5 18 4c12 -3 65 -11 95 -11c17 0 27 1 36 7c11 9 23 25 29 32c3 4 22 -11 22 -17c0 -3 0 -5 -4 -9c-14 -14 -63 -69 -69 -74c-5 -5 -10 -8 -15 -8c-17 0 -82 11 -127 11z" />
    <glyph glyph-name="macron" unicode="&#xaf;" horiz-adv-x="400" 
d="M187 568l212 5c3 0 10 -7 9 -23c-1 -20 -15 -41 -24 -41l-210 -2c-3 0 -8 9 -7 18c1 17 12 43 20 43z" />
    <glyph glyph-name="breve" unicode="&#x2d8;" horiz-adv-x="400" 
d="M266 473c-54 0 -97 42 -75 127c4 16 13 22 19 22c9 0 13 -11 14 -23c3 -39 20 -58 62 -58c24 0 63 16 94 59c8 12 16 22 26 22c9 0 8 -18 5 -28c-15 -47 -63 -121 -145 -121z" />
    <glyph glyph-name="dotaccent" unicode="&#x2d9;" horiz-adv-x="400" 
d="M299 614c34 0 50 -26 50 -53c0 -32 -27 -66 -63 -66c-27 0 -46 24 -46 54c0 36 32 65 59 65z" />
    <glyph glyph-name="dieresis" unicode="&#xa8;" horiz-adv-x="400" 
d="M217 607c28 0 42 -24 42 -46c0 -29 -24 -59 -56 -59c-22 0 -39 22 -39 47c0 34 27 58 53 58zM384 607c28 0 42 -24 42 -46c0 -27 -23 -59 -55 -59c-23 0 -40 22 -40 47c0 32 28 58 53 58z" />
    <glyph glyph-name="ring" unicode="&#x2da;" horiz-adv-x="400" 
d="M304 634c53 0 81 -48 73 -92c-9 -46 -47 -83 -99 -83c-53 0 -82 46 -74 91c9 46 48 84 100 84zM298 600c-24 0 -45 -23 -50 -52c-7 -33 11 -55 36 -55s44 17 52 54c5 26 -11 53 -38 53z" />
    <glyph glyph-name="cedilla" unicode="&#xb8;" horiz-adv-x="400" 
d="M194 17h31c-37 -33 -67 -60 -67 -89c0 -14 6 -27 20 -50c8 -14 12 -32 12 -46c0 -19 -24 -46 -52 -62c-23 -12 -40 -16 -52 -16c-32 0 -62 28 -62 57c0 12 6 22 11 22s11 -3 20 -11c19 -18 39 -28 53 -28c11 0 17 3 17 15c0 14 -12 33 -26 54c-9 15 -14 30 -14 38
c0 19 10 30 19 41c11 13 50 42 90 75z" />
    <glyph glyph-name="hungarumlaut" unicode="&#x2dd;" horiz-adv-x="400" 
d="M261 624c5 9 15 15 22 15c11 0 26 -30 26 -45c-1 -7 -7 -22 -14 -31c-24 -35 -56 -76 -87 -108c-7 -8 -14 -16 -26 -15c-7 0 -7 12 0 29c18 42 59 122 79 155zM400 640c4 9 16 18 23 18c15 0 28 -29 28 -44c-1 -6 -8 -24 -15 -34c-21 -30 -60 -83 -90 -117
c-6 -9 -16 -18 -25 -18c-8 0 -10 13 -3 30c20 48 62 130 82 165z" />
    <glyph glyph-name="ogonek" unicode="&#x2db;" horiz-adv-x="400" 
d="M237 24h23c-63 -44 -143 -115 -143 -170c0 -23 16 -40 40 -40c26 0 47 11 61 21c8 3 11 2 9 -9c-2 -9 -10 -25 -12 -27c-21 -27 -63 -53 -112 -53c-53 0 -74 39 -74 73c0 87 147 174 208 205z" />
    <glyph glyph-name="caron" unicode="&#x2c7;" horiz-adv-x="400" 
d="M266 442c-11 0 -14 17 -16 27c-7 48 -16 131 -18 149c-1 12 4 27 15 27c5 0 13 -13 18 -24l30 -79c1 -2 4 -5 10 0c22 20 62 60 89 82c8 8 23 18 36 18c8 0 5 -18 -5 -31c-27 -30 -108 -126 -124 -144c-9 -10 -25 -25 -35 -25z" />
    <glyph glyph-name="emdash" unicode="&#x2014;" horiz-adv-x="969" 
d="M84 246l824 2c4 0 9 -8 9 -15c0 -11 -15 -49 -29 -49h-818c-7 0 -10 12 -10 18c0 16 18 44 24 44z" />
    <glyph glyph-name="AE" unicode="&#xc6;" horiz-adv-x="961" 
d="M705 633h61c98 0 160 2 181 11c6 2 12 -12 8 -20c-20 -36 -32 -95 -34 -112c-2 -14 -6 -19 -11 -19c-12 0 -20 12 -22 27c-5 47 -10 68 -31 74c-20 7 -73 7 -108 7c-38 0 -60 -4 -70 -33c-11 -34 -42 -135 -69 -233c-2 -7 0 -12 10 -12l107 4c71 3 74 21 96 52
c7 11 15 19 22 19c8 0 16 -12 4 -38c-14 -30 -36 -101 -44 -136c-4 -15 -14 -19 -18 -19c-6 0 -13 11 -13 27c0 38 -10 52 -37 52l-128 -2c-11 0 -16 -10 -18 -17c-12 -32 -42 -141 -45 -159c-5 -21 -6 -47 4 -57c11 -13 67 -19 129 -19c77 0 90 5 119 21c23 12 59 57 75 78
c12 18 21 29 29 29c7 0 12 -9 6 -30c-6 -19 -31 -84 -51 -112c-9 -13 -37 -20 -80 -20c-47 0 -287 4 -344 4c-56 0 -95 -3 -107 -3c-16 0 -24 8 -24 13c0 8 5 15 28 19c71 12 76 27 99 90c9 25 28 77 46 143c1 3 0 15 -9 15c-32 0 -139 -4 -157 -5c-9 -1 -21 -10 -28 -16
c-62 -60 -118 -133 -137 -165s-13 -54 31 -65c12 -4 22 -10 22 -17c0 -10 -15 -13 -28 -13c-32 0 -59 4 -111 4c-45 0 -83 -4 -97 -4c-23 0 -31 5 -31 13c0 10 11 14 32 18c46 8 89 25 131 73l420 476c7 10 8 19 -2 21c-9 2 -43 5 -70 9c-8 1 -27 9 -27 17c0 11 14 12 32 12
c10 0 175 -2 259 -2zM569 571c2 9 -6 12 -20 -4c-47 -49 -170 -186 -211 -243c-6 -8 1 -11 2 -11c14 0 123 6 139 6c7 0 15 7 17 16c1 8 67 212 73 236z" />
    <glyph glyph-name="ordfeminine" unicode="&#xaa;" horiz-adv-x="334" 
d="M51 300c0 22 17 52 33 77c28 45 90 111 146 144c12 7 22 10 26 10c8 0 22 -3 31 -11c1 -1 6 -1 7 1c14 22 23 26 26 26c10 0 30 -6 40 -13c4 -3 6 -11 4 -18c-19 -40 -45 -104 -66 -168c-5 -16 0 -18 8 -18c10 0 28 12 49 31c5 4 13 4 14 0c0 -7 -2 -15 -6 -21
c-31 -45 -84 -72 -121 -72c-16 0 -32 10 -32 25c0 9 17 46 23 60c4 9 0 12 -8 4c-33 -33 -98 -89 -141 -89c-13 0 -33 12 -33 32zM142 354c0 -10 4 -17 13 -17c13 0 31 12 48 29c32 31 51 68 64 92c3 7 3 15 1 18c-4 5 -18 11 -27 11c-19 0 -36 -7 -57 -34
c-26 -29 -42 -74 -42 -99z" />
    <glyph glyph-name="Lslash" unicode="&#x141;" horiz-adv-x="616" 
d="M169 626c1 6 11 11 30 11c22 0 87 -4 117 -4c23 0 104 5 136 5c20 0 27 -9 27 -14c0 -6 -13 -13 -28 -15c-66 -8 -78 -32 -101 -90c-13 -31 -37 -101 -62 -173c0 -4 3 -6 6 -5l149 38c6 -1 12 -17 12 -23c0 -4 -6 -10 -15 -12l-161 -45c-3 0 -7 -5 -8 -9
c-24 -72 -48 -148 -58 -184c-7 -28 -4 -55 14 -68c11 -7 33 -12 70 -12c50 0 118 3 153 16c30 12 76 46 106 104c11 21 18 26 25 26c11 0 5 -26 1 -43c-7 -28 -43 -88 -55 -114c-6 -11 -14 -17 -24 -19c-8 -2 -45 -4 -101 -4c-55 0 -220 8 -287 8c-40 0 -102 -7 -125 -7
s-32 6 -32 13c0 9 11 13 31 16c55 8 79 20 98 70c13 35 35 100 57 167c1 1 -1 6 -5 5l-73 -17c-5 -2 -12 19 -12 23c0 6 3 9 9 12l92 25c5 1 7 3 10 10c26 80 50 162 61 195c24 80 15 88 -29 96c-19 4 -28 9 -28 18z" />
    <glyph glyph-name="Oslash" unicode="&#xd8;" horiz-adv-x="697" 
d="M466 652c44 0 77 -10 110 -28c2 -1 7 1 10 4l28 36c4 5 13 14 18 14c16 0 24 -18 21 -23l-38 -51c-3 -4 -3 -8 3 -13c43 -43 69 -109 69 -187c0 -150 -82 -304 -202 -376c-54 -32 -124 -48 -181 -48c-38 0 -79 7 -116 26c-3 1 -8 1 -11 -2l-40 -54c-2 -1 -16 -1 -19 1
c-11 9 -15 17 -10 24l36 50c2 4 3 7 -1 11c-38 41 -72 94 -72 188c0 120 64 267 181 357c52 41 134 71 214 71zM468 624c-46 0 -87 -24 -126 -62c-103 -97 -152 -256 -152 -395c0 -13 5 -44 8 -56c1 -5 5 -9 9 -3l330 450c6 9 7 14 4 18c-16 25 -33 48 -73 48zM221 53
c17 -23 43 -43 83 -43c39 0 82 20 124 64c59 63 143 218 143 372c0 19 -4 57 -8 73c-1 4 -6 5 -10 -1l-331 -453c-2 -3 -4 -8 -1 -12z" />
    <glyph glyph-name="OE" unicode="&#x152;" horiz-adv-x="1016" 
d="M766 633h50c128 0 178 3 206 10c8 2 10 -15 8 -19c-20 -36 -36 -101 -39 -118c-1 -8 -6 -9 -10 -9c-8 0 -21 11 -22 30c-2 45 -12 62 -33 68c-17 6 -62 7 -98 7c-48 0 -52 -9 -65 -33c-18 -36 -56 -173 -67 -220c-2 -7 6 -14 8 -14l92 3c63 2 73 15 102 53
c8 10 15 19 23 19c7 0 11 -17 1 -37c-20 -41 -37 -101 -43 -129c-3 -15 -10 -28 -17 -28c-8 0 -13 9 -14 30c-1 38 -11 50 -39 50l-112 -2c-11 0 -20 -7 -23 -16c-8 -22 -32 -107 -41 -150c-10 -46 -10 -59 1 -78c8 -11 18 -15 43 -18c29 -3 82 -5 102 -5c25 0 52 9 69 19
c28 15 61 47 90 86c13 17 20 26 28 26c7 0 9 -7 4 -28c-5 -27 -32 -87 -51 -112c-22 -26 -42 -24 -83 -24c-44 0 -208 6 -273 6c-11 0 -46 -2 -60 -2c-12 0 -14 10 -11 22c5 17 11 35 14 42c2 10 -4 9 -9 3c-68 -64 -150 -85 -207 -85c-47 0 -113 15 -152 54
c-33 32 -68 83 -68 180c0 126 70 282 180 366c65 50 136 72 202 72c75 0 142 -32 176 -116c2 -6 8 -4 9 1c9 32 16 64 22 86c1 7 9 13 13 13c18 0 62 -3 94 -3zM196 163c0 -84 40 -147 118 -147c49 0 82 13 132 57c99 92 151 284 151 386c0 80 -28 153 -121 153
c-43 0 -92 -24 -122 -54c-105 -99 -158 -258 -158 -395z" />
    <glyph glyph-name="ordmasculine" unicode="&#xba;" horiz-adv-x="317" 
d="M261 544c64 0 85 -53 85 -85c0 -86 -63 -151 -114 -175c-15 -7 -47 -16 -70 -16c-46 0 -83 32 -83 82c0 61 40 127 84 159c23 17 51 35 98 35zM258 518c-15 0 -28 -11 -40 -25c-29 -32 -66 -119 -66 -169c0 -20 7 -28 19 -28c9 0 21 6 34 23c25 29 71 122 71 172
c0 19 -8 27 -18 27z" />
    <glyph glyph-name="ae" unicode="&#xe6;" horiz-adv-x="495" 
d="M406 407c50 0 76 -39 76 -65c0 -88 -98 -132 -185 -174c-2 -1 -5 -8 -6 -12c-3 -41 2 -105 56 -105c20 0 40 11 71 37c4 3 12 8 15 8c4 0 6 -1 5 -11c0 -34 -93 -101 -158 -101c-32 0 -76 25 -85 91c0 4 -5 5 -7 3c-39 -38 -112 -94 -160 -94c-17 0 -44 15 -44 49
c0 93 140 219 243 285c17 10 37 24 54 36c24 18 73 53 125 53zM117 60c16 0 46 21 66 53c4 6 10 25 10 32c6 44 21 94 35 127c3 8 1 15 -5 10c-37 -27 -130 -125 -130 -191c0 -26 10 -31 24 -31zM386 377c-31 0 -82 -78 -92 -172c0 -5 2 -8 5 -6c51 23 109 98 109 141
c0 21 -4 37 -22 37z" />
    <glyph glyph-name="dotlessi" unicode="&#x131;" horiz-adv-x="280" 
d="M225 405c10 0 24 -20 24 -29s-7 -26 -11 -35c-47 -114 -68 -175 -101 -254c-3 -9 3 -15 11 -15c11 0 48 24 80 55c11 9 15 12 21 12c2 0 7 -3 7 -7c0 -9 -6 -23 -18 -36c-46 -58 -144 -114 -185 -114c-15 0 -39 16 -39 29c0 6 0 7 4 17c36 88 70 165 113 273
c3 9 0 18 -8 17c-14 -2 -41 -14 -66 -33c-5 -5 -14 1 -14 6c0 7 5 16 12 25c22 24 116 89 170 89z" />
    <glyph glyph-name="lslash" unicode="&#x142;" horiz-adv-x="280" 
d="M172 662c0 5 8 15 19 17s92 11 119 20c13 5 21 6 31 6c8 0 11 -15 5 -31c-27 -69 -66 -180 -99 -270c-2 -6 2 -10 3 -10l58 15c5 2 11 -13 11 -20c0 -8 -5 -13 -15 -16l-63 -18c-8 -1 -15 -8 -16 -12c-45 -122 -85 -242 -95 -272c-9 -24 -4 -33 6 -33c21 0 88 71 110 92
c7 5 12 1 12 -4c0 -6 -4 -24 -7 -30c-37 -68 -115 -112 -173 -112c-30 0 -54 25 -54 45c0 9 9 38 29 96c19 53 41 120 67 193c2 5 0 9 -2 8l-48 -10c-6 -1 -11 9 -11 18c0 6 3 11 13 15l57 16c7 1 10 7 13 14c23 65 52 151 76 220c14 39 4 44 -24 50c-15 3 -22 6 -22 13z
" />
    <glyph glyph-name="oslash" unicode="&#xf8;" horiz-adv-x="448" 
d="M294 408c14 0 30 -3 42 -7c3 -1 5 -1 9 3l14 20c8 9 12 11 20 11c14 0 19 -9 17 -12l-24 -38c-4 -4 -2 -8 1 -10c25 -24 40 -57 40 -92c0 -132 -88 -237 -177 -277c-25 -11 -60 -21 -95 -21c-13 0 -29 4 -41 9c-2 1 -6 0 -9 -4c-8 -11 -13 -20 -21 -29c-2 -3 -5 -4 -8 -3
c-14 7 -17 21 -13 27l16 21c3 5 0 8 -2 11c-20 20 -35 51 -35 95c0 60 39 169 116 236c41 35 92 60 150 60zM321 315c-60 -87 -127 -181 -189 -268c-3 -4 -5 -9 -2 -13c5 -10 21 -18 28 -18c22 0 36 7 57 29c52 55 104 179 111 264c1 8 -2 11 -5 6zM286 377
c-20 0 -45 -17 -65 -38c-48 -57 -96 -145 -101 -246c-1 -4 1 -8 5 -2c64 89 125 179 186 267c3 3 4 8 0 10c-7 6 -16 9 -25 9z" />
    <glyph glyph-name="oe" unicode="&#x153;" horiz-adv-x="628" 
d="M303 406c39 0 75 -30 90 -65c2 -6 6 -4 10 0c35 32 88 66 145 66c46 0 78 -28 78 -65c0 -47 -36 -77 -63 -92c-32 -20 -97 -43 -159 -58c-3 0 -13 -5 -16 -10c-6 -9 -17 -39 -17 -71c0 -35 19 -60 55 -60c27 0 60 14 97 46c9 8 17 4 17 -4c0 -3 -4 -14 -9 -21
c-28 -39 -97 -84 -171 -84c-38 0 -71 26 -78 72c-1 4 -6 5 -8 3c-41 -37 -111 -76 -165 -76c-35 0 -84 36 -84 107c0 116 84 218 117 245c34 27 84 67 161 67zM304 378c-19 0 -45 -18 -61 -35c-67 -77 -121 -200 -121 -282c0 -18 11 -36 24 -36s36 5 75 52
c59 71 110 188 110 268c0 13 -9 33 -27 33zM531 379c-36 0 -105 -84 -130 -152c-2 -3 1 -7 6 -6c11 2 146 55 146 129c0 17 -6 29 -22 29z" />
    <glyph glyph-name="germandbls" unicode="&#xdf;" horiz-adv-x="505" 
d="M484 705c106 0 130 -63 130 -97c-1 -44 -33 -69 -51 -82c-19 -13 -56 -36 -81 -53c-77 -51 -91 -83 -92 -122c0 -12 7 -29 35 -89c21 -47 32 -72 31 -107c-1 -34 -31 -83 -79 -117c-39 -30 -95 -54 -121 -54c-33 0 -67 16 -67 50c0 17 17 38 37 51c7 4 17 0 20 -4
c28 -27 62 -39 75 -39c31 0 49 22 49 46c2 31 -18 67 -38 110c-24 49 -42 84 -41 117c2 54 29 85 136 153c56 35 97 80 98 126c0 32 -22 73 -84 73c-92 0 -160 -75 -222 -267c-40 -126 -74 -287 -91 -372c-31 -154 -82 -211 -146 -253c-46 -31 -97 -48 -112 -48
c-38 0 -80 16 -80 54c0 12 16 41 31 49c6 3 21 6 24 3c20 -18 62 -47 84 -47c29 0 44 15 60 85c5 22 25 102 59 249c43 188 89 340 171 441c73 89 169 144 265 144z" />
    <glyph glyph-name="logicalnot" unicode="&#xac;" horiz-adv-x="624" 
d="M90 349h459c13 0 13 -12 13 -21v-274c0 -15 -40 -20 -56 -20c-7 0 -12 2 -12 15v215c0 16 -8 18 -18 25h-380c-17 0 -20 1 -20 15s7 45 14 45z" />
    <glyph glyph-name="mu" unicode="&#xb5;" horiz-adv-x="475" 
d="M170 404c20 0 40 -12 52 -22c6 -5 9 -28 7 -32c-4 -16 -39 -78 -61 -110c-20 -28 -49 -79 -58 -93s-11 -23 -9 -36c1 -12 9 -30 31 -30c43 0 119 78 148 120c8 11 14 26 18 36c30 89 45 126 54 145c6 14 27 27 34 27c36 0 55 -17 61 -25c5 -7 4 -24 -5 -47
c-20 -49 -87 -148 -121 -186c-9 -10 -16 -22 -15 -32c2 -37 28 -45 47 -45c30 0 64 17 95 52c6 7 14 -3 14 -9c0 -10 -12 -38 -21 -54c-27 -45 -74 -83 -111 -83c-48 0 -62 43 -49 112c1 6 -3 8 -8 4c-76 -80 -106 -108 -147 -108c-28 0 -50 53 -53 66c-2 8 -9 1 -11 -3
c-9 -21 -33 -100 -34 -150c-1 -49 41 -84 52 -93c4 -4 3 -16 -2 -23c-6 -9 -30 -33 -42 -40c-12 -8 -24 -11 -38 -11c-13 0 -31 20 -38 40c-6 20 2 78 22 143c19 64 50 149 59 174s4 15 13 51c9 26 55 196 69 234c2 7 11 18 19 22c12 5 23 6 28 6z" />
    <glyph glyph-name="trademark" unicode="&#x2122;" horiz-adv-x="386" 
d="M454 601c3 0 44 1 49 1c11 0 9 -11 4 -13l-19 -7c-2 -3 -2 -6 -3 -13c0 -12 1 -47 1 -70c1 -21 2 -22 6 -25l14 -5c7 -3 6 -14 -3 -14h-30c-10 0 -23 -1 -31 -1c-10 0 -11 10 -3 13c11 5 12 7 13 25c2 33 1 74 1 77c0 4 -2 3 -3 1c-8 -15 -29 -71 -38 -92l-10 -22
c-3 -3 -9 -3 -12 0c0 0 -1 4 -7 18l-38 88c-1 4 -3 3 -4 0c-1 -24 -2 -52 -2 -71c0 -14 5 -17 25 -24c10 -3 3 -13 -4 -13c-13 0 -23 1 -36 1c-11 0 -20 -1 -26 -1c-8 0 -13 9 -4 13c13 6 21 8 23 24c3 20 7 66 7 73c1 6 0 10 -3 15c-5 7 -10 6 -18 9c-11 4 -8 14 1 14
c14 -1 31 -1 45 -1h9c3 0 8 -11 14 -22c6 -12 16 -31 30 -61c1 -2 3 -4 5 -1c12 24 21 45 34 75c3 8 6 9 13 9zM159 601h85c14 0 19 1 29 6c3 1 9 -1 9 -3c-1 -7 -3 -41 -3 -44c0 -7 -10 -8 -13 -1c-4 8 -7 26 -19 26h-25v-86c0 -17 1 -21 9 -26c4 -2 12 -4 15 -6
c8 -3 6 -13 -1 -13c-9 0 -30 1 -40 1c-19 0 -24 -1 -39 -1c-7 0 -11 8 -2 13l12 5c6 3 12 8 12 30v63c0 13 -1 20 -5 20h-18c-17 0 -17 -12 -23 -21l-5 -7c-2 -1 -9 1 -9 9c0 2 2 32 2 39c1 2 8 4 11 2c4 -3 7 -5 18 -6z" />
    <glyph glyph-name="Eth" unicode="&#xd0;" horiz-adv-x="737" 
d="M410 639c72 0 150 -16 209 -63c68 -53 98 -133 98 -213c0 -140 -88 -253 -167 -301c-83 -49 -168 -68 -278 -68c-74 0 -116 6 -158 6c-40 0 -95 -4 -115 -4c-21 0 -36 3 -36 13c0 9 11 15 33 18c53 5 76 15 101 97c15 48 35 111 54 176c2 4 -2 10 -6 10l-73 -2
c-4 4 -10 8 -7 18c2 10 11 21 17 21l76 1c6 0 9 5 10 8c20 71 41 141 56 187c11 39 3 56 -18 60c-19 2 -35 4 -52 5c-15 1 -28 5 -28 12c0 8 8 15 33 15c20 0 62 -2 89 -2c29 0 106 6 162 6zM406 610c-31 0 -36 -6 -46 -25c-20 -39 -38 -95 -78 -227c-1 -3 -1 -9 4 -9l145 1
c3 0 9 -3 8 -12s-8 -24 -19 -24l-145 -3c-5 0 -9 -7 -9 -12c-37 -125 -45 -176 -48 -207c-3 -25 1 -39 18 -49c16 -11 40 -21 53 -21c45 0 99 19 153 55c82 55 146 168 146 305c0 75 -24 152 -68 186c-32 25 -65 42 -114 42z" />
    <glyph glyph-name="onehalf" unicode="&#xbd;" horiz-adv-x="733" 
d="M586 345c50 0 91 -36 91 -89c0 -42 -24 -73 -69 -106c-40 -30 -75 -52 -113 -78c-7 -5 -3 -7 2 -7c24 0 96 2 108 3c7 1 19 9 34 25c8 8 16 14 22 14c7 0 10 -13 5 -23l-45 -80c-3 -5 -15 -6 -19 -6c-11 0 -115 2 -143 2l-55 -1c-21 0 -26 7 -26 14c0 4 11 16 17 20
c33 23 78 53 119 88c61 50 77 88 77 116c0 36 -22 53 -50 53c-24 0 -49 -17 -66 -32c-7 -7 -14 -11 -19 -11c-4 0 -7 6 -7 9c0 7 5 18 15 29c10 12 50 60 122 60zM161 578c0 6 12 12 23 14c49 7 95 13 134 29c5 3 12 -6 10 -11c-8 -19 -15 -38 -27 -75
c-19 -56 -42 -133 -55 -182c-10 -36 1 -43 29 -51c17 -4 23 -10 23 -17c0 -8 -12 -12 -24 -12c-18 0 -70 3 -91 3c-40 0 -67 -3 -89 -3c-8 0 -24 3 -24 13c0 8 11 14 33 18c28 5 36 14 47 37c14 26 28 69 49 134c13 39 21 66 24 78c1 5 -1 8 -5 8l-34 4c-9 1 -23 5 -23 13z
M640 636c12 0 23 -15 20 -19c-190 -231 -349 -422 -534 -643c-2 -3 -9 -9 -14 -9c-9 0 -23 21 -16 30c182 217 358 428 524 629c9 10 14 12 20 12z" />
    <glyph glyph-name="plusminus" unicode="&#xb1;" horiz-adv-x="624" 
d="M296 545c0 8 39 15 53 15s15 -2 15 -20v-185c0 -11 2 -12 12 -12h190c13 0 15 -3 15 -12c0 -25 -8 -49 -14 -49h-191c-7 0 -12 -9 -12 -15v-184c0 -16 -40 -21 -56 -21c-7 0 -12 2 -12 15v188c0 16 -3 17 -15 17h-183c-17 0 -20 1 -20 15s7 46 14 46h192c5 0 12 4 12 12
v190zM566 11c13 0 15 -3 15 -12c0 -25 -8 -49 -14 -49h-469c-17 0 -20 1 -20 15s7 46 14 46h474z" />
    <glyph glyph-name="Thorn" unicode="&#xde;" horiz-adv-x="571" 
d="M160 625c0 5 8 10 26 10c13 0 88 -2 110 -2c45 0 99 3 120 3c11 0 22 -7 22 -12c1 -6 -7 -12 -28 -15c-48 -7 -60 -21 -83 -104c-1 -4 3 -9 8 -9c9 0 17 1 28 1c63 0 115 -17 139 -34c45 -32 63 -78 63 -120c0 -113 -88 -163 -128 -181c-47 -21 -93 -26 -134 -26
c-19 0 -32 8 -32 18c0 7 7 8 26 12c86 16 145 88 145 178c0 84 -44 122 -101 122c-16 0 -28 -5 -32 -15c-6 -17 -84 -292 -95 -336c-17 -72 -1 -81 51 -91c16 -3 24 -9 24 -16c0 -8 -12 -13 -30 -13c-25 0 -65 5 -121 5c-41 0 -108 -5 -140 -5c-17 0 -28 4 -28 12
s10 14 31 18c52 9 67 18 87 74c21 67 98 314 133 432c15 47 15 69 -31 77c-21 3 -29 11 -30 17z" />
    <glyph glyph-name="onequarter" unicode="&#xbc;" horiz-adv-x="692" 
d="M640 345c3 0 10 -7 7 -16l-51 -176c-1 -2 -1 -6 5 -6l48 3c3 0 5 -9 5 -12c-1 -9 -9 -25 -19 -27c-6 0 -32 -2 -45 -3c-4 0 -8 -3 -9 -6c-7 -24 -22 -80 -27 -93c-2 -7 -10 -14 -15 -16c-13 -4 -55 -9 -64 -9c-4 0 -14 5 -10 17c3 9 17 57 30 93c1 3 1 9 -2 9
c-6 0 -120 -6 -132 -6c-11 0 -11 14 -10 17c2 3 19 20 24 25c25 23 107 94 168 147l21 18c12 9 53 41 76 41zM161 578c0 6 12 12 23 14c49 7 95 13 134 29c5 3 12 -6 10 -11c-8 -19 -15 -38 -27 -75c-19 -56 -42 -133 -55 -182c-10 -36 1 -43 29 -51c17 -4 23 -10 23 -17
c0 -8 -12 -12 -24 -12c-18 0 -70 3 -91 3c-40 0 -67 -3 -89 -3c-8 0 -24 3 -24 13c0 8 11 14 33 18c28 5 36 14 47 37c14 26 28 69 49 134c13 39 21 66 24 78c1 5 -1 8 -5 8l-34 4c-9 1 -23 5 -23 13zM645 636c12 0 23 -15 20 -19c-190 -231 -349 -422 -534 -643
c-2 -3 -9 -9 -14 -9c-9 0 -23 21 -16 30c182 217 358 428 524 629c9 10 14 12 20 12zM512 147c8 21 22 63 39 109c1 3 -2 5 -3 4c-36 -32 -88 -75 -128 -117c-4 -4 0 -7 3 -7l80 5c4 0 8 3 9 6z" />
    <glyph glyph-name="divide" unicode="&#xf7;" horiz-adv-x="624" 
d="M330 146c33 0 56 -27 56 -55c0 -34 -23 -61 -56 -61s-56 27 -56 61c0 28 23 55 56 55zM330 358c-28 0 -54 25 -54 57c0 31 26 58 54 58c35 0 58 -27 58 -58c0 -32 -23 -57 -58 -57zM568 284c13 0 15 -3 15 -12c0 -25 -8 -48 -14 -48h-469c-17 0 -20 1 -20 15
c0 13 7 45 14 45h474z" />
    <glyph glyph-name="brokenbar" unicode="&#xa6;" horiz-adv-x="295" 
d="M141 -173v346h71v-346h-71zM141 668h71v-346h-71v346z" />
    <glyph glyph-name="degree" unicode="&#xb0;" horiz-adv-x="300" 
d="M208 636c61 0 116 -43 116 -119c0 -73 -58 -119 -120 -119c-64 0 -118 45 -118 119c0 70 59 119 122 119zM201 597c-37 0 -66 -34 -66 -80c0 -49 33 -80 75 -80c34 0 64 30 64 80c0 46 -30 80 -73 80z" />
    <glyph glyph-name="thorn" unicode="&#xfe;" horiz-adv-x="483" 
d="M73 214l122 384c12 35 2 41 -23 57c-7 4 -12 11 -12 13c0 7 12 16 24 19c11 3 122 19 142 19c5 0 10 -11 8 -15c-24 -48 -123 -316 -155 -415c-2 -4 5 -7 7 -3c56 74 131 134 194 134c24 0 45 -9 59 -23c13 -15 23 -38 23 -65c0 -106 -97 -239 -193 -296
c-49 -30 -101 -39 -123 -39c-9 0 -29 5 -40 11c-4 1 -10 -6 -10 -7c-22 -71 -38 -117 -46 -157c-6 -32 6 -43 47 -51c19 -5 25 -9 25 -17c1 -8 -12 -14 -29 -14c-29 0 -52 1 -81 1c-53 0 -103 -7 -127 -7c-20 0 -27 5 -27 11c0 8 7 13 28 18c40 11 50 26 61 59
c9 29 95 288 126 383zM334 359c-47 0 -97 -68 -136 -129c-49 -77 -70 -147 -70 -169c0 -23 15 -44 33 -44c12 0 38 14 62 37c62 63 138 214 138 275c0 14 -10 30 -27 30z" />
    <glyph glyph-name="threequarters" unicode="&#xbe;" horiz-adv-x="687" 
d="M635 345c3 0 10 -7 7 -16l-51 -176c-1 -2 -1 -6 5 -6l48 3c3 0 5 -9 5 -12c-1 -9 -9 -25 -19 -27c-6 0 -32 -2 -45 -3c-4 0 -8 -3 -9 -6c-7 -24 -22 -80 -27 -93c-2 -7 -10 -14 -15 -16c-13 -4 -55 -9 -64 -9c-4 0 -14 5 -10 17c3 9 17 57 30 93c1 3 1 9 -2 9
c-6 0 -120 -6 -132 -6c-11 0 -11 14 -10 17c2 3 19 20 24 25c25 23 107 94 168 147l21 18c12 9 53 41 76 41zM260 621c69 0 85 -46 85 -68c0 -44 -60 -67 -88 -78c-5 -1 -6 -6 0 -8c31 -9 77 -26 77 -80s-67 -93 -112 -110c-21 -8 -57 -17 -89 -17c-54 0 -66 31 -63 66
c0 7 6 14 11 14c1 0 7 -3 13 -8c19 -13 43 -41 77 -41c35 0 70 36 70 80c0 40 -28 60 -53 60c-13 0 -22 -1 -29 -2s-13 1 -13 7c0 4 7 14 21 20c20 11 26 12 50 24c22 12 45 33 45 67c0 18 -9 37 -36 37c-25 0 -48 -24 -62 -48c-4 -5 -11 -6 -15 -3c-5 5 -8 22 -8 27
c0 8 5 15 10 20c19 16 61 41 109 41zM647 636c12 0 23 -15 20 -19c-190 -231 -349 -422 -534 -643c-2 -3 -9 -9 -14 -9c-9 0 -23 21 -16 30c182 217 358 428 524 629c9 10 14 12 20 12zM507 147c8 21 22 63 39 109c1 3 -2 5 -3 4c-36 -32 -88 -75 -128 -117c-4 -4 0 -7 3 -7
l80 5c4 0 8 3 9 6z" />
    <glyph glyph-name="registered" unicode="&#xae;" horiz-adv-x="242" 
d="M231 644c65 0 114 -50 114 -114c0 -53 -41 -116 -116 -116c-64 0 -112 51 -112 116c0 60 49 114 114 114zM231 625c-52 1 -92 -40 -92 -95c0 -54 40 -95 92 -95c54 0 91 41 91 95c0 55 -42 95 -91 95zM195 504v52c0 15 -3 16 -10 19c-12 5 -6 9 -1 10c20 2 31 3 49 3
c28 0 46 -12 46 -31c0 -16 -15 -20 -19 -22c-1 -1 -2 -2 -1 -4c18 -32 26 -42 32 -46c4 -2 7 -5 7 -6c0 -2 -6 -5 -15 -5c-11 0 -21 5 -27 15c-6 9 -14 21 -19 30c-1 3 -4 4 -9 4c-7 0 -7 -1 -7 -4v-11c0 -16 1 -16 16 -22c7 -3 6 -9 0 -9h-53c-5 0 -8 6 -2 8
c9 5 13 8 13 19zM221 571v-31c0 -4 0 -4 9 -4c16 0 20 7 20 18s-7 22 -19 22c-8 0 -10 -1 -10 -5z" />
    <glyph glyph-name="minus" unicode="&#x2212;" horiz-adv-x="624" 
d="M559 285c13 0 15 -3 15 -12c0 -25 -8 -49 -14 -49h-469c-17 0 -20 1 -20 15c0 13 7 46 15 46h473z" />
    <glyph glyph-name="eth" unicode="&#xf0;" horiz-adv-x="440" 
d="M287 409c9 0 15 0 23 -2c5 -1 7 3 7 8c0 17 -6 92 -20 109c-2 3 -5 4 -8 3l-88 -38c-6 -5 -13 2 -13 7c0 12 0 23 9 27c18 8 69 28 83 38c2 2 3 5 2 7c-52 101 -103 119 -100 130c0 7 12 12 16 12c33 0 104 -57 142 -114c4 -5 7 -7 9 -5c32 13 63 27 94 40
c6 3 12 3 13 -3c6 -17 3 -26 -10 -34c-17 -9 -63 -26 -74 -37c-2 -2 -3 -4 -2 -7c25 -55 44 -133 44 -202c0 -167 -94 -297 -185 -341c-27 -14 -54 -21 -88 -22c-8 -1 -16 0 -25 1c-47 8 -89 49 -89 115c0 61 36 180 130 254c42 33 84 54 130 54zM292 381
c-15 0 -40 -18 -52 -30c-54 -55 -113 -172 -113 -294c0 -27 14 -42 30 -42s42 22 56 38c54 60 106 217 106 291c0 20 -12 37 -27 37z" />
    <glyph glyph-name="multiply" unicode="&#xd7;" horiz-adv-x="624" 
d="M116 430c-6 5 14 31 24 42c9 9 13 11 27 -4l166 -165c7 -7 11 -8 17 -2l167 173c9 9 13 8 19 2c19 -19 24 -37 20 -41l-169 -174c-5 -5 -2 -15 2 -19l170 -170c12 -12 -7 -38 -19 -49c-5 -5 -10 -7 -19 2l-177 176c-9 10 -13 9 -21 0l-162 -162c-13 -14 -16 -15 -26 -6
c-11 11 -22 34 -17 40l168 169c3 4 5 12 0 17z" />
    <glyph glyph-name="copyright" unicode="&#xa9;" horiz-adv-x="704" 
d="M375 628c180 0 304 -139 304 -309s-128 -309 -304 -309c-186 0 -306 139 -306 309s129 309 306 309zM375 598c-152 0 -269 -122 -269 -278c0 -155 118 -280 269 -280c149 0 267 121 267 280c0 156 -118 278 -267 278zM402 496c26 0 44 -4 56 -7s35 -8 48 -9
c4 -1 7 -6 9 -23c1 -13 1 -32 1 -46c0 -12 -5 -20 -11 -20c-8 0 -14 10 -17 16c-7 20 -15 36 -32 45c-16 11 -40 17 -57 17c-69 0 -107 -67 -107 -133c0 -115 75 -154 115 -154c50 0 70 18 91 57c7 14 12 23 21 23c4 0 7 -10 7 -16c0 -9 -11 -49 -15 -62
c-2 -7 -12 -16 -17 -18c-10 -4 -53 -16 -99 -16c-67 0 -123 28 -151 59c-20 23 -43 62 -43 116c0 63 34 105 60 126c43 36 104 45 141 45z" />
    <glyph glyph-name="Aacute" unicode="&#xc1;" horiz-adv-x="655" 
d="M628 654c9 0 14 -7 4 -37c-9 -26 -23 -69 -33 -110c-24 -112 -56 -268 -77 -388c-13 -70 -4 -85 46 -93c14 -2 26 -8 26 -17c0 -8 -18 -12 -32 -12c-34 0 -50 3 -87 3c-50 0 -113 -7 -154 -7c-12 0 -28 3 -27 12c0 7 13 14 31 17c58 7 66 48 71 62c13 43 31 121 38 156
c2 8 0 14 -11 14c-17 0 -106 -5 -140 -10c-12 -2 -26 -12 -39 -26c-23 -24 -67 -78 -93 -119c-21 -34 -20 -64 30 -75c10 -3 18 -8 18 -15c0 -8 -14 -13 -27 -13c-41 0 -65 4 -113 4c-38 0 -83 -5 -94 -5c-25 0 -33 6 -33 15c0 8 13 13 32 16c59 7 92 30 130 73
c137 151 293 345 368 438c17 20 36 43 43 57c2 3 11 12 14 12c20 1 62 5 88 36c6 7 16 12 21 12zM311 283c9 0 91 4 123 8c3 0 11 9 13 14c9 22 34 144 41 176c4 23 6 31 2 31s-12 -7 -22 -17c-42 -42 -132 -161 -160 -200c-2 -4 0 -12 3 -12zM775 783
c-2 -7 -12 -17 -25 -24c-34 -19 -137 -70 -175 -82c-6 -2 -26 -7 -31 -2c-4 4 -3 17 13 30c30 26 102 87 150 117c9 6 23 8 28 5c17 -4 43 -30 40 -44z" />
    <glyph glyph-name="Acircumflex" unicode="&#xc2;" horiz-adv-x="655" 
d="M628 654c9 0 14 -7 4 -37c-9 -26 -23 -69 -33 -110c-24 -112 -56 -268 -77 -388c-13 -70 -4 -85 46 -93c14 -2 26 -8 26 -17c0 -8 -18 -12 -32 -12c-34 0 -50 3 -87 3c-50 0 -113 -7 -154 -7c-12 0 -28 3 -27 12c0 7 13 14 31 17c58 7 66 48 71 62c13 43 31 121 38 156
c2 8 0 14 -11 14c-17 0 -106 -5 -140 -10c-12 -2 -26 -12 -39 -26c-23 -24 -67 -78 -93 -119c-21 -34 -20 -64 30 -75c10 -3 18 -8 18 -15c0 -8 -14 -13 -27 -13c-41 0 -65 4 -113 4c-38 0 -83 -5 -94 -5c-25 0 -33 6 -33 15c0 8 13 13 32 16c59 7 92 30 130 73
c137 151 293 345 368 438c17 20 36 43 43 57c2 3 11 12 14 12c20 1 62 5 88 36c6 7 16 12 21 12zM311 283c9 0 91 4 123 8c3 0 11 9 13 14c9 22 34 144 41 176c4 23 6 31 2 31s-12 -7 -22 -17c-42 -42 -132 -161 -160 -200c-2 -4 0 -12 3 -12zM625 790c9 0 21 -15 26 -24
c18 -25 46 -59 70 -90c14 -17 8 -26 -3 -26s-20 5 -29 10c-24 13 -55 30 -79 47c-5 4 -14 3 -17 1c-35 -17 -81 -34 -122 -49c-14 -5 -26 -9 -35 -9c-13 0 -15 10 5 27c23 16 97 61 141 92c8 5 29 21 43 21z" />
    <glyph glyph-name="Adieresis" unicode="&#xc4;" horiz-adv-x="655" 
d="M628 654c9 0 14 -7 4 -37c-9 -26 -23 -69 -33 -110c-24 -112 -56 -268 -77 -388c-13 -70 -4 -85 46 -93c14 -2 26 -8 26 -17c0 -8 -18 -12 -32 -12c-34 0 -50 3 -87 3c-50 0 -113 -7 -154 -7c-12 0 -28 3 -27 12c0 7 13 14 31 17c58 7 66 48 71 62c13 43 31 121 38 156
c2 8 0 14 -11 14c-17 0 -106 -5 -140 -10c-12 -2 -26 -12 -39 -26c-23 -24 -67 -78 -93 -119c-21 -34 -20 -64 30 -75c10 -3 18 -8 18 -15c0 -8 -14 -13 -27 -13c-41 0 -65 4 -113 4c-38 0 -83 -5 -94 -5c-25 0 -33 6 -33 15c0 8 13 13 32 16c59 7 92 30 130 73
c137 151 293 345 368 438c17 20 36 43 43 57c2 3 11 12 14 12c20 1 62 5 88 36c6 7 16 12 21 12zM311 283c9 0 91 4 123 8c3 0 11 9 13 14c9 22 34 144 41 176c4 23 6 31 2 31s-12 -7 -22 -17c-42 -42 -132 -161 -160 -200c-2 -4 0 -12 3 -12zM505 781c28 0 43 -26 42 -51
c-2 -32 -31 -56 -57 -56c-22 0 -44 15 -42 50c2 31 31 57 57 57zM694 781c28 0 43 -26 42 -51c-2 -35 -34 -56 -58 -56c-21 0 -43 15 -42 50c2 32 32 57 58 57z" />
    <glyph glyph-name="Agrave" unicode="&#xc0;" horiz-adv-x="655" 
d="M628 654c9 0 14 -7 4 -37c-9 -26 -23 -69 -33 -110c-24 -112 -56 -268 -77 -388c-13 -70 -4 -85 46 -93c14 -2 26 -8 26 -17c0 -8 -18 -12 -32 -12c-34 0 -50 3 -87 3c-50 0 -113 -7 -154 -7c-12 0 -28 3 -27 12c0 7 13 14 31 17c58 7 66 48 71 62c13 43 31 121 38 156
c2 8 0 14 -11 14c-17 0 -106 -5 -140 -10c-12 -2 -26 -12 -39 -26c-23 -24 -67 -78 -93 -119c-21 -34 -20 -64 30 -75c10 -3 18 -8 18 -15c0 -8 -14 -13 -27 -13c-41 0 -65 4 -113 4c-38 0 -83 -5 -94 -5c-25 0 -33 6 -33 15c0 8 13 13 32 16c59 7 92 30 130 73
c137 151 293 345 368 438c17 20 36 43 43 57c2 3 11 12 14 12c20 1 62 5 88 36c6 7 16 12 21 12zM311 283c9 0 91 4 123 8c3 0 11 9 13 14c9 22 34 144 41 176c4 23 6 31 2 31s-12 -7 -22 -17c-42 -42 -132 -161 -160 -200c-2 -4 0 -12 3 -12zM521 836c10 1 19 -4 36 -22
c21 -22 64 -72 89 -105c7 -9 13 -22 10 -28c-4 -7 -18 -5 -33 3c-48 27 -116 73 -133 86c-12 9 -17 21 -17 30c0 5 9 15 29 29c8 4 15 6 19 7z" />
    <glyph glyph-name="Aring" unicode="&#xc5;" horiz-adv-x="655" 
d="M628 654c9 0 14 -7 4 -37c-9 -26 -23 -69 -33 -110c-24 -112 -56 -268 -77 -388c-13 -70 -4 -85 46 -93c14 -2 26 -8 26 -17c0 -8 -18 -12 -32 -12c-34 0 -50 3 -87 3c-50 0 -113 -7 -154 -7c-12 0 -28 3 -27 12c0 7 13 14 31 17c58 7 66 48 71 62c13 43 31 121 38 156
c2 8 0 14 -11 14c-17 0 -106 -5 -140 -10c-12 -2 -26 -12 -39 -26c-23 -24 -67 -78 -93 -119c-21 -34 -20 -64 30 -75c10 -3 18 -8 18 -15c0 -8 -14 -13 -27 -13c-41 0 -65 4 -113 4c-38 0 -83 -5 -94 -5c-25 0 -33 6 -33 15c0 8 13 13 32 16c59 7 92 30 130 73
c137 151 293 345 368 438c17 20 36 43 43 57c2 3 11 12 14 12c20 1 62 5 88 36c6 7 16 12 21 12zM311 283c9 0 91 4 123 8c3 0 11 9 13 14c9 22 34 144 41 176c4 23 6 31 2 31s-12 -7 -22 -17c-42 -42 -132 -161 -160 -200c-2 -4 0 -12 3 -12zM610 840c58 0 85 -47 79 -91
c-7 -43 -44 -79 -100 -79s-86 43 -80 89c6 44 43 81 101 81zM605 809c-25 0 -45 -21 -49 -51c-5 -35 14 -55 36 -55s47 14 52 52c3 29 -14 54 -39 54z" />
    <glyph glyph-name="Atilde" unicode="&#xc3;" horiz-adv-x="655" 
d="M628 654c9 0 14 -7 4 -37c-9 -26 -23 -69 -33 -110c-24 -112 -56 -268 -77 -388c-13 -70 -4 -85 46 -93c14 -2 26 -8 26 -17c0 -8 -18 -12 -32 -12c-34 0 -50 3 -87 3c-50 0 -113 -7 -154 -7c-12 0 -28 3 -27 12c0 7 13 14 31 17c58 7 66 48 71 62c13 43 31 121 38 156
c2 8 0 14 -11 14c-17 0 -106 -5 -140 -10c-12 -2 -26 -12 -39 -26c-23 -24 -67 -78 -93 -119c-21 -34 -20 -64 30 -75c10 -3 18 -8 18 -15c0 -8 -14 -13 -27 -13c-41 0 -65 4 -113 4c-38 0 -83 -5 -94 -5c-25 0 -33 6 -33 15c0 8 13 13 32 16c59 7 92 30 130 73
c137 151 293 345 368 438c17 20 36 43 43 57c2 3 11 12 14 12c20 1 62 5 88 36c6 7 16 12 21 12zM311 283c9 0 91 4 123 8c3 0 11 9 13 14c9 22 34 144 41 176c4 23 6 31 2 31s-12 -7 -22 -17c-42 -42 -132 -161 -160 -200c-2 -4 0 -12 3 -12zM462 710c12 16 30 36 41 46
c7 6 16 14 32 14c47 0 121 -13 145 -11c18 2 35 20 51 35c3 4 6 5 9 5c4 -2 9 -9 12 -16c1 -6 -1 -13 -5 -18c-14 -17 -41 -45 -54 -57c-14 -11 -25 -14 -31 -14c-31 0 -134 14 -150 12c-8 -1 -22 -13 -35 -31c-3 -5 -6 -7 -9 -7c-9 0 -17 13 -17 16c0 4 0 11 11 26z" />
    <glyph glyph-name="Ccedilla" unicode="&#xc7;" horiz-adv-x="657" 
d="M356 -16c-22 -22 -41 -43 -41 -65c0 -16 6 -27 20 -50c9 -15 14 -34 14 -48c0 -19 -26 -46 -54 -62c-22 -12 -40 -16 -53 -16c-32 0 -62 28 -62 59c0 11 6 20 10 20s13 -3 22 -12c19 -17 39 -27 53 -27c12 0 17 3 17 15c0 15 -11 34 -26 56c-9 15 -14 29 -14 38
c0 19 10 29 20 41c9 11 30 28 55 49h-6c-93 4 -235 47 -235 252c0 109 52 223 136 303c80 75 195 113 297 113c65 0 111 -14 138 -26c18 -8 26 -8 42 1c15 8 20 8 22 6c2 -3 9 -14 2 -24c-25 -38 -48 -100 -53 -120c-6 -22 -11 -28 -17 -28c-9 0 -16 12 -14 29
c6 43 0 64 -19 88c-22 30 -64 47 -95 47c-50 0 -115 -17 -195 -96c-76 -77 -115 -207 -115 -304c0 -161 100 -206 160 -206c46 0 100 36 122 54c22 19 57 49 79 75c9 9 16 13 21 13c7 0 7 -13 3 -27c-8 -28 -77 -130 -81 -136c-6 -8 -15 -13 -24 -5c-11 10 -25 16 -48 11
c-15 -3 -46 -13 -81 -18z" />
    <glyph glyph-name="Eacute" unicode="&#xc9;" horiz-adv-x="605" 
d="M290 335l94 3c63 2 74 14 103 54c8 10 15 18 23 18c9 0 9 -21 1 -38c-21 -42 -35 -98 -43 -132c-3 -15 -12 -25 -17 -25c-6 0 -13 8 -13 30c-1 41 -16 51 -41 51l-111 -3c-8 0 -21 -6 -25 -16c-11 -31 -29 -102 -40 -148c-10 -40 -11 -59 0 -78c8 -14 18 -17 38 -19
c34 -4 92 -6 112 -6c22 0 52 11 69 22c26 14 59 47 87 85c13 16 20 24 28 24c7 0 9 -6 5 -26c-7 -31 -32 -88 -50 -111c-9 -10 -15 -17 -24 -20c-9 -4 -40 -6 -60 -6c-46 0 -251 6 -308 6c-56 0 -98 -5 -128 -5c-18 0 -31 6 -31 14c0 6 10 14 30 16c75 8 87 30 102 81
c35 110 95 308 130 424c17 55 4 69 -62 80c-14 3 -24 7 -24 16c0 7 15 11 35 11c25 0 75 -4 126 -4h94c150 0 191 2 222 10c7 2 9 -14 7 -17c-20 -36 -36 -105 -39 -122c-1 -5 -5 -8 -9 -8c-8 0 -22 12 -23 31c-2 44 -12 61 -32 68c-16 6 -46 7 -99 7c-41 0 -47 -10 -59 -29
c-20 -32 -62 -177 -75 -225c-2 -6 3 -13 7 -13zM588 792c-2 -7 -12 -17 -25 -24c-34 -19 -137 -70 -175 -82c-6 -2 -26 -7 -31 -2c-4 4 -3 17 13 30c30 26 102 87 150 117c9 6 23 8 28 5c17 -4 43 -30 40 -44z" />
    <glyph glyph-name="Ecircumflex" unicode="&#xca;" horiz-adv-x="605" 
d="M290 335l94 3c63 2 74 14 103 54c8 10 15 18 23 18c9 0 9 -21 1 -38c-21 -42 -35 -98 -43 -132c-3 -15 -12 -25 -17 -25c-6 0 -13 8 -13 30c-1 41 -16 51 -41 51l-111 -3c-8 0 -21 -6 -25 -16c-11 -31 -29 -102 -40 -148c-10 -40 -11 -59 0 -78c8 -14 18 -17 38 -19
c34 -4 92 -6 112 -6c22 0 52 11 69 22c26 14 59 47 87 85c13 16 20 24 28 24c7 0 9 -6 5 -26c-7 -31 -32 -88 -50 -111c-9 -10 -15 -17 -24 -20c-9 -4 -40 -6 -60 -6c-46 0 -251 6 -308 6c-56 0 -98 -5 -128 -5c-18 0 -31 6 -31 14c0 6 10 14 30 16c75 8 87 30 102 81
c35 110 95 308 130 424c17 55 4 69 -62 80c-14 3 -24 7 -24 16c0 7 15 11 35 11c25 0 75 -4 126 -4h94c150 0 191 2 222 10c7 2 9 -14 7 -17c-20 -36 -36 -105 -39 -122c-1 -5 -5 -8 -9 -8c-8 0 -22 12 -23 31c-2 44 -12 61 -32 68c-16 6 -46 7 -99 7c-41 0 -47 -10 -59 -29
c-20 -32 -62 -177 -75 -225c-2 -6 3 -13 7 -13zM455 819c9 0 21 -15 26 -24c18 -25 46 -59 70 -90c14 -17 8 -26 -3 -26s-20 5 -29 10c-24 13 -55 30 -79 47c-5 4 -14 3 -17 1c-35 -17 -81 -34 -122 -49c-14 -5 -26 -9 -35 -9c-13 0 -15 10 5 27c23 16 97 61 141 92
c8 5 29 21 43 21z" />
    <glyph glyph-name="Edieresis" unicode="&#xcb;" horiz-adv-x="605" 
d="M290 335l94 3c63 2 74 14 103 54c8 10 15 18 23 18c9 0 9 -21 1 -38c-21 -42 -35 -98 -43 -132c-3 -15 -12 -25 -17 -25c-6 0 -13 8 -13 30c-1 41 -16 51 -41 51l-111 -3c-8 0 -21 -6 -25 -16c-11 -31 -29 -102 -40 -148c-10 -40 -11 -59 0 -78c8 -14 18 -17 38 -19
c34 -4 92 -6 112 -6c22 0 52 11 69 22c26 14 59 47 87 85c13 16 20 24 28 24c7 0 9 -6 5 -26c-7 -31 -32 -88 -50 -111c-9 -10 -15 -17 -24 -20c-9 -4 -40 -6 -60 -6c-46 0 -251 6 -308 6c-56 0 -98 -5 -128 -5c-18 0 -31 6 -31 14c0 6 10 14 30 16c75 8 87 30 102 81
c35 110 95 308 130 424c17 55 4 69 -62 80c-14 3 -24 7 -24 16c0 7 15 11 35 11c25 0 75 -4 126 -4h94c150 0 191 2 222 10c7 2 9 -14 7 -17c-20 -36 -36 -105 -39 -122c-1 -5 -5 -8 -9 -8c-8 0 -22 12 -23 31c-2 44 -12 61 -32 68c-16 6 -46 7 -99 7c-41 0 -47 -10 -59 -29
c-20 -32 -62 -177 -75 -225c-2 -6 3 -13 7 -13zM333 805c28 0 43 -26 42 -51c-2 -32 -31 -56 -57 -56c-22 0 -44 15 -42 50c2 31 31 57 57 57zM522 805c28 0 43 -26 42 -51c-2 -35 -34 -56 -58 -56c-21 0 -43 15 -42 50c2 32 32 57 58 57z" />
    <glyph glyph-name="Egrave" unicode="&#xc8;" horiz-adv-x="605" 
d="M290 335l94 3c63 2 74 14 103 54c8 10 15 18 23 18c9 0 9 -21 1 -38c-21 -42 -35 -98 -43 -132c-3 -15 -12 -25 -17 -25c-6 0 -13 8 -13 30c-1 41 -16 51 -41 51l-111 -3c-8 0 -21 -6 -25 -16c-11 -31 -29 -102 -40 -148c-10 -40 -11 -59 0 -78c8 -14 18 -17 38 -19
c34 -4 92 -6 112 -6c22 0 52 11 69 22c26 14 59 47 87 85c13 16 20 24 28 24c7 0 9 -6 5 -26c-7 -31 -32 -88 -50 -111c-9 -10 -15 -17 -24 -20c-9 -4 -40 -6 -60 -6c-46 0 -251 6 -308 6c-56 0 -98 -5 -128 -5c-18 0 -31 6 -31 14c0 6 10 14 30 16c75 8 87 30 102 81
c35 110 95 308 130 424c17 55 4 69 -62 80c-14 3 -24 7 -24 16c0 7 15 11 35 11c25 0 75 -4 126 -4h94c150 0 191 2 222 10c7 2 9 -14 7 -17c-20 -36 -36 -105 -39 -122c-1 -5 -5 -8 -9 -8c-8 0 -22 12 -23 31c-2 44 -12 61 -32 68c-16 6 -46 7 -99 7c-41 0 -47 -10 -59 -29
c-20 -32 -62 -177 -75 -225c-2 -6 3 -13 7 -13zM347 833c10 1 19 -4 36 -22c21 -22 64 -72 89 -105c7 -9 13 -22 10 -28c-4 -7 -18 -5 -33 3c-48 27 -116 73 -133 86c-12 9 -17 21 -17 30c0 5 9 15 29 29c8 4 15 6 19 7z" />
    <glyph glyph-name="Iacute" unicode="&#xcd;" horiz-adv-x="360" 
d="M147 622c0 5 8 12 28 12c30 0 53 -1 86 -1c54 0 127 5 155 5c17 0 27 -6 27 -11c0 -10 -8 -15 -31 -19c-52 -10 -56 -22 -76 -70c-26 -64 -108 -375 -120 -432c-12 -59 -9 -70 42 -80c17 -3 26 -10 26 -15c0 -9 -10 -14 -29 -14c-32 0 -65 3 -88 3c-60 0 -119 -7 -165 -7
c-19 0 -27 7 -27 12c0 8 12 15 27 17c65 8 70 30 93 89c21 52 101 343 117 412c15 65 10 74 -39 83c-17 3 -25 7 -26 16zM491 792c-2 -7 -12 -17 -25 -24c-34 -19 -137 -70 -175 -82c-6 -2 -26 -7 -31 -2c-4 4 -3 17 13 30c30 26 102 87 150 117c9 6 23 8 28 5
c17 -4 43 -30 40 -44z" />
    <glyph glyph-name="Icircumflex" unicode="&#xce;" horiz-adv-x="360" 
d="M147 622c0 5 8 12 28 12c30 0 53 -1 86 -1c54 0 127 5 155 5c17 0 27 -6 27 -11c0 -10 -8 -15 -31 -19c-52 -10 -56 -22 -76 -70c-26 -64 -108 -375 -120 -432c-12 -59 -9 -70 42 -80c17 -3 26 -10 26 -15c0 -9 -10 -14 -29 -14c-32 0 -65 3 -88 3c-60 0 -119 -7 -165 -7
c-19 0 -27 7 -27 12c0 8 12 15 27 17c65 8 70 30 93 89c21 52 101 343 117 412c15 65 10 74 -39 83c-17 3 -25 7 -26 16zM349 812c9 0 21 -15 26 -24c18 -25 46 -59 70 -90c14 -17 8 -26 -3 -26s-20 5 -29 10c-24 13 -55 30 -79 47c-5 4 -14 3 -17 1
c-35 -17 -81 -34 -122 -49c-14 -5 -26 -9 -35 -9c-13 0 -15 10 5 27c23 16 97 61 141 92c8 5 29 21 43 21z" />
    <glyph glyph-name="Idieresis" unicode="&#xcf;" horiz-adv-x="360" 
d="M147 622c0 5 8 12 28 12c30 0 53 -1 86 -1c54 0 127 5 155 5c17 0 27 -6 27 -11c0 -10 -8 -15 -31 -19c-52 -10 -56 -22 -76 -70c-26 -64 -108 -375 -120 -432c-12 -59 -9 -70 42 -80c17 -3 26 -10 26 -15c0 -9 -10 -14 -29 -14c-32 0 -65 3 -88 3c-60 0 -119 -7 -165 -7
c-19 0 -27 7 -27 12c0 8 12 15 27 17c65 8 70 30 93 89c21 52 101 343 117 412c15 65 10 74 -39 83c-17 3 -25 7 -26 16zM231 805c28 0 43 -26 42 -51c-2 -32 -31 -56 -57 -56c-22 0 -44 15 -42 50c2 31 31 57 57 57zM420 805c28 0 43 -26 42 -51c-2 -35 -34 -56 -58 -56
c-21 0 -43 15 -42 50c2 32 32 57 58 57z" />
    <glyph glyph-name="Igrave" unicode="&#xcc;" horiz-adv-x="360" 
d="M147 622c0 5 8 12 28 12c30 0 53 -1 86 -1c54 0 127 5 155 5c17 0 27 -6 27 -11c0 -10 -8 -15 -31 -19c-52 -10 -56 -22 -76 -70c-26 -64 -108 -375 -120 -432c-12 -59 -9 -70 42 -80c17 -3 26 -10 26 -15c0 -9 -10 -14 -29 -14c-32 0 -65 3 -88 3c-60 0 -119 -7 -165 -7
c-19 0 -27 7 -27 12c0 8 12 15 27 17c65 8 70 30 93 89c21 52 101 343 117 412c15 65 10 74 -39 83c-17 3 -25 7 -26 16zM225 837c10 1 19 -4 36 -22c21 -22 64 -72 89 -105c7 -9 13 -22 10 -28c-4 -7 -18 -5 -33 3c-48 27 -116 73 -133 86c-12 9 -17 21 -17 30
c0 5 9 15 29 29c8 4 15 6 19 7z" />
    <glyph glyph-name="Ntilde" unicode="&#xd1;" horiz-adv-x="735" 
d="M123 625c0 6 9 12 30 12c30 0 83 -4 126 -4c7 0 53 2 61 2c7 1 14 -12 21 -33c27 -75 161 -413 180 -454c2 -5 10 -8 12 -2c41 119 95 303 110 374c13 58 6 78 -59 89c-15 2 -29 8 -29 16c0 6 7 11 28 11c30 0 54 -3 81 -3c42 0 101 4 122 4c20 1 27 -6 27 -12
c1 -6 -10 -12 -30 -16c-47 -8 -66 -26 -93 -98c-23 -61 -71 -201 -127 -389c-5 -19 -8 -28 -8 -39c0 -28 7 -41 43 -59c9 -4 13 -8 13 -15c0 -5 -15 -13 -22 -13c-13 1 -61 4 -68 4c-18 0 -50 -2 -56 -3c-9 0 -18 3 -22 16c-7 26 -20 61 -32 92c-29 83 -86 236 -128 344
c-10 27 -22 60 -30 72c-6 9 -11 7 -16 -6c-28 -68 -96 -313 -107 -374c-15 -89 -5 -105 47 -116c27 -5 32 -10 32 -17c0 -9 -12 -13 -32 -13c-25 0 -59 5 -97 5c-39 0 -81 -6 -109 -6c-27 0 -33 7 -33 13c0 7 11 13 28 16c59 9 81 20 101 77c38 111 121 367 135 420
c6 24 8 39 5 51c-3 14 -11 25 -30 30c-17 5 -37 7 -49 9c-14 2 -25 9 -25 15zM382 724c12 16 30 36 41 46c7 6 16 14 32 14c47 0 121 -13 145 -11c18 2 35 20 51 35c3 4 6 5 9 5c4 -2 9 -9 12 -16c1 -6 -1 -13 -5 -18c-14 -17 -41 -45 -54 -57c-14 -11 -25 -14 -31 -14
c-31 0 -134 14 -150 12c-8 -1 -22 -13 -35 -31c-3 -5 -6 -7 -9 -7c-9 0 -17 13 -17 16c0 4 0 11 11 26z" />
    <glyph glyph-name="Oacute" unicode="&#xd3;" horiz-adv-x="697" 
d="M467 652c129 0 220 -100 220 -246c0 -135 -82 -303 -206 -376c-53 -32 -120 -50 -177 -50c-58 0 -122 17 -165 60c-29 28 -68 85 -68 180c0 110 64 271 181 361c52 41 135 71 215 71zM467 624c-47 0 -86 -25 -124 -63c-92 -90 -150 -267 -150 -403
c0 -77 30 -148 112 -148c39 0 78 19 120 63c60 62 142 237 142 383c0 93 -29 168 -100 168zM645 800c-2 -7 -12 -17 -25 -24c-34 -19 -137 -70 -175 -82c-6 -2 -26 -7 -31 -2c-4 4 -3 17 13 30c30 26 102 87 150 117c9 6 23 8 28 5c17 -4 43 -30 40 -44z" />
    <glyph glyph-name="Ocircumflex" unicode="&#xd4;" horiz-adv-x="697" 
d="M467 652c129 0 220 -100 220 -246c0 -135 -82 -303 -206 -376c-53 -32 -120 -50 -177 -50c-58 0 -122 17 -165 60c-29 28 -68 85 -68 180c0 110 64 271 181 361c52 41 135 71 215 71zM467 624c-47 0 -86 -25 -124 -63c-92 -90 -150 -267 -150 -403
c0 -77 30 -148 112 -148c39 0 78 19 120 63c60 62 142 237 142 383c0 93 -29 168 -100 168zM527 821c9 0 21 -15 26 -24c18 -25 46 -59 70 -90c14 -17 8 -26 -3 -26s-20 5 -29 10c-24 13 -55 30 -79 47c-5 4 -14 3 -17 1c-35 -17 -81 -34 -122 -49c-14 -5 -26 -9 -35 -9
c-13 0 -15 10 5 27c23 16 97 61 141 92c8 5 29 21 43 21z" />
    <glyph glyph-name="Odieresis" unicode="&#xd6;" horiz-adv-x="697" 
d="M467 652c129 0 220 -100 220 -246c0 -135 -82 -303 -206 -376c-53 -32 -120 -50 -177 -50c-58 0 -122 17 -165 60c-29 28 -68 85 -68 180c0 110 64 271 181 361c52 41 135 71 215 71zM467 624c-47 0 -86 -25 -124 -63c-92 -90 -150 -267 -150 -403
c0 -77 30 -148 112 -148c39 0 78 19 120 63c60 62 142 237 142 383c0 93 -29 168 -100 168zM411 807c28 0 43 -26 42 -51c-2 -32 -31 -56 -57 -56c-22 0 -44 15 -42 50c2 31 31 57 57 57zM600 807c28 0 43 -26 42 -51c-2 -35 -34 -56 -58 -56c-21 0 -43 15 -42 50
c2 32 32 57 58 57z" />
    <glyph glyph-name="Ograve" unicode="&#xd2;" horiz-adv-x="697" 
d="M467 652c129 0 220 -100 220 -246c0 -135 -82 -303 -206 -376c-53 -32 -120 -50 -177 -50c-58 0 -122 17 -165 60c-29 28 -68 85 -68 180c0 110 64 271 181 361c52 41 135 71 215 71zM467 624c-47 0 -86 -25 -124 -63c-92 -90 -150 -267 -150 -403
c0 -77 30 -148 112 -148c39 0 78 19 120 63c60 62 142 237 142 383c0 93 -29 168 -100 168zM423 846c10 1 19 -4 36 -22c21 -22 64 -72 89 -105c7 -9 13 -22 10 -28c-4 -7 -18 -5 -33 3c-48 27 -116 73 -133 86c-12 9 -17 21 -17 30c0 5 9 15 29 29c8 4 15 6 19 7z" />
    <glyph glyph-name="Otilde" unicode="&#xd5;" horiz-adv-x="697" 
d="M467 652c129 0 220 -100 220 -246c0 -135 -82 -303 -206 -376c-53 -32 -120 -50 -177 -50c-58 0 -122 17 -165 60c-29 28 -68 85 -68 180c0 110 64 271 181 361c52 41 135 71 215 71zM467 624c-47 0 -86 -25 -124 -63c-92 -90 -150 -267 -150 -403
c0 -77 30 -148 112 -148c39 0 78 19 120 63c60 62 142 237 142 383c0 93 -29 168 -100 168zM361 733c12 16 30 36 41 46c7 6 16 14 32 14c47 0 121 -13 145 -11c18 2 35 20 51 35c3 4 6 5 9 5c4 -2 9 -9 12 -16c1 -6 -1 -13 -5 -18c-14 -17 -41 -45 -54 -57
c-14 -11 -25 -14 -31 -14c-31 0 -134 14 -150 12c-8 -1 -22 -13 -35 -31c-3 -5 -6 -7 -9 -7c-9 0 -17 13 -17 16c0 4 0 11 11 26z" />
    <glyph glyph-name="Scaron" unicode="&#x160;" horiz-adv-x="495" 
d="M351 651c56 0 85 -11 112 -20c11 -4 30 -8 35 -8c13 0 19 2 24 2c4 1 10 -9 7 -15c-20 -34 -41 -95 -47 -133c-1 -12 -5 -21 -11 -21c-7 0 -19 11 -18 30c2 31 5 59 -12 86c-17 28 -49 53 -90 53c-64 0 -101 -57 -101 -108c0 -39 16 -70 38 -97c14 -17 66 -74 106 -126
c46 -57 52 -89 52 -131c0 -60 -38 -118 -89 -147c-48 -27 -103 -35 -150 -35c-50 0 -106 20 -130 31c-15 6 -24 3 -47 -6c-6 -3 -14 -1 -21 5c-5 5 -6 8 -1 16c20 37 46 121 55 148c6 17 17 26 25 26c6 0 8 -7 6 -29c-6 -52 4 -94 15 -107c27 -32 64 -55 109 -55
c38 0 67 15 84 32c21 18 30 47 30 75c0 45 -28 89 -98 169c-60 68 -90 122 -90 185c0 53 24 97 56 127c30 28 81 53 151 53zM363 685c-8 0 -18 13 -24 22c-15 25 -43 61 -71 92c-11 12 -7 26 4 26s23 -6 30 -11c24 -13 51 -32 75 -46c5 -3 15 -3 18 -1c36 17 97 43 124 51
c13 6 23 7 33 7c8 0 15 -7 -7 -25c-26 -19 -95 -62 -137 -93c-9 -7 -31 -22 -45 -22z" />
    <glyph glyph-name="Uacute" unicode="&#xda;" horiz-adv-x="721" 
d="M126 624c0 8 10 12 30 12c33 0 100 -3 129 -3c23 0 83 4 113 4c20 0 25 -6 25 -11c0 -8 -9 -12 -28 -17c-37 -8 -49 -13 -64 -53c-30 -79 -68 -225 -85 -287c-29 -106 -19 -152 -7 -172c20 -33 75 -59 127 -59c103 0 152 50 182 126c30 72 97 284 109 344
c18 84 8 89 -55 99c-16 3 -27 7 -27 16c0 7 11 12 26 12c29 0 78 -2 107 -2c36 0 68 4 91 4c22 0 27 -7 27 -12c1 -6 -11 -13 -29 -17c-50 -10 -60 -25 -92 -105c-25 -66 -79 -221 -106 -300c-16 -46 -39 -109 -73 -143c-64 -67 -134 -78 -209 -78c-55 0 -144 18 -184 91
c-27 49 -23 102 -18 127c14 67 60 233 81 305c22 75 17 94 -41 103c-21 4 -29 10 -29 16zM685 792c-2 -7 -12 -17 -25 -24c-34 -19 -137 -70 -175 -82c-6 -2 -26 -7 -31 -2c-4 4 -3 17 13 30c30 26 102 87 150 117c9 6 23 8 28 5c17 -4 43 -30 40 -44z" />
    <glyph glyph-name="Ucircumflex" unicode="&#xdb;" horiz-adv-x="721" 
d="M126 624c0 8 10 12 30 12c33 0 100 -3 129 -3c23 0 83 4 113 4c20 0 25 -6 25 -11c0 -8 -9 -12 -28 -17c-37 -8 -49 -13 -64 -53c-30 -79 -68 -225 -85 -287c-29 -106 -19 -152 -7 -172c20 -33 75 -59 127 -59c103 0 152 50 182 126c30 72 97 284 109 344
c18 84 8 89 -55 99c-16 3 -27 7 -27 16c0 7 11 12 26 12c29 0 78 -2 107 -2c36 0 68 4 91 4c22 0 27 -7 27 -12c1 -6 -11 -13 -29 -17c-50 -10 -60 -25 -92 -105c-25 -66 -79 -221 -106 -300c-16 -46 -39 -109 -73 -143c-64 -67 -134 -78 -209 -78c-55 0 -144 18 -184 91
c-27 49 -23 102 -18 127c14 67 60 233 81 305c22 75 17 94 -41 103c-21 4 -29 10 -29 16zM552 821c9 0 21 -15 26 -24c18 -25 46 -59 70 -90c14 -17 8 -26 -3 -26s-20 5 -29 10c-24 13 -55 30 -79 47c-5 4 -14 3 -17 1c-35 -17 -81 -34 -122 -49c-14 -5 -26 -9 -35 -9
c-13 0 -15 10 5 27c23 16 97 61 141 92c8 5 29 21 43 21z" />
    <glyph glyph-name="Udieresis" unicode="&#xdc;" horiz-adv-x="721" 
d="M126 624c0 8 10 12 30 12c33 0 100 -3 129 -3c23 0 83 4 113 4c20 0 25 -6 25 -11c0 -8 -9 -12 -28 -17c-37 -8 -49 -13 -64 -53c-30 -79 -68 -225 -85 -287c-29 -106 -19 -152 -7 -172c20 -33 75 -59 127 -59c103 0 152 50 182 126c30 72 97 284 109 344
c18 84 8 89 -55 99c-16 3 -27 7 -27 16c0 7 11 12 26 12c29 0 78 -2 107 -2c36 0 68 4 91 4c22 0 27 -7 27 -12c1 -6 -11 -13 -29 -17c-50 -10 -60 -25 -92 -105c-25 -66 -79 -221 -106 -300c-16 -46 -39 -109 -73 -143c-64 -67 -134 -78 -209 -78c-55 0 -144 18 -184 91
c-27 49 -23 102 -18 127c14 67 60 233 81 305c22 75 17 94 -41 103c-21 4 -29 10 -29 16zM426 806c28 0 43 -26 42 -51c-2 -32 -31 -56 -57 -56c-22 0 -44 15 -42 50c2 31 31 57 57 57zM615 806c28 0 43 -26 42 -51c-2 -35 -34 -56 -58 -56c-21 0 -43 15 -42 50
c2 32 32 57 58 57z" />
    <glyph glyph-name="Ugrave" unicode="&#xd9;" horiz-adv-x="721" 
d="M126 624c0 8 10 12 30 12c33 0 100 -3 129 -3c23 0 83 4 113 4c20 0 25 -6 25 -11c0 -8 -9 -12 -28 -17c-37 -8 -49 -13 -64 -53c-30 -79 -68 -225 -85 -287c-29 -106 -19 -152 -7 -172c20 -33 75 -59 127 -59c103 0 152 50 182 126c30 72 97 284 109 344
c18 84 8 89 -55 99c-16 3 -27 7 -27 16c0 7 11 12 26 12c29 0 78 -2 107 -2c36 0 68 4 91 4c22 0 27 -7 27 -12c1 -6 -11 -13 -29 -17c-50 -10 -60 -25 -92 -105c-25 -66 -79 -221 -106 -300c-16 -46 -39 -109 -73 -143c-64 -67 -134 -78 -209 -78c-55 0 -144 18 -184 91
c-27 49 -23 102 -18 127c14 67 60 233 81 305c22 75 17 94 -41 103c-21 4 -29 10 -29 16zM435 837c10 1 19 -4 36 -22c21 -22 64 -72 89 -105c7 -9 13 -22 10 -28c-4 -7 -18 -5 -33 3c-48 27 -116 73 -133 86c-12 9 -17 21 -17 30c0 5 9 15 29 29c8 4 15 6 19 7z" />
    <glyph glyph-name="Yacute" unicode="&#xdd;" horiz-adv-x="617" 
d="M107 624c1 7 13 12 34 12c24 0 79 -3 115 -3c48 0 88 4 107 4c16 0 27 -6 27 -11c0 -8 -11 -14 -27 -17c-49 -10 -47 -26 -42 -51c7 -42 38 -176 51 -206c3 -4 6 -4 8 -1c41 43 140 163 166 204c23 38 4 49 -29 55c-12 3 -18 9 -18 15c0 7 15 11 32 11c14 0 48 -3 83 -3
c24 0 82 4 97 4c16 0 27 -2 27 -12c0 -9 -16 -13 -33 -17c-54 -10 -73 -30 -125 -79c-54 -51 -147 -159 -187 -209c-5 -6 -20 -31 -27 -56c-16 -55 -45 -150 -51 -185c-1 -10 -5 -46 52 -54c15 -2 29 -8 29 -16s-15 -14 -34 -14c-22 0 -75 5 -119 5c-65 0 -106 -6 -144 -6
c-19 0 -30 7 -30 13c0 8 14 13 29 16c63 9 87 23 109 90l40 120c14 42 19 69 16 93c-6 45 -30 131 -49 191c-24 75 -38 85 -85 93c-12 2 -22 6 -22 14zM636 795c-2 -7 -12 -17 -25 -24c-34 -19 -137 -70 -175 -82c-6 -2 -26 -7 -31 -2c-4 4 -3 17 13 30
c30 26 102 87 150 117c9 6 23 8 28 5c17 -4 43 -30 40 -44z" />
    <glyph glyph-name="Ydieresis" unicode="&#x178;" horiz-adv-x="617" 
d="M107 624c1 7 13 12 34 12c24 0 79 -3 115 -3c48 0 88 4 107 4c16 0 27 -6 27 -11c0 -8 -11 -14 -27 -17c-49 -10 -47 -26 -42 -51c7 -42 38 -176 51 -206c3 -4 6 -4 8 -1c41 43 140 163 166 204c23 38 4 49 -29 55c-12 3 -18 9 -18 15c0 7 15 11 32 11c14 0 48 -3 83 -3
c24 0 82 4 97 4c16 0 27 -2 27 -12c0 -9 -16 -13 -33 -17c-54 -10 -73 -30 -125 -79c-54 -51 -147 -159 -187 -209c-5 -6 -20 -31 -27 -56c-16 -55 -45 -150 -51 -185c-1 -10 -5 -46 52 -54c15 -2 29 -8 29 -16s-15 -14 -34 -14c-22 0 -75 5 -119 5c-65 0 -106 -6 -144 -6
c-19 0 -30 7 -30 13c0 8 14 13 29 16c63 9 87 23 109 90l40 120c14 42 19 69 16 93c-6 45 -30 131 -49 191c-24 75 -38 85 -85 93c-12 2 -22 6 -22 14zM367 807c28 0 43 -26 42 -51c-2 -32 -31 -56 -57 -56c-22 0 -44 15 -42 50c2 31 31 57 57 57zM556 807
c28 0 43 -26 42 -51c-2 -35 -34 -56 -58 -56c-21 0 -43 15 -42 50c2 32 32 57 58 57z" />
    <glyph glyph-name="Zcaron" unicode="&#x17d;" horiz-adv-x="652" 
d="M358 633c99 -1 293 4 317 4c12 0 18 -3 18 -7c0 -7 -9 -21 -18 -29c-16 -13 -48 -45 -113 -117c-68 -74 -326 -367 -380 -435c-4 -6 -2 -16 5 -17c65 -4 116 -3 176 -3c57 0 89 9 113 20c37 17 86 61 112 103c14 21 22 31 28 31c8 0 10 -19 6 -31
c-7 -21 -38 -82 -50 -106c-15 -27 -22 -35 -34 -44c-7 -6 -80 -7 -116 -7c-59 0 -289 5 -326 5c-31 0 -81 -5 -100 -5c-9 0 -11 17 0 28c152 141 469 507 511 565c3 4 4 14 -1 14c-69 0 -103 1 -171 -2c-63 -3 -94 -11 -117 -34c-23 -22 -53 -69 -62 -87
c-7 -14 -11 -17 -16 -17c-8 0 -12 13 -9 31c3 21 36 94 49 124c2 6 15 21 21 21c7 0 25 -5 38 -5c44 -1 61 0 119 0zM426 676c-8 0 -18 13 -24 22c-15 25 -43 61 -71 92c-11 12 -7 26 4 26s23 -6 30 -11c24 -13 51 -32 75 -46c5 -3 15 -3 18 -1c36 17 97 43 124 51
c13 6 23 7 33 7c8 0 15 -7 -7 -25c-26 -19 -95 -62 -137 -93c-9 -7 -31 -22 -45 -22z" />
    <glyph glyph-name="aacute" unicode="&#xe1;" horiz-adv-x="468" 
d="M299 392c3 0 29 -7 43 -21c2 -2 9 0 10 4l17 29c2 4 14 9 19 9c15 0 36 -8 54 -18c2 -1 4 -12 1 -19c-22 -57 -82 -205 -107 -284c-6 -19 7 -25 16 -25c21 0 57 28 82 56c8 9 15 4 15 -4c0 -7 -2 -16 -9 -27c-47 -79 -119 -108 -160 -108c-28 0 -48 17 -49 39
c0 13 23 67 35 98c4 8 -2 16 -7 10c-79 -88 -163 -147 -214 -147c-18 0 -53 18 -53 43c0 23 11 56 40 105c61 101 168 207 230 245c18 11 31 15 37 15zM282 327c-38 0 -74 -21 -102 -58c-33 -42 -70 -117 -70 -169c0 -24 11 -36 21 -36c15 0 45 19 83 63
c33 36 78 107 100 157c6 12 5 22 3 25c-11 11 -28 18 -35 18zM404 625c7 10 16 17 27 17c13 0 32 -36 32 -52c-1 -6 -4 -16 -12 -26c-31 -35 -74 -75 -110 -105c-8 -7 -19 -17 -33 -16c-8 0 -11 13 -2 29c30 54 68 109 98 153z" />
    <glyph glyph-name="acircumflex" unicode="&#xe2;" horiz-adv-x="468" 
d="M299 392c3 0 29 -7 43 -21c2 -2 9 0 10 4l17 29c2 4 14 9 19 9c15 0 36 -8 54 -18c2 -1 4 -12 1 -19c-22 -57 -82 -205 -107 -284c-6 -19 7 -25 16 -25c21 0 57 28 82 56c8 9 15 4 15 -4c0 -7 -2 -16 -9 -27c-47 -79 -119 -108 -160 -108c-28 0 -48 17 -49 39
c0 13 23 67 35 98c4 8 -2 16 -7 10c-79 -88 -163 -147 -214 -147c-18 0 -53 18 -53 43c0 23 11 56 40 105c61 101 168 207 230 245c18 11 31 15 37 15zM282 327c-38 0 -74 -21 -102 -58c-33 -42 -70 -117 -70 -169c0 -24 11 -36 21 -36c15 0 45 19 83 63
c33 36 78 107 100 157c6 12 5 22 3 25c-11 11 -28 18 -35 18zM399 641c9 0 15 -17 16 -27l15 -141c1 -11 -3 -29 -14 -29c-5 0 -12 10 -17 21c-9 22 -17 45 -29 74c-1 2 -3 5 -9 0c-21 -21 -61 -55 -89 -77c-7 -7 -21 -15 -33 -15c-10 0 -9 16 1 27c28 30 109 124 124 142
c12 14 24 25 35 25z" />
    <glyph glyph-name="adieresis" unicode="&#xe4;" horiz-adv-x="468" 
d="M299 392c3 0 29 -7 43 -21c2 -2 9 0 10 4l17 29c2 4 14 9 19 9c15 0 36 -8 54 -18c2 -1 4 -12 1 -19c-22 -57 -82 -205 -107 -284c-6 -19 7 -25 16 -25c21 0 57 28 82 56c8 9 15 4 15 -4c0 -7 -2 -16 -9 -27c-47 -79 -119 -108 -160 -108c-28 0 -48 17 -49 39
c0 13 23 67 35 98c4 8 -2 16 -7 10c-79 -88 -163 -147 -214 -147c-18 0 -53 18 -53 43c0 23 11 56 40 105c61 101 168 207 230 245c18 11 31 15 37 15zM282 327c-38 0 -74 -21 -102 -58c-33 -42 -70 -117 -70 -169c0 -24 11 -36 21 -36c15 0 45 19 83 63
c33 36 78 107 100 157c6 12 5 22 3 25c-11 11 -28 18 -35 18zM283 607c28 0 42 -24 42 -46c0 -29 -24 -59 -56 -59c-22 0 -39 22 -39 47c0 34 27 58 53 58zM450 607c28 0 42 -24 42 -46c0 -27 -23 -59 -55 -59c-23 0 -40 22 -40 47c0 32 28 58 53 58z" />
    <glyph glyph-name="agrave" unicode="&#xe0;" horiz-adv-x="468" 
d="M299 392c3 0 29 -7 43 -21c2 -2 9 0 10 4l17 29c2 4 14 9 19 9c15 0 36 -8 54 -18c2 -1 4 -12 1 -19c-22 -57 -82 -205 -107 -284c-6 -19 7 -25 16 -25c21 0 57 28 82 56c8 9 15 4 15 -4c0 -7 -2 -16 -9 -27c-47 -79 -119 -108 -160 -108c-28 0 -48 17 -49 39
c0 13 23 67 35 98c4 8 -2 16 -7 10c-79 -88 -163 -147 -214 -147c-18 0 -53 18 -53 43c0 23 11 56 40 105c61 101 168 207 230 245c18 11 31 15 37 15zM282 327c-38 0 -74 -21 -102 -58c-33 -42 -70 -117 -70 -169c0 -24 11 -36 21 -36c15 0 45 19 83 63
c33 36 78 107 100 157c6 12 5 22 3 25c-11 11 -28 18 -35 18zM335 661c6 0 13 -11 18 -42c6 -45 10 -106 12 -144c0 -15 -7 -30 -14 -30c-8 0 -17 12 -19 19c-18 42 -39 96 -47 125c-5 17 -4 27 -3 30c7 18 37 42 53 42z" />
    <glyph glyph-name="aring" unicode="&#xe5;" horiz-adv-x="468" 
d="M299 392c3 0 29 -7 43 -21c2 -2 9 0 10 4l17 29c2 4 14 9 19 9c15 0 36 -8 54 -18c2 -1 4 -12 1 -19c-22 -57 -82 -205 -107 -284c-6 -19 7 -25 16 -25c21 0 57 28 82 56c8 9 15 4 15 -4c0 -7 -2 -16 -9 -27c-47 -79 -119 -108 -160 -108c-28 0 -48 17 -49 39
c0 13 23 67 35 98c4 8 -2 16 -7 10c-79 -88 -163 -147 -214 -147c-18 0 -53 18 -53 43c0 23 11 56 40 105c61 101 168 207 230 245c18 11 31 15 37 15zM282 327c-38 0 -74 -21 -102 -58c-33 -42 -70 -117 -70 -169c0 -24 11 -36 21 -36c15 0 45 19 83 63
c33 36 78 107 100 157c6 12 5 22 3 25c-11 11 -28 18 -35 18zM377 634c53 0 81 -48 73 -92c-9 -46 -47 -83 -99 -83c-53 0 -82 46 -74 91c9 46 48 84 100 84zM371 600c-24 0 -45 -23 -50 -52c-7 -33 11 -55 36 -55s44 17 52 54c5 26 -11 53 -38 53z" />
    <glyph glyph-name="atilde" unicode="&#xe3;" horiz-adv-x="468" 
d="M299 392c3 0 29 -7 43 -21c2 -2 9 0 10 4l17 29c2 4 14 9 19 9c15 0 36 -8 54 -18c2 -1 4 -12 1 -19c-22 -57 -82 -205 -107 -284c-6 -19 7 -25 16 -25c21 0 57 28 82 56c8 9 15 4 15 -4c0 -7 -2 -16 -9 -27c-47 -79 -119 -108 -160 -108c-28 0 -48 17 -49 39
c0 13 23 67 35 98c4 8 -2 16 -7 10c-79 -88 -163 -147 -214 -147c-18 0 -53 18 -53 43c0 23 11 56 40 105c61 101 168 207 230 245c18 11 31 15 37 15zM282 327c-38 0 -74 -21 -102 -58c-33 -42 -70 -117 -70 -169c0 -24 11 -36 21 -36c15 0 45 19 83 63
c33 36 78 107 100 157c6 12 5 22 3 25c-11 11 -28 18 -35 18zM284 513c-10 0 -21 -13 -30 -24c-4 -4 -8 -6 -11 -6c-4 0 -18 16 -18 18s34 51 74 77c6 4 13 5 18 4c12 -3 65 -11 95 -11c17 0 27 1 36 7c11 9 23 25 29 32c3 4 22 -11 22 -17c0 -3 0 -5 -4 -9
c-14 -14 -63 -69 -69 -74c-5 -5 -10 -8 -15 -8c-17 0 -82 11 -127 11z" />
    <glyph glyph-name="ccedilla" unicode="&#xe7;" horiz-adv-x="343" 
d="M177 58c27 0 62 12 103 51c8 8 19 7 19 0c0 -8 -7 -24 -13 -32c-15 -18 -38 -40 -55 -54c-54 -42 -81 -69 -81 -95c0 -14 6 -27 19 -50c8 -14 13 -32 13 -46c0 -19 -25 -46 -52 -62c-23 -12 -40 -16 -52 -16c-32 0 -62 28 -62 57c0 12 6 22 11 22c4 0 11 -3 20 -11
c19 -18 39 -28 53 -28c11 0 17 3 17 15c0 14 -12 33 -26 54c-9 15 -14 30 -14 38c0 19 10 30 19 41c8 9 46 37 67 53c-15 -5 -33 -6 -44 -6c-70 0 -92 67 -92 109c0 41 18 111 43 155c36 67 76 112 138 138c24 11 70 17 83 17c18 0 35 -4 46 -10c8 -3 18 -12 18 -23
c0 -37 -30 -68 -43 -68c-4 0 -13 3 -18 11c-15 31 -25 57 -50 57c-15 0 -36 -17 -62 -69c-27 -50 -50 -124 -50 -178c0 -64 27 -70 45 -70z" />
    <glyph glyph-name="eacute" unicode="&#xe9;" horiz-adv-x="375" 
d="M288 407c64 0 85 -40 85 -69c0 -47 -40 -82 -90 -106c-37 -18 -96 -34 -129 -42c-8 -2 -11 -7 -14 -16c-4 -12 -9 -35 -9 -60c0 -39 23 -59 47 -59c28 0 64 14 106 50c9 7 17 15 24 15c4 0 7 -4 7 -7c0 -7 -7 -23 -13 -30c-41 -51 -111 -97 -185 -97
c-32 0 -92 43 -92 116c0 70 48 168 102 225c51 51 115 80 161 80zM276 379c-44 0 -101 -81 -121 -151c-1 -5 0 -12 6 -10c88 30 133 97 133 133c0 19 -8 28 -18 28zM355 625c7 10 16 17 27 17c13 0 32 -36 32 -52c-1 -6 -4 -16 -12 -26c-31 -35 -74 -75 -110 -105
c-8 -7 -19 -17 -33 -16c-8 0 -11 13 -2 29c30 54 68 109 98 153z" />
    <glyph glyph-name="ecircumflex" unicode="&#xea;" horiz-adv-x="375" 
d="M288 407c64 0 85 -40 85 -69c0 -47 -40 -82 -90 -106c-37 -18 -96 -34 -129 -42c-8 -2 -11 -7 -14 -16c-4 -12 -9 -35 -9 -60c0 -39 23 -59 47 -59c28 0 64 14 106 50c9 7 17 15 24 15c4 0 7 -4 7 -7c0 -7 -7 -23 -13 -30c-41 -51 -111 -97 -185 -97
c-32 0 -92 43 -92 116c0 70 48 168 102 225c51 51 115 80 161 80zM276 379c-44 0 -101 -81 -121 -151c-1 -5 0 -12 6 -10c88 30 133 97 133 133c0 19 -8 28 -18 28zM343 641c9 0 15 -17 16 -27l15 -141c1 -11 -3 -29 -14 -29c-5 0 -12 10 -17 21c-9 22 -17 45 -29 74
c-1 2 -3 5 -9 0c-21 -21 -61 -55 -89 -77c-7 -7 -21 -15 -33 -15c-10 0 -9 16 1 27c28 30 109 124 124 142c12 14 24 25 35 25z" />
    <glyph glyph-name="edieresis" unicode="&#xeb;" horiz-adv-x="375" 
d="M288 407c64 0 85 -40 85 -69c0 -47 -40 -82 -90 -106c-37 -18 -96 -34 -129 -42c-8 -2 -11 -7 -14 -16c-4 -12 -9 -35 -9 -60c0 -39 23 -59 47 -59c28 0 64 14 106 50c9 7 17 15 24 15c4 0 7 -4 7 -7c0 -7 -7 -23 -13 -30c-41 -51 -111 -97 -185 -97
c-32 0 -92 43 -92 116c0 70 48 168 102 225c51 51 115 80 161 80zM276 379c-44 0 -101 -81 -121 -151c-1 -5 0 -12 6 -10c88 30 133 97 133 133c0 19 -8 28 -18 28zM216 607c28 0 42 -24 42 -46c0 -29 -24 -59 -56 -59c-22 0 -39 22 -39 47c0 34 27 58 53 58zM383 607
c28 0 42 -24 42 -46c0 -27 -23 -59 -55 -59c-23 0 -40 22 -40 47c0 32 28 58 53 58z" />
    <glyph glyph-name="egrave" unicode="&#xe8;" horiz-adv-x="375" 
d="M288 407c64 0 85 -40 85 -69c0 -47 -40 -82 -90 -106c-37 -18 -96 -34 -129 -42c-8 -2 -11 -7 -14 -16c-4 -12 -9 -35 -9 -60c0 -39 23 -59 47 -59c28 0 64 14 106 50c9 7 17 15 24 15c4 0 7 -4 7 -7c0 -7 -7 -23 -13 -30c-41 -51 -111 -97 -185 -97
c-32 0 -92 43 -92 116c0 70 48 168 102 225c51 51 115 80 161 80zM276 379c-44 0 -101 -81 -121 -151c-1 -5 0 -12 6 -10c88 30 133 97 133 133c0 19 -8 28 -18 28zM296 658c6 0 13 -11 18 -42c6 -45 10 -106 12 -144c0 -15 -7 -30 -14 -30c-8 0 -17 12 -19 19
c-18 42 -39 96 -47 125c-5 17 -4 27 -3 30c7 18 37 42 53 42z" />
    <glyph glyph-name="iacute" unicode="&#xed;" horiz-adv-x="280" 
d="M225 405c10 0 24 -20 24 -29s-7 -26 -11 -35c-47 -114 -68 -175 -101 -254c-3 -9 3 -15 11 -15c11 0 48 24 80 55c11 9 15 12 21 12c2 0 7 -3 7 -7c0 -9 -6 -23 -18 -36c-46 -58 -144 -114 -185 -114c-15 0 -39 16 -39 29c0 6 0 7 4 17c36 88 70 165 113 273
c3 9 0 18 -8 17c-14 -2 -41 -14 -66 -33c-5 -5 -14 1 -14 6c0 7 5 16 12 25c22 24 116 89 170 89zM285 625c7 10 16 17 27 17c13 0 32 -36 32 -52c-1 -6 -4 -16 -12 -26c-31 -35 -74 -75 -110 -105c-8 -7 -19 -17 -33 -16c-8 0 -11 13 -2 29c30 54 68 109 98 153z" />
    <glyph glyph-name="icircumflex" unicode="&#xee;" horiz-adv-x="280" 
d="M225 405c10 0 24 -20 24 -29s-7 -26 -11 -35c-47 -114 -68 -175 -101 -254c-3 -9 3 -15 11 -15c11 0 48 24 80 55c11 9 15 12 21 12c2 0 7 -3 7 -7c0 -9 -6 -23 -18 -36c-46 -58 -144 -114 -185 -114c-15 0 -39 16 -39 29c0 6 0 7 4 17c36 88 70 165 113 273
c3 9 0 18 -8 17c-14 -2 -41 -14 -66 -33c-5 -5 -14 1 -14 6c0 7 5 16 12 25c22 24 116 89 170 89zM260 641c9 0 15 -17 16 -27l15 -141c1 -11 -3 -29 -14 -29c-5 0 -12 10 -17 21c-9 22 -17 45 -29 74c-1 2 -3 5 -9 0c-21 -21 -61 -55 -89 -77c-7 -7 -21 -15 -33 -15
c-10 0 -9 16 1 27c28 30 109 124 124 142c12 14 24 25 35 25z" />
    <glyph glyph-name="idieresis" unicode="&#xef;" horiz-adv-x="280" 
d="M225 405c10 0 24 -20 24 -29s-7 -26 -11 -35c-47 -114 -68 -175 -101 -254c-3 -9 3 -15 11 -15c11 0 48 24 80 55c11 9 15 12 21 12c2 0 7 -3 7 -7c0 -9 -6 -23 -18 -36c-46 -58 -144 -114 -185 -114c-15 0 -39 16 -39 29c0 6 0 7 4 17c36 88 70 165 113 273
c3 9 0 18 -8 17c-14 -2 -41 -14 -66 -33c-5 -5 -14 1 -14 6c0 7 5 16 12 25c22 24 116 89 170 89zM143 607c28 0 42 -24 42 -46c0 -29 -24 -59 -56 -59c-22 0 -39 22 -39 47c0 34 27 58 53 58zM310 607c28 0 42 -24 42 -46c0 -27 -23 -59 -55 -59c-23 0 -40 22 -40 47
c0 32 28 58 53 58z" />
    <glyph glyph-name="igrave" unicode="&#xec;" horiz-adv-x="280" 
d="M225 405c10 0 24 -20 24 -29s-7 -26 -11 -35c-47 -114 -68 -175 -101 -254c-3 -9 3 -15 11 -15c11 0 48 24 80 55c11 9 15 12 21 12c2 0 7 -3 7 -7c0 -9 -6 -23 -18 -36c-46 -58 -144 -114 -185 -114c-15 0 -39 16 -39 29c0 6 0 7 4 17c36 88 70 165 113 273
c3 9 0 18 -8 17c-14 -2 -41 -14 -66 -33c-5 -5 -14 1 -14 6c0 7 5 16 12 25c22 24 116 89 170 89zM211 658c6 0 13 -11 18 -42c6 -45 10 -106 12 -144c0 -15 -7 -30 -14 -30c-8 0 -17 12 -19 19c-18 42 -39 96 -47 125c-5 17 -4 27 -3 30c7 18 37 42 53 42z" />
    <glyph glyph-name="ntilde" unicode="&#xf1;" horiz-adv-x="523" 
d="M408 406c44 0 67 -33 67 -64c0 -17 -3 -36 -14 -64c-22 -59 -69 -162 -78 -178c-9 -18 -5 -27 4 -27c16 0 59 29 84 52c12 12 18 8 18 -2c0 -12 -9 -25 -15 -33c-39 -53 -128 -107 -184 -107c-10 0 -28 9 -37 23c-5 8 -8 16 -1 30c9 17 119 243 130 275
c10 31 3 44 -16 44c-23 0 -65 -37 -102 -90c-45 -63 -108 -175 -139 -222c-27 -44 -43 -61 -53 -61c-28 0 -49 24 -49 39c-1 21 19 63 23 72c28 63 71 150 100 225c6 12 2 16 -5 16c-29 0 -56 -28 -78 -48c-5 -5 -8 -7 -14 -7c-3 -1 -7 7 -7 11c0 44 63 116 154 116
c10 0 32 -8 37 -26c3 -8 3 -15 -4 -32l-54 -124c-6 -14 3 -21 11 -7c28 43 89 116 120 141c45 36 79 48 102 48zM267 510c-10 0 -21 -13 -30 -24c-4 -4 -8 -6 -11 -6c-4 0 -18 16 -18 18s34 51 74 77c6 4 13 5 18 4c12 -3 65 -11 95 -11c17 0 27 1 36 7c11 9 23 25 29 32
c3 4 22 -11 22 -17c0 -3 0 -5 -4 -9c-14 -14 -63 -69 -69 -74c-5 -5 -10 -8 -15 -8c-17 0 -82 11 -127 11z" />
    <glyph glyph-name="oacute" unicode="&#xf3;" horiz-adv-x="443" 
d="M292 407c77 0 116 -71 116 -125c0 -129 -88 -237 -177 -277c-25 -11 -61 -21 -93 -21c-51 0 -112 38 -112 122c0 59 42 174 119 241c40 35 94 60 147 60zM282 378c-14 0 -33 -12 -53 -36c-50 -60 -102 -184 -102 -287c0 -23 14 -42 33 -42c13 0 22 7 42 28
c43 45 112 208 112 296c0 22 -10 41 -32 41zM368 625c7 10 16 17 27 17c13 0 32 -36 32 -52c-1 -6 -4 -16 -12 -26c-31 -35 -74 -75 -110 -105c-8 -7 -19 -17 -33 -16c-8 0 -11 13 -2 29c30 54 68 109 98 153z" />
    <glyph glyph-name="ocircumflex" unicode="&#xf4;" horiz-adv-x="443" 
d="M292 407c77 0 116 -71 116 -125c0 -129 -88 -237 -177 -277c-25 -11 -61 -21 -93 -21c-51 0 -112 38 -112 122c0 59 42 174 119 241c40 35 94 60 147 60zM282 378c-14 0 -33 -12 -53 -36c-50 -60 -102 -184 -102 -287c0 -23 14 -42 33 -42c13 0 22 7 42 28
c43 45 112 208 112 296c0 22 -10 41 -32 41zM358 641c9 0 15 -17 16 -27l15 -141c1 -11 -3 -29 -14 -29c-5 0 -12 10 -17 21c-9 22 -17 45 -29 74c-1 2 -3 5 -9 0c-21 -21 -61 -55 -89 -77c-7 -7 -21 -15 -33 -15c-10 0 -9 16 1 27c28 30 109 124 124 142c12 14 24 25 35 25
z" />
    <glyph glyph-name="odieresis" unicode="&#xf6;" horiz-adv-x="443" 
d="M292 407c77 0 116 -71 116 -125c0 -129 -88 -237 -177 -277c-25 -11 -61 -21 -93 -21c-51 0 -112 38 -112 122c0 59 42 174 119 241c40 35 94 60 147 60zM282 378c-14 0 -33 -12 -53 -36c-50 -60 -102 -184 -102 -287c0 -23 14 -42 33 -42c13 0 22 7 42 28
c43 45 112 208 112 296c0 22 -10 41 -32 41zM246 607c28 0 42 -24 42 -46c0 -29 -24 -59 -56 -59c-22 0 -39 22 -39 47c0 34 27 58 53 58zM413 607c28 0 42 -24 42 -46c0 -27 -23 -59 -55 -59c-23 0 -40 22 -40 47c0 32 28 58 53 58z" />
    <glyph glyph-name="ograve" unicode="&#xf2;" horiz-adv-x="443" 
d="M292 407c77 0 116 -71 116 -125c0 -129 -88 -237 -177 -277c-25 -11 -61 -21 -93 -21c-51 0 -112 38 -112 122c0 59 42 174 119 241c40 35 94 60 147 60zM282 378c-14 0 -33 -12 -53 -36c-50 -60 -102 -184 -102 -287c0 -23 14 -42 33 -42c13 0 22 7 42 28
c43 45 112 208 112 296c0 22 -10 41 -32 41zM308 658c6 0 13 -11 18 -42c6 -45 10 -106 12 -144c0 -15 -7 -30 -14 -30c-8 0 -17 12 -19 19c-18 42 -39 96 -47 125c-5 17 -4 27 -3 30c7 18 37 42 53 42z" />
    <glyph glyph-name="otilde" unicode="&#xf5;" horiz-adv-x="443" 
d="M292 407c77 0 116 -71 116 -125c0 -129 -88 -237 -177 -277c-25 -11 -61 -21 -93 -21c-51 0 -112 38 -112 122c0 59 42 174 119 241c40 35 94 60 147 60zM282 378c-14 0 -33 -12 -53 -36c-50 -60 -102 -184 -102 -287c0 -23 14 -42 33 -42c13 0 22 7 42 28
c43 45 112 208 112 296c0 22 -10 41 -32 41zM237 513c-10 0 -21 -13 -30 -24c-4 -4 -8 -6 -11 -6c-4 0 -18 16 -18 18s34 51 74 77c6 4 13 5 18 4c12 -3 65 -11 95 -11c17 0 27 1 36 7c11 9 23 25 29 32c3 4 22 -11 22 -17c0 -3 0 -5 -4 -9c-14 -14 -63 -69 -69 -74
c-5 -5 -10 -8 -15 -8c-17 0 -82 11 -127 11z" />
    <glyph glyph-name="scaron" unicode="&#x161;" horiz-adv-x="307" 
d="M232 407c27 0 49 -12 58 -21c6 -6 12 -17 12 -25c0 -16 -21 -44 -33 -52c-3 -2 -10 -1 -14 2c-19 15 -49 47 -79 47c-9 0 -32 -13 -32 -37c0 -21 22 -51 61 -94c33 -38 50 -67 50 -92c0 -35 -28 -74 -63 -100c-42 -33 -97 -49 -118 -49c-41 0 -85 26 -85 59
c0 8 16 36 30 51c4 4 13 5 16 1c18 -15 60 -56 100 -56c24 0 44 15 44 35c0 12 -13 40 -58 88c-40 45 -46 75 -46 97c0 24 16 65 53 97c42 38 82 49 104 49zM228 442c-11 0 -14 17 -16 27c-7 48 -16 131 -18 149c-1 12 4 27 15 27c5 0 13 -13 18 -24l30 -79c1 -2 4 -5 10 0
c22 20 62 60 89 82c8 8 23 18 36 18c8 0 5 -18 -5 -31c-27 -30 -108 -126 -124 -144c-9 -10 -25 -25 -35 -25z" />
    <glyph glyph-name="uacute" unicode="&#xfa;" horiz-adv-x="507" 
d="M218 407c6 0 20 -11 26 -23c3 -7 2 -16 -3 -26c-23 -47 -91 -218 -100 -250c-8 -27 2 -39 12 -39c32 0 100 71 156 164c34 57 67 118 81 144c6 11 22 30 35 30c24 0 47 -22 47 -31c0 -8 -1 -20 -9 -38c-27 -64 -74 -177 -93 -237c-3 -11 1 -20 8 -20c11 0 46 16 94 64
c5 5 16 7 16 -1c0 -6 -1 -13 -6 -23c-29 -61 -135 -137 -191 -137c-15 0 -31 24 -31 32c0 5 1 9 3 16c5 15 41 99 47 118c7 21 -3 19 -15 5c-57 -70 -125 -122 -164 -147c-22 -14 -52 -24 -69 -24s-28 6 -35 15c-6 7 -10 28 -2 49c10 28 67 169 103 253c7 16 5 21 -1 21
c-9 0 -52 -29 -64 -37c-10 -7 -24 -9 -24 -2c0 5 5 14 8 19c16 29 115 105 171 105zM395 625c7 10 16 17 27 17c13 0 32 -36 32 -52c-1 -6 -4 -16 -12 -26c-31 -35 -74 -75 -110 -105c-8 -7 -19 -17 -33 -16c-8 0 -11 13 -2 29c30 54 68 109 98 153z" />
    <glyph glyph-name="ucircumflex" unicode="&#xfb;" horiz-adv-x="507" 
d="M218 407c6 0 20 -11 26 -23c3 -7 2 -16 -3 -26c-23 -47 -91 -218 -100 -250c-8 -27 2 -39 12 -39c32 0 100 71 156 164c34 57 67 118 81 144c6 11 22 30 35 30c24 0 47 -22 47 -31c0 -8 -1 -20 -9 -38c-27 -64 -74 -177 -93 -237c-3 -11 1 -20 8 -20c11 0 46 16 94 64
c5 5 16 7 16 -1c0 -6 -1 -13 -6 -23c-29 -61 -135 -137 -191 -137c-15 0 -31 24 -31 32c0 5 1 9 3 16c5 15 41 99 47 118c7 21 -3 19 -15 5c-57 -70 -125 -122 -164 -147c-22 -14 -52 -24 -69 -24s-28 6 -35 15c-6 7 -10 28 -2 49c10 28 67 169 103 253c7 16 5 21 -1 21
c-9 0 -52 -29 -64 -37c-10 -7 -24 -9 -24 -2c0 5 5 14 8 19c16 29 115 105 171 105zM387 641c9 0 15 -17 16 -27l15 -141c1 -11 -3 -29 -14 -29c-5 0 -12 10 -17 21c-9 22 -17 45 -29 74c-1 2 -3 5 -9 0c-21 -21 -61 -55 -89 -77c-7 -7 -21 -15 -33 -15c-10 0 -9 16 1 27
c28 30 109 124 124 142c12 14 24 25 35 25z" />
    <glyph glyph-name="udieresis" unicode="&#xfc;" horiz-adv-x="507" 
d="M218 407c6 0 20 -11 26 -23c3 -7 2 -16 -3 -26c-23 -47 -91 -218 -100 -250c-8 -27 2 -39 12 -39c32 0 100 71 156 164c34 57 67 118 81 144c6 11 22 30 35 30c24 0 47 -22 47 -31c0 -8 -1 -20 -9 -38c-27 -64 -74 -177 -93 -237c-3 -11 1 -20 8 -20c11 0 46 16 94 64
c5 5 16 7 16 -1c0 -6 -1 -13 -6 -23c-29 -61 -135 -137 -191 -137c-15 0 -31 24 -31 32c0 5 1 9 3 16c5 15 41 99 47 118c7 21 -3 19 -15 5c-57 -70 -125 -122 -164 -147c-22 -14 -52 -24 -69 -24s-28 6 -35 15c-6 7 -10 28 -2 49c10 28 67 169 103 253c7 16 5 21 -1 21
c-9 0 -52 -29 -64 -37c-10 -7 -24 -9 -24 -2c0 5 5 14 8 19c16 29 115 105 171 105zM258 607c28 0 42 -24 42 -46c0 -29 -24 -59 -56 -59c-22 0 -39 22 -39 47c0 34 27 58 53 58zM425 607c28 0 42 -24 42 -46c0 -27 -23 -59 -55 -59c-23 0 -40 22 -40 47c0 32 28 58 53 58z
" />
    <glyph glyph-name="ugrave" unicode="&#xf9;" horiz-adv-x="507" 
d="M218 407c6 0 20 -11 26 -23c3 -7 2 -16 -3 -26c-23 -47 -91 -218 -100 -250c-8 -27 2 -39 12 -39c32 0 100 71 156 164c34 57 67 118 81 144c6 11 22 30 35 30c24 0 47 -22 47 -31c0 -8 -1 -20 -9 -38c-27 -64 -74 -177 -93 -237c-3 -11 1 -20 8 -20c11 0 46 16 94 64
c5 5 16 7 16 -1c0 -6 -1 -13 -6 -23c-29 -61 -135 -137 -191 -137c-15 0 -31 24 -31 32c0 5 1 9 3 16c5 15 41 99 47 118c7 21 -3 19 -15 5c-57 -70 -125 -122 -164 -147c-22 -14 -52 -24 -69 -24s-28 6 -35 15c-6 7 -10 28 -2 49c10 28 67 169 103 253c7 16 5 21 -1 21
c-9 0 -52 -29 -64 -37c-10 -7 -24 -9 -24 -2c0 5 5 14 8 19c16 29 115 105 171 105zM316 658c6 0 13 -11 18 -42c6 -45 10 -106 12 -144c0 -15 -7 -30 -14 -30c-8 0 -17 12 -19 19c-18 42 -39 96 -47 125c-5 17 -4 27 -3 30c7 18 37 42 53 42z" />
    <glyph glyph-name="yacute" unicode="&#xfd;" horiz-adv-x="399" 
d="M158 407c28 0 55 -48 60 -93c8 -65 14 -169 6 -245c0 -6 5 -11 15 5c47 82 83 197 86 318c0 10 13 19 19 19c20 0 44 -37 44 -48c0 -84 -76 -230 -115 -295c-43 -70 -90 -134 -110 -161c-31 -41 -77 -97 -122 -132c-40 -30 -76 -43 -111 -43c-22 0 -52 15 -52 44
c0 32 35 63 49 63c4 0 12 -1 14 -4c15 -11 35 -34 55 -34c26 0 48 8 79 46c38 48 64 170 64 276c0 89 -3 149 -11 180c-6 23 -11 35 -21 35c-11 0 -34 -32 -56 -71c-8 -14 -15 -21 -20 -21c-6 0 -10 11 -11 21c-1 45 60 140 138 140zM330 625c7 10 16 17 27 17
c13 0 32 -36 32 -52c-1 -6 -4 -16 -12 -26c-31 -35 -74 -75 -110 -105c-8 -7 -19 -17 -33 -16c-8 0 -11 13 -2 29c30 54 68 109 98 153z" />
    <glyph glyph-name="ydieresis" unicode="&#xff;" horiz-adv-x="399" 
d="M158 407c28 0 55 -48 60 -93c8 -65 14 -169 6 -245c0 -6 5 -11 15 5c47 82 83 197 86 318c0 10 13 19 19 19c20 0 44 -37 44 -48c0 -84 -76 -230 -115 -295c-43 -70 -90 -134 -110 -161c-31 -41 -77 -97 -122 -132c-40 -30 -76 -43 -111 -43c-22 0 -52 15 -52 44
c0 32 35 63 49 63c4 0 12 -1 14 -4c15 -11 35 -34 55 -34c26 0 48 8 79 46c38 48 64 170 64 276c0 89 -3 149 -11 180c-6 23 -11 35 -21 35c-11 0 -34 -32 -56 -71c-8 -14 -15 -21 -20 -21c-6 0 -10 11 -11 21c-1 45 60 140 138 140zM178 607c28 0 42 -24 42 -46
c0 -29 -24 -59 -56 -59c-22 0 -39 22 -39 47c0 34 27 58 53 58zM345 607c28 0 42 -24 42 -46c0 -27 -23 -59 -55 -59c-23 0 -40 22 -40 47c0 32 28 58 53 58z" />
    <glyph glyph-name="zcaron" unicode="&#x17e;" horiz-adv-x="424" 
d="M192 407c33 0 65 -11 99 -26c21 -9 34 -8 45 -8c13 0 36 10 60 28c12 9 17 12 23 12s12 -5 12 -10c0 -8 -8 -20 -14 -25c-44 -38 -245 -215 -282 -256c-5 -5 -3 -9 2 -9c36 -1 73 -20 108 -45c24 -17 48 -22 58 -22c41 0 45 31 45 72c0 8 -3 27 -4 33c-1 4 5 8 11 8
c23 0 39 -23 38 -52c0 -37 -37 -73 -68 -97s-68 -41 -97 -41c-18 0 -45 17 -82 45c-38 29 -50 34 -67 34c-8 0 -25 -3 -38 -18c-4 -5 -17 -25 -23 -39c-2 -4 -8 -7 -10 -7c-6 0 -19 14 -19 26c-1 18 15 38 36 57c59 55 242 216 249 231c2 5 0 5 -3 5c-15 1 -33 5 -55 11
c-34 9 -68 27 -94 27c-16 0 -26 -8 -27 -22c0 -9 0 -29 5 -43c2 -6 -1 -8 -7 -14c-11 -10 -32 -21 -42 -21c-11 0 -15 19 -15 31c0 20 26 59 62 90c39 32 75 45 94 45zM259 442c-11 0 -14 17 -16 27c-7 48 -16 131 -18 149c-1 12 4 27 15 27c5 0 13 -13 18 -24l30 -79
c1 -2 4 -5 10 0c22 20 62 60 89 82c8 8 23 18 36 18c8 0 5 -18 -5 -31c-27 -30 -108 -126 -124 -144c-9 -10 -25 -25 -35 -25z" />
    <glyph glyph-name="twodotenleader" unicode="&#x2025;" horiz-adv-x="500" 
d="M82 129c39 0 60 -27 60 -68c0 -51 -42 -75 -73 -75c-42 0 -62 27 -62 65c0 43 37 78 75 78zM332 129c40 0 61 -27 61 -68c0 -51 -42 -75 -74 -75c-38 0 -61 27 -61 65c0 43 37 78 74 78z" />
    <glyph glyph-name="onedotenleader" unicode="&#x2024;" horiz-adv-x="500" 
d="M214 135c42 0 64 -29 64 -71c0 -54 -44 -78 -77 -78c-40 0 -64 29 -64 68c0 44 38 81 77 81z" />
    <glyph glyph-name="emdash.alt" horiz-adv-x="760" 
d="M84 246l614 2c4 0 9 -8 9 -15c0 -11 -15 -49 -28 -49h-609c-7 0 -10 12 -10 18c0 16 18 44 24 44z" />
    <glyph glyph-name="colonmonetary" unicode="&#x20a1;" horiz-adv-x="494" 
d="M57 232c0 200 144 361 315 382c4 1 8 5 9 6c6 20 13 38 20 57c4 11 6 12 9 12c9 0 23 -7 21 -15l-18 -52c-1 -2 1 -6 6 -6c10 -1 27 -3 38 -5c5 -1 6 0 8 5c10 28 17 47 21 60c4 11 5 12 8 12c10 0 25 -4 22 -13l-23 -67c-1 -5 1 -7 5 -9c5 -3 16 -9 20 -10
c10 -4 19 -6 30 1s14 7 17 2c2 -3 5 -12 0 -22c-15 -29 -34 -73 -38 -93c-5 -20 -12 -28 -21 -28c-8 0 -11 13 -10 27c3 39 3 56 -15 78c-2 4 -5 1 -6 0l-176 -512c-2 -5 2 -6 5 -5c35 7 62 26 75 41c17 19 44 47 61 65c8 7 13 11 17 11c5 0 7 -10 4 -23
c-6 -25 -59 -112 -63 -118c-4 -4 -16 -9 -20 -4c-10 9 -18 11 -35 7c-10 -2 -31 -8 -52 -12c-3 -1 -7 -4 -9 -10l-26 -72c-4 -7 -10 -8 -18 -8c-6 0 -14 5 -13 9c9 23 14 37 25 70c2 6 0 7 -4 7l-36 5c-7 2 -8 0 -10 -4c-11 -33 -17 -45 -28 -78c-5 -6 -13 -8 -23 -8
c-5 0 -9 6 -8 11c12 35 17 47 30 82c2 4 0 11 -3 12c-64 33 -111 102 -111 212zM169 215c0 -65 11 -100 23 -122c1 -2 7 -3 8 1c56 159 112 327 166 480c0 4 -1 6 -7 5c-85 -31 -190 -211 -190 -364zM445 581c-10 4 -27 7 -38 7c-3 0 -6 -3 -7 -6l-177 -518
c-2 -5 -1 -9 3 -12c10 -6 22 -10 33 -12c6 -1 8 2 9 6c56 161 132 385 180 522c3 8 0 11 -3 13z" />
    <glyph glyph-name="R_p" unicode="&#xf6dd;" horiz-adv-x="931" 
d="M896 260c1 -127 -108 -220 -185 -258c-21 -10 -46 -15 -53 -15c-13 0 -30 3 -36 6c-3 1 -6 -2 -8 -7c-17 -52 -25 -89 -34 -127c-7 -28 7 -35 42 -43c18 -4 24 -10 24 -17c0 -10 -15 -15 -30 -15c-26 0 -62 1 -89 1c-48 0 -86 -4 -109 -4c-21 0 -29 7 -29 15
c-1 6 8 13 26 17c36 8 50 19 59 42c4 11 21 59 44 131c1 2 -1 8 -5 8c-14 -2 -31 -2 -44 -2c-62 0 -92 19 -122 99c-16 44 -29 107 -42 147c-8 26 -19 41 -39 41c-7 0 -14 -4 -17 -11c-6 -12 -42 -125 -49 -164c-11 -55 -8 -66 34 -75c14 -3 25 -11 25 -18
c0 -10 -14 -14 -34 -14c-35 0 -74 3 -100 3c-29 0 -78 -3 -103 -3c-16 0 -33 3 -33 15c0 10 17 15 30 18c36 7 47 20 62 54c20 48 113 353 131 411c13 43 6 47 -51 53c-18 2 -26 9 -26 17s15 13 30 14c13 0 59 2 88 3c31 1 74 5 100 5c95 0 188 -28 188 -135
c0 -81 -72 -128 -138 -148c-3 -1 -4 -5 -3 -13c14 -61 44 -172 69 -221c16 -29 32 -39 53 -44c7 -1 10 3 13 12c35 107 76 243 84 273c1 4 -1 6 -4 5c-17 -3 -49 -15 -68 -23c-9 -4 -22 1 -22 8c0 6 5 12 9 15c24 18 64 31 88 39c8 3 10 4 12 10c9 27 13 44 23 55
c7 10 58 20 71 20c8 0 14 -12 14 -17c0 -8 -8 -38 -12 -51h12c70 0 153 -32 154 -112zM792 265c0 33 -27 65 -58 65c-6 0 -15 1 -18 -6c-28 -85 -54 -177 -81 -276c-5 -15 10 -31 20 -31c8 0 28 10 43 24c61 64 94 144 94 224zM430 453c0 44 -22 102 -82 102
c-9 0 -16 -7 -18 -13c-22 -61 -51 -173 -66 -224c-2 -4 1 -13 8 -13c26 0 55 7 73 14c43 16 85 63 85 134z" />
    <glyph glyph-name="figuredash" unicode="&#x2012;" horiz-adv-x="327" 
d="M92 306c33 4 198 23 204 23c8 0 11 -12 11 -16c0 -15 -17 -53 -34 -55l-196 -20c-7 0 -13 10 -13 14c0 16 22 53 28 54z" />
    <glyph glyph-name="oneeighth" unicode="&#x215b;" horiz-adv-x="723" 
d="M587 345c53 0 91 -35 91 -74c0 -40 -27 -56 -76 -85c-2 -1 -5 -2 -1 -6c25 -20 50 -45 50 -85c0 -59 -82 -103 -149 -103c-74 0 -108 42 -108 77c0 46 40 60 94 91c5 2 3 6 1 9c-23 22 -36 44 -36 69c0 66 69 107 134 107zM161 578c0 6 12 12 23 14c49 7 95 13 134 29
c5 3 12 -6 10 -11c-8 -19 -15 -38 -27 -75c-19 -56 -42 -133 -55 -182c-10 -36 1 -43 29 -51c17 -4 23 -10 23 -17c0 -8 -12 -12 -24 -12c-18 0 -70 3 -91 3c-40 0 -67 -3 -89 -3c-8 0 -24 3 -24 13c0 8 11 14 33 18c28 5 36 14 47 37c14 26 28 69 49 134c13 39 21 66 24 78
c1 5 -1 8 -5 8l-34 4c-9 1 -23 5 -23 13zM642 636c12 0 23 -15 20 -19c-190 -231 -349 -422 -534 -643c-2 -3 -9 -9 -14 -9c-9 0 -23 21 -16 30c182 217 358 428 524 629c9 10 14 12 20 12zM521 21c31 0 53 23 53 48c0 30 -28 54 -58 75c-4 3 -6 3 -10 0
c-23 -15 -41 -37 -41 -69c0 -19 18 -54 56 -54zM570 320c-24 0 -49 -20 -49 -51c0 -21 29 -50 54 -66c2 -2 5 -3 9 0c23 18 35 42 35 63c0 31 -22 54 -49 54z" />
    <glyph glyph-name="threeeighths" unicode="&#x215c;" horiz-adv-x="721" 
d="M260 621c69 0 85 -46 85 -68c0 -44 -60 -67 -88 -78c-5 -1 -6 -6 0 -8c31 -9 77 -26 77 -80s-67 -93 -112 -110c-21 -8 -57 -17 -89 -17c-54 0 -66 31 -63 66c0 7 6 14 11 14c1 0 7 -3 13 -8c19 -13 43 -41 77 -41c35 0 70 36 70 80c0 40 -28 60 -53 60
c-13 0 -22 -1 -29 -2s-13 1 -13 7c0 4 7 14 21 20c20 11 26 12 50 24c22 12 45 33 45 67c0 18 -9 37 -36 37c-25 0 -48 -24 -62 -48c-4 -5 -11 -6 -15 -3c-5 5 -8 22 -8 27c0 8 5 15 10 20c19 16 61 41 109 41zM640 636c12 0 23 -15 20 -19c-190 -231 -349 -422 -534 -643
c-2 -3 -9 -9 -14 -9c-9 0 -23 21 -16 30c182 217 358 428 524 629c9 10 14 12 20 12zM585 345c53 0 91 -35 91 -74c0 -40 -27 -56 -76 -85c-2 -1 -5 -2 -1 -6c25 -20 50 -45 50 -85c0 -59 -82 -103 -149 -103c-74 0 -108 42 -108 77c0 46 40 60 94 91c5 2 3 6 1 9
c-23 22 -36 44 -36 69c0 66 69 107 134 107zM568 320c-24 0 -49 -20 -49 -51c0 -21 29 -50 54 -66c2 -2 5 -3 9 0c23 18 35 42 35 63c0 31 -22 54 -49 54zM519 21c31 0 53 23 53 48c0 30 -28 54 -58 75c-4 3 -6 3 -10 0c-23 -15 -41 -37 -41 -69c0 -19 18 -54 56 -54z" />
    <glyph glyph-name="fiveeighths" unicode="&#x215d;" horiz-adv-x="720" 
d="M199 603c25 5 122 18 151 18c6 0 8 -5 8 -8c-2 -16 -16 -50 -34 -62c-6 -4 -19 -9 -26 -9c-30 0 -86 1 -106 1c-6 0 -7 -2 -10 -5c-4 -5 -7 -10 -9 -16c-2 -4 2 -9 8 -11c79 -30 148 -53 148 -122c0 -76 -116 -129 -190 -129c-37 0 -66 18 -66 49c0 4 2 14 5 19
c3 7 8 8 12 5c13 -9 54 -34 90 -34c42 0 72 15 72 56c0 32 -40 53 -96 78c-31 14 -34 32 -34 37c0 14 38 93 58 119c5 7 14 13 19 14zM638 636c12 0 23 -15 20 -19c-190 -231 -349 -422 -534 -643c-2 -3 -9 -9 -14 -9c-9 0 -23 21 -16 30c182 217 358 428 524 629
c9 10 14 12 20 12zM584 345c53 0 91 -35 91 -74c0 -40 -27 -56 -76 -85c-2 -1 -5 -2 -1 -6c25 -20 50 -45 50 -85c0 -59 -82 -103 -149 -103c-74 0 -108 42 -108 77c0 46 40 60 94 91c5 2 3 6 1 9c-23 22 -36 44 -36 69c0 66 69 107 134 107zM567 320c-24 0 -49 -20 -49 -51
c0 -21 29 -50 54 -66c2 -2 5 -3 9 0c23 18 35 42 35 63c0 31 -22 54 -49 54zM518 21c31 0 53 23 53 48c0 30 -28 54 -58 75c-4 3 -6 3 -10 0c-23 -15 -41 -37 -41 -69c0 -19 18 -54 56 -54z" />
    <glyph glyph-name="seveneighths" unicode="&#x215e;" horiz-adv-x="709" 
d="M573 345c53 0 91 -35 91 -74c0 -40 -27 -56 -76 -85c-2 -1 -5 -2 -1 -6c25 -20 50 -45 50 -85c0 -59 -82 -103 -149 -103c-74 0 -108 42 -108 77c0 46 40 60 94 91c5 2 3 6 1 9c-23 22 -36 44 -36 69c0 66 69 107 134 107zM609 636c12 0 23 -15 20 -19
c-190 -231 -349 -422 -534 -643c-2 -3 -9 -9 -14 -9c-9 0 -23 21 -16 30c182 217 358 428 524 629c9 10 14 12 20 12zM263 614c82 0 129 3 134 3c4 0 7 -1 7 -4c0 -5 -4 -19 -16 -34c-85 -105 -159 -194 -248 -307c-6 -8 -11 -11 -16 -11c-11 0 -21 7 -21 14c0 4 4 12 15 25
c78 90 142 163 196 234c3 4 5 8 5 10c-1 4 -12 4 -30 4c-33 0 -79 -1 -100 -3c-18 -1 -32 -10 -47 -32c-3 -5 -13 -11 -18 -11c-11 0 -15 6 -9 16l45 91c2 5 9 9 13 8c12 -3 45 -3 90 -3zM507 21c31 0 53 23 53 48c0 30 -28 54 -58 75c-4 3 -6 3 -10 0
c-23 -15 -41 -37 -41 -69c0 -19 18 -54 56 -54zM556 320c-24 0 -49 -20 -49 -51c0 -21 29 -50 54 -66c2 -2 5 -3 9 0c23 18 35 42 35 63c0 31 -22 54 -49 54z" />
    <glyph glyph-name="onethird" unicode="&#x2153;" horiz-adv-x="741" 
d="M593 345c69 0 85 -46 85 -68c0 -44 -60 -67 -88 -78c-5 -1 -6 -6 0 -8c31 -9 77 -26 77 -80s-67 -93 -112 -110c-21 -8 -57 -17 -89 -17c-54 0 -66 31 -63 66c0 7 6 14 11 14c1 0 7 -3 13 -8c19 -13 43 -41 77 -41c35 0 70 36 70 80c0 40 -28 60 -53 60
c-13 0 -22 -1 -29 -2s-13 1 -13 7c0 4 7 14 21 20c20 11 26 12 50 24c22 12 45 33 45 67c0 18 -9 37 -36 37c-25 0 -48 -24 -62 -48c-4 -5 -11 -6 -15 -3c-5 5 -8 22 -8 27c0 8 5 15 10 20c19 16 61 41 109 41zM161 578c0 6 12 12 23 14c49 7 95 13 134 29c5 3 12 -6 10 -11
c-8 -19 -15 -38 -27 -75c-19 -56 -42 -133 -55 -182c-10 -36 1 -43 29 -51c17 -4 23 -10 23 -17c0 -8 -12 -12 -24 -12c-18 0 -70 3 -91 3c-40 0 -67 -3 -89 -3c-8 0 -24 3 -24 13c0 8 11 14 33 18c28 5 36 14 47 37c14 26 28 69 49 134c13 39 21 66 24 78c1 5 -1 8 -5 8
l-34 4c-9 1 -23 5 -23 13zM646 636c12 0 23 -15 20 -19c-190 -231 -349 -422 -534 -643c-2 -3 -9 -9 -14 -9c-9 0 -23 21 -16 30c182 217 358 428 524 629c9 10 14 12 20 12z" />
    <glyph glyph-name="twothirds" unicode="&#x2154;" horiz-adv-x="748" 
d="M261 621c50 0 91 -36 91 -89c0 -42 -24 -73 -69 -106c-40 -30 -75 -52 -113 -78c-7 -5 -3 -7 2 -7c24 0 96 2 108 3c7 1 19 9 34 25c8 8 16 14 22 14c7 0 10 -13 5 -23l-45 -80c-3 -5 -15 -6 -19 -6c-11 0 -115 2 -143 2l-55 -1c-21 0 -26 7 -26 14c0 4 11 16 17 20
c33 23 78 53 119 88c61 50 77 88 77 116c0 36 -22 53 -50 53c-24 0 -49 -17 -66 -32c-7 -7 -14 -11 -19 -11c-4 0 -7 6 -7 9c0 7 5 18 15 29c10 12 50 60 122 60zM601 345c69 0 85 -46 85 -68c0 -44 -60 -67 -88 -78c-5 -1 -6 -6 0 -8c31 -9 77 -26 77 -80
s-67 -93 -112 -110c-21 -8 -57 -17 -89 -17c-54 0 -66 31 -63 66c0 7 6 14 11 14c1 0 7 -3 13 -8c19 -13 43 -41 77 -41c35 0 70 36 70 80c0 40 -28 60 -53 60c-13 0 -22 -1 -29 -2s-13 1 -13 7c0 4 7 14 21 20c20 11 26 12 50 24c22 12 45 33 45 67c0 18 -9 37 -36 37
c-25 0 -48 -24 -62 -48c-4 -5 -11 -6 -15 -3c-5 5 -8 22 -8 27c0 8 5 15 10 20c19 16 61 41 109 41zM664 636c12 0 23 -15 20 -19c-190 -231 -349 -422 -534 -643c-2 -3 -9 -9 -14 -9c-9 0 -23 21 -16 30c182 217 358 428 524 629c9 10 14 12 20 12z" />
    <glyph glyph-name="zero.slash" unicode="&#xf638;" horiz-adv-x="494" 
d="M398 508l-232 -453c-3 -6 -5 -10 -1 -17c9 -13 25 -20 39 -20c61 0 109 94 145 188c28 75 58 214 56 299c0 8 -2 12 -7 3zM157 111l234 450c2 5 2 7 -2 12c-8 13 -20 22 -35 22c-33 0 -68 -29 -103 -92c-57 -104 -103 -271 -100 -390c-1 -5 4 -7 6 -2zM356 625
c119 0 151 -100 151 -189c0 -119 -47 -260 -121 -352c-50 -62 -119 -97 -181 -97c-131 0 -157 113 -157 187c0 133 56 272 117 345c46 57 111 106 191 106z" />
    <glyph glyph-name="Euro" unicode="&#x20ac;" horiz-adv-x="494" 
d="M437 625c37 0 74 -10 96 -23c14 -8 17 -7 32 1c9 6 12 6 16 2c1 -2 6 -11 0 -21c-16 -32 -38 -82 -43 -100c-5 -21 -13 -27 -18 -27c-7 0 -13 10 -11 27c4 36 5 54 -9 76c-14 25 -39 37 -65 37c-91 0 -163 -119 -195 -212c-3 -7 1 -8 4 -8l181 6c6 0 9 -10 8 -13
c-3 -13 -18 -26 -26 -26c-86 0 -131 -1 -172 0c-5 0 -8 -1 -9 -5c-3 -8 -8 -35 -9 -45c-1 -3 1 -6 7 -6c54 0 81 5 162 5c5 0 7 -12 6 -15c-4 -15 -20 -28 -28 -28c-68 0 -110 1 -149 1c-5 0 -8 -3 -8 -6c-2 -16 -3 -41 -3 -56c1 -120 47 -155 92 -155c31 0 66 21 85 40
c18 19 37 40 53 56c8 8 20 12 24 12c6 0 7 -11 3 -24c-8 -26 -57 -94 -66 -105c-6 -7 -15 -12 -24 -5c-10 8 -16 9 -34 5s-49 -15 -77 -15c-74 0 -171 48 -171 212c0 10 1 21 2 32c1 6 -1 7 -4 8l-44 1c-4 0 -8 5 -7 11c2 10 13 22 18 23h36c4 1 7 2 8 6l9 41
c2 7 1 10 -4 10h-26c-4 0 -8 5 -7 9c1 9 12 22 17 22l25 1c4 0 7 3 8 6c54 138 173 245 317 245z" />
    <glyph glyph-name="franc" unicode="&#x20a3;" horiz-adv-x="494" 
d="M340 193c-3 -10 -11 -20 -19 -20l-96 -1c-3 0 -8 -4 -9 -7c-4 -10 -15 -52 -19 -71c-9 -51 -9 -56 41 -68c14 -4 24 -9 24 -16c0 -10 -15 -13 -33 -13c-23 0 -115 3 -150 3c-36 0 -62 -3 -81 -3c-16 0 -24 7 -24 13c0 8 13 15 27 17c58 10 62 24 74 53c6 14 15 44 27 80
c1 6 -1 10 -4 10l-66 -1c-3 0 -7 8 -5 16c2 10 13 20 17 20l64 2c6 0 10 3 11 7c33 105 72 214 99 321c8 33 -1 40 -46 52c-17 4 -25 11 -25 18c0 8 15 11 29 11c36 0 72 -3 141 -3h111c98 0 119 1 138 9c5 3 9 -8 8 -12c-12 -29 -26 -71 -34 -106c-3 -13 -11 -23 -18 -23
c-8 0 -14 13 -13 33c3 34 -8 62 -41 65c-26 2 -90 3 -109 2c-5 0 -16 -9 -22 -24c-10 -25 -43 -137 -64 -203c-2 -6 0 -10 5 -10c58 0 86 2 111 5c30 4 41 22 55 42c9 14 17 23 25 23c9 0 6 -19 4 -27c-3 -13 -14 -34 -19 -51c-10 -35 -14 -62 -18 -75c-3 -9 -9 -19 -18 -19
c-5 0 -9 10 -10 24c0 26 -8 38 -19 41c-14 3 -37 3 -120 3c-3 0 -10 -4 -12 -11c-8 -24 -19 -62 -26 -84c0 -3 0 -8 5 -8l98 2c4 0 7 -9 6 -16z" />
    <glyph glyph-name="lira" unicode="&#x20a4;" horiz-adv-x="494" 
d="M76 375l72 4c6 0 10 3 12 9c28 103 73 162 132 201c36 23 70 36 120 36c53 0 90 -36 90 -72c0 -40 -25 -59 -56 -66c-7 -1 -13 5 -13 9c1 8 2 19 2 38c-1 28 -19 62 -47 62c-50 0 -83 -61 -113 -206c-1 -2 3 -5 7 -5l114 5c3 0 8 -11 6 -19c-1 -8 -8 -16 -12 -16l-115 -7
c-2 0 -6 -2 -7 -7c-3 -10 -8 -35 -11 -45c-2 -4 1 -6 4 -6l112 5c4 0 7 -7 6 -15s-8 -20 -12 -20l-119 -7c-3 0 -8 -5 -10 -9c-20 -54 -52 -96 -79 -115c-4 -3 0 -8 4 -9c25 -7 55 -23 96 -42c36 -16 78 -33 105 -33c36 0 64 12 64 73c0 19 -2 39 -6 58c-2 8 5 14 16 14
c18 0 40 -20 40 -57c0 -75 -107 -165 -198 -165c-48 0 -79 22 -128 57c-27 18 -41 31 -55 35c-7 2 -13 0 -22 -9c-42 -40 -71 -55 -90 -55s-27 13 -27 22c0 29 40 67 110 95c6 3 15 6 20 11c12 15 21 38 38 113c2 6 1 10 -5 10c-30 -1 -30 0 -73 -2c-5 0 -8 8 -6 14
c3 9 10 20 14 21l72 4c4 0 7 3 8 6c3 13 6 30 8 43c2 5 -1 11 -4 11l-72 -3c-4 0 -8 8 -6 14c3 9 10 19 14 20z" />
    <glyph glyph-name="peseta" unicode="&#x20a7;" horiz-adv-x="494" 
d="M540 409h-28c-4 0 -8 -2 -9 -7c-20 -80 -77 -120 -117 -136c-46 -18 -88 -24 -115 -24c-18 0 -34 4 -34 14c0 7 7 13 29 17c65 13 119 66 129 122c1 10 -1 11 -6 11l-137 -1c-4 0 -7 -4 -9 -9c-26 -87 -55 -199 -76 -284c-16 -69 -5 -78 43 -86c19 -3 25 -10 25 -17
s-12 -12 -29 -12c-20 0 -50 3 -117 3c-40 0 -81 -3 -118 -3c-17 0 -28 6 -28 12c0 9 6 15 28 19c44 7 56 17 76 72s53 169 89 294c1 5 1 8 -5 8l-51 -1c-4 0 -9 6 -7 14c1 8 12 22 17 22l53 1c5 0 6 2 9 9l19 67c12 44 10 56 -30 63c-34 5 -42 9 -42 20c-1 5 7 12 24 12h30
c35 0 102 7 153 7c69 0 106 -10 142 -34c43 -29 62 -86 61 -132c0 -3 3 -5 8 -5h33c4 0 8 -4 7 -11c-2 -9 -12 -25 -17 -25zM402 449c4 82 -32 135 -79 135c-17 0 -20 -5 -26 -19c-10 -22 -23 -71 -38 -118c-1 -3 0 -7 5 -7l129 2c5 0 9 5 9 7z" />
    <glyph glyph-name="percent.alt" horiz-adv-x="580" 
d="M251 617c47 0 79 -40 79 -78c0 -73 -48 -131 -100 -156c-17 -8 -42 -15 -68 -15c-38 0 -74 29 -74 74c0 60 39 119 79 147c21 15 46 28 84 28zM248 595c-10 0 -25 -9 -36 -25c-38 -49 -56 -121 -56 -152c0 -12 5 -26 17 -26c7 0 17 4 31 21c26 30 61 115 61 157
c0 16 -7 25 -17 25zM516 623c4 0 12 -7 13 -11c-39 -51 -68 -88 -110 -135c-94 -107 -176 -211 -261 -306c-1 -1 -7 -2 -10 -1c-4 1 -11 7 -10 14c35 45 72 90 109 134c91 105 165 193 254 299c3 3 13 6 15 6zM501 425c46 0 75 -38 75 -76c0 -74 -45 -134 -98 -158
c-15 -7 -36 -14 -69 -14c-38 0 -74 26 -74 73c0 63 42 119 78 147c20 15 46 28 88 28zM495 405c-11 0 -22 -9 -34 -24c-41 -54 -59 -124 -59 -155c0 -12 5 -26 17 -26c7 0 19 4 33 21c21 26 60 111 60 155c0 18 -7 29 -17 29z" />
    <glyph glyph-name="uni2116" unicode="&#x2116;" horiz-adv-x="840" 
d="M623 627c20 0 41 -10 41 -27c1 -5 -3 -8 -7 -9c-84 -11 -123 -104 -151 -207l-63 -239c-8 -31 -17 -75 -24 -98c-8 -27 -42 -65 -55 -67c-13 0 -23 15 -25 29c-24 139 -62 301 -92 447c-1 6 -8 5 -10 -3c-31 -116 -53 -191 -80 -286c-46 -158 -83 -184 -124 -184
c-36 0 -56 29 -51 63c0 8 3 13 8 11c10 -2 25 -3 33 -3c41 0 68 20 113 170c25 83 61 204 75 273c5 28 11 70 -10 78c-12 5 -30 9 -52 13c-9 2 -19 8 -18 18c0 6 12 11 26 11c25 0 105 -2 135 -2c6 0 12 -2 19 -13c6 -12 11 -31 19 -65c32 -156 70 -305 81 -345
c2 -5 9 -5 10 0c14 50 46 171 60 228c17 62 53 207 142 207zM832 411c0 -82 -51 -161 -117 -189c-26 -12 -49 -15 -73 -15c-59 0 -93 47 -93 99c0 58 25 124 82 171c24 21 62 40 106 40c61 0 95 -54 95 -106zM758 448c0 26 -9 44 -25 44c-12 0 -26 -10 -38 -25
c-26 -30 -69 -119 -69 -195c0 -25 11 -38 29 -38c15 0 29 13 40 26c32 39 63 130 63 188zM759 172c-4 -23 -14 -33 -29 -34l-192 -20c-15 -2 -16 7 -14 19c3 16 10 23 23 24l202 22c10 1 12 -4 10 -11z" />
    <glyph glyph-name="estimated" unicode="&#x212e;" horiz-adv-x="817" 
d="M722 316h-605c-3 0 -5 -1 -5 -4v-183c0 -8 4 -15 9 -21c57 -61 139 -99 229 -99c96 0 182 43 240 111h55c-68 -79 -176 -131 -296 -131c-206 0 -374 150 -374 336s168 336 374 336s373 -150 373 -336v-9zM586 340v184c0 9 -4 16 -10 22c-58 58 -138 95 -226 95
c-90 0 -170 -38 -228 -98c-6 -6 -10 -14 -10 -23v-180c0 -3 2 -5 5 -5h464c3 0 5 2 5 5z" />
    <glyph glyph-name="estimated.alt" horiz-adv-x="614" 
d="M438 618c117 0 187 -82 187 -167c0 -17 -3 -27 -8 -44c-4 -10 -35 -28 -60 -28c-19 0 -255 1 -330 1c-2 0 -8 -4 -12 -12c-12 -28 -20 -76 -20 -117c0 -126 63 -189 171 -189c85 0 146 45 187 80c6 5 13 -4 13 -9c0 -12 -11 -30 -22 -42c-74 -79 -154 -103 -251 -103
c-143 0 -221 110 -221 234c0 128 56 260 182 342c67 44 129 54 184 54zM420 587c-64 0 -142 -52 -188 -159c-5 -9 -1 -14 5 -14c45 -2 106 0 195 2c64 1 87 25 87 70c0 49 -30 101 -99 101z" />
    <glyph glyph-name="Q.alt" horiz-adv-x="697" 
d="M466 651c130 0 220 -102 220 -249c0 -135 -70 -284 -190 -363c-25 -16 -61 -32 -90 -43c-5 -1 -4 -9 0 -13c41 -32 183 -108 288 -150c89 -37 196 -69 277 -69c71 0 138 17 180 46c10 7 20 4 20 -4c0 -12 -13 -29 -23 -39c-55 -56 -153 -85 -245 -85
c-202 0 -377 111 -601 265c-25 16 -50 32 -73 45c-22 11 -43 20 -62 36c-58 43 -95 106 -95 196c0 120 60 270 180 355c54 39 123 72 214 72zM466 622c-46 0 -84 -25 -123 -63c-108 -102 -148 -267 -148 -398c0 -67 39 -154 126 -154c24 0 58 20 106 69
c59 62 138 229 138 380c0 93 -28 166 -99 166z" />
    <glyph glyph-name="a.end" horiz-adv-x="815" 
d="M388 415c16 0 34 -6 51 -16c3 -2 6 -13 1 -22c-24 -57 -90 -228 -108 -292c-6 -19 1 -29 12 -33c6 -4 41 -15 156 -15c130 0 212 27 212 84c0 13 -5 19 -28 31c-25 15 -35 33 -35 44c0 27 34 56 56 56c36 0 60 -46 60 -89c0 -57 -42 -105 -88 -130
c-52 -28 -100 -48 -270 -48c-71 0 -148 7 -161 17c-7 5 -17 16 -13 35c0 12 18 54 30 85c5 10 -2 16 -8 9c-79 -89 -161 -147 -212 -147c-18 0 -52 17 -52 45c0 23 9 55 38 104c60 105 168 210 233 248c19 10 30 14 36 14c2 0 31 -7 46 -21c2 -2 9 1 10 4c6 12 10 19 16 29
c3 5 13 8 18 8zM282 329c-43 0 -77 -21 -105 -58c-33 -42 -72 -125 -72 -177c0 -25 12 -32 23 -32c14 0 44 20 83 64c34 36 79 109 102 160c5 12 5 21 2 24c-8 9 -24 19 -33 19z" />
    <glyph glyph-name="d.end" horiz-adv-x="852" 
d="M13 61c0 66 59 241 206 323c32 18 66 24 82 24c14 0 46 -14 58 -28c3 -2 10 1 11 6c9 28 40 131 64 214c9 32 5 38 -10 46c-25 13 -33 18 -33 22c0 8 10 15 15 17c19 6 118 20 141 20c12 0 14 -15 4 -50c-18 -64 -47 -145 -93 -295c-31 -100 -65 -210 -83 -274
c-5 -18 0 -33 11 -37c5 -2 45 -9 159 -9c160 0 206 34 206 88c0 17 -6 21 -28 28c-27 10 -36 29 -36 43c0 27 29 57 56 57c35 0 59 -45 59 -88c0 -66 -45 -112 -90 -138c-51 -29 -108 -42 -256 -42c-23 0 -81 2 -114 4c-29 2 -51 3 -70 1c-3 0 -10 9 -4 28
c7 24 31 96 41 128c2 6 -5 9 -10 1c-85 -119 -152 -165 -226 -165c-38 0 -61 37 -60 76zM120 82c0 -19 7 -30 19 -30c30 0 81 38 128 99c25 35 54 93 70 139c9 26 7 46 2 58c-4 9 -12 24 -23 24c-16 0 -47 -16 -90 -66c-54 -64 -106 -169 -106 -224z" />
    <glyph glyph-name="e.end" horiz-adv-x="870" 
d="M287 407c46 0 63 -38 63 -61c0 -81 -165 -130 -199 -131c-4 0 -8 -4 -11 -11c-5 -10 -5 -16 -5 -35c0 -47 22 -80 69 -106c38 -20 106 -38 185 -38c119 0 206 12 274 43c56 27 93 70 93 117c0 24 -4 37 -13 46c-6 8 -10 15 -10 20c1 13 23 35 51 35c17 0 45 -27 45 -61
c0 -70 -71 -134 -104 -154c-98 -62 -192 -106 -365 -106c-134 0 -202 20 -251 46c-39 21 -78 69 -75 133c5 80 48 144 76 174c50 54 125 89 177 89zM256 378c-12 0 -70 -34 -103 -124c-2 -4 3 -7 7 -7c42 0 118 73 118 108c0 9 0 23 -22 23z" />
    <glyph glyph-name="h.end" horiz-adv-x="839" 
d="M166 240c-6 -17 4 -20 11 -6c21 33 80 97 111 125c40 39 81 50 105 50c43 0 67 -31 67 -63c0 -18 -3 -37 -14 -65l-79 -198c-7 -19 3 -33 14 -34c5 -2 27 -12 145 -12c135 0 213 28 213 84c0 18 -6 24 -27 31c-28 10 -37 30 -37 44c0 27 29 57 56 57c35 0 60 -46 60 -89
c0 -69 -44 -110 -90 -135c-47 -25 -103 -44 -264 -44c-109 0 -162 3 -180 21c-9 8 -14 23 -8 37c16 33 106 238 117 270c11 31 3 41 -17 41c-24 0 -66 -33 -106 -86c-38 -50 -96 -148 -138 -224c-25 -44 -38 -59 -49 -59c-27 0 -48 20 -48 40c-1 19 52 168 59 188
c34 103 96 300 124 388c8 27 3 34 -33 48c-7 4 -11 8 -11 13c0 7 14 14 26 17s123 26 142 26c4 0 14 -12 10 -21c-26 -61 -105 -289 -159 -444z" />
    <glyph glyph-name="k.alt" horiz-adv-x="433" 
d="M374 407c39 0 59 -25 59 -48c0 -48 -21 -75 -65 -109c-33 -27 -89 -55 -110 -66c-3 -1 -3 -7 -3 -8c8 -13 19 -39 37 -86c22 -58 60 -158 91 -216c23 -42 47 -57 65 -57c21 0 36 26 60 79c4 9 16 12 21 12c15 0 36 -21 35 -41c-2 -38 -64 -79 -134 -79
c-57 0 -119 38 -159 116c-22 41 -45 94 -71 153c-30 72 -42 90 -50 90c-7 0 -13 -7 -18 -19c-20 -46 -28 -67 -55 -126c-3 -9 -26 -16 -29 -16c-25 0 -45 24 -45 33c0 3 2 12 8 29c7 17 125 385 184 558c7 22 0 32 -23 41c-10 4 -18 12 -18 14c1 7 5 10 15 15
c14 8 133 28 149 28c3 0 8 -17 5 -26c-5 -19 -93 -241 -145 -390c-4 -11 3 -9 10 -2c29 33 60 73 106 99c27 15 50 22 80 22zM304 348c-35 0 -95 -65 -141 -151c-2 -3 -5 -12 -4 -15c2 -6 9 -7 14 -7c69 15 160 88 160 142c0 10 -1 31 -29 31z" />
    <glyph glyph-name="m.end" horiz-adv-x="1089" 
d="M188 407c41 0 52 -20 43 -51c-3 -8 -34 -83 -46 -108c-5 -12 4 -15 16 -1c30 35 78 97 119 128c31 22 59 32 91 32c33 0 59 -29 59 -55c-1 -27 -10 -53 -28 -93c-5 -11 1 -13 8 -5c31 39 65 81 96 108c27 22 63 45 103 45c48 0 63 -39 63 -65c0 -18 -9 -52 -15 -63
c-16 -28 -69 -144 -91 -190c-8 -19 1 -35 12 -38c5 -1 42 -14 145 -14c125 0 225 32 225 89c0 19 -5 20 -27 27c-27 10 -38 31 -38 44c0 27 30 57 56 57c36 0 60 -48 60 -91c0 -60 -41 -106 -87 -131c-53 -28 -112 -47 -283 -47c-108 0 -161 4 -179 22c-7 8 -13 16 -7 30
c5 14 113 236 127 266c18 36 8 56 -9 56c-33 0 -80 -58 -132 -135c-49 -73 -93 -152 -121 -200c-15 -24 -55 -40 -67 -40c-10 0 -26 8 -30 19c0 3 -1 13 5 26c28 75 121 280 123 296c5 21 -2 34 -16 34c-33 0 -89 -55 -172 -193c-45 -75 -81 -129 -98 -151
c-14 -19 -24 -31 -34 -31c-24 0 -42 19 -43 29c0 10 4 29 9 39c25 53 75 176 117 269c6 14 7 25 -9 25c-17 0 -48 -24 -76 -50c-7 -6 -12 -10 -17 -10s-10 9 -6 24c11 41 59 97 154 97z" />
    <glyph glyph-name="n.end" horiz-adv-x="853" 
d="M191 407c29 0 47 -27 33 -59l-52 -122c-7 -17 2 -23 11 -8c28 43 88 117 119 142c44 35 79 47 102 47c43 0 68 -32 68 -63c0 -18 -4 -37 -15 -65c-22 -59 -77 -180 -86 -196c-8 -19 1 -33 12 -34c5 -2 39 -12 156 -12c127 0 212 29 212 87c0 19 -4 21 -27 28
c-27 10 -37 30 -37 44c0 27 29 56 56 56c35 0 60 -47 60 -90c0 -64 -50 -113 -97 -137c-51 -26 -96 -40 -267 -40c-109 0 -166 3 -184 21c-9 8 -13 23 -7 37c9 17 118 237 129 269s2 43 -16 43c-24 0 -64 -36 -102 -90c-45 -63 -108 -174 -139 -221c-27 -43 -43 -61 -54 -61
c-27 0 -48 25 -48 40c-1 20 20 62 24 71c28 63 70 152 100 227c5 12 2 16 -5 16c-29 0 -56 -27 -78 -48c-5 -5 -8 -7 -14 -7c-3 0 -7 8 -7 12c0 43 62 113 153 113z" />
    <glyph glyph-name="r.end" horiz-adv-x="573" 
d="M148 407c33 0 57 -19 57 -51c0 -21 -14 -70 -22 -94c-5 -13 3 -17 14 -1c47 71 106 152 183 152c33 0 65 -20 95 -36c32 -19 58 -29 72 -29c19 0 30 6 30 26c0 9 -3 26 -11 40c-6 9 -2 16 3 23c6 8 32 22 41 22c17 0 25 -20 25 -42c0 -26 -19 -62 -47 -85
c-27 -24 -63 -50 -92 -50c-21 0 -49 8 -93 31c-34 18 -58 25 -72 25c-42 0 -64 -27 -91 -67c-40 -59 -116 -221 -131 -251c-15 -26 -36 -36 -58 -36c-10 0 -22 6 -28 17c-3 5 -2 17 0 21c21 57 60 162 93 262c9 29 -1 39 -12 39c-10 0 -34 -12 -53 -36
c-7 -10 -15 -14 -19 -14c-8 0 -12 12 -6 29c25 68 77 105 122 105z" />
    <glyph glyph-name="longs" unicode="&#x17f;" horiz-adv-x="238" 
d="M408 705c46 0 76 -22 75 -56c0 -24 -26 -54 -51 -54c-7 0 -15 6 -21 17c-15 27 -33 46 -57 46c-43 0 -76 -42 -131 -233c-32 -116 -72 -286 -102 -414c-28 -122 -62 -180 -124 -220c-51 -35 -105 -63 -148 -63c-32 0 -81 21 -81 53c0 13 19 41 40 51c10 4 23 3 26 1
c28 -27 53 -48 85 -48c36 0 55 32 92 199c21 94 65 272 103 397c53 172 114 240 175 280c31 22 82 44 119 44z" />
    <glyph glyph-name="t.end" horiz-adv-x="574" 
d="M669 476c0 -55 -48 -89 -81 -104c-19 -10 -70 -22 -119 -23c-51 -1 -168 0 -220 0c-7 0 -13 -7 -15 -12c-19 -42 -48 -120 -85 -228c-6 -18 -4 -29 5 -29c20 0 63 26 85 48c17 17 31 19 31 8c0 -8 -3 -14 -11 -27c-38 -55 -145 -122 -201 -122c-15 0 -35 23 -36 40
c0 5 1 13 5 25c4 10 69 176 112 289c3 7 1 14 -3 14c-12 0 -28 2 -45 2c-13 1 -21 9 -21 17c0 10 17 18 25 18c21 0 41 3 53 3c10 0 17 10 21 18c19 33 29 55 45 75c11 14 34 27 59 27c5 0 18 -3 11 -28c-3 -12 -21 -65 -25 -80c-2 -8 2 -11 8 -11c10 0 144 -4 193 -4
c123 0 150 7 150 46c0 11 -10 26 -19 35c-5 5 -10 13 -10 17c1 19 30 42 49 42c22 0 39 -30 39 -56z" />
    <glyph glyph-name="t.endalt" horiz-adv-x="650" 
d="M601 164c0 -60 -43 -110 -90 -136c-51 -28 -107 -45 -277 -45c-56 0 -125 6 -151 16c-47 17 -55 50 -36 101l92 242c5 10 1 13 -4 13c-20 0 -29 1 -45 1c-14 0 -17 5 -17 11c0 9 11 24 19 24c19 1 42 2 59 4c5 0 12 7 14 11c15 30 36 65 49 81c14 16 38 26 61 26
c6 0 13 -8 7 -29c-3 -12 -20 -67 -23 -78c-2 -8 0 -11 6 -11c20 0 62 -2 89 -2c11 -1 10 -6 10 -11c0 -9 -10 -21 -21 -23c-12 -1 -69 -4 -87 -4c-8 0 -14 -1 -18 -8c-17 -36 -36 -82 -82 -216c-15 -42 -10 -67 11 -77c39 -19 114 -21 143 -21c128 0 241 18 241 88
c0 19 -5 22 -28 30c-25 9 -32 28 -32 42c0 22 28 56 56 56c36 0 54 -42 54 -85z" />
    <glyph glyph-name="u.end" horiz-adv-x="848" 
d="M798 170c0 -68 -47 -111 -92 -136c-51 -29 -95 -44 -266 -44c-22 0 -73 1 -105 3c-29 2 -53 2 -72 -1c-9 -2 -19 6 -14 23c7 21 48 112 57 137c2 9 -5 13 -13 4c-57 -70 -120 -120 -163 -148c-22 -14 -58 -24 -69 -24c-17 0 -28 5 -35 14c-6 7 -10 29 -2 50
c8 23 61 152 102 249c8 20 6 25 1 25c-9 0 -52 -28 -64 -36c-10 -7 -24 -9 -24 -2c0 5 4 13 8 19c15 29 114 104 170 104c19 0 32 -31 23 -51c-25 -51 -89 -216 -99 -247c-9 -26 2 -38 11 -38c34 0 103 72 155 160c34 56 68 119 82 146c7 11 20 30 36 30c25 0 47 -20 47 -30
c0 -8 -2 -21 -10 -39c-29 -68 -81 -194 -102 -263c-4 -13 0 -22 7 -23c4 -2 57 -10 170 -10c128 0 209 28 209 85c0 19 -7 23 -28 30c-26 11 -35 29 -35 44c0 27 29 56 55 56c36 0 60 -44 60 -87z" />
    <glyph glyph-name="v.alt" horiz-adv-x="475" 
d="M170 -12c-38 0 -87 27 -86 89c1 33 15 63 41 103c29 47 58 85 88 130c4 6 1 9 -4 10c-34 6 -62 8 -97 8c-22 0 -34 -1 -36 -26c-2 -23 19 -48 19 -60c0 -11 -35 -35 -54 -35c-10 0 -23 19 -23 40c1 47 38 88 65 111c20 20 61 41 86 41c40 0 65 -1 86 -3c7 -1 18 2 28 8
c5 4 17 -7 14 -16c-4 -11 -38 -58 -56 -88c-25 -39 -58 -112 -57 -166c1 -39 24 -61 60 -61c26 0 66 14 94 51c38 46 59 97 61 148c1 36 -13 51 -26 69c-4 6 -3 18 2 27c13 24 50 48 65 48c20 0 31 -26 30 -59c-5 -134 -112 -285 -195 -336c-30 -20 -61 -33 -105 -33z" />
    <glyph glyph-name="v.begin" horiz-adv-x="613" 
d="M314 -12c-35 0 -90 20 -95 88c-1 33 11 64 38 104c29 45 60 87 94 135c5 7 0 10 -3 10c-20 -1 -40 0 -61 0c-29 0 -124 2 -142 2c-32 0 -61 -7 -61 -32c-1 -29 31 -57 35 -76c2 -13 -34 -38 -63 -38c-11 0 -31 17 -30 57c1 51 42 95 73 120c21 20 69 40 92 40
c59 0 150 -4 192 -4c9 0 30 1 39 3c5 4 13 -5 10 -14c-5 -11 -38 -56 -55 -85c-32 -53 -55 -112 -56 -161c-1 -39 24 -68 64 -68c30 0 68 19 94 53c36 43 59 101 61 153c1 29 -19 60 -26 72c-4 6 -3 12 1 21c12 20 54 48 69 48c13 0 28 -16 27 -57
c-5 -133 -103 -278 -188 -335c-31 -22 -67 -36 -109 -36z" />
    <glyph glyph-name="w.alt" horiz-adv-x="677" 
d="M644 416c14 0 27 -19 26 -55c-5 -145 -113 -290 -193 -342c-31 -20 -55 -31 -88 -31c-29 0 -73 15 -72 95c2 7 -2 6 -7 3c-37 -45 -96 -98 -151 -98c-36 0 -78 23 -76 86c1 33 13 62 34 97c26 45 59 92 92 138c4 6 1 11 -2 12c-26 6 -58 10 -93 10c-20 0 -39 -6 -38 -31
c-1 -22 21 -53 21 -58c1 -6 -37 -35 -59 -35c-11 0 -23 14 -23 33c1 53 40 94 69 119c20 20 58 40 83 40c40 0 46 0 84 -4c9 -1 21 1 32 8c6 4 16 -6 12 -15c-5 -11 -39 -57 -56 -88c-34 -62 -56 -114 -58 -167c-1 -35 16 -58 44 -58s59 21 84 57c13 19 19 32 23 50l28 101
c7 25 17 49 29 63c14 15 35 36 69 36c26 0 29 -35 18 -71c-9 -31 -33 -79 -64 -137c-4 -9 -9 -24 -10 -32c-6 -52 19 -70 50 -70c24 0 57 11 84 45c33 41 61 100 62 154c1 31 -14 53 -25 70c-3 6 -3 17 2 26c14 21 49 49 69 49z" />
    <glyph glyph-name="a_s" horiz-adv-x="772" 
d="M778 359c0 -16 -46 -50 -122 -107c-2 -1 -5 -6 -3 -9c35 -45 63 -86 63 -121c1 -52 -59 -94 -85 -108c-24 -13 -67 -31 -93 -31c-41 0 -75 23 -75 44c0 18 18 43 33 54c3 2 15 4 18 0c18 -18 48 -50 83 -50c14 0 36 10 36 35c-1 26 -22 62 -57 106c-1 2 -4 3 -6 2
c-78 -63 -220 -191 -304 -191c-29 0 -38 19 -36 40c2 16 15 48 36 98c4 11 -1 18 -8 11c-78 -89 -162 -147 -211 -147c-22 0 -55 19 -55 44c0 22 11 54 40 102c56 96 169 211 234 250c18 11 29 14 35 14c3 0 29 -7 44 -22c2 -2 9 3 10 5l15 29c3 4 14 9 19 9
c16 0 37 -7 54 -17c3 -2 5 -13 1 -21c-28 -57 -83 -205 -109 -285c-5 -16 -5 -28 10 -28c24 0 106 42 212 131c3 2 2 6 1 10c-4 11 -9 27 -9 39c0 39 19 77 55 110c48 43 91 53 113 53c41 0 61 -25 61 -49zM284 329c-40 0 -76 -21 -104 -58c-33 -42 -70 -120 -70 -172
c0 -25 10 -34 21 -34c15 0 45 20 84 64c33 35 79 106 101 157c6 12 5 23 2 24c-8 9 -26 19 -34 19zM706 334c0 19 -16 32 -34 32c-23 0 -48 -16 -48 -61c0 -7 5 -24 12 -35c1 -2 3 -3 6 -1c36 25 65 54 64 65z" />
    <glyph glyph-name="a_t" horiz-adv-x="815" 
d="M300 395c3 0 32 -7 46 -21c2 -2 9 0 10 4l15 27c4 6 14 10 19 10c16 0 36 -6 53 -16c2 -2 4 -14 1 -22c-12 -34 -77 -196 -103 -275c-7 -22 3 -28 8 -28c37 0 178 129 288 287c-24 1 -59 0 -69 0c-7 0 -12 11 -12 17c1 5 11 18 21 18c3 0 73 1 77 1c6 0 9 1 17 10
c37 43 85 117 91 117c16 0 30 -13 30 -24c1 -9 -8 -35 -29 -95c-1 -3 2 -7 4 -7c23 0 54 0 81 -1c8 -1 11 -4 11 -12c0 -11 -10 -24 -22 -24c-16 0 -54 -1 -75 -1c-9 0 -14 -2 -17 -8c-18 -38 -49 -113 -96 -251c-3 -10 2 -22 10 -22c17 0 65 32 91 56c10 10 23 10 23 3
c0 -8 -2 -15 -10 -29c-45 -60 -150 -122 -200 -122c-15 0 -38 22 -38 39c0 5 1 16 5 27c13 33 59 149 90 218c6 14 -7 13 -11 6c-25 -31 -145 -168 -223 -231c-63 -52 -94 -63 -117 -63c-18 0 -36 17 -36 42c0 10 21 66 33 97c4 10 -2 16 -9 9c-78 -89 -161 -147 -211 -147
c-19 0 -53 17 -53 45c0 23 10 55 38 104c61 105 169 210 234 248c19 10 29 14 35 14zM285 329c-43 0 -78 -21 -105 -58c-33 -42 -71 -122 -71 -174c0 -25 11 -34 21 -34c15 0 46 20 85 64c34 35 78 108 100 159c6 12 6 21 3 24c-8 9 -25 19 -33 19z" />
    <glyph glyph-name="c_h" horiz-adv-x="813" 
d="M291 408c18 0 35 -4 46 -10c8 -3 18 -12 18 -23c0 -37 -30 -68 -43 -68c-4 0 -13 3 -18 11c-15 31 -25 57 -50 57c-15 0 -36 -17 -62 -69c-27 -50 -50 -124 -50 -178c0 -64 27 -70 45 -70c27 0 62 12 103 51c8 8 19 7 19 0c0 -8 -7 -24 -13 -32
c-45 -55 -102 -88 -167 -88c-70 0 -92 67 -92 109c0 41 18 111 43 155c36 67 76 112 138 138c24 11 70 17 83 17zM780 337c0 -101 -61 -226 -98 -270c-21 -26 -67 -50 -87 -63c-16 -11 -46 -24 -59 -24c-15 0 -27 1 -35 9c-10 10 -11 16 -11 26c0 7 23 35 29 41c2 3 5 3 8 2
c16 -10 37 -23 52 -23c7 0 10 3 16 14c36 60 76 205 76 257c0 26 -8 43 -24 43c-27 0 -56 -24 -124 -116c-39 -53 -105 -169 -131 -217c-10 -20 -30 -29 -37 -29c-27 0 -44 29 -42 39c29 104 129 412 178 571c8 30 8 44 -27 52c-15 4 -22 11 -22 15c0 5 9 14 21 18
c31 8 132 24 152 24c6 0 11 -14 8 -23c-49 -152 -144 -417 -148 -435c-3 -7 6 -7 9 -4c46 58 94 100 131 127c39 28 73 36 100 36c50 0 65 -51 65 -70z" />
    <glyph glyph-name="c_k" horiz-adv-x="767" 
d="M291 408c18 0 35 -4 46 -10c8 -3 18 -12 18 -23c0 -37 -30 -68 -43 -68c-4 0 -13 3 -18 11c-15 31 -25 57 -50 57c-15 0 -36 -17 -62 -69c-27 -50 -50 -124 -50 -178c0 -64 27 -70 45 -70c27 0 62 12 103 51c8 8 19 7 19 0c0 -8 -7 -24 -13 -32
c-45 -55 -102 -88 -167 -88c-70 0 -92 67 -92 109c0 41 18 111 43 155c36 67 76 112 138 138c24 11 70 17 83 17zM702 407c36 0 57 -21 57 -42s-23 -72 -74 -107c-32 -22 -74 -40 -99 -50c-4 -1 -7 -7 -6 -11c4 -21 16 -71 30 -101c12 -28 19 -33 31 -33c15 0 42 14 69 46
c8 10 14 15 17 15c10 0 8 -24 -5 -43c-39 -55 -96 -97 -126 -97c-25 0 -51 29 -65 64c-12 32 -21 58 -33 95c-8 22 -18 35 -29 35c-9 0 -16 -11 -24 -28c-20 -49 -54 -122 -67 -150c-5 -8 -21 -13 -28 -13c-25 0 -45 21 -45 32c0 4 2 14 8 29c7 18 125 373 186 558
c7 22 6 29 -24 41c-10 4 -17 10 -17 12c0 7 6 12 15 17c15 8 123 27 146 27c8 0 9 -19 6 -31c-6 -18 -96 -247 -148 -396c-4 -11 6 -16 11 -8c34 50 77 92 127 118c30 15 51 21 87 21zM630 351c-9 0 -32 -7 -49 -18c-34 -21 -69 -71 -88 -113c-3 -9 2 -15 10 -15
c63 2 157 66 157 126c0 11 -5 20 -30 20z" />
    <glyph glyph-name="c_t" horiz-adv-x="659" 
d="M401 614c23 0 44 -4 74 -10c32 -6 76 -13 94 -13c13 0 14 -1 22 9c27 35 37 52 73 52c29 0 35 -24 35 -38s-13 -36 -28 -48c-6 -6 -15 -12 -19 -20c-11 -20 -36 -97 -52 -140c-2 -7 -1 -11 6 -11c21 0 60 -2 87 -2c9 0 8 -6 8 -10c0 -9 -11 -22 -22 -24
c-13 -2 -64 -4 -83 -4c-7 0 -10 -1 -14 -8c-18 -37 -56 -140 -93 -245c-3 -10 1 -23 9 -23c18 0 68 32 93 57c8 7 23 10 23 3c0 -8 -2 -17 -11 -30c-44 -61 -150 -122 -200 -122c-15 0 -36 23 -37 40c0 5 2 15 6 27l111 289c4 9 1 11 -4 11c-17 0 -27 2 -45 3
c-14 0 -18 3 -18 9c0 11 12 24 21 25l56 4c5 0 9 3 12 8c24 52 48 112 61 143c3 7 -2 7 -5 6c-15 -2 -50 -1 -97 3c-38 3 -41 4 -66 4c-83 0 -94 -61 -89 -138c0 -6 3 -8 11 -10c28 -10 43 -24 43 -41c0 -30 -38 -56 -53 -56c-7 0 -15 6 -21 14c-11 19 -22 42 -40 42
c-43 0 -117 -122 -117 -240c0 -53 21 -74 48 -74c31 0 74 23 111 62c6 7 16 8 16 -7c0 -8 -8 -24 -13 -30c-35 -49 -102 -95 -172 -95c-57 0 -93 49 -93 117c0 83 45 167 90 216c46 49 103 78 154 90c3 1 8 5 7 9c-4 14 -11 39 -11 69c0 67 30 127 132 127z" />
    <glyph glyph-name="e_t" horiz-adv-x="741" 
d="M380 340c0 -44 -45 -80 -88 -103c-36 -19 -103 -41 -135 -49c-5 -2 -9 -8 -12 -12c-8 -19 -13 -44 -13 -66c0 -39 28 -56 61 -56c78 0 215 102 356 301c-23 0 -73 -1 -77 -1s-15 11 -15 16c0 6 11 19 20 19c4 0 87 5 91 5s11 2 18 12c37 53 76 116 87 116
c19 0 36 -17 36 -29c1 -9 -6 -29 -27 -84c-1 -4 -1 -12 4 -12c19 1 65 1 92 1c4 0 6 -9 6 -13c0 -10 -9 -21 -21 -22l-89 -4c-4 0 -13 -9 -15 -14c-15 -33 -46 -107 -93 -244c-4 -10 2 -22 11 -22c17 0 65 32 90 57c8 7 23 10 23 2s-1 -15 -10 -28
c-45 -61 -149 -123 -199 -123c-15 0 -38 22 -39 39c0 5 3 16 7 27c13 33 62 153 93 222c5 12 -8 12 -10 6c-89 -125 -248 -295 -400 -295c-35 0 -107 24 -107 116c0 82 49 166 103 222c52 52 122 83 167 83c64 0 85 -35 85 -67zM307 355c0 13 -10 22 -22 22
c-51 0 -104 -90 -124 -147c-2 -4 -1 -10 3 -9c92 30 143 91 143 134z" />
    <glyph glyph-name="f_t.alt" horiz-adv-x="556" 
d="M431 681c93 0 127 -48 127 -78c0 -15 -51 -161 -59 -190c-2 -8 0 -14 4 -14c27 1 60 3 89 3c4 0 7 -4 7 -11c0 -6 -12 -24 -21 -25c-25 -2 -68 -4 -88 -5c-5 0 -9 -2 -13 -9c-17 -36 -51 -145 -88 -250c-3 -10 1 -23 9 -23c18 0 67 32 92 57c8 6 22 11 22 2
c0 -8 -1 -16 -10 -29c-45 -61 -150 -122 -200 -122c-15 0 -36 22 -37 39c0 5 2 15 6 27c4 10 65 186 108 296c1 5 -1 11 -6 11c-38 -2 -106 -3 -142 -5c-2 0 -7 -3 -8 -6c-27 -95 -82 -283 -102 -358c-28 -100 -68 -159 -124 -205c-26 -21 -92 -58 -133 -58
c-60 0 -79 32 -79 48c1 18 11 41 32 55c9 6 24 7 27 4c25 -25 58 -56 79 -56c26 0 39 27 56 77c23 68 97 323 142 484c2 7 -1 11 -5 11l-64 -2c-9 0 -11 3 -11 7c1 12 14 29 23 30c14 2 48 5 62 6c5 0 9 3 11 8c34 89 77 188 176 246c27 15 73 35 118 35zM398 647
c-32 0 -65 -24 -94 -77c-23 -42 -46 -102 -66 -170c-1 -3 2 -6 7 -6l141 5c6 0 10 5 12 11c15 39 50 138 63 173c3 12 3 24 -2 31c-15 27 -42 33 -61 33z" />
    <glyph glyph-name="i_s" horiz-adv-x="569" 
d="M234 614c33 0 47 -28 47 -55c1 -31 -28 -64 -61 -64c-28 0 -47 24 -47 53c0 42 33 66 61 66zM18 39c35 88 65 154 108 262c4 11 1 19 -9 17c-16 -4 -44 -18 -65 -33c-5 -4 -13 2 -13 7c0 8 4 14 12 23c21 25 114 90 168 90c14 0 25 -20 25 -29s-7 -26 -11 -35
c-47 -114 -67 -173 -99 -247c-6 -17 -4 -27 10 -27c23 0 105 41 211 130c2 1 2 5 1 9c-4 12 -10 27 -10 39c0 40 20 78 56 110c48 43 90 53 112 53c39 0 60 -26 60 -49c0 -17 -46 -50 -121 -107c-2 -1 -4 -6 -3 -9c35 -45 63 -86 64 -121c0 -52 -60 -94 -86 -108
c-24 -13 -67 -31 -93 -31c-41 0 -74 23 -75 44c0 18 18 43 33 54c3 2 15 4 19 0c18 -18 48 -50 83 -50c14 0 35 10 35 35c-1 26 -22 62 -56 106c-2 3 -5 3 -6 2c-78 -63 -232 -191 -316 -191c-30 0 -47 24 -34 56zM504 333c0 20 -17 34 -35 34c-23 0 -48 -17 -48 -62
c0 -7 5 -24 12 -35c1 -2 3 -3 6 -1c36 25 65 54 65 64z" />
    <glyph glyph-name="i_j" horiz-adv-x="551" 
d="M218 406c14 0 25 -21 25 -30s-5 -26 -9 -35c-48 -113 -71 -179 -104 -257c-4 -11 3 -17 10 -15c33 8 165 124 290 285c24 31 55 53 89 53c17 0 23 -13 11 -58c-17 -63 -116 -362 -150 -439c-37 -86 -100 -132 -151 -159c-27 -14 -60 -23 -77 -23c-46 0 -61 25 -61 39
c0 15 21 44 31 51c12 7 21 7 29 2c20 -14 42 -45 64 -45c17 0 37 36 49 64c38 90 126 370 137 411c5 17 -8 6 -11 2c-73 -90 -180 -182 -251 -229c-38 -26 -75 -39 -94 -39c-15 0 -34 11 -34 28c0 6 2 15 6 24c36 89 67 157 109 265c4 12 1 19 -8 17c-17 -4 -45 -18 -65 -32
c-6 -4 -13 2 -13 6c0 7 4 14 11 23c18 22 113 91 167 91zM234 614c33 0 47 -26 47 -53c0 -30 -28 -66 -62 -66c-27 0 -46 25 -46 54c0 35 34 65 61 65zM521 619c37 0 48 -27 48 -55c1 -36 -31 -67 -60 -67c-26 0 -47 21 -47 51c0 37 29 71 59 71z" />
    <glyph glyph-name="l_l" horiz-adv-x="510" 
d="M399 665c0 5 11 12 23 14c11 2 94 11 121 20c14 5 21 6 31 6c9 0 10 -18 5 -31c-69 -182 -198 -547 -216 -603c-9 -24 -4 -33 6 -33c20 0 79 58 110 92c6 6 12 0 12 -5c0 -6 -5 -24 -8 -30c-35 -67 -114 -111 -173 -111c-29 0 -52 24 -52 44c0 10 16 56 29 91
c4 11 -2 12 -7 7c-29 -34 -158 -142 -220 -142c-23 0 -49 15 -49 44c0 9 9 39 29 97c40 114 104 290 163 459c14 39 4 47 -20 54c-15 4 -26 12 -27 19c0 5 11 11 23 13c11 2 89 10 116 19c13 5 20 6 30 6c9 0 11 -15 5 -31c-69 -182 -189 -523 -209 -580
c-8 -25 -2 -33 8 -33c29 0 102 58 170 148c20 26 28 44 41 78c39 106 84 230 112 320c12 39 0 46 -26 51c-17 4 -26 9 -27 17z" />
    </font>
</defs>
</svg>
