<?xml version="1.0" standalone="no"?>
<!DOCTYPE svg PUBLIC "-//W3C//DTD SVG 1.1//EN" "http://www.w3.org/Graphics/SVG/1.1/DTD/svg11.dtd" >
<svg xmlns="http://www.w3.org/2000/svg" xmlns:xlink="http://www.w3.org/1999/xlink" version="1.1">
<metadata>
Created by FontForge 20150913 at Tue Apr  5 14:03:58 2016
 By Jimmy Wärting
Copyright 2005, 2007 Adobe Systems Incorporated. All rights reserved.
</metadata>
<defs>
<font id="GaramondPremrPro-LtDisp" horiz-adv-x="527" >
  <font-face 
    font-family="Garamond Premiere Pro"
    font-weight="300"
    font-stretch="normal"
    units-per-em="1000"
    panose-1="2 2 3 2 6 5 6 2 4 3"
    ascent="725"
    descent="-275"
    x-height="360"
    cap-height="635"
    bbox="-143.897 -308.696 1379 849"
    underline-thickness="50"
    underline-position="-100"
    stemh="33"
    stemv="52"
    unicode-range="U+0020-FB06"
  />
<missing-glyph horiz-adv-x="500" 
d="M0 0v700h500v-700h-500zM250 395l170 255h-340zM280 350l170 -255v510zM80 50h340l-170 255zM50 605v-510l170 255z" />
    <glyph glyph-name="T_h" unicode="Th" horiz-adv-x="926" 
d="M297 631h209c51 0 73 4 85 10c6 3 11 7 16 18c2 4 6 11 10 11c3 0 5 -4 4 -16c-5 -42 -6 -82 -6 -94c-1 -34 -4 -229 -4 -250c0 -4 3 -4 4 -3c11 11 41 33 63 44c18 9 44 18 73 18c28 0 64 -11 88 -46c9 -12 21 -42 22 -108c1 -78 -1 -141 1 -174c1 -21 5 -25 36 -30
c11 -2 16 -6 16 -9c0 -4 -6 -7 -16 -7c-24 0 -46 5 -68 5c-28 0 -39 -4 -58 -4c-12 0 -17 3 -17 6c0 4 6 6 16 8c25 4 29 11 32 38c2 23 6 64 6 177c0 25 -4 52 -16 73s-36 38 -73 38c-48 0 -82 -23 -100 -42c-5 -5 -10 -17 -10 -42c0 -172 4 -197 5 -207
c4 -18 11 -29 32 -33c17 -3 24 -5 24 -10c0 -3 -6 -6 -14 -6c-27 0 -48 4 -81 4c-26 0 -42 -4 -59 -4c-11 0 -15 2 -15 6c0 3 4 5 16 8c29 7 37 9 39 49c3 42 4 133 4 302c0 151 -1 169 -1 211c0 9 -3 31 -12 32c-27 2 -209 5 -226 3c-5 -1 -6 -8 -6 -14
c0 -36 0 -255 -1 -299c-1 -63 3 -199 6 -230c4 -37 14 -43 47 -53c12 -3 17 -5 17 -10c0 -6 -7 -7 -20 -7c-24 0 -48 6 -84 6c-44 0 -74 -6 -90 -6c-13 0 -18 4 -18 9c0 4 10 7 21 9c47 6 53 23 56 69c7 95 7 490 5 505c-2 16 -3 20 -7 21c-6 1 -42 3 -88 3
c-45 0 -73 -4 -96 -7c-18 -3 -24 -12 -40 -53c-4 -10 -10 -16 -13 -16c-4 0 -4 9 -3 15c6 34 10 83 10 89c0 9 0 13 4 15c2 1 6 -1 8 -4c4 -5 14 -12 44 -15c17 -2 120 -3 223 -3z" />
    <glyph glyph-name="f_b" unicode="fb" horiz-adv-x="678" 
d="M72 68v242c0 6 0 11 -4 12c-6 0 -16 0 -29 1c-9 1 -14 7 -14 9s5 5 12 9s15 8 24 14c8 5 11 11 11 15c0 69 5 127 16 164c19 61 51 105 95 134c33 23 66 30 88 30c23 0 40 -5 56 -14c3 -1 6 -1 11 1l14 6c9 4 13 4 14 4c2 0 4 -4 3 -20c-3 -59 -5 -187 -5 -338
c0 -4 3 -10 4 -9c23 14 60 38 114 38c50 0 95 -28 118 -55c30 -33 44 -78 44 -119c0 -59 -17 -99 -49 -133c-38 -41 -98 -70 -149 -70c-33 0 -78 9 -111 25c-9 4 -14 2 -27 -2c-5 -2 -7 1 -6 7c1 21 3 42 5 91c2 47 7 288 7 327c0 68 -2 160 -3 174c-1 25 -7 40 -32 53
c-13 5 -24 9 -43 9c-56 0 -96 -48 -108 -170c-3 -32 -4 -85 -4 -116c0 -7 0 -17 1 -23c1 -7 5 -7 15 -7c9 0 94 2 105 2c5 0 8 -6 8 -16c0 -16 -2 -18 -15 -18c-14 0 -94 2 -108 2c-3 0 -5 -8 -5 -9c0 -42 1 -221 3 -249c3 -37 10 -47 20 -50c8 -3 20 -3 34 -6
c12 -2 19 -5 19 -9c0 -5 -7 -7 -16 -7c-26 0 -41 3 -85 3c-23 0 -46 -3 -62 -4c-10 0 -15 2 -15 6s7 7 20 10c24 5 29 20 29 56zM591 172c0 39 -15 82 -41 113c-21 24 -63 52 -110 52c-35 0 -58 -11 -67 -19c-4 -4 -11 -17 -11 -29c-1 -15 -1 -90 -1 -129
c0 -38 5 -77 14 -94c10 -19 15 -27 29 -37c19 -13 48 -19 72 -19c60 0 115 61 115 162z" />
    <glyph glyph-name="f_f" unicode="ff" horiz-adv-x="470" 
d="M296 328h-166c-4 0 -5 -8 -5 -9c0 -42 1 -225 2 -253c1 -42 6 -48 39 -55c12 -2 17 -6 17 -9c0 -5 -6 -7 -15 -7c-15 0 -48 5 -68 5c-23 0 -45 -3 -61 -4c-10 0 -16 2 -16 6s3 6 16 9c28 6 33 21 33 57v246c0 7 -2 9 -7 10s-17 1 -27 1c-9 0 -12 3 -12 7c0 3 3 5 10 9
c6 3 14 8 25 13c8 5 11 9 11 15c0 47 6 102 17 139c17 56 52 110 102 141c31 19 61 27 94 27s63 -11 86 -37c2 -2 6 0 7 1c40 41 87 58 126 58c46 0 71 -24 71 -35c0 -8 -11 -17 -21 -23c-8 -5 -12 -3 -19 3c-12 10 -40 25 -73 25c-61 0 -93 -48 -103 -166
c-3 -32 -4 -73 -4 -96c0 -25 0 -34 1 -40c1 -4 2 -9 9 -9c8 0 97 2 107 2s12 -6 12 -16c0 -16 -1 -18 -15 -18c-13 0 -95 2 -107 2c-5 0 -6 -8 -6 -9c0 -42 2 -221 3 -249c2 -41 10 -47 20 -50c8 -3 20 -3 34 -6c12 -2 19 -5 19 -9c0 -5 -7 -7 -16 -7c-26 0 -41 3 -85 3
c-23 0 -46 -3 -62 -4c-10 0 -15 2 -15 6s7 7 20 10c24 5 29 20 29 56v246c0 8 -2 14 -7 14zM248 650c-67 0 -108 -49 -120 -173c-3 -32 -4 -80 -4 -89c0 -7 0 -17 1 -23c1 -7 6 -7 19 -7h153c3 0 6 8 6 11c0 69 5 164 39 224c1 2 1 9 -1 11c-22 34 -58 46 -93 46z" />
    <glyph glyph-name="f_f_b" unicode="ffb" horiz-adv-x="909" 
d="M72 68v246c0 7 -2 9 -7 10s-17 1 -27 1c-9 0 -12 3 -12 7c0 3 3 5 10 9c6 3 14 8 25 13c8 5 11 9 11 15c0 47 5 102 17 139c16 53 53 110 101 140c31 19 57 28 90 28s67 -10 90 -36c1 -1 6 -2 8 0c40 41 75 58 123 58c23 0 41 -5 57 -14c3 -1 6 -3 11 0l14 7
c9 4 13 4 14 4c2 0 4 -4 3 -20c-3 -59 -5 -187 -5 -338c0 -4 3 -10 4 -9c23 14 60 38 114 38c50 0 95 -28 118 -55c30 -33 44 -78 44 -119c0 -59 -17 -99 -49 -133c-38 -41 -98 -70 -149 -70c-33 0 -78 9 -111 25c-9 4 -14 2 -27 -2c-5 -2 -7 1 -6 7c1 21 3 42 5 91
c2 47 7 288 7 327c0 68 -2 158 -3 172c-1 25 -7 40 -32 53c-13 7 -24 10 -43 10c-56 0 -96 -47 -108 -169c-3 -32 -4 -85 -4 -116c0 -7 0 -17 1 -23c1 -7 5 -7 15 -7c9 0 94 2 105 2c5 0 8 -6 8 -16c0 -16 -2 -18 -15 -18c-14 0 -93 2 -107 2c-5 0 -6 -8 -6 -9
c0 -42 2 -221 3 -249c2 -41 10 -47 20 -50c8 -3 20 -3 34 -6c12 -2 19 -5 19 -9c0 -5 -7 -7 -16 -7c-26 0 -41 3 -85 3c-23 0 -46 -3 -62 -4c-10 0 -15 2 -15 6s7 7 20 10c24 5 29 20 29 56v246c0 8 -2 14 -7 14h-166c-4 0 -5 -8 -5 -9c0 -42 1 -225 2 -253
c1 -42 6 -48 39 -55c12 -2 17 -6 17 -9c0 -5 -6 -7 -15 -7c-15 0 -48 5 -68 5c-23 0 -45 -3 -61 -4c-10 0 -16 2 -16 6s3 6 16 9c28 6 33 21 33 57zM822 172c0 39 -15 82 -41 113c-21 24 -63 52 -110 52c-35 0 -58 -11 -67 -19c-4 -4 -11 -17 -11 -29c-1 -15 -1 -90 -1 -129
c0 -38 5 -77 14 -94c10 -19 15 -27 29 -37c19 -13 48 -19 72 -19c60 0 115 61 115 162zM247 650c-62 0 -107 -49 -119 -173c-3 -32 -4 -80 -4 -89c0 -7 0 -17 1 -23c1 -7 6 -7 19 -7h153c3 0 6 8 6 11c0 55 3 128 22 185c5 14 10 27 17 39c2 3 1 9 -1 11
c-21 31 -49 46 -94 46z" />
    <glyph glyph-name="f_f_h" unicode="ffh" horiz-adv-x="914" 
d="M72 68v246c0 7 -2 9 -7 10s-17 1 -27 1c-9 0 -12 3 -12 7c0 3 3 5 10 9c6 3 14 8 25 13c8 5 11 9 11 15c0 47 5 102 17 139c16 53 53 110 101 140c31 19 57 28 90 28s67 -10 90 -36c1 -1 5 -2 7 0c40 41 81 58 124 58c23 0 41 -5 57 -14c3 -1 6 -3 11 0l13 7
c9 4 12 4 13 4c2 0 5 -4 4 -20c-1 -32 -3 -346 -3 -367c0 -2 3 -3 6 0c11 11 39 32 61 43c18 9 44 18 73 18c28 0 50 -9 63 -18c30 -21 46 -63 47 -124c1 -78 -1 -153 3 -186c2 -16 3 -25 34 -30c13 -3 16 -6 16 -9c0 -4 -6 -7 -16 -7c-24 0 -46 5 -68 5
c-28 0 -39 -4 -58 -4c-12 0 -17 3 -17 6c0 4 6 6 16 8c25 4 30 11 33 38c2 23 5 47 5 160c0 25 -3 66 -16 90c-13 21 -35 38 -73 38s-77 -19 -95 -38c-14 -14 -15 -25 -15 -46c0 -172 4 -201 5 -211c4 -18 11 -25 32 -29c17 -3 24 -5 24 -10c0 -3 -6 -6 -14 -6
c-27 0 -48 4 -81 4c-26 0 -42 -4 -59 -4c-11 0 -15 2 -15 6c0 3 4 5 16 8c29 7 37 14 39 54c3 42 4 128 4 297c0 151 -1 213 -2 254c-2 19 -13 36 -34 47c-13 7 -24 10 -43 10c-56 0 -96 -47 -108 -169c-3 -32 -4 -85 -4 -116c0 -7 0 -17 1 -23c1 -7 5 -7 15 -7
c9 0 94 2 105 2c5 0 8 -6 8 -16c0 -16 -2 -18 -15 -18c-14 0 -93 2 -107 2c-5 0 -6 -8 -6 -9c0 -42 2 -221 3 -249c2 -42 11 -49 43 -56c12 -3 19 -5 19 -9c0 -5 -7 -7 -16 -7c-26 0 -30 3 -74 3c-23 0 -46 -3 -62 -4c-10 0 -15 2 -15 6s7 7 20 10c24 5 29 20 29 56v246
c0 8 -2 14 -7 14h-166c-4 0 -5 -8 -5 -9c0 -42 1 -225 2 -253c1 -42 6 -48 39 -55c12 -2 17 -6 17 -9c0 -5 -6 -7 -15 -7c-15 0 -48 5 -68 5c-23 0 -45 -3 -61 -4c-10 0 -16 2 -16 6s3 6 16 9c28 6 33 21 33 57zM247 650c-62 0 -107 -49 -119 -173c-3 -32 -4 -80 -4 -89
c0 -7 0 -17 1 -23c1 -7 6 -7 19 -7h153c3 0 6 8 6 11c0 54 3 124 20 180c5 16 11 31 19 44c2 3 1 9 -1 11c-21 31 -49 46 -94 46z" />
    <glyph glyph-name="f_f_i" unicode="ffi" horiz-adv-x="655" 
d="M72 68v248c0 7 -2 9 -7 10s-17 1 -27 1c-9 0 -12 3 -12 7c0 3 3 4 10 8l25 12c8 5 11 9 11 15c0 47 5 102 17 139c16 53 54 110 102 140c31 19 60 28 96 28c34 0 70 -15 93 -41c1 -1 5 -2 7 0c40 41 93 63 136 63c48 0 73 -19 83 -32c8 -8 10 -17 10 -20
c0 -15 -19 -30 -27 -30c-5 0 -12 4 -20 15c-24 25 -47 39 -82 39c-96 0 -121 -115 -126 -198c-2 -32 -4 -69 -3 -101c1 -11 0 -13 8 -13c15 0 109 -1 152 1c45 3 59 11 64 15c3 2 5 4 7 4s3 -4 3 -13c0 -16 -2 -81 -2 -168c0 -89 1 -112 2 -145c1 -32 4 -38 29 -42
c11 -2 14 -5 14 -8s-5 -5 -11 -5c-16 0 -37 3 -67 3c-23 0 -43 -2 -52 -2s-19 0 -19 6c0 4 8 7 21 10c23 5 27 8 30 68c2 41 2 185 1 224c-1 21 -3 22 -31 24c-34 2 -123 1 -144 1c-2 0 -5 -10 -5 -20c0 -42 2 -214 3 -242c2 -46 9 -49 43 -56c12 -2 19 -5 19 -9
c0 -5 -7 -7 -16 -7c-26 0 -30 3 -74 3c-23 0 -46 -3 -62 -4c-10 0 -15 2 -15 6s7 7 20 10c24 5 29 20 29 56v249c0 8 -2 14 -7 14h-168c-4 0 -5 -8 -5 -9c0 -42 1 -228 2 -256c1 -42 6 -48 39 -55c12 -2 17 -6 17 -9c0 -5 -6 -7 -15 -7c-15 0 -48 5 -68 5
c-23 0 -45 -3 -61 -4c-10 0 -16 2 -16 6s3 6 16 9c28 6 33 21 33 57zM248 650c-62 0 -108 -49 -120 -173c-3 -32 -4 -80 -4 -89c0 -7 0 -17 1 -23c1 -7 6 -7 19 -7h155c3 0 6 8 6 11c0 69 12 160 46 220c2 3 1 9 -1 11c-21 31 -57 50 -102 50z" />
    <glyph glyph-name="f_f_j" unicode="ffj" horiz-adv-x="645" 
d="M72 68v248c0 7 -2 9 -7 10s-17 1 -27 1c-9 0 -12 3 -12 7c0 3 3 4 10 8l25 12c8 5 11 9 11 15c0 47 5 102 17 139c16 53 54 110 102 140c31 19 60 28 96 28c34 0 70 -15 93 -41c1 -1 5 -2 7 0c39 43 89 63 132 63c48 0 70 -16 80 -29c8 -8 10 -17 10 -20
c0 -15 -19 -30 -27 -30c-5 0 -12 4 -20 15c-24 25 -52 36 -79 36c-22 0 -46 -4 -70 -28c-35 -36 -49 -118 -52 -170l-3 -54c-1 -16 0 -32 0 -47c0 -5 1 -13 6 -13c15 0 105 -1 148 1c45 3 58 11 63 15c3 2 4 4 6 4s4 -4 4 -13c0 -90 -2 -203 -2 -282c0 -58 -4 -123 -5 -138
c-8 -124 -85 -209 -135 -236c-9 -6 -25 -8 -25 -2c0 3 4 6 11 10c64 33 95 125 98 197c2 40 6 101 5 163c-2 67 2 193 -5 237c-1 11 -1 14 -26 16c-34 2 -117 1 -138 1c-2 0 -5 -2 -5 -12c0 -42 2 -222 3 -250c2 -46 9 -49 43 -56c12 -2 19 -5 19 -9c0 -5 -7 -7 -16 -7
c-26 0 -30 3 -74 3c-23 0 -46 -3 -62 -4c-10 0 -15 2 -15 6s7 7 20 10c24 5 29 20 29 56v249c0 8 -2 14 -7 14h-168c-4 0 -5 -8 -5 -9c0 -42 1 -228 2 -256c1 -42 6 -48 39 -55c12 -2 17 -6 17 -9c0 -5 -6 -7 -15 -7c-15 0 -48 5 -68 5c-23 0 -45 -3 -61 -4
c-10 0 -16 2 -16 6s3 6 16 9c28 6 33 21 33 57zM248 650c-62 0 -108 -49 -120 -173c-3 -32 -4 -80 -4 -89c0 -7 0 -17 1 -23c1 -7 6 -7 19 -7h155c3 0 6 8 6 11c0 69 9 157 47 219c2 3 1 9 -1 11c-21 31 -58 51 -103 51z" />
    <glyph glyph-name="f_f_k" unicode="ffk" horiz-adv-x="886" 
d="M72 68v246c0 7 -2 9 -7 10s-17 1 -27 1c-9 0 -12 3 -12 7c0 3 3 5 10 9c6 3 14 8 25 13c8 5 11 9 11 15c0 47 5 102 17 139c16 53 53 110 101 140c31 19 57 28 90 28s67 -10 90 -36c1 -1 5 -2 7 0c40 41 81 58 124 58c23 0 41 -5 57 -14c3 -1 6 -3 11 0l14 7
c9 4 12 4 13 4c2 0 5 -4 4 -20c-1 -32 -5 -174 -5 -248c0 -30 -3 -75 -3 -211c0 -12 2 -17 5 -17c4 0 12 6 21 12c43 35 91 77 109 99c6 6 11 14 11 18c0 7 -7 12 -26 15c-8 1 -17 4 -17 8s7 7 15 7c18 0 44 -1 56 -1c16 0 59 5 81 5c11 0 14 -3 14 -6c0 -2 -2 -6 -14 -8
c-34 -6 -49 -10 -95 -44c-27 -20 -85 -70 -102 -86c-2 -1 0 -5 1 -6c27 -30 102 -104 152 -154c28 -27 43 -40 74 -47c8 -2 15 -5 15 -9c0 -7 -9 -7 -16 -7c-24 0 -66 5 -102 5c-16 0 -29 -1 -44 -1c-11 0 -19 0 -19 6c0 5 6 7 25 11c17 4 19 14 10 27
c-24 26 -102 105 -131 132c-8 6 -15 13 -19 13c-3 0 -4 -7 -4 -11c-1 -19 -2 -42 -2 -106c0 -48 6 -51 40 -59c11 -3 15 -5 15 -8c0 -5 -7 -7 -20 -7c-27 0 -44 3 -70 3c-29 0 -44 -3 -58 -3c-11 0 -16 3 -16 7c0 3 6 6 13 7c31 8 39 17 41 50c4 73 5 161 6 239
c1 93 3 227 3 315c-2 19 -13 36 -34 47c-13 7 -24 10 -43 10c-56 0 -96 -47 -108 -169c-3 -32 -4 -85 -4 -116c0 -7 0 -17 1 -23c1 -7 5 -7 15 -7c9 0 94 2 105 2c5 0 8 -6 8 -16c0 -16 -2 -18 -15 -18c-14 0 -93 2 -107 2c-5 0 -6 -8 -6 -9c0 -42 2 -221 3 -249
c2 -42 11 -49 43 -56c12 -3 19 -5 19 -9c0 -5 -7 -7 -16 -7c-26 0 -30 3 -74 3c-23 0 -46 -3 -62 -4c-10 0 -15 2 -15 6s7 7 20 10c24 5 29 20 29 56v246c0 8 -2 14 -7 14h-166c-4 0 -5 -8 -5 -9c0 -42 1 -225 2 -253c1 -42 6 -48 39 -55c12 -2 17 -6 17 -9
c0 -5 -6 -7 -15 -7c-15 0 -48 5 -68 5c-23 0 -45 -3 -61 -4c-10 0 -16 2 -16 6s3 6 16 9c28 6 33 21 33 57zM247 650c-62 0 -107 -49 -119 -173c-3 -32 -4 -80 -4 -89c0 -7 0 -17 1 -23c1 -7 6 -7 19 -7h153c3 0 6 8 6 11c0 54 3 124 20 180c5 16 11 31 19 44c2 3 1 9 -1 11
c-21 31 -49 46 -94 46z" />
    <glyph glyph-name="f_f_l" unicode="ffl" horiz-adv-x="656" 
d="M72 68v247c0 7 -2 9 -7 10s-17 1 -27 1c-9 0 -12 3 -12 7c0 3 3 5 10 9l25 12c8 5 11 9 11 15c0 47 6 102 17 139c18 58 52 110 102 141c31 19 61 27 94 27c29 0 62 -10 87 -36c2 -2 5 0 6 1c40 41 84 57 123 57c25 0 40 -7 50 -11c8 -3 12 -5 15 -5c4 0 10 5 13 10
c6 6 8 9 10 9c4 0 5 -4 5 -17c0 -7 -5 -183 -5 -323v-118c0 -132 0 -168 1 -186c1 -36 11 -41 37 -45c6 -1 14 -4 14 -7c0 -4 -6 -7 -21 -7c-10 0 -44 2 -62 2c-26 0 -52 -2 -62 -2c-13 0 -17 1 -17 6c0 4 4 5 19 9c25 5 33 11 37 55c2 28 3 142 4 252c0 3 -1 8 -4 8
c-36 0 -163 1 -173 1c-5 0 -6 -8 -6 -9c0 -42 2 -223 3 -251c3 -62 16 -48 54 -56c12 -2 19 -5 19 -9c0 -5 -7 -7 -16 -7c-26 0 -41 3 -85 3c-23 0 -46 -3 -62 -4c-10 0 -15 2 -15 6s7 7 20 10c24 5 29 20 29 56v247c0 8 -2 14 -7 14h-166c-4 0 -5 -8 -5 -9
c0 -42 1 -226 2 -254c1 -42 6 -48 39 -55c12 -2 17 -6 17 -9c0 -5 -6 -7 -15 -7c-15 0 -48 5 -68 5c-23 0 -45 -3 -61 -4c-10 0 -16 2 -16 6s3 6 16 9c28 6 33 21 33 57zM466 673c-61 0 -97 -53 -107 -171c-3 -32 -4 -73 -4 -96c0 -25 0 -33 1 -39c1 -4 2 -9 9 -9h169
c2 0 5 4 5 7c0 92 2 191 1 239c0 26 -5 36 -15 48c-12 13 -30 21 -59 21zM248 650c-67 0 -108 -49 -120 -173c-3 -32 -4 -80 -4 -89c0 -7 0 -17 1 -23c1 -7 6 -7 19 -7h151c3 0 8 8 8 11c0 55 3 128 22 185c5 14 10 27 17 39c1 2 1 9 -1 11c-22 34 -58 46 -93 46z" />
    <glyph glyph-name="f_f_t" unicode="fft" horiz-adv-x="723" 
d="M72 68v246c0 7 -2 9 -7 10s-17 1 -27 1c-9 0 -12 3 -12 7c0 3 3 5 10 9c6 3 14 8 25 13c8 5 11 9 11 15c0 47 6 102 17 139c18 58 52 110 102 141c31 19 61 27 94 27s63 -11 86 -37c2 -2 6 0 7 1c14 14 29 26 44 35c28 16 57 23 82 23c26 0 71 -11 71 -35
c0 -8 -11 -17 -21 -23c-8 -5 -12 -3 -19 3c-12 10 -40 25 -73 25c-61 0 -93 -48 -103 -166c-3 -32 -4 -73 -4 -96c0 -25 0 -34 1 -40c1 -4 2 -9 9 -9h143c5 0 9 0 17 6c12 10 25 30 37 46c6 9 14 7 14 3c0 -8 -1 -35 -1 -47c0 -3 1 -8 5 -8c18 0 106 3 129 3c2 0 6 -6 6 -12
c0 -14 -5 -24 -10 -24c-37 0 -102 3 -129 3c-1 0 -4 -3 -4 -9c0 -15 2 -174 3 -207c1 -35 3 -46 10 -56c14 -23 36 -30 67 -30c25 0 51 11 59 16c6 5 9 4 9 0c0 -6 -11 -19 -23 -26c-24 -14 -49 -24 -77 -24c-45 0 -72 14 -89 46c-8 13 -12 39 -12 63v212c0 13 -5 15 -8 16
c-13 0 -137 -1 -149 -1c-5 0 -6 -8 -6 -9c0 -42 2 -221 3 -249c2 -41 10 -47 20 -50c8 -3 20 -3 34 -6c12 -2 19 -5 19 -9c0 -5 -7 -7 -16 -7c-26 0 -41 3 -85 3c-23 0 -46 -3 -62 -4c-10 0 -15 2 -15 6s7 7 20 10c24 5 29 20 29 56v246c0 8 -2 14 -7 14h-166
c-4 0 -5 -8 -5 -9c0 -42 1 -225 2 -253c1 -42 6 -48 39 -55c12 -2 17 -6 17 -9c0 -5 -6 -7 -15 -7c-15 0 -48 5 -68 5c-23 0 -45 -3 -61 -4c-10 0 -16 2 -16 6s3 6 16 9c28 6 33 21 33 57zM248 650c-67 0 -108 -49 -120 -173c-3 -32 -4 -80 -4 -89c0 -7 0 -17 1 -23
c1 -7 6 -7 19 -7h153c3 0 6 8 6 11c0 53 3 122 20 178c5 17 11 32 19 46c1 2 1 9 -1 11c-22 34 -58 46 -93 46z" />
    <glyph glyph-name="f_h" unicode="fh" horiz-adv-x="679" 
d="M72 68v242c0 6 0 11 -4 12c-6 0 -16 0 -29 1c-9 1 -14 7 -14 9s5 5 12 9s15 8 24 14c8 5 11 11 11 15c0 69 5 127 16 164c19 61 51 105 95 134c33 23 66 30 88 30c23 0 40 -5 56 -14c3 -1 5 -1 10 2s10 3 14 5c9 4 13 4 14 4c2 0 4 -4 3 -20c-3 -51 -4 -167 -4 -367
c0 -2 3 -3 6 0c11 11 39 32 61 43c18 9 44 18 73 18c28 0 53 -12 66 -21c30 -21 42 -56 44 -110c1 -49 0 -79 0 -116c0 -20 1 -61 3 -81c2 -16 3 -25 34 -30c13 -3 16 -6 16 -9c0 -4 -6 -7 -16 -7c-24 0 -46 5 -68 5c-28 0 -39 -4 -58 -4c-12 0 -17 3 -17 6c0 4 6 6 16 8
c25 4 30 11 33 38c2 23 5 47 5 160c0 25 -2 67 -15 91c-13 21 -36 37 -74 37s-77 -19 -95 -38c-14 -14 -15 -25 -15 -46c0 -172 6 -201 7 -211c4 -18 9 -25 30 -29c17 -3 24 -5 24 -10c0 -3 -6 -6 -14 -6c-27 0 -48 4 -81 4c-26 0 -42 -4 -59 -4c-11 0 -15 2 -15 6
c0 3 4 5 16 8c29 7 36 15 38 55c3 42 5 127 5 296c0 151 -2 209 -3 250c-1 25 -7 40 -32 53c-13 5 -24 9 -43 9c-56 0 -96 -48 -108 -170c-3 -32 -4 -85 -4 -116c0 -7 0 -17 1 -23c1 -7 5 -7 15 -7c9 0 94 2 105 2c5 0 8 -6 8 -16c0 -16 -2 -18 -15 -18c-14 0 -94 2 -108 2
c-3 0 -5 -8 -5 -9c0 -42 1 -221 3 -249c3 -37 10 -47 20 -50c8 -3 20 -3 34 -6c12 -2 19 -5 19 -9c0 -5 -7 -7 -16 -7c-26 0 -41 3 -85 3c-23 0 -46 -3 -62 -4c-10 0 -15 2 -15 6s7 7 20 10c24 5 29 20 29 56z" />
    <glyph glyph-name="f_i" unicode="fi" horiz-adv-x="424" 
d="M292 698c48 0 73 -19 83 -32c8 -8 10 -17 10 -20c0 -15 -19 -30 -27 -30c-5 0 -12 4 -20 15c-24 25 -47 39 -82 39c-27 0 -49 -3 -76 -30c-35 -36 -50 -116 -53 -168c-2 -32 -4 -69 -3 -101c1 -11 0 -13 8 -13c19 0 125 -1 155 1c45 3 59 11 64 15c3 3 5 5 7 4
s3 -5 3 -13c0 -16 -2 -81 -2 -168c0 -89 1 -112 2 -145c1 -32 4 -38 29 -42c11 -2 14 -5 14 -8s-5 -5 -11 -5c-16 0 -37 3 -67 3c-23 0 -43 -2 -52 -2s-19 0 -19 6c0 4 8 7 21 10c23 5 27 8 30 68c2 41 2 185 1 224c-1 21 -3 22 -31 24c-34 2 -126 1 -147 1
c-2 0 -5 -10 -5 -20c0 -21 1 -85 1 -146c0 -68 2 -99 5 -121c2 -23 25 -29 39 -31c13 -3 20 -6 20 -10s-8 -5 -15 -5s-49 2 -78 2c-24 0 -48 -4 -55 -4c-6 0 -17 0 -17 6c0 3 5 6 15 9c20 5 27 7 31 34c3 24 2 260 2 269c0 10 -4 11 -6 12l-26 2c-9 2 -14 4 -14 6
c0 4 2 3 10 7c5 3 22 9 30 13c3 2 6 5 6 13c0 23 1 95 17 150c13 50 44 102 85 135c37 30 74 46 118 46z" />
    <glyph glyph-name="f_j" unicode="fj" horiz-adv-x="410" 
d="M284 698c49 0 91 -19 91 -49c0 -15 -19 -30 -27 -30c-5 0 -12 3 -20 14c-24 25 -52 37 -80 37s-46 -5 -68 -27c-35 -36 -50 -119 -53 -171l-3 -51c-1 -17 0 -34 0 -50c0 -5 1 -13 6 -13c15 0 105 -1 148 1c45 3 58 11 63 15c3 2 4 4 6 4c3 0 4 -4 4 -13
c0 -90 -2 -203 -2 -282c0 -58 -4 -123 -5 -138c-8 -124 -85 -209 -135 -236c-9 -6 -25 -8 -25 -2c0 3 4 6 11 10c64 33 95 125 98 197c4 78 4 225 4 310c-1 63 -3 84 -4 90c-1 11 -1 14 -26 16c-34 2 -117 1 -138 1c-2 0 -5 -10 -5 -20c1 -214 3 -245 6 -267
c2 -23 25 -29 39 -31c13 -3 20 -6 20 -10s-8 -5 -15 -5s-49 2 -78 2c-24 0 -48 -4 -55 -4c-6 0 -17 0 -17 6c0 3 5 6 15 9c20 5 27 7 31 34c3 24 2 260 2 269c0 10 -4 11 -6 12c-12 1 -22 1 -29 2c-9 2 -10 3 -10 5c0 4 3 7 8 9s23 8 31 12c3 2 6 5 6 13c0 23 1 95 17 150
c13 50 46 107 87 140c37 30 79 41 108 41z" />
    <glyph glyph-name="f_k" unicode="fk" horiz-adv-x="653" 
d="M271 698c23 0 40 -5 56 -14c3 -1 5 -1 10 2s11 3 15 5c9 4 13 4 14 4c2 0 4 -4 3 -20c0 -30 -10 -213 -10 -459c0 -12 2 -17 5 -17c4 0 12 6 21 12c43 35 91 77 109 99c6 6 11 14 11 18c0 7 -7 12 -26 15c-8 1 -17 4 -17 8s7 7 15 7c18 0 44 -1 56 -1c16 0 59 5 81 5
c11 0 14 -3 14 -6c0 -2 -2 -6 -14 -8c-34 -6 -49 -10 -95 -44c-27 -20 -85 -70 -102 -86c-2 -1 0 -5 1 -6c27 -30 102 -104 152 -154c28 -27 43 -40 74 -47c8 -2 15 -5 15 -9c0 -7 -9 -7 -16 -7c-24 0 -66 5 -102 5c-16 0 -29 -1 -44 -1c-11 0 -19 0 -19 6c0 5 6 7 25 11
c17 4 19 14 10 27c-24 26 -102 105 -131 132c-8 6 -15 13 -19 13c-3 0 -4 -7 -4 -11c-1 -19 -2 -42 -2 -106c0 -48 6 -51 40 -59c11 -3 15 -5 15 -8c0 -5 -7 -7 -20 -7c-27 0 -44 3 -70 3c-29 0 -44 -3 -58 -3c-11 0 -16 3 -16 7c0 3 6 6 13 7c31 8 39 17 41 50
c4 73 5 161 6 239c1 93 3 223 3 311c-1 25 -7 40 -32 53c-13 5 -24 9 -43 9c-56 0 -96 -48 -108 -170c-3 -32 -4 -85 -4 -116c0 -7 0 -17 1 -23c1 -7 5 -7 15 -7c9 0 94 2 105 2c5 0 8 -6 8 -16c0 -16 -2 -18 -15 -18c-14 0 -94 2 -108 2c-3 0 -5 -8 -5 -9
c0 -42 1 -221 3 -249c3 -37 10 -47 20 -50c8 -3 20 -3 34 -6c12 -2 19 -5 19 -9c0 -5 -7 -7 -16 -7c-26 0 -41 3 -85 3c-23 0 -46 -3 -62 -4c-10 0 -15 2 -15 6s7 7 20 10c24 5 29 20 29 56v242c0 6 0 11 -4 12c-6 0 -16 0 -29 1c-9 1 -14 7 -14 9s5 5 12 9s15 8 24 14
c8 5 11 11 11 15c0 69 5 127 16 164c19 61 51 105 95 134c33 23 66 30 88 30z" />
    <glyph glyph-name="f_l" unicode="fl" horiz-adv-x="426" 
d="M72 68v242c0 6 0 11 -4 12c-6 0 -16 0 -29 1c-9 1 -14 7 -14 9s5 5 12 9s15 8 24 14c8 5 11 11 11 15c0 69 5 127 16 164c19 61 51 105 95 134c29 20 57 29 83 30c19 0 37 -4 55 -11c8 -3 12 -5 15 -5c4 0 10 5 13 10c6 6 8 9 10 9c4 0 5 -4 5 -17c0 -7 -5 -183 -5 -323
v-118c0 -132 0 -168 1 -186c1 -36 11 -41 37 -45c6 -1 14 -4 14 -7c0 -4 -6 -7 -21 -7c-10 0 -44 2 -62 2c-26 0 -52 -2 -62 -2c-13 0 -17 1 -17 6c0 4 4 5 19 9c25 5 32 11 36 55c3 35 4 202 5 331c0 92 2 157 1 205c0 26 -4 36 -14 48c-12 13 -31 21 -60 21
c-56 0 -96 -48 -108 -170c-3 -32 -4 -85 -4 -116c0 -7 0 -17 1 -23c1 -7 5 -7 15 -7c9 0 94 2 105 2c5 0 8 -6 8 -16c0 -16 -2 -18 -15 -18c-14 0 -94 2 -108 2c-3 0 -5 -8 -5 -9c0 -42 1 -221 3 -249c3 -33 4 -45 18 -51c5 -2 11 -3 19 -5c12 -2 19 -5 19 -9
c0 -5 -7 -7 -16 -7c-26 0 -24 3 -68 3c-23 0 -46 -3 -62 -4c-10 0 -15 2 -15 6s7 7 20 10c24 5 29 20 29 56z" />
    <glyph glyph-name="f_t" unicode="ft" horiz-adv-x="498" 
d="M72 68v242c0 9 -6 12 -14 13c-7 0 -14 1 -20 1c-7 0 -13 1 -13 8c0 2 6 5 13 9c14 7 34 17 34 29c0 69 4 127 16 164c32 104 117 164 190 164c39 0 66 -23 66 -34c0 -7 -11 -18 -22 -24c-15 -9 -37 28 -90 28c-6 0 -11 0 -16 -1c-46 -8 -78 -56 -88 -164
c-3 -32 -4 -85 -4 -116c0 -14 -5 -30 16 -30c8 0 122 2 148 2c3 0 7 1 11 4c17 11 39 43 48 50c3 2 4 2 4 -1c0 -8 -1 -35 -1 -47c0 -3 1 -8 5 -8c18 0 106 3 129 3c2 0 6 -6 6 -12c0 -14 -5 -27 -10 -27c-37 0 -102 3 -129 3c-1 0 -4 -3 -4 -9c-1 -15 3 -171 3 -204
c0 -64 23 -86 77 -86c57 0 68 32 68 16c0 -22 -61 -50 -100 -50c-64 0 -101 30 -101 109v200c0 10 0 19 -4 24c-5 6 -141 3 -160 3c-3 0 -5 -8 -5 -9c0 -42 1 -221 3 -249c3 -37 10 -47 20 -50c12 -5 53 -5 53 -15c0 -5 -7 -7 -16 -7c-26 0 -41 3 -85 3c-23 0 -46 -3 -62 -4
c-10 0 -15 2 -15 6s7 7 20 10c24 5 29 20 29 56z" />
    <glyph glyph-name="longs_b" unicode="&#x17f;b" horiz-adv-x="655" 
d="M266 698c11 0 33 -3 50 -11c5 -1 5 -1 9 3c4 5 7 9 10 11c3 3 5 4 6 4c3 0 4 -4 4 -19c-3 -59 -4 -198 -4 -349c0 -4 3 -10 4 -9c23 14 60 38 114 38c50 0 95 -28 118 -55c30 -33 44 -78 44 -119c0 -59 -17 -99 -49 -133c-38 -41 -98 -70 -149 -70c-33 0 -78 9 -111 25
c-9 4 -14 2 -27 -2c-5 -2 -7 1 -6 7c1 21 3 42 5 91c2 47 7 288 7 327c0 68 -1 178 -2 192c-1 15 -3 21 -9 26c-13 12 -30 14 -49 14c-56 0 -89 -44 -101 -166c-3 -32 -5 -93 -5 -185c0 -42 1 -221 3 -249c3 -34 4 -44 15 -49c5 -3 13 -4 24 -7c12 -2 19 -5 19 -9
c0 -5 -7 -7 -16 -7c-26 0 -26 3 -70 3c-23 0 -46 -3 -62 -4c-10 0 -15 2 -15 6s7 7 20 10c24 5 29 20 29 56v242c0 6 0 11 -4 12c-6 0 -16 0 -29 1c-9 1 -14 7 -14 9s5 5 12 9s15 8 24 14c8 5 11 11 11 15c0 69 5 127 16 164c19 61 52 107 96 136c31 20 54 28 82 28z
M568 172c0 39 -15 82 -41 113c-21 24 -63 52 -110 52c-35 0 -58 -11 -67 -19c-4 -4 -11 -17 -11 -29c-1 -15 -1 -90 -1 -129c0 -38 5 -77 14 -94c10 -19 15 -27 29 -37c19 -13 48 -19 72 -19c60 0 115 61 115 162z" />
    <glyph glyph-name="longs_h" unicode="&#x17f;h" horiz-adv-x="699" 
d="M100 0c-23 0 -46 -3 -62 -4c-10 0 -15 2 -15 6s7 7 20 10c24 5 29 20 29 56v242c0 6 0 11 -4 12c-6 0 -16 0 -29 1c-9 1 -14 7 -14 9s5 5 12 9s15 8 24 14c8 5 11 11 11 15c0 69 5 127 16 164c19 61 52 109 96 138c31 20 54 26 82 26c11 0 33 -3 50 -11c5 -1 5 -1 9 3
c4 5 7 9 10 11c3 3 5 4 6 4c3 0 4 -7 4 -22c-1 -32 -1 -354 -1 -375c0 -2 3 -3 6 0c11 11 39 32 61 43c18 9 44 18 73 18c28 0 53 -12 66 -21c30 -21 42 -56 44 -110c1 -49 0 -79 0 -116c0 -20 1 -61 3 -81c2 -16 3 -25 34 -30c13 -3 16 -6 16 -9c0 -4 -6 -7 -16 -7
c-24 0 -46 5 -68 5c-28 0 -39 -4 -58 -4c-12 0 -17 3 -17 6c0 4 6 6 16 8c25 4 30 11 33 38c2 23 5 47 5 160c0 25 -2 67 -15 91c-13 21 -36 37 -74 37s-77 -19 -95 -38c-14 -14 -15 -25 -15 -46c0 -172 6 -201 7 -211c4 -18 9 -25 30 -29c17 -3 24 -5 24 -10
c0 -3 -6 -6 -14 -6c-27 0 -48 4 -81 4c-26 0 -42 -4 -59 -4c-11 0 -15 2 -15 6c0 3 4 5 16 8c29 7 36 15 38 55c3 42 5 127 5 296c0 151 -2 227 -3 268c-1 12 -7 23 -11 26c-13 12 -31 16 -50 16c-56 0 -88 -46 -100 -168c-3 -32 -5 -93 -5 -185c0 -42 1 -221 3 -249
c4 -50 4 -48 39 -56c12 -2 19 -5 19 -9c0 -5 -7 -7 -16 -7c-26 0 -26 3 -70 3z" />
    <glyph glyph-name="longs_i" unicode="&#x17f;i" horiz-adv-x="400" 
d="M72 68v242c0 6 0 11 -4 12c-6 0 -16 0 -29 1c-9 1 -14 7 -14 9s5 5 12 9s15 8 24 14c8 5 11 11 11 15c0 69 5 127 16 164c19 61 51 104 95 133c33 23 67 31 95 31c39 0 64 -16 75 -27c7 -7 10 -14 10 -19c0 -9 -11 -28 -27 -31c-5 -1 -18 11 -21 14c-24 26 -49 34 -83 34
c-56 0 -90 -44 -102 -166c-3 -32 -5 -93 -5 -185c0 -42 1 -221 3 -249c4 -50 4 -48 39 -56c12 -2 19 -5 19 -9c0 -5 -7 -7 -16 -7c-26 0 -26 3 -70 3c-23 0 -46 -3 -62 -4c-10 0 -15 2 -15 6s7 7 20 10c24 5 29 20 29 56zM246 335h-1c0 4 8 6 15 8c25 7 42 13 56 22
c9 6 14 7 16 7c3 0 5 -2 5 -14c0 -11 -2 -85 -2 -158c0 -72 0 -144 2 -161c2 -22 14 -25 28 -28c10 -2 15 -4 15 -8c0 -5 -8 -7 -16 -7c-6 0 -48 4 -69 4c-28 0 -42 -2 -53 -2c-6 0 -12 2 -12 6c0 3 4 6 19 9c20 5 32 12 32 55c0 30 3 203 3 213c0 24 -4 32 -32 46
c-5 3 -6 4 -6 8z" />
    <glyph glyph-name="longs_k" unicode="&#x17f;k" horiz-adv-x="629" 
d="M266 698c11 0 33 -3 50 -11c5 -1 5 -1 9 3c4 5 7 9 10 11c3 3 5 4 6 4c3 0 4 -7 4 -22c-2 -32 -5 -112 -5 -186c0 -30 -5 -145 -5 -281c0 -12 2 -17 5 -17c4 0 12 6 21 12c43 35 91 77 109 99c6 6 11 14 11 18c0 7 -7 12 -26 15c-8 1 -17 4 -17 8s7 7 15 7
c18 0 44 -1 56 -1c16 0 59 5 81 5c11 0 14 -3 14 -6c0 -2 -2 -6 -14 -8c-34 -6 -49 -10 -95 -44c-27 -20 -85 -70 -102 -86c-2 -1 0 -5 1 -6c27 -30 102 -104 152 -154c28 -27 43 -40 74 -47c8 -2 15 -5 15 -9c0 -7 -9 -7 -16 -7c-24 0 -66 5 -102 5c-16 0 -29 -1 -44 -1
c-11 0 -19 0 -19 6c0 5 6 7 25 11c17 4 19 14 10 27c-24 26 -102 105 -131 132c-8 6 -15 13 -19 13c-3 0 -4 -7 -4 -11c-1 -19 -2 -42 -2 -106c0 -48 6 -51 40 -59c11 -3 15 -5 15 -8c0 -5 -7 -7 -20 -7c-27 0 -44 3 -70 3c-29 0 -44 -3 -58 -3c-11 0 -16 3 -16 7
c0 3 6 6 13 7c31 8 39 17 41 50c4 73 5 161 6 239c1 93 5 241 5 329c-1 12 -7 23 -11 26c-13 12 -29 16 -48 16c-56 0 -88 -46 -100 -168c-3 -32 -5 -93 -5 -185c0 -42 1 -221 3 -249c4 -50 4 -48 39 -56c12 -2 19 -5 19 -9c0 -5 -7 -7 -16 -7c-26 0 -26 3 -70 3
c-23 0 -46 -3 -62 -4c-10 0 -15 2 -15 6s7 7 20 10c24 5 29 20 29 56v242c0 6 0 11 -4 12c-6 0 -16 0 -29 1c-9 1 -14 7 -14 9s5 5 12 9s15 8 24 14c8 5 11 11 11 15c0 69 7 128 18 165c19 61 50 108 94 137c31 20 54 26 82 26z" />
    <glyph glyph-name="longs_l" unicode="&#x17f;l" horiz-adv-x="405" 
d="M72 68v242c0 6 0 11 -4 12c-6 0 -16 0 -29 1c-9 1 -14 7 -14 9s5 5 12 9s15 8 24 14c8 5 11 11 11 15c0 69 5 127 16 164c19 61 52 109 96 138c31 20 54 26 82 26c11 0 33 -3 50 -11c5 -1 5 -1 9 3c4 5 7 9 10 11c3 3 5 4 6 4c3 0 4 -7 4 -22c0 -7 -5 -182 -5 -322v-118
c0 -132 2 -168 3 -186c1 -36 9 -41 35 -45c6 -1 14 -4 14 -7c0 -4 -6 -7 -21 -7c-10 0 -44 2 -62 2c-26 0 -53 -2 -63 -2c-13 0 -17 1 -17 6c0 4 4 5 19 9c25 5 33 11 37 55c3 35 4 202 5 331c0 92 0 182 -1 230c-1 12 -5 23 -9 26c-13 12 -31 16 -50 16
c-56 0 -88 -46 -100 -168c-3 -32 -5 -93 -5 -185c0 -42 1 -221 3 -249c4 -50 4 -48 39 -56c12 -2 19 -5 19 -9c0 -5 -7 -7 -16 -7c-26 0 -26 3 -70 3c-23 0 -46 -3 -62 -4c-10 0 -15 2 -15 6s7 7 20 10c24 5 29 20 29 56z" />
    <glyph glyph-name="longs_longs" unicode="&#x17f;&#x17f;" horiz-adv-x="413" 
d="M72 68v246c0 7 -2 9 -7 10s-17 1 -27 1c-9 0 -12 3 -12 7c0 3 3 5 10 9c6 3 14 8 25 13c8 5 11 9 11 15c0 47 6 102 17 139c18 58 53 110 103 141c31 19 59 27 88 27c33 0 63 -11 86 -34c2 -2 6 0 7 1c40 41 82 55 121 55c46 0 71 -24 71 -35c0 -8 -11 -17 -21 -23
c-8 -5 -12 -3 -19 3c-12 10 -40 25 -73 25c-61 0 -95 -48 -103 -166c-4 -61 -4 -132 -3 -184c0 -42 2 -221 3 -249c2 -46 6 -50 37 -56c12 -2 19 -5 19 -9c0 -5 -7 -7 -16 -7c-26 0 -24 3 -68 3c-23 0 -46 -3 -62 -4c-10 0 -15 2 -15 6s7 7 20 10c24 5 29 20 29 56v246
c0 7 -2 9 -7 10s-17 1 -27 1c-9 0 -12 3 -12 7c0 3 3 5 10 9c6 3 14 8 25 13c8 5 11 9 11 15c0 69 8 169 42 229c1 2 1 9 -1 11c-22 34 -56 41 -85 41c-67 0 -109 -49 -121 -173c-3 -32 -3 -149 -3 -158c0 -42 1 -225 2 -253c1 -42 6 -48 39 -55c12 -2 17 -6 17 -9
c0 -5 -6 -7 -15 -7c-15 0 -48 5 -68 5c-23 0 -45 -3 -61 -4c-10 0 -16 2 -16 6s3 6 16 9c28 6 33 21 33 57z" />
    <glyph glyph-name="longs_longs_i" unicode="&#x17f;&#x17f;i" horiz-adv-x="622" 
d="M72 68v246c0 7 -2 9 -7 10s-17 1 -27 1c-9 0 -12 3 -12 7c0 3 3 5 10 9c6 3 14 8 25 13c8 5 11 9 11 15c0 47 6 102 17 139c18 58 53 110 103 141c31 19 59 27 88 27c33 0 63 -11 86 -34c2 -2 6 0 7 1c40 41 82 55 121 55c46 0 71 -24 71 -35c0 -8 -11 -17 -21 -23
c-8 -5 -12 -3 -19 3c-12 10 -40 25 -73 25c-61 0 -95 -48 -103 -166c-4 -61 -5 -132 -4 -184c0 -42 2 -221 3 -249c2 -46 6 -50 37 -56c12 -2 19 -5 19 -9c0 -5 -7 -7 -16 -7c-26 0 -23 3 -67 3c-23 0 -46 -3 -62 -4c-10 0 -15 2 -15 6s7 7 20 10c24 5 29 20 29 56v246
c0 7 -2 9 -7 10s-17 1 -27 1c-9 0 -12 3 -12 7c0 3 3 5 10 9c6 3 14 8 25 13c8 5 11 9 11 15c0 69 8 169 42 229c1 2 1 9 -1 11c-22 34 -56 41 -85 41c-67 0 -109 -49 -121 -173c-3 -32 -4 -149 -4 -158c0 -42 1 -225 2 -253c1 -42 6 -48 39 -55c12 -2 17 -6 17 -9
c0 -5 -6 -7 -15 -7c-15 0 -47 5 -67 5c-23 0 -45 -3 -61 -4c-10 0 -16 2 -16 6s3 6 16 9c28 6 33 21 33 57zM468 335h-1c0 4 8 6 15 8c25 7 42 13 56 22c9 6 14 7 16 7c3 0 5 -2 5 -14c0 -11 -2 -85 -2 -158c0 -72 0 -144 2 -161c2 -22 14 -25 28 -28c10 -2 15 -4 15 -8
c0 -5 -8 -7 -16 -7c-6 0 -48 4 -69 4c-28 0 -42 -2 -53 -2c-6 0 -12 2 -12 6c0 3 4 6 19 9c20 5 32 12 32 55c0 30 3 203 3 213c0 24 -4 32 -32 46c-5 3 -6 4 -6 8z" />
    <glyph glyph-name="longs_longs_l" unicode="&#x17f;&#x17f;l" horiz-adv-x="628" 
d="M72 68v246c0 7 -2 9 -7 10s-17 1 -27 1c-9 0 -12 3 -12 7c0 3 3 5 10 9c6 3 14 8 25 13c8 5 11 9 11 15c0 47 6 102 17 139c18 58 53 110 103 141c31 19 59 27 88 27c33 0 61 -10 84 -33c2 -2 5 0 6 1c40 41 78 54 117 54c11 0 33 -3 50 -11c5 -1 5 -1 9 3c4 5 7 9 10 11
c3 3 5 4 6 4c3 0 4 -7 4 -22c0 -7 -5 -182 -5 -322v-118c0 -132 2 -168 3 -186c1 -36 9 -41 35 -45c6 -1 14 -4 14 -7c0 -4 -6 -7 -21 -7c-10 0 -44 2 -62 2c-26 0 -53 -2 -63 -2c-13 0 -17 1 -17 6c0 4 4 5 19 9c25 5 31 11 35 55c3 35 6 202 7 331c0 92 0 182 -1 230
c-1 12 -5 23 -9 26c-13 12 -32 16 -51 16c-56 0 -87 -46 -99 -168c-3 -32 -5 -93 -5 -185c0 -42 2 -221 3 -249c2 -46 6 -50 37 -56c12 -2 19 -5 19 -9c0 -5 -7 -7 -16 -7c-26 0 -24 3 -68 3c-23 0 -46 -3 -62 -4c-10 0 -15 2 -15 6s7 7 20 10c24 5 29 20 29 56v246
c0 7 -2 9 -7 10s-17 1 -27 1c-9 0 -12 3 -12 7c0 3 3 5 10 9c6 3 14 8 25 13c8 5 11 9 11 15c0 69 8 169 42 229c1 2 1 9 -1 11c-22 34 -56 41 -85 41c-67 0 -109 -49 -121 -173c-3 -32 -3 -149 -3 -158c0 -42 1 -225 2 -253c1 -42 6 -48 39 -55c12 -2 17 -6 17 -9
c0 -5 -6 -7 -15 -7c-15 0 -48 5 -68 5c-23 0 -45 -3 -61 -4c-10 0 -16 2 -16 6s3 6 16 9c28 6 33 21 33 57z" />
    <glyph glyph-name="longs_t" unicode="&#x17f;t" horiz-adv-x="492" 
d="M72 68v242c0 6 0 11 -4 12c-6 0 -16 0 -29 1c-9 1 -14 7 -14 9s5 5 12 9s15 8 24 14c8 5 11 11 11 15c0 69 5 127 16 164c19 61 48 99 93 126c18 11 42 20 63 20c40 0 67 -15 83 -40c13 -21 19 -47 19 -77c0 -49 -1 -116 -1 -198c0 -3 1 -8 5 -8c18 0 105 2 128 2
c2 0 6 -6 6 -12c0 -14 -5 -23 -10 -23h-129c-1 0 -4 -3 -4 -9c0 -15 0 -169 1 -202c1 -35 5 -48 12 -58c14 -23 36 -30 67 -30c25 0 51 11 59 16c6 5 9 4 9 0c0 -6 -11 -19 -23 -26c-24 -14 -49 -24 -77 -24c-45 0 -72 14 -89 46c-8 13 -12 39 -12 63l2 210c0 6 0 11 -4 12
c-6 0 -14 0 -27 1c-9 1 -10 4 -10 6s1 5 8 9s18 10 27 16c8 5 9 11 9 15c3 36 6 131 6 170c0 36 -6 67 -16 82c-13 19 -30 34 -62 34c-52 0 -81 -30 -93 -152c-3 -32 -3 -154 -3 -185c0 -42 1 -221 3 -249c3 -37 10 -47 20 -50c8 -3 20 -3 34 -6c12 -2 19 -5 19 -9
c0 -5 -7 -7 -16 -7c-26 0 -41 3 -85 3c-23 0 -46 -3 -62 -4c-10 0 -15 2 -15 6s7 7 20 10c24 5 29 20 29 56z" />
    <glyph glyph-name="Tcommaaccent_h" unicode="&#x162;h" horiz-adv-x="926" 
d="M297 631h209c51 0 73 4 85 10c6 3 11 7 16 18c2 4 6 11 10 11c3 0 5 -4 4 -16c-5 -42 -6 -82 -6 -94c-1 -34 -4 -229 -4 -250c0 -4 3 -4 4 -3c11 11 41 33 63 44c18 9 44 18 73 18c28 0 64 -11 88 -46c9 -12 21 -42 22 -108c1 -78 -1 -141 1 -174c1 -21 5 -25 36 -30
c11 -2 16 -6 16 -9c0 -4 -6 -7 -16 -7c-24 0 -46 5 -68 5c-28 0 -39 -4 -58 -4c-12 0 -17 3 -17 6c0 4 6 6 16 8c25 4 29 11 32 38c2 23 6 64 6 177c0 25 -4 52 -16 73s-36 38 -73 38c-48 0 -82 -23 -100 -42c-5 -5 -10 -17 -10 -42c0 -172 4 -197 5 -207
c4 -18 11 -29 32 -33c17 -3 24 -5 24 -10c0 -3 -6 -6 -14 -6c-27 0 -48 4 -81 4c-26 0 -42 -4 -59 -4c-11 0 -15 2 -15 6c0 3 4 5 16 8c29 7 37 9 39 49c3 42 4 133 4 302c0 151 -1 169 -1 211c0 9 -3 31 -12 32c-27 2 -209 5 -226 3c-5 -1 -6 -8 -6 -14
c0 -36 0 -255 -1 -299c-1 -63 3 -199 6 -230c4 -37 14 -43 47 -53c12 -3 17 -5 17 -10c0 -6 -7 -7 -20 -7c-24 0 -48 6 -84 6c-44 0 -74 -6 -90 -6c-13 0 -18 4 -18 9c0 4 10 7 21 9c47 6 53 23 56 69c7 95 7 490 5 505c-2 16 -3 20 -7 21c-6 1 -42 3 -88 3
c-45 0 -73 -4 -96 -7c-18 -3 -24 -12 -40 -53c-4 -10 -10 -16 -13 -16c-4 0 -4 9 -3 15c6 34 10 83 10 89c0 9 0 13 4 15c2 1 6 -1 8 -4c4 -5 14 -12 44 -15c17 -2 120 -3 223 -3zM275 -39c22 0 48 -20 48 -55c0 -56 -62 -77 -69 -77c-5 0 -11 -1 -11 3c0 2 5 5 10 7
c22 10 42 25 42 51c0 18 -11 25 -21 29c-12 4 -25 7 -25 21c0 13 15 21 26 21z" />
    <glyph glyph-name="Tcaron_h" unicode="&#x164;h" horiz-adv-x="926" 
d="M297 631h209c51 0 73 4 85 10c6 3 11 7 16 18c2 4 6 11 10 11c3 0 5 -4 4 -16c-5 -42 -6 -82 -6 -94c-1 -34 -4 -229 -4 -250c0 -4 3 -4 4 -3c11 11 41 33 63 44c18 9 44 18 73 18c28 0 64 -11 88 -46c9 -12 21 -42 22 -108c1 -78 -1 -141 1 -174c1 -21 5 -25 36 -30
c11 -2 16 -6 16 -9c0 -4 -6 -7 -16 -7c-24 0 -46 5 -68 5c-28 0 -39 -4 -58 -4c-12 0 -17 3 -17 6c0 4 6 6 16 8c25 4 29 11 32 38c2 23 6 64 6 177c0 25 -4 52 -16 73s-36 38 -73 38c-48 0 -82 -23 -100 -42c-5 -5 -10 -17 -10 -42c0 -172 4 -197 5 -207
c4 -18 11 -29 32 -33c17 -3 24 -5 24 -10c0 -3 -6 -6 -14 -6c-27 0 -48 4 -81 4c-26 0 -42 -4 -59 -4c-11 0 -15 2 -15 6c0 3 4 5 16 8c29 7 37 9 39 49c3 42 4 133 4 302c0 151 -1 169 -1 211c0 9 -3 31 -12 32c-27 2 -209 5 -226 3c-5 -1 -6 -8 -6 -14
c0 -36 0 -255 -1 -299c-1 -63 3 -199 6 -230c4 -37 14 -43 47 -53c12 -3 17 -5 17 -10c0 -6 -7 -7 -20 -7c-24 0 -48 6 -84 6c-44 0 -74 -6 -90 -6c-13 0 -18 4 -18 9c0 4 10 7 21 9c47 6 53 23 56 69c7 95 7 490 5 505c-2 16 -3 20 -7 21c-6 1 -42 3 -88 3
c-45 0 -73 -4 -96 -7c-18 -3 -24 -12 -40 -53c-4 -10 -10 -16 -13 -16c-4 0 -4 9 -3 15c6 34 10 83 10 89c0 9 0 13 4 15c2 1 6 -1 8 -4c4 -5 14 -12 44 -15c17 -2 120 -3 223 -3zM292 657c-4 0 -11 5 -20 16c-20 26 -62 65 -86 87c-9 9 -1 9 3 8c28 -8 80 -46 102 -63
c4 -3 8 0 10 2c27 19 77 53 100 62c5 1 16 1 4 -8c-17 -14 -64 -56 -94 -89c-9 -9 -16 -15 -19 -15z" />
    <glyph glyph-name="gamma_gamma" unicode="&#x3b3;&#x3b3;" horiz-adv-x="721" 
d="M437 374c32 0 77 -6 101 -123c10 -45 20 -136 18 -200c0 -13 3 -11 7 -1c24 57 66 145 87 200c22 57 28 95 34 128c1 1 7 4 10 3c9 -7 20 -24 23 -39c4 -12 -3 -32 -5 -38c-25 -65 -73 -156 -108 -219c-24 -45 -35 -70 -44 -119c-2 -9 -3 -20 -4 -30
c-6 -59 -23 -186 -25 -196c-1 -8 -7 -14 -10 -14c-15 0 -32 20 -39 33c-4 9 -3 18 -2 26c2 14 23 94 47 170c2 6 13 45 13 61c7 125 -21 304 -111 304c-61 0 -121 -93 -173 -243c-16 -50 -22 -62 -33 -111c-2 -9 -3 -20 -4 -30c-6 -59 -25 -208 -28 -218
c-1 -8 -7 -14 -10 -14c-15 0 -33 20 -39 33c-4 9 -3 18 -2 26c2 14 27 116 51 192c3 6 13 45 13 61c7 154 -29 304 -118 304c-39 0 -60 -27 -77 -59c-1 -2 -5 -4 -6 -3s-3 5 -3 8c0 13 8 38 16 51c14 24 42 57 85 57c33 0 81 -10 105 -127c9 -45 16 -139 16 -185
c0 -13 4 -11 9 -1c26 80 108 313 206 313z" />
    <glyph glyph-name="lambda_lambda" unicode="&#x3bb;&#x3bb;" horiz-adv-x="692" 
d="M79 674c44 0 79 -31 108 -152c15 -62 77 -373 96 -426c14 -42 24 -59 41 -59c13 0 26 24 39 52c41 82 98 204 104 220c11 23 27 48 31 52c3 4 4 10 2 18c-11 54 -27 121 -50 170c-25 51 -54 99 -112 99c-41 0 -64 -11 -90 -32c-3 -3 -7 -2 -7 3c0 3 1 8 7 19
c22 39 66 60 106 60c62 0 99 -49 133 -161c18 -62 78 -374 98 -427c15 -39 32 -62 67 -62c13 0 29 5 41 11c3 2 4 -1 4 -4c-1 -12 -5 -25 -13 -37c-12 -19 -29 -35 -52 -35c-40 0 -53 58 -65 103c-17 73 -49 211 -50 220c-1 3 -2 4 -4 4c-1 0 -3 0 -3 -2
c-11 -30 -120 -271 -131 -290s-24 -35 -43 -35c-46 0 -62 56 -73 101c-18 73 -50 213 -51 222c-1 3 -2 4 -4 4c-1 0 -3 0 -3 -2c-10 -30 -110 -284 -121 -303c-4 -10 -15 -20 -19 -20c-3 0 -24 5 -35 14c-3 2 -6 8 -4 9c12 19 128 273 138 297c10 23 25 52 30 56
c3 4 4 10 2 18c-12 54 -19 99 -38 148c-24 61 -50 97 -94 97c-25 0 -45 -8 -62 -15c-4 -2 -8 -3 -8 2c0 3 0 9 7 19c15 22 41 44 78 44z" />
    <glyph glyph-name=".notdef" horiz-adv-x="500" 
d="M0 0v700h500v-700h-500zM250 395l170 255h-340zM280 350l170 -255v510zM80 50h340l-170 255zM50 605v-510l170 255z" />
    <glyph glyph-name="space" unicode=" " horiz-adv-x="150" 
 />
    <glyph glyph-name="exclam" unicode="!" horiz-adv-x="224" 
d="M139 159c-5 0 -9 6 -11 28c-7 83 -21 269 -24 327c-1 25 12 67 34 67c23 0 36 -29 36 -63c0 -37 -23 -295 -24 -328c-1 -20 -5 -31 -11 -31zM140 -9c-13 0 -40 9 -40 37c0 24 22 41 41 41c27 0 32 -34 32 -42c0 -24 -21 -36 -33 -36z" />
    <glyph glyph-name="quotedbl" unicode="&#x22;" horiz-adv-x="209" 
d="M71 678c9 0 9 -15 9 -31c0 -18 -11 -102 -16 -120c-2 -8 -7 -21 -8 -22c-5 -6 -9 -4 -9 -1c-2 44 -9 109 -13 132c0 1 0 8 3 12c7 11 26 30 34 30zM166 683c9 0 9 -15 9 -31c0 -18 -11 -102 -16 -120c-2 -8 -7 -21 -8 -22c-5 -6 -9 -4 -9 -1c-2 44 -9 109 -13 132
c0 1 0 8 3 12c7 11 26 30 34 30z" />
    <glyph glyph-name="numbersign" unicode="#" horiz-adv-x="410" 
d="M365 403c-1 -6 -7 -22 -14 -22l-59 -3c-1 0 -5 -3 -7 -9l-24 -96c-1 -2 1 -6 3 -5l60 2c3 0 11 -1 9 -7c-1 -13 -7 -30 -16 -30l-62 -3c-5 0 -7 -5 -7 -6l-37 -143c-2 -6 -9 -13 -14 -13s-7 5 -5 13l35 140c1 4 -3 6 -6 6l-76 -4c-2 0 -7 -5 -7 -7l-41 -149
c-2 -7 -6 -9 -8 -9c-6 0 -12 8 -11 11l38 147c1 4 -2 6 -4 6l-63 -2c-3 0 -5 6 -5 8c2 18 9 29 16 29l58 4c3 0 5 1 7 5l23 97c1 5 -1 9 -6 8l-59 -2c0 -1 -8 0 -5 16c1 6 9 18 14 19l62 4c5 0 9 2 8 5l34 128c1 6 10 11 16 11c4 0 5 -6 5 -9l-33 -129c-1 -2 2 -4 3 -4l81 5
c4 0 6 3 8 7l36 128c1 5 6 11 10 11c5 0 10 -6 8 -14l-32 -124c-1 -6 3 -7 5 -7l56 2c4 0 8 -9 6 -15zM264 371c1 3 -2 6 -5 5l-82 -4c-4 0 -7 -3 -7 -6l-25 -98c0 -2 2 -7 6 -6l79 4c3 0 7 1 8 6z" />
    <glyph glyph-name="dollar" unicode="$" horiz-adv-x="410" 
d="M215 276l-22 -227c0 -2 0 -4 2 -4c54 4 114 43 114 118c0 51 -27 81 -90 116c-3 1 -4 -2 -4 -3zM207 360l20 208c0 1 0 2 -3 2c-59 -4 -105 -40 -105 -107c0 -53 41 -84 82 -105c3 -2 6 0 6 2zM230 588l7 66c0 1 7 3 11 3c2 0 5 -3 5 -4l-6 -65c0 -3 1 -5 3 -5
c41 -3 74 -15 80 -16c4 -1 10 -11 12 -23c3 -16 5 -27 5 -38c0 -13 -1 -22 -5 -22c-3 0 -4 2 -7 10c-13 41 -52 70 -87 75c-3 1 -5 -4 -5 -5l-21 -211c0 -1 0 -6 4 -8c73 -39 141 -85 141 -167c0 -50 -29 -88 -60 -110c-25 -19 -80 -34 -114 -37c-1 0 -3 -1 -3 -4l-9 -77
c0 -2 -10 -4 -13 -4c-2 0 -4 1 -4 5l8 74c0 1 1 6 -3 6c-32 1 -76 13 -105 22c-7 1 -11 7 -15 27c-2 13 -10 44 -10 54c0 9 2 13 6 13c3 0 7 -8 14 -21c22 -43 65 -79 113 -81c1 0 3 3 3 4l23 235c0 3 -1 4 -2 5c-65 38 -127 82 -127 157c0 39 18 74 47 99
c24 21 59 34 110 38c1 0 3 1 4 5z" />
    <glyph glyph-name="percent" unicode="%" horiz-adv-x="547" 
d="M434 47c46 1 52 85 52 126s-11 141 -64 141c-46 0 -53 -83 -53 -125c0 -43 14 -144 65 -142zM425 33c-68 0 -103 77 -103 141c0 37 7 72 25 102c20 33 50 52 86 52c71 0 100 -85 100 -141c0 -41 -7 -79 -24 -105c-20 -33 -54 -49 -84 -49zM483 588c7 0 4 -11 -1 -19
c-120 -186 -227 -351 -342 -524c-5 -8 -18 -13 -20 -10c-3 5 3 15 9 25c114 169 223 340 330 505c13 20 18 23 24 23zM168 291c46 1 52 85 52 126s-11 141 -64 141c-46 0 -53 -83 -53 -125c0 -43 14 -144 65 -142zM159 277c-68 0 -103 77 -103 141c0 37 7 72 25 102
c20 33 50 52 86 52c71 0 100 -85 100 -141c0 -41 -7 -79 -24 -105c-20 -33 -54 -49 -84 -49z" />
    <glyph glyph-name="ampersand" unicode="&#x26;" horiz-adv-x="730" 
d="M252 576c74 0 117 -55 117 -99c0 -36 -26 -56 -38 -66c-12 -9 -43 -28 -62 -41c-4 -2 0 -6 1 -7c69 -49 167 -156 180 -171c3 -3 5 -1 6 1c12 16 57 81 117 179c14 22 2 32 -32 37c-18 3 -20 8 -20 10c0 5 7 9 24 8c53 -5 95 6 145 9c19 1 25 -2 25 -5
c0 -5 -3 -8 -20 -12c-37 -8 -56 -15 -97 -66c-25 -32 -87 -115 -130 -175c-2 -5 -1 -6 2 -11c73 -112 111 -138 163 -138c22 0 41 5 54 9c11 3 16 2 16 -2c0 -6 -11 -14 -31 -24c-14 -9 -65 -23 -100 -23c-42 0 -66 17 -77 34c-21 31 -49 77 -65 97c-1 2 -4 4 -6 1
c-9 -12 -50 -72 -76 -89c-44 -31 -84 -48 -125 -48c-43 0 -96 18 -135 57c-21 22 -52 71 -52 123c0 36 13 76 50 111c32 32 86 66 101 76c3 2 3 7 2 8c-40 41 -60 73 -59 105c0 30 13 59 46 85c22 18 57 27 76 27zM252 34c76 0 117 38 156 95c4 5 7 14 5 16
c-49 66 -174 174 -200 192c-1 1 -10 4 -13 2c-44 -26 -102 -82 -103 -160c-1 -91 89 -145 155 -145zM246 560c-38 0 -65 -44 -65 -81c0 -43 49 -86 63 -98c3 -2 8 -4 11 -2c26 22 62 52 62 96c0 26 -15 85 -71 85z" />
    <glyph glyph-name="quoteright" unicode="&#x2019;" horiz-adv-x="134" 
d="M50 680c39 0 62 -35 62 -67c0 -64 -71 -92 -85 -92c-6 0 -9 2 -9 5c0 1 4 5 10 8c32 16 52 39 52 65c0 19 -12 31 -39 37c-7 2 -19 7 -19 19c0 13 12 25 28 25z" />
    <glyph glyph-name="parenleft" unicode="(" horiz-adv-x="291" 
d="M91 259c0 -199 52 -313 145 -428c7 -9 7 -12 4 -15s-7 -5 -13 -5c-5 0 -15 2 -26 15c-99 123 -141 255 -141 413c0 195 89 353 157 424c8 8 17 14 22 14c3 0 5 0 7 -3c1 -4 0 -6 -7 -14c-88 -93 -148 -252 -148 -401z" />
    <glyph glyph-name="parenright" unicode=")" horiz-adv-x="291" 
d="M200 229c0 199 -50 308 -145 428c-7 9 -7 12 -4 15s7 5 13 5c5 0 15 -2 26 -15c99 -123 141 -255 141 -413c0 -195 -89 -353 -157 -424c-8 -8 -17 -14 -22 -14c-3 0 -5 0 -7 3c-1 4 0 6 7 14c88 93 148 252 148 401z" />
    <glyph glyph-name="asterisk" unicode="*" horiz-adv-x="290" 
d="M125 615c2 0 4 -4 6 -11c6 -21 14 -56 18 -73c1 -6 3 -5 5 -1c6 9 33 46 41 56c6 7 9 9 11 9c4 0 1 -8 -1 -12c-6 -14 -37 -61 -39 -65c-1 -2 0 -4 2 -4c7 2 77 12 80 12c5 0 12 -1 12 -4c0 -2 -4 -5 -10 -7c-12 -4 -58 -15 -80 -18c-3 0 -3 -2 -1 -3
c14 -9 39 -27 55 -40c12 -9 14 -12 14 -16s-8 -1 -16 3c-25 14 -59 36 -65 39c-1 0 -2 -1 -2 -3c1 -8 5 -24 8 -44c3 -22 4 -31 4 -36c0 -3 -3 -11 -6 -11c-1 0 -4 1 -6 9c-2 5 -12 48 -18 81c0 4 -3 4 -4 2c-20 -30 -44 -61 -49 -65c-4 -4 -5 -6 -9 -6c-7 0 -2 11 10 31
c12 16 30 40 34 48c1 1 2 4 -3 3c-5 0 -64 -9 -73 -9c-8 0 -13 1 -13 5c0 2 4 7 13 9c25 6 41 9 71 14c4 1 3 2 2 3c-21 15 -56 39 -67 53c-4 5 1 7 7 5c4 -1 53 -30 73 -45c1 -1 2 0 2 2c-5 31 -9 66 -10 78c-1 7 2 11 4 11z" />
    <glyph glyph-name="plus" unicode="+" horiz-adv-x="410" 
d="M191 353c0 6 18 10 21 10c4 0 10 1 10 -12v-141c0 -2 2 -7 5 -7h141c3 0 5 -1 5 -7c0 -11 -4 -20 -8 -20l-138 -1c-3 0 -5 -6 -5 -11l-1 -146c0 -4 -10 -9 -21 -9c-2 0 -10 0 -10 6v153c0 6 -1 7 -4 7l-143 1c-5 0 -6 2 -6 6c0 9 5 20 11 20l137 1c4 0 5 6 5 8z" />
    <glyph glyph-name="comma" unicode="," horiz-adv-x="135" 
d="M59 69c26 0 54 -24 54 -70c0 -59 -59 -89 -81 -89c-5 0 -9 1 -9 4c0 2 4 4 9 6c24 10 49 29 49 66c0 16 -10 23 -22 26c-15 4 -32 7 -32 29c0 17 16 28 32 28z" />
    <glyph glyph-name="hyphen" unicode="-" horiz-adv-x="228" 
d="M45 212c6 1 129 18 148 19c2 0 4 -3 4 -6c0 -4 -1 -21 -6 -29c-1 -2 -7 -5 -8 -5c-10 -2 -134 -14 -143 -14c-6 0 -8 2 -8 6c0 3 0 17 4 23c2 3 5 5 9 6z" />
    <glyph glyph-name="period" unicode="." horiz-adv-x="135" 
d="M66 -12c-19 0 -36 19 -36 39c0 22 19 39 40 39c23 0 35 -22 35 -38c0 -28 -22 -40 -39 -40z" />
    <glyph glyph-name="slash" unicode="/" horiz-adv-x="370" 
d="M36 -58c91 232 181 479 269 711c2 4 15 12 21 12c5 0 7 -4 0 -21c-88 -231 -242 -649 -267 -702c-4 -8 -14 -16 -21 -16c-4 0 -7 1 -2 16z" />
    <glyph glyph-name="zero" unicode="0" horiz-adv-x="410" 
d="M211 602c121 0 163 -181 163 -297c0 -173 -51 -259 -98 -293c-20 -15 -42 -25 -69 -25c-123 0 -170 177 -170 298c0 152 36 252 113 301c18 11 38 16 61 16zM200 587c-18 0 -35 -9 -49 -27c-28 -39 -52 -104 -52 -237c0 -150 28 -320 115 -320c20 0 43 6 62 47
c18 39 35 126 35 229c0 153 -38 308 -111 308z" />
    <glyph glyph-name="one" unicode="1" horiz-adv-x="410" 
d="M117 559c0 3 5 6 12 7c26 5 74 17 89 26c10 5 19 10 23 10c2 0 3 -2 3 -7c0 -10 -1 -70 -2 -135c-2 -83 1 -320 1 -373c0 -62 2 -69 55 -78c9 -2 14 -5 14 -9s-6 -5 -17 -5c-34 0 -49 5 -92 5c-37 0 -54 -5 -79 -5c-11 0 -18 2 -18 7c0 4 8 7 17 8c51 9 55 11 58 77
c3 42 5 94 5 263c0 119 -1 148 -3 174c-1 10 -5 23 -9 23c-14 2 -28 3 -44 6c-7 1 -13 3 -13 6z" />
    <glyph glyph-name="two" unicode="2" horiz-adv-x="410" 
d="M189 602c91 0 138 -72 138 -145c0 -55 -25 -112 -71 -178c-46 -68 -129 -169 -164 -214c-2 -4 0 -8 3 -9c16 -5 52 -6 161 -6c36 0 79 1 82 1c17 3 32 4 50 36c5 9 10 12 12 12c4 0 4 -9 -1 -19c-12 -25 -27 -64 -28 -71c-3 -10 -7 -13 -13 -13c-12 0 -175 4 -215 4
c-27 0 -94 -2 -104 -2s-19 2 -19 5s7 12 12 16c44 44 106 127 148 187c56 80 89 154 89 223c0 79 -46 123 -106 123c-43 0 -75 -19 -111 -60c-8 -10 -11 -11 -14 -11c-4 0 -2 9 3 18c13 25 34 52 60 71c19 17 58 32 88 32z" />
    <glyph glyph-name="three" unicode="3" horiz-adv-x="410" 
d="M185 559c-36 0 -72 -25 -102 -64c-6 -7 -7 -9 -11 -9s-3 8 0 15c28 56 93 101 149 101c76 0 107 -57 107 -107c0 -63 -57 -115 -95 -146c-9 -7 -2 -7 0 -7h10c40 0 78 -19 98 -40c27 -28 41 -63 41 -103c0 -85 -53 -170 -146 -225c-41 -23 -82 -34 -115 -34
c-49 0 -77 19 -77 40c0 6 18 24 22 24s7 0 14 -6c19 -22 56 -26 78 -26c31 0 58 5 84 21c36 24 83 86 83 159c0 56 -18 93 -40 116c-26 26 -62 36 -84 36c-15 0 -34 -3 -51 -11c-9 -4 -14 -5 -14 1c0 4 3 8 10 12l28 16c79 42 100 98 100 142c0 52 -28 95 -89 95z" />
    <glyph glyph-name="four" unicode="4" horiz-adv-x="410" 
d="M316 397v-174c0 -4 2 -6 4 -6c41 0 58 1 82 2c2 0 4 -2 4 -5c0 -4 -6 -26 -14 -26l-73 1c-2 0 -3 -4 -3 -7c0 -18 0 -77 1 -101c2 -46 -1 -62 36 -68c15 -3 17 -5 17 -9c0 -3 -5 -7 -19 -7c-19 0 -42 3 -68 3c-32 0 -49 -3 -78 -3c-12 0 -17 3 -17 5c0 5 6 8 18 10
c48 6 46 15 50 78c2 24 2 75 2 88c0 3 -1 10 -5 10c-93 0 -207 -2 -227 -3c-8 0 -11 3 -11 6c0 5 2 9 14 26l291 425c8 12 10 12 15 13l8 1c10 1 12 -4 2 -17l-286 -411c-1 -3 -2 -7 4 -8c11 -2 57 -3 190 -3c3 0 5 4 5 5v170c0 6 0 13 7 18c10 8 30 15 43 15
c8 0 8 -9 8 -28z" />
    <glyph glyph-name="five" unicode="5" horiz-adv-x="410" 
d="M306 606c5 2 7 -5 5 -8c-8 -14 -19 -28 -26 -47c-2 -5 -5 -9 -12 -12c-19 -6 -129 -16 -159 -20c-4 0 -10 -6 -12 -10c-8 -15 -24 -71 -24 -78s3 -11 11 -14c40 -11 122 -42 166 -69c70 -43 102 -105 102 -167c0 -77 -39 -130 -82 -167c-62 -52 -152 -74 -193 -74h-16
c-6 2 -9 4 -9 7c0 4 3 5 19 8c107 17 226 88 226 208c0 65 -36 117 -105 148c-56 26 -107 38 -142 49c-3 1 -4 8 -4 16c0 22 41 162 57 188c4 6 10 13 14 13c38 5 114 15 137 19c21 3 38 6 47 10z" />
    <glyph glyph-name="six" unicode="6" horiz-adv-x="410" 
d="M410 649c7 0 11 -1 11 -4s-2 -5 -11 -9c-189 -82 -314 -295 -314 -448c0 -66 11 -109 34 -137c22 -29 57 -46 93 -46c51 0 104 46 104 140c0 67 -27 127 -103 127c-36 0 -72 -26 -77 -31s-13 -9 -13 -3c0 3 2 11 9 17c12 12 50 35 67 44c19 9 39 15 57 15
c72 0 113 -62 113 -133c0 -61 -27 -116 -73 -157c-17 -14 -57 -37 -106 -37c-102 0 -168 77 -168 192c0 136 85 283 225 393c45 35 124 77 152 77z" />
    <glyph glyph-name="seven" unicode="7" horiz-adv-x="410" 
d="M193 590c99 0 108 1 117 1c37 0 69 2 76 2c4 0 11 -1 11 -4s-2 -6 -3 -8c-12 -15 -41 -76 -76 -149c-73 -155 -154 -332 -223 -482c-3 -5 -10 -10 -11 -10c-6 0 -10 5 -10 12s8 25 17 42c74 155 177 368 248 527c2 5 1 10 -2 10c-13 2 -39 3 -106 3c-43 0 -111 0 -144 -2
c-33 -1 -38 -5 -54 -29c-4 -5 -9 -11 -12 -11c-5 0 -6 7 -1 19c7 13 20 42 23 64c2 9 3 14 5 18c2 3 7 3 12 2c15 -4 59 -5 133 -5z" />
    <glyph glyph-name="eight" unicode="8" horiz-adv-x="410" 
d="M213 611c76 0 145 -55 145 -140c0 -41 -20 -75 -58 -109c-13 -12 -29 -26 -58 -47c-2 -3 -3 -4 -1 -7c74 -58 113 -111 113 -177c0 -52 -29 -93 -67 -119c-25 -18 -62 -26 -83 -26c-72 0 -150 55 -150 141c0 56 38 95 68 120c18 15 39 29 50 37c1 0 1 4 -1 5
c-39 30 -116 96 -116 178c0 37 15 84 62 116c28 17 60 28 96 28zM195 597c-36 0 -88 -44 -88 -116c0 -64 80 -135 115 -158c4 -3 9 0 10 1c26 17 73 77 73 138c0 65 -41 135 -110 135zM210 1c17 0 33 5 46 13c29 16 48 50 48 95c0 67 -62 123 -112 167c-3 3 -9 0 -10 -1
c-37 -29 -72 -82 -72 -138c0 -101 67 -136 100 -136z" />
    <glyph glyph-name="nine" unicode="9" horiz-adv-x="410" 
d="M225 602c109 0 155 -114 155 -193c0 -182 -121 -350 -243 -432c-52 -34 -80 -42 -90 -42c-5 0 -8 0 -8 3c0 2 3 5 9 8c39 22 90 64 143 125c51 58 128 198 128 322c0 90 -38 185 -126 185c-23 0 -42 -6 -57 -19c-25 -22 -48 -60 -48 -117c0 -95 55 -132 118 -132
c25 0 47 7 77 30c4 3 8 2 8 -1c0 -9 -12 -19 -24 -29c-24 -19 -76 -42 -104 -42c-79 0 -128 69 -128 142c0 57 28 126 104 169c36 20 60 23 86 23z" />
    <glyph glyph-name="colon" unicode=":" horiz-adv-x="214" 
d="M105 -11c-19 0 -35 19 -35 39c0 22 18 39 39 39c24 0 35 -22 35 -38c0 -28 -22 -40 -39 -40zM105 255c-19 0 -35 19 -35 39c0 22 18 39 39 39c24 0 35 -23 35 -38c0 -28 -22 -40 -39 -40z" />
    <glyph glyph-name="semicolon" unicode=";" horiz-adv-x="214" 
d="M105 255c-19 0 -35 19 -35 39c0 22 18 39 39 39c24 0 35 -23 35 -38c0 -28 -22 -40 -39 -40zM97 69c26 0 54 -24 54 -70c0 -59 -59 -89 -81 -89c-5 0 -9 1 -9 4c0 2 4 4 9 6c24 10 49 29 49 66c0 16 -10 23 -22 26c-15 4 -32 7 -32 29c0 17 16 28 32 28z" />
    <glyph glyph-name="less" unicode="&#x3c;" horiz-adv-x="410" 
d="M339 66c1 -1 2 -4 1 -8s-6 -12 -11 -16c-1 -2 -8 -1 -12 1l-220 120c-24 14 -29 17 -29 21c0 3 2 7 9 11c6 4 16 10 241 140c7 4 11 3 13 1c4 -4 8 -11 9 -15c0 -2 0 -5 -4 -8l-216 -122c-3 -2 -6 -5 -1 -8z" />
    <glyph glyph-name="equal" unicode="=" horiz-adv-x="410" 
d="M368 140c3 0 5 -2 5 -8c0 -12 -5 -19 -8 -19h-320c-7 0 -9 3 -9 6c0 10 5 21 9 21h323zM369 265c1 0 4 -2 4 -8c0 -9 -4 -19 -7 -19h-322c-4 0 -6 5 -6 6c0 10 5 20 10 20c107 1 215 2 321 1z" />
    <glyph glyph-name="greater" unicode="&#x3e;" horiz-adv-x="410" 
d="M70 312c-1 1 -2 4 -1 8s7 13 12 17c1 2 7 1 11 -1l221 -121c24 -13 29 -17 29 -21c0 -3 -2 -7 -9 -11s-17 -9 -242 -139c-6 -4 -10 -3 -12 -1c-4 4 -9 10 -10 14c0 2 0 5 5 8l215 122c3 2 6 5 1 8z" />
    <glyph glyph-name="question" unicode="?" horiz-adv-x="351" 
d="M174 526c-10 0 -26 -4 -33 -7s-18 -5 -26 4c-10 11 -15 27 -15 38c0 7 6 20 39 20c41 0 90 -47 116 -87c37 -54 46 -99 46 -133c0 -35 -13 -65 -49 -83c-18 -9 -35 -16 -53 -27c-34 -18 -31 -50 -31 -71c0 -10 -2 -15 -6 -15c-3 0 -3 2 -8 10c-4 11 -12 52 -12 75
c0 17 4 28 13 38c17 15 52 31 76 45c26 15 39 37 39 67c0 55 -37 126 -96 126zM176 71c27 0 36 -30 36 -41c0 -25 -25 -39 -38 -39c-19 0 -39 14 -39 41c0 16 14 39 41 39z" />
    <glyph glyph-name="at" unicode="@" horiz-adv-x="753" 
d="M455 12c-66 0 -65 20 -65 23c0 5 -3 7 5 25l36 84c2 5 -3 6 -10 0c-75 -78 -149 -132 -187 -132c-21 0 -25 17 -25 38c0 18 29 82 86 153c47 58 132 124 165 124c10 0 30 -9 37 -17c1 -2 4 0 7 6l14 27c3 4 4 5 7 5c8 0 16 -3 20 -6c3 -1 3 -5 2 -8
c-18 -43 -94 -222 -108 -262c-10 -25 6 -43 38 -43c101 0 199 79 199 215c0 151 -116 249 -263 249c-199 0 -325 -178 -325 -366c0 -140 81 -292 279 -292c70 0 138 23 189 60c14 10 16 10 16 5s-7 -14 -12 -18c-56 -50 -137 -72 -213 -72c-157 0 -297 106 -296 316
c1 212 181 387 374 387c181 0 278 -120 278 -260c0 -123 -87 -241 -248 -241zM438 296c-21 0 -35 -6 -61 -30c-57 -54 -111 -148 -111 -201c0 -16 8 -18 18 -18c6 0 27 10 75 56c42 38 90 109 111 148c7 13 10 17 7 23c-7 13 -20 22 -39 22z" />
    <glyph glyph-name="A" unicode="A" horiz-adv-x="646" 
d="M333 646c3 0 5 -2 7 -8c4 -26 14 -51 28 -86c77 -206 119 -306 186 -462c26 -62 35 -71 61 -77c11 -2 17 -6 17 -9c0 -5 -9 -7 -18 -7c-16 0 -27 3 -81 3c-27 0 -69 -4 -90 -4c-10 0 -16 3 -16 7s10 8 19 9c45 6 46 26 46 45c0 12 -36 104 -73 201c-3 6 -9 12 -12 12
c-37 -3 -174 -2 -196 -3c-3 0 -11 -13 -14 -20c-9 -20 -39 -96 -55 -150c-12 -41 -11 -59 0 -70c8 -8 22 -12 41 -16c10 -2 15 -6 15 -9c0 -5 -9 -7 -19 -7c-19 0 -62 5 -99 5c-25 0 -42 -5 -63 -5c-11 0 -17 2 -17 7s10 7 20 9c46 9 52 16 91 101c27 57 117 280 179 434
c5 13 6 20 6 29c0 4 2 10 3 11c6 7 24 25 28 50c1 4 2 10 6 10zM397 301c-1 0 1 6 0 10c-45 126 -69 179 -86 220c-3 7 -5 4 -8 -3c-28 -68 -68 -179 -82 -221c-1 0 -2 -9 3 -9c16 -1 42 -1 80 -1c34 0 81 0 93 4z" />
    <glyph glyph-name="B" unicode="B" horiz-adv-x="524" 
d="M39 625c0 4 7 6 17 6c9 0 73 1 96 4c21 3 57 8 88 8c101 0 193 -48 193 -163c0 -38 -25 -74 -39 -87c-18 -14 -38 -28 -58 -36c-6 -3 -2 -6 1 -8c44 -18 65 -33 89 -52c32 -27 53 -71 53 -122c0 -79 -42 -129 -110 -160c-20 -9 -57 -21 -113 -21c-17 0 -30 -1 -69 1
s-63 2 -84 2h-53c-17 0 -22 4 -22 7c0 5 8 7 16 8c42 5 55 21 58 57c3 28 3 172 3 283c0 51 -1 174 -3 213c-2 35 -9 45 -49 52c-12 2 -14 6 -14 8zM410 165c0 32 -10 80 -36 110c-46 57 -76 64 -153 64c-23 0 -40 -1 -50 -2c-5 -1 -8 -8 -9 -13c-3 -20 0 -155 3 -186
c5 -52 9 -76 14 -86c8 -16 34 -42 96 -42c16 0 40 4 64 17c33 19 71 53 71 138zM369 478c0 94 -61 148 -153 148c-17 0 -37 -2 -42 -4c-4 -1 -10 -13 -10 -16c-2 -17 -2 -140 -2 -230c0 -4 2 -16 8 -16c15 -3 62 -4 74 -3c53 4 125 47 125 121z" />
    <glyph glyph-name="C" unicode="C" horiz-adv-x="642" 
d="M385 649c82 0 167 -34 199 -53c6 -4 9 -11 9 -16c-3 -24 2 -64 2 -75c0 -9 -3 -16 -6 -16c-4 0 -7 6 -9 13c-8 34 -30 66 -47 80c-37 35 -100 52 -156 52c-90 0 -147 -43 -186 -84c-38 -41 -74 -131 -74 -229c0 -96 45 -190 95 -244c50 -53 122 -74 177 -74
c56 0 93 10 121 27c39 23 64 58 78 100c4 14 7 18 10 18c4 0 6 -8 6 -15c0 -17 -12 -70 -14 -82c-1 -4 -4 -8 -8 -11c-60 -35 -117 -58 -197 -58c-118 0 -192 44 -256 109c-40 41 -83 135 -83 219c0 121 49 199 113 257c52 47 138 82 226 82z" />
    <glyph glyph-name="D" unicode="D" horiz-adv-x="682" 
d="M43 627c0 3 6 5 15 5c43 0 87 0 128 4c27 3 60 7 80 7c76 0 149 -13 218 -54c82 -51 152 -137 152 -270c0 -196 -136 -290 -261 -322c-21 -6 -59 -8 -87 -8c-22 0 -46 2 -74 4c-30 2 -58 5 -87 5c-27 0 -57 -2 -68 -2s-19 3 -19 8c0 3 5 6 17 7c35 5 44 15 46 54
c2 24 3 140 3 194c0 178 -3 276 -5 307c-2 34 -6 45 -46 53c-10 1 -12 4 -12 8zM252 626c-31 0 -65 -6 -75 -10c-3 -1 -11 -8 -11 -27c-1 -35 -2 -65 -2 -249c0 -110 3 -167 6 -217c4 -58 9 -78 34 -97c14 -11 45 -22 88 -22c52 0 90 9 120 25c64 33 153 104 153 273
c0 95 -29 178 -91 237c-53 50 -118 87 -222 87z" />
    <glyph glyph-name="E" unicode="E" horiz-adv-x="506" 
d="M45 629c0 2 6 5 14 5c23 0 45 -3 77 -3c45 0 190 2 230 2c37 0 49 2 60 2c4 0 7 -5 9 -17c1 -12 2 -41 7 -64c1 -6 0 -15 -4 -15c-3 0 -5 3 -10 14c-19 45 -34 55 -52 58c-27 5 -178 5 -200 3c-8 -1 -12 -3 -12 -37v-233c0 -15 3 -18 6 -18h136c51 0 59 2 67 7
c7 3 16 15 26 35c4 8 7 11 10 11s5 -4 5 -11c0 -6 -4 -32 -6 -50c-2 -20 1 -48 2 -54c3 -15 -4 -21 -6 -21c-4 0 -5 5 -12 22c-3 9 -10 25 -24 30c-21 6 -51 7 -195 7c-9 0 -9 -1 -9 -23c0 -50 3 -187 3 -206c0 -11 7 -36 27 -46c17 -9 31 -11 103 -11c96 0 109 3 127 19
c9 8 25 32 35 46s14 18 18 18s5 -6 1 -18c-8 -27 -16 -62 -22 -74c-3 -6 -7 -11 -13 -11c-106 0 -220 4 -302 4c-33 0 -85 -5 -96 -5c-12 0 -18 3 -18 7s7 6 18 8c36 6 55 20 56 64c4 162 5 259 5 467c0 59 -11 71 -47 79c-10 2 -14 5 -14 9z" />
    <glyph glyph-name="F" unicode="F" horiz-adv-x="475" 
d="M172 631c96 0 197 3 235 3c25 0 32 -3 33 -10c2 -16 5 -54 7 -68c2 -10 0 -18 -4 -18c-5 0 -8 9 -13 20c-17 38 -38 49 -73 52c-33 3 -79 3 -175 3c-8 0 -16 -14 -16 -19c0 -28 -2 -118 0 -259c0 -10 7 -13 9 -13c98 0 158 2 174 3c12 1 28 2 44 36c5 11 8 14 10 14
c4 0 6 -3 5 -14c-1 -12 -5 -41 -5 -61c0 -18 4 -30 4 -44c0 -13 -2 -16 -6 -16s-8 6 -14 22c-6 17 -16 29 -28 32c-15 3 -22 5 -184 5c-2 0 -10 -9 -10 -13c-1 -16 0 -175 2 -220c2 -40 6 -46 53 -57c9 -2 14 -5 14 -9c0 -6 -10 -6 -21 -6c-10 0 -51 6 -91 6
c-34 0 -61 -4 -68 -4s-15 2 -15 6s4 7 18 10c39 9 43 15 45 54c3 33 3 164 3 274c0 107 0 162 -3 224c-2 36 -3 46 -41 55c-9 2 -16 5 -16 10c0 4 8 6 15 6c9 0 68 -4 112 -4z" />
    <glyph glyph-name="G" unicode="G" horiz-adv-x="692" 
d="M412 649c49 0 88 -14 111 -19c24 -7 58 -20 68 -25c6 -3 10 -13 10 -24c0 -6 6 -44 8 -56c3 -13 -1 -19 -4 -19c-5 0 -6 2 -12 16c-30 72 -86 112 -192 112c-76 0 -150 -33 -196 -82c-48 -52 -86 -133 -86 -243c0 -118 68 -209 121 -252c48 -38 109 -59 163 -59
c52 0 100 21 125 46c13 15 13 31 15 55c2 20 4 81 1 112c-3 35 -15 46 -59 52c-10 1 -17 4 -17 8c0 3 4 7 24 6c16 0 42 -3 77 -3c36 0 50 2 58 2c9 0 16 -2 16 -6c0 -5 -12 -8 -19 -10c-14 -3 -20 -10 -20 -63c0 -42 5 -114 5 -128c0 -13 1 -20 -7 -24l-47 -24
c-45 -21 -93 -39 -148 -39c-109 0 -190 37 -254 94c-70 59 -107 141 -107 239c0 103 40 190 134 262c46 34 106 72 232 72z" />
    <glyph glyph-name="H" unicode="H" horiz-adv-x="740" 
d="M105 320l17 -16c0 52 -1 182 -3 220c-3 58 -1 70 -44 81c-11 2 -16 6 -16 9c0 5 6 6 17 6c16 0 45 -5 75 -5c25 0 62 4 75 4c11 0 15 -2 15 -6c0 -3 -5 -7 -13 -8c-36 -8 -41 -24 -44 -57c-2 -24 -3 -193 -3 -212c0 -10 2 -19 8 -20c28 -2 178 -1 277 -1
c92 0 104 3 109 3c7 1 8 3 9 18c2 33 -2 146 -4 183c-3 63 -3 81 -47 87c-8 1 -14 4 -14 8c0 2 4 5 13 5c22 0 56 -4 86 -4c31 0 54 4 72 4c11 0 16 -1 16 -5c0 -3 -3 -6 -14 -9c-44 -9 -46 -27 -46 -74c-1 -40 0 -180 2 -249c2 -68 2 -110 5 -214c2 -50 7 -63 50 -72
c11 -3 15 -5 15 -9s-5 -6 -15 -6c-14 0 -68 3 -90 3c-19 0 -51 -2 -69 -2c-12 0 -19 2 -19 7c0 3 4 6 16 8c34 7 44 13 45 56c1 51 3 187 1 207c-1 14 -1 24 -7 24c-32 2 -175 4 -273 4c-47 0 -108 1 -120 1c-3 0 -7 -8 -7 -25c0 -124 6 -215 10 -235c4 -21 20 -29 39 -34
c-3 13 0 9 0 6c0 -4 -7 -6 -17 -6c-19 0 -52 5 -82 5c-25 0 -58 -4 -73 -4c-10 0 -16 3 -16 6c0 5 7 8 17 10c34 7 41 17 43 48s4 103 4 260z" />
    <glyph glyph-name="I" unicode="I" horiz-adv-x="270" 
d="M41 630c0 3 5 5 15 5c28 0 47 -4 78 -4c28 0 56 4 78 4c7 0 14 -2 14 -4c0 -4 -4 -8 -15 -9c-39 -7 -43 -20 -45 -62c-3 -53 -2 -169 -2 -234c0 -147 3 -234 5 -262c3 -38 8 -43 38 -51c14 -3 17 -6 17 -10c0 -5 -7 -6 -19 -6c-9 0 -38 3 -62 3c-43 0 -73 -5 -91 -5
c-9 0 -15 2 -15 7c0 3 6 6 23 10c37 8 42 24 43 84c2 57 1 341 1 394c0 49 -3 72 -5 87c-3 33 -12 37 -47 45c-7 2 -11 4 -11 8z" />
    <glyph glyph-name="J" unicode="J" horiz-adv-x="257" 
d="M106 67c0 149 -1 372 -3 447c-3 90 -7 95 -54 106c-10 2 -18 3 -18 9c0 4 7 6 20 6c14 0 40 -4 87 -4c34 0 55 4 72 4c11 0 14 -3 14 -6c0 -5 -10 -8 -17 -9c-40 -7 -42 -14 -42 -141c0 -57 -1 -226 -1 -317c0 -93 -7 -159 -19 -197c-35 -116 -118 -167 -175 -167
c-24 0 -42 14 -42 24c0 7 16 23 27 34c6 6 14 9 18 9c3 0 13 -2 24 -9c17 -10 26 -10 37 -10c15 0 25 4 41 22c22 26 31 99 31 199z" />
    <glyph glyph-name="K" unicode="K" horiz-adv-x="602" 
d="M138 631c30 0 53 3 72 3c12 0 15 -3 15 -6c0 -4 -8 -7 -17 -8c-40 -9 -45 -24 -45 -112v-152c0 -17 2 -17 6 -15c17 14 32 27 48 43c18 17 158 157 184 186c13 16 18 21 18 28c0 10 -13 13 -32 17c-12 3 -15 6 -15 9c0 4 6 7 16 7c19 0 38 -1 66 0c39 2 77 5 93 5
c9 0 12 -3 12 -5c0 -4 -5 -7 -16 -9c-43 -9 -71 -23 -118 -63c-37 -32 -133 -126 -197 -190c-3 -3 -7 -7 -7 -10c0 -2 4 -6 10 -13c38 -40 229 -247 275 -290c36 -33 52 -37 77 -43c14 -4 19 -7 19 -11c0 -6 -9 -8 -18 -8c-22 0 -74 6 -110 6c-35 0 -47 -3 -60 -3
c-12 0 -19 2 -19 7c0 3 4 8 16 11c22 4 26 9 26 15c0 8 -7 17 -19 30c-84 95 -233 251 -244 262c-5 4 -6 4 -7 4c-4 0 -4 -5 -4 -19v-105c0 -51 2 -133 4 -153c3 -23 17 -31 44 -36c15 -3 20 -6 20 -11s-10 -7 -19 -7c-25 0 -52 5 -79 5c-35 0 -61 -4 -76 -4
c-11 0 -16 3 -16 6c0 4 2 7 17 10c32 7 41 18 43 39c2 22 5 87 5 305c1 71 -1 193 -4 221c-4 35 -17 37 -45 45c-7 2 -13 4 -13 8c0 3 5 6 15 6c20 0 52 -5 79 -5z" />
    <glyph glyph-name="L" unicode="L" horiz-adv-x="493" 
d="M37 630c0 2 5 5 16 5c30 0 60 -4 84 -4c26 0 56 4 73 4c12 0 16 -3 16 -5c0 -4 -4 -7 -12 -9c-44 -9 -45 -15 -49 -87c-1 -17 -1 -103 -1 -194c0 -98 1 -201 2 -220c3 -41 5 -70 14 -81c11 -14 38 -25 124 -25c53 0 79 2 94 5c23 4 42 25 62 62c5 9 11 14 15 14
s2 -14 -2 -25c-3 -9 -20 -60 -25 -67c-6 -8 -13 -10 -17 -10c-10 0 -88 -1 -137 2c-51 2 -126 5 -156 5c-31 0 -74 -5 -87 -5c-12 0 -20 2 -20 7c0 4 9 7 17 8c45 8 50 23 53 53c4 41 4 107 4 246c0 136 -1 207 -3 239c-3 59 -5 65 -51 73c-11 2 -14 5 -14 9z" />
    <glyph glyph-name="M" unicode="M" horiz-adv-x="827" 
d="M17 630c0 4 9 6 19 5c17 -1 76 -4 99 -4c3 0 8 -3 13 -14c47 -102 187 -379 262 -520c4 -7 6 -2 10 5c73 139 202 386 227 436c9 19 24 61 30 81c1 2 4 12 9 12c20 0 83 6 98 6c8 0 14 -2 14 -6c0 -3 -7 -7 -14 -8c-59 -15 -64 -26 -67 -86c-2 -31 -3 -159 -3 -210
c0 -109 3 -207 5 -238c4 -59 15 -67 54 -78c9 -3 15 -6 15 -11c0 -4 -5 -6 -18 -6c-12 0 -69 6 -91 6c-43 0 -60 -2 -75 -2c-11 0 -22 1 -22 8c0 4 10 8 21 9c42 11 49 25 52 110c3 55 3 335 3 375c0 13 -3 9 -5 4c-67 -132 -197 -379 -248 -492c-5 -10 -9 -16 -14 -16
s-13 17 -24 40c-51 106 -179 367 -222 456c-5 8 -8 8 -9 -5c-4 -65 -16 -334 -16 -363c0 -30 0 -53 6 -75c6 -24 31 -33 51 -38c11 -2 17 -6 17 -10c0 -5 -9 -7 -20 -6c-10 1 -46 5 -83 5s-64 -6 -74 -6c-11 0 -17 2 -17 7c0 3 5 7 18 9c32 5 43 19 54 34
c10 14 15 49 21 107c6 59 20 289 20 348c0 60 -7 75 -24 95c-18 21 -37 22 -56 27c-10 2 -16 6 -16 9z" />
    <glyph glyph-name="N" unicode="N" horiz-adv-x="738" 
d="M21 629c0 4 5 7 22 7c21 0 68 -5 104 -5c5 0 9 -4 23 -22c65 -84 338 -393 435 -501c1 -1 6 -3 6 8c0 40 -4 335 -5 426c0 60 -20 69 -51 77c-12 3 -19 5 -19 9c0 5 9 6 20 6c18 0 44 -3 67 -3c30 0 52 3 63 3c10 0 16 -1 16 -5c0 -5 -9 -7 -17 -10
c-39 -13 -40 -34 -44 -60c-4 -30 -6 -254 -6 -348c0 -92 -2 -150 0 -203c1 -20 1 -30 -6 -30c-4 0 -16 15 -34 37c-63 77 -317 368 -457 532c-5 6 -8 5 -8 -2c0 -40 -3 -373 -3 -416c0 -44 3 -68 11 -85c8 -18 35 -28 49 -32c11 -3 18 -5 18 -11c0 -5 -9 -6 -19 -6
c-17 0 -44 5 -76 5c-31 0 -62 -5 -69 -5c-15 0 -17 3 -17 6c0 5 8 7 19 10c39 11 48 21 53 79c3 36 11 376 11 438c0 59 -9 66 -18 73c-13 10 -25 15 -49 19c-14 2 -19 4 -19 9z" />
    <glyph glyph-name="O" unicode="O" horiz-adv-x="734" 
d="M368 649c169 0 320 -155 320 -341c0 -162 -110 -262 -187 -296c-40 -18 -85 -30 -129 -30c-178 0 -326 159 -326 342c0 100 33 188 129 261c51 40 129 64 193 64zM348 634c-56 0 -123 -36 -157 -75c-56 -65 -75 -158 -75 -236c0 -71 30 -153 73 -211
c68 -91 144 -111 201 -111c39 0 74 11 108 36c55 41 121 134 121 270c0 85 -34 179 -94 247c-39 44 -94 80 -177 80z" />
    <glyph glyph-name="P" unicode="P" horiz-adv-x="500" 
d="M42 628c0 3 7 7 16 7c15 0 44 1 71 2c23 1 80 7 97 7c80 0 141 -22 179 -64c35 -36 52 -87 52 -131c0 -95 -48 -139 -84 -163c-35 -25 -79 -30 -104 -30c-14 0 -26 2 -32 4s-12 5 -12 9c0 2 3 5 11 4c9 -1 12 -1 22 -1c33 0 135 26 135 171c0 30 -8 91 -50 133
c-32 34 -67 54 -119 54c-19 0 -43 -4 -51 -7c-4 -2 -9 -10 -9 -19c0 -18 1 -228 1 -335c0 -108 2 -176 4 -204c3 -39 15 -49 46 -54c15 -2 20 -5 20 -9c0 -5 -7 -7 -16 -7c-30 0 -49 5 -96 5c-25 0 -50 -4 -61 -4c-9 0 -18 1 -18 6c0 3 3 6 17 9c30 6 41 13 43 46
c1 23 2 138 2 295c0 82 -5 215 -7 235c-1 19 -13 30 -41 33c-6 1 -16 3 -16 8z" />
    <glyph glyph-name="Q" unicode="Q" horiz-adv-x="734" 
d="M368 649c100 0 163 -37 211 -80c64 -57 109 -156 109 -254c0 -127 -50 -187 -90 -230c-28 -31 -83 -68 -127 -86c-1 0 -6 -4 -3 -7c15 -19 121 -83 219 -125c71 -30 131 -50 217 -50c39 0 90 13 120 28c7 3 13 0 13 -3c0 -4 -10 -13 -14 -15c-40 -21 -115 -43 -167 -43
c-120 0 -181 28 -288 79c-54 26 -114 63 -196 109c-13 7 -32 18 -53 23c-52 13 -116 36 -170 84c-46 41 -103 122 -103 244c0 83 30 154 73 208c49 57 129 118 249 118zM357 634c-34 0 -90 -10 -137 -51c-70 -60 -107 -156 -104 -268c3 -117 45 -173 81 -217
c59 -70 153 -98 198 -98c29 0 75 10 111 36c46 31 112 120 112 264c0 87 -27 164 -68 220c-35 47 -86 114 -193 114z" />
    <glyph glyph-name="R" unicode="R" horiz-adv-x="550" 
d="M236 636c60 0 99 -11 132 -35c43 -31 62 -76 62 -120c0 -67 -34 -96 -57 -114c-17 -15 -45 -27 -61 -33c-4 -2 -2 -9 2 -19c20 -39 85 -141 113 -179c31 -42 52 -67 73 -88c32 -32 61 -41 79 -41c8 0 13 -3 13 -6c0 -2 -4 -5 -12 -8s-24 -4 -38 -4c-61 0 -101 33 -138 79
c-51 65 -135 203 -149 220c-10 11 -19 20 -31 23c-10 3 -24 5 -50 4c-5 0 -9 -4 -10 -8c-2 -10 -3 -138 -2 -178c1 -46 5 -82 8 -91c4 -12 11 -22 47 -28c11 -2 15 -4 15 -8s-8 -7 -20 -7c-21 0 -40 5 -74 5c-37 0 -66 -5 -85 -5c-10 0 -17 2 -17 7c0 4 7 6 20 9
c31 6 42 15 45 57c3 57 5 132 5 277c0 140 -4 193 -6 225c-2 29 -4 43 -46 50c-9 2 -17 4 -17 9c0 3 5 6 18 6c14 0 38 -4 74 -4c37 0 74 5 107 5zM202 621c-13 0 -28 -4 -33 -7c-2 -1 -5 -1 -6 -17c-1 -20 -1 -232 -1 -248c0 -15 4 -18 7 -18c6 -1 19 -1 27 -1
c29 0 91 8 111 21c28 20 60 61 60 115c0 53 -16 91 -42 115c-27 25 -63 40 -123 40z" />
    <glyph glyph-name="S" unicode="S" horiz-adv-x="430" 
d="M257 649c42 0 90 -13 105 -17c5 -2 7 -8 7 -11c0 -27 3 -55 4 -65c2 -14 -2 -20 -5 -20c-4 0 -7 4 -9 15c-6 26 -17 47 -36 59c-23 17 -56 24 -82 24c-46 0 -118 -44 -118 -129c0 -60 41 -97 75 -120c41 -27 73 -51 104 -74c36 -26 90 -71 90 -153
c0 -109 -103 -176 -204 -176c-40 0 -101 11 -132 28c-13 7 -16 13 -19 30c-2 17 -8 43 -9 68c-1 8 0 17 5 17c4 0 7 -5 11 -19c18 -76 82 -107 146 -107c83 0 136 70 136 136c0 74 -51 110 -125 160c-68 46 -133 101 -133 185c0 58 23 98 63 129c26 21 71 40 126 40z" />
    <glyph glyph-name="T" unicode="T" horiz-adv-x="562" 
d="M281 631l188 1c27 0 46 2 63 11c4 3 7 3 8 1c1 -3 1 -5 0 -12c-3 -12 -3 -36 -3 -72c0 -15 -4 -23 -8 -23s-6 9 -7 15c-2 18 -9 37 -17 45c-9 8 -20 10 -99 10c-27 0 -80 0 -97 -2c-5 -1 -6 -8 -6 -14c0 -36 -1 -263 -1 -303c-1 -57 3 -193 6 -224c4 -37 14 -43 47 -53
c12 -3 17 -5 17 -10c0 -6 -7 -7 -20 -7c-24 0 -48 6 -84 6c-44 0 -74 -6 -90 -6c-13 0 -18 4 -18 9c0 4 10 7 21 9c47 6 53 23 56 69c7 95 7 497 5 512c-1 9 -4 12 -7 13c-6 1 -29 3 -75 3c-45 0 -70 -2 -93 -5c-18 -3 -30 -15 -44 -54c-4 -10 -10 -16 -13 -16
c-4 0 -4 9 -3 15c5 29 14 59 14 84c0 9 0 13 4 15c2 1 6 -1 8 -4c4 -5 20 -9 33 -10c17 -1 112 -3 215 -3z" />
    <glyph glyph-name="U" unicode="U" horiz-adv-x="666" 
d="M123 631c26 0 57 2 77 2c11 0 15 -2 15 -5c0 -5 -7 -8 -15 -10c-55 -8 -51 -49 -51 -97c-2 -96 -2 -241 0 -280c2 -66 20 -127 56 -163c37 -38 93 -57 145 -57c120 0 194 60 201 254c2 37 3 85 3 122c0 192 -7 206 -36 215l-24 6c-6 1 -14 6 -14 9c0 5 5 6 15 6
c18 0 36 -2 67 -2c21 0 47 3 71 3c9 0 17 -2 17 -5c0 -5 -6 -8 -21 -11c-39 -7 -41 -28 -43 -73c-5 -65 -4 -206 -10 -278c-7 -74 -15 -157 -73 -219c-52 -55 -127 -64 -174 -64c-50 0 -112 13 -154 46c-59 47 -82 108 -86 222c-3 70 -1 242 -5 301c-4 53 -5 57 -48 69
c-3 1 -10 4 -10 9c0 4 8 4 18 4c18 0 46 -4 79 -4z" />
    <glyph glyph-name="V" unicode="V" horiz-adv-x="611" 
d="M-8 629c0 4 10 6 19 6c17 0 64 -4 77 -4c32 0 72 4 89 4c15 0 19 -4 19 -6c0 -6 -8 -9 -21 -11c-23 -3 -35 -16 -35 -29s4 -25 11 -46c18 -54 146 -388 170 -441c1 -3 4 -5 5 -2c16 36 141 357 158 405c11 30 20 62 20 79c0 23 -19 29 -50 37c-10 2 -17 5 -17 9
c0 3 4 6 19 6c21 0 63 -5 84 -5c23 0 49 4 64 4c13 0 17 -2 17 -4c0 -4 -3 -8 -19 -12c-35 -10 -48 -21 -83 -100c-19 -43 -77 -189 -172 -420c-23 -58 -37 -97 -40 -109c-1 -6 -4 -12 -7 -12c-6 0 -7 8 -11 21c-32 95 -179 474 -221 573c-11 26 -28 43 -57 47
c-12 2 -19 6 -19 10z" />
    <glyph glyph-name="W" unicode="W" horiz-adv-x="932" 
d="M-12 628c0 3 7 7 20 7c24 0 59 -4 88 -4c22 0 39 2 59 2c15 0 20 -3 20 -7c0 -5 -5 -8 -17 -10c-31 -5 -30 -19 -23 -35c43 -108 146 -335 216 -488c3 -7 7 -5 9 0c34 70 58 122 88 192c2 2 2 10 2 11c-19 43 -81 190 -103 238c-29 64 -36 75 -66 83c-19 4 -22 8 -22 12
c0 3 6 6 18 6c30 0 40 -4 76 -4c38 0 50 4 76 4c9 0 17 -2 17 -6c0 -5 -8 -8 -18 -10c-31 -6 -40 -20 -23 -62c18 -46 43 -103 81 -194c1 -2 4 -3 7 2c30 61 46 99 68 149c36 86 35 95 -8 104c-19 4 -20 7 -20 11c0 3 6 5 18 5c26 0 39 -3 65 -3c41 0 51 4 76 4
c11 0 16 -1 16 -5s-5 -7 -19 -10c-39 -9 -59 -34 -91 -91c-29 -56 -87 -172 -97 -192c-1 -2 -1 -6 1 -11c30 -70 69 -157 104 -235c4 -8 6 -7 9 -1c52 114 181 412 199 482c4 19 4 37 -29 47c-16 4 -22 6 -22 10s3 6 17 6c26 0 38 -4 70 -4c27 0 54 4 73 4c14 0 17 -2 17 -5
c0 -4 -5 -7 -24 -11c-44 -11 -60 -38 -121 -172c-62 -133 -162 -373 -193 -444c-6 -16 -9 -23 -14 -23c-6 0 -10 7 -15 23c-21 62 -74 179 -107 254c-2 3 -5 4 -7 1c-38 -76 -91 -197 -112 -253c-7 -16 -11 -25 -16 -25s-7 7 -14 25l-58 138c-55 129 -114 261 -162 365
c-41 89 -50 106 -89 111c-11 1 -20 5 -20 9z" />
    <glyph glyph-name="X" unicode="X" horiz-adv-x="618" 
d="M4 629c0 5 9 7 20 7c34 0 65 -5 96 -5c44 0 71 3 85 3c8 0 15 -2 15 -5c0 -5 -9 -9 -16 -10c-41 -7 -42 -24 -30 -43c12 -23 126 -207 139 -219c2 -2 5 -2 8 2l113 175c21 37 26 51 26 60c0 15 -11 21 -34 24c-11 1 -19 3 -19 8c0 4 7 8 21 8s43 -3 60 -3c42 0 51 5 82 5
c8 0 17 -2 17 -6s-9 -8 -14 -9c-49 -11 -59 -24 -96 -69c-22 -27 -57 -77 -148 -213c-1 -1 -2 -7 -1 -8c126 -202 162 -247 182 -274c23 -32 41 -38 73 -46c18 -5 21 -7 21 -12c0 -3 -5 -5 -14 -5c-10 0 -50 6 -119 6c-44 0 -60 -3 -72 -3s-20 2 -20 8c0 2 6 7 18 9
c43 7 47 14 30 49c-10 18 -117 189 -130 212c-2 3 -9 8 -12 3c-53 -76 -116 -180 -128 -203c-9 -18 -11 -24 -11 -31c0 -11 6 -22 41 -31c11 -3 14 -6 14 -9c0 -5 -8 -7 -17 -7c-5 0 -42 3 -81 3c-33 0 -56 -5 -77 -5c-11 0 -18 3 -18 7s9 8 17 9c38 5 64 28 79 43
c15 18 119 169 172 244c2 2 0 9 -2 12c-5 9 -125 192 -162 246c-35 50 -47 57 -89 64c-10 1 -19 5 -19 9z" />
    <glyph glyph-name="Y" unicode="Y" horiz-adv-x="586" 
d="M1 630c0 5 6 6 19 6c14 0 62 -5 93 -5c30 0 60 3 71 3c12 0 16 -3 16 -6c0 -5 -6 -8 -17 -10c-24 -5 -29 -11 -29 -18c0 -6 6 -21 17 -39c18 -31 110 -188 135 -222c1 -1 9 -6 12 -1c41 67 107 173 125 205c17 27 24 42 24 52c0 12 -8 19 -36 25c-9 1 -18 5 -18 10
c0 3 6 5 16 5c28 0 44 -4 72 -4c24 0 50 4 66 4c12 0 18 -2 18 -6s-6 -8 -22 -10c-29 -5 -48 -20 -67 -45c-53 -66 -123 -188 -156 -241c-10 -17 -15 -33 -16 -42c-3 -24 -3 -88 -3 -135c0 -26 0 -46 2 -80c3 -46 8 -60 43 -66c17 -3 21 -6 21 -10c0 -5 -9 -6 -17 -6
c-32 0 -65 6 -89 6c-29 0 -43 -4 -70 -4c-14 0 -21 4 -21 8s9 7 22 9c39 4 43 13 46 54c2 21 4 86 4 130c0 62 -1 83 -3 94c-1 6 -3 16 -6 21c-39 68 -119 201 -148 243c-31 44 -54 60 -82 65c-16 3 -22 7 -22 10z" />
    <glyph glyph-name="Z" unicode="Z" horiz-adv-x="611" 
d="M67 645c8 -3 20 -9 40 -10c19 -1 150 -4 367 -4c47 0 75 1 87 3c6 1 9 -7 3 -14s-54 -59 -90 -117c-35 -55 -300 -424 -327 -469c-2 -3 -4 -9 4 -9c127 0 300 2 339 7c23 3 36 6 52 22c10 10 24 30 36 50c4 8 8 14 14 14c4 0 4 -8 2 -16c-4 -10 -19 -66 -22 -92
c-1 -10 -24 -10 -40 -10c-18 0 -322 -1 -368 -1c-38 0 -82 -2 -105 -3c-10 0 -15 5 -8 13c87 113 345 477 415 583c4 6 4 13 1 13c-20 1 -326 0 -356 -2c-13 -1 -21 -3 -34 -13c-12 -11 -34 -36 -46 -54c-6 -9 -9 -9 -13 -9c-6 0 -5 10 0 18c19 35 32 82 37 94
c2 6 4 10 12 6z" />
    <glyph glyph-name="bracketleft" unicode="[" horiz-adv-x="279" 
d="M229 659c0 -5 -11 -7 -21 -8c-9 -1 -64 -5 -79 -7c-8 -1 -9 -12 -10 -19c-3 -59 -4 -174 -4 -309c0 -166 4 -362 7 -420c1 -23 7 -36 17 -38c17 -3 70 -6 75 -6s21 -1 21 -8c0 -6 -11 -9 -22 -9c-8 0 -43 1 -68 1s-42 -1 -48 -1c-7 0 -10 7 -10 29v784c0 12 0 14 4 15
c3 3 9 3 14 3c52 0 91 1 104 1c12 0 20 -3 20 -8z" />
    <glyph glyph-name="backslash" unicode="\" horiz-adv-x="372" 
d="M59 644c88 -234 173 -448 263 -682c3 -7 9 -27 -1 -27c-7 0 -14 4 -22 25c-91 235 -179 455 -267 691c0 4 -2 14 6 14c9 0 18 -9 21 -21z" />
    <glyph glyph-name="bracketright" unicode="]" horiz-adv-x="281" 
d="M44 662c0 5 12 6 24 6c6 0 41 -1 67 -1c25 0 47 1 53 1c3 0 5 -6 5 -30v-569c0 -142 1 -203 1 -214s-1 -13 -3 -15s-11 -3 -17 -3c-51 0 -85 -1 -98 -1c-12 0 -24 3 -24 9c0 5 15 6 24 7c10 0 58 4 73 6c11 1 11 12 12 20c3 59 4 174 4 309c0 166 -4 368 -7 427
c-1 16 -2 31 -14 33c-20 2 -75 5 -80 5s-20 3 -20 10z" />
    <glyph glyph-name="asciicircum" unicode="^" horiz-adv-x="410" 
d="M207 581c5 0 13 -16 18 -25l102 -194c3 -5 4 -9 2 -12c-5 -5 -22 -10 -23 -6l-97 188c-2 3 -4 4 -6 1l-102 -193c-2 -3 -14 -1 -21 6c-2 2 -1 8 1 13l105 195c13 24 17 27 21 27z" />
    <glyph glyph-name="underscore" unicode="_" horiz-adv-x="485" 
d="M0 -121h485v-49h-485v49z" />
    <glyph glyph-name="quoteleft" unicode="&#x2018;" horiz-adv-x="128" 
d="M76 521c-39 0 -61 34 -61 66c0 65 70 93 85 93c5 0 9 0 9 -5c0 -2 -6 -5 -12 -7c-32 -17 -50 -37 -50 -66c0 -21 11 -32 38 -38c7 0 19 -7 19 -20c0 -10 -12 -23 -28 -23z" />
    <glyph glyph-name="a" unicode="a" horiz-adv-x="334" 
d="M180 369c31 0 64 -19 76 -55c5 -16 9 -57 9 -88c0 -32 -4 -132 -4 -158c0 -21 9 -40 39 -40c9 0 19 3 30 9c6 3 10 2 6 -8c-11 -24 -40 -40 -70 -40c-24 0 -47 20 -56 45c-1 2 -4 2 -5 1c-30 -26 -59 -45 -99 -45c-41 0 -79 34 -79 84c0 32 28 51 36 55
c23 13 117 43 135 49c9 3 14 13 14 15c1 12 2 29 2 46c0 41 -7 73 -25 86c-14 10 -31 16 -43 16c-16 0 -25 -3 -42 -14c-8 -7 -15 -14 -18 -27c-1 -4 -1 -9 -1 -15c0 -3 -2 -6 -4 -8c-9 -6 -37 -18 -41 -18s-8 5 -8 9c0 5 4 11 15 25c25 30 64 53 76 59c24 12 40 17 57 17z
M144 25c19 0 38 6 50 17c5 5 11 14 13 26c3 17 5 57 5 93c0 1 -2 6 -4 5c-14 -2 -82 -27 -104 -38c-9 -5 -23 -19 -23 -49c0 -31 29 -54 63 -54z" />
    <glyph glyph-name="b" unicode="b" horiz-adv-x="432" 
d="M398 192c0 -59 -17 -99 -49 -133c-38 -41 -98 -70 -149 -70c-33 0 -78 9 -111 25c-9 4 -16 2 -29 -2c-3 -1 -6 3 -5 7c2 12 4 33 6 82c2 47 7 297 7 336c0 68 -2 164 -3 178c-1 22 -6 25 -27 39c-8 5 -12 8 -12 11s5 7 21 9c22 3 43 10 58 17c9 4 14 4 15 4
c2 0 4 -4 3 -20c-3 -59 -5 -191 -5 -342c0 -4 4 -5 5 -4c23 17 59 37 113 37c50 0 95 -28 118 -55c30 -33 44 -78 44 -119zM345 172c0 39 -15 82 -41 113c-21 24 -63 52 -110 52c-35 0 -60 -12 -69 -20c-4 -4 -8 -15 -9 -32c-1 -15 -1 -86 -1 -125c0 -38 5 -87 14 -104
c6 -12 17 -19 24 -24c19 -13 53 -22 77 -22c20 0 56 12 77 37c24 29 38 79 38 125z" />
    <glyph glyph-name="c" unicode="c" horiz-adv-x="367" 
d="M213 353c-48 0 -124 -43 -124 -158c0 -75 30 -114 53 -133c26 -23 63 -35 96 -35c43 0 69 6 106 40c1 1 6 2 6 -1c0 -4 -1 -8 -7 -15c-18 -21 -63 -62 -137 -62c-43 0 -88 16 -121 48c-32 31 -51 80 -51 134c0 63 29 111 58 139c30 30 79 59 148 59c39 0 70 -11 89 -24
c13 -7 15 -15 15 -20c0 -16 -19 -28 -23 -28s-10 4 -16 10c-18 18 -38 30 -54 38c-11 6 -28 8 -38 8z" />
    <glyph glyph-name="d" unicode="d" horiz-adv-x="437" 
d="M245 368c21 0 55 -6 70 -11c2 -1 4 3 4 5c0 19 -1 203 -1 257c0 8 -1 12 -4 17c-5 7 -18 13 -29 16c-6 2 -12 5 -12 8s4 5 9 6c30 5 67 18 77 23c5 3 10 6 13 6s5 -5 4 -18c-2 -31 -7 -391 -7 -465c0 -88 1 -152 2 -179c0 -4 4 -9 7 -9c6 0 21 4 50 12c7 2 10 0 10 -4
c0 -6 -8 -15 -26 -18c-29 -6 -67 -15 -93 -26c-5 -1 -8 4 -8 7c1 15 3 29 2 41c0 2 -2 5 -4 3c-43 -33 -76 -49 -114 -49c-34 0 -74 11 -110 43c-20 18 -51 67 -51 131c0 83 46 136 82 163c33 24 79 41 129 41zM210 348c-28 0 -40 -7 -56 -17c-31 -23 -60 -72 -60 -148
c0 -104 62 -163 128 -163c27 0 56 8 80 31c8 9 11 24 12 43c2 26 5 151 -1 186c-2 12 -7 19 -9 22c-23 32 -63 46 -94 46z" />
    <glyph glyph-name="e" unicode="e" horiz-adv-x="365" 
d="M214 369c53 0 121 -37 121 -100c0 -4 -5 -9 -9 -9c-7 0 -140 3 -161 3h-61c-2 0 -8 -6 -10 -9c-6 -12 -9 -27 -9 -60c0 -51 21 -93 47 -122c28 -32 69 -43 105 -43c43 0 73 11 96 33c9 8 12 6 12 2c0 -3 -4 -10 -11 -17c-43 -43 -81 -58 -136 -58c-45 0 -86 19 -116 51
s-48 78 -48 134c0 42 13 100 54 143c27 27 75 52 126 52zM205 355c-27 0 -55 -15 -80 -39c-12 -13 -20 -30 -20 -36c0 -2 2 -4 3 -4l145 1c20 0 22 9 22 18s-2 28 -14 40c-11 10 -30 20 -56 20z" />
    <glyph glyph-name="f" unicode="f" horiz-adv-x="239" 
d="M72 68v242c0 6 0 11 -4 12c-6 0 -16 0 -29 1c-9 1 -14 7 -14 9s5 5 12 9s15 8 24 14c8 5 11 11 11 15c0 69 5 128 16 165c19 61 51 104 95 133c33 23 66 30 94 30c39 0 64 -17 64 -30c0 -10 -12 -23 -23 -29c-5 -3 -15 0 -18 3c-13 8 -30 26 -68 26
c-49 0 -91 -30 -103 -152c-3 -32 -5 -98 -5 -129c0 -7 0 -19 1 -25c0 -2 3 -5 8 -5c9 0 102 2 113 2c3 0 7 -6 7 -16c0 -16 -2 -18 -15 -18c-14 0 -94 2 -108 2c-3 0 -5 -8 -5 -9c0 -42 1 -221 3 -249c3 -37 10 -47 20 -50c8 -3 20 -3 34 -6c12 -2 19 -5 19 -9
c0 -5 -7 -7 -16 -7c-26 0 -41 3 -85 3c-23 0 -46 -3 -62 -4c-10 0 -15 2 -15 6s7 7 20 10c24 5 29 20 29 56z" />
    <glyph glyph-name="g" unicode="g" horiz-adv-x="396" 
d="M75 -162c0 -20 10 -56 39 -79c26 -19 44 -31 98 -31c22 0 60 1 93 25c28 20 57 64 57 112c0 43 -29 81 -91 81c-38 0 -84 0 -111 -2c-26 -2 -33 -6 -37 -10c-20 -17 -48 -55 -48 -96zM181 375c48 0 90 -21 99 -26c8 -4 15 -5 36 -5c19 0 61 2 75 2c5 0 10 -11 10 -21
c0 -11 -7 -17 -11 -17c-14 0 -53 2 -64 2c-2 0 -6 -4 -6 -6c0 -7 2 -22 2 -43c0 -62 -28 -111 -63 -136c-33 -22 -61 -25 -75 -25c-13 0 -32 3 -40 4c-4 1 -12 -2 -13 -3c-12 -8 -28 -25 -40 -38c-9 -9 -12 -20 -12 -24c0 -36 46 -43 97 -43c31 0 91 3 116 3
c41 0 56 -10 75 -25c23 -19 34 -52 34 -84c0 -70 -54 -133 -119 -167c-31 -16 -66 -28 -110 -28c-76 0 -147 37 -147 114c0 20 10 35 17 44c6 7 45 59 65 84c1 1 3 8 0 9c-32 7 -82 41 -82 78c0 4 5 8 7 9c29 18 66 53 82 73c1 1 0 5 -2 6c-32 20 -77 64 -77 127
c0 43 17 73 42 96c30 28 68 40 104 40zM176 362c-21 0 -39 -8 -56 -23c-21 -20 -31 -61 -31 -92c0 -42 17 -88 34 -105c16 -15 35 -28 66 -28c50 0 85 56 85 103c0 43 -9 82 -32 110c-18 21 -34 35 -66 35z" />
    <glyph glyph-name="h" unicode="h" horiz-adv-x="433" 
d="M227 336c-48 0 -82 -23 -100 -42c-5 -5 -10 -17 -10 -42c0 -172 4 -197 5 -207c4 -18 11 -29 32 -33c17 -3 24 -5 24 -10c0 -3 -6 -6 -14 -6c-27 0 -48 4 -81 4c-26 0 -42 -4 -59 -4c-11 0 -15 2 -15 6c0 3 4 5 16 8c29 7 37 9 39 49c3 42 4 133 4 302c0 151 2 207 1 248
c-1 32 -10 35 -30 47c-5 3 -7 5 -7 8c0 2 6 5 16 8c31 9 46 13 61 21c4 2 7 3 9 3s5 -8 4 -21c-1 -32 -4 -344 -4 -365c0 -4 3 -4 4 -3c11 11 41 33 63 44c18 9 44 18 73 18c28 0 64 -11 88 -46c9 -12 21 -42 22 -108c1 -78 0 -141 1 -174c1 -21 5 -25 36 -30
c13 -3 16 -6 16 -9c0 -4 -6 -7 -16 -7c-24 0 -46 5 -68 5c-28 0 -38 -4 -57 -4c-12 0 -17 3 -17 6c0 4 6 6 16 8c25 4 28 11 32 38c3 23 5 64 5 177c0 25 -3 49 -16 73c-13 21 -35 38 -73 38z" />
    <glyph glyph-name="i" unicode="i" horiz-adv-x="190" 
d="M36 333c0 3 3 6 10 8c20 6 47 17 61 24c9 5 14 7 16 7c3 0 5 -3 4 -14c-2 -19 -2 -85 -2 -158c0 -72 0 -144 2 -161c2 -22 14 -25 28 -28c10 -2 15 -4 15 -8c0 -5 -8 -7 -16 -7c-6 0 -48 4 -69 4c-28 0 -42 -2 -53 -2c-6 0 -12 2 -12 6c0 3 4 6 19 9c20 5 31 12 32 55
c1 30 3 216 3 226c0 11 -2 18 -31 32c-5 2 -7 5 -7 7zM108 539c21 0 30 -19 30 -33c0 -24 -22 -33 -32 -33c-16 0 -29 15 -29 32c0 21 17 34 31 34z" />
    <glyph glyph-name="j" unicode="j" horiz-adv-x="189" 
d="M33 331c0 5 6 7 18 11c22 9 42 16 57 25c6 4 10 5 14 5c3 0 5 -3 5 -12c0 -90 -2 -198 -2 -277c0 -58 -4 -123 -5 -138c-8 -124 -85 -209 -135 -236c-9 -6 -25 -8 -25 -2c0 3 4 6 11 10c64 33 95 125 98 197c2 40 5 101 4 163c-1 43 -2 124 -2 154c-1 63 -4 74 -7 79
c-6 8 -15 11 -21 13c-8 4 -10 6 -10 8zM100 474c-16 0 -28 17 -28 32c0 23 19 35 34 35c12 0 27 -13 27 -31c0 -17 -9 -36 -33 -36z" />
    <glyph glyph-name="k" unicode="k" horiz-adv-x="415" 
d="M239 358c18 0 44 -1 56 -1c16 0 59 5 81 5c11 0 14 -3 14 -6c0 -2 -2 -6 -14 -8c-34 -6 -49 -10 -95 -44c-27 -20 -85 -70 -102 -86c-2 -1 0 -5 1 -6c27 -30 102 -104 152 -154c28 -27 43 -40 74 -47c8 -2 15 -5 15 -9c0 -7 -9 -7 -16 -7c-24 0 -66 5 -102 5
c-16 0 -29 -1 -44 -1c-11 0 -19 0 -19 6c0 5 6 7 25 11c17 4 19 14 10 27c-24 26 -102 105 -131 132c-8 6 -15 13 -19 13c-3 0 -4 -7 -4 -11c-1 -19 -2 -42 -2 -106c0 -48 6 -51 40 -59c11 -3 15 -5 15 -8c0 -5 -7 -7 -20 -7c-27 0 -44 3 -70 3c-29 0 -44 -3 -58 -3
c-11 0 -16 3 -16 7c0 3 6 6 13 7c31 8 39 17 41 50c4 73 5 161 6 239c1 93 4 200 4 288c0 23 -1 36 -4 45c-2 8 -12 14 -22 19c-6 3 -9 5 -9 7c0 4 5 5 14 8c30 10 54 20 61 23c6 3 11 5 14 5c2 0 3 -3 3 -9c-2 -32 -5 -115 -5 -189c0 -30 -5 -145 -5 -281
c0 -12 2 -17 5 -17c4 0 12 6 21 12c43 35 91 77 109 99c6 6 11 14 11 18c0 7 -7 12 -26 15c-8 1 -17 4 -17 8s7 7 15 7z" />
    <glyph glyph-name="l" unicode="l" horiz-adv-x="187" 
d="M120 361v-118c0 -124 2 -174 3 -194c1 -25 6 -33 35 -37c6 -1 14 -4 14 -7c0 -4 -6 -7 -21 -7c-10 0 -44 2 -62 2c-26 0 -53 -2 -63 -2c-13 0 -17 1 -17 6c0 4 4 5 19 9c25 5 31 15 35 59c3 35 6 198 7 327c0 92 1 165 0 213c0 21 -1 26 -28 43c-7 4 -9 5 -9 8s5 6 14 8
c24 6 42 12 64 21c3 1 8 3 11 3c2 0 3 -6 3 -12c0 -7 -5 -182 -5 -322z" />
    <glyph glyph-name="m" unicode="m" horiz-adv-x="684" 
d="M37 332c0 3 3 4 11 7c18 4 45 16 58 27c5 4 10 6 14 6c3 0 5 -4 5 -10c0 -11 -1 -38 0 -49c0 -3 1 -9 6 -6c32 30 84 61 124 61c47 0 79 -21 102 -66c1 -2 6 -3 7 -2c42 41 88 69 139 69c56 0 89 -34 102 -73c7 -20 11 -58 12 -95l4 -143c1 -32 5 -40 29 -44
c15 -3 19 -6 19 -9c0 -5 -5 -7 -17 -7c-11 0 -43 2 -66 2c-24 0 -41 -3 -56 -3c-13 0 -20 2 -20 6c0 5 9 8 18 10c32 6 36 15 37 45c2 120 -4 166 -8 198c-8 51 -35 79 -88 79c-42 0 -76 -23 -95 -42c-4 -4 -8 -16 -8 -38c1 -23 5 -174 7 -201c3 -28 6 -35 32 -41
c12 -4 16 -5 16 -9s-5 -6 -17 -6c-11 0 -48 2 -70 2s-44 -2 -55 -2c-10 0 -15 2 -15 6c0 3 5 7 19 10c21 4 31 8 31 32l1 162c0 56 -6 80 -26 102c-16 16 -32 24 -65 24c-39 0 -66 -20 -83 -34c-11 -10 -13 -20 -14 -29c-1 -10 -4 -34 -4 -64c0 -58 4 -141 6 -158
s9 -32 34 -36c11 -2 15 -5 15 -8c0 -5 -8 -7 -15 -7c-19 0 -50 2 -74 2c-26 0 -48 -2 -57 -2s-18 3 -18 7s6 7 20 9c34 7 32 20 34 29c4 23 4 88 4 154c0 43 1 67 -1 87c-1 20 -8 29 -24 38c-7 4 -10 6 -10 10z" />
    <glyph glyph-name="n" unicode="n" horiz-adv-x="434" 
d="M263 369c42 0 66 -22 77 -35c22 -24 29 -76 30 -133c0 -50 1 -58 1 -105c1 -70 3 -76 30 -83c11 -4 17 -6 17 -10c0 -7 -9 -7 -19 -7c-9 0 -37 4 -60 4c-24 0 -35 -4 -53 -4c-8 0 -16 2 -16 6s6 8 22 11c22 5 26 13 26 44v131c0 83 -8 108 -33 128c-15 12 -35 21 -61 21
c-29 0 -57 -11 -89 -38c-8 -8 -12 -26 -12 -34c0 -9 0 -62 1 -125c1 -66 4 -82 6 -97c3 -23 17 -27 33 -31c12 -3 17 -5 17 -10c0 -6 -10 -6 -20 -6c-8 0 -53 4 -76 4c-13 0 -33 -2 -47 -2c-11 0 -18 2 -18 7c0 4 8 7 22 10c24 5 28 11 29 30c2 78 2 171 2 248
c0 10 -2 23 -27 35c-5 3 -8 5 -8 9c0 2 4 4 14 8c16 5 50 19 67 30c3 2 8 -2 7 -8c-1 -12 -3 -39 -2 -54c0 -2 2 -5 5 -3c27 20 53 38 75 47c23 11 44 12 60 12z" />
    <glyph glyph-name="o" unicode="o" horiz-adv-x="446" 
d="M223 369c105 0 189 -82 189 -189c0 -75 -45 -129 -77 -154c-30 -23 -75 -38 -110 -38c-98 0 -191 80 -191 183c0 75 33 125 73 157c20 16 65 41 116 41zM205 352c-54 0 -114 -51 -114 -161c0 -40 12 -92 47 -134c30 -37 69 -52 101 -52c28 0 53 12 71 27
c16 13 45 61 45 133c0 87 -54 187 -150 187z" />
    <glyph glyph-name="p" unicode="p" horiz-adv-x="432" 
d="M252 369c42 0 82 -24 105 -49c30 -34 41 -77 41 -115c0 -117 -69 -170 -129 -199c-17 -8 -44 -16 -74 -16c-21 0 -55 5 -65 9c-4 2 -8 -5 -9 -10c-4 -17 -3 -122 -1 -170s3 -58 9 -70c7 -14 25 -18 50 -22c9 -2 14 -4 14 -8s-5 -7 -18 -7c-15 0 -48 4 -81 4
s-63 -7 -75 -7s-18 2 -18 6c0 3 4 7 21 10c37 10 42 24 44 48c1 18 2 54 2 127c0 71 -2 334 -3 359c-2 43 -1 48 -26 61c-5 3 -9 6 -9 8c0 4 5 7 12 9c9 4 44 18 64 33c6 4 10 6 13 6s4 -4 4 -8c0 -6 -2 -34 -2 -44c0 -2 2 -6 5 -3c45 33 79 48 126 48zM231 13
c15 0 36 4 54 20c34 28 61 77 61 149c0 43 -20 95 -46 120c-18 17 -42 34 -84 34c-29 0 -59 -6 -83 -23c-9 -6 -11 -7 -13 -25c-2 -23 -2 -180 0 -198c1 -9 2 -12 6 -23c17 -37 65 -54 105 -54z" />
    <glyph glyph-name="q" unicode="q" horiz-adv-x="436" 
d="M202 -12c-35 0 -79 16 -111 46c-30 29 -57 76 -57 137c0 76 40 130 84 162c33 24 73 36 112 36c52 0 92 -21 122 -33c7 -3 11 -1 20 14c4 6 7 11 11 11s5 -5 4 -14c-1 -7 -4 -27 -7 -77c-2 -50 -7 -194 -7 -288v-219c0 -10 7 -25 34 -34c10 -3 17 -6 17 -10
c0 -5 -5 -7 -16 -7c-18 0 -29 4 -65 4c-37 0 -57 -7 -82 -7c-12 0 -15 2 -15 6c0 5 6 8 21 10c31 9 42 13 46 54c3 35 8 142 8 240c0 5 -2 8 -4 7c-36 -21 -76 -38 -115 -38zM238 16c36 0 62 10 77 26c4 4 6 11 7 28c1 42 1 118 1 152s-7 62 -21 84c-13 17 -46 48 -93 48
c-32 0 -58 -16 -78 -42c-23 -30 -38 -59 -38 -124c0 -52 17 -101 51 -132c25 -24 64 -40 94 -40z" />
    <glyph glyph-name="r" unicode="r" horiz-adv-x="277" 
d="M193 322c-16 0 -34 -10 -48 -23c-13 -14 -19 -27 -20 -40c-1 -9 -1 -33 -1 -54c0 -75 2 -131 4 -151c4 -32 18 -39 57 -42c14 -2 19 -4 19 -9s-9 -7 -25 -7c-15 0 -54 4 -94 4c-26 0 -42 -6 -52 -6c-11 0 -15 1 -15 5c0 3 7 8 14 10c20 5 33 14 37 41c2 17 3 74 3 140
v115c0 8 -9 11 -26 25c-7 5 -8 8 -8 10s6 6 17 9s36 12 50 20c7 4 12 5 14 5s4 -3 4 -15c0 -8 -1 -51 -1 -64c0 -2 2 -3 5 0c29 34 70 71 110 71c12 0 26 -5 36 -14c3 -3 4 -8 4 -12c0 -6 -8 -19 -18 -27c-9 -8 -12 -8 -15 -8c-2 0 -6 1 -18 7c-11 6 -22 10 -33 10z" />
    <glyph glyph-name="s" unicode="s" horiz-adv-x="275" 
d="M156 354c-35 0 -62 -23 -62 -65c0 -44 40 -69 59 -80c66 -42 92 -67 92 -118c0 -45 -33 -71 -54 -83c-22 -14 -51 -20 -73 -20c-27 0 -46 6 -76 18c-8 3 -13 10 -13 15c0 14 -2 36 -3 48c-2 13 1 15 3 15s5 0 12 -19c9 -25 25 -41 42 -51c15 -9 31 -12 43 -12
c29 0 68 29 68 72c0 41 -28 62 -64 85s-83 58 -83 106c0 35 15 59 32 74c18 15 45 30 84 30c25 0 53 -7 64 -11c2 -1 5 -6 5 -8c1 -11 5 -32 6 -44c0 -11 -2 -16 -5 -16c-4 0 -5 5 -8 12c-6 15 -10 27 -24 38c-11 8 -28 14 -45 14z" />
    <glyph glyph-name="t" unicode="t" horiz-adv-x="269" 
d="M166 -9c-42 0 -72 14 -89 46c-8 13 -12 31 -12 55v208c0 13 -1 20 -4 21c-5 2 -18 5 -28 7c-7 1 -12 5 -12 8c0 2 -1 3 10 8c26 9 55 35 77 65c6 9 14 7 14 3c-1 -10 -3 -33 -2 -47c0 -3 1 -8 5 -8c18 0 107 3 130 3c2 0 6 -6 6 -12c0 -14 -5 -25 -10 -25
c-37 0 -93 1 -120 1c-13 0 -14 -3 -14 -9c0 -15 1 -171 3 -204c2 -35 4 -47 11 -57c14 -20 36 -29 67 -29c32 0 51 11 59 16c6 5 9 4 9 0c0 -6 -11 -17 -23 -26c-21 -15 -49 -24 -77 -24z" />
    <glyph glyph-name="u" unicode="u" horiz-adv-x="425" 
d="M173 -9c-41 0 -68 8 -90 36c-13 16 -18 42 -18 57c0 33 0 206 -2 223c-1 17 -13 26 -22 32c-9 7 -12 9 -12 13c0 3 4 5 17 5c24 0 55 8 70 13c3 1 6 -5 5 -11c-4 -57 -5 -198 -4 -239c1 -42 10 -60 16 -68c13 -16 36 -26 58 -26c40 0 67 9 97 37c13 12 19 28 20 50
c2 25 2 59 2 99c0 16 -1 58 -1 85c0 34 -12 39 -47 46c-11 2 -15 5 -15 8c0 4 8 6 14 6h38c45 0 54 4 64 4c3 0 4 -3 3 -11c-5 -51 -7 -138 -7 -266c0 -19 0 -38 2 -48c2 -11 4 -12 13 -11c10 3 39 10 44 10c7 0 11 -5 11 -10c0 -4 -7 -6 -18 -8c-12 -1 -65 -12 -94 -26
c-8 -4 -9 -3 -11 0s-3 7 -3 20c0 10 2 34 2 40c0 2 -1 10 -4 7c-24 -22 -53 -44 -72 -52s-42 -15 -56 -15z" />
    <glyph glyph-name="v" unicode="v" horiz-adv-x="355" 
d="M71 357c26 0 39 3 54 3c11 0 16 -2 16 -6s-6 -7 -15 -9c-27 -7 -30 -12 -20 -46c9 -30 73 -198 85 -222c1 -3 3 -4 4 -2c15 27 76 173 89 208c6 18 12 30 12 42c0 6 -7 17 -34 23c-7 2 -11 4 -11 8c0 3 4 4 11 4c13 0 26 -3 47 -3c16 0 42 2 51 2c7 0 14 -1 14 -5
s-6 -6 -15 -9c-21 -6 -30 -18 -41 -43l-83 -180c-19 -42 -40 -84 -51 -119c-5 -15 -8 -17 -10 -17c-3 0 -7 2 -11 16c-5 14 -12 38 -26 76c-17 46 -76 204 -91 233c-10 19 -20 29 -46 35c-9 2 -14 5 -14 7c0 4 5 7 16 7c28 0 35 -3 69 -3z" />
    <glyph glyph-name="w" unicode="w" horiz-adv-x="554" 
d="M68 357c18 0 34 2 53 2c8 0 16 -2 16 -7c0 -4 -11 -7 -18 -8c-25 -4 -24 -14 -20 -29c16 -48 62 -174 85 -229c1 -2 5 -3 6 0c20 42 69 150 77 172c1 5 4 12 2 17c-5 13 -10 26 -15 37c-8 18 -19 29 -39 34c-8 2 -13 4 -13 8c0 3 4 6 15 6c19 0 45 -3 66 -3
c25 0 34 2 48 2c11 0 15 -2 15 -5c0 -4 -7 -8 -15 -10c-24 -5 -30 -8 -19 -39c10 -30 68 -188 83 -221c3 -6 4 -1 4 0c12 22 70 160 81 188c9 23 16 42 16 49c0 10 -5 17 -30 23c-13 5 -15 7 -15 10c0 4 6 6 13 6c16 0 32 -3 48 -3c10 0 33 3 49 3c8 0 14 -2 14 -6
s-3 -6 -18 -10c-16 -4 -28 -19 -42 -47c-17 -34 -47 -100 -79 -173c-17 -40 -38 -88 -49 -119c-6 -15 -9 -17 -12 -17s-6 2 -10 16c-5 14 -11 35 -26 77c-17 46 -37 105 -57 158c-1 4 -3 5 -5 0c-7 -16 -55 -122 -69 -155c-13 -31 -21 -48 -32 -79c-5 -15 -10 -17 -13 -17
s-6 6 -9 16c-5 14 -11 40 -28 89c-17 48 -74 197 -82 211c-7 19 -21 35 -45 41c-7 2 -13 5 -13 8c0 5 6 7 18 7c10 0 42 -3 64 -3z" />
    <glyph glyph-name="x" unicode="x" horiz-adv-x="374" 
d="M120 357c9 0 22 1 28 1c10 0 15 -2 15 -6c0 -3 -5 -7 -16 -9c-18 -4 -18 -11 -12 -24l63 -104c2 -2 4 0 5 1c14 18 43 61 53 79c8 15 15 29 15 34c0 8 -5 11 -24 16c-7 2 -14 5 -14 9s7 5 14 5c6 0 24 -2 45 -2c22 0 43 3 56 3c11 0 16 -2 16 -6c0 -3 -4 -6 -18 -9
c-19 -4 -33 -12 -56 -39c-12 -14 -41 -53 -78 -103c-2 -3 -2 -6 -1 -8c13 -22 69 -116 91 -146c21 -31 37 -33 51 -36c16 -4 17 -8 17 -10c0 -4 -4 -7 -14 -7c-14 0 -47 4 -72 4c-26 0 -41 -2 -51 -2c-12 0 -18 1 -18 5c0 5 6 8 21 13c15 6 16 13 8 28c-9 18 -51 92 -61 104
c-4 5 -6 5 -8 3c-17 -19 -48 -69 -62 -95c-13 -24 -10 -37 10 -42c12 -4 18 -5 18 -9s-7 -7 -17 -7c-11 0 -30 2 -45 2c-16 0 -34 -3 -52 -4c-14 -1 -22 2 -22 6s5 7 19 10c19 4 39 18 50 33c13 14 26 31 91 122c3 3 3 7 2 9c-12 19 -67 114 -86 138c-17 21 -31 31 -55 34
c-10 1 -17 3 -17 7c0 5 12 7 20 7c34 0 48 -5 91 -5z" />
    <glyph glyph-name="y" unicode="y" horiz-adv-x="352" 
d="M66 357c14 0 38 2 46 2c10 1 17 -2 17 -6s-7 -7 -13 -8c-24 -7 -25 -13 -14 -42c12 -33 73 -180 93 -222c1 -2 4 -1 5 1c9 25 75 192 82 212c6 15 6 27 6 32c0 7 -5 15 -21 19c-14 3 -18 6 -18 9s6 6 12 6c13 0 32 -3 47 -3c17 0 28 3 45 3c7 0 12 -1 12 -4s-4 -6 -14 -9
c-19 -6 -29 -15 -45 -51c-11 -22 -74 -183 -87 -216l-41 -109c-23 -58 -65 -175 -76 -203c-7 -17 -11 -26 -19 -36c-10 -14 -23 -17 -32 -17c-14 0 -32 10 -32 30c0 13 14 26 25 26c7 0 11 -2 18 -2c13 0 21 4 27 19c10 21 40 110 75 200c5 14 2 26 -1 34
c-16 38 -77 197 -121 294c-7 14 -19 24 -37 28c-13 3 -18 7 -18 9c0 5 8 7 15 7c9 0 47 -3 64 -3z" />
    <glyph glyph-name="z" unicode="z" horiz-adv-x="342" 
d="M219 357c21 0 48 0 68 1c8 0 11 0 13 -2c1 -2 -1 -7 -4 -11c-33 -36 -133 -213 -193 -314c-1 -2 -1 -8 3 -8c14 -2 75 -4 106 -4c43 0 60 3 73 11c10 7 25 23 33 36c6 9 10 15 14 15c6 0 3 -14 0 -27c-11 -27 -17 -40 -22 -50c-3 -5 -9 -7 -16 -7h-71c-36 0 -93 3 -122 3
c-33 0 -46 -1 -72 -3c-12 -1 -13 7 -2 19l69 101c28 43 106 171 127 212c3 5 2 8 0 8h-136c-18 0 -32 -5 -46 -30c-7 -13 -11 -17 -13 -17c-4 0 -5 9 -1 22c4 14 14 42 18 61c3 14 10 10 13 0c4 -9 13 -11 28 -13c29 -3 53 -3 133 -3z" />
    <glyph glyph-name="braceleft" unicode="{" horiz-adv-x="302" 
d="M232 -168c-85 7 -136 86 -136 160c0 27 21 117 21 154c0 69 -19 94 -73 111c-11 4 -22 8 -22 15c0 3 6 5 13 7c61 15 87 55 87 89c0 33 -22 139 -22 161c0 28 13 72 51 109c46 36 79 42 94 42c11 0 13 -3 13 -5c0 -3 -7 -6 -13 -8l-35 -13c-52 -20 -74 -63 -74 -118
c0 -42 22 -104 22 -152c0 -44 -46 -86 -95 -111c-4 -1 -3 -3 1 -5c69 -36 95 -77 95 -130c0 -36 -19 -108 -23 -124c-22 -76 10 -148 104 -169c8 -2 11 -5 11 -8c0 -2 -6 -6 -19 -5z" />
    <glyph glyph-name="bar" unicode="|" horiz-adv-x="217" 
d="M90 728h37v-971h-37v971z" />
    <glyph glyph-name="braceright" unicode="}" horiz-adv-x="298" 
d="M70 680c86 0 136 -85 136 -159c0 -27 -20 -117 -20 -158c0 -43 18 -68 73 -85c10 -3 20 -9 20 -14c0 -4 -5 -5 -12 -7c-61 -14 -86 -55 -86 -89c0 -56 21 -162 21 -184c0 -33 -7 -72 -51 -107c-46 -37 -79 -43 -93 -45c-6 -1 -14 3 -14 7c0 3 5 6 9 7
c68 11 114 58 114 130c0 43 -23 105 -23 152c0 67 43 110 91 134c3 2 4 4 1 6c-70 37 -91 75 -91 116c0 32 18 89 22 115c8 78 -1 143 -104 166c-8 2 -11 6 -11 9s13 6 18 6z" />
    <glyph glyph-name="asciitilde" unicode="~" horiz-adv-x="410" 
d="M131 239c56 0 109 -68 149 -68c29 0 49 14 69 63c2 5 4 6 7 6c11 0 19 -8 15 -17c-19 -50 -49 -81 -95 -81c-51 0 -99 68 -145 68c-25 0 -49 -6 -69 -54c-4 -7 -5 -9 -10 -9s-16 7 -15 11c15 49 49 81 94 81z" />
    <glyph glyph-name="exclamdown" unicode="&#xa1;" horiz-adv-x="214" 
d="M85 204c5 0 9 -6 11 -28c7 -83 21 -269 24 -327c1 -25 -12 -67 -34 -67c-23 0 -36 29 -36 63c0 37 23 295 24 328c1 20 5 31 11 31zM86 372c13 0 38 -9 38 -37c0 -24 -20 -41 -39 -41c-25 0 -34 24 -34 39c0 24 23 39 35 39z" />
    <glyph glyph-name="cent" unicode="&#xa2;" horiz-adv-x="410" 
d="M209 189l36 287c1 3 -1 4 -3 4c-55 -5 -127 -51 -127 -151c0 -65 30 -119 90 -143c2 -1 3 0 4 3zM270 557l-6 -60c0 -2 1 -3 2 -3c36 -2 61 -13 76 -23c10 -5 14 -16 14 -19c0 -13 -15 -24 -24 -24c-3 0 -7 2 -12 8c-17 21 -37 36 -55 42c-1 0 -3 -1 -3 -3l-38 -292
c0 -3 0 -3 2 -4c8 -2 20 -3 29 -3c32 0 54 4 87 26c12 9 16 11 19 9c1 -1 0 -5 -6 -15c-15 -20 -69 -59 -134 -59c-2 0 -3 -2 -3 -4l-8 -69c-1 -4 0 -5 -6 -4c-5 0 -11 1 -10 5l8 70c0 1 -1 4 -2 4c-69 13 -139 71 -139 164c0 61 28 107 57 136c26 25 75 49 126 54
c2 0 3 3 3 5l7 59c0 2 1 6 5 6c7 0 11 -5 11 -6z" />
    <glyph glyph-name="sterling" unicode="&#xa3;" horiz-adv-x="420" 
d="M311 599c49 0 80 -35 79 -68c-1 -31 -18 -42 -30 -42c-3 0 -7 2 -6 6c2 8 3 21 3 27c1 28 -16 64 -58 64c-64 0 -99 -69 -122 -272c-2 -4 1 -8 3 -8l107 6c4 0 12 -2 11 -6c0 -4 -11 -10 -14 -10l-106 -8c-3 0 -6 -6 -7 -11c-13 -85 -24 -141 -73 -192c-4 -4 -3 -6 0 -6
c29 -1 55 -10 96 -30c56 -27 86 -42 115 -42c49 0 63 32 64 68c1 8 0 26 -6 50c-2 7 0 12 4 12c16 0 33 -8 32 -38c-3 -79 -90 -132 -144 -132s-97 38 -149 72c-18 11 -25 12 -31 12c-4 0 -8 0 -14 -5c-27 -30 -52 -58 -60 -58c-3 0 -8 1 -7 12c0 16 36 52 63 66
c5 3 9 5 13 10c21 22 32 101 39 200c0 3 -1 7 -3 7l-62 -2c-4 0 -15 -1 -14 5c0 5 15 11 17 12l62 4c2 0 5 5 5 8c4 35 9 78 18 114c13 52 35 99 69 132c28 26 62 43 106 43z" />
    <glyph glyph-name="fraction" unicode="&#x2044;" horiz-adv-x="22" 
d="M162 569c6 0 4 -10 -1 -17c-96 -160 -198 -334 -287 -483c-4 -7 -15 -11 -17 -9c-3 5 2 13 8 22c87 144 191 325 277 467c10 17 15 20 20 20z" />
    <glyph glyph-name="yen" unicode="&#xa5;" horiz-adv-x="410" 
d="M-1 586c0 3 8 6 15 6c12 0 38 -2 52 -2c33 0 49 3 67 3c10 0 15 -2 15 -6c0 -3 -6 -6 -17 -8c-15 -8 -20 -10 -10 -33c20 -47 71 -156 95 -207c1 -2 3 -4 5 0c21 38 51 104 74 155c11 25 21 52 21 63c0 9 -7 17 -29 21c-12 2 -14 4 -14 8c0 3 6 6 18 6c8 0 31 -3 48 -2
c25 1 33 4 53 4c8 0 14 -1 14 -5c0 -3 -5 -5 -11 -6c-31 -5 -49 -30 -72 -74c-27 -49 -62 -122 -92 -186c0 0 -3 -5 2 -5l78 -1c7 0 10 -2 10 -4c0 -8 -10 -10 -14 -10h-78c-2 0 -4 -4 -4 -7v-48c0 -7 4 -7 5 -7h79c4 0 8 -5 8 -7c0 -3 -5 -8 -15 -8l-72 -1
c-3 0 -4 -4 -4 -8l1 -137c0 -56 3 -61 42 -68c8 -2 16 -4 15 -8c0 -3 -7 -7 -17 -7c-22 0 -51 3 -70 3c-24 0 -41 -3 -65 -3c-8 0 -15 3 -15 7c0 5 8 6 14 8c34 7 39 12 41 64c1 35 2 95 2 143c0 3 -2 6 -4 6l-77 1c-3 0 -11 0 -11 4c0 6 11 11 15 11h73c2 0 3 3 3 7v48
c0 5 -3 7 -4 7h-71c-3 0 -12 1 -12 5c0 5 9 10 13 10h65c3 0 5 -1 2 6c-32 65 -67 144 -97 201c-23 44 -28 50 -55 54c-6 1 -15 3 -15 7z" />
    <glyph glyph-name="florin" unicode="&#x192;" horiz-adv-x="410" 
d="M341 637c48 0 63 -28 63 -53c-1 -21 -18 -39 -32 -39c-7 0 -8 2 -7 6c2 10 3 18 3 25c0 28 -19 45 -41 45c-29 0 -50 -17 -70 -55c-20 -39 -43 -112 -60 -199c-1 -5 1 -10 3 -10l78 3c7 0 9 -2 9 -5c0 -5 -7 -11 -15 -11l-76 -6c-3 0 -6 -5 -7 -8
c-20 -88 -37 -180 -60 -283c-18 -79 -58 -127 -96 -155c-29 -22 -58 -29 -82 -29c-29 0 -45 23 -45 32s7 21 15 27c3 2 8 4 13 -1c20 -19 47 -28 61 -28c30 0 53 23 79 141c19 91 42 214 58 295c1 6 0 8 -4 8h-54c-9 0 -13 2 -14 4c-2 4 10 10 14 11l61 4c2 0 7 8 8 11
c27 113 67 199 115 236c28 23 57 34 83 34z" />
    <glyph glyph-name="section" unicode="&#xa7;" horiz-adv-x="313" 
d="M30 360c0 45 25 88 48 120c1 1 2 4 2 5c3 22 15 50 38 69c28 24 56 29 72 29c17 0 33 -6 41 -13c4 -4 6 -6 6 -9c0 -5 -9 -16 -17 -21c-2 -1 -6 -2 -10 0c-11 7 -25 21 -49 21c-40 0 -55 -34 -55 -61c0 -38 31 -68 80 -120c30 -32 92 -96 92 -156
c0 -62 -32 -102 -43 -126c-21 -44 -48 -71 -78 -88c-18 -11 -39 -16 -55 -16c-24 0 -49 18 -49 31c0 6 11 16 18 20c3 2 9 3 12 0c8 -8 35 -24 50 -24c38 0 66 30 66 67c0 28 -27 55 -85 116c-40 42 -84 94 -84 156zM56 388c0 -65 45 -110 87 -154c49 -53 80 -90 86 -116
c1 -3 1 -3 3 0c9 15 18 39 18 62c0 63 -25 96 -86 164c-57 64 -74 85 -83 119c-1 2 -2 4 -3 2c-11 -22 -22 -46 -22 -77z" />
    <glyph glyph-name="currency" unicode="&#xa4;" horiz-adv-x="410" 
d="M94 388l-43 57c-3 4 -4 8 -3 10c2 4 10 5 16 5c3 0 6 -1 8 -3l42 -47c4 -3 6 -2 7 -1c27 21 56 30 83 30c30 0 58 -10 86 -30c2 -2 4 0 6 1l44 49c3 2 6 4 9 4c4 0 8 0 11 -2c4 -2 4 -6 -1 -14l-44 -57c-2 -2 -2 -5 -1 -6c23 -29 34 -63 34 -96c0 -35 -10 -72 -35 -99
c-1 -1 -1 -1 0 -4l51 -60c1 -1 1 -2 1 -3c1 -4 -1 -10 -4 -14s-1 -13 -14 1l-53 54c-2 2 -6 1 -7 0c-27 -20 -54 -30 -83 -30c-30 0 -57 11 -85 30c-1 1 -4 1 -6 -1l-48 -50c-7 -7 -12 -7 -15 -3c-3 3 -3 9 -3 14c0 3 1 5 2 6l43 53c2 3 2 5 1 6c-22 29 -33 63 -33 98
s11 67 34 95c1 1 2 3 0 7zM204 406c-62 0 -114 -47 -114 -120c0 -71 56 -120 114 -120s114 49 114 120c0 69 -56 120 -114 120z" />
    <glyph glyph-name="quotesingle" unicode="'" horiz-adv-x="116" 
d="M73 680c9 0 9 -15 9 -31c0 -18 -11 -102 -16 -120c-2 -8 -9 -21 -10 -22c-5 -6 -9 -4 -9 -1c-2 44 -9 109 -13 132c0 1 0 8 3 12c7 11 28 30 36 30z" />
    <glyph glyph-name="quotedblleft" unicode="&#x201c;" horiz-adv-x="247" 
d="M76 521c-39 0 -61 34 -61 66c0 65 70 93 85 93c5 0 9 0 9 -5c0 -2 -6 -5 -12 -7c-32 -17 -50 -37 -50 -66c0 -21 11 -32 38 -38c7 0 19 -7 19 -20c0 -10 -12 -23 -28 -23zM198 521c-39 0 -62 34 -62 66c0 65 72 93 86 93c4 0 8 -2 8 -5c0 -2 -5 -5 -11 -7
c-32 -17 -50 -39 -50 -66c0 -21 11 -32 39 -38c5 0 18 -7 18 -20c0 -10 -13 -23 -28 -23z" />
    <glyph glyph-name="guillemotleft" unicode="&#xab;" horiz-adv-x="520" 
d="M83 157c-4 2 -3 4 1 6c88 43 165 98 187 119c5 4 10 8 10 -1c0 -10 -84 -83 -135 -118c-2 -1 -2 -4 0 -5c55 -32 135 -109 135 -120c0 -9 -6 -4 -8 -3c-50 46 -120 88 -190 122zM240 157c-4 2 -3 4 1 6c88 43 167 106 189 127c5 4 10 8 10 -1c0 -10 -86 -91 -137 -126
c-2 -1 -2 -4 0 -5c55 -32 137 -116 137 -127c0 -9 -6 -4 -8 -3c-50 46 -122 95 -192 129z" />
    <glyph glyph-name="guilsinglleft" unicode="&#x2039;" horiz-adv-x="370" 
d="M82 157c-4 2 0 6 1 6c92 44 173 103 196 125c5 4 10 6 10 -1c0 -14 -91 -87 -137 -123c-2 -1 -3 -4 -1 -5c56 -37 139 -110 139 -128c0 -6 -7 -4 -9 -2c-54 48 -124 91 -199 128z" />
    <glyph glyph-name="guilsinglright" unicode="&#x203a;" horiz-adv-x="370" 
d="M288 162c4 -2 0 -6 -1 -6c-92 -44 -173 -103 -196 -125c-5 -4 -10 -6 -10 1c0 14 91 87 137 123c2 1 3 4 1 5c-56 37 -139 110 -139 128c0 6 7 4 9 2c54 -48 124 -91 199 -128z" />
    <glyph glyph-name="endash" unicode="&#x2013;" horiz-adv-x="450" 
d="M49 216h359c3 0 7 -2 7 -5c0 -6 -2 -14 -5 -19c-2 -3 -8 -4 -10 -4l-348 -2c-6 0 -17 1 -17 6c0 3 1 13 5 19c2 3 7 5 9 5z" />
    <glyph glyph-name="dagger" unicode="&#x2020;" horiz-adv-x="337" 
d="M165 554c11 0 21 -20 21 -34c0 -20 -9 -70 -12 -123c0 -3 1 -3 4 -3c40 1 69 10 94 10c14 0 29 -10 29 -16c0 -8 -15 -17 -32 -17c-22 0 -55 8 -94 10c-1 0 -2 -2 -2 -3c0 -72 8 -321 8 -342c0 -27 -10 -33 -16 -33c-5 0 -16 6 -16 33c0 21 8 274 8 342c0 1 0 3 -3 3
c-40 -3 -81 -10 -95 -10c-12 0 -29 9 -29 15c0 9 17 18 31 18c19 0 53 -9 93 -10c3 0 3 1 3 3c-1 52 -12 103 -12 123c0 14 10 34 20 34z" />
    <glyph glyph-name="daggerdbl" unicode="&#x2021;" horiz-adv-x="337" 
d="M179 381l-1 -99c0 -2 1 -4 3 -4c36 1 61 8 85 8c13 0 28 -7 28 -15c0 -9 -15 -17 -31 -17c-22 0 -45 8 -83 10c-2 0 -4 -2 -4 -3c1 -93 -2 -212 -2 -225c0 -23 -4 -33 -9 -33c-4 0 -6 14 -6 24c-1 31 -5 150 -6 233c0 3 -2 4 -3 4c-36 -3 -70 -10 -85 -10s-32 6 -32 16
c0 7 17 16 32 16c18 0 50 -8 86 -8c1 0 2 2 2 4l-2 99c0 2 0 6 -3 6c-35 -2 -75 -9 -90 -9c-11 0 -28 6 -28 15s13 18 27 18c22 0 49 -5 90 -9c1 0 3 1 3 4c0 52 -4 94 -4 114c0 14 10 34 20 34s18 -20 18 -34c0 -20 -3 -62 -4 -115c0 -2 1 -4 3 -4c34 1 66 10 89 10
c14 0 29 -7 29 -16c0 -8 -15 -17 -31 -17c-22 0 -54 8 -88 10c-2 0 -3 -3 -3 -7z" />
    <glyph glyph-name="periodcentered" unicode="&#xb7;" horiz-adv-x="155" 
d="M80 229c23 0 35 -21 35 -37c0 -28 -22 -39 -39 -39c-19 0 -36 18 -36 38c0 22 19 38 40 38z" />
    <glyph glyph-name="paragraph" unicode="&#xb6;" horiz-adv-x="437" 
d="M356 584h17c14 0 28 -2 28 -10c0 -5 -12 -9 -17 -10c-8 -1 -63 -2 -76 -2c-6 0 -11 -11 -11 -22c0 -264 4 -489 4 -515c0 -105 -14 -146 -37 -172c-15 -17 -42 -24 -56 -24c-38 0 -79 23 -79 78c0 37 24 73 62 73c21 0 38 -19 38 -36c0 -29 -17 -41 -31 -41
c-9 0 -19 2 -26 5c-5 4 -7 5 -13 5c-3 0 -7 -3 -7 -11c0 -40 30 -55 60 -55c52 0 66 71 67 152c1 82 0 124 0 132c0 4 -5 6 -7 6c-30 0 -96 8 -149 45c-38 26 -88 87 -88 181c0 56 23 116 67 156c45 39 102 53 135 58c24 4 91 7 119 7z" />
    <glyph glyph-name="bullet" unicode="&#x2022;" horiz-adv-x="366" 
d="M184 300c60 0 112 -55 112 -119c0 -61 -51 -117 -114 -117c-62 0 -112 54 -112 117c0 65 58 119 114 119z" />
    <glyph glyph-name="quotesinglbase" unicode="&#x201a;" horiz-adv-x="131" 
d="M50 65c39 0 62 -35 62 -67c0 -64 -71 -92 -85 -92c-6 0 -9 2 -9 5c0 1 5 5 11 8c32 16 51 38 51 65c0 19 -12 31 -39 36c-7 2 -19 8 -19 20s12 25 28 25z" />
    <glyph glyph-name="quotedblbase" unicode="&#x201e;" horiz-adv-x="252" 
d="M50 65c39 0 62 -35 62 -67c0 -64 -71 -92 -85 -92c-6 0 -9 2 -9 5c0 1 5 5 11 8c32 16 51 38 51 65c0 19 -12 31 -39 36c-7 2 -19 8 -19 20s12 25 28 25zM173 65c38 0 61 -35 61 -67c0 -64 -72 -92 -86 -92c-4 0 -8 2 -8 5c0 1 6 5 10 8c33 16 51 38 51 63
c0 21 -12 33 -39 38c-6 2 -17 8 -17 20s11 25 28 25z" />
    <glyph glyph-name="quotedblright" unicode="&#x201d;" horiz-adv-x="247" 
d="M50 680c39 0 62 -35 62 -67c0 -64 -71 -92 -85 -92c-6 0 -9 2 -9 5c0 1 5 5 11 8c32 16 51 39 51 65c0 19 -12 31 -39 37c-7 2 -19 7 -19 19c0 13 12 25 28 25zM173 680c38 0 61 -35 61 -67c0 -64 -72 -92 -86 -92c-4 0 -8 2 -8 5c0 1 6 5 10 8c33 16 51 39 51 63
c0 21 -12 33 -39 39c-6 2 -17 7 -17 19c0 13 11 25 28 25z" />
    <glyph glyph-name="guillemotright" unicode="&#xbb;" horiz-adv-x="520" 
d="M437 163c4 -2 3 -4 -1 -6c-88 -43 -165 -98 -187 -119c-5 -4 -10 -8 -10 1c0 10 84 83 135 118c2 1 2 4 0 5c-55 32 -135 109 -135 120c0 9 6 4 8 3c50 -46 120 -88 190 -122zM280 163c4 -2 3 -4 -1 -6c-88 -43 -167 -106 -189 -127c-5 -4 -10 -8 -10 1
c0 10 86 91 137 126c2 1 2 4 0 5c-55 32 -137 116 -137 127c0 9 6 4 8 3c50 -46 122 -95 192 -129z" />
    <glyph glyph-name="ellipsis" unicode="&#x2026;" horiz-adv-x="529" 
d="M65 65c22 0 33 -21 33 -36c0 -27 -21 -38 -37 -38c-18 0 -34 18 -34 37c0 21 18 37 38 37zM242 65c22 0 33 -21 33 -36c0 -27 -22 -38 -37 -38c-19 0 -34 18 -34 37c0 21 18 37 38 37zM418 65c22 0 33 -21 33 -36c0 -27 -21 -38 -37 -38c-18 0 -34 18 -34 37
c0 21 18 37 38 37z" />
    <glyph glyph-name="perthousand" unicode="&#x2030;" horiz-adv-x="787" 
d="M653 47c46 1 52 85 52 126s-11 141 -64 141c-46 0 -53 -83 -53 -125c0 -43 14 -144 65 -142zM644 33c-68 0 -103 77 -103 141c0 37 7 72 25 102c20 33 50 52 86 52c71 0 100 -85 100 -141c0 -41 -7 -79 -24 -105c-20 -33 -54 -49 -84 -49zM413 47c46 1 52 85 52 126
s-11 141 -64 141c-46 0 -53 -83 -53 -125c0 -43 14 -144 65 -142zM404 33c-68 0 -103 77 -103 141c0 37 7 72 25 102c20 33 50 52 86 52c71 0 100 -85 100 -141c0 -41 -7 -79 -24 -105c-20 -33 -54 -49 -84 -49zM462 588c7 0 4 -11 -1 -19c-120 -186 -227 -351 -342 -524
c-5 -8 -18 -13 -20 -10c-3 5 3 15 9 25c114 169 223 340 330 505c13 20 18 23 24 23zM147 291c46 1 52 85 52 126s-11 141 -64 141c-46 0 -53 -83 -53 -125c0 -43 14 -144 65 -142zM138 277c-68 0 -103 77 -103 141c0 37 7 72 25 102c20 33 50 52 86 52
c71 0 100 -85 100 -141c0 -41 -7 -79 -24 -105c-20 -33 -54 -49 -84 -49z" />
    <glyph glyph-name="questiondown" unicode="&#xbf;" horiz-adv-x="341" 
d="M177 -164c10 0 26 4 33 7s18 5 26 -4c10 -11 15 -27 15 -38c0 -7 -6 -20 -39 -20c-41 0 -90 47 -116 87c-37 54 -46 99 -46 133c0 35 13 65 49 83c18 9 35 16 53 27c34 18 31 50 31 71c0 10 2 15 6 15c3 0 3 -2 8 -10c4 -11 12 -52 12 -75c0 -17 -4 -28 -13 -38
c-17 -15 -52 -31 -76 -45c-26 -15 -39 -37 -39 -67c0 -26 10 -61 23 -79c17 -26 44 -47 73 -47zM177 371c19 0 39 -14 39 -41c0 -16 -14 -39 -41 -39s-36 30 -36 41c0 25 25 39 38 39z" />
    <glyph glyph-name="grave" unicode="`" horiz-adv-x="350" 
d="M146 573c4 0 9 -4 12 -10c2 -6 45 -122 51 -136c2 -6 2 -15 -1 -15c-5 0 -9 7 -14 13l-72 125c-8 12 -6 15 -3 17c3 3 16 6 27 6z" />
    <glyph glyph-name="acute" unicode="&#xb4;" horiz-adv-x="350" 
d="M235 569c7 0 8 -3 8 -6c0 -2 -1 -6 -3 -9c-23 -36 -64 -98 -94 -139c-5 -8 -11 -11 -13 -11c-3 0 -4 3 0 12c1 3 63 134 65 137c6 6 23 15 37 16z" />
    <glyph glyph-name="circumflex" unicode="&#x2c6;" horiz-adv-x="350" 
d="M180 565c2 0 5 -4 8 -10s56 -129 58 -137c4 -9 3 -15 -1 -15c-3 0 -12 11 -16 18c-8 13 -32 51 -50 86c-2 4 -3 7 -8 -1c-7 -10 -36 -57 -59 -89c-2 -3 -7 -8 -10 -8s-1 8 2 15l55 110c8 14 11 20 14 24c2 3 4 7 7 7z" />
    <glyph glyph-name="tilde" unicode="&#x2dc;" horiz-adv-x="350" 
d="M121 513c12 0 17 -1 31 -2c12 -1 46 -9 66 -9s35 8 50 28c5 7 9 10 12 10c2 0 3 -6 -2 -13l-38 -48c-5 -7 -15 -12 -21 -12c-22 0 -77 12 -95 12c-19 0 -26 -6 -45 -29c-5 -4 -6 -6 -10 -6c-2 0 -3 2 2 15c6 11 23 32 35 45c6 6 12 9 15 9z" />
    <glyph glyph-name="macron" unicode="&#xaf;" horiz-adv-x="350" 
d="M101 507c20 1 138 3 154 3c2 0 5 -3 5 -7c0 -5 -2 -14 -5 -21c-3 -3 -5 -4 -6 -4c-10 -1 -138 -4 -155 -4c-2 0 -5 4 -5 10c0 5 2 13 5 19c3 2 6 4 7 4z" />
    <glyph glyph-name="breve" unicode="&#x2d8;" horiz-adv-x="350" 
d="M171 438c-45 0 -74 31 -75 85c0 4 2 15 5 15c6 0 8 -9 9 -15c6 -29 28 -50 61 -50c27 0 61 9 71 52c2 6 5 10 8 10s4 -7 4 -13c-1 -28 -20 -84 -83 -84z" />
    <glyph glyph-name="dotaccent" unicode="&#x2d9;" horiz-adv-x="350" 
d="M175 539c21 0 30 -16 30 -33c0 -24 -19 -33 -32 -33c-16 0 -29 12 -29 32c0 24 17 34 31 34z" />
    <glyph glyph-name="dieresis" unicode="&#xa8;" horiz-adv-x="350" 
d="M108 536c16 0 29 -14 29 -28c0 -22 -18 -32 -33 -32c-9 0 -25 6 -25 27c0 15 10 33 29 33zM241 536c16 0 29 -15 29 -30s-16 -30 -32 -30s-28 12 -28 30s14 30 31 30z" />
    <glyph glyph-name="ring" unicode="&#x2da;" horiz-adv-x="350" 
d="M174 550c34 0 56 -27 56 -56c0 -30 -22 -57 -56 -57s-55 27 -55 57c0 29 21 56 55 56zM174 532c-19 0 -37 -16 -37 -38c0 -25 19 -37 37 -37c19 0 37 11 37 39c0 20 -17 36 -37 36z" />
    <glyph glyph-name="cedilla" unicode="&#xb8;" horiz-adv-x="350" 
d="M214 -116c0 -42 -47 -78 -82 -78c-26 0 -41 16 -41 29c0 7 12 19 23 19c6 0 9 -4 16 -18c3 -6 11 -13 22 -13c15 0 32 12 32 41c0 30 -22 44 -48 53c-9 3 -11 5 -11 8c0 1 2 5 4 7c12 13 55 57 78 82h13c-27 -29 -44 -47 -49 -54c-4 -5 -4 -9 -3 -10
c16 -12 46 -25 46 -66z" />
    <glyph glyph-name="hungarumlaut" unicode="&#x2dd;" horiz-adv-x="350" 
d="M158 541c7 0 8 -1 8 -4s-2 -11 -4 -14c-16 -34 -38 -71 -59 -111c-5 -9 -9 -12 -11 -12c-3 0 -3 4 -1 13c1 3 38 112 40 115c6 6 14 12 27 13zM251 550c4 0 7 -1 7 -4c0 -2 -1 -10 -3 -13c-16 -34 -40 -78 -62 -117c-5 -8 -8 -10 -10 -10c-3 0 -4 2 -2 11
c1 3 39 114 41 117c6 6 21 16 29 16z" />
    <glyph glyph-name="ogonek" unicode="&#x2db;" horiz-adv-x="350" 
d="M224 16h10c-44 -36 -96 -93 -96 -138c0 -28 23 -39 41 -39c15 0 30 5 43 14c5 4 9 4 9 0c0 -5 -3 -9 -9 -17c-15 -18 -45 -37 -69 -37c-25 0 -56 16 -56 59c0 53 83 126 127 158z" />
    <glyph glyph-name="caron" unicode="&#x2c7;" horiz-adv-x="350" 
d="M169 405c-2 0 -5 5 -8 11s-56 128 -58 136c-4 9 -3 15 1 15c3 0 11 -11 16 -20c7 -11 33 -49 51 -84c1 -2 5 -2 7 1c9 12 28 45 59 89c1 3 7 8 10 8s2 -7 -2 -14c-4 -11 -47 -94 -55 -110c-6 -11 -12 -23 -15 -27c-2 -3 -4 -5 -6 -5z" />
    <glyph glyph-name="emdash" unicode="&#x2014;" horiz-adv-x="740" 
d="M49 216h649c3 0 7 -2 7 -5c0 -6 -2 -14 -5 -19c-2 -3 -8 -4 -10 -4l-638 -2c-6 0 -17 1 -17 6c0 3 1 13 5 19c2 3 7 5 9 5z" />
    <glyph glyph-name="AE" unicode="&#xc6;" horiz-adv-x="820" 
d="M485 318h119c52 0 60 1 67 7c10 3 23 31 24 37c4 7 7 13 11 13c2 0 4 -7 4 -13s-1 -37 -3 -52c-1 -16 2 -54 3 -67c1 -12 -2 -16 -6 -16s-7 8 -10 18c-6 20 -11 37 -27 41c-20 6 -46 8 -186 8c-3 0 -5 -6 -5 -14c0 -41 3 -180 3 -199c2 -29 13 -54 25 -58
c19 -6 66 -7 100 -7c96 0 113 4 131 18c13 10 29 29 41 47c7 11 12 15 14 15c4 0 5 -3 2 -14c-4 -8 -23 -60 -28 -71c-3 -8 -11 -16 -15 -16c-104 0 -213 5 -317 5c-34 0 -68 -5 -81 -5c-7 0 -22 1 -22 6c0 7 11 9 22 10c41 6 60 19 63 63c2 33 5 141 3 206c0 6 -2 14 -5 14
h-151c-4 0 -13 -7 -18 -16c-15 -25 -74 -140 -90 -177c-12 -28 -18 -44 -18 -56c0 -19 17 -23 53 -34c9 -3 13 -5 13 -8c0 -6 -6 -9 -17 -9c-17 0 -64 6 -87 6c-24 0 -67 -4 -81 -5c-8 -1 -15 3 -15 7s9 9 21 11c40 6 61 19 92 76l269 498c9 14 13 24 -12 28l-44 6
c-8 1 -15 4 -15 9c0 3 7 5 20 5c28 0 67 -4 99 -4c80 0 152 2 232 2c36 0 49 1 58 1c7 0 10 -5 11 -14c1 -12 8 -56 10 -71c3 -8 1 -13 -3 -13s-7 2 -13 15c-20 34 -34 55 -61 58c-20 3 -55 5 -174 5c-13 0 -16 -3 -16 -19c0 -23 3 -188 3 -259c0 -10 2 -18 7 -18zM412 318
c4 0 5 7 5 15c1 25 2 143 2 266c0 5 -6 3 -10 -4c-25 -46 -111 -211 -140 -268c-2 -5 -4 -10 2 -10c19 -1 121 -1 141 1z" />
    <glyph glyph-name="ordfeminine" unicode="&#xaa;" horiz-adv-x="184" 
d="M95 502c38 0 51 -33 51 -60c0 -18 1 -40 -1 -77c-1 -18 -1 -34 19 -34c7 0 11 2 17 6c4 2 5 1 5 -1s-1 -5 -3 -9c-8 -13 -23 -20 -38 -20c-14 0 -29 8 -34 24c0 1 -2 2 -3 1c-21 -13 -33 -25 -55 -25c-15 0 -37 19 -37 41c0 19 10 30 27 36c20 7 50 14 68 21c1 0 3 2 3 6
c0 7 1 21 1 39c0 21 -14 37 -38 37c-6 0 -16 -5 -19 -8c-5 -5 -6 -10 -6 -19c0 -3 -1 -5 -5 -8c-4 -2 -18 -11 -25 -13c-4 -2 -7 2 -7 4c0 7 6 17 19 28c16 14 44 31 61 31zM51 358c0 -21 14 -29 25 -29c12 0 21 3 28 8c5 4 6 9 7 15c1 13 2 28 2 40c0 3 -2 3 -2 3
c-11 -2 -33 -9 -45 -14c-10 -4 -15 -14 -15 -23z" />
    <glyph glyph-name="Lslash" unicode="&#x141;" horiz-adv-x="503" 
d="M47 630c0 2 5 5 16 5c30 0 60 -4 84 -4c26 0 56 4 73 4c12 0 16 -3 16 -5c0 -4 -4 -7 -12 -9c-44 -9 -45 -15 -49 -87c-1 -17 -1 -100 -1 -189c0 -1 3 -4 4 -4c42 15 86 28 129 45c13 5 17 0 17 -4c0 -3 -5 -7 -18 -12l-128 -47c-3 -1 -4 -7 -4 -9c0 -87 1 -177 2 -194
c3 -41 5 -70 14 -81c11 -14 38 -25 124 -25c53 0 79 2 94 5c23 4 42 25 62 62c5 9 11 14 15 14s2 -14 -2 -25c-3 -9 -20 -60 -25 -67c-6 -8 -13 -10 -17 -10c-10 0 -88 -1 -137 2c-51 2 -126 5 -156 5c-31 0 -74 -5 -87 -5c-12 0 -20 2 -20 7c0 4 9 7 17 8c45 8 50 23 53 53
c4 37 4 122 4 236c0 2 -2 3 -4 2l-60 -18c-9 -3 -18 0 -18 4s5 8 13 11l65 22c3 1 4 6 4 10c0 128 -1 187 -3 218c-3 59 -5 65 -51 73c-11 2 -14 5 -14 9z" />
    <glyph glyph-name="Oslash" unicode="&#xd8;" horiz-adv-x="734" 
d="M368 649c67 0 134 -26 186 -67c2 -1 4 0 5 2l32 40c6 7 13 18 20 18c3 0 7 -12 -2 -23c-7 -11 -28 -39 -36 -49c-1 -1 -2 -2 0 -4c69 -63 115 -156 115 -258c0 -162 -110 -262 -187 -296c-40 -18 -85 -30 -129 -30c-67 0 -130 23 -182 61c-1 1 -5 0 -5 -1
c-11 -15 -32 -40 -43 -54c-3 -4 -9 -11 -14 -8c-3 2 -4 14 2 21l38 51c3 4 2 6 1 7c-75 64 -123 161 -123 265c0 100 34 188 130 261c51 40 128 64 192 64zM348 634c-56 0 -124 -37 -158 -76c-56 -65 -75 -147 -75 -236c0 -71 28 -154 83 -225c2 -2 6 1 8 3
c114 151 219 298 327 444c1 1 0 5 -1 6c-39 44 -101 84 -184 84zM390 1c42 0 76 11 110 36c55 41 121 134 121 270c0 74 -26 157 -72 222c-1 1 -4 1 -5 0c-113 -154 -214 -293 -326 -444c-1 -2 -3 -7 -1 -9c14 -14 29 -26 43 -36c47 -32 92 -39 130 -39z" />
    <glyph glyph-name="OE" unicode="&#x152;" horiz-adv-x="1033" 
d="M352 632c-58 0 -123 -33 -159 -73c-58 -64 -78 -147 -78 -246c0 -136 118 -311 271 -311c44 0 89 10 125 34c63 42 125 135 125 271c0 106 -31 181 -95 249c-42 43 -100 76 -189 76zM373 648c103 0 200 -54 256 -140c4 -6 5 -1 5 3c0 23 -4 99 -4 102c0 16 5 19 8 19
c8 0 42 -1 52 -1c38 0 157 2 197 2c38 0 52 1 62 2c4 0 6 -11 7 -17c1 -10 5 -52 8 -72c1 -5 -2 -13 -5 -13c-2 0 -6 6 -10 15c-20 48 -35 61 -52 63c-20 4 -63 3 -188 3c-13 0 -17 -21 -17 -27c0 -15 -1 -173 -1 -248c0 -8 2 -14 6 -14h131c50 0 62 1 69 7c8 3 21 30 25 36
s7 10 9 10s4 -5 4 -10c0 -6 -4 -36 -5 -51c0 -16 1 -49 2 -56c2 -13 -2 -17 -6 -17s-6 4 -12 18c-4 10 -9 29 -22 33c-22 5 -61 6 -196 6c-4 0 -7 -10 -7 -22c0 -32 3 -179 4 -198c0 -37 5 -51 25 -58c19 -7 49 -8 100 -8c96 0 113 5 133 21c14 10 28 30 38 44
c7 10 12 16 14 16c3 0 5 -4 1 -15c-3 -8 -22 -65 -28 -76c-2 -3 -8 -9 -11 -9c-105 0 -189 4 -262 4c-15 0 -60 -2 -67 -3c-6 -1 -10 0 -9 14c2 31 3 67 3 98c0 7 -2 9 -7 2c-56 -78 -148 -127 -246 -127c-185 0 -331 157 -331 340c0 96 33 190 135 264c45 34 101 60 192 60
z" />
    <glyph glyph-name="ordmasculine" unicode="&#xba;" horiz-adv-x="227" 
d="M116 307c-55 0 -98 44 -98 96c0 57 42 99 96 99c52 0 95 -43 95 -98c0 -54 -41 -97 -93 -97zM122 317c40 0 51 51 51 84c0 45 -28 91 -63 91c-39 0 -55 -40 -55 -80c0 -42 27 -95 67 -95z" />
    <glyph glyph-name="ae" unicode="&#xe6;" horiz-adv-x="469" 
d="M180 369c48 0 69 -41 78 -61c1 -2 4 -2 5 -1c27 31 71 58 108 58c26 0 49 -8 66 -26c18 -20 20 -42 20 -47s-6 -16 -18 -20c-51 -22 -152 -61 -168 -66c-7 -2 -7 -9 -8 -13c-1 -10 -1 -37 -1 -65c1 -32 5 -57 21 -75c22 -25 45 -33 82 -33c15 0 47 6 77 31c8 6 8 7 13 7
c4 0 2 -6 -5 -15c-19 -23 -66 -55 -113 -55c-46 0 -89 16 -116 60c-1 1 -5 0 -7 -2c-38 -30 -77 -56 -113 -56c-40 0 -74 33 -74 78c0 27 8 50 47 67c36 15 73 29 133 55c5 2 8 7 8 10v67c0 28 -9 47 -24 59c-12 9 -28 13 -46 13c-14 0 -27 -4 -37 -11
c-15 -11 -25 -28 -25 -50c0 -4 -4 -5 -8 -7c-8 -4 -27 -9 -31 -10c-5 -1 -11 -1 -11 6s6 18 17 29c11 13 39 38 67 53s46 20 63 20zM131 27c25 0 40 5 60 19c20 13 22 21 22 43v80c0 5 -1 7 -4 6c-25 -8 -75 -27 -98 -40c-28 -16 -30 -32 -30 -54c0 -36 31 -54 50 -54z
M349 345c-11 0 -26 -1 -50 -21c-25 -20 -35 -56 -35 -99c0 -3 0 -7 5 -5c13 4 94 36 111 44c19 7 24 22 24 33c0 27 -12 48 -55 48z" />
    <glyph glyph-name="dotlessi" unicode="&#x131;" horiz-adv-x="190" 
d="M36 333c0 3 3 6 10 8c20 6 47 17 61 24c9 5 14 7 16 7c3 0 5 -3 4 -14c-2 -19 -2 -85 -2 -158c0 -72 0 -144 2 -161c2 -22 14 -25 28 -28c10 -2 15 -4 15 -8c0 -5 -8 -7 -16 -7c-6 0 -48 4 -69 4c-28 0 -42 -2 -53 -2c-6 0 -12 2 -12 6c0 3 4 6 19 9c20 5 31 12 32 55
c1 30 3 216 3 226c0 11 -2 18 -31 32c-5 2 -7 5 -7 7z" />
    <glyph glyph-name="lslash" unicode="&#x142;" horiz-adv-x="190" 
d="M41 663c0 3 5 6 14 8c24 6 42 12 64 21c3 1 8 3 11 3c2 0 3 -6 3 -12c0 -7 -5 -182 -5 -322c0 -3 1 -5 2 -5c24 9 57 20 60 21c2 1 7 -5 7 -6c0 -4 -4 -6 -11 -10l-54 -23c-3 -1 -4 -4 -4 -5v-90c0 -132 2 -168 3 -186c1 -36 9 -41 35 -45c6 -1 14 -4 14 -7
c0 -4 -6 -7 -21 -7c-10 0 -44 2 -62 2c-26 0 -53 -2 -63 -2c-13 0 -17 1 -17 6c0 4 4 5 19 9c25 5 31 11 35 55c3 27 5 139 6 247c0 1 -2 5 -5 3l-44 -16c-7 -2 -11 6 -11 8s1 3 3 4l53 22c4 2 5 8 5 10v53c0 92 1 165 0 213c0 21 -2 29 -28 43c-7 4 -9 5 -9 8z" />
    <glyph glyph-name="oslash" unicode="&#xf8;" horiz-adv-x="446" 
d="M223 369c36 0 73 -11 102 -29c2 -1 4 0 5 1l22 29c5 6 9 9 11 9c3 0 6 -9 5 -11l-26 -36c-1 -2 0 -4 1 -5c40 -34 69 -88 69 -147c0 -75 -45 -129 -77 -154c-30 -23 -75 -38 -110 -38c-40 0 -75 9 -107 32c-1 1 -3 1 -5 -1c-9 -10 -15 -19 -22 -27c-8 -9 -13 -11 -15 -11
c-5 0 -5 10 -1 15l27 35c1 2 0 3 -1 4c-43 35 -67 85 -67 136c0 75 32 122 72 154c20 16 66 44 117 44zM142 50c29 -31 65 -45 97 -45c28 0 53 12 71 27c16 13 45 61 45 133c0 43 -12 90 -37 126c-1 2 -3 3 -5 0c-59 -75 -112 -153 -173 -233c-1 -2 -1 -5 2 -8zM205 352
c-54 0 -114 -51 -114 -161c0 -32 5 -75 33 -117c3 -5 4 -6 7 -2c56 73 115 158 171 231c2 2 2 5 0 7c-25 26 -58 42 -97 42z" />
    <glyph glyph-name="oe" unicode="&#x153;" horiz-adv-x="633" 
d="M228 369c55 0 117 -35 139 -66c3 -3 6 -1 8 1c24 31 76 65 132 65s112 -33 112 -94c0 -5 -4 -12 -13 -14c-51 0 -102 -1 -153 -1h-47c-3 0 -6 -3 -8 -8c-3 -8 -6 -23 -6 -43c0 -42 5 -84 29 -127c19 -31 58 -53 91 -53c32 0 57 11 82 23c8 4 11 3 11 -1
c0 -2 0 -6 -10 -15c-30 -28 -69 -44 -116 -44c-45 0 -81 28 -111 61c-3 3 -7 1 -9 -1c-40 -39 -72 -64 -133 -64c-107 0 -192 83 -192 187c0 79 43 128 80 156c39 31 90 38 114 38zM215 352c-95 0 -123 -96 -123 -150c0 -35 3 -84 37 -133c37 -54 82 -66 113 -66
c24 0 52 10 73 35c22 24 32 69 32 119c0 91 -32 195 -132 195zM505 355c-24 0 -43 -6 -58 -15c-30 -17 -42 -45 -42 -55c0 -5 3 -8 13 -8c13 0 126 -2 134 -2s16 5 16 12c0 5 3 38 -21 56c-9 7 -23 12 -42 12z" />
    <glyph glyph-name="germandbls" unicode="&#xdf;" horiz-adv-x="435" 
d="M291 698c85 0 119 -74 119 -124c0 -59 -27 -84 -51 -108c-12 -14 -37 -35 -61 -58c-30 -29 -36 -53 -36 -66c0 -19 10 -36 25 -47c18 -13 58 -46 73 -61c23 -22 45 -46 45 -93c0 -61 -51 -113 -93 -134c-31 -15 -61 -19 -67 -19c-17 0 -50 11 -50 30c0 7 4 15 12 22
c5 4 8 3 12 0c21 -14 47 -20 69 -20c43 0 79 41 79 81c0 52 -29 82 -83 124c-43 34 -68 58 -68 100c0 21 15 41 23 48c16 12 31 27 51 46c54 52 80 96 80 136c0 64 -42 122 -106 122c-70 0 -114 -53 -132 -164c-7 -43 -9 -121 -9 -249c0 -96 3 -197 4 -218s10 -29 25 -33
c14 -3 20 -7 20 -10c0 -4 -5 -6 -17 -6c-14 0 -36 3 -60 3c-33 0 -47 -4 -61 -4c-13 0 -18 2 -18 5s4 6 15 8c39 8 37 22 39 43c2 18 2 116 2 162c0 49 -1 73 -2 93c0 8 -3 16 -5 16c-5 1 -21 2 -32 3c-8 1 -8 3 -7 8s14 12 35 21c4 2 10 8 10 14c0 90 22 192 79 258
c29 34 72 71 141 71z" />
    <glyph glyph-name="logicalnot" unicode="&#xac;" horiz-adv-x="410" 
d="M41 248c0 10 6 19 9 19l310 1c4 0 8 -8 8 -14v-186c0 -11 -15 -12 -20 -12c-2 0 -10 2 -10 6l-2 158c0 11 -4 19 -10 19l-271 1c-13 0 -14 5 -14 8z" />
    <glyph glyph-name="mu" unicode="&#xb5;" horiz-adv-x="419" 
d="M92 374c15 0 21 -7 32 -15c0 0 8 -14 8 -17c0 -5 0 -20 -2 -39c-7 -60 -17 -133 -26 -198c-2 -13 0 -22 5 -30c12 -19 31 -28 45 -28c45 0 92 59 113 116c4 12 8 28 9 40c5 77 14 137 16 152c0 8 7 19 11 19c24 0 42 -15 45 -19c1 -2 3 -5 3 -9c0 -35 -38 -159 -54 -197
c-5 -13 -6 -21 -6 -35c0 -48 25 -69 53 -69c31 0 45 15 56 30c2 1 6 -1 6 -3c0 -8 -8 -32 -14 -45c-16 -31 -36 -40 -60 -40c-27 0 -54 26 -54 110c0 9 -4 5 -7 0c-46 -79 -76 -103 -102 -103c-24 0 -56 43 -69 70c-2 5 -4 -1 -4 -2c-9 -66 -14 -192 -10 -221
c6 -41 20 -64 60 -87c0 0 2 -3 1 -5c-4 -11 -37 -26 -48 -26c-1 0 -7 0 -12 4c-18 17 -20 35 -20 112c0 68 5 213 5 237c1 16 0 34 0 50c-4 77 -2 164 -2 236c0 2 2 8 5 10c5 1 10 2 17 2z" />
    <glyph glyph-name="trademark" unicode="&#x2122;" horiz-adv-x="208" 
d="M172 549c2 0 17 1 19 1c6 0 5 -4 2 -5l-8 -3c-2 -1 -3 -2 -3 -5v-38c1 -12 0 -13 12 -17c6 -2 2 -5 -3 -5c-6 0 -10 1 -14 1c-9 0 -15 -1 -19 -1c-5 0 -5 4 -1 5c8 3 12 5 12 14c1 15 1 37 1 38s-1 1 -2 0c-2 -3 -16 -33 -23 -55c-1 -2 -2 -2 -4 0c-5 16 -14 33 -22 52
c-1 2 -1 1 -1 0c-1 -12 -2 -26 -2 -35c0 -7 2 -10 12 -13c6 -3 4 -6 -2 -6s-10 1 -17 1c-5 0 -10 -1 -13 -1c-5 0 -8 3 -3 5c7 3 14 6 15 14c1 9 3 32 3 36c0 2 0 5 -2 7c-2 4 -4 4 -8 5c-6 2 -7 6 1 6s16 -1 21 -1c2 0 4 -5 7 -11l16 -32c1 -1 2 -2 3 -1c5 12 10 26 17 40
c1 4 3 4 6 4zM24 549h44c7 0 11 1 16 3c1 1 2 0 2 -1c-1 -6 -2 -19 -2 -20c0 -4 -2 -4 -4 -1c-2 4 -4 12 -10 12l-13 -1c-1 0 -2 -1 -2 -2v-39c0 -11 1 -14 14 -18c4 -1 3 -5 -1 -5s-15 1 -20 1c-10 0 -12 -1 -20 -1c-4 0 -6 4 -1 5c10 3 14 6 14 19v33c0 6 0 7 -2 7l-12 1
c-7 0 -9 -5 -12 -10c-1 -2 -2 -4 -3 -4c-2 0 -2 1 -2 5c0 1 3 15 3 18c0 1 2 2 3 1z" />
    <glyph glyph-name="Eth" unicode="&#xd0;" horiz-adv-x="682" 
d="M43 627c0 3 6 5 15 5c43 0 87 0 128 4c27 3 60 7 80 7c76 0 149 -13 218 -54c82 -51 152 -137 152 -270c0 -196 -136 -290 -261 -322c-21 -6 -59 -8 -87 -8c-22 0 -46 2 -74 4c-30 2 -58 5 -87 5c-27 0 -57 -2 -68 -2s-19 3 -19 8c0 3 5 6 17 7c35 5 44 15 46 54
c2 24 3 144 3 198c0 17 0 36 -1 48c0 3 -1 6 -3 6l-62 1c-6 0 -12 4 -12 13c0 3 9 6 15 6l59 1c2 0 4 9 4 11c2 15 -3 191 -5 217c-2 34 -6 45 -46 53c-10 1 -12 4 -12 8zM346 332c0 -8 -7 -13 -22 -13l-155 -2c-3 0 -5 -2 -5 -7c1 -89 3 -142 6 -187c4 -58 9 -78 34 -97
c14 -11 45 -22 88 -22c52 0 90 9 120 25c64 33 153 104 153 273c0 95 -29 178 -91 237c-53 50 -118 87 -222 87c-31 0 -65 -6 -75 -10c-3 -1 -11 -8 -11 -27c-1 -35 -2 -61 -2 -241c0 -4 1 -10 5 -10h133c40 0 44 -2 44 -6z" />
    <glyph glyph-name="onehalf" unicode="&#xbd;" horiz-adv-x="431" 
d="M324 336c37 0 62 -29 62 -66c0 -21 -8 -43 -32 -71c-20 -26 -48 -54 -74 -81c-2 -2 -1 -3 0 -3c22 0 95 2 99 2c6 0 10 4 27 27c3 3 5 4 7 4s2 -7 -1 -13c-6 -13 -15 -42 -15 -46c0 -3 -2 -4 -4 -4c-6 0 -73 2 -94 2h-43c-11 0 -13 2 -13 4c0 3 2 8 6 11
c13 12 29 29 44 44c34 35 58 75 58 113c0 29 -21 48 -46 48c-22 0 -41 -14 -52 -27c-5 -6 -8 -6 -8 -3c0 5 1 8 6 15c14 20 39 44 73 44zM55 535c0 1 3 4 10 5c25 6 49 15 60 23c2 1 5 -1 5 -5c0 -2 -3 -18 -4 -59v-123c0 -45 5 -49 31 -56c6 -1 10 -2 10 -5
c0 -2 -4 -4 -11 -4c-5 0 -36 3 -52 3c-24 0 -40 -3 -47 -3c-9 0 -11 1 -11 3s1 4 12 7c28 8 31 10 32 32c2 21 3 59 3 105c0 26 1 45 0 57c0 5 -2 8 -5 10c-7 2 -16 3 -22 4c-7 1 -11 4 -11 6zM364 569c6 0 4 -10 -1 -17c-96 -160 -198 -334 -287 -483c-4 -7 -15 -11 -17 -9
c-3 5 2 13 8 22c87 144 191 325 277 467c10 17 15 20 20 20z" />
    <glyph glyph-name="plusminus" unicode="&#xb1;" horiz-adv-x="410" 
d="M190 411c0 6 18 10 21 10c4 0 10 1 10 -12v-140c0 -3 2 -8 5 -8h141c3 0 5 -1 5 -7c0 -11 -4 -20 -7 -20l-139 -1c-3 0 -5 -6 -5 -11l-1 -145c0 -5 -10 -10 -20 -10c-2 0 -11 0 -11 6v153c0 6 -1 7 -4 7l-142 1c-5 0 -6 3 -6 7c0 8 5 19 10 19l137 1c4 0 5 6 5 9zM368 28
c1 0 4 -2 4 -8c0 -8 -4 -19 -7 -19h-322c-4 0 -6 6 -6 7c0 9 5 19 10 19c107 1 215 2 321 1z" />
    <glyph glyph-name="Thorn" unicode="&#xde;" horiz-adv-x="476" 
d="M46 630c0 2 6 3 14 3c28 -1 43 -2 73 -2c27 0 59 3 68 4c11 0 16 -1 16 -4c0 -4 -3 -7 -14 -9c-29 -7 -36 -12 -37 -29c-1 -31 -2 -57 -2 -97c0 -3 0 -8 5 -7c10 2 38 5 71 5c72 0 124 -17 155 -44c38 -31 54 -81 54 -125c0 -86 -53 -135 -89 -156
c-34 -18 -78 -28 -106 -28c-25 0 -57 3 -83 13c-3 1 -6 -2 -6 -7c0 -53 3 -66 5 -96c2 -25 8 -34 37 -39c15 -2 25 -4 25 -9s-10 -7 -19 -7c-18 0 -57 4 -84 4c-26 0 -60 -4 -71 -4c-8 0 -15 2 -15 6s3 7 19 9c34 6 40 15 43 48c3 25 1 136 1 202v147c0 103 -1 144 -3 179
c-1 23 -12 28 -43 33c-12 2 -14 6 -14 10zM214 478c-18 0 -36 -3 -43 -7c-4 -3 -7 -7 -7 -17c0 -82 -3 -241 0 -275c1 -6 3 -11 9 -13c17 -6 43 -5 54 -5c36 0 82 14 110 41s44 70 44 115c0 117 -77 161 -167 161z" />
    <glyph glyph-name="onequarter" unicode="&#xbc;" horiz-adv-x="405" 
d="M321 74c-5 0 -5 4 -5 12c0 6 2 46 2 74c0 5 -2 5 -4 5c-8 0 -107 -1 -106 -1c-1 0 -3 1 -3 4s5 9 8 13c8 9 96 119 106 131c5 7 23 24 30 24c2 0 4 -3 4 -8c0 -2 -3 -108 -3 -138c0 -1 1 -3 6 -3l35 1c2 0 5 -5 5 -8c-3 -7 -8 -14 -11 -15h-32c-1 0 -2 -3 -2 -6v-70
c0 -5 -1 -9 -4 -10c-6 -3 -22 -5 -26 -5zM55 535c0 1 3 4 10 5c25 6 49 15 60 23c2 1 5 -1 5 -5c0 -2 -3 -18 -4 -59v-123c0 -45 5 -49 31 -56c6 -1 10 -2 10 -5c0 -2 -4 -4 -11 -4c-5 0 -36 3 -52 3c-24 0 -40 -3 -47 -3c-9 0 -11 1 -11 3s1 4 12 7c28 8 31 10 32 32
c2 21 3 59 3 105c0 26 1 45 0 57c0 5 -2 8 -5 10c-7 2 -16 3 -22 4c-7 1 -11 4 -11 6zM371 569c6 0 4 -10 -1 -17c-96 -160 -198 -334 -287 -483c-4 -7 -15 -11 -17 -9c-3 5 2 13 8 22c87 144 191 325 277 467c10 17 15 20 20 20zM241 187l74 -1c2 0 3 2 3 4
c0 15 3 85 4 102c0 2 -2 2 -3 2c-20 -23 -53 -63 -82 -104c-1 -1 2 -3 4 -3z" />
    <glyph glyph-name="divide" unicode="&#xf7;" horiz-adv-x="410" 
d="M369 203c1 0 4 -2 4 -8c0 -9 -4 -19 -8 -19h-322c-4 0 -6 5 -6 6c0 10 5 20 11 20c107 1 214 2 321 1zM204 103c16 0 25 -13 25 -26c0 -17 -9 -28 -25 -28s-26 11 -26 28c0 13 10 26 26 26zM204 272c-13 0 -26 10 -26 26c0 15 13 27 26 27c16 0 26 -12 26 -27
c0 -16 -10 -26 -26 -26z" />
    <glyph glyph-name="brokenbar" unicode="&#xa6;" horiz-adv-x="217" 
d="M90 -170v340h37v-340h-37zM90 655h37v-340h-37v340z" />
    <glyph glyph-name="degree" unicode="&#xb0;" horiz-adv-x="410" 
d="M207 561c38 0 70 -27 70 -74c0 -40 -34 -74 -73 -74s-71 32 -71 74c0 40 35 74 74 74zM202 543c-23 0 -46 -25 -46 -56c0 -33 23 -55 52 -55c22 0 46 20 46 55c0 31 -21 56 -52 56z" />
    <glyph glyph-name="thorn" unicode="&#xfe;" horiz-adv-x="432" 
d="M231 13c15 0 36 5 54 21c34 28 61 76 61 148c0 43 -19 92 -45 117c-18 17 -43 36 -85 36c-29 0 -59 -3 -83 -20c-9 -6 -11 -7 -13 -25c-2 -23 -2 -182 0 -200c1 -9 2 -12 6 -23c17 -37 65 -54 105 -54zM23 665c0 3 5 7 21 9c22 3 43 10 58 17c9 4 14 4 15 4
c2 0 4 -4 3 -20c-1 -15 -1 -73 -2 -175s0 -160 1 -173c0 -2 2 -6 5 -3c45 33 79 45 126 45c40 0 83 -23 106 -48c30 -34 42 -79 42 -117c0 -117 -69 -169 -129 -198c-17 -8 -44 -16 -74 -16c-21 0 -57 6 -67 10c-4 2 -6 -8 -7 -13c-4 -17 -3 -120 -1 -168s3 -58 9 -70
c7 -14 25 -18 50 -22c9 -2 14 -4 14 -8s-5 -7 -18 -7c-15 0 -48 4 -81 4s-63 -7 -75 -7s-18 2 -18 6c0 3 4 7 21 10c37 10 42 24 44 48c1 18 2 54 2 127c0 71 -3 334 -3 359c0 68 -2 342 -3 356c-1 22 -6 25 -27 39c-8 5 -12 8 -12 11z" />
    <glyph glyph-name="threequarters" unicode="&#xbe;" horiz-adv-x="389" 
d="M305 74c-5 0 -5 4 -5 12c0 6 2 46 2 74c0 5 -2 5 -4 5c-8 0 -107 -1 -106 -1c-1 0 -3 1 -3 4s5 9 8 13c8 9 96 119 106 131c5 7 23 24 30 24c2 0 4 -3 4 -8c0 -2 -3 -108 -3 -138c0 -1 1 -3 6 -3l35 1c2 0 5 -5 5 -8c-3 -7 -8 -14 -11 -15h-32c-1 0 -2 -3 -2 -6v-70
c0 -5 -1 -9 -4 -10c-6 -3 -22 -5 -26 -5zM99 563c33 0 51 -25 51 -44c0 -25 -18 -42 -39 -55c-2 -1 -2 -4 0 -4c47 -7 63 -34 63 -61c0 -35 -28 -64 -67 -86c-18 -8 -37 -12 -52 -12s-35 10 -35 24c0 3 7 15 14 15c2 0 7 -1 10 -3c14 -15 24 -19 41 -19c26 0 54 24 54 66
c0 34 -25 51 -50 51c-13 0 -24 -5 -31 -7c-1 -1 -5 -2 -6 1c0 1 1 4 5 6c5 5 8 6 15 11c37 22 46 39 46 57s-10 36 -36 36c-16 0 -28 -7 -40 -18c-6 -6 -7 -6 -8 -6c-2 0 -1 6 0 9c12 19 33 39 65 39zM359 569c6 0 4 -10 -1 -17c-96 -160 -198 -334 -287 -483
c-4 -7 -15 -11 -17 -9c-3 5 2 13 8 22c87 144 191 325 277 467c10 17 15 20 20 20zM225 187l74 -1c2 0 3 2 3 4c0 15 3 85 4 102c0 2 -2 2 -3 2c-20 -23 -53 -63 -82 -104c-1 -1 2 -3 4 -3z" />
    <glyph glyph-name="registered" unicode="&#xae;" horiz-adv-x="121" 
d="M63 573c30 0 53 -23 53 -53c0 -24 -19 -54 -54 -54c-29 0 -52 24 -52 54c0 28 23 53 53 53zM63 566c-25 1 -44 -20 -44 -46s19 -46 44 -46c27 0 44 20 44 46s-20 46 -44 46zM48 507v25c0 8 0 11 -6 12c-4 0 -4 2 1 2c6 0 13 1 21 1c13 0 19 -6 19 -13c0 -8 -7 -12 -9 -13
c0 0 -1 -1 0 -2c8 -14 14 -19 19 -21c2 -1 2 -1 2 -2s-2 -2 -6 -2c-6 0 -10 2 -14 7c-3 3 -7 10 -9 13s-4 4 -6 4s-2 -1 -2 -2v-7c0 -7 1 -8 8 -10c2 -1 2 -3 0 -3h-26c-3 0 -3 2 0 3c6 2 8 4 8 8zM58 541v-17c0 -2 0 -3 4 -3c7 0 11 4 11 10c0 8 -5 12 -10 12
c-4 0 -5 -1 -5 -2z" />
    <glyph glyph-name="minus" unicode="&#x2212;" horiz-adv-x="410" 
d="M369 203c1 0 4 -2 4 -8c0 -9 -4 -19 -8 -19h-322c-4 0 -6 5 -6 6c0 10 5 20 11 20c107 1 214 2 321 1z" />
    <glyph glyph-name="eth" unicode="&#xf0;" horiz-adv-x="434" 
d="M79 692c0 5 8 4 15 4c46 -3 129 -45 187 -106c1 -1 3 -1 5 0c32 18 68 40 84 48c2 1 10 -1 10 -8c0 -2 -1 -4 -14 -12l-68 -41c-2 -1 -2 -4 0 -6c60 -79 100 -187 100 -318c0 -140 -46 -204 -89 -234c-26 -18 -61 -31 -94 -31c-105 0 -181 86 -181 187c0 47 15 85 35 113
c33 46 95 81 166 81c15 0 61 -7 97 -32c2 -1 5 -1 5 2c-6 71 -38 159 -74 214c-1 2 -5 2 -7 1c-36 -20 -77 -43 -91 -50c-5 -3 -10 6 -10 8s2 4 3 5c28 17 56 32 90 53c2 1 1 4 0 5c-40 51 -103 93 -159 109c-5 2 -10 5 -10 8zM215 353c-24 0 -57 -6 -89 -50
c-17 -26 -33 -70 -33 -129c0 -64 22 -105 46 -131c28 -31 55 -40 83 -40c30 0 58 16 80 50c25 39 40 89 40 146c0 66 -9 89 -21 103c-29 31 -65 51 -106 51z" />
    <glyph glyph-name="multiply" unicode="&#xd7;" horiz-adv-x="410" 
d="M61 312c-3 3 1 14 8 22c2 2 9 -2 13 -6l120 -118c2 -2 5 -2 6 -1l119 123c5 5 9 5 11 3c12 -13 8 -19 7 -20l-120 -124c-2 -2 0 -5 1 -6l123 -125c3 -3 3 -13 -4 -21c-1 -1 -7 -4 -10 -1l-131 130c-3 2 -6 1 -8 -2l-116 -117c-3 -3 -7 -7 -13 -3c-7 5 -10 11 -7 16
l121 121c3 3 3 5 1 7z" />
    <glyph glyph-name="copyright" unicode="&#xa9;" horiz-adv-x="666" 
d="M334 611c174 0 292 -133 292 -297c0 -160 -123 -298 -292 -298c-173 0 -294 138 -294 298c0 159 124 297 294 297zM334 594c-153 0 -271 -124 -271 -279c0 -158 118 -281 271 -281s271 123 271 281c0 155 -118 279 -271 279zM365 485c21 0 37 -2 55 -5l37 -6
c2 0 7 -6 7 -9c1 -16 7 -37 7 -60c0 -4 -1 -10 -4 -10c-2 0 -5 6 -7 12c-7 20 -11 38 -35 49c-15 8 -43 15 -75 15c-86 0 -127 -72 -127 -149c0 -88 58 -162 136 -162c50 0 83 17 98 45c7 13 13 23 16 27c2 3 6 -2 5 -6c-2 -10 -9 -33 -15 -48c-6 -13 -15 -18 -38 -25
c-21 -7 -43 -10 -69 -10c-49 0 -91 17 -121 39c-42 32 -63 84 -63 127c0 56 21 95 55 125c35 30 81 51 138 51z" />
    <glyph glyph-name="Aacute" unicode="&#xc1;" horiz-adv-x="646" 
d="M333 646c3 0 5 -2 7 -8c4 -26 14 -51 28 -86c77 -206 119 -306 186 -462c26 -62 35 -71 61 -77c11 -2 17 -6 17 -9c0 -5 -9 -7 -18 -7c-16 0 -27 3 -81 3c-27 0 -69 -4 -90 -4c-10 0 -16 3 -16 7s10 8 19 9c45 6 46 26 46 45c0 12 -36 104 -73 201c-3 6 -9 12 -12 12
c-37 -3 -174 -2 -196 -3c-3 0 -11 -13 -14 -20c-9 -20 -39 -96 -55 -150c-12 -41 -11 -59 0 -70c8 -8 22 -12 41 -16c10 -2 15 -6 15 -9c0 -5 -9 -7 -19 -7c-19 0 -62 5 -99 5c-25 0 -42 -5 -63 -5c-11 0 -17 2 -17 7s10 7 20 9c46 9 52 16 91 101c27 57 117 280 179 434
c5 13 6 20 6 29c0 4 2 10 3 11c6 7 24 25 28 50c1 4 2 10 6 10zM397 301c-1 0 1 6 0 10c-45 126 -69 179 -86 220c-3 7 -5 4 -8 -3c-28 -68 -68 -179 -82 -221c-1 0 -2 -9 3 -9c16 -1 42 -1 80 -1c34 0 81 0 93 4zM409 760c8 5 18 8 24 5c12 -4 19 -10 19 -16
c0 -5 -10 -10 -20 -18c-37 -24 -77 -49 -111 -66c-10 -5 -19 -7 -19 -2c0 2 2 5 7 9c29 28 64 61 100 88z" />
    <glyph glyph-name="Acircumflex" unicode="&#xc2;" horiz-adv-x="646" 
d="M333 646c3 0 5 -2 7 -8c4 -26 14 -51 28 -86c77 -206 119 -306 186 -462c26 -62 35 -71 61 -77c11 -2 17 -6 17 -9c0 -5 -9 -7 -18 -7c-16 0 -27 3 -81 3c-27 0 -69 -4 -90 -4c-10 0 -16 3 -16 7s10 8 19 9c45 6 46 26 46 45c0 12 -36 104 -73 201c-3 6 -9 12 -12 12
c-37 -3 -174 -2 -196 -3c-3 0 -11 -13 -14 -20c-9 -20 -39 -96 -55 -150c-12 -41 -11 -59 0 -70c8 -8 22 -12 41 -16c10 -2 15 -6 15 -9c0 -5 -9 -7 -19 -7c-19 0 -62 5 -99 5c-25 0 -42 -5 -63 -5c-11 0 -17 2 -17 7s10 7 20 9c46 9 52 16 91 101c27 57 117 280 179 434
c5 13 6 20 6 29c0 4 2 10 3 11c6 7 24 25 28 50c1 4 2 10 6 10zM397 301c-1 0 1 6 0 10c-45 126 -69 179 -86 220c-3 7 -5 4 -8 -3c-28 -68 -68 -179 -82 -221c-1 0 -2 -9 3 -9c16 -1 42 -1 80 -1c34 0 81 0 93 4zM333 751c6 0 13 -6 22 -17c20 -26 65 -68 84 -86
c8 -8 1 -9 -3 -8c-28 8 -80 48 -102 64c-4 3 -8 0 -10 -1c-27 -20 -77 -55 -100 -64c-5 -1 -16 -1 -4 8c17 14 62 56 92 89c9 9 16 15 21 15z" />
    <glyph glyph-name="Adieresis" unicode="&#xc4;" horiz-adv-x="646" 
d="M333 646c3 0 5 -2 7 -8c4 -26 14 -51 28 -86c77 -206 119 -306 186 -462c26 -62 35 -71 61 -77c11 -2 17 -6 17 -9c0 -5 -9 -7 -18 -7c-16 0 -27 3 -81 3c-27 0 -69 -4 -90 -4c-10 0 -16 3 -16 7s10 8 19 9c45 6 46 26 46 45c0 12 -36 104 -73 201c-3 6 -9 12 -12 12
c-37 -3 -174 -2 -196 -3c-3 0 -11 -13 -14 -20c-9 -20 -39 -96 -55 -150c-12 -41 -11 -59 0 -70c8 -8 22 -12 41 -16c10 -2 15 -6 15 -9c0 -5 -9 -7 -19 -7c-19 0 -62 5 -99 5c-25 0 -42 -5 -63 -5c-11 0 -17 2 -17 7s10 7 20 9c46 9 52 16 91 101c27 57 117 280 179 434
c5 13 6 20 6 29c0 4 2 10 3 11c6 7 24 25 28 50c1 4 2 10 6 10zM397 301c-1 0 1 6 0 10c-45 126 -69 179 -86 220c-3 7 -5 4 -8 -3c-28 -68 -68 -179 -82 -221c-1 0 -2 -9 3 -9c16 -1 42 -1 80 -1c34 0 81 0 93 4zM255 720c15 0 28 -13 28 -28c0 -21 -16 -32 -32 -32
c-8 0 -24 7 -24 27c0 16 10 33 28 33zM404 720c14 0 28 -14 28 -30c0 -14 -16 -30 -31 -30s-27 13 -27 30c0 19 14 30 30 30z" />
    <glyph glyph-name="Agrave" unicode="&#xc0;" horiz-adv-x="646" 
d="M333 646c3 0 5 -2 7 -8c4 -26 14 -51 28 -86c77 -206 119 -306 186 -462c26 -62 35 -71 61 -77c11 -2 17 -6 17 -9c0 -5 -9 -7 -18 -7c-16 0 -27 3 -81 3c-27 0 -69 -4 -90 -4c-10 0 -16 3 -16 7s10 8 19 9c45 6 46 26 46 45c0 12 -36 104 -73 201c-3 6 -9 12 -12 12
c-37 -3 -174 -2 -196 -3c-3 0 -11 -13 -14 -20c-9 -20 -39 -96 -55 -150c-12 -41 -11 -59 0 -70c8 -8 22 -12 41 -16c10 -2 15 -6 15 -9c0 -5 -9 -7 -19 -7c-19 0 -62 5 -99 5c-25 0 -42 -5 -63 -5c-11 0 -17 2 -17 7s10 7 20 9c46 9 52 16 91 101c27 57 117 280 179 434
c5 13 6 20 6 29c0 4 2 10 3 11c6 7 24 25 28 50c1 4 2 10 6 10zM397 301c-1 0 1 6 0 10c-45 126 -69 179 -86 220c-3 7 -5 4 -8 -3c-28 -68 -68 -179 -82 -221c-1 0 -2 -9 3 -9c16 -1 42 -1 80 -1c34 0 81 0 93 4zM236 778c5 2 16 2 23 -5c33 -34 57 -62 87 -99
c14 -16 3 -19 -13 -7c-30 22 -65 46 -102 77c-10 8 -15 13 -15 18s7 12 20 16z" />
    <glyph glyph-name="Aring" unicode="&#xc5;" horiz-adv-x="646" 
d="M333 646c3 0 5 -2 7 -8c4 -26 14 -51 28 -86c77 -206 119 -306 186 -462c26 -62 35 -71 61 -77c11 -2 17 -6 17 -9c0 -5 -9 -7 -18 -7c-16 0 -27 3 -81 3c-27 0 -69 -4 -90 -4c-10 0 -16 3 -16 7s10 8 19 9c45 6 46 26 46 45c0 12 -36 104 -73 201c-3 6 -9 12 -12 12
c-37 -3 -174 -2 -196 -3c-3 0 -11 -13 -14 -20c-9 -20 -39 -96 -55 -150c-12 -41 -11 -59 0 -70c8 -8 22 -12 41 -16c10 -2 15 -6 15 -9c0 -5 -9 -7 -19 -7c-19 0 -62 5 -99 5c-25 0 -42 -5 -63 -5c-11 0 -17 2 -17 7s10 7 20 9c46 9 52 16 91 101c27 57 117 280 179 434
c5 13 6 20 6 29c0 4 2 10 3 11c6 7 24 25 28 50c1 4 2 10 6 10zM397 301c-1 0 1 6 0 10c-45 126 -69 179 -86 220c-3 7 -5 4 -8 -3c-28 -68 -68 -179 -82 -221c-1 0 -2 -9 3 -9c16 -1 42 -1 80 -1c34 0 81 0 93 4zM330 773c36 0 60 -29 60 -60c0 -32 -24 -61 -60 -61
s-59 29 -59 61c0 31 23 60 59 60zM330 754c-20 0 -40 -17 -40 -41c0 -27 21 -40 40 -40c20 0 40 12 40 42c0 22 -19 39 -40 39z" />
    <glyph glyph-name="Atilde" unicode="&#xc3;" horiz-adv-x="646" 
d="M333 646c3 0 5 -2 7 -8c4 -26 14 -51 28 -86c77 -206 119 -306 186 -462c26 -62 35 -71 61 -77c11 -2 17 -6 17 -9c0 -5 -9 -7 -18 -7c-16 0 -27 3 -81 3c-27 0 -69 -4 -90 -4c-10 0 -16 3 -16 7s10 8 19 9c45 6 46 26 46 45c0 12 -36 104 -73 201c-3 6 -9 12 -12 12
c-37 -3 -174 -2 -196 -3c-3 0 -11 -13 -14 -20c-9 -20 -39 -96 -55 -150c-12 -41 -11 -59 0 -70c8 -8 22 -12 41 -16c10 -2 15 -6 15 -9c0 -5 -9 -7 -19 -7c-19 0 -62 5 -99 5c-25 0 -42 -5 -63 -5c-11 0 -17 2 -17 7s10 7 20 9c46 9 52 16 91 101c27 57 117 280 179 434
c5 13 6 20 6 29c0 4 2 10 3 11c6 7 24 25 28 50c1 4 2 10 6 10zM397 301c-1 0 1 6 0 10c-45 126 -69 179 -86 220c-3 7 -5 4 -8 -3c-28 -68 -68 -179 -82 -221c-1 0 -2 -9 3 -9c16 -1 42 -1 80 -1c34 0 81 0 93 4zM284 723c12 0 17 -1 33 -3c13 -1 47 -5 64 -5
c32 0 42 2 53 18c6 8 10 11 13 11c2 0 2 -6 -2 -14c-6 -12 -28 -36 -42 -46c-7 -5 -17 -6 -20 -6c-23 0 -81 8 -101 8s-24 -2 -44 -27c-6 -4 -7 -6 -11 -6c-2 0 -3 2 2 16c6 12 21 30 34 44c7 6 17 10 21 10z" />
    <glyph glyph-name="Ccedilla" unicode="&#xc7;" horiz-adv-x="642" 
d="M426 -125c0 -44 -49 -82 -86 -82c-27 0 -43 17 -43 31c0 7 13 20 24 20c6 0 10 -5 17 -19c3 -7 11 -14 23 -14c16 0 34 13 34 43c0 32 -24 46 -51 56c-9 3 -11 5 -11 8c0 1 2 5 4 7c9 11 32 35 53 57h-5c-118 0 -192 44 -256 109c-40 41 -83 135 -83 219
c0 121 49 199 113 257c52 47 138 82 226 82c82 0 167 -34 199 -53c6 -4 9 -11 9 -16c-3 -24 2 -64 2 -75c0 -9 -3 -16 -6 -16c-4 0 -7 6 -9 13c-8 34 -30 66 -47 80c-37 35 -100 52 -156 52c-90 0 -147 -43 -186 -84c-38 -41 -74 -131 -74 -229c0 -96 45 -190 95 -244
c50 -53 122 -74 177 -74c56 0 93 10 121 27c39 23 64 58 78 100c4 14 7 18 10 18c4 0 6 -8 6 -15c0 -17 -12 -70 -14 -82c-1 -4 -4 -8 -8 -11c-55 -32 -108 -54 -178 -57c-15 -17 -19 -22 -23 -28c-4 -5 -4 -10 -3 -11c17 -12 48 -26 48 -69z" />
    <glyph glyph-name="Eacute" unicode="&#xc9;" horiz-adv-x="506" 
d="M45 629c0 2 6 5 14 5c23 0 45 -3 77 -3c45 0 190 2 230 2c37 0 49 2 60 2c4 0 7 -5 9 -17c1 -12 2 -41 7 -64c1 -6 0 -15 -4 -15c-3 0 -5 3 -10 14c-19 45 -34 55 -52 58c-27 5 -178 5 -200 3c-8 -1 -12 -3 -12 -37v-233c0 -15 3 -18 6 -18h136c51 0 59 2 67 7
c7 3 16 15 26 35c4 8 7 11 10 11s5 -4 5 -11c0 -6 -4 -32 -6 -50c-2 -20 1 -48 2 -54c3 -15 -4 -21 -6 -21c-4 0 -5 5 -12 22c-3 9 -10 25 -24 30c-21 6 -51 7 -195 7c-9 0 -9 -1 -9 -23c0 -50 3 -187 3 -206c0 -11 7 -36 27 -46c17 -9 31 -11 103 -11c96 0 109 3 127 19
c9 8 25 32 35 46s14 18 18 18s5 -6 1 -18c-8 -27 -16 -62 -22 -74c-3 -6 -7 -11 -13 -11c-106 0 -220 4 -302 4c-33 0 -85 -5 -96 -5c-12 0 -18 3 -18 7s7 6 18 8c36 6 55 20 56 64c4 162 5 259 5 467c0 59 -11 71 -47 79c-10 2 -14 5 -14 9zM329 765c8 5 18 8 24 5
c12 -4 19 -10 19 -16c0 -5 -10 -10 -20 -18c-37 -24 -77 -49 -111 -66c-10 -5 -19 -7 -19 -2c0 2 2 5 7 9c29 28 64 61 100 88z" />
    <glyph glyph-name="Ecircumflex" unicode="&#xca;" horiz-adv-x="506" 
d="M45 629c0 2 6 5 14 5c23 0 45 -3 77 -3c45 0 190 2 230 2c37 0 49 2 60 2c4 0 7 -5 9 -17c1 -12 2 -41 7 -64c1 -6 0 -15 -4 -15c-3 0 -5 3 -10 14c-19 45 -34 55 -52 58c-27 5 -178 5 -200 3c-8 -1 -12 -3 -12 -37v-233c0 -15 3 -18 6 -18h136c51 0 59 2 67 7
c7 3 16 15 26 35c4 8 7 11 10 11s5 -4 5 -11c0 -6 -4 -32 -6 -50c-2 -20 1 -48 2 -54c3 -15 -4 -21 -6 -21c-4 0 -5 5 -12 22c-3 9 -10 25 -24 30c-21 6 -51 7 -195 7c-9 0 -9 -1 -9 -23c0 -50 3 -187 3 -206c0 -11 7 -36 27 -46c17 -9 31 -11 103 -11c96 0 109 3 127 19
c9 8 25 32 35 46s14 18 18 18s5 -6 1 -18c-8 -27 -16 -62 -22 -74c-3 -6 -7 -11 -13 -11c-106 0 -220 4 -302 4c-33 0 -85 -5 -96 -5c-12 0 -18 3 -18 7s7 6 18 8c36 6 55 20 56 64c4 162 5 259 5 467c0 59 -11 71 -47 79c-10 2 -14 5 -14 9zM260 775c6 0 13 -6 22 -17
c20 -26 65 -68 84 -86c8 -8 1 -9 -3 -8c-28 8 -80 48 -102 64c-4 3 -8 0 -10 -1c-27 -20 -77 -55 -100 -64c-5 -1 -16 -1 -4 8c17 14 62 56 92 89c9 9 16 15 21 15z" />
    <glyph glyph-name="Edieresis" unicode="&#xcb;" horiz-adv-x="506" 
d="M45 629c0 2 6 5 14 5c23 0 45 -3 77 -3c45 0 190 2 230 2c37 0 49 2 60 2c4 0 7 -5 9 -17c1 -12 2 -41 7 -64c1 -6 0 -15 -4 -15c-3 0 -5 3 -10 14c-19 45 -34 55 -52 58c-27 5 -178 5 -200 3c-8 -1 -12 -3 -12 -37v-233c0 -15 3 -18 6 -18h136c51 0 59 2 67 7
c7 3 16 15 26 35c4 8 7 11 10 11s5 -4 5 -11c0 -6 -4 -32 -6 -50c-2 -20 1 -48 2 -54c3 -15 -4 -21 -6 -21c-4 0 -5 5 -12 22c-3 9 -10 25 -24 30c-21 6 -51 7 -195 7c-9 0 -9 -1 -9 -23c0 -50 3 -187 3 -206c0 -11 7 -36 27 -46c17 -9 31 -11 103 -11c96 0 109 3 127 19
c9 8 25 32 35 46s14 18 18 18s5 -6 1 -18c-8 -27 -16 -62 -22 -74c-3 -6 -7 -11 -13 -11c-106 0 -220 4 -302 4c-33 0 -85 -5 -96 -5c-12 0 -18 3 -18 7s7 6 18 8c36 6 55 20 56 64c4 162 5 259 5 467c0 59 -11 71 -47 79c-10 2 -14 5 -14 9zM189 737c15 0 28 -13 28 -28
c0 -21 -16 -32 -32 -32c-8 0 -24 7 -24 27c0 16 10 33 28 33zM338 737c14 0 28 -14 28 -30c0 -14 -16 -30 -31 -30s-27 13 -27 30c0 19 14 30 30 30z" />
    <glyph glyph-name="Egrave" unicode="&#xc8;" horiz-adv-x="506" 
d="M45 629c0 2 6 5 14 5c23 0 45 -3 77 -3c45 0 190 2 230 2c37 0 49 2 60 2c4 0 7 -5 9 -17c1 -12 2 -41 7 -64c1 -6 0 -15 -4 -15c-3 0 -5 3 -10 14c-19 45 -34 55 -52 58c-27 5 -178 5 -200 3c-8 -1 -12 -3 -12 -37v-233c0 -15 3 -18 6 -18h136c51 0 59 2 67 7
c7 3 16 15 26 35c4 8 7 11 10 11s5 -4 5 -11c0 -6 -4 -32 -6 -50c-2 -20 1 -48 2 -54c3 -15 -4 -21 -6 -21c-4 0 -5 5 -12 22c-3 9 -10 25 -24 30c-21 6 -51 7 -195 7c-9 0 -9 -1 -9 -23c0 -50 3 -187 3 -206c0 -11 7 -36 27 -46c17 -9 31 -11 103 -11c96 0 109 3 127 19
c9 8 25 32 35 46s14 18 18 18s5 -6 1 -18c-8 -27 -16 -62 -22 -74c-3 -6 -7 -11 -13 -11c-106 0 -220 4 -302 4c-33 0 -85 -5 -96 -5c-12 0 -18 3 -18 7s7 6 18 8c36 6 55 20 56 64c4 162 5 259 5 467c0 59 -11 71 -47 79c-10 2 -14 5 -14 9zM178 783c5 2 16 2 23 -5
c33 -34 57 -62 87 -99c14 -16 3 -19 -13 -7c-30 22 -65 46 -102 77c-10 8 -15 13 -15 18s7 12 20 16z" />
    <glyph glyph-name="Iacute" unicode="&#xcd;" horiz-adv-x="270" 
d="M41 630c0 3 5 5 15 5c28 0 47 -4 78 -4c28 0 56 4 78 4c7 0 14 -2 14 -4c0 -4 -4 -8 -15 -9c-39 -7 -43 -20 -45 -62c-3 -53 -2 -169 -2 -234c0 -147 3 -234 5 -262c3 -38 8 -43 38 -51c14 -3 17 -6 17 -10c0 -5 -7 -6 -19 -6c-9 0 -38 3 -62 3c-43 0 -73 -5 -91 -5
c-9 0 -15 2 -15 7c0 3 6 6 23 10c37 8 42 24 43 84c2 57 1 341 1 394c0 49 -3 72 -5 87c-3 33 -12 37 -47 45c-7 2 -11 4 -11 8zM223 771c8 5 18 8 24 5c12 -4 19 -10 19 -16c0 -5 -10 -10 -20 -18c-37 -24 -77 -49 -111 -66c-10 -5 -19 -7 -19 -2c0 2 2 5 7 9
c29 28 64 61 100 88z" />
    <glyph glyph-name="Icircumflex" unicode="&#xce;" horiz-adv-x="270" 
d="M41 630c0 3 5 5 15 5c28 0 47 -4 78 -4c28 0 56 4 78 4c7 0 14 -2 14 -4c0 -4 -4 -8 -15 -9c-39 -7 -43 -20 -45 -62c-3 -53 -2 -169 -2 -234c0 -147 3 -234 5 -262c3 -38 8 -43 38 -51c14 -3 17 -6 17 -10c0 -5 -7 -6 -19 -6c-9 0 -38 3 -62 3c-43 0 -73 -5 -91 -5
c-9 0 -15 2 -15 7c0 3 6 6 23 10c37 8 42 24 43 84c2 57 1 341 1 394c0 49 -3 72 -5 87c-3 33 -12 37 -47 45c-7 2 -11 4 -11 8zM139 772c6 0 13 -6 22 -17c20 -26 65 -68 84 -86c8 -8 1 -9 -3 -8c-28 8 -80 48 -102 64c-4 3 -8 0 -10 -1c-27 -20 -77 -55 -100 -64
c-5 -1 -16 -1 -4 8c17 14 62 56 92 89c9 9 16 15 21 15z" />
    <glyph glyph-name="Idieresis" unicode="&#xcf;" horiz-adv-x="270" 
d="M41 630c0 3 5 5 15 5c28 0 47 -4 78 -4c28 0 56 4 78 4c7 0 14 -2 14 -4c0 -4 -4 -8 -15 -9c-39 -7 -43 -20 -45 -62c-3 -53 -2 -169 -2 -234c0 -147 3 -234 5 -262c3 -38 8 -43 38 -51c14 -3 17 -6 17 -10c0 -5 -7 -6 -19 -6c-9 0 -38 3 -62 3c-43 0 -73 -5 -91 -5
c-9 0 -15 2 -15 7c0 3 6 6 23 10c37 8 42 24 43 84c2 57 1 341 1 394c0 49 -3 72 -5 87c-3 33 -12 37 -47 45c-7 2 -11 4 -11 8zM63 738c15 0 28 -13 28 -28c0 -21 -16 -32 -32 -32c-8 0 -24 7 -24 27c0 16 10 33 28 33zM212 738c14 0 28 -14 28 -30c0 -14 -16 -30 -31 -30
s-27 13 -27 30c0 19 14 30 30 30z" />
    <glyph glyph-name="Igrave" unicode="&#xcc;" horiz-adv-x="270" 
d="M41 630c0 3 5 5 15 5c28 0 47 -4 78 -4c28 0 56 4 78 4c7 0 14 -2 14 -4c0 -4 -4 -8 -15 -9c-39 -7 -43 -20 -45 -62c-3 -53 -2 -169 -2 -234c0 -147 3 -234 5 -262c3 -38 8 -43 38 -51c14 -3 17 -6 17 -10c0 -5 -7 -6 -19 -6c-9 0 -38 3 -62 3c-43 0 -73 -5 -91 -5
c-9 0 -15 2 -15 7c0 3 6 6 23 10c37 8 42 24 43 84c2 57 1 341 1 394c0 49 -3 72 -5 87c-3 33 -12 37 -47 45c-7 2 -11 4 -11 8zM49 784c5 2 16 2 23 -5c33 -34 57 -62 87 -99c14 -16 3 -19 -13 -7c-30 22 -65 46 -102 77c-10 8 -15 13 -15 18s7 12 20 16z" />
    <glyph glyph-name="Ntilde" unicode="&#xd1;" horiz-adv-x="738" 
d="M21 629c0 4 5 7 22 7c21 0 68 -5 104 -5c5 0 9 -4 23 -22c65 -84 338 -393 435 -501c1 -1 6 -3 6 8c0 40 -4 335 -5 426c0 60 -20 69 -51 77c-12 3 -19 5 -19 9c0 5 9 6 20 6c18 0 44 -3 67 -3c30 0 52 3 63 3c10 0 16 -1 16 -5c0 -5 -9 -7 -17 -10
c-39 -13 -40 -34 -44 -60c-4 -30 -6 -254 -6 -348c0 -92 -2 -150 0 -203c1 -20 1 -30 -6 -30c-4 0 -16 15 -34 37c-63 77 -317 368 -457 532c-5 6 -8 5 -8 -2c0 -40 -3 -373 -3 -416c0 -44 3 -68 11 -85c8 -18 35 -28 49 -32c11 -3 18 -5 18 -11c0 -5 -9 -6 -19 -6
c-17 0 -44 5 -76 5c-31 0 -62 -5 -69 -5c-15 0 -17 3 -17 6c0 5 8 7 19 10c39 11 48 21 53 79c3 36 11 376 11 438c0 59 -9 66 -18 73c-13 10 -25 15 -49 19c-14 2 -19 4 -19 9zM328 738c12 0 17 -1 33 -3c13 -1 47 -5 64 -5c32 0 42 2 53 18c6 8 10 11 13 11
c2 0 2 -6 -2 -14c-6 -12 -28 -36 -42 -46c-7 -5 -17 -6 -20 -6c-23 0 -81 8 -101 8s-24 -2 -44 -27c-6 -4 -7 -6 -11 -6c-2 0 -3 2 2 16c6 12 21 30 34 44c7 6 17 10 21 10z" />
    <glyph glyph-name="Oacute" unicode="&#xd3;" horiz-adv-x="734" 
d="M368 649c169 0 320 -155 320 -341c0 -162 -110 -262 -187 -296c-40 -18 -85 -30 -129 -30c-178 0 -326 159 -326 342c0 100 33 188 129 261c51 40 129 64 193 64zM348 634c-56 0 -123 -36 -157 -75c-56 -65 -75 -158 -75 -236c0 -71 30 -153 73 -211
c68 -91 144 -111 201 -111c39 0 74 11 108 36c55 41 121 134 121 270c0 85 -34 179 -94 247c-39 44 -94 80 -177 80zM443 779c8 5 18 8 24 5c12 -4 19 -10 19 -16c0 -5 -10 -10 -20 -18c-37 -24 -77 -49 -111 -66c-10 -5 -19 -7 -19 -2c0 2 2 5 7 9c29 28 64 61 100 88z" />
    <glyph glyph-name="Ocircumflex" unicode="&#xd4;" horiz-adv-x="734" 
d="M368 649c169 0 320 -155 320 -341c0 -162 -110 -262 -187 -296c-40 -18 -85 -30 -129 -30c-178 0 -326 159 -326 342c0 100 33 188 129 261c51 40 129 64 193 64zM348 634c-56 0 -123 -36 -157 -75c-56 -65 -75 -158 -75 -236c0 -71 30 -153 73 -211
c68 -91 144 -111 201 -111c39 0 74 11 108 36c55 41 121 134 121 270c0 85 -34 179 -94 247c-39 44 -94 80 -177 80zM369 779c6 0 13 -6 22 -17c20 -26 65 -68 84 -86c8 -8 1 -9 -3 -8c-28 8 -80 48 -102 64c-4 3 -8 0 -10 -1c-27 -20 -77 -55 -100 -64c-5 -1 -16 -1 -4 8
c17 14 62 56 92 89c9 9 16 15 21 15z" />
    <glyph glyph-name="Odieresis" unicode="&#xd6;" horiz-adv-x="734" 
d="M368 649c169 0 320 -155 320 -341c0 -162 -110 -262 -187 -296c-40 -18 -85 -30 -129 -30c-178 0 -326 159 -326 342c0 100 33 188 129 261c51 40 129 64 193 64zM348 634c-56 0 -123 -36 -157 -75c-56 -65 -75 -158 -75 -236c0 -71 30 -153 73 -211
c68 -91 144 -111 201 -111c39 0 74 11 108 36c55 41 121 134 121 270c0 85 -34 179 -94 247c-39 44 -94 80 -177 80zM292 749c15 0 28 -13 28 -28c0 -21 -16 -32 -32 -32c-8 0 -24 7 -24 27c0 16 10 33 28 33zM441 749c14 0 28 -14 28 -30c0 -14 -16 -30 -31 -30
s-27 13 -27 30c0 19 14 30 30 30z" />
    <glyph glyph-name="Ograve" unicode="&#xd2;" horiz-adv-x="734" 
d="M368 649c169 0 320 -155 320 -341c0 -162 -110 -262 -187 -296c-40 -18 -85 -30 -129 -30c-178 0 -326 159 -326 342c0 100 33 188 129 261c51 40 129 64 193 64zM348 634c-56 0 -123 -36 -157 -75c-56 -65 -75 -158 -75 -236c0 -71 30 -153 73 -211
c68 -91 144 -111 201 -111c39 0 74 11 108 36c55 41 121 134 121 270c0 85 -34 179 -94 247c-39 44 -94 80 -177 80zM284 798c5 2 16 2 23 -5c33 -34 57 -62 87 -99c14 -16 3 -19 -13 -7c-30 22 -65 46 -102 77c-10 8 -15 13 -15 18s7 12 20 16z" />
    <glyph glyph-name="Otilde" unicode="&#xd5;" horiz-adv-x="734" 
d="M368 649c169 0 320 -155 320 -341c0 -162 -110 -262 -187 -296c-40 -18 -85 -30 -129 -30c-178 0 -326 159 -326 342c0 100 33 188 129 261c51 40 129 64 193 64zM348 634c-56 0 -123 -36 -157 -75c-56 -65 -75 -158 -75 -236c0 -71 30 -153 73 -211
c68 -91 144 -111 201 -111c39 0 74 11 108 36c55 41 121 134 121 270c0 85 -34 179 -94 247c-39 44 -94 80 -177 80zM308 752c12 0 17 -1 33 -3c13 -1 47 -5 64 -5c32 0 42 2 53 18c6 8 10 11 13 11c2 0 2 -6 -2 -14c-6 -12 -28 -36 -42 -46c-7 -5 -17 -6 -20 -6
c-23 0 -81 8 -101 8s-24 -2 -44 -27c-6 -4 -7 -6 -11 -6c-2 0 -3 2 2 16c6 12 21 30 34 44c7 6 17 10 21 10z" />
    <glyph glyph-name="Scaron" unicode="&#x160;" horiz-adv-x="430" 
d="M257 649c42 0 90 -13 105 -17c5 -2 7 -8 7 -11c0 -27 3 -55 4 -65c2 -14 -2 -20 -5 -20c-4 0 -7 4 -9 15c-6 26 -17 47 -36 59c-23 17 -56 24 -82 24c-46 0 -118 -44 -118 -129c0 -60 41 -97 75 -120c41 -27 73 -51 104 -74c36 -26 90 -71 90 -153
c0 -109 -103 -176 -204 -176c-40 0 -101 11 -132 28c-13 7 -16 13 -19 30c-2 17 -8 43 -9 68c-1 8 0 17 5 17c4 0 7 -5 11 -19c18 -76 82 -107 146 -107c83 0 136 70 136 136c0 74 -51 110 -125 160c-68 46 -133 101 -133 185c0 58 23 98 63 129c26 21 71 40 126 40z
M236 677c-4 0 -11 5 -20 16c-20 26 -62 65 -86 87c-9 9 -1 9 3 8c28 -8 80 -46 102 -63c4 -3 8 0 10 2c27 19 77 53 100 62c5 1 16 1 4 -8c-17 -14 -64 -56 -94 -89c-9 -9 -16 -15 -19 -15z" />
    <glyph glyph-name="Uacute" unicode="&#xda;" horiz-adv-x="666" 
d="M123 631c26 0 57 2 77 2c11 0 15 -2 15 -5c0 -5 -7 -8 -15 -10c-55 -8 -51 -49 -51 -97c-2 -96 -2 -241 0 -280c2 -66 20 -127 56 -163c37 -38 93 -57 145 -57c120 0 194 60 201 254c2 37 3 85 3 122c0 192 -7 206 -36 215l-24 6c-6 1 -14 6 -14 9c0 5 5 6 15 6
c18 0 36 -2 67 -2c21 0 47 3 71 3c9 0 17 -2 17 -5c0 -5 -6 -8 -21 -11c-39 -7 -41 -28 -43 -73c-5 -65 -4 -206 -10 -278c-7 -74 -15 -157 -73 -219c-52 -55 -127 -64 -174 -64c-50 0 -112 13 -154 46c-59 47 -82 108 -86 222c-3 70 -1 242 -5 301c-4 53 -5 57 -48 69
c-3 1 -10 4 -10 9c0 4 8 4 18 4c18 0 46 -4 79 -4zM413 767c8 5 18 8 24 5c12 -4 19 -10 19 -16c0 -5 -10 -10 -20 -18c-37 -24 -77 -49 -111 -66c-10 -5 -19 -7 -19 -2c0 2 2 5 7 9c29 28 64 61 100 88z" />
    <glyph glyph-name="Ucircumflex" unicode="&#xdb;" horiz-adv-x="666" 
d="M123 631c26 0 57 2 77 2c11 0 15 -2 15 -5c0 -5 -7 -8 -15 -10c-55 -8 -51 -49 -51 -97c-2 -96 -2 -241 0 -280c2 -66 20 -127 56 -163c37 -38 93 -57 145 -57c120 0 194 60 201 254c2 37 3 85 3 122c0 192 -7 206 -36 215l-24 6c-6 1 -14 6 -14 9c0 5 5 6 15 6
c18 0 36 -2 67 -2c21 0 47 3 71 3c9 0 17 -2 17 -5c0 -5 -6 -8 -21 -11c-39 -7 -41 -28 -43 -73c-5 -65 -4 -206 -10 -278c-7 -74 -15 -157 -73 -219c-52 -55 -127 -64 -174 -64c-50 0 -112 13 -154 46c-59 47 -82 108 -86 222c-3 70 -1 242 -5 301c-4 53 -5 57 -48 69
c-3 1 -10 4 -10 9c0 4 8 4 18 4c18 0 46 -4 79 -4zM353 778c6 0 13 -6 22 -17c20 -26 65 -68 84 -86c8 -8 1 -9 -3 -8c-28 8 -80 48 -102 64c-4 3 -8 0 -10 -1c-27 -20 -77 -55 -100 -64c-5 -1 -16 -1 -4 8c17 14 62 56 92 89c9 9 16 15 21 15z" />
    <glyph glyph-name="Udieresis" unicode="&#xdc;" horiz-adv-x="666" 
d="M123 631c26 0 57 2 77 2c11 0 15 -2 15 -5c0 -5 -7 -8 -15 -10c-55 -8 -51 -49 -51 -97c-2 -96 -2 -241 0 -280c2 -66 20 -127 56 -163c37 -38 93 -57 145 -57c120 0 194 60 201 254c2 37 3 85 3 122c0 192 -7 206 -36 215l-24 6c-6 1 -14 6 -14 9c0 5 5 6 15 6
c18 0 36 -2 67 -2c21 0 47 3 71 3c9 0 17 -2 17 -5c0 -5 -6 -8 -21 -11c-39 -7 -41 -28 -43 -73c-5 -65 -4 -206 -10 -278c-7 -74 -15 -157 -73 -219c-52 -55 -127 -64 -174 -64c-50 0 -112 13 -154 46c-59 47 -82 108 -86 222c-3 70 -1 242 -5 301c-4 53 -5 57 -48 69
c-3 1 -10 4 -10 9c0 4 8 4 18 4c18 0 46 -4 79 -4zM279 734c15 0 28 -13 28 -28c0 -21 -16 -32 -32 -32c-8 0 -24 7 -24 27c0 16 10 33 28 33zM428 734c14 0 28 -14 28 -30c0 -14 -16 -30 -31 -30s-27 13 -27 30c0 19 14 30 30 30z" />
    <glyph glyph-name="Ugrave" unicode="&#xd9;" horiz-adv-x="666" 
d="M123 631c26 0 57 2 77 2c11 0 15 -2 15 -5c0 -5 -7 -8 -15 -10c-55 -8 -51 -49 -51 -97c-2 -96 -2 -241 0 -280c2 -66 20 -127 56 -163c37 -38 93 -57 145 -57c120 0 194 60 201 254c2 37 3 85 3 122c0 192 -7 206 -36 215l-24 6c-6 1 -14 6 -14 9c0 5 5 6 15 6
c18 0 36 -2 67 -2c21 0 47 3 71 3c9 0 17 -2 17 -5c0 -5 -6 -8 -21 -11c-39 -7 -41 -28 -43 -73c-5 -65 -4 -206 -10 -278c-7 -74 -15 -157 -73 -219c-52 -55 -127 -64 -174 -64c-50 0 -112 13 -154 46c-59 47 -82 108 -86 222c-3 70 -1 242 -5 301c-4 53 -5 57 -48 69
c-3 1 -10 4 -10 9c0 4 8 4 18 4c18 0 46 -4 79 -4zM268 775c5 2 16 2 23 -5c33 -34 57 -62 87 -99c14 -16 3 -19 -13 -7c-30 22 -65 46 -102 77c-10 8 -15 13 -15 18s7 12 20 16z" />
    <glyph glyph-name="Yacute" unicode="&#xdd;" horiz-adv-x="586" 
d="M1 630c0 5 6 6 19 6c14 0 62 -5 93 -5c30 0 60 3 71 3c12 0 16 -3 16 -6c0 -5 -6 -8 -17 -10c-24 -5 -29 -11 -29 -18c0 -6 6 -21 17 -39c18 -31 110 -188 135 -222c1 -1 9 -6 12 -1c41 67 107 173 125 205c17 27 24 42 24 52c0 12 -8 19 -36 25c-9 1 -18 5 -18 10
c0 3 6 5 16 5c28 0 44 -4 72 -4c24 0 50 4 66 4c12 0 18 -2 18 -6s-6 -8 -22 -10c-29 -5 -48 -20 -67 -45c-53 -66 -123 -188 -156 -241c-10 -17 -15 -33 -16 -42c-3 -24 -3 -88 -3 -135c0 -26 0 -46 2 -80c3 -46 8 -60 43 -66c17 -3 21 -6 21 -10c0 -5 -9 -6 -17 -6
c-32 0 -65 6 -89 6c-29 0 -43 -4 -70 -4c-14 0 -21 4 -21 8s9 7 22 9c39 4 43 13 46 54c2 21 4 86 4 130c0 62 -1 83 -3 94c-1 6 -3 16 -6 21c-39 68 -119 201 -148 243c-31 44 -54 60 -82 65c-16 3 -22 7 -22 10zM383 766c8 5 18 8 24 5c12 -4 19 -10 19 -16
c0 -5 -10 -10 -20 -18c-37 -24 -77 -49 -111 -66c-10 -5 -19 -7 -19 -2c0 2 2 5 7 9c29 28 64 61 100 88z" />
    <glyph glyph-name="Ydieresis" unicode="&#x178;" horiz-adv-x="586" 
d="M1 630c0 5 6 6 19 6c14 0 62 -5 93 -5c30 0 60 3 71 3c12 0 16 -3 16 -6c0 -5 -6 -8 -17 -10c-24 -5 -29 -11 -29 -18c0 -6 6 -21 17 -39c18 -31 110 -188 135 -222c1 -1 9 -6 12 -1c41 67 107 173 125 205c17 27 24 42 24 52c0 12 -8 19 -36 25c-9 1 -18 5 -18 10
c0 3 6 5 16 5c28 0 44 -4 72 -4c24 0 50 4 66 4c12 0 18 -2 18 -6s-6 -8 -22 -10c-29 -5 -48 -20 -67 -45c-53 -66 -123 -188 -156 -241c-10 -17 -15 -33 -16 -42c-3 -24 -3 -88 -3 -135c0 -26 0 -46 2 -80c3 -46 8 -60 43 -66c17 -3 21 -6 21 -10c0 -5 -9 -6 -17 -6
c-32 0 -65 6 -89 6c-29 0 -43 -4 -70 -4c-14 0 -21 4 -21 8s9 7 22 9c39 4 43 13 46 54c2 21 4 86 4 130c0 62 -1 83 -3 94c-1 6 -3 16 -6 21c-39 68 -119 201 -148 243c-31 44 -54 60 -82 65c-16 3 -22 7 -22 10zM235 738c15 0 28 -13 28 -28c0 -21 -16 -32 -32 -32
c-8 0 -24 7 -24 27c0 16 10 33 28 33zM384 738c14 0 28 -14 28 -30c0 -14 -16 -30 -31 -30s-27 13 -27 30c0 19 14 30 30 30z" />
    <glyph glyph-name="Zcaron" unicode="&#x17d;" horiz-adv-x="611" 
d="M67 645c8 -3 20 -9 40 -10c19 -1 150 -4 367 -4c47 0 75 1 87 3c6 1 9 -7 3 -14s-54 -59 -90 -117c-35 -55 -300 -424 -327 -469c-2 -3 -4 -9 4 -9c127 0 300 2 339 7c23 3 36 6 52 22c10 10 24 30 36 50c4 8 8 14 14 14c4 0 4 -8 2 -16c-4 -10 -19 -66 -22 -92
c-1 -10 -24 -10 -40 -10c-18 0 -322 -1 -368 -1c-38 0 -82 -2 -105 -3c-10 0 -15 5 -8 13c87 113 345 477 415 583c4 6 4 13 1 13c-20 1 -326 0 -356 -2c-13 -1 -21 -3 -34 -13c-12 -11 -34 -36 -46 -54c-6 -9 -9 -9 -13 -9c-6 0 -5 10 0 18c19 35 32 82 37 94
c2 6 4 10 12 6zM304 669c-4 0 -11 5 -20 16c-20 26 -62 65 -86 87c-9 9 -1 9 3 8c28 -8 80 -46 102 -63c4 -3 8 0 10 2c27 19 77 53 100 62c5 1 16 1 4 -8c-17 -14 -64 -56 -94 -89c-9 -9 -16 -15 -19 -15z" />
    <glyph glyph-name="aacute" unicode="&#xe1;" horiz-adv-x="334" 
d="M180 369c31 0 64 -19 76 -55c5 -16 9 -57 9 -88c0 -32 -4 -132 -4 -158c0 -21 9 -40 39 -40c9 0 19 3 30 9c6 3 10 2 6 -8c-11 -24 -40 -40 -70 -40c-24 0 -47 20 -56 45c-1 2 -4 2 -5 1c-30 -26 -59 -45 -99 -45c-41 0 -79 34 -79 84c0 32 28 51 36 55
c23 13 117 43 135 49c9 3 14 13 14 15c1 12 2 29 2 46c0 41 -7 73 -25 86c-14 10 -31 16 -43 16c-16 0 -25 -3 -42 -14c-8 -7 -15 -14 -18 -27c-1 -4 -1 -9 -1 -15c0 -3 -2 -6 -4 -8c-9 -6 -37 -18 -41 -18s-8 5 -8 9c0 5 4 11 15 25c25 30 64 53 76 59c24 12 40 17 57 17z
M144 25c19 0 38 6 50 17c5 5 11 14 13 26c3 17 5 57 5 93c0 1 -2 6 -4 5c-14 -2 -82 -27 -104 -38c-9 -5 -23 -19 -23 -49c0 -31 29 -54 63 -54zM247 569c7 0 8 -3 8 -6c0 -2 -1 -6 -3 -9c-23 -36 -64 -98 -94 -139c-5 -8 -11 -11 -13 -11c-3 0 -4 3 0 12c1 3 63 134 65 137
c6 6 23 15 37 16z" />
    <glyph glyph-name="acircumflex" unicode="&#xe2;" horiz-adv-x="334" 
d="M180 369c31 0 64 -19 76 -55c5 -16 9 -57 9 -88c0 -32 -4 -132 -4 -158c0 -21 9 -40 39 -40c9 0 19 3 30 9c6 3 10 2 6 -8c-11 -24 -40 -40 -70 -40c-24 0 -47 20 -56 45c-1 2 -4 2 -5 1c-30 -26 -59 -45 -99 -45c-41 0 -79 34 -79 84c0 32 28 51 36 55
c23 13 117 43 135 49c9 3 14 13 14 15c1 12 2 29 2 46c0 41 -7 73 -25 86c-14 10 -31 16 -43 16c-16 0 -25 -3 -42 -14c-8 -7 -15 -14 -18 -27c-1 -4 -1 -9 -1 -15c0 -3 -2 -6 -4 -8c-9 -6 -37 -18 -41 -18s-8 5 -8 9c0 5 4 11 15 25c25 30 64 53 76 59c24 12 40 17 57 17z
M144 25c19 0 38 6 50 17c5 5 11 14 13 26c3 17 5 57 5 93c0 1 -2 6 -4 5c-14 -2 -82 -27 -104 -38c-9 -5 -23 -19 -23 -49c0 -31 29 -54 63 -54zM165 565c2 0 5 -4 8 -10s56 -129 58 -137c4 -9 3 -15 -1 -15c-3 0 -12 11 -16 18c-8 13 -32 51 -50 86c-2 4 -3 7 -8 -1
c-7 -10 -36 -57 -59 -89c-2 -3 -7 -8 -10 -8s-1 8 2 15l55 110c8 14 11 20 14 24c2 3 4 7 7 7z" />
    <glyph glyph-name="adieresis" unicode="&#xe4;" horiz-adv-x="334" 
d="M180 369c31 0 64 -19 76 -55c5 -16 9 -57 9 -88c0 -32 -4 -132 -4 -158c0 -21 9 -40 39 -40c9 0 19 3 30 9c6 3 10 2 6 -8c-11 -24 -40 -40 -70 -40c-24 0 -47 20 -56 45c-1 2 -4 2 -5 1c-30 -26 -59 -45 -99 -45c-41 0 -79 34 -79 84c0 32 28 51 36 55
c23 13 117 43 135 49c9 3 14 13 14 15c1 12 2 29 2 46c0 41 -7 73 -25 86c-14 10 -31 16 -43 16c-16 0 -25 -3 -42 -14c-8 -7 -15 -14 -18 -27c-1 -4 -1 -9 -1 -15c0 -3 -2 -6 -4 -8c-9 -6 -37 -18 -41 -18s-8 5 -8 9c0 5 4 11 15 25c25 30 64 53 76 59c24 12 40 17 57 17z
M144 25c19 0 38 6 50 17c5 5 11 14 13 26c3 17 5 57 5 93c0 1 -2 6 -4 5c-14 -2 -82 -27 -104 -38c-9 -5 -23 -19 -23 -49c0 -31 29 -54 63 -54zM100 536c16 0 29 -14 29 -28c0 -22 -18 -32 -33 -32c-9 0 -25 6 -25 27c0 15 10 33 29 33zM233 536c16 0 29 -15 29 -30
s-16 -30 -32 -30s-28 12 -28 30s14 30 31 30z" />
    <glyph glyph-name="agrave" unicode="&#xe0;" horiz-adv-x="334" 
d="M180 369c31 0 64 -19 76 -55c5 -16 9 -57 9 -88c0 -32 -4 -132 -4 -158c0 -21 9 -40 39 -40c9 0 19 3 30 9c6 3 10 2 6 -8c-11 -24 -40 -40 -70 -40c-24 0 -47 20 -56 45c-1 2 -4 2 -5 1c-30 -26 -59 -45 -99 -45c-41 0 -79 34 -79 84c0 32 28 51 36 55
c23 13 117 43 135 49c9 3 14 13 14 15c1 12 2 29 2 46c0 41 -7 73 -25 86c-14 10 -31 16 -43 16c-16 0 -25 -3 -42 -14c-8 -7 -15 -14 -18 -27c-1 -4 -1 -9 -1 -15c0 -3 -2 -6 -4 -8c-9 -6 -37 -18 -41 -18s-8 5 -8 9c0 5 4 11 15 25c25 30 64 53 76 59c24 12 40 17 57 17z
M144 25c19 0 38 6 50 17c5 5 11 14 13 26c3 17 5 57 5 93c0 1 -2 6 -4 5c-14 -2 -82 -27 -104 -38c-9 -5 -23 -19 -23 -49c0 -31 29 -54 63 -54zM123 573c4 0 9 -4 12 -10c2 -6 45 -122 51 -136c2 -6 2 -15 -1 -15c-5 0 -9 7 -14 13l-72 125c-8 12 -6 15 -3 17
c3 3 16 6 27 6z" />
    <glyph glyph-name="aring" unicode="&#xe5;" horiz-adv-x="334" 
d="M180 369c31 0 64 -19 76 -55c5 -16 9 -57 9 -88c0 -32 -4 -132 -4 -158c0 -21 9 -40 39 -40c9 0 19 3 30 9c6 3 10 2 6 -8c-11 -24 -40 -40 -70 -40c-24 0 -47 20 -56 45c-1 2 -4 2 -5 1c-30 -26 -59 -45 -99 -45c-41 0 -79 34 -79 84c0 32 28 51 36 55
c23 13 117 43 135 49c9 3 14 13 14 15c1 12 2 29 2 46c0 41 -7 73 -25 86c-14 10 -31 16 -43 16c-16 0 -25 -3 -42 -14c-8 -7 -15 -14 -18 -27c-1 -4 -1 -9 -1 -15c0 -3 -2 -6 -4 -8c-9 -6 -37 -18 -41 -18s-8 5 -8 9c0 5 4 11 15 25c25 30 64 53 76 59c24 12 40 17 57 17z
M144 25c19 0 38 6 50 17c5 5 11 14 13 26c3 17 5 57 5 93c0 1 -2 6 -4 5c-14 -2 -82 -27 -104 -38c-9 -5 -23 -19 -23 -49c0 -31 29 -54 63 -54zM161 546c34 0 56 -27 56 -56c0 -30 -22 -57 -56 -57s-55 27 -55 57c0 29 21 56 55 56zM161 528c-19 0 -37 -16 -37 -38
c0 -25 19 -37 37 -37c19 0 37 11 37 39c0 20 -17 36 -37 36z" />
    <glyph glyph-name="atilde" unicode="&#xe3;" horiz-adv-x="334" 
d="M180 369c31 0 64 -19 76 -55c5 -16 9 -57 9 -88c0 -32 -4 -132 -4 -158c0 -21 9 -40 39 -40c9 0 19 3 30 9c6 3 10 2 6 -8c-11 -24 -40 -40 -70 -40c-24 0 -47 20 -56 45c-1 2 -4 2 -5 1c-30 -26 -59 -45 -99 -45c-41 0 -79 34 -79 84c0 32 28 51 36 55
c23 13 117 43 135 49c9 3 14 13 14 15c1 12 2 29 2 46c0 41 -7 73 -25 86c-14 10 -31 16 -43 16c-16 0 -25 -3 -42 -14c-8 -7 -15 -14 -18 -27c-1 -4 -1 -9 -1 -15c0 -3 -2 -6 -4 -8c-9 -6 -37 -18 -41 -18s-8 5 -8 9c0 5 4 11 15 25c25 30 64 53 76 59c24 12 40 17 57 17z
M144 25c19 0 38 6 50 17c5 5 11 14 13 26c3 17 5 57 5 93c0 1 -2 6 -4 5c-14 -2 -82 -27 -104 -38c-9 -5 -23 -19 -23 -49c0 -31 29 -54 63 -54zM113 513c12 0 17 -1 31 -2c12 -1 46 -9 66 -9s35 8 50 28c5 7 9 10 12 10c2 0 3 -6 -2 -13l-38 -48c-5 -7 -15 -12 -21 -12
c-22 0 -77 12 -95 12c-19 0 -26 -6 -45 -29c-5 -4 -6 -6 -10 -6c-2 0 -3 2 2 15c6 11 23 32 35 45c6 6 12 9 15 9z" />
    <glyph glyph-name="ccedilla" unicode="&#xe7;" horiz-adv-x="367" 
d="M240 369c39 0 70 -11 89 -24c13 -7 15 -15 15 -20c0 -16 -19 -28 -23 -28s-10 4 -16 10c-18 18 -38 30 -54 38c-11 6 -28 8 -38 8c-48 0 -124 -43 -124 -158c0 -75 30 -114 53 -133c26 -23 63 -35 96 -35c39 0 72 8 109 42c1 1 3 0 3 -3c0 -4 -2 -8 -7 -15
c-11 -13 -37 -35 -73 -49c-20 -22 -33 -36 -37 -42c-4 -5 -4 -9 -3 -10c16 -12 46 -25 46 -66c0 -42 -47 -78 -82 -78c-26 0 -41 16 -41 29c0 7 12 19 23 19c6 0 9 -4 16 -18c3 -6 11 -13 22 -13c15 0 32 12 32 41c0 30 -22 44 -48 53c-9 3 -11 5 -11 8c0 1 2 5 4 7l61 64
c-15 -4 -30 -7 -46 -7c-83 0 -172 63 -172 182c0 63 29 111 58 139c30 30 79 59 148 59z" />
    <glyph glyph-name="eacute" unicode="&#xe9;" horiz-adv-x="365" 
d="M214 369c53 0 121 -37 121 -100c0 -4 -5 -9 -9 -9c-7 0 -140 3 -161 3h-61c-2 0 -8 -6 -10 -9c-6 -12 -9 -27 -9 -60c0 -51 21 -93 47 -122c28 -32 69 -43 105 -43c43 0 73 11 96 33c9 8 12 6 12 2c0 -3 -4 -10 -11 -17c-43 -43 -81 -58 -136 -58c-45 0 -86 19 -116 51
s-48 78 -48 134c0 42 13 100 54 143c27 27 75 52 126 52zM205 355c-27 0 -55 -15 -80 -39c-12 -13 -20 -30 -20 -36c0 -2 2 -4 3 -4l145 1c20 0 22 9 22 18s-2 28 -14 40c-11 10 -30 20 -56 20zM290 569c7 0 8 -3 8 -6c0 -2 -1 -6 -3 -9c-23 -36 -64 -98 -94 -139
c-5 -8 -11 -11 -13 -11c-3 0 -4 3 0 12c1 3 63 134 65 137c6 6 23 15 37 16z" />
    <glyph glyph-name="ecircumflex" unicode="&#xea;" horiz-adv-x="365" 
d="M214 369c53 0 121 -37 121 -100c0 -4 -5 -9 -9 -9c-7 0 -140 3 -161 3h-61c-2 0 -8 -6 -10 -9c-6 -12 -9 -27 -9 -60c0 -51 21 -93 47 -122c28 -32 69 -43 105 -43c43 0 73 11 96 33c9 8 12 6 12 2c0 -3 -4 -10 -11 -17c-43 -43 -81 -58 -136 -58c-45 0 -86 19 -116 51
s-48 78 -48 134c0 42 13 100 54 143c27 27 75 52 126 52zM205 355c-27 0 -55 -15 -80 -39c-12 -13 -20 -30 -20 -36c0 -2 2 -4 3 -4l145 1c20 0 22 9 22 18s-2 28 -14 40c-11 10 -30 20 -56 20zM208 565c2 0 5 -4 8 -10s56 -129 58 -137c4 -9 3 -15 -1 -15
c-3 0 -12 11 -16 18c-8 13 -32 51 -50 86c-2 4 -3 7 -8 -1c-7 -10 -36 -57 -59 -89c-2 -3 -7 -8 -10 -8s-1 8 2 15l55 110c8 14 11 20 14 24c2 3 4 7 7 7z" />
    <glyph glyph-name="edieresis" unicode="&#xeb;" horiz-adv-x="365" 
d="M214 369c53 0 121 -37 121 -100c0 -4 -5 -9 -9 -9c-7 0 -140 3 -161 3h-61c-2 0 -8 -6 -10 -9c-6 -12 -9 -27 -9 -60c0 -51 21 -93 47 -122c28 -32 69 -43 105 -43c43 0 73 11 96 33c9 8 12 6 12 2c0 -3 -4 -10 -11 -17c-43 -43 -81 -58 -136 -58c-45 0 -86 19 -116 51
s-48 78 -48 134c0 42 13 100 54 143c27 27 75 52 126 52zM205 355c-27 0 -55 -15 -80 -39c-12 -13 -20 -30 -20 -36c0 -2 2 -4 3 -4l145 1c20 0 22 9 22 18s-2 28 -14 40c-11 10 -30 20 -56 20zM136 536c16 0 29 -14 29 -28c0 -22 -18 -32 -33 -32c-9 0 -25 6 -25 27
c0 15 10 33 29 33zM269 536c16 0 29 -15 29 -30s-16 -30 -32 -30s-28 12 -28 30s14 30 31 30z" />
    <glyph glyph-name="egrave" unicode="&#xe8;" horiz-adv-x="365" 
d="M214 369c53 0 121 -37 121 -100c0 -4 -5 -9 -9 -9c-7 0 -140 3 -161 3h-61c-2 0 -8 -6 -10 -9c-6 -12 -9 -27 -9 -60c0 -51 21 -93 47 -122c28 -32 69 -43 105 -43c43 0 73 11 96 33c9 8 12 6 12 2c0 -3 -4 -10 -11 -17c-43 -43 -81 -58 -136 -58c-45 0 -86 19 -116 51
s-48 78 -48 134c0 42 13 100 54 143c27 27 75 52 126 52zM205 355c-27 0 -55 -15 -80 -39c-12 -13 -20 -30 -20 -36c0 -2 2 -4 3 -4l145 1c20 0 22 9 22 18s-2 28 -14 40c-11 10 -30 20 -56 20zM156 573c4 0 9 -4 12 -10c2 -6 45 -122 51 -136c2 -6 2 -15 -1 -15
c-5 0 -9 7 -14 13l-72 125c-8 12 -6 15 -3 17c3 3 16 6 27 6z" />
    <glyph glyph-name="iacute" unicode="&#xed;" horiz-adv-x="190" 
d="M36 333c0 3 3 6 10 8c20 6 47 17 61 24c9 5 14 7 16 7c3 0 5 -3 4 -14c-2 -19 -2 -85 -2 -158c0 -72 0 -144 2 -161c2 -22 14 -25 28 -28c10 -2 15 -4 15 -8c0 -5 -8 -7 -16 -7c-6 0 -48 4 -69 4c-28 0 -42 -2 -53 -2c-6 0 -12 2 -12 6c0 3 4 6 19 9c20 5 31 12 32 55
c1 30 3 216 3 226c0 11 -2 18 -31 32c-5 2 -7 5 -7 7zM191 569c7 0 8 -3 8 -6c0 -2 -1 -6 -3 -9c-23 -36 -64 -98 -94 -139c-5 -8 -11 -11 -13 -11c-3 0 -4 3 0 12c1 3 63 134 65 137c6 6 23 15 37 16z" />
    <glyph glyph-name="icircumflex" unicode="&#xee;" horiz-adv-x="190" 
d="M36 333c0 3 3 6 10 8c20 6 47 17 61 24c9 5 14 7 16 7c3 0 5 -3 4 -14c-2 -19 -2 -85 -2 -158c0 -72 0 -144 2 -161c2 -22 14 -25 28 -28c10 -2 15 -4 15 -8c0 -5 -8 -7 -16 -7c-6 0 -48 4 -69 4c-28 0 -42 -2 -53 -2c-6 0 -12 2 -12 6c0 3 4 6 19 9c20 5 31 12 32 55
c1 30 3 216 3 226c0 11 -2 18 -31 32c-5 2 -7 5 -7 7zM100 565c2 0 5 -4 8 -10s56 -129 58 -137c4 -9 3 -15 -1 -15c-3 0 -12 11 -16 18c-8 13 -32 51 -50 86c-2 4 -3 7 -8 -1c-7 -10 -36 -57 -59 -89c-2 -3 -7 -8 -10 -8s-1 8 2 15l55 110c8 14 11 20 14 24c2 3 4 7 7 7z
" />
    <glyph glyph-name="idieresis" unicode="&#xef;" horiz-adv-x="190" 
d="M36 333c0 3 3 6 10 8c20 6 47 17 61 24c9 5 14 7 16 7c3 0 5 -3 4 -14c-2 -19 -2 -85 -2 -158c0 -72 0 -144 2 -161c2 -22 14 -25 28 -28c10 -2 15 -4 15 -8c0 -5 -8 -7 -16 -7c-6 0 -48 4 -69 4c-28 0 -42 -2 -53 -2c-6 0 -12 2 -12 6c0 3 4 6 19 9c20 5 31 12 32 55
c1 30 3 216 3 226c0 11 -2 18 -31 32c-5 2 -7 5 -7 7zM28 536c16 0 29 -14 29 -28c0 -22 -18 -32 -33 -32c-9 0 -25 6 -25 27c0 15 10 33 29 33zM161 536c16 0 29 -15 29 -30s-16 -30 -32 -30s-28 12 -28 30s14 30 31 30z" />
    <glyph glyph-name="igrave" unicode="&#xec;" horiz-adv-x="190" 
d="M36 333c0 3 3 6 10 8c20 6 47 17 61 24c9 5 14 7 16 7c3 0 5 -3 4 -14c-2 -19 -2 -85 -2 -158c0 -72 0 -144 2 -161c2 -22 14 -25 28 -28c10 -2 15 -4 15 -8c0 -5 -8 -7 -16 -7c-6 0 -48 4 -69 4c-28 0 -42 -2 -53 -2c-6 0 -12 2 -12 6c0 3 4 6 19 9c20 5 31 12 32 55
c1 30 3 216 3 226c0 11 -2 18 -31 32c-5 2 -7 5 -7 7zM46 573c4 0 9 -4 12 -10c2 -6 45 -122 51 -136c2 -6 2 -15 -1 -15c-5 0 -9 7 -14 13l-72 125c-8 12 -6 15 -3 17c3 3 16 6 27 6z" />
    <glyph glyph-name="ntilde" unicode="&#xf1;" horiz-adv-x="434" 
d="M263 369c42 0 66 -22 77 -35c22 -24 29 -76 30 -133c0 -50 1 -58 1 -105c1 -70 3 -76 30 -83c11 -4 17 -6 17 -10c0 -7 -9 -7 -19 -7c-9 0 -37 4 -60 4c-24 0 -35 -4 -53 -4c-8 0 -16 2 -16 6s6 8 22 11c22 5 26 13 26 44v131c0 83 -8 108 -33 128c-15 12 -35 21 -61 21
c-29 0 -57 -11 -89 -38c-8 -8 -12 -26 -12 -34c0 -9 0 -62 1 -125c1 -66 4 -82 6 -97c3 -23 17 -27 33 -31c12 -3 17 -5 17 -10c0 -6 -10 -6 -20 -6c-8 0 -53 4 -76 4c-13 0 -33 -2 -47 -2c-11 0 -18 2 -18 7c0 4 8 7 22 10c24 5 28 11 29 30c2 78 2 171 2 248
c0 10 -2 23 -27 35c-5 3 -8 5 -8 9c0 2 4 4 14 8c16 5 50 19 67 30c3 2 8 -2 7 -8c-1 -12 -3 -39 -2 -54c0 -2 2 -5 5 -3c27 20 53 38 75 47c23 11 44 12 60 12zM170 513c12 0 17 -1 31 -2c12 -1 46 -9 66 -9s35 8 50 28c5 7 9 10 12 10c2 0 3 -6 -2 -13l-38 -48
c-5 -7 -15 -12 -21 -12c-22 0 -77 12 -95 12c-19 0 -26 -6 -45 -29c-5 -4 -6 -6 -10 -6c-2 0 -3 2 2 15c6 11 23 32 35 45c6 6 12 9 15 9z" />
    <glyph glyph-name="oacute" unicode="&#xf3;" horiz-adv-x="446" 
d="M223 369c105 0 189 -82 189 -189c0 -75 -45 -129 -77 -154c-30 -23 -75 -38 -110 -38c-98 0 -191 80 -191 183c0 75 33 125 73 157c20 16 65 41 116 41zM205 352c-54 0 -114 -51 -114 -161c0 -40 12 -92 47 -134c30 -37 69 -52 101 -52c28 0 53 12 71 27
c16 13 45 61 45 133c0 87 -54 187 -150 187zM297 569c7 0 8 -3 8 -6c0 -2 -1 -6 -3 -9c-23 -36 -64 -98 -94 -139c-5 -8 -11 -11 -13 -11c-3 0 -4 3 0 12c1 3 63 134 65 137c6 6 23 15 37 16z" />
    <glyph glyph-name="ocircumflex" unicode="&#xf4;" horiz-adv-x="446" 
d="M223 369c105 0 189 -82 189 -189c0 -75 -45 -129 -77 -154c-30 -23 -75 -38 -110 -38c-98 0 -191 80 -191 183c0 75 33 125 73 157c20 16 65 41 116 41zM205 352c-54 0 -114 -51 -114 -161c0 -40 12 -92 47 -134c30 -37 69 -52 101 -52c28 0 53 12 71 27
c16 13 45 61 45 133c0 87 -54 187 -150 187zM228 565c2 0 5 -4 8 -10s56 -129 58 -137c4 -9 3 -15 -1 -15c-3 0 -12 11 -16 18c-8 13 -32 51 -50 86c-2 4 -3 7 -8 -1c-7 -10 -36 -57 -59 -89c-2 -3 -7 -8 -10 -8s-1 8 2 15l55 110c8 14 11 20 14 24c2 3 4 7 7 7z" />
    <glyph glyph-name="odieresis" unicode="&#xf6;" horiz-adv-x="446" 
d="M223 369c105 0 189 -82 189 -189c0 -75 -45 -129 -77 -154c-30 -23 -75 -38 -110 -38c-98 0 -191 80 -191 183c0 75 33 125 73 157c20 16 65 41 116 41zM205 352c-54 0 -114 -51 -114 -161c0 -40 12 -92 47 -134c30 -37 69 -52 101 -52c28 0 53 12 71 27
c16 13 45 61 45 133c0 87 -54 187 -150 187zM156 536c16 0 29 -14 29 -28c0 -22 -18 -32 -33 -32c-9 0 -25 6 -25 27c0 15 10 33 29 33zM289 536c16 0 29 -15 29 -30s-16 -30 -32 -30s-28 12 -28 30s14 30 31 30z" />
    <glyph glyph-name="ograve" unicode="&#xf2;" horiz-adv-x="446" 
d="M223 369c105 0 189 -82 189 -189c0 -75 -45 -129 -77 -154c-30 -23 -75 -38 -110 -38c-98 0 -191 80 -191 183c0 75 33 125 73 157c20 16 65 41 116 41zM205 352c-54 0 -114 -51 -114 -161c0 -40 12 -92 47 -134c30 -37 69 -52 101 -52c28 0 53 12 71 27
c16 13 45 61 45 133c0 87 -54 187 -150 187zM174 573c4 0 9 -4 12 -10c2 -6 45 -122 51 -136c2 -6 2 -15 -1 -15c-5 0 -9 7 -14 13l-72 125c-8 12 -6 15 -3 17c3 3 16 6 27 6z" />
    <glyph glyph-name="otilde" unicode="&#xf5;" horiz-adv-x="446" 
d="M223 369c105 0 189 -82 189 -189c0 -75 -45 -129 -77 -154c-30 -23 -75 -38 -110 -38c-98 0 -191 80 -191 183c0 75 33 125 73 157c20 16 65 41 116 41zM205 352c-54 0 -114 -51 -114 -161c0 -40 12 -92 47 -134c30 -37 69 -52 101 -52c28 0 53 12 71 27
c16 13 45 61 45 133c0 87 -54 187 -150 187zM169 504c12 0 17 -1 31 -2c12 -1 46 -9 66 -9s35 8 50 28c5 7 9 10 12 10c2 0 3 -6 -2 -13l-38 -48c-5 -7 -15 -12 -21 -12c-22 0 -77 12 -95 12c-19 0 -26 -6 -45 -29c-5 -4 -6 -6 -10 -6c-2 0 -3 2 2 15c6 11 23 32 35 45
c6 6 12 9 15 9z" />
    <glyph glyph-name="scaron" unicode="&#x161;" horiz-adv-x="275" 
d="M156 354c-35 0 -62 -23 -62 -65c0 -44 40 -69 59 -80c66 -42 92 -67 92 -118c0 -45 -33 -71 -54 -83c-22 -14 -51 -20 -73 -20c-27 0 -46 6 -76 18c-8 3 -13 10 -13 15c0 14 -2 36 -3 48c-2 13 1 15 3 15s5 0 12 -19c9 -25 25 -41 42 -51c15 -9 31 -12 43 -12
c29 0 68 29 68 72c0 41 -28 62 -64 85s-83 58 -83 106c0 35 15 59 32 74c18 15 45 30 84 30c25 0 53 -7 64 -11c2 -1 5 -6 5 -8c1 -11 5 -32 6 -44c0 -11 -2 -16 -5 -16c-4 0 -5 5 -8 12c-6 15 -10 27 -24 38c-11 8 -28 14 -45 14zM150 405c-2 0 -5 5 -8 11s-56 128 -58 136
c-4 9 -3 15 1 15c3 0 11 -11 16 -20c7 -11 33 -49 51 -84c1 -2 5 -2 7 1c9 12 28 45 59 89c1 3 7 8 10 8s2 -7 -2 -14c-4 -11 -47 -94 -55 -110c-6 -11 -12 -23 -15 -27c-2 -3 -4 -5 -6 -5z" />
    <glyph glyph-name="uacute" unicode="&#xfa;" horiz-adv-x="425" 
d="M173 -9c-41 0 -68 8 -90 36c-13 16 -18 42 -18 57c0 33 0 206 -2 223c-1 17 -13 26 -22 32c-9 7 -12 9 -12 13c0 3 4 5 17 5c24 0 55 8 70 13c3 1 6 -5 5 -11c-4 -57 -5 -198 -4 -239c1 -42 10 -60 16 -68c13 -16 36 -26 58 -26c40 0 67 9 97 37c13 12 19 28 20 50
c2 25 2 59 2 99c0 16 -1 58 -1 85c0 34 -12 39 -47 46c-11 2 -15 5 -15 8c0 4 8 6 14 6h38c45 0 54 4 64 4c3 0 4 -3 3 -11c-5 -51 -7 -138 -7 -266c0 -19 0 -38 2 -48c2 -11 4 -12 13 -11c10 3 39 10 44 10c7 0 11 -5 11 -10c0 -4 -7 -6 -18 -8c-12 -1 -65 -12 -94 -26
c-8 -4 -9 -3 -11 0s-3 7 -3 20c0 10 2 34 2 40c0 2 -1 10 -4 7c-24 -22 -53 -44 -72 -52s-42 -15 -56 -15zM294 569c7 0 8 -3 8 -6c0 -2 -1 -6 -3 -9c-23 -36 -64 -98 -94 -139c-5 -8 -11 -11 -13 -11c-3 0 -4 3 0 12c1 3 63 134 65 137c6 6 23 15 37 16z" />
    <glyph glyph-name="ucircumflex" unicode="&#xfb;" horiz-adv-x="425" 
d="M173 -9c-41 0 -68 8 -90 36c-13 16 -18 42 -18 57c0 33 0 206 -2 223c-1 17 -13 26 -22 32c-9 7 -12 9 -12 13c0 3 4 5 17 5c24 0 55 8 70 13c3 1 6 -5 5 -11c-4 -57 -5 -198 -4 -239c1 -42 10 -60 16 -68c13 -16 36 -26 58 -26c40 0 67 9 97 37c13 12 19 28 20 50
c2 25 2 59 2 99c0 16 -1 58 -1 85c0 34 -12 39 -47 46c-11 2 -15 5 -15 8c0 4 8 6 14 6h38c45 0 54 4 64 4c3 0 4 -3 3 -11c-5 -51 -7 -138 -7 -266c0 -19 0 -38 2 -48c2 -11 4 -12 13 -11c10 3 39 10 44 10c7 0 11 -5 11 -10c0 -4 -7 -6 -18 -8c-12 -1 -65 -12 -94 -26
c-8 -4 -9 -3 -11 0s-3 7 -3 20c0 10 2 34 2 40c0 2 -1 10 -4 7c-24 -22 -53 -44 -72 -52s-42 -15 -56 -15zM217 565c2 0 5 -4 8 -10s56 -129 58 -137c4 -9 3 -15 -1 -15c-3 0 -12 11 -16 18c-8 13 -32 51 -50 86c-2 4 -3 7 -8 -1c-7 -10 -36 -57 -59 -89c-2 -3 -7 -8 -10 -8
s-1 8 2 15l55 110c8 14 11 20 14 24c2 3 4 7 7 7z" />
    <glyph glyph-name="udieresis" unicode="&#xfc;" horiz-adv-x="425" 
d="M173 -9c-41 0 -68 8 -90 36c-13 16 -18 42 -18 57c0 33 0 206 -2 223c-1 17 -13 26 -22 32c-9 7 -12 9 -12 13c0 3 4 5 17 5c24 0 55 8 70 13c3 1 6 -5 5 -11c-4 -57 -5 -198 -4 -239c1 -42 10 -60 16 -68c13 -16 36 -26 58 -26c40 0 67 9 97 37c13 12 19 28 20 50
c2 25 2 59 2 99c0 16 -1 58 -1 85c0 34 -12 39 -47 46c-11 2 -15 5 -15 8c0 4 8 6 14 6h38c45 0 54 4 64 4c3 0 4 -3 3 -11c-5 -51 -7 -138 -7 -266c0 -19 0 -38 2 -48c2 -11 4 -12 13 -11c10 3 39 10 44 10c7 0 11 -5 11 -10c0 -4 -7 -6 -18 -8c-12 -1 -65 -12 -94 -26
c-8 -4 -9 -3 -11 0s-3 7 -3 20c0 10 2 34 2 40c0 2 -1 10 -4 7c-24 -22 -53 -44 -72 -52s-42 -15 -56 -15zM145 536c16 0 29 -14 29 -28c0 -22 -18 -32 -33 -32c-9 0 -25 6 -25 27c0 15 10 33 29 33zM278 536c16 0 29 -15 29 -30s-16 -30 -32 -30s-28 12 -28 30s14 30 31 30
z" />
    <glyph glyph-name="ugrave" unicode="&#xf9;" horiz-adv-x="425" 
d="M173 -9c-41 0 -68 8 -90 36c-13 16 -18 42 -18 57c0 33 0 206 -2 223c-1 17 -13 26 -22 32c-9 7 -12 9 -12 13c0 3 4 5 17 5c24 0 55 8 70 13c3 1 6 -5 5 -11c-4 -57 -5 -198 -4 -239c1 -42 10 -60 16 -68c13 -16 36 -26 58 -26c40 0 67 9 97 37c13 12 19 28 20 50
c2 25 2 59 2 99c0 16 -1 58 -1 85c0 34 -12 39 -47 46c-11 2 -15 5 -15 8c0 4 8 6 14 6h38c45 0 54 4 64 4c3 0 4 -3 3 -11c-5 -51 -7 -138 -7 -266c0 -19 0 -38 2 -48c2 -11 4 -12 13 -11c10 3 39 10 44 10c7 0 11 -5 11 -10c0 -4 -7 -6 -18 -8c-12 -1 -65 -12 -94 -26
c-8 -4 -9 -3 -11 0s-3 7 -3 20c0 10 2 34 2 40c0 2 -1 10 -4 7c-24 -22 -53 -44 -72 -52s-42 -15 -56 -15zM153 574c4 0 9 -4 12 -10c2 -6 45 -122 51 -136c2 -6 2 -15 -1 -15c-5 0 -9 7 -14 13l-72 125c-8 12 -6 15 -3 17c3 3 16 6 27 6z" />
    <glyph glyph-name="yacute" unicode="&#xfd;" horiz-adv-x="352" 
d="M66 357c14 0 38 2 46 2c10 1 17 -2 17 -6s-7 -7 -13 -8c-24 -7 -25 -13 -14 -42c12 -33 73 -180 93 -222c1 -2 4 -1 5 1c9 25 75 192 82 212c6 15 6 27 6 32c0 7 -5 15 -21 19c-14 3 -18 6 -18 9s6 6 12 6c13 0 32 -3 47 -3c17 0 28 3 45 3c7 0 12 -1 12 -4s-4 -6 -14 -9
c-19 -6 -29 -15 -45 -51c-11 -22 -74 -183 -87 -216l-41 -109c-23 -58 -65 -175 -76 -203c-7 -17 -11 -26 -19 -36c-10 -14 -23 -17 -32 -17c-14 0 -32 10 -32 30c0 13 14 26 25 26c7 0 11 -2 18 -2c13 0 21 4 27 19c10 21 40 110 75 200c5 14 2 26 -1 34
c-16 38 -77 197 -121 294c-7 14 -19 24 -37 28c-13 3 -18 7 -18 9c0 5 8 7 15 7c9 0 47 -3 64 -3zM286 566c7 0 8 -3 8 -6c0 -2 -1 -6 -3 -9c-23 -36 -64 -98 -94 -139c-5 -8 -11 -11 -13 -11c-3 0 -4 3 0 12c1 3 63 134 65 137c6 6 23 15 37 16z" />
    <glyph glyph-name="ydieresis" unicode="&#xff;" horiz-adv-x="352" 
d="M66 357c14 0 38 2 46 2c10 1 17 -2 17 -6s-7 -7 -13 -8c-24 -7 -25 -13 -14 -42c12 -33 73 -180 93 -222c1 -2 4 -1 5 1c9 25 75 192 82 212c6 15 6 27 6 32c0 7 -5 15 -21 19c-14 3 -18 6 -18 9s6 6 12 6c13 0 32 -3 47 -3c17 0 28 3 45 3c7 0 12 -1 12 -4s-4 -6 -14 -9
c-19 -6 -29 -15 -45 -51c-11 -22 -74 -183 -87 -216l-41 -109c-23 -58 -65 -175 -76 -203c-7 -17 -11 -26 -19 -36c-10 -14 -23 -17 -32 -17c-14 0 -32 10 -32 30c0 13 14 26 25 26c7 0 11 -2 18 -2c13 0 21 4 27 19c10 21 40 110 75 200c5 14 2 26 -1 34
c-16 38 -77 197 -121 294c-7 14 -19 24 -37 28c-13 3 -18 7 -18 9c0 5 8 7 15 7c9 0 47 -3 64 -3zM119 536c16 0 29 -14 29 -28c0 -22 -18 -32 -33 -32c-9 0 -25 6 -25 27c0 15 10 33 29 33zM252 536c16 0 29 -15 29 -30s-16 -30 -32 -30s-28 12 -28 30s14 30 31 30z" />
    <glyph glyph-name="zcaron" unicode="&#x17e;" horiz-adv-x="342" 
d="M219 357c21 0 48 0 68 1c8 0 11 0 13 -2c1 -2 -1 -7 -4 -11c-33 -36 -133 -213 -193 -314c-1 -2 -1 -8 3 -8c14 -2 75 -4 106 -4c43 0 60 3 73 11c10 7 25 23 33 36c6 9 10 15 14 15c6 0 3 -14 0 -27c-11 -27 -17 -40 -22 -50c-3 -5 -9 -7 -16 -7h-71c-36 0 -93 3 -122 3
c-33 0 -46 -1 -72 -3c-12 -1 -13 7 -2 19l69 101c28 43 106 171 127 212c3 5 2 8 0 8h-136c-18 0 -32 -5 -46 -30c-7 -13 -11 -17 -13 -17c-4 0 -5 9 -1 22c4 14 14 42 18 61c3 14 10 10 13 0c4 -9 13 -11 28 -13c29 -3 53 -3 133 -3zM168 405c-2 0 -5 5 -8 11
s-56 128 -58 136c-4 9 -3 15 1 15c3 0 11 -11 16 -20c7 -11 33 -49 51 -84c1 -2 5 -2 7 1c9 12 28 45 59 89c1 3 7 8 10 8s2 -7 -2 -14c-4 -11 -47 -94 -55 -110c-6 -11 -12 -23 -15 -27c-2 -3 -4 -5 -6 -5z" />
    <glyph glyph-name="twodotenleader" unicode="&#x2025;" horiz-adv-x="500" 
d="M126 66c24 0 35 -22 35 -38c0 -28 -22 -40 -38 -40c-20 0 -36 19 -36 39c0 22 18 39 39 39zM378 66c24 0 35 -22 35 -38c0 -28 -22 -40 -38 -40c-20 0 -36 19 -36 39c0 22 18 39 39 39z" />
    <glyph glyph-name="onedotenleader" unicode="&#x2024;" horiz-adv-x="500" 
d="M252 66c23 0 35 -22 35 -38c0 -28 -22 -40 -39 -40c-19 0 -36 19 -36 39c0 22 19 39 40 39z" />
    <glyph glyph-name="emdash.alt" horiz-adv-x="594" 
d="M49 216h503c3 0 7 -2 7 -5c0 -6 -2 -14 -5 -19c-2 -3 -8 -4 -10 -4l-492 -2c-6 0 -17 1 -17 6c0 3 1 13 5 19c2 3 7 5 9 5z" />
    <glyph glyph-name="colonmonetary" unicode="&#x20a1;" horiz-adv-x="410" 
d="M377 526v-38c0 -19 -6 -20 -7 -20c-2 0 -6 1 -7 16c-4 34 -22 68 -50 86c-1 0 -3 -1 -3 -2c0 0 -52 -532 -52 -531c0 -3 2 -5 5 -4c57 4 86 27 101 82c3 9 6 13 10 13s5 -7 4 -16c-3 -9 -12 -46 -16 -61c-1 -7 -7 -13 -13 -16c-19 -10 -53 -18 -90 -21c-2 0 -4 -4 -4 -6
l-5 -43c-1 -4 -4 -16 -12 -16c-4 0 -5 12 -4 15l4 45c0 2 -1 5 -3 5c-12 0 -31 3 -44 6c-2 0 -4 -2 -4 -3l-6 -56c-1 -4 -9 -13 -12 -12c-5 0 -5 11 -5 14l6 58c0 2 -2 6 -3 7c-73 39 -130 120 -130 270c0 167 97 268 186 289c3 1 4 3 4 5l5 39c1 11 8 16 9 16
c6 0 7 -6 7 -10l-4 -42c0 -1 1 -2 2 -2c12 1 36 1 46 -1c2 0 4 3 4 5c2 12 3 24 5 34c2 14 6 16 8 16c7 0 8 -6 8 -10l-4 -46c0 -2 1 -5 3 -5c18 -5 37 -17 53 -22c5 -2 8 -20 8 -38zM175 67l49 500c0 2 0 4 -2 3c-87 -32 -128 -158 -128 -266c0 -123 33 -201 76 -239
c4 -3 5 -2 5 2zM241 39l51 532c0 2 -1 6 -3 6c-9 2 -29 4 -44 0c-2 -1 -3 -4 -3 -5l-51 -520c0 -3 2 -6 4 -7c10 -6 27 -11 42 -12c1 0 4 5 4 6z" />
    <glyph glyph-name="R_p" unicode="&#xf6dd;" horiz-adv-x="794" 
d="M515 3v-154c0 -32 1 -49 8 -61c7 -11 19 -16 41 -23c6 -3 11 -4 11 -8s-4 -5 -14 -5c-14 0 -47 3 -75 3c-29 0 -53 -5 -64 -5s-15 1 -15 5s5 6 20 10c28 8 32 12 34 42c1 9 3 33 4 135v39c0 6 -2 8 -5 8h-3c-37 0 -81 9 -113 48c-42 50 -105 198 -118 211
c-7 11 -19 20 -29 22c-6 2 -25 3 -45 3c-1 0 -2 -4 -2 -5v-187c0 -48 6 -63 42 -69c8 -1 16 -6 16 -10s-7 -6 -16 -6c-19 0 -46 4 -75 4c-31 0 -53 -6 -68 -6c-9 0 -15 2 -15 6s8 7 19 10c25 6 35 18 37 50c3 52 5 117 5 246c0 122 0 173 -1 199c0 26 -8 38 -45 43
c-6 1 -14 4 -14 9c0 3 6 5 18 5s37 -3 68 -3s59 4 87 4c51 0 86 -11 114 -31c37 -27 51 -66 51 -105c0 -76 -49 -117 -92 -137c-5 -1 -5 -4 -1 -13c16 -33 70 -154 97 -194c43 -65 67 -73 84 -78c2 -1 4 1 4 4v224c0 40 0 44 -22 56c-5 3 -6 3 -6 7s3 8 9 10
c9 5 34 16 54 31c5 5 9 7 13 7c3 0 4 -3 4 -9c0 -5 -1 -34 -1 -42c0 -3 3 -5 6 -2c33 22 68 46 109 46c77 0 128 -75 128 -150c0 -99 -59 -151 -112 -177c-27 -14 -52 -19 -69 -19c-18 0 -43 5 -58 14c-2 1 -5 4 -5 -2zM595 302c-20 0 -56 -13 -77 -29c-1 -1 -4 -9 -4 -15
c0 -15 1 -135 1 -168c0 -12 1 -18 5 -27c14 -32 56 -47 91 -47c15 0 33 4 51 19c29 25 48 61 48 127c0 70 -45 140 -115 140zM183 547c-11 0 -20 -4 -23 -7c-4 -3 -6 -6 -7 -21c-2 -22 -3 -203 -3 -216c0 -8 5 -16 8 -16c9 -1 20 -2 37 -2c43 0 60 8 77 19
c24 18 43 59 43 108s-13 78 -35 98c-23 22 -46 37 -97 37z" />
    <glyph glyph-name="figuredash" unicode="&#x2012;" horiz-adv-x="228" 
d="M45 312c6 1 129 18 148 19c2 0 4 -3 4 -6c0 -4 -1 -17 -6 -25c-1 -2 -7 -5 -8 -5c-10 -2 -134 -14 -143 -14c-6 0 -8 2 -8 6c0 3 0 13 4 19c2 3 5 5 9 6z" />
    <glyph glyph-name="oneeighth" unicode="&#x215b;" horiz-adv-x="424" 
d="M322 337c37 0 69 -26 69 -60c0 -28 -19 -43 -44 -57c-2 0 -2 -2 0 -4c32 -21 49 -43 49 -65c0 -44 -38 -69 -79 -69c-45 0 -74 30 -74 61c0 22 18 41 51 60c1 1 0 2 -1 3c-21 16 -42 37 -42 66c0 39 34 65 71 65zM55 535c0 1 3 4 10 5c25 6 49 15 60 23c2 1 5 -1 5 -5
c0 -2 -3 -18 -4 -59v-123c0 -45 5 -49 31 -56c6 -1 10 -2 10 -5c0 -2 -4 -4 -11 -4c-5 0 -36 3 -52 3c-24 0 -40 -3 -47 -3c-9 0 -11 1 -11 3s1 4 12 7c28 8 31 10 32 32c2 21 3 59 3 105c0 26 1 45 0 57c0 5 -2 8 -5 10c-7 2 -16 3 -22 4c-7 1 -11 4 -11 6zM367 569
c6 0 4 -10 -1 -17c-96 -160 -198 -334 -287 -483c-4 -7 -15 -11 -17 -9c-3 5 2 13 8 22c87 144 191 325 277 467c10 17 15 20 20 20zM323 91c18 0 39 15 39 42c0 25 -20 46 -53 63c-3 2 -7 2 -10 0c-18 -10 -24 -32 -24 -53c0 -26 22 -52 48 -52zM320 327
c-25 0 -39 -16 -39 -43c0 -26 28 -48 52 -60c2 -1 4 -1 7 1c9 5 23 29 23 51c0 25 -15 51 -43 51z" />
    <glyph glyph-name="threeeighths" unicode="&#x215c;" horiz-adv-x="396" 
d="M99 563c33 0 51 -25 51 -44c0 -25 -18 -42 -39 -55c-2 -1 -2 -4 0 -4c47 -7 63 -34 63 -61c0 -35 -28 -64 -67 -86c-18 -8 -37 -12 -52 -12s-35 10 -35 24c0 3 7 15 14 15c2 0 7 -1 10 -3c14 -15 24 -19 41 -19c26 0 54 24 54 66c0 34 -25 51 -50 51c-13 0 -24 -5 -31 -7
c-1 -1 -5 -2 -6 1c0 1 1 4 5 6c5 5 8 6 15 11c37 22 46 39 46 57s-10 36 -36 36c-16 0 -28 -7 -40 -18c-6 -6 -7 -6 -8 -6c-2 0 -1 6 0 9c12 19 33 39 65 39zM341 569c6 0 4 -10 -1 -17c-96 -160 -198 -334 -287 -483c-4 -7 -15 -11 -17 -9c-3 5 2 13 8 22
c87 144 191 325 277 467c10 17 15 20 20 20zM294 337c37 0 69 -26 69 -60c0 -28 -19 -43 -44 -57c-2 0 -2 -2 0 -4c32 -21 49 -43 49 -65c0 -44 -38 -69 -79 -69c-45 0 -74 30 -74 61c0 22 18 41 51 60c1 1 0 2 -1 3c-21 16 -42 37 -42 66c0 39 34 65 71 65zM292 327
c-25 0 -39 -16 -39 -43c0 -26 28 -48 52 -60c2 -1 4 -1 7 1c9 5 23 29 23 51c0 25 -15 51 -43 51zM295 91c18 0 39 15 39 42c0 25 -20 46 -53 63c-3 2 -7 2 -10 0c-18 -10 -24 -32 -24 -53c0 -26 22 -52 48 -52z" />
    <glyph glyph-name="fiveeighths" unicode="&#x215d;" horiz-adv-x="402" 
d="M176 394c0 -61 -67 -93 -124 -93c-9 0 -18 2 -18 5c0 2 3 5 9 5c40 2 98 24 98 78c0 42 -74 59 -101 65c-5 0 -6 6 -6 12c0 12 12 57 19 71c4 7 7 10 14 13c10 4 61 14 89 14c2 0 2 -2 2 -4c0 -9 -12 -30 -21 -32c-23 -3 -54 -5 -66 -7c-12 -1 -14 -3 -16 -8
c-3 -8 -5 -16 -5 -21c0 -2 3 -7 15 -9c45 -11 111 -34 111 -89zM344 569c6 0 4 -10 -1 -17c-96 -160 -198 -334 -287 -483c-4 -7 -15 -11 -17 -9c-3 5 2 13 8 22c87 144 191 325 277 467c10 17 15 20 20 20zM300 337c37 0 69 -26 69 -60c0 -28 -19 -43 -44 -57
c-2 0 -2 -2 0 -4c32 -21 49 -43 49 -65c0 -44 -38 -69 -79 -69c-45 0 -74 30 -74 61c0 22 18 41 51 60c1 1 0 2 -1 3c-21 16 -42 37 -42 66c0 39 34 65 71 65zM298 327c-25 0 -39 -16 -39 -43c0 -26 28 -48 52 -60c2 -1 4 -1 7 1c9 5 23 29 23 51c0 25 -15 51 -43 51z
M301 91c18 0 39 15 39 42c0 25 -20 46 -53 63c-3 2 -7 2 -10 0c-18 -10 -24 -32 -24 -53c0 -26 22 -52 48 -52z" />
    <glyph glyph-name="seveneighths" unicode="&#x215e;" horiz-adv-x="385" 
d="M283 337c37 0 69 -26 69 -60c0 -28 -19 -43 -44 -57c-2 0 -2 -2 0 -4c32 -21 49 -43 49 -65c0 -44 -38 -69 -79 -69c-45 0 -74 30 -74 61c0 22 18 41 51 60c1 1 0 2 -1 3c-21 16 -42 37 -42 66c0 39 34 65 71 65zM306 569c6 0 4 -10 -1 -17c-96 -160 -198 -334 -287 -483
c-4 -7 -15 -11 -17 -9c-3 5 2 13 8 22c87 144 191 325 277 467c10 17 15 20 20 20zM103 557c60 0 81 2 85 2c3 0 3 -6 2 -7l-83 -163c-19 -36 -36 -69 -44 -83c-1 -2 -3 -5 -6 -5c-5 0 -7 4 -7 6c0 3 6 13 9 20c36 66 76 139 102 192c2 4 1 6 -2 6c-8 1 -30 2 -44 2
c-19 0 -49 -1 -63 -3c-12 -2 -15 -8 -24 -21c-5 -6 -7 -8 -12 -8c-1 0 -1 3 0 9c2 5 12 32 16 51c0 1 1 4 4 4c10 -1 35 -2 67 -2zM284 91c18 0 39 15 39 42c0 25 -20 46 -53 63c-3 2 -7 2 -10 0c-18 -10 -24 -32 -24 -53c0 -26 22 -52 48 -52zM281 327
c-25 0 -39 -16 -39 -43c0 -26 28 -48 52 -60c2 -1 4 -1 7 1c9 5 23 29 23 51c0 25 -15 51 -43 51z" />
    <glyph glyph-name="onethird" unicode="&#x2153;" horiz-adv-x="438" 
d="M328 336c33 0 51 -25 51 -44c0 -25 -18 -42 -39 -55c-2 -1 -2 -4 0 -4c47 -7 63 -34 63 -61c0 -35 -28 -64 -67 -86c-18 -8 -37 -12 -52 -12s-35 10 -35 24c0 3 7 15 14 15c2 0 7 -1 10 -3c14 -15 24 -19 41 -19c26 0 54 24 54 66c0 34 -25 51 -50 51
c-13 0 -24 -5 -31 -7c-1 -1 -5 -2 -6 1c0 1 1 4 5 6c5 5 8 6 15 11c37 22 46 39 46 57s-10 36 -36 36c-16 0 -28 -7 -40 -18c-6 -6 -7 -6 -8 -6c-2 0 -1 6 0 9c12 19 33 39 65 39zM55 535c0 1 3 4 10 5c25 6 49 15 60 23c2 1 5 -1 5 -5c0 -2 -3 -18 -4 -59v-123
c0 -45 5 -49 31 -56c6 -1 10 -2 10 -5c0 -2 -4 -4 -11 -4c-5 0 -36 3 -52 3c-24 0 -40 -3 -47 -3c-9 0 -11 1 -11 3s1 4 12 7c28 8 31 10 32 32c2 21 3 59 3 105c0 26 1 45 0 57c0 5 -2 8 -5 10c-7 2 -16 3 -22 4c-7 1 -11 4 -11 6zM368 569c6 0 4 -10 -1 -17
c-96 -160 -198 -334 -287 -483c-4 -7 -15 -11 -17 -9c-3 5 2 13 8 22c87 144 191 325 277 467c10 17 15 20 20 20z" />
    <glyph glyph-name="twothirds" unicode="&#x2154;" horiz-adv-x="439" 
d="M102 563c37 0 62 -29 62 -66c0 -21 -8 -43 -32 -71c-20 -26 -48 -54 -74 -81c-2 -2 -1 -3 0 -3c22 0 95 2 99 2c6 0 10 4 27 27c3 3 5 4 7 4s2 -7 -1 -13c-6 -13 -15 -42 -15 -46c0 -3 -2 -4 -4 -4c-6 0 -73 2 -94 2h-43c-11 0 -13 2 -13 4c0 3 2 8 6 11
c13 12 29 29 44 44c34 35 58 75 58 113c0 29 -21 48 -46 48c-22 0 -41 -14 -52 -27c-5 -6 -8 -6 -8 -3c0 5 1 8 6 15c14 20 39 44 73 44zM376 569c6 0 4 -10 -1 -17c-96 -160 -198 -334 -287 -483c-4 -7 -15 -11 -17 -9c-3 5 2 13 8 22c87 144 191 325 277 467
c10 17 15 20 20 20zM329 336c33 0 51 -25 51 -44c0 -25 -18 -42 -39 -55c-2 -1 -2 -4 0 -4c47 -7 63 -34 63 -61c0 -35 -28 -64 -67 -86c-18 -8 -37 -12 -52 -12s-35 10 -35 24c0 3 7 15 14 15c2 0 7 -1 10 -3c14 -15 24 -19 41 -19c26 0 54 24 54 66c0 34 -25 51 -50 51
c-13 0 -24 -5 -31 -7c-1 -1 -5 -2 -6 1c0 1 1 4 5 6c5 5 8 6 15 11c37 22 46 39 46 57s-10 36 -36 36c-16 0 -28 -7 -40 -18c-6 -6 -7 -6 -8 -6c-2 0 -1 6 0 9c12 19 33 39 65 39z" />
    <glyph glyph-name="zero.slash" unicode="&#xf638;" horiz-adv-x="410" 
d="M214 3c20 0 45 5 64 46c18 39 36 111 36 232c0 71 -9 143 -25 199c-1 2 -1 3 -2 1c-47 -124 -108 -297 -151 -408c-1 -3 0 -9 1 -11c18 -38 44 -59 77 -59zM128 97l150 409c1 3 0 6 -1 9c-18 43 -45 72 -77 72c-18 0 -37 -9 -51 -27c-28 -39 -53 -107 -53 -240
c0 -76 9 -161 28 -223c0 -2 2 -4 4 0zM211 602c121 0 163 -181 163 -297c0 -173 -51 -259 -98 -293c-20 -15 -42 -25 -69 -25c-123 0 -170 177 -170 298c0 152 36 252 113 301c18 11 38 16 61 16z" />
    <glyph glyph-name="Euro" unicode="&#x20ac;" horiz-adv-x="410" 
d="M285 334h-163c-2 0 -5 -3 -5 -7c0 -13 -1 -36 1 -43c1 -2 2 -4 4 -4l161 1c15 0 21 -2 21 -5c1 -13 -15 -14 -33 -14l-147 1c-2 0 -4 -2 -4 -5c0 -124 54 -246 148 -246c51 0 87 32 109 89c2 6 5 10 9 10s3 -4 3 -14c0 -13 -12 -50 -20 -66c-8 -15 -12 -12 -27 -21
c-10 -7 -53 -17 -85 -17c-115 0 -187 106 -199 267c0 3 -2 4 -4 4l-39 1c-8 0 -9 2 -9 4c0 4 10 9 15 10h32c1 0 3 3 3 5c0 10 1 36 1 46c0 3 -1 5 -4 5l-18 1c-9 0 -11 7 -11 10c0 4 10 4 16 4h19c2 0 3 2 3 4c5 53 51 248 213 248c16 0 33 -2 50 -7c15 -4 30 -12 48 -15
c5 0 10 -12 10 -21v-56c0 -18 -4 -24 -7 -24c-4 0 -6 7 -9 21c-6 26 -13 44 -32 66c-6 6 -30 22 -61 22c-88 0 -138 -105 -154 -231c0 -2 0 -6 3 -6l172 2c19 0 25 -3 25 -6c0 -13 -22 -13 -35 -13z" />
    <glyph glyph-name="franc" unicode="&#x20a3;" horiz-adv-x="410" 
d="M161 303v-103c0 -6 2 -10 4 -10h66c4 0 13 -2 13 -6c0 -3 -7 -9 -17 -9l-62 -1c-3 0 -4 -3 -4 -6v-84c0 -60 14 -67 43 -73c12 -3 18 -5 18 -9c0 -5 -7 -6 -21 -6c-19 0 -35 4 -72 4c-38 0 -52 -4 -67 -4c-12 0 -18 1 -18 6c0 4 9 6 21 9c24 5 33 9 38 56c1 13 1 60 1 97
c0 4 -1 10 -3 10l-40 1c-9 0 -16 2 -16 5c0 8 16 10 20 10h36c2 0 5 4 5 8c0 41 1 107 1 174c0 93 0 132 -2 158c-2 34 -2 42 -38 50c-11 3 -18 5 -18 10c0 3 1 5 16 5c29 0 75 -5 120 -5h47c59 0 119 1 131 4c4 1 8 -5 9 -11c1 -14 3 -52 3 -68c0 -10 -1 -19 -5 -19
c-7 0 -7 7 -13 27c-13 40 -25 44 -66 47c-28 2 -99 4 -119 2c-6 -1 -9 -7 -9 -17c-1 -23 -3 -204 -2 -222c0 -6 1 -8 5 -8c64 0 89 1 114 4c30 4 32 15 40 39c4 10 6 15 10 15s5 -10 5 -16c0 -11 -3 -35 -3 -53c0 -28 2 -38 2 -48c0 -8 -2 -17 -7 -17c-3 0 -6 7 -10 19
c-7 28 -12 34 -25 37c-17 3 -49 4 -127 4c-2 0 -4 -3 -4 -6z" />
    <glyph glyph-name="lira" unicode="&#x20a4;" horiz-adv-x="420" 
d="M275 265l-100 -7c-3 0 -6 -6 -7 -11c-18 -71 -21 -111 -70 -162c-4 -4 -3 -6 0 -6c29 -1 55 -10 96 -30c56 -27 86 -42 115 -42c49 0 63 32 64 68c1 8 0 26 -6 50c-2 7 0 12 4 12c16 0 33 -8 32 -38c-3 -79 -90 -132 -144 -132s-97 38 -149 72c-18 11 -25 12 -31 12
c-4 0 -8 0 -14 -5c-27 -30 -52 -58 -60 -58c-3 0 -8 1 -7 12c0 16 36 52 63 66c5 3 9 5 13 10c17 22 29 71 36 170c0 3 -1 7 -3 7l-54 -2c-4 0 -15 -1 -14 5c0 5 15 10 17 11l54 4c2 0 5 5 5 8l3 28c0 3 -1 6 -3 6l-48 -1c-4 0 -15 -1 -14 5c0 5 15 10 17 11l47 3
c2 0 4 3 4 6c4 31 10 67 15 87c15 59 42 114 85 146c25 19 54 29 90 29c49 0 80 -35 79 -68c-1 -31 -18 -42 -30 -42c-3 0 -7 2 -6 6c2 8 3 21 3 27c1 28 -16 64 -58 64c-57 0 -99 -59 -119 -244c0 -3 0 -7 2 -7l114 6c4 0 12 -2 11 -6c0 -4 -11 -10 -14 -10l-113 -7
c-1 0 -3 -3 -3 -6l-3 -32c0 -4 1 -5 3 -5l101 5c4 0 12 -2 11 -6c0 -4 -11 -9 -14 -9z" />
    <glyph glyph-name="peseta" unicode="&#x20a7;" horiz-adv-x="410" 
d="M125 436h166c2 0 4 0 4 5c-2 32 -10 70 -41 101c-22 22 -53 39 -94 39c-17 0 -22 -3 -29 -5c-3 -1 -6 -9 -7 -15c-1 -8 -2 -60 -3 -119c0 -2 1 -6 4 -6zM66 339v74c0 2 0 7 -4 7l-28 1c-5 0 -16 1 -16 6c0 6 13 9 17 9h29c2 0 2 3 2 4c0 61 0 94 -1 104
c0 16 -5 25 -35 29c-5 1 -14 3 -14 8c0 4 8 5 16 5c25 1 40 2 63 4c33 3 50 4 65 4c78 0 122 -19 153 -52c27 -29 38 -69 40 -102c0 -4 3 -4 3 -4h19c6 0 13 -1 13 -5c0 -9 -14 -11 -19 -11h-13c-3 0 -4 -4 -4 -6c-7 -69 -42 -108 -70 -127c-32 -21 -67 -26 -89 -26
c-13 0 -22 1 -27 3c-5 0 -9 2 -9 6s3 4 10 4c5 -1 9 0 17 0c27 0 102 27 110 140c0 3 -1 6 -3 6h-167c-2 0 -3 -4 -3 -6c-1 -51 -1 -109 -1 -148c0 -94 1 -185 3 -209c3 -34 7 -42 33 -47c13 -2 19 -5 19 -10s-6 -5 -14 -5c-15 0 -46 5 -80 5c-22 0 -54 -2 -63 -2
c-5 0 -11 2 -11 6s2 5 14 8c26 5 37 10 41 39c3 23 4 150 4 288z" />
    <glyph glyph-name="percent.alt" horiz-adv-x="355" 
d="M266 242c28 1 30 51 30 76c0 24 -5 84 -37 84c-28 0 -31 -49 -31 -75c0 -25 8 -86 38 -85zM261 234c-44 0 -66 46 -66 84c0 23 4 44 16 62c13 19 32 31 55 31c45 0 64 -51 64 -85c0 -24 -6 -47 -16 -63c-13 -20 -34 -29 -53 -29zM298 567c4 0 2 -7 -1 -12
c-77 -111 -143 -210 -217 -314c-3 -5 -14 -8 -15 -6c-2 3 2 10 5 16c73 101 140 203 208 302c8 12 16 14 20 14zM97 389c27 0 30 51 30 75c0 25 -6 85 -38 85c-27 0 -30 -50 -30 -75c0 -26 8 -87 38 -85zM91 380c-43 0 -66 46 -66 85c0 22 6 43 16 61c13 20 32 31 55 31
c46 0 64 -51 64 -84c0 -25 -4 -48 -15 -63c-13 -20 -35 -30 -54 -30z" />
    <glyph glyph-name="uni2116" unicode="&#x2116;" horiz-adv-x="741" 
d="M448 602c17 0 27 -8 34 -24c3 -5 0 -10 -10 -10c-44 0 -65 -32 -65 -154v-295c0 -60 1 -134 -17 -134c-7 0 -14 11 -54 87c-66 124 -122 257 -193 403c-3 7 -10 11 -10 1c0 -101 -2 -217 -2 -318c0 -146 -43 -174 -73 -174c-23 0 -38 15 -38 34c0 6 3 12 7 11
s15 -3 23 -3c37 0 56 37 60 158c1 43 4 154 4 299c0 44 -7 76 -35 84c-14 5 -31 8 -49 13c-11 3 -13 4 -13 8s7 5 21 5c21 0 38 -3 85 -3c6 0 13 -5 19 -12c14 -16 23 -39 49 -90c43 -84 145 -304 190 -389c2 -4 7 -7 7 -2c1 37 -5 317 -5 368c0 128 43 137 65 137zM589 268
c-77 0 -116 76 -116 139c0 101 62 142 115 142c67 0 113 -58 113 -142c0 -92 -57 -139 -112 -139zM597 282c32 0 56 40 56 114c0 72 -27 140 -71 140c-37 0 -60 -51 -60 -115c0 -46 17 -139 75 -139zM509 219l174 20c4 1 6 -1 6 -4c0 -6 0 -22 -11 -23l-169 -18
c-4 0 -9 0 -9 4c0 7 1 20 9 21z" />
    <glyph glyph-name="estimated" unicode="&#x212e;" horiz-adv-x="792" 
d="M759 307h-587c-3 0 -5 -1 -5 -4v-178c0 -8 4 -14 9 -20c55 -59 134 -96 222 -96c93 0 176 41 233 107h53c-66 -76 -171 -127 -287 -127c-200 0 -363 146 -363 326c0 181 163 326 363 326s362 -145 362 -326v-8zM627 330v178c0 9 -4 16 -10 22c-56 56 -134 92 -219 92
c-88 0 -165 -37 -221 -95c-6 -6 -10 -14 -10 -23v-174c0 -3 2 -5 5 -5h450c3 0 5 2 5 5z" />
    <glyph glyph-name="estimated.alt" horiz-adv-x="532" 
d="M300 602c114 0 198 -71 198 -188c0 -12 -14 -22 -25 -22c-15 0 -280 0 -355 1c-7 0 -12 -4 -14 -10c-4 -11 -8 -58 -8 -86c0 -157 97 -262 227 -262c85 0 137 43 154 68c5 7 9 10 9 -1c0 -3 -2 -9 -4 -12c-26 -43 -96 -102 -195 -102c-160 0 -247 139 -247 299
c0 91 32 188 102 253c46 42 98 62 158 62zM291 587c-100 0 -158 -86 -179 -164c-2 -7 -1 -10 6 -11c42 -2 169 -1 251 1c35 1 66 -4 66 36c0 79 -68 138 -144 138z" />
    <glyph glyph-name="Q.alt" horiz-adv-x="734" 
d="M368 649c99 0 153 -38 206 -80c66 -55 114 -167 114 -256c0 -116 -47 -182 -87 -225c-28 -31 -69 -62 -113 -80c-12 -4 -17 -10 -17 -13c-1 -4 1 -9 9 -15c85 -55 208 -114 376 -176c108 -40 212 -66 344 -66c59 0 120 18 166 45c9 5 13 3 13 0c0 -7 -9 -14 -14 -17
c-61 -38 -137 -61 -245 -61c-129 0 -279 40 -455 115c-84 37 -168 79 -293 149c-20 11 -32 16 -53 23c-42 14 -104 31 -158 79c-46 41 -115 128 -115 250c0 83 24 151 67 205c49 57 135 123 255 123zM355 634c-34 0 -93 -12 -140 -53c-70 -60 -101 -179 -99 -268
c2 -117 51 -185 87 -229c59 -70 147 -87 192 -87c29 0 74 16 110 42c46 31 114 140 114 259c0 87 -27 166 -68 222c-35 47 -89 114 -196 114z" />
    <glyph glyph-name="W.alt" horiz-adv-x="993" 
d="M26 627c0 4 6 7 19 7c24 0 51 -3 80 -3c21 0 54 2 81 2c13 0 18 -2 18 -6c0 -5 -6 -8 -16 -10c-34 -7 -45 -15 -38 -36c8 -28 160 -448 170 -466c1 -3 4 -3 8 4c42 114 92 261 127 367c3 9 5 22 3 28c-9 26 -24 68 -32 80c-10 14 -18 19 -44 26c-6 1 -14 4 -14 9
c0 2 5 5 17 5c13 0 58 -3 84 -3s56 3 70 3c10 0 15 -3 15 -5c0 -5 -6 -8 -15 -10c-32 -8 -38 -15 -38 -32c1 -19 21 -75 27 -93c19 -58 115 -308 142 -377c5 -11 7 -12 11 -1c27 73 96 285 121 361c12 39 27 88 27 104c-1 18 -2 27 -39 37c-16 4 -21 7 -21 11c0 3 3 6 15 6
c24 0 47 -4 67 -4c27 0 57 4 73 4c15 0 17 -1 18 -5c0 -4 -5 -7 -23 -13c-32 -12 -49 -22 -74 -92c-23 -65 -94 -260 -130 -374c-8 -30 -36 -111 -47 -156c-3 -9 -8 -15 -12 -15c-9 0 -11 13 -21 43c-40 123 -120 336 -159 437c-2 5 -4 6 -6 0c-54 -158 -123 -350 -136 -392
c-13 -41 -17 -63 -21 -74c-3 -10 -7 -14 -11 -14c-3 0 -9 6 -12 16c-48 162 -128 374 -180 509c-35 92 -48 107 -84 113c-12 2 -20 4 -20 9z" />
    <glyph glyph-name="a.end" horiz-adv-x="525" 
d="M106 -10c-41 0 -79 33 -79 83c0 40 36 54 44 57c26 11 109 42 127 48c9 3 14 13 14 15c1 12 2 29 2 46c0 41 -3 72 -26 88c-13 8 -25 12 -42 12c-22 0 -35 -8 -42 -13c-9 -7 -20 -21 -20 -44c0 -3 -2 -6 -4 -8c-9 -6 -27 -12 -33 -13c-7 -1 -14 2 -14 6c0 5 3 12 14 26
c25 30 64 53 76 59c24 12 40 17 57 17c34 0 62 -21 76 -59c6 -16 9 -35 9 -66c0 -32 -3 -105 -3 -131c0 -59 0 -68 27 -86c15 -10 49 -20 103 -20c52 0 86 7 86 51c0 8 -3 20 -4 24c-1 3 3 10 8 15c2 3 21 22 25 22c6 0 10 -11 10 -27c0 -33 -35 -74 -59 -87
c-27 -15 -57 -22 -116 -22c-41 0 -69 4 -88 11c-27 9 -37 23 -44 38c-1 2 -3 2 -6 0c-35 -24 -71 -42 -98 -42zM144 25c11 0 37 5 51 17c5 4 10 14 12 26c3 17 4 57 4 93c0 1 -2 6 -4 5c-19 -5 -76 -29 -97 -40c-14 -7 -28 -19 -28 -46c0 -31 28 -55 62 -55z" />
    <glyph glyph-name="d.end" horiz-adv-x="589" 
d="M245 368c29 0 53 -6 68 -11c2 -1 6 7 6 12c0 19 -1 196 -1 250c0 8 -1 12 -4 17c-5 7 -18 13 -29 16c-6 2 -12 5 -12 8s4 5 9 6c30 5 67 18 77 23c5 3 10 6 13 6s5 -5 4 -18c-2 -31 -7 -391 -7 -465v-147c1 -13 3 -21 9 -25c20 -14 42 -18 74 -18c44 0 59 2 72 10
c7 5 16 18 16 35c0 11 -7 26 -11 36c-1 3 13 21 23 31c7 7 14 8 17 8c9 0 12 -21 12 -33c0 -48 -38 -81 -60 -94c-23 -13 -58 -19 -85 -19c-33 0 -51 3 -65 3c-38 0 -46 -3 -50 -6c-6 -5 -10 1 -10 8c0 6 1 12 1 30c0 7 -1 9 -4 7c-39 -27 -74 -48 -113 -48
c-38 0 -73 10 -109 42c-20 18 -52 65 -52 129c0 87 46 139 82 166c33 24 79 41 129 41zM209 347c-28 0 -39 -7 -55 -17c-31 -23 -60 -71 -60 -147c0 -104 62 -163 128 -163c20 0 56 8 80 31c8 9 11 24 12 43c1 26 4 151 -2 186c-2 12 -9 24 -11 27c-24 26 -61 40 -92 40z
" />
    <glyph glyph-name="e.end" horiz-adv-x="591" 
d="M280 -32c-62 0 -164 13 -217 99c-18 31 -29 66 -29 108c0 81 46 146 95 173c23 13 45 22 69 22c47 0 72 -12 91 -29c21 -18 27 -45 27 -58c0 -8 -1 -13 -4 -16c-4 -3 -14 -3 -20 -3c-10 0 -25 0 -188 -1c-7 0 -12 -8 -13 -12c-2 -6 -7 -23 -7 -47c0 -59 23 -110 54 -138
c54 -49 124 -62 191 -62c142 0 184 46 208 76c10 13 10 32 7 43c-3 13 -7 21 -7 25c0 3 1 6 3 9c5 9 16 16 24 16c7 0 15 -15 15 -34c0 -36 -31 -77 -74 -107c-39 -27 -111 -64 -225 -64zM265 303c0 8 -6 20 -17 32c-17 15 -32 22 -59 22c-24 0 -71 -32 -83 -68
c-2 -7 -1 -12 0 -12c19 0 111 3 125 4c11 0 20 2 26 6c7 3 8 9 8 16z" />
    <glyph glyph-name="h.end" horiz-adv-x="594" 
d="M348 -1c-27 0 -47 -3 -57 -3c-13 0 -18 2 -18 6c0 3 5 6 16 8c14 3 22 12 25 38c1 23 2 47 2 160c0 25 -2 67 -15 91c-13 21 -36 37 -74 37s-77 -19 -95 -38c-14 -14 -15 -25 -15 -46c0 -172 3 -201 4 -211c4 -18 12 -25 33 -29c17 -3 24 -5 24 -10c0 -3 -6 -6 -14 -6
c-27 0 -48 4 -81 4c-26 0 -42 -4 -59 -4c-11 0 -15 2 -15 6c0 3 4 5 16 8c29 7 37 15 39 55c3 42 4 127 4 296c0 151 -1 207 -2 248c-1 32 -9 35 -29 47c-5 3 -7 5 -7 8c0 2 6 5 16 8c31 9 46 13 61 21c4 2 7 3 9 3s5 -8 4 -21c-1 -32 -2 -346 -2 -367c0 -2 3 -3 6 0
c11 11 39 32 61 43c18 9 44 18 73 18c28 0 53 -12 66 -21c30 -21 42 -56 44 -110c1 -49 1 -125 1 -162c0 -23 3 -33 8 -41c7 -9 37 -14 69 -14c53 0 76 2 93 17c7 6 11 14 11 27c0 11 -9 31 -11 40c0 11 12 27 20 35c7 7 11 8 13 8c10 0 14 -19 14 -31
c0 -58 -41 -94 -64 -105c-18 -9 -44 -16 -79 -16c-34 0 -80 3 -95 3z" />
    <glyph glyph-name="m.end" horiz-adv-x="846" 
d="M255 365c47 0 79 -18 102 -63c1 -2 6 -3 7 -2c47 43 88 69 139 69c56 0 89 -34 102 -73c7 -20 11 -58 12 -95l4 -125c0 -23 3 -33 8 -41c7 -9 37 -14 69 -14c53 0 76 2 93 17c7 6 10 15 10 28c0 11 -9 31 -11 40c-1 6 10 23 21 33c7 7 11 9 13 9c10 0 14 -19 14 -31
c0 -58 -41 -94 -64 -105c-18 -9 -44 -16 -79 -16c-34 0 -80 3 -95 3c-27 0 -47 -3 -57 -3c-13 0 -18 2 -18 6c0 3 5 6 16 8c14 3 22 12 25 38c2 120 -5 176 -9 208c-8 51 -35 79 -88 79c-42 0 -76 -23 -95 -42c-4 -4 -8 -16 -8 -38c1 -23 5 -174 7 -201c3 -28 6 -35 32 -41
c12 -4 16 -5 16 -9s-5 -6 -17 -6c-11 0 -48 2 -70 2s-44 -2 -55 -2c-10 0 -15 2 -15 6c0 3 5 7 19 10c21 4 31 14 31 38l1 153c0 56 -6 80 -26 102c-16 16 -32 24 -65 24c-39 0 -66 -19 -83 -33c-11 -10 -13 -18 -14 -27c-1 -10 -2 -34 -2 -64c0 -58 2 -141 4 -158
s9 -32 34 -36c11 -2 15 -5 15 -8c0 -5 -8 -7 -15 -7c-19 0 -50 2 -74 2c-26 0 -48 -2 -57 -2s-18 3 -18 7s6 7 20 9c34 7 32 20 34 29c4 23 4 88 4 154c0 43 1 67 -1 87c-1 20 -8 29 -24 38c-7 4 -10 6 -10 10c0 3 3 4 11 7c18 4 45 16 58 27c5 4 10 6 14 6c3 0 5 -4 5 -10
c0 -11 -1 -40 0 -51c0 -3 1 -9 6 -6c33 28 87 60 124 60z" />
    <glyph glyph-name="n.end" horiz-adv-x="593" 
d="M263 369c42 0 66 -22 77 -35c22 -24 29 -76 30 -133c0 -50 1 -78 1 -125c0 -23 3 -33 8 -41c7 -9 37 -14 69 -14c53 0 76 2 93 17c7 6 10 14 10 27c0 11 -9 31 -11 40c-1 6 10 25 21 35c7 7 11 9 13 9c10 0 14 -19 14 -31c0 -58 -41 -95 -64 -106c-18 -9 -44 -16 -79 -16
c-34 0 -80 3 -95 3c-27 0 -47 -3 -57 -3c-13 0 -18 2 -18 6c0 3 5 6 16 8c14 3 24 10 27 36v142c1 83 -8 108 -33 128c-15 12 -35 21 -61 21c-29 0 -53 -7 -86 -34c-13 -12 -15 -27 -15 -38c0 -9 0 -62 1 -125c1 -66 4 -83 6 -98c3 -23 17 -26 33 -30c12 -3 17 -5 17 -10
c0 -6 -10 -6 -20 -6c-8 0 -53 4 -76 4c-13 0 -33 -2 -47 -2c-11 0 -18 2 -18 7c0 4 8 7 22 10c24 5 28 13 29 37c2 78 2 158 2 235c0 19 -2 29 -27 41c-5 3 -8 5 -8 9c0 2 4 4 14 8c16 5 51 23 64 30c5 4 10 -1 10 -8l-2 -50c0 -11 2 -10 12 -2c27 20 49 33 71 42
c23 11 41 12 57 12z" />
    <glyph glyph-name="r.end" horiz-adv-x="419" 
d="M228 369c19 0 46 -9 67 -21c24 -13 41 -21 56 -21c26 0 37 12 37 26c0 8 -4 18 -9 27c-4 7 0 14 3 19c4 6 13 12 19 12c15 0 18 -22 18 -32c0 -16 -14 -40 -36 -58c-19 -17 -42 -27 -67 -27c-19 0 -36 7 -68 23c-26 14 -39 14 -49 14c-18 0 -43 -13 -60 -37
c-8 -12 -16 -29 -16 -41v-67c0 -75 1 -112 3 -132c4 -32 19 -39 58 -43c14 -1 19 -4 19 -9s-11 -7 -27 -7c-15 0 -55 5 -95 5c-16 0 -34 -4 -49 -4c-11 0 -14 3 -14 7c0 3 7 6 14 7c22 4 32 13 36 40c2 17 3 74 3 140v100c-1 18 -11 28 -29 42c-6 5 -8 6 -4 10c2 2 9 5 16 7
c11 3 39 13 48 19c7 4 11 6 16 6c4 0 5 -7 4 -19c-1 -8 0 -32 -1 -51c0 -5 3 -10 5 -7c17 20 40 46 59 58c16 10 30 14 43 14z" />
    <glyph glyph-name="longs" unicode="&#x17f;" horiz-adv-x="192" 
d="M125 318c0 -42 1 -221 3 -249c4 -50 4 -48 39 -56c12 -2 19 -5 19 -9c0 -5 -7 -7 -16 -7c-26 0 -26 3 -70 3c-23 0 -46 -3 -62 -4c-10 0 -15 2 -15 6s7 7 20 10c24 5 29 20 29 56v242c0 6 0 11 -4 12c-6 0 -16 0 -29 1c-9 1 -14 7 -14 9s5 5 12 9s15 8 24 14
c8 5 11 11 11 15c0 69 5 127 16 164c19 61 51 104 95 133c33 23 67 31 95 31c39 0 66 -23 66 -34c0 -7 -11 -18 -22 -24c-5 -3 -15 0 -18 3c-13 10 -38 25 -72 25c-56 0 -90 -43 -102 -165c-3 -32 -5 -93 -5 -185z" />
    <glyph glyph-name="t.end" horiz-adv-x="396" 
d="M370 465c14 0 22 -21 22 -42c0 -43 -31 -69 -53 -80c-21 -9 -48 -13 -84 -15c-33 -1 -60 -2 -131 -2c-1 0 -7 -3 -7 -9c0 -15 1 -172 2 -205c1 -35 4 -47 11 -57c14 -23 36 -30 67 -30c25 0 51 11 59 16c6 5 9 4 9 0c0 -6 -11 -19 -23 -26c-24 -14 -49 -24 -77 -24
c-45 0 -72 14 -89 46c-8 13 -12 39 -12 63v202c0 13 -1 20 -4 21c-5 2 -18 3 -28 5c-7 1 -12 5 -12 8c0 2 -1 3 10 8c26 9 55 35 77 65c6 9 14 7 14 3c0 -8 -1 -34 -1 -46c0 -4 2 -8 8 -8s33 -2 73 -2c38 0 83 0 110 1c54 3 53 20 53 35c0 12 -8 27 -14 35c-4 6 -4 6 -4 11
c0 7 17 27 24 27z" />
    <glyph glyph-name="t.endalt" horiz-adv-x="446" 
d="M26 336c0 2 -1 3 10 8c26 9 55 35 77 65c6 9 14 7 14 3c0 -8 -1 -35 -1 -47c0 -3 1 -8 5 -8c18 0 106 3 129 3c2 0 6 -6 6 -12c0 -14 -5 -27 -10 -27c-37 0 -102 3 -129 3c-1 0 -4 -3 -4 -9c0 -15 -1 -177 0 -210c0 -34 4 -54 41 -76c25 -15 83 -22 112 -22
c92 0 117 29 128 43c2 4 3 15 -1 21c-3 4 -10 15 -10 20c0 14 11 26 25 26c11 0 21 -8 21 -28c0 -35 -45 -72 -84 -87c-40 -15 -85 -22 -136 -22c-37 0 -110 8 -137 54c-7 12 -12 30 -12 64v202c0 13 -1 20 -4 21c-5 2 -18 5 -28 7c-7 1 -12 5 -12 8z" />
    <glyph glyph-name="u.end" horiz-adv-x="582" 
d="M29 356c0 3 4 5 17 5s55 4 70 9c3 1 6 -5 5 -11c-4 -57 -5 -198 -4 -239c1 -42 12 -60 18 -68c13 -16 34 -26 56 -26c40 0 68 13 98 38c13 12 18 27 19 49c2 25 2 70 2 110c0 16 -1 47 -1 74c0 34 -12 39 -47 46c-11 2 -15 5 -15 8c0 4 8 6 14 6h54c20 0 40 6 50 6
c3 0 4 -3 3 -11c-4 -44 -6 -129 -7 -232v-55c1 -13 3 -21 9 -25c20 -14 42 -18 74 -18c49 0 65 3 78 11c7 5 12 9 12 30c0 11 -8 28 -12 38c-1 3 13 23 23 33c7 7 13 8 16 8c9 0 12 -21 12 -33c0 -48 -36 -83 -59 -95c-20 -14 -59 -18 -86 -18c-33 0 -51 3 -65 3
c-38 0 -44 -3 -48 -6c-6 -5 -10 1 -10 8c0 6 1 36 1 54c0 1 -1 5 -4 3c-24 -20 -63 -45 -79 -53c-19 -10 -36 -14 -50 -14c-41 0 -68 8 -90 36c-13 16 -18 40 -18 64c0 33 0 203 -2 220c-1 17 -13 26 -22 32c-9 7 -12 9 -12 13z" />
    <glyph glyph-name="z.end" horiz-adv-x="479" 
d="M81 357h83c62 0 109 3 129 3c3 0 7 -1 8 -3s1 -5 -2 -10c-4 -7 -27 -40 -47 -72c-22 -36 -101 -165 -139 -240c-3 -4 -1 -7 1 -8c7 -3 74 -6 173 -6c104 0 152 18 152 85c0 9 -4 18 -7 24c-7 8 -12 13 -12 19c0 7 19 25 26 25c11 0 23 -22 23 -43c0 -29 -13 -55 -31 -78
c-29 -37 -70 -56 -149 -56h-170c-31 0 -52 0 -74 -1c-5 0 -11 1 -11 6c0 8 38 64 60 101c23 39 92 151 133 226c2 6 3 8 -3 8h-145c-22 0 -28 -17 -34 -33c-5 -10 -10 -16 -13 -16c-2 0 -4 3 -4 10s2 13 5 27c3 11 4 22 6 36c0 6 0 8 5 13c2 2 5 2 7 -1c8 -7 15 -16 30 -16z
" />
    <glyph glyph-name="c_h" horiz-adv-x="770" 
d="M213 353c-48 0 -124 -43 -124 -158c0 -75 30 -114 53 -133c26 -23 63 -35 96 -35c43 0 69 6 106 40c1 1 6 2 6 -1c0 -4 -1 -8 -7 -15c-18 -21 -63 -62 -137 -62c-43 0 -88 16 -121 48c-32 31 -51 80 -51 134c0 63 29 111 58 139c30 30 79 59 148 59c39 0 70 -11 89 -24
c13 -7 15 -15 15 -20c0 -16 -19 -28 -23 -28s-10 4 -16 10c-18 18 -38 30 -54 38c-11 6 -28 8 -38 8zM564 336c-48 0 -82 -23 -100 -42c-5 -5 -10 -17 -10 -42c0 -172 4 -197 5 -207c4 -18 11 -29 32 -33c17 -3 24 -5 24 -10c0 -3 -6 -6 -14 -6c-27 0 -48 4 -81 4
c-26 0 -42 -4 -59 -4c-11 0 -15 2 -15 6c0 3 4 5 16 8c29 7 37 9 39 49c3 42 4 133 4 302c0 151 2 207 1 248c-1 32 -10 35 -30 47c-5 3 -7 5 -7 8c0 2 6 5 16 8c31 9 46 13 61 21c4 2 7 3 9 3s5 -8 4 -21c-1 -32 -4 -344 -4 -365c0 -4 3 -4 4 -3c11 11 41 33 63 44
c18 9 44 18 73 18c28 0 64 -11 88 -46c9 -12 21 -42 22 -108c1 -78 0 -141 1 -174c1 -21 5 -25 36 -30c13 -3 16 -6 16 -9c0 -4 -6 -7 -16 -7c-24 0 -46 5 -68 5c-28 0 -38 -4 -57 -4c-12 0 -17 3 -17 6c0 4 6 6 16 8c25 4 28 11 32 38c3 23 5 64 5 177c0 25 -3 49 -16 73
c-13 21 -35 38 -73 38z" />
    <glyph glyph-name="c_k" horiz-adv-x="752" 
d="M213 353c-48 0 -124 -43 -124 -158c0 -75 30 -114 53 -133c26 -23 63 -35 96 -35c43 0 69 6 106 40c1 1 6 2 6 -1c0 -4 -1 -8 -7 -15c-18 -21 -63 -62 -137 -62c-43 0 -88 16 -121 48c-32 31 -51 80 -51 134c0 63 29 111 58 139c30 30 79 59 148 59c39 0 70 -11 89 -24
c13 -7 15 -15 15 -20c0 -16 -19 -28 -23 -28s-10 4 -16 10c-18 18 -38 30 -54 38c-11 6 -28 8 -38 8zM576 358c18 0 44 -1 56 -1c16 0 59 5 81 5c11 0 14 -3 14 -6c0 -2 -2 -6 -14 -8c-34 -6 -49 -10 -95 -44c-27 -20 -85 -70 -102 -86c-2 -1 0 -5 1 -6
c27 -30 102 -104 152 -154c28 -27 43 -40 74 -47c8 -2 15 -5 15 -9c0 -7 -9 -7 -16 -7c-24 0 -66 5 -102 5c-16 0 -29 -1 -44 -1c-11 0 -19 0 -19 6c0 5 6 7 25 11c17 4 19 14 10 27c-24 26 -102 105 -131 132c-8 6 -15 13 -19 13c-3 0 -4 -7 -4 -11c-1 -19 -2 -42 -2 -106
c0 -48 6 -51 40 -59c11 -3 15 -5 15 -8c0 -5 -7 -7 -20 -7c-27 0 -44 3 -70 3c-29 0 -44 -3 -58 -3c-11 0 -16 3 -16 7c0 3 6 6 13 7c31 8 39 17 41 50c4 73 5 161 6 239c1 93 4 200 4 288c0 23 -1 36 -4 45c-2 8 -12 14 -22 19c-6 3 -9 5 -9 7c0 4 5 5 14 8
c30 10 54 20 61 23c6 3 11 5 14 5c2 0 3 -3 3 -9c-2 -32 -5 -115 -5 -189c0 -30 -5 -145 -5 -281c0 -12 2 -17 5 -17c4 0 12 6 21 12c43 35 91 77 109 99c6 6 11 14 11 18c0 7 -7 12 -26 15c-8 1 -17 4 -17 8s7 7 15 7z" />
    <glyph glyph-name="c_t" horiz-adv-x="613" 
d="M409 100v214c0 5 0 9 -3 9c-22 5 -27 5 -29 7c-1 1 -2 3 -2 5s2 4 33 20c4 3 8 8 9 18c1 15 2 32 2 54c0 91 -41 116 -97 116c-82 0 -123 -64 -123 -130c0 -22 4 -34 6 -41c1 -2 3 -4 7 -4c17 0 65 -3 85 -18c9 -7 8 -11 8 -15c0 -10 -21 -27 -25 -27c-6 0 -16 6 -20 10
c-20 16 -46 29 -73 29c-53 0 -103 -42 -103 -150c0 -51 22 -102 48 -126c27 -25 56 -37 93 -37c60 0 91 24 116 65c5 8 7 9 10 9c5 0 3 -11 0 -17c-28 -63 -77 -100 -152 -100c-90 0 -165 81 -165 182c0 92 50 134 79 157c20 15 42 24 77 35c2 1 2 3 2 4
c-8 21 -11 35 -11 53c0 91 66 148 148 148c77 0 116 -37 129 -81c7 -23 6 -66 6 -122c0 -3 2 -10 6 -10c18 0 106 3 129 3c2 0 6 -6 6 -12c0 -14 -5 -27 -10 -27c-37 0 -102 3 -129 3c-1 0 -4 -3 -4 -9c0 -15 2 -171 3 -204c1 -35 3 -46 10 -56c14 -23 36 -30 67 -30
c25 0 51 11 59 16c6 5 9 4 9 0c0 -6 -11 -19 -23 -26c-24 -14 -49 -24 -77 -24c-45 0 -72 14 -89 46c-8 13 -12 39 -12 63z" />
    <glyph glyph-name="f_t.alt" horiz-adv-x="485" 
d="M65 68v242c0 6 0 11 -4 12c-6 0 -16 0 -29 1c-9 1 -14 7 -14 9s5 5 12 9s15 8 24 14c8 5 11 11 11 15c0 69 5 127 16 164c19 61 48 99 93 126c18 11 45 20 66 20c51 0 82 -22 98 -55c8 -18 12 -39 12 -62c0 -49 -2 -116 -2 -198c0 -3 1 -8 5 -8c18 0 105 2 128 2
c2 0 6 -6 6 -12c0 -14 -5 -23 -10 -23h-129c-1 0 -4 -3 -4 -9c0 -15 2 -171 3 -204c1 -35 3 -46 10 -56c14 -23 36 -30 67 -30c25 0 51 11 59 16c6 5 9 4 9 0c0 -6 -11 -19 -23 -26c-24 -14 -49 -24 -77 -24c-45 0 -72 14 -89 46c-8 13 -12 39 -12 63l2 213
c0 10 -2 13 -6 13c-14 0 -150 1 -164 1c-3 0 -5 -8 -5 -9c0 -42 1 -221 3 -249c3 -37 10 -47 20 -50c8 -3 20 -3 34 -6c12 -2 19 -5 19 -9c0 -5 -7 -7 -16 -7c-26 0 -41 3 -85 3c-23 0 -46 -3 -62 -4c-10 0 -15 2 -15 6s7 7 20 10c24 5 29 20 29 56zM219 655
c-56 0 -86 -30 -98 -152c-3 -32 -4 -85 -4 -116c0 -7 0 -17 1 -23c1 -7 5 -7 15 -7h157c3 1 5 5 6 12c3 36 6 131 6 170c0 36 -8 68 -18 83c-13 19 -33 33 -65 33z" />
    <glyph glyph-name="s_p" horiz-adv-x="690" 
d="M513 369c40 0 79 -24 102 -49c30 -34 41 -77 41 -115c0 -117 -69 -170 -129 -199c-17 -8 -44 -16 -74 -16c-21 0 -57 6 -67 10c-4 2 -6 -8 -7 -13c-4 -17 -3 -120 -1 -168s3 -58 9 -70c7 -14 25 -18 50 -22c9 -2 14 -4 14 -8s-5 -7 -18 -7c-15 0 -48 4 -81 4
s-63 -7 -75 -7s-18 2 -18 6c0 3 4 7 21 10c37 10 42 24 44 48c1 18 2 54 2 127c0 71 1 326 0 351c0 43 -1 192 -1 224c0 23 -3 39 -13 49c-7 7 -17 10 -31 10c-76 0 -103 -41 -103 -102c0 -21 5 -45 10 -57c3 -8 4 -8 12 -10c11 -2 22 -5 27 -7c2 -1 5 -6 5 -8
c1 -11 5 -32 6 -44c0 -11 -2 -16 -5 -16c-4 0 -5 5 -8 12c-10 26 -33 54 -72 54c-35 0 -59 -25 -59 -67c0 -44 40 -69 59 -80c66 -42 92 -67 92 -118c0 -45 -33 -71 -54 -83c-22 -14 -51 -20 -73 -20c-27 0 -46 6 -76 18c-8 3 -13 10 -13 15c0 14 -2 36 -3 48
c-2 13 1 15 3 15s5 0 12 -19c16 -46 60 -63 85 -63c29 0 68 29 68 72c0 41 -28 62 -64 85s-83 58 -83 106c0 35 15 59 32 74c18 15 45 30 84 30h8c3 0 5 1 4 3c-11 16 -17 44 -17 66c0 90 82 122 142 122c34 0 51 1 65 10c7 5 10 2 12 -12c1 -9 2 -22 2 -40
c0 -6 -1 -184 -1 -194c0 -2 3 -6 6 -3c45 33 82 48 129 48zM489 13c15 0 36 5 54 21c34 28 61 76 61 148c0 43 -19 92 -45 117c-18 17 -43 36 -85 36c-29 0 -59 -5 -83 -22c-9 -6 -11 -7 -13 -25c-2 -23 -2 -180 0 -198c1 -9 2 -12 6 -23c17 -37 65 -54 105 -54z" />
    <glyph glyph-name="s_t" unicode="&#xfb06;" horiz-adv-x="545" 
d="M336 100v214c0 5 0 9 -3 9c-21 5 -26 5 -28 7s-3 3 -3 5c0 3 2 4 33 20c5 3 9 8 10 18c1 15 3 25 3 46c0 80 -38 102 -75 102c-60 0 -87 -42 -87 -105c0 -11 3 -28 9 -42c2 -4 4 -7 12 -10c9 -2 15 -4 20 -6c2 -1 5 -6 5 -8c1 -11 5 -32 6 -44c0 -11 -2 -16 -5 -16
c-4 0 -5 5 -8 12c-10 26 -33 54 -72 54c-35 0 -59 -25 -59 -67c0 -44 40 -69 59 -80c66 -42 92 -67 92 -118c0 -45 -33 -71 -54 -83c-22 -14 -51 -20 -73 -20c-27 0 -46 6 -76 18c-8 3 -13 10 -13 15c0 14 -2 36 -3 48c-2 13 1 15 3 15s5 0 12 -19c16 -46 60 -63 85 -63
c29 0 68 29 68 72c0 41 -28 62 -64 85s-83 58 -83 106c0 35 15 59 32 74c18 15 47 30 86 30h14c3 0 4 2 3 4c-8 19 -13 41 -13 55c0 78 52 121 113 121s93 -32 105 -77c6 -22 3 -67 3 -101c0 -10 2 -11 9 -11c20 0 98 5 122 5c14 0 16 -1 16 -23c0 -16 -2 -18 -13 -18
c-39 0 -96 3 -124 3c-9 0 -11 -3 -11 -12c0 -15 -1 -171 0 -204c2 -35 6 -46 13 -56c15 -23 37 -29 69 -29c24 0 49 10 57 16c9 6 14 3 14 -2c0 -6 -11 -19 -23 -25c-24 -16 -52 -24 -80 -24c-47 0 -75 16 -94 48c-8 13 -9 37 -9 61z" />
    <glyph glyph-name="Eng" unicode="&#x14a;" horiz-adv-x="738" 
d="M21 628c0 4 5 7 22 7c21 0 68 -4 104 -4c5 0 9 -4 23 -22c65 -84 338 -391 435 -499c1 -1 6 -3 6 8c0 40 -4 333 -5 424c0 60 -16 70 -51 77c-12 2 -19 5 -19 9c0 5 9 6 20 6c18 0 44 -3 67 -3c30 0 52 3 63 3c10 0 16 -1 16 -5c0 -5 -9 -8 -17 -10
c-40 -12 -40 -34 -44 -60c-4 -30 -6 -369 -6 -463c0 -156 -14 -208 -36 -250c-22 -38 -55 -55 -68 -55c-27 0 -42 17 -44 29c-1 3 0 12 3 12c19 2 55 9 77 26c30 23 39 47 39 105c0 26 -17 59 -21 65c-77 92 -314 363 -447 519c-5 6 -8 5 -8 -2c0 -40 -3 -373 -3 -416
c0 -44 3 -68 11 -85c8 -18 35 -28 49 -32c11 -3 18 -5 18 -11c0 -5 -9 -6 -19 -6c-17 0 -44 5 -76 5c-31 0 -62 -5 -69 -5c-15 0 -17 3 -17 6c0 5 8 8 19 10c34 7 48 21 53 79c3 36 11 376 11 438c0 59 -11 70 -20 77c-6 5 -23 10 -47 14c-14 2 -19 4 -19 9z" />
    <glyph glyph-name="uni019F" unicode="&#x19f;" horiz-adv-x="734" 
d="M348 634c-56 0 -123 -36 -157 -75c-51 -59 -73 -132 -76 -212c0 -3 1 -8 4 -8h494c5 0 6 3 6 7c-9 74 -43 150 -94 208c-39 44 -94 80 -177 80zM390 1c42 0 75 11 109 36c55 41 122 137 122 273c0 3 0 6 -4 6l-497 -3c-3 0 -4 -4 -4 -7c4 -67 32 -141 72 -194
c68 -91 145 -111 202 -111zM368 649c169 0 320 -155 320 -341c0 -162 -110 -262 -187 -296c-40 -18 -85 -30 -129 -30c-178 0 -326 159 -326 342c0 100 34 188 130 261c51 40 128 64 192 64z" />
    <glyph glyph-name="uni018F" unicode="&#x18f;" horiz-adv-x="607" 
d="M274 -19c-137 0 -234 97 -234 211c0 10 11 21 30 21c16 0 326 0 408 -1c3 0 11 7 12 9c2 13 6 60 6 95c0 155 -95 293 -246 293c-80 0 -143 -33 -191 -84c-6 -7 -12 -12 -15 -12c-2 0 -3 1 -3 4c0 1 0 6 7 15c58 77 142 117 238 117c174 0 275 -159 275 -321
c0 -99 -40 -223 -123 -289c-58 -50 -118 -58 -164 -58zM285 -4c106 0 173 95 195 187c1 3 -2 9 -6 9c-48 3 -226 1 -310 -1c-33 -1 -50 -10 -50 -46c0 -49 51 -149 171 -149z" />
    <glyph glyph-name="uni021C" unicode="&#x21c;" horiz-adv-x="462" 
d="M176 629c-25 0 -62 0 -91 -36c-16 -16 -25 -35 -35 -62c-6 -14 -8 -20 -12 -20c-3 0 -6 3 -6 16c0 18 8 49 12 68c3 16 8 23 11 23c12 3 17 2 36 8c29 9 52 23 102 23c115 0 159 -67 159 -134c0 -43 -24 -80 -38 -94c-19 -20 -37 -33 -59 -48c-4 -4 -3 -5 2 -7
c30 -7 93 -23 128 -69c19 -23 32 -56 32 -99c0 -91 -61 -173 -153 -227c-55 -31 -126 -49 -168 -49c-37 0 -54 2 -67 5c-14 3 -19 7 -19 10c0 4 3 6 15 5c13 -1 22 -1 46 -1c53 0 129 27 160 44c74 41 118 111 118 188c0 44 -9 83 -37 112c-16 18 -55 36 -101 36
c-32 0 -63 -14 -82 -22c-6 -2 -16 -3 -16 1s6 11 17 17c15 10 42 20 65 31c91 44 93 103 93 148c0 88 -54 133 -112 133z" />
    <glyph glyph-name="eng" unicode="&#x14b;" horiz-adv-x="425" 
d="M365 210l-1 -196c-4 -119 -13 -223 -73 -285c-11 -11 -40 -28 -58 -28c-11 0 -23 2 -31 10c-5 5 -8 14 -8 27c0 3 3 9 6 7c15 -9 49 -12 58 -12c50 0 57 71 57 254c-1 66 0 135 -2 201c-3 83 -9 107 -33 128c-15 13 -37 21 -56 21c-29 0 -53 -7 -86 -34
c-13 -12 -15 -27 -15 -38c0 -9 0 -62 1 -125c1 -66 2 -83 4 -98c3 -23 19 -26 35 -30c12 -3 17 -5 17 -10c0 -6 -10 -6 -20 -6c-8 0 -53 4 -76 4c-13 0 -33 -2 -47 -2c-11 0 -18 2 -18 7c0 4 8 7 22 10c24 5 28 13 29 37c2 78 2 158 2 235c0 19 -2 29 -27 41c-5 3 -8 5 -8 9
c0 2 4 4 14 8c16 5 51 23 64 30c5 4 10 -1 10 -8l-2 -53c0 -5 2 -7 12 1c27 20 49 33 71 42c23 11 36 12 52 12c42 0 66 -21 77 -34c22 -24 29 -68 30 -125z" />
    <glyph glyph-name="kgreenlandic" unicode="&#x138;" horiz-adv-x="411" 
d="M27 356c0 5 6 5 24 5c32 0 55 5 71 11c2 1 4 -4 4 -11c-2 -30 -4 -67 -4 -162c0 -3 2 -7 4 -7c13 0 21 5 35 18c25 23 76 72 97 100c5 7 10 14 10 18c0 7 -11 13 -29 16c-6 1 -16 2 -16 7c0 4 7 6 13 6h60c15 0 54 5 75 5c12 0 16 -1 16 -5c0 -2 -3 -5 -16 -8
c-33 -7 -43 -8 -88 -45c-37 -31 -75 -69 -99 -92c-3 -2 -2 -7 0 -9c45 -49 86 -88 143 -145c28 -28 41 -41 80 -48c9 -2 15 -5 15 -9s-9 -6 -16 -6c-8 0 -29 2 -65 4c-42 3 -66 1 -80 1c-12 0 -20 0 -20 6c0 5 4 6 26 11c16 5 11 17 1 29c-39 41 -85 87 -124 125
c-9 6 -12 8 -17 8c-2 0 -4 -3 -5 -12c-2 -19 -1 -32 -1 -96c0 -45 3 -53 42 -62c5 -1 11 -4 11 -7c0 -6 -11 -5 -19 -5c-22 0 -49 3 -75 3c-29 0 -41 -3 -52 -3c-9 0 -14 0 -14 4c0 3 3 6 10 8c31 7 42 19 44 52c2 41 4 91 4 141c0 39 -1 81 -2 115c-3 14 -2 19 -30 29
c-10 4 -13 6 -13 10z" />
    </font>
</defs>
</svg>
