<?xml version="1.0" encoding="UTF-8" standalone="no"?>
<!DOCTYPE svg  PUBLIC '-//W3C//DTD SVG 1.1//EN'  'http://www.w3.org/Graphics/SVG/1.1/DTD/svg11.dtd'>
<svg xmlns="http://www.w3.org/2000/svg">
<defs>
<font id="GaramondPremrPro-Regular" horiz-adv-x="486">
<font-face underline-position="-50" font-weight="400" descent="-200" panose-1="2 2 4 2 6 5 6 2 4 3" units-per-em="1000" unicode-range="U+0020-25CA" bbox="-177 -293 1038 855" x-height="394" underline-thickness="50" font-family="Garamond Premr Pro" ascent="800" cap-height="646"/>
<missing-glyph horiz-adv-x="1000"/>
<glyph glyph-name=".notdef" horiz-adv-x="1000"/>
<glyph glyph-name=".null" horiz-adv-x="0"/>
<glyph glyph-name="nonmarkingreturn" horiz-adv-x="333"/>
<glyph glyph-name="space" horiz-adv-x="199" unicode=" "/>
<glyph glyph-name="exclam" horiz-adv-x="291" unicode="!" d="M161 115q30 0 45.5 -20.5t15.5 -42.5q0 -27 -17.5 -45.5t-44.5 -18.5q-24 0 -43 16t-19 48q0 31 21.5 47t41.5 16zM162 612q27 0 41 -25.5t13 -57.5q-1 -12 -9 -82t-16 -141.5t-9 -76.5q-1 -12 -6.5 -24t-13.5 -12q-7 0 -13 11.5t-7 28.5q0 6 -15 128t-19 170v8 q0 36 18.5 54.5t35.5 18.5z"/>
<glyph glyph-name="quotedbl" horiz-adv-x="302" unicode='&quot;' d="M250 696q13 0 13 -21q0 -71 -26 -179q-5 -33 -21 -33q-3 0 -5 2.5t-3.5 6t-2.5 7t-2 7.5l-1 3q-5 51 -9.5 88t-7 51.5t-2.5 20.5q0 13 15 21q43 26 52 26zM105 689q8 0 12 -7.5t4 -13.5q0 -39 -27 -177q-10 -30 -22 -30q-10 0 -13 25q-17 144 -17 150q0 14 7 18 q45 35 56 35z"/>
<glyph glyph-name="numbersign" d="M308 381q3 11 -3 10l-100 -3q-6 0 -8 -8l-27 -107q-1 -2 1 -5.5t5 -2.5l98 4q6 0 8 8zM431 396l-76 -3q-3 0 -6 -10l-27 -107q-1 -2 0 -4.5t3 -1.5l81 3q3 0 5 -9t1 -14q-2 -11 -9 -24.5t-14 -13.5l-79 -3q-5 0 -6 -7l-45 -171q-1 -6 -9.5 -10t-17.5 -4q-5 0 -9.5 3 t-2.5 8l43 171q2 9 -4 9l-97 -4q-2 0 -6 -3.5t-4 -4.5l-46 -173q-3 -11 -23 -11q-5 0 -10.5 5t-4.5 8l43 168q3 10 -6 10l-71 -2q-2 0 -4.5 7t-2.5 9q9 43 22 43l73 4q8 0 9 7l27 108q0 8 -4 8l-83 -2l-1 2q0 2 -0.5 5t-0.5 7v8.5t1 8.5q8 27 17 29l81 4q4 0 6 5l40 155 q6 11 30 11q2 0 6 -3.5t4 -5.5l-39 -154q0 -6 3 -6l103 3q4 0 6 8l40 157q3 10 31 10q1 0 3 -1.5t3.5 -4.5t0.5 -8l-39 -151q-2 -9 2 -9l76 1q3 -6 3 -22q0 -11 -5 -24.5t-11 -13.5z" unicode="#"/>
<glyph glyph-name="dollar" d="M266 625l8 67q0 3 5 3q8 0 16.5 -3t8.5 -7l-6 -59q0 -6 4 -6q24 -3 86 -21q8 -2 17 -31q7 -40 7 -57q0 -26 -9 -26q-10 0 -17 18q-23 63 -88 84q-2 1 -4.5 -1.5t-2.5 -5.5l-22 -223q0 -5 4 -9q89 -42 125 -84t36 -100q0 -72 -73 -127q-16 -13 -54 -24t-71 -14q-7 0 -7 -8 l-10 -75q-3 -7 -16 -7h-2q-7 0 -13 6l8 77q0 7 -4 7q-31 3 -56 10q-12 3 -55 16q-15 1 -19 24q-3 11 -9 51t-6 43q0 17 9 17q13 0 37 -43q38 -70 101 -86q6 -1 6 4l25 237q0 7 -3 9q-66 32 -106 74t-41 107q0 59 47 104q49 52 139 54q3 0 5 5zM237 374l23 207q0 8 -5 8 q-49 -2 -80 -31t-31 -79q0 -69 87 -109q6 -2 6 4zM257 258l-23 -224q0 -5 4 -5q51 6 86 35.5t35 76.5q0 40 -22 66.5t-74 55.5q-6 0 -6 -5z" unicode="$"/>
<glyph glyph-name="percent" horiz-adv-x="725" unicode="%" d="M548 12q26 0 41.5 30t19.5 60t4 61q0 30 -5.5 62.5t-25 63t-48.5 30.5q-26 0 -42 -28t-20.5 -57.5t-4.5 -60.5t7 -66t26.5 -65t47.5 -30zM543 346q66 0 102.5 -56t36.5 -118q0 -75 -36.5 -130.5t-107.5 -55.5q-47 0 -79.5 28t-46 66t-13.5 81q0 75 37 130t107 55z M559 643q8 0 15.5 -8t7.5 -11q0 -60 -55.5 -160t-121.5 -186.5t-140.5 -181t-94.5 -125.5q-1 -1 -5 -1q-9 0 -15 3q-13 12 -5 25q63 101 198.5 315t199.5 317q7 13 16 13zM191 298q19 0 33 16t20 41.5t8.5 48t2.5 45.5q0 22 -3.5 45.5t-11 50t-24.5 43.5t-40 17 q-20 0 -34 -15.5t-20.5 -40t-9 -46.5t-2.5 -44q0 -32 6.5 -66t26 -64.5t48.5 -30.5zM185 631q66 0 102.5 -56t36.5 -118q0 -74 -37 -129.5t-107 -55.5q-69 0 -104 53t-35 122q0 76 37 130t107 54z"/>
<glyph glyph-name="ampersand" horiz-adv-x="770" unicode="&amp;" d="M254 584q-19 0 -40 -20t-21 -60q0 -32 23.5 -62.5t55.5 -49.5q7 -4 14 1q10 6 27 26q18 21 18 69q0 32 -19 63.5t-58 32.5zM264 48q37 0 77.5 26.5t67.5 62.5q7 10 -4 23q-34 47 -94.5 105t-82.5 70q-10 7 -22 -2q-86 -65 -86 -149q0 -59 45 -97q44 -39 99 -39zM269 613 q57 -1 94 -40.5t37 -84.5q0 -12 -3 -23t-10 -20.5t-13 -16.5t-18 -15.5t-18 -12.5t-19.5 -12t-17.5 -10q-3 -3 0 -6q30 -19 81 -68t84 -89q6 -9 15 0q37 37 103 138q12 18 12 30q0 13 -43 21q-20 3 -20 13q0 12 25 12q74 0 101 3q66 9 71 9q22 0 22 -10t-22 -16 q-35 -10 -59.5 -28.5t-59.5 -57.5q-15 -17 -61 -72t-59 -70q-5 -7 0 -12l54 -78q36 -52 110 -54q40 0 75 22q5 3 8 1.5t3 -5.5q0 -14 -18 -32q-50 -46 -130 -46h-5q-38 0 -64 10q-25 11 -41 40q-37 68 -47 82q-4 3 -6 1q-66 -78 -116 -108q-48 -27 -95 -27q-73 0 -125.5 51 t-52.5 127q0 80 92 152q40 30 60 42q5 2 1 6q-67 53 -67 115q0 61 47 102q45 37 95 37z"/>
<glyph glyph-name="quotesingle" horiz-adv-x="174" unicode="&apos;" d="M113 693q14 0 14 -24q0 -55 -26 -175q-10 -31 -23 -31q-5 0 -10 9t-6 18q-10 112 -19 151q0 9 7 16q9 9 30.5 22.5t32.5 13.5z"/>
<glyph glyph-name="parenleft" horiz-adv-x="341" unicode="(" d="M129 282q0 -89 8.5 -152t33 -119.5t45 -88.5t68.5 -101q9 -11 2 -20q-13 -11 -22 -11q-13 0 -30 18q-159 178 -159 452q0 146 52.5 269.5t120.5 193.5q18 18 29 18q9 0 16.5 -4.5t7.5 -9.5q0 -8 -10 -18q-73 -66 -117.5 -183t-44.5 -244z"/>
<glyph glyph-name="parenright" horiz-adv-x="341" unicode=")" d="M211 247q0 109 -21 193t-52.5 139.5t-86.5 124.5q-7 11 2 20q11 11 22 11q18 0 34 -19q154 -187 154 -445q0 -145 -52 -266t-120 -192q-19 -19 -29 -19q-15 0 -19 11q0 1 -1 3q0 4 9 16q72 74 116 187t44 236z"/>
<glyph glyph-name="asterisk" horiz-adv-x="327" unicode="*" d="M147 653h1q7 0 13 -14q2 -5 20 -91q2 -5 7 -1q45 30 72 43q24 7 24 -5q0 -7 -11 -18q-19 -22 -65 -53q-4 -4 1 -8q58 -33 77 -49q14 -10 14 -15q0 -14 -25 -8q-34 8 -82 32q-2 1 -3.5 -1t-1.5 -5q1 -29 1 -75q0 -27 -12 -29q-12 0 -19 20q-8 28 -14 82q-2 6 -6 5 q-49 -29 -79 -40q-10 -3 -17 -1.5t-7 6.5q0 12 11 19q15 12 67 48q3 7 -1 9q-43 22 -70 41q-12 8 -12 17q0 15 23 7q6 -2 80 -30q3 0 5 5q-2 54 -2 67q0 20 1 26q2 14 10 16z"/>
<glyph glyph-name="plus" horiz-adv-x="624" unicode="+" d="M283 499q0 5 17 9.5t30 4.5q7 0 11 -4t4 -7l-3 -217q0 -6 6 -6l207 2q2 0 5 -5t3 -9q0 -17 -4.5 -27.5t-9.5 -10.5l-201 -3q-6 0 -6 -9l-2 -216q0 -6 -13 -11t-31 -5q-4 0 -8 3.5t-4 7.5l-1 219q0 11 -6 11l-196 1q-21 0 -21 25q0 10 4.5 19t10.5 9l202 -1q6 0 6 7v213z "/>
<glyph glyph-name="comma" horiz-adv-x="205" unicode="," d="M90 112q30 0 53 -25.5t23 -67.5q0 -58 -44 -91.5t-71 -33.5q-18 0 -18 9q0 8 18 16q59 35 59 73q0 22 -29 32q-38 14 -38 42q0 22 15 34t32 12z"/>
<glyph glyph-name="hyphen" horiz-adv-x="292" unicode="-" d="M52 231q49 7 194 22q2 0 5 -4t3 -7q0 -15 -5 -31t-13 -17q-28 -3 -185 -19h-2q-6 0 -10 4.5t-4 9.5q0 18 6 29.5t11 12.5z"/>
<glyph glyph-name="period" horiz-adv-x="205" unicode="." d="M102 103q29 0 42.5 -19t13.5 -39q0 -24 -16 -41t-40 -17q-21 0 -38 14.5t-17 43.5q0 28 18.5 43t36.5 15z"/>
<glyph glyph-name="slash" horiz-adv-x="403" unicode="/" d="M316 644q8 15 15 15q11 0 24 -5q8 -4 8 -11q0 -1 -1 -3q-48 -124 -140 -353.5t-133 -335.5q-7 -17 -16 -17h-1q-13 0 -21 5q-7 3 -7 12q0 68 33.5 167t74.5 182t92 186t72 158z"/>
<glyph glyph-name="zero" d="M234 601q-33 0 -61 -38q-51 -77 -51 -247q0 -46 7 -94.5t22 -97t42.5 -79t63.5 -30.5q15 0 31 12t23 21t11 15q39 75 39 250q0 110 -24.5 180.5t-50.5 88.5q-28 19 -52 19zM251 631q56 0 97 -32.5t61.5 -84t30 -100.5t9.5 -95q0 -113 -33.5 -193t-80.5 -110 q-44 -28 -88 -28h-4q-53 1 -94.5 32t-64.5 79.5t-34.5 101t-11.5 103.5q0 113 34.5 190t86.5 110q43 27 92 27z" unicode="0"/>
<glyph glyph-name="one" d="M107 5q0 11 33 20q37 8 50.5 20.5t17.5 43.5q7 58 7 290q0 135 -4 155q-3 17 -22 20q-6 1 -16 2.5t-17.5 3t-11.5 2.5q-19 5 -19 14q0 4 6.5 9t13.5 6q85 18 105 29l38 19h2q9 0 9 -10q0 -4 -1.5 -32t-1.5 -60v-23q0 -278 1 -396q0 -52 10 -67t55 -26q26 -6 26 -18 q0 -11 -24 -11q-12 0 -46.5 2t-50.5 2q-34 0 -83.5 -2.5t-51.5 -2.5q-25 0 -25 10z" unicode="1"/>
<glyph glyph-name="two" d="M55 -3q-5 -1 -12.5 2.5t-8.5 8.5q-3 9 13 23q44 40 159 184q103 132 103 223q0 62 -32.5 92.5t-82.5 30.5q-75 0 -123 -62q-16 -21 -21 -21q-2 0 -6.5 5.5t-4.5 8.5q0 15 13 33q69 106 180 106q67 0 113.5 -50t46.5 -119q0 -81 -79 -176q-146 -169 -181 -208 q-2 -2 -1 -4.5t3 -3.5q30 -3 110 -3q96 0 119 4t37.5 11.5t32.5 27.5q15 17 20 17q9 0 9 -12q0 -8 -6 -20q-26 -56 -31 -90q-2 -9 -15 -9q-1 0 -55 1t-116 2t-83 1q-65 0 -101 -3z" unicode="2"/>
<glyph glyph-name="three" d="M239 631q65 0 102 -41t37 -84q0 -47 -35 -85q-27 -29 -59 -50q-5 -7 2 -10q85 -19 121 -63q28 -35 28 -92q0 -61 -39.5 -119t-104.5 -96q-71 -42 -148 -42q-42 0 -71.5 14.5t-29.5 35.5q0 11 8 23q13 19 27 19q8 0 24 -14q41 -36 101 -36q47 0 83 29q33 26 49 64t16 72 q0 70 -36 109q-31 34 -90 34q-39 0 -78 -17q-4 -1 -6.5 1.5t-1.5 6.5q0 14 15 26q14 10 49 28q53 27 74.5 57t21.5 69q0 41 -28.5 70t-68.5 29q-64 0 -110 -56q-14 -18 -21 -18q-9 0 -9 14q0 9 16 32t39 43q53 47 123 47z" unicode="3"/>
<glyph glyph-name="four" d="M377 446v-197q0 -8 5 -8l90 2q6 0 6 -9t-5 -22.5t-11 -16.5l-79 1q-1 0 -3.5 -2.5t-2.5 -4.5v-54v-28q2 -51 10.5 -63.5t42.5 -19.5q22 -5 22 -16q0 -12 -23 -12h-7q-12 0 -42.5 2t-44.5 2q-18 0 -52.5 -2.5t-51.5 -2.5q-26 0 -26 13q0 11 26 16q39 7 48 20t12 49 q1 7 1 10q3 60 3 79q0 12 -5 13q-16 2 -110 2q-124 0 -155 -4q-18 -2 -18 8q0 7 27 44l321 439q10 14 19 14h11q14 0 14 -8q0 -4 -5 -11l-317 -428q-4 -6 2 -8q38 -3 130 -3h53l29 1q5 0 5 7l1 191q0 9 9 15q8 6 29 12t33 6q9 0 9 -26z" unicode="4"/>
<glyph glyph-name="five" d="M423 196q0 -101 -89 -175q-45 -37 -110.5 -57.5t-112.5 -20.5q-20 0 -23 1q-14 1 -14 8q0 3 7 11t13 9q102 9 174.5 60.5t72.5 137.5q0 47 -27 85.5t-74 59.5q-82 35 -161 49q-3 1 -8 10t-5 13q0 20 17.5 78.5t32.5 94.5q15 33 22 34q20 8 106.5 22t133.5 14q1 0 4.5 -4 t3.5 -5q0 -27 -20 -52.5t-31 -26.5q-185 -13 -190 -13q-10 0 -12 -9l-21 -63q-2 -12 7 -14q47 -10 108.5 -33t90.5 -41q51 -30 78 -76t27 -97z" unicode="5"/>
<glyph glyph-name="six" d="M312 365q67 0 104 -45.5t37 -111.5q0 -113 -90 -178q-56 -43 -123 -43q-92 0 -146 64.5t-54 170.5q0 118 71.5 225t171.5 171q107 67 163 67q20 0 20 -11q0 -6 -20 -16q-88 -35 -168 -107q-70 -63 -111.5 -149t-41.5 -174q0 -78 40.5 -140t107.5 -62q32 0 54 16 q51 38 51 122q0 66 -32.5 102t-82.5 36q-29 0 -73 -22q-2 -1 -5.5 1.5t-3.5 6.5q0 10 11 22q20 22 57 37q32 18 63 18z" unicode="6"/>
<glyph glyph-name="seven" d="M234 618h30q71 0 134 3q10 0 23.5 0.5t20.5 1t8 0.5q15 0 17 -6q0 -6 -8 -19q-11 -16 -85.5 -163t-126.5 -257q-96 -200 -100 -211q-6 -14 -14 -14q-10 0 -17.5 6.5t-7.5 13.5t9 23q13 26 119.5 235.5t148.5 301.5q1 1 -1 4t-3 3q-63 7 -211 7q-40 0 -60 -4 q-19 -1 -30.5 -11.5t-31.5 -40.5q-12 -22 -21 -22t-9 13q0 10 11 39q5 12 9 26t6 22.5t3.5 19t2.5 13.5q2 15 10 23q4 2 6 2t8 -2q17 -7 160 -7z" unicode="7"/>
<glyph glyph-name="eight" d="M241 622q-39 0 -68.5 -27.5t-29.5 -76.5q0 -46 29.5 -80t88.5 -75q7 -5 12 -2q31 24 45 46q29 50 29 100q0 15 -9 40t-35 50t-62 25zM248 15q48 0 74 31t26 78q0 34 -20.5 67.5t-42.5 52.5t-59 46q-11 9 -15 5q-31 -21 -55.5 -65t-24.5 -83q0 -45 32 -91q38 -41 85 -41z M251 649q73 0 121.5 -42t48.5 -107q0 -56 -55 -102q-10 -9 -68 -48q-3 -1 -3.5 -4.5t1.5 -4.5q133 -99 133 -186q0 -78 -72 -130q-50 -38 -123 -38q-86 0 -133 46.5t-47 102.5q0 66 70 124q50 41 64 50q2 2 -1 6q-51 36 -80 73q-37 45 -37 100q0 71 54 114q53 46 127 46z " unicode="8"/>
<glyph glyph-name="nine" d="M253 631q92 0 142 -71t50 -165q0 -106 -71.5 -224.5t-174.5 -182.5q-71 -45 -120 -45q-6 0 -12.5 3.5t-6.5 7.5q0 5 14 10q99 49 172 137q49 56 80 135t31 154q0 52 -17.5 103t-51.5 79q-27 22 -68 22q-45 0 -75.5 -39t-30.5 -87q0 -71 34.5 -109t92.5 -38q22 0 59 17 q4 1 7.5 -0.5t3.5 -4.5q0 -7 -5 -17q-4 -9 -18 -21q-20 -17 -49.5 -27.5t-49.5 -10.5q-66 0 -107 46.5t-41 116.5q0 51 25.5 101.5t82.5 82.5q46 27 104 27z" unicode="9"/>
<glyph glyph-name="colon" horiz-adv-x="247" unicode=":" d="M124 102q28 0 41 -18.5t13 -38.5q0 -23 -16 -39.5t-39 -16.5q-21 0 -38 14t-17 43q0 28 19 42t37 14zM124 362q28 0 41 -18.5t13 -38.5q0 -23 -16 -39.5t-39 -16.5q-21 0 -38 14t-17 44q0 28 19 41.5t37 13.5z"/>
<glyph glyph-name="semicolon" horiz-adv-x="247" unicode=";" d="M110 108q30 0 52.5 -24.5t22.5 -66.5q0 -40 -24.5 -70.5t-49 -41.5t-38.5 -11q-17 0 -17 8q0 10 13 17q58 33 58 73q0 19 -22 27q-8 2 -16 6t-17 14t-9 23q0 22 15.5 34t31.5 12zM124 361q28 0 41 -18.5t13 -38.5q0 -23 -16 -39.5t-39 -16.5q-20 0 -37.5 13.5t-17.5 42.5 q0 28 19 42.5t37 14.5z"/>
<glyph glyph-name="less" horiz-adv-x="586" unicode="&lt;" d="M493 80q2 -2 2 -7q0 -22 -18 -39q-2 -2 -7 -2q-7 0 -8 1l-329 183q-42 23 -42 32q0 5 7 15q10 16 31 27l323 181q11 6 13 6q1 0 7 -4q22 -22 22 -36q0 -5 -5 -8l-309 -167l-2 -2t-2 -4.5t3 -4.5z"/>
<glyph glyph-name="equal" horiz-adv-x="624" unicode="=" d="M552 188q3 0 7 -5t4 -11q0 -37 -14 -37l-475 1q-6 0 -10 7.5t-4 14.5q0 11 4.5 21t10.5 10zM553 377q10 0 10 -12q0 -44 -10 -44h-480q-13 0 -13 16q0 11 4.5 23.5t10.5 12.5z"/>
<glyph glyph-name="greater" horiz-adv-x="586" unicode="&gt;" d="M493 257q0 -6 -7 -15q-10 -16 -31 -27l-323 -182q-8 -5 -12 -5q-2 0 -8 4q-21 19 -21 35q0 7 5 9l312 169q2 2 1 4.5t-3 3.5l-315 172q-2 2 -2 6q0 23 19 43q2 2 8 2l6 -1l330 -187q41 -23 41 -31z"/>
<glyph glyph-name="question" horiz-adv-x="357" unicode="?" d="M171 108q30 0 44 -19.5t14 -40.5q0 -25 -17 -43t-42 -18q-23 0 -41 15.5t-18 45.5q0 29 20 44.5t40 15.5zM138 600q38 0 96 -49q18 -14 48.5 -57.5t30.5 -85.5q0 -63 -37 -102q-22 -15 -88 -51q-6 -3 -9.5 -6t-5.5 -8t-2.5 -8t-1 -10t-0.5 -10q-2 -26 -16 -26 q-10 0 -17 28q-13 55 -13 78q0 24 21 39.5t73 38.5q49 21 49 56q0 39 -15 61.5t-63 22.5q-4 0 -21 -2t-26 -2q-14 0 -28 18t-14 39q0 12 11.5 24t27.5 12z"/>
<glyph glyph-name="at" horiz-adv-x="874" unicode="@" d="M496 335q-32 0 -81 -53q-35 -39 -63.5 -90.5t-28.5 -87.5q0 -22 15 -22q28 0 84 50q38 34 72 81.5t50 83.5q2 5 1.5 12t-2.5 9q-15 17 -47 17zM524 383q25 0 40 -17q6 -4 8 1l17 41q2 3 8 6.5t11 2.5q18 0 29 -8q3 -1 4.5 -5.5t0.5 -7.5q-93 -224 -106 -301q-1 -5 -1 -14 q0 -27 37 -27q75 0 140 65t65 165q0 121 -81.5 193t-206.5 72q-113 0 -199.5 -58.5t-129.5 -149.5t-43 -197q0 -55 18 -107.5t54 -97t97.5 -72t140.5 -27.5q135 0 244 97q4 4 10 4t6 -8q0 -16 -13 -31q-46 -52 -121 -79t-149 -27q-68 0 -129 20.5t-112 61.5t-81 110.5 t-30 159.5q0 122 63 223t163.5 156.5t212.5 55.5q158 0 243.5 -87t85.5 -211q0 -106 -84 -188.5t-208 -82.5q-33 0 -50.5 10t-17.5 22q-1 8 8 34l27 79q2 3 -2 5q-3 1 -5 -2q-146 -148 -211 -148q-15 0 -25 13t-10 31q0 63 95 179q45 55 100.5 100.5t86.5 45.5z"/>
<glyph glyph-name="A" horiz-adv-x="676" unicode="A" d="M398 303q1 0 2.5 3t0.5 5q-65 195 -78 215q-4 9 -8 0q-69 -184 -78 -219q-2 -7 5 -7q14 0 48.5 0.5t63.5 1t44 1.5zM353 661q7 0 16 -26q6 -19 44 -124q95 -267 144 -385q23 -58 40.5 -75t53.5 -26q24 -7 24 -17q0 -13 -32 -13q-15 0 -59 2.5t-67 2.5q-17 0 -38 -1 t-33 -1q-31 0 -31 12t24 16q42 8 42 34q0 5 -2 17q-6 33 -56 171q-3 10 -34 10q-136 0 -164 -4q-6 0 -11 -8q-52 -130 -52 -175q0 -28 49 -43q27 -8 27 -18q0 -13 -28 -13q-6 0 -32 1.5t-47 1.5t-60 -2.5t-44 -2.5q-23 0 -23 10q0 13 22 20q41 14 56.5 26.5t35.5 58.5 q12 27 86 217.5t93 237.5q1 3 9 26q3 9 7 17l24 40q11 13 16 13z"/>
<glyph glyph-name="B" horiz-adv-x="589" unicode="B" d="M450 180q0 88 -83 130q-37 19 -106 19q-37 0 -44 -7q-5 -8 -7 -29q-1 -12 -1 -57q0 -104 5 -144q3 -21 16 -33q14 -16 35 -25t33 -9q65 0 108.5 42.5t43.5 112.5zM416 488q0 61 -38.5 96t-107.5 35q-21 0 -43 -8q-9 -5 -12 -16q-6 -48 -6 -222q0 -13 11 -13q37 0 80.5 7 t60.5 18q24 16 39.5 44t15.5 59zM500 495q0 -88 -81 -132q-2 -1 -1 -4t3 -4q123 -55 123 -165q0 -96 -80 -149q-33 -23 -84 -34.5t-95 -11.5q-12 0 -78.5 2t-91.5 2q-12 0 -34 -0.5t-30 -0.5q-29 0 -29 13q0 11 25 16q49 9 60.5 20t14.5 41q8 56 8 328q0 128 -6 158 q-4 19 -14.5 27t-48.5 13q-26 4 -26 16q0 13 27 13h67q15 0 76 3.5t83 3.5q95 0 141 -29q35 -21 53 -55.5t18 -70.5z"/>
<glyph glyph-name="C" horiz-adv-x="717" unicode="C" d="M431 661q50 0 118 -16q14 -2 41.5 -10t34.5 -9q15 0 15 -30q0 -11 3.5 -45t3.5 -46q0 -29 -15 -29q-7 0 -16 26q-14 54 -41 75q-70 52 -160 52q-117 0 -190.5 -83.5t-73.5 -200.5q0 -95 35 -165q39 -80 111.5 -120t141.5 -40q63 0 109 27q54 28 93 97q16 26 21 26 q10 0 10 -23q0 -7 -1 -10q-2 -18 -15 -50t-25 -51q-6 -14 -31 -26q-18 -8 -72 -18t-110 -10q-95 0 -171 36.5t-113 80.5q-84 97 -84 230q0 77 35 142t75 98q113 92 271 92z"/>
<glyph glyph-name="D" horiz-adv-x="755" unicode="D" d="M294 621q-55 0 -69 -8q-9 -6 -10 -13q-4 -24 -4 -190v-145q0 -114 4 -173q3 -35 22 -47q14 -10 39.5 -18t42.5 -8q41 0 95 16.5t92 48.5q103 88 103 250q0 65 -29.5 128.5t-77.5 99.5q-37 27 -94 43t-114 16zM338 652q94 0 165.5 -30t111.5 -67q40 -39 65.5 -100.5 t25.5 -120.5q0 -100 -49 -177.5t-111 -111.5q-97 -56 -238 -56q-90 0 -196 8q-19 1 -53 1q-32 0 -32 15q0 12 22 14q50 6 62.5 25t14.5 81q3 71 3 137q0 120 -5 257q-2 51 -11 66t-53 21q-23 4 -23 16q0 13 24 13h28q20 0 110.5 4.5t138.5 4.5z"/>
<glyph glyph-name="E" horiz-adv-x="563" unicode="E" d="M223 643h147q70 0 92 3q2 1 5 -3t4 -8q0 -26 1 -57t1 -38q0 -26 -15 -26q-11 0 -16 24q-9 37 -24.5 50.5t-42.5 17.5q-32 5 -102 5q-28 0 -40 -1q-2 0 -4.5 -2t-6 -9t-4.5 -17q-4 -38 -4 -194v-15.5t0.5 -12.5t0.5 -6q3 -10 7 -10h65q50 0 69.5 3.5t28 12.5t18.5 34 q8 21 18 21q11 0 8 -22q-3 -42 -3 -72q0 -15 1.5 -34.5t1.5 -30.5q0 -25 -11 -25t-17 22q-11 35 -22 42.5t-57 9.5q-32 2 -99 2q-3 0 -6 -3.5t-3 -5.5q-3 -14 -3 -102v-55q0 -56 10 -83q6 -18 19 -22q40 -7 91 -7q69 0 95 7q52 13 83 74q14 28 23 28t9 -20q0 -1 -0.5 -3.5 t-0.5 -3.5q-1 -8 -16 -54.5t-20 -52.5q-9 -12 -17 -12l-49 2q-48 2 -126 4t-150 2q-28 0 -62 -2.5t-51 -2.5q-30 0 -30 13q0 9 28 16q41 10 55.5 22.5t17.5 50.5q8 112 8 284v118q0 37 -1 51q-2 33 -12.5 46t-43.5 20q-29 7 -29 17q0 14 28 14q21 0 69 -2t84 -2z"/>
<glyph glyph-name="F" horiz-adv-x="527" unicode="F" d="M177 643h130q26 0 64 0.5t66 1.5t30 1h1q4 0 7.5 -3t3.5 -7q0 -3 -0.5 -9t-0.5 -9q0 -13 2 -41t2 -42q0 -9 -4 -16.5t-10 -7.5q-13 0 -22 31q-12 36 -23.5 47.5t-36.5 15.5q-24 4 -89 4q-46 0 -66 -2q-7 -1 -11.5 -5.5t-4.5 -7.5q-4 -48 -4 -221q0 -37 10 -37h78 q54 0 66 1q23 2 33 11t21 35q10 24 19 24t9 -22q0 -6 -2.5 -29.5t-2.5 -33.5q0 -27 1 -49t1 -30q0 -23 -15 -23q-9 0 -15 21q-7 26 -15.5 35t-25.5 13q-28 5 -67 5q-67 0 -88 -3q-5 0 -8 -12v-10q0 -74 4 -178q1 -19 4 -28.5t18 -19t46 -15.5q24 -5 24 -19q0 -12 -28 -12 q-12 0 -43 1.5t-52 1.5q-22 0 -66.5 -3t-52.5 -3q-28 0 -28 10q0 13 27 20q25 6 38.5 16t15.5 16.5t3 16.5q8 83 8 303q0 153 -2 179t-16 40t-47 22q-25 6 -25 17q0 12 28 12q24 0 60.5 -1.5t50.5 -1.5z"/>
<glyph glyph-name="G" horiz-adv-x="724" unicode="G" d="M415 661q65 0 168 -22q33 -7 38 -8q4 0 8 -6.5t4 -17.5q0 -9 7 -49t7 -61q0 -22 -13 -22q-9 0 -18 23q-15 41 -38 70q-19 24 -62 43t-98 19q-124 0 -198 -87t-74 -211q0 -108 45 -182q39 -66 104.5 -102t137.5 -36q15 0 43.5 6t46.5 18q6 4 13.5 23t7.5 29q0 86 -3 104 q-4 14 -9.5 21.5t-25.5 15.5t-55 10q-26 2 -26 17q0 14 30 14q8 0 56 -2t64 -2q11 0 42 2t48 2q27 0 27 -13q0 -9 -23 -17q-14 -4 -22 -10t-9.5 -9.5t-4.5 -11.5q-5 -14 -5 -124q0 -21 14 -29q17 -9 17 -18q0 -10 -15 -14q-5 -2 -37 -10t-54 -14q-65 -18 -138 -18 q-165 0 -266 91q-103 99 -103 246q0 153 113 252q47 42 115 66t141 24z"/>
<glyph glyph-name="H" horiz-adv-x="816" unicode="H" d="M212 367q1 -13 3 -16.5t8 -3.5q15 0 142 1.5t230 1.5q8 0 11 26v8.5t0.5 19.5t0.5 23q0 93 -3 131q-2 28 -11.5 38t-43.5 19q-25 7 -25 19q0 11 31 11q5 0 46.5 -1t55.5 -1q20 0 54 1.5t37 1.5q28 0 28 -11t-29 -18q-30 -7 -40 -20t-12 -37q-8 -82 -8 -329q0 -26 2 -85 t2 -63q1 -28 11 -37t46 -19q23 -8 23 -19t-28 -11q-6 0 -36 1.5t-47 1.5q-11 0 -59 -3t-58 -3q-25 0 -25 11q0 12 22 18q40 12 50 28t12 70q4 84 4 161q0 21 -12 21q-64 0 -180.5 1t-146.5 1q-14 0 -29 -1h-16q-3 0 -7 -5.5t-4 -11.5q-1 -9 -1 -53q0 -28 0.5 -76t0.5 -54 q1 -36 12 -52t42 -26q30 -8 30 -21q0 -9 -29 -9q-2 0 -21 1t-43 2t-40 1q-10 0 -45.5 -2t-53.5 -2q-30 0 -30 10q0 13 23 19q38 10 49 21t14 41q9 123 9 317q0 2 0.5 38t0.5 61q0 40 -1 55q-2 27 -11 39t-39 18q-28 5 -28 19q0 11 29 11q14 0 46 -1t45 -1q23 0 54.5 1 t40.5 1q32 0 32 -11q0 -13 -29 -19q-33 -6 -42 -19t-11 -47q-3 -37 -3 -151v-31z"/>
<glyph glyph-name="I" horiz-adv-x="339" unicode="I" d="M128 326q0 170 -3 219q-1 22 -2.5 30t-7 18.5t-17 14.5t-32.5 8q-28 5 -28 18q0 12 25 12q12 0 52 -1.5t57 -1.5q26 0 58.5 1.5t48.5 1.5q25 0 25 -12t-26 -17q-21 -4 -33 -10t-18 -18t-6.5 -15l-3.5 -21q-6 -40 -6 -294q0 -101 3 -149q2 -44 14.5 -60.5t58.5 -25.5 q26 -4 26 -17t-27 -13q-28 0 -83 3t-66 3q-14 0 -35.5 -1t-40.5 -1q-26 0 -26 14q0 11 30 17q36 8 45.5 21.5t12.5 51.5q5 58 5 224z"/>
<glyph glyph-name="J" horiz-adv-x="330" unicode="J" d="M-73 -167q0 17 23 40q13 13 24 13q14 0 31 -12q33 -21 52 -21q23 0 40 19q24 25 28 83q6 93 6 312q0 222 -6 294q-1 13 -4.5 21.5t-17 18.5t-37.5 14q-31 5 -31 19q0 12 27 12q14 0 50.5 -1.5t60.5 -1.5q18 0 54 1.5t51 1.5q27 0 27 -10q0 -14 -30 -20q-32 -6 -44.5 -21 t-12.5 -52q0 -41 -2 -225t-2 -228q-1 -84 -33 -149.5t-75 -98.5q-63 -48 -114 -48q-25 0 -45 12.5t-20 26.5z"/>
<glyph glyph-name="K" horiz-adv-x="683" unicode="K" d="M43 633q0 13 27 13q11 0 46 -1.5t52 -1.5q16 0 49 1t44 1q27 0 27 -12q0 -10 -29 -17q-27 -5 -37 -16t-11 -39q-2 -21 -2 -131q0 -78 1 -84q2 -7 7 -7q2 0 9 3l6 4q23 17 110.5 102.5t112.5 113.5q17 20 17 31q0 16 -28 23q-23 8 -23 15q0 13 26 13q10 0 19.5 -0.5 t18.5 -0.5q11 0 72 2.5t76 2.5q26 0 26 -12q0 -11 -27 -18q-41 -9 -67.5 -23.5t-77.5 -53.5q-36 -29 -108 -95.5t-81 -80.5q-2 -7 0 -10q20 -25 268 -280q22 -22 41.5 -33.5t29.5 -14t34 -6.5q20 -5 20 -14q0 -15 -25 -15q-14 0 -73 4t-73 4q-20 0 -40 -0.5t-30 -0.5 t-15.5 6t-5.5 12q0 8 43 17q3 1 4.5 4.5t0.5 5.5q-20 26 -95 106t-122 128q-5 5 -10.5 11.5t-9 9.5t-7 7.5t-6 6.5l-5 4t-4 2.5t-3.5 0.5t-5 -21q0 -1 -0.5 -13t-0.5 -22q0 -99 3 -183q1 -20 14 -32t46 -21q23 -5 23 -18t-26 -13q-10 0 -58 1.5t-65 1.5q-16 0 -48.5 -1.5 t-48.5 -1.5q-9 0 -16.5 4t-7.5 9q0 10 29 17q39 8 54 24t17 59q3 102 3 236q0 142 -4 214q-1 26 -12.5 37t-42.5 19q-26 7 -26 17z"/>
<glyph glyph-name="L" horiz-adv-x="562" unicode="L" d="M46 633q0 12 30 12q13 0 36 -1t38 -1q21 0 71 1.5t60 1.5q25 0 25 -11t-23 -17q-40 -9 -52.5 -17.5t-14.5 -21.5q-6 -45 -6 -294q0 -149 7 -207q1 -10 14 -23.5t20 -14.5q33 -5 96 -5q49 0 71 3t40 19q32 32 57 67q13 22 25 22q6 0 6 -13q0 -4 -2 -14q-23 -71 -31 -108 q-1 -7 -10 -12t-14 -5q-2 0 -16 0.5t-39 1.5t-58.5 2t-84.5 1.5t-108 0.5q-41 0 -85 -2l-44 -3q-29 0 -29 11q0 14 24 18q40 8 55 23t19 46q5 63 5 329q0 109 -1 142q-1 20 -11 32t-42 18q-28 6 -28 19z"/>
<glyph glyph-name="M" horiz-adv-x="889" unicode="M" d="M47 635q0 7 5.5 8.5t23.5 1.5q33 0 69.5 -1t64.5 -1q2 0 6 -5t5 -8q10 -31 38 -91q166 -350 186 -377q6 -9 10 -3q196 371 212 412q0 1 4.5 11.5t10 24t8.5 22.5q1 4 5 9t6 5q21 0 73 1.5t53 1.5q26 0 26 -11q0 -12 -26 -16q-24 -4 -45 -13q-31 -12 -31 -77 q0 -302 14 -433q4 -33 16.5 -45.5t48.5 -23.5q27 -6 27 -19t-29 -13q-2 0 -52.5 2.5t-72.5 2.5q-9 0 -36 -1.5t-40 -1.5q-27 0 -27 14q0 11 26 18q20 6 29.5 17t12 21.5t4.5 33.5q2 18 2 141q0 198 -3 245q0 6 -2.5 8t-7.5 -5q-9 -16 -72 -140t-90 -181q-42 -91 -62 -143 q-10 -28 -22 -28h-1q-10 0 -15 19q-12 43 -37 106q-31 76 -96 212t-77 163q-6 13 -7 -3q-5 -28 -11 -147t-6 -201q0 -7 0.5 -20t0.5 -18q2 -39 12.5 -54t48.5 -27q27 -7 27 -19t-27 -12q-17 0 -52.5 1.5t-47.5 1.5t-39.5 -1.5t-40.5 -1.5q-26 0 -26 14q0 9 20 14 q44 13 57 29.5t19 62.5q7 50 19.5 212t14.5 220q0 45 -45 58q-33 10 -43 12q-16 5 -16 16z"/>
<glyph glyph-name="N" horiz-adv-x="771" unicode="N" d="M15 634q0 12 33 12q7 0 50 -1.5t72 -1.5q8 0 21 -13q40 -48 79 -99q47 -59 332 -370q4 -4 7 -0.5t3 7.5q3 23 3 87q0 22 -0.5 88t-0.5 109q0 48 -5 100q-1 20 -13.5 35t-49.5 26q-27 8 -27 22q0 9 26 9q12 0 40.5 -0.5t45.5 -0.5q19 0 50.5 2t43.5 2q23 0 23 -11 q0 -13 -24 -20q-35 -8 -48.5 -21.5t-15.5 -51.5q-11 -198 -11 -405q0 -24 3.5 -76t3.5 -57q0 -21 -14 -21q-10 0 -23.5 10.5t-21.5 21.5q-7 8 -27 35t-35 45q-45 54 -177.5 206.5t-179.5 208.5q-3 4 -7 3t-4 -5q0 -7 -1.5 -26.5t-2.5 -45.5t-1 -61t-1 -118.5t-1 -113.5 q0 -12 0.5 -26t0.5 -17q3 -35 15 -50t48 -25q25 -6 25 -18q0 -13 -32 -13q-14 0 -51 2.5t-56 2.5q-12 0 -34.5 -1t-30.5 -1q-26 0 -26 11t20 17q29 10 39.5 15.5t19.5 24t11 54.5q19 308 19 404q0 38 -7 48q-18 22 -31.5 29t-43.5 15q-6 1 -9 2q-22 6 -22 16z"/>
<glyph glyph-name="O" horiz-adv-x="781" unicode="O" d="M363 628q-33 0 -73 -16t-65 -41q-78 -76 -78 -235q0 -119 78 -219.5t192 -100.5q88 0 132 48q35 31 60 92.5t25 143.5q0 81 -32.5 155t-88.5 119q-30 24 -72.5 39t-77.5 15zM385 661q145 0 246 -95t101 -236q0 -98 -40.5 -172t-101.5 -118q-83 -58 -197 -58 q-76 0 -145 30.5t-115 83.5q-83 92 -83 226q0 165 130 269q37 30 95 50t110 20z"/>
<glyph glyph-name="P" horiz-adv-x="545" unicode="P" d="M417 452q0 69 -47 119.5t-116 50.5q-15 0 -29 -9q-9 -6 -10 -39q0 -9 -0.5 -47t-1 -103.5t-0.5 -109.5q0 -54 1 -124.5t1 -74.5q1 -48 11 -62.5t49 -25.5q27 -7 27 -19t-33 -12q-10 0 -45.5 2t-59.5 2q-14 0 -49.5 -2t-51.5 -2q-28 0 -28 14q0 10 20 16q40 9 54 24.5 t16 48.5q5 82 5 181q0 181 -3 277q0 17 -1 23.5t-6 15.5t-16.5 12.5t-32.5 6.5q-31 5 -31 15q0 12 23 14h10h23q19 0 80 4t87 4q125 0 187 -59q58 -56 58 -136q0 -95 -70 -155q-52 -44 -115 -44q-34 0 -53 7q-17 7 -17 16t12 9h25q47 0 87 41.5t40 120.5z"/>
<glyph glyph-name="Q" horiz-adv-x="780" unicode="Q" d="M361 626q-64 0 -113 -39q-101 -80 -101 -260q0 -118 77 -212q30 -39 87 -68t92 -29q73 0 125 34q48 34 77.5 104.5t29.5 138.5q0 78 -27.5 147t-77.5 115q-31 31 -78.5 50t-90.5 19zM396 661q137 0 236 -96t99 -235q0 -152 -105 -250q-26 -24 -67.5 -49t-75.5 -36 q-8 -3 -2 -10q29 -37 124 -97q102 -64 175 -64q16 0 69 10q13 2 13 -7q0 -11 -15 -22q-43 -34 -105 -34q-105 0 -220 75q-47 28 -144 103q-53 41 -113 60q-96 31 -155.5 117.5t-59.5 191.5q0 91 37.5 162t98.5 115q93 66 210 66z"/>
<glyph glyph-name="R" horiz-adv-x="631" unicode="R" d="M417 479q0 20 -12.5 50t-32.5 50q-18 17 -46 27.5t-53 10.5q-33 0 -48 -7q-3 -1 -7.5 -9.5t-4.5 -11.5q-4 -50 -4 -193q0 -47 1 -52q4 -15 16 -15q39 0 75.5 9t49.5 17q25 16 45.5 48.5t20.5 75.5zM506 481q0 -41 -22 -79.5t-59 -60.5q-1 -1 -14 -7.5t-17 -9.5 q-2 -2 -3.5 -7t-0.5 -8q10 -23 62 -102t93 -125q40 -47 98 -59q6 -1 11 -6t5 -8q0 -6 -14 -13q-17 -7 -55 -7q-35 0 -73 18.5t-60 46.5q-51 70 -126 188q-28 42 -40 50q-3 3 -26.5 8t-44.5 5q-5 0 -8.5 -4.5t-3.5 -7.5v-18q0 -88 4 -184q2 -32 13.5 -45.5t46.5 -21.5 q24 -7 24 -17q0 -13 -24 -13q-18 0 -55 3t-74 3q-10 0 -43 -2t-38 -2q-26 0 -26 14q0 7 22 15q26 8 36.5 13t19 15.5t9.5 29.5q6 93 6 197q0 226 -6 284q-3 26 -12.5 33.5t-45.5 16.5q-24 6 -24 17q0 12 27 12h56q16 0 74.5 2.5t87.5 2.5q112 0 163 -42q25 -21 41 -55 t16 -70z"/>
<glyph glyph-name="S" horiz-adv-x="473" unicode="S" d="M274 661q22 0 46 -3.5t47.5 -9t25.5 -5.5q4 -1 8 -9t4 -10q1 -8 3.5 -27.5t4.5 -35.5t2 -18q0 -27 -7 -27q-18 0 -24 21q-8 24 -23.5 45t-25.5 27q-30 23 -71 23q-50 0 -82.5 -33.5t-32.5 -83.5q0 -21 7.5 -39.5t14.5 -30t31.5 -31t35.5 -27t50 -33.5q68 -46 103 -89 t35 -105q0 -39 -21.5 -77.5t-60.5 -63.5q-24 -16 -63 -26t-73 -10q-26 0 -67.5 7.5t-63.5 18.5q-7 4 -15 16t-8 16q-2 13 -6 34.5t-6.5 37t-2.5 22.5q0 3 5.5 11t8.5 8q11 0 37 -57q18 -38 57.5 -59t72.5 -21q52 0 86.5 34t34.5 87q0 36 -26 72t-99 82q-71 46 -108 92 t-37 106q0 73 55 122q54 49 148 49z"/>
<glyph glyph-name="T" horiz-adv-x="667" unicode="T" d="M341 643q147 0 229 2q46 3 68 18q10 6 14 6q6 0 6 -11q0 -7 -2 -12q-14 -42 -22 -115q-1 -7 -6 -13t-11 -6q-10 0 -14 32q-4 38 -18.5 48t-62.5 12q-1 0 -17.5 0.5t-29.5 0.5q-81 0 -93 -3q-3 -1 -6 -6t-3 -7v-245q0 -211 4 -248q4 -36 15.5 -48.5t56.5 -22.5 q27 -6 27 -18t-28 -12q-2 0 -22 1.5t-46.5 2.5t-45.5 1q-30 0 -71 -3.5t-43 -3.5q-30 0 -30 12q0 5 6 10t13 7q50 11 61.5 29.5t13.5 78.5q7 206 7 340v119q0 13 -8 13q-33 5 -124 5q-54 0 -74 -23q-10 -8 -33 -52q-4 -10 -8 -14.5t-6 -5t-5 -0.5q-10 0 -10 23q0 5 9.5 52 t9.5 81q0 5 5.5 10.5t9.5 5.5q2 0 3.5 -2l4.5 -6t8 -8q18 -18 34 -19q52 -6 234 -6z"/>
<glyph glyph-name="U" horiz-adv-x="762" unicode="U" d="M37 634q0 12 29 12q22 0 53.5 -1.5t49.5 -1.5q20 0 54 1t43 1q31 0 31 -11q0 -13 -30 -19q-29 -6 -43 -17.5t-18 -39.5q-4 -24 -4 -167v-112q0 -77 14.5 -118.5t41.5 -72.5q21 -23 63.5 -39t81.5 -16q60 0 115 33t72 107q22 97 22 251q0 81 -4 129q-2 30 -14 43t-52 22 q-8 2 -14.5 7.5t-6.5 10.5q0 10 23 10q12 0 40 -1.5t45 -1.5q22 0 50 1t40 1q25 0 25 -11q0 -10 -22 -18q-34 -10 -49 -28.5t-16 -63.5q-1 -24 -4.5 -106t-4.5 -100q-7 -236 -125 -302q-57 -32 -144 -32q-60 0 -109 19t-72 40q-43 41 -61.5 106t-18.5 188q0 185 -4 237 q-3 32 -54 43q-23 6 -23 17z"/>
<glyph glyph-name="V" horiz-adv-x="656" unicode="V" d="M-1 635q0 13 30 13q6 0 41.5 -2.5t63.5 -2.5q19 0 54 1t45 1q24 0 24 -12q0 -14 -24 -18q-49 -10 -49 -36q0 -4 2 -12q13 -39 73.5 -196t87.5 -222q7 -7 10 -1q3 9 33.5 80.5t70.5 167t58 138.5q9 21 9 35q0 18 -13 27.5t-42 18.5q-22 6 -22 18t29 12q10 0 36 -1t44 -1 q16 0 48 2t42 2q29 0 29 -13q0 -11 -26 -17q-32 -8 -51.5 -26.5t-35.5 -52.5q-12 -27 -38 -80.5t-46 -99.5t-48 -114q-79 -191 -94 -242q-8 -22 -21 -22q-5 0 -10 5t-6 13q-14 67 -52 163q-85 227 -144 369q-15 39 -34 59t-51 29q-23 8 -23 17z"/>
<glyph glyph-name="W" horiz-adv-x="987" unicode="W" d="M-2 635q0 11 26 11q22 0 54.5 -1.5t52.5 -1.5q13 0 47 1.5t37 1.5q25 0 25 -12q0 -11 -27 -19q-33 -9 -33 -28q0 -8 2 -12q96 -236 196 -450q1 -2 3.5 -2.5t4.5 1.5q26 42 86 177q3 7 -1 14q-53 126 -96 220q-22 46 -33.5 59t-40.5 21q-25 7 -25 18t29 11q4 0 34 -0.5 t48 -0.5q27 0 61 1l34 2q25 0 25 -11q0 -15 -24 -19q-39 -7 -39 -22q0 -8 8 -26q13 -33 72 -164q2 -6 8 0q31 62 63 137q12 27 12 42t-10 22t-33 13q-8 2 -14.5 7t-6.5 8q0 12 29 12q7 0 29.5 -1t40.5 -1q17 0 46 1t36 1q22 0 22 -10q0 -12 -28 -19q-27 -7 -42 -20.5 t-36 -51.5q-33 -56 -95 -178q-3 -10 3 -17q65 -154 100 -218q4 -12 11 0q58 124 183 408q10 23 10 39q0 28 -42 39q-23 7 -23 16q0 12 26 12q12 0 35.5 -1t32.5 -1q15 0 47 1.5t48 1.5q26 0 26 -11q0 -12 -25 -18q-30 -6 -48 -21.5t-38 -54.5q-1 -1 -18 -34.5l-34 -67 t-43 -88.5t-49 -106q-72 -165 -101 -236q-10 -25 -23 -25q-12 0 -18 21q-7 25 -24 66.5t-45 103t-38 85.5q-5 7 -8 2q-97 -203 -116 -259q-3 -8 -10.5 -15.5t-12.5 -7.5q-10 0 -18 19q-29 81 -62 159q-109 266 -167 378q-4 7 -11 21.5t-10 19t-9.5 13.5t-12 12.5t-15 7.5 t-22.5 7q-26 4 -26 18z"/>
<glyph glyph-name="X" horiz-adv-x="694" unicode="X" d="M23 636q0 12 29 12q8 0 55 -2.5t66 -2.5q21 0 47 1t39 1q24 0 24 -11t-23 -17q-24 -6 -24 -22q0 -9 5 -16q24 -42 69 -113t57 -83q2 -2 5.5 -3t4.5 1q26 29 74.5 95t61.5 90q6 12 6 19q0 20 -45 30q-25 5 -25 17q0 13 29 13q15 0 45.5 -1t43.5 -1q12 0 53 1.5t52 1.5 q9 0 16.5 -3.5t6.5 -7.5q0 -12 -22 -18q-40 -8 -67.5 -24t-55.5 -50q-116 -136 -155 -190q-2 -5 0 -12q4 -11 65 -102t85 -125q33 -44 53 -60.5t67 -28.5q24 -6 24 -19q0 -12 -30 -12q-15 0 -60.5 3t-79.5 3q-16 0 -47.5 -2t-35.5 -2q-25 0 -25 13q0 11 22 17q31 8 38 13 q11 8 5 18q-23 38 -76 120t-61 90q-7 7 -10 3q-63 -77 -110 -146q-29 -45 -29 -64q0 -20 37 -33q24 -8 24 -17q0 -13 -25 -13q-12 0 -49 1.5t-54 1.5q-23 0 -59 -2.5t-45 -2.5q-26 0 -26 11q0 16 38 23q33 6 65 25.5t52 41.5q80 88 159 197q6 9 3 14q-6 16 -65 107.5 t-96 142.5q-34 47 -99 61q-27 6 -27 18z"/>
<glyph glyph-name="Y" horiz-adv-x="622" unicode="Y" d="M3 638q0 10 27 10q4 0 45 -2.5t69 -2.5q12 0 33 1t43 1t22 -10q0 -14 -22 -20q-26 -5 -26 -18q0 -6 11 -28q22 -42 131 -219q1 -2 5 -1.5t5 3.5q26 38 129 206q10 17 10 29q0 19 -39 28q-21 6 -21 20q0 9 23 9q13 0 33.5 -0.5t31.5 -0.5q21 0 63.5 2t47.5 2q21 0 21 -10 t-26 -18q-58 -15 -109 -78q-28 -35 -78.5 -113t-54.5 -83q-25 -36 -25 -61q0 -164 6 -212q3 -17 17 -27t54 -20q27 -7 27 -18t-30 -11q-6 0 -40 2t-47 2q-36 0 -87 -3t-53 -3q-25 0 -25 11q0 13 28 18q63 14 65 48q3 41 3 207q0 12 -9 36q-28 60 -127 210q-36 54 -53.5 70.5 t-49.5 23.5q-28 6 -28 20z"/>
<glyph glyph-name="Z" horiz-adv-x="620" unicode="Z" d="M313 643q187 0 220 3q17 1 17 -5q0 -10 -11 -25q-10 -10 -89 -122q-45 -67 -107.5 -164t-116 -180.5t-57.5 -89.5q-5 -7 4 -13q18 -11 149 -11q109 0 127 3q38 5 59 20t65 76q2 3 6 8.5t6 7.5t4.5 5t4.5 4t5 1q9 0 9 -22q0 -17 -50 -127q-9 -17 -58 -17q-44 0 -190.5 2 t-165.5 2h-95q-6 0 -11.5 4t-5.5 10q0 4 5 11.5t18 24.5t20 27q27 35 173 256.5t164 255.5q7 11 -4 14q-47 5 -181 5q-50 0 -73 -5q-56 -13 -90 -76q-11 -22 -22 -22q-9 0 -9 16q0 6 3 18q1 2 9 24t17.5 49t13.5 46q2 12 13 12q8 0 16 -8q12 -13 50 -16q54 -2 158 -2z"/>
<glyph glyph-name="bracketleft" horiz-adv-x="342" unicode="[" d="M140 719h129q24 0 24 -14q0 -6 -8 -11.5t-17 -6.5q-7 0 -46.5 -3.5t-44.5 -3.5q-6 0 -10.5 -8t-5.5 -17q-4 -75 -4 -337q0 -33 7 -416q1 -48 18 -50q69 -8 95 -8q7 0 16.5 -5t9.5 -12q0 -14 -29 -14q-4 0 -37 -1t-49 -1q-17 0 -39 -0.5t-23 -0.5q-10 0 -13 7t-3 28v608 v127t-0.5 81t-0.5 27q0 23 7 28q3 3 24 3z"/>
<glyph glyph-name="backslash" horiz-adv-x="363" unicode="\" d="M327 -51q0 -11 -9 -13q-12 -3 -18 -3h-3q-10 0 -13 12q-168 467 -246 695v3q0 9 6 11q17 5 27 5q7 0 13 -12q20 -57 65.5 -160.5t82 -186t66 -181.5t29.5 -170z"/>
<glyph glyph-name="bracketright" horiz-adv-x="342" unicode="]" d="M203 -189q-35 0 -75.5 -0.5t-43.5 -0.5q-14 0 -24 5t-10 10q0 6 9 12t24 7q6 1 39 3.5t43 3.5q14 2 15 21q4 76 4 341q0 27 -7 414q0 50 -17 51q-20 2 -50.5 5.5t-38.5 4.5q-29 4 -29 16q0 7 9.5 11.5t22.5 4.5q1 0 32 -0.5t48 -0.5t40.5 0.5t24.5 0.5q14 0 14 -35v-609 q0 -71 0.5 -128t0.5 -85.5v-29.5q0 -14 -5 -19q-3 -3 -26 -3z"/>
<glyph glyph-name="asciicircum" horiz-adv-x="469" unicode="^" d="M236 642q6 0 16 -12.5t17 -25.5l149 -291q5 -10 5 -14t-4 -8q-16 -18 -35 -18q-6 0 -9 5l-134 275q-7 10 -11 1l-138 -279q-2 -2 -7 -2q-19 0 -35 17q-4 4 -4 8t4 12l150 291q20 41 36 41z"/>
<glyph glyph-name="underscore" horiz-adv-x="495" unicode="_" d="M0 -124h495v-49h-495v49z"/>
<glyph glyph-name="grave" horiz-adv-x="400" unicode="`" d="M137 655q11 0 26 -35q34 -70 60 -149q2 -8 2 -14q0 -11 -6 -11q-12 0 -23 16q-54 70 -94 140q-8 15 -8 22q0 15 16 22q18 9 27 9z"/>
<glyph glyph-name="a" horiz-adv-x="397" unicode="a" d="M178 42q22 0 54 17q4 3 8 12.5t4 12.5q2 24 2 78q0 8 -8 8q-41 0 -103 -30q-20 -14 -20 -38q0 -29 21 -44.5t42 -15.5zM208 404q58 0 90 -47q20 -28 20 -83q0 -23 -2 -98.5t-2 -77.5q0 -21 9 -33t16.5 -14.5t14.5 -2.5q17 0 38 15q3 2 6 -3q3 -3 3 -10q0 -16 -29.5 -39 t-60.5 -23q-48 0 -64 50q0 1 -2.5 3t-3.5 1q-47 -33 -90 -46q-17 -6 -40 -6q-27 0 -48 28t-21 65q0 27 19 51q8 10 40 25q9 3 59.5 18t57.5 17q29 9 29 18q2 18 2 82q0 22 -22 44.5t-56 22.5q-26 0 -41 -11q-8 -3 -8 -29q0 -2 0.5 -6t0.5 -6q0 -5 -6 -11q-7 -6 -34 -19.5 t-31 -13.5t-8 4.5t-4 8.5q0 39 75 88q21 15 49.5 26.5t43.5 11.5z"/>
<glyph glyph-name="b" d="M371 188q0 30 -12.5 66.5t-36.5 62.5q-43 43 -109 43q-40 0 -60 -15q-6 -4 -8 -15q-2 -18 -2 -58q0 -74 8 -160q1 -31 20 -50q19 -20 47.5 -31t45.5 -11q24 0 61 34q20 19 33 59t13 75zM454 209q0 -109 -87 -176q-54 -45 -136 -45q-25 0 -67 7t-60 13q-8 4 -21 -3 q-6 -3 -12 -3t-6 13q6 94 6 332q0 222 -5 257q-3 16 -25 34q-20 15 -20 19q0 1 5 7t7 7q75 27 82 31q19 12 25 12q3 0 7 -5t4 -8q-9 -198 -9 -241q0 -75 2 -86q0 -1 2.5 -3t3.5 -1q51 34 114 34q74 0 124 -44q66 -56 66 -151z" unicode="b"/>
<glyph glyph-name="c" horiz-adv-x="392" unicode="c" d="M260 401q64 0 93 -23q15 -10 15 -30q0 -11 -14.5 -25.5t-18.5 -14.5q-11 0 -39 19q-3 2 -10.5 7.5t-9.5 7t-8.5 6t-9 6t-8 4t-9 3.5t-8.5 2.5t-10 2t-11 0.5q-13 0 -32 -10t-30 -24q-42 -47 -42 -115q0 -61 26 -100q19 -31 53 -49t73 -18q46 0 89 30q5 4 9.5 4.5t7 -0.5 t2.5 -4q0 -16 -13 -29q-26 -29 -65 -45.5t-79 -16.5q-46 0 -84.5 21.5t-63.5 58.5q-31 51 -31 117q0 108 97 173q27 19 67 30.5t64 11.5z"/>
<glyph glyph-name="d" horiz-adv-x="499" unicode="d" d="M233 371q-43 0 -78 -35q-16 -16 -29 -51.5t-13 -74.5q0 -64 40.5 -118t101.5 -54q40 0 73 24q1 1 4.5 10.5t7.5 25.5t4 30v46q0 68 -3 120q-2 18 -22 38q-39 39 -86 39zM270 404q40 0 64 -4q3 -1 5 2.5t3 8.5q3 15 3 73q0 101 -4 131q-4 18 -47 41q-10 6 -10 9t6.5 9.5 t10.5 7.5q44 6 102 28q9 3 13 3q3 0 6 -5t2 -11q-9 -95 -9 -395q0 -85 0.5 -137t1 -70t0.5 -21q2 -41 16 -41q6 0 28.5 4t25.5 4q6 0 6 -6q0 -5 -6.5 -14.5t-10.5 -10.5q-62 -10 -90 -20q-29 -10 -36 -10q-3 0 -7 4.5t-4 8.5t1 18.5t1 22.5q0 6 -6 6q-56 -50 -130 -50 q-73 0 -125 55q-48 54 -48 137q0 121 106 184q62 38 132 38z"/>
<glyph glyph-name="e" horiz-adv-x="392" unicode="e" d="M219 377q-34 0 -60.5 -19.5t-40.5 -54.5q-1 -3 0.5 -7t3.5 -4q5 0 24 -0.5t32 -0.5q11 0 35.5 0.5t37.5 0.5q19 0 26.5 5t7.5 20q0 22 -20 41t-46 19zM229 403q61 0 99 -38q35 -33 35 -84q0 -5 -5.5 -11t-13.5 -6q-182 0 -228 1q-5 0 -8 -8q-5 -13 -5 -35q0 -64 38 -114 q17 -24 47.5 -39.5t64.5 -15.5q67 0 91 36q8 12 13 12q8 0 8 -12t-7 -24q-51 -75 -145 -75q-81 0 -130.5 55.5t-49.5 143.5q0 62 31.5 116t88.5 80q39 18 76 18z"/>
<glyph glyph-name="f" horiz-adv-x="294" unicode="f" d="M174 390h55.5h45.5l17 1q5 0 9.5 -13t4.5 -29q0 -2 -5.5 -6t-9.5 -4q-3 0 -57 1.5t-60 1.5q-1 0 -4 -3t-3 -5l-1 -14v-27q0 -189 4 -215q3 -27 14.5 -36.5t52.5 -16.5q23 -4 23 -15q0 -12 -26 -12q-4 0 -36.5 1t-46.5 1q-21 0 -59.5 -2.5t-40.5 -2.5q-25 0 -25 11 q0 8 21 16q31 9 37.5 20t7.5 47q2 82 2 215q0 37 -10 37q-31 0 -42 -2q-4 0 -7.5 6t-1.5 11q0 2 7 6t19.5 11.5t22.5 15.5q13 11 13 17q3 97 25 149q32 76 90 118q55 41 114 41q41 0 64 -19q17 -14 17 -34q0 -11 -8.5 -24.5t-18.5 -17.5q-7 -3 -18 -3q-7 0 -27 20 q-35 31 -70 31q-37 0 -62 -41q-18 -32 -25.5 -81t-7.5 -146q0 -9 6 -9z"/>
<glyph glyph-name="g" horiz-adv-x="416" unicode="g" d="M197 384q-13 0 -28 -8t-22 -17q-26 -28 -26 -89q0 -43 27 -84t72 -41q11 0 33 14q18 11 28 42t10 64q0 42 -22 75q-30 44 -72 44zM229 -235q46 0 79 18q55 36 55 93q0 33 -14 52q-18 24 -53 31q-27 5 -101 5q-39 0 -54 -10q-22 -15 -33.5 -38.5t-11.5 -43.5q0 -46 35 -76 q40 -31 98 -31zM205 408q37 0 87 -12l28 -6q2 0 52.5 -2.5t63.5 -5.5q9 -2 9 -11q0 -10 -7 -21t-11 -11q-42 0 -67 2q-3 0 -5 -3t-1 -5q8 -24 8 -50q0 -83 -56 -126q-49 -38 -109 -38q-3 0 -17 0.5t-18 0.5q-10 2 -15 -1q-8 -4 -20 -16t-12 -18q0 -17 15 -30.5t26 -14.5 q13 -1 56.5 -2t78.5 -2.5t49 -3.5q20 -3 48 -24q42 -36 42 -88q0 -93 -94 -154q-66 -43 -144 -43q-75 0 -125 37q-21 16 -33.5 40.5t-12.5 46.5q0 20 6.5 35t10 18t12.5 10q14 12 39 31t30 23q3 3 -3 7l-16 7q-15 7 -23 13q-34 24 -34 74q0 4 5 9q5 4 35 23.5t39 28.5 q2 2 -4 9q-76 43 -76 127q0 69 61 114q43 32 102 32z"/>
<glyph glyph-name="h" horiz-adv-x="513" unicode="h" d="M290 404q73 0 106 -46q29 -39 29 -108l4 -185q0 -18 9 -26t30 -13q28 -6 28 -16q0 -13 -27 -13q-17 0 -39.5 1.5t-39.5 1.5q-11 0 -34 -1t-38 -1q-20 0 -20 12q0 9 21 14q19 6 24 13.5t8 35.5q1 6 1 42q0 23 -0.5 62t-0.5 41q0 81 -16 100q-28 33 -81 33q-19 0 -38.5 -5 t-29 -10t-12.5 -8q-15 -15 -16 -49q-3 -40 -3 -140q0 -17 0.5 -40t0.5 -28q1 -23 10 -31.5t29 -13.5q22 -6 22 -16q0 -12 -25 -12q-2 0 -35 1t-47 1q-12 0 -40 -1.5t-36 -1.5q-23 0 -23 13q0 9 29 17q20 7 28.5 18.5t10.5 38.5q10 140 10 278v73q0 146 -3 165q-2 19 -7 25.5 t-26 20.5q-10 5 -10 20q0 4 3 5q84 24 100 35q14 7 19 7q6 0 6 -11q-6 -46 -10 -172.5t-4 -177.5q0 -3 1.5 -4.5t3 -1.5h2.5q64 58 126 58z"/>
<glyph glyph-name="i" horiz-adv-x="253" unicode="i" d="M136 607q19 0 31.5 -16.5t12.5 -32.5q0 -19 -16 -34t-32 -15q-18 0 -32 12q-15 17 -15 37t12 36q14 13 39 13zM138 0q-18 0 -48 -2t-37 -2q-26 0 -26 11q0 9 24 16q36 9 40 28t4 103v85q0 65 -1 71q-1 7 -41 36q-8 5 -8 11q0 13 20 17q22 5 59 19t40 15q3 0 6 -5t3 -6 q0 -3 -1.5 -41t-3 -85t-1.5 -72q0 -63 2 -133q0 -8 2.5 -14t4.5 -9.5t8.5 -7t8.5 -4.5t12 -3.5t12 -3.5q22 -7 22 -17t-23 -10q-2 0 -34 1.5t-44 1.5z"/>
<glyph glyph-name="j" horiz-adv-x="235" unicode="j" d="M119 615q27 0 40 -17.5t13 -32.5q0 -24 -16 -37t-33 -13q-14 0 -30.5 15t-17.5 34q0 24 19 41q10 10 25 10zM33 354q0 9 17 15q71 21 94 33q9 5 17 5q1 0 4 -4.5t3 -6.5q-1 -32 -3 -192t-2 -170q-3 -116 -44 -185q-36 -62 -94 -103q-24 -18 -34 -18q-16 0 -22 5 q-1 1 -1 4q0 5 2 7q48 30 64 50q54 68 54 250q0 236 -4 265q-2 14 -41 35q-10 5 -10 10z"/>
<glyph glyph-name="k" horiz-adv-x="479" unicode="k" d="M262 390h47q37 0 79.5 6t55.5 6q7 0 7 -7q0 -8 -7.5 -14.5t-12.5 -7.5q-39 -9 -59.5 -18.5t-56.5 -34.5q-20 -15 -48.5 -42.5t-32.5 -33.5q-3 -6 -1 -10q24 -29 79.5 -90t81.5 -87q29 -27 68 -36q24 -6 24 -16q0 -12 -25 -12q-8 0 -51.5 3t-73.5 3h-45q-25 0 -25 13 q0 9 22 14q19 4 19 14q0 6 -6 14q-4 6 -21.5 25t-44 48t-47.5 54q-19 23 -25 23q-5 0 -5 -8q-4 -12 -4 -59q0 -53 5 -80q2 -15 9.5 -21.5t27.5 -11.5q22 -6 22 -15q0 -11 -24 -11q-12 0 -41 1t-42 1q-19 0 -47 -2t-37 -2q-23 0 -23 11q0 8 23 15q29 7 38.5 15.5t13.5 28.5 q7 33 7 343q0 159 -6 211q0 8 -30 26q-13 10 -13 14q0 8 13 13q1 0 14 3.5t23.5 7t25.5 9t24 11.5q15 9 20 9q2 0 5 -5t2 -8q-9 -43 -9 -368q0 -92 3 -101t8 -9t20 13q89 84 106 108q2 2 2 5q0 11 -40 17q-9 1 -9 7q0 4 6 11t11 7z"/>
<glyph glyph-name="l" horiz-adv-x="244" unicode="l" d="M41 660q0 10 14 14q13 5 31 10.5t28 9t22 8.5t22 11h1q2 0 5 -3.5t3 -6.5q-9 -75 -9 -272v-203q0 -146 3 -161q3 -17 12 -26.5t39 -17.5q23 -6 23 -15q0 -11 -26 -11q-13 0 -45 1.5t-40 1.5q-12 0 -45 -1.5t-43 -1.5q-28 0 -28 11q0 10 22 14q32 7 40.5 21.5t11.5 56.5 q6 82 6 304q0 182 -3 209q-2 14 -24 28q-20 14 -20 19z"/>
<glyph glyph-name="m" horiz-adv-x="762" unicode="m" d="M52 350q0 7 20 18q31 12 76 41q5 4 8 4q3 -1 7.5 -4.5t4.5 -5.5q0 -7 -2 -27t-2 -25q0 -3 1.5 -6t4.5 0q25 20 64 39t70 19q50 0 78 -20q20 -15 32 -35q3 -6 8 -4q32 23 71 43q33 16 64 16q54 0 86 -34q30 -34 33 -96q2 -26 2 -91v-113q2 -36 43 -47q19 -6 19 -14 q0 -11 -28 -11q-9 0 -34 1.5t-38 1.5q-16 0 -36.5 -1t-31.5 -1q-25 0 -25 13q0 7 22 13q23 7 29.5 18t6.5 39q0 11 -1 81t-1 88q0 38 -16 67q-22 35 -76 35q-21 0 -38 -6.5t-21.5 -10t-17.5 -14.5q-2 -2 -6 -13t-4 -16v-26q0 -26 -0.5 -62.5t-0.5 -64.5q0 -58 1 -65 q2 -25 9.5 -34.5t32.5 -15.5q21 -6 21 -14q0 -12 -24 -12q-11 0 -37 1t-38 1q-10 0 -35 -1t-36 -1q-26 0 -26 12q0 9 20 14q25 6 31.5 16t6.5 38v196q0 34 -13 51q-23 30 -75 30q-41 0 -80 -31q-9 -8 -11 -25q-2 -26 -2 -228q0 -34 36 -45q27 -9 27 -18q0 -10 -27 -10 q-1 0 -13 0.5t-30.5 1t-35.5 0.5q-18 0 -41.5 -1.5t-33.5 -1.5q-25 0 -25 11q0 10 24 15q23 6 31 19t11 47q3 44 3 198q0 20 -7 27q-35 32 -35 36z"/>
<glyph glyph-name="n" horiz-adv-x="521" unicode="n" d="M53 356q0 12 18 20q52 18 67 29q18 11 24 11q3 0 6.5 -5.5t3.5 -9.5q0 -9 -2 -28t-2 -22t6 -3q81 55 134 55q58 0 91 -38q35 -41 35 -122q0 -140 3 -182q3 -26 37 -35q25 -7 25 -17q0 -11 -30 -11q-11 0 -35 1t-39 1q-14 0 -39 -1t-30 -1q-23 0 -23 12q0 9 23 17 q18 7 24 16t7 34q3 49 3 183q0 25 -9.5 45.5t-20.5 28.5q-26 19 -64 19q-53 0 -89 -32q-10 -10 -10 -24q0 -228 1 -240t8 -18.5t29 -12.5q18 -5 18 -15q0 -12 -25 -12q-5 0 -27 0.5t-34 0.5q-21 0 -49 -1.5t-34 -1.5q-26 0 -26 13q0 9 21 15q24 7 32 18t10 38q5 50 5 219 q0 19 -24 39q-19 13 -19 17z"/>
<glyph glyph-name="o" horiz-adv-x="482" unicode="o" d="M231 374q-31 0 -65 -29q-20 -19 -34.5 -54.5t-14.5 -73.5q0 -51 12 -89q18 -53 54.5 -82t75.5 -29q28 0 61 33q18 20 31.5 59.5t13.5 72.5q0 95 -50 153q-36 39 -84 39zM250 404q79 0 139.5 -57t60.5 -147q0 -57 -27 -104t-60 -68q-55 -40 -124 -40q-71 0 -133 52 q-32 26 -53 70.5t-21 82.5q0 97 70 156q63 55 148 55z"/>
<glyph glyph-name="p" horiz-adv-x="496" unicode="p" d="M254 351q-59 0 -81 -18q-9 -7 -13 -30t-4 -104q0 -59 2 -76q4 -32 13 -44q19 -26 48.5 -40.5t51.5 -14.5q26 0 46 17q33 28 50.5 72.5t17.5 74.5q0 77 -41 122q-18 19 -44.5 30t-45.5 11zM306 402q27 0 57.5 -15.5t53.5 -40.5q47 -53 47 -131q0 -44 -20.5 -91.5 t-64.5 -80.5q-65 -51 -159 -51q-30 0 -56 4q-7 0 -7 -13q0 -129 4 -166q2 -21 11.5 -31t36.5 -19q28 -8 28 -18q0 -13 -26 -13q-9 0 -53 2.5t-66 2.5q-11 0 -29.5 -1.5t-34.5 -1.5q-30 0 -30 13q0 11 23 15q39 8 49 23t13 69q3 49 3 217v139v63q0 46 -8 51q-37 27 -37 32 q0 4 5.5 10.5t8.5 7.5q30 8 76 35q18 9 20 9t6.5 -4.5t4.5 -7.5q-1 -10 -2 -29.5t-1 -21.5q0 -3 2.5 -5t5.5 0q34 23 65 36q27 12 74 12z"/>
<glyph glyph-name="q" horiz-adv-x="489" unicode="q" d="M228 373q-35 0 -58 -21q-55 -48 -55 -143q0 -80 50 -133q43 -43 113 -43q11 0 31 5t29 12q3 1 6.5 13t3.5 18q0 128 -5 180q-1 9 -7 30.5t-10 27.5q-15 23 -43 38.5t-55 15.5zM252 404q53 0 86 -10q33 -11 38 -11q7 0 24 16q15 13 24 13q2 0 4 -2.5t2.5 -6.5t-1.5 -11 q-11 -37 -11 -353q0 -150 3 -215q1 -28 9.5 -37.5t42.5 -15.5q7 -1 14.5 -5.5t7.5 -9.5q0 -13 -25 -13q-45 0 -110.5 -6t-81.5 -6q-25 0 -25 11t25 17q22 4 35.5 10t19.5 14.5t7.5 14.5t2.5 17q5 52 5 200q0 5 -1.5 8t-3.5 2q-74 -37 -115 -37q-88 0 -146 60 q-23 24 -36.5 62.5t-13.5 75.5q0 71 33 116.5t72 67.5q23 14 57 24t58 10z"/>
<glyph glyph-name="r" horiz-adv-x="340" unicode="r" d="M51 352q0 12 13 17q46 15 74 32q18 12 20 12q3 0 6 -4.5t3 -7.5q0 -9 -1 -27t-1 -28q0 -3 2.5 -4t4.5 0q65 62 114 62q27 0 38.5 -11.5t11.5 -22.5q0 -4 -6 -14q-27 -39 -41 -46q-5 -3 -14 3q-24 22 -55 22t-44 -14q-10 -11 -10 -22q0 -126 6 -216q3 -47 26 -51l46 -12 q18 -6 18 -16q0 -9 -24 -9q-8 0 -46.5 2.5t-71.5 2.5q-16 0 -35.5 -2t-30.5 -2q-21 0 -21 12q0 6 20 13q29 10 35.5 23.5t7.5 59.5v191q0 23 -11 30q-6 5 -12.5 9.5t-10 7t-6.5 4.5t-4 3.5t-1 2.5z"/>
<glyph glyph-name="s" horiz-adv-x="321" unicode="s" d="M185 404q29 0 51 -6q16 -3 32 -11q8 -4 8 -14t1.5 -33.5t1.5 -25.5q0 -18 -12 -18q-7 0 -15 17q-31 67 -80 67q-28 0 -44 -21t-16 -41q0 -24 23 -46t76 -51q78 -46 78 -112q0 -56 -58 -98q-35 -23 -84 -23q-25 0 -55 6t-42 16q-3 5 -9 31t-6 45q0 21 8 21t21 -23 q39 -71 91 -71q19 0 40 15q23 18 23 55q0 39 -45 67q-42 30 -61 42q-62 39 -62 101q0 57 55 90q33 21 80 21z"/>
<glyph glyph-name="t" horiz-adv-x="322" unicode="t" d="M164 390q10 0 39.5 1t56 2t27.5 1t6 -3t5 -5q3 -25 3 -38q0 -11 -26 -11h-109q-3 0 -6 -2.5t-3 -4.5q-2 -40 -2 -215q0 -32 17 -49q21 -19 61 -19q24 0 49 15q11 6 15 6q6 0 6 -11t-14 -25q-46 -44 -107 -44q-29 0 -53.5 14.5t-34.5 32.5q-13 20 -13 66q0 19 2 112t2 110 q0 9 -38 20q-14 5 -14 11q0 5 6 11q68 54 80 69q19 22 23 22q3 0 8.5 -4.5t5.5 -6.5v-47q0 -8 8 -8z"/>
<glyph glyph-name="u" horiz-adv-x="498" unicode="u" d="M246 38q36 0 76 35q15 13 15 24l2 230q0 4 -6 12t-11 10l-46 12q-20 6 -20 16q0 3 7.5 6t15.5 3q65 0 107 11q13 4 24 4q7 0 7 -15q-2 -26 -6 -151.5t-4 -180.5q0 -3 3.5 -8.5t8.5 -5.5q3 0 23 2.5t27 2.5q6 0 12 -19q0 -2 -4 -6t-7 -4q-26 -2 -91 -19q-31 -9 -35 -9 q-3 0 -6.5 4.5t-3.5 9.5q0 3 1.5 18t2.5 24q0 4 -1.5 6t-3.5 1q-64 -44 -82 -51q-29 -12 -67 -12q-58 0 -88 47q-14 22 -14 47q0 185 -2 238q0 6 -1 10.5t-4 8t-4.5 6t-6 5t-6.5 3.5t-8 3t-7 3q-18 8 -18 18q0 9 17 9q12 0 37.5 3t46.5 5.5t22 2.5q8 0 8 -15v-17 q0 -31 -1.5 -132t-1.5 -119q0 -38 25 -56q26 -20 68 -20z"/>
<glyph glyph-name="v" horiz-adv-x="423" unicode="v" d="M-8 384q0 11 24 11q10 0 44 -2.5t39 -2.5q15 0 36.5 1t25.5 1q23 0 23 -11q0 -8 -22 -15q-25 -7 -25 -22l3 -12q20 -60 51.5 -133t37.5 -78q3 -5 8 4q57 137 76 201q3 9 3 15q0 10 -7.5 16t-26.5 12q-16 6 -16 13q0 11 20 11q9 0 25 -1.5t29 -1.5q9 0 33.5 2.5t34.5 2.5 q20 0 20 -11q0 -7 -21 -15q-25 -10 -50 -39q-6 -10 -19 -39t-33.5 -79t-29.5 -71q-11 -27 -45 -134q-4 -12 -11 -19t-13 -7q-8 0 -13 18q-23 70 -36 102q-56 150 -104 235q-13 25 -42 33q-19 6 -19 15z"/>
<glyph glyph-name="w" horiz-adv-x="654" unicode="w" d="M91 390q13 0 37.5 1.5t32.5 1.5q26 0 26 -11q0 -10 -25 -16q-22 -4 -22 -21q0 -9 4 -18q9 -28 44.5 -120t41.5 -102q5 -10 9 0q22 44 70 152q5 11 5 20q-4 25 -16 48q-8 14 -11.5 19.5t-11.5 12.5t-19 10q-22 7 -22 16q0 10 24 10q6 0 30 -1.5t37 -1.5q9 0 34 1.5t36 1.5 q24 0 24 -11q0 -12 -24 -16q-29 -7 -29 -22q0 -3 12 -36q1 -4 16.5 -45t33.5 -87t27 -68q3 -11 9 1q9 19 67 167q17 45 17 60q0 22 -39 31q-23 8 -23 16q0 10 23 10q5 0 29.5 -1.5t32.5 -1.5q19 0 43.5 2.5t30.5 2.5q21 0 21 -10q0 -9 -23 -15q-12 -4 -19 -7t-14.5 -12 t-8.5 -10.5t-11 -18.5q-32 -57 -96 -215q-37 -91 -42 -108q-4 -12 -13 -12q-8 0 -19 15q-1 3 -6 17.5t-10.5 30t-9.5 26.5l-62 153q-1 2 -3.5 1.5t-3.5 -2.5q-61 -127 -91 -202q-15 -41 -25 -41q-13 0 -18 15l-30 86q-25 73 -86 214q-14 32 -25.5 47t-30.5 20q-25 5 -25 15 q0 12 29 12q8 0 32 -2t36 -2z"/>
<glyph glyph-name="x" horiz-adv-x="426" unicode="x" d="M15 387q0 9 26 9q5 0 39 -3t48 -3q11 0 31 1t28 1q22 0 22 -9q0 -12 -19 -17q-20 -6 -20 -21q0 -4 21 -40t32 -52q2 -4 7 1q32 42 53 82q5 8 5 14q0 8 -12 12q-27 11 -27 19q0 11 20 11q4 0 18.5 -1t24.5 -1q13 0 46.5 2.5t40.5 2.5q21 0 21 -11q0 -6 -19 -14 q-62 -17 -87 -48q-39 -48 -70 -92q-3 -6 -1 -11q31 -68 83 -142q31 -44 76 -55q23 -5 23 -15q0 -12 -24 -12q-17 0 -53 2.5t-55 2.5q-10 0 -25.5 -1t-25.5 -1q-21 0 -21 13q0 8 19 13q20 7 20 16q0 8 -10 24q-42 80 -49 86q-3 4 -7 0q-13 -13 -37.5 -51t-25.5 -48 q0 -18 26 -28q14 -5 14 -15t-21 -10q-11 0 -23.5 1t-19.5 1q-18 0 -45.5 -2t-35.5 -2q-29 0 -29 11q0 10 25 16q47 13 75 46q11 13 41 54.5t42 56.5q3 4 0 10q-20 44 -69 119q-32 48 -70 60q-26 7 -26 18z"/>
<glyph glyph-name="y" horiz-adv-x="414" unicode="y" d="M-5 382q0 12 24 12q12 0 37.5 -2t40.5 -2q16 0 41 1t29 1q22 0 22 -11t-23 -17q-26 -7 -26 -19q0 -5 5 -20q11 -34 46 -120.5t41 -96.5q3 -3 8 4q9 19 42 105.5t37 99.5q3 11 3 18q0 12 -9 19t-32 12q-21 5 -21 14q0 11 25 11q10 0 31.5 -0.5t27.5 -0.5t27 2t36 2 q20 0 20 -9q0 -10 -22 -17q-30 -10 -49 -52q-42 -95 -110 -267q-20 -52 -56.5 -151t-47.5 -128q-3 -11 -17.5 -19.5t-34.5 -8.5q-23 0 -34 15t-11 34q0 15 12.5 29.5t31.5 14.5q2 0 16 -0.5t20 -0.5q8 0 15 17q6 11 24 60t24 69q5 25 5 27q0 3 -2 9l-15 41q-51 142 -114 271 q-4 8 -6.5 12t-7.5 9.5t-13 9.5t-20 8q-20 7 -20 15z"/>
<glyph glyph-name="z" horiz-adv-x="392" unicode="z" d="M204 390q38 0 81.5 2t50.5 2h7q4 0 8 -3q9 -7 3 -15q-2 -3 -23.5 -30.5t-36.5 -49.5q-20 -29 -153 -245q-3 -3 -1.5 -6t4.5 -4q6 -2 52 -5t76 -3q12 0 24 12q25 25 49 59q15 22 21 22q8 0 8 -15q0 -10 -12 -48t-15 -56q0 -3 -5 -7.5t-8 -4.5q-2 0 -42 1.5t-88 2.5t-69 1 q-1 0 -93 -4q-3 0 -8 5t-5 9t70 107q26 35 146 230q4 6 -3 8q-21 6 -129 6q-7 0 -26.5 -21t-32.5 -42q-8 -16 -15 -16q-3 0 -6.5 5.5t-3.5 11.5q0 10 8 34q10 33 10 62q0 5 3 8q7 5 9 5l2 -1q23 -17 52 -17h91z"/>
<glyph glyph-name="braceleft" horiz-adv-x="342" unicode="{" d="M37 297q51 11 74 37.5t23 59.5q0 18 -13 88.5t-13 84.5q0 24 15.5 59t46.5 60q60 46 120 46q18 0 18 -9q0 -3 -4.5 -11t-7.5 -9l-36 -8q-87 -22 -87 -123q0 -20 13.5 -77t13.5 -84q0 -34 -28 -65t-71 -54q-8 -5 -1 -9q55 -28 78 -61.5t23 -78.5q0 -41 -22 -135 q-11 -45 -11 -56q0 -89 124 -116q13 -2 13 -8q0 -8 -8 -13t-16 -5q-82 0 -130 53t-48 120q0 9 12.5 76.5t12.5 90.5q0 49 -15 72t-57 36q-14 5 -22.5 13.5t-8.5 14.5q0 8 12 11z"/>
<glyph glyph-name="bar" horiz-adv-x="259" unicode="|" d="M99 743h61v-991h-61v991z"/>
<glyph glyph-name="braceright" horiz-adv-x="342" unicode="}" d="M291 267q-52 -11 -75 -38t-23 -59q0 -20 12.5 -102t12.5 -93q0 -26 -14.5 -60t-45.5 -59q-58 -46 -114 -46q-7 0 -12.5 4t-5.5 9q0 7 11 13q12 7 40 15q76 19 76 119q0 20 -12.5 87.5t-12.5 94.5q0 35 29 68t72 54q6 4 0 7q-57 28 -79.5 61t-22.5 80q0 42 21 113 q10 44 10 55q0 48 -30 71.5t-93 43.5q-12 5 -12 9q0 5 8.5 11.5t14.5 6.5q82 0 130 -52.5t48 -120.5q0 -8 -12 -65.5t-12 -79.5q0 -49 14.5 -72.5t56.5 -36.5q31 -11 31 -25q0 -8 -11 -13z"/>
<glyph glyph-name="asciitilde" horiz-adv-x="624" unicode="~" d="M211 338q33 0 73 -28t76.5 -56.5t58.5 -28.5q36 0 55 23t43 82q4 9 11 9q11 0 23 -7.5t12 -16.5q0 -1 -0.5 -2t-0.5 -2q-22 -65 -60.5 -105t-87.5 -40q-35 0 -74.5 28.5t-75 57t-59.5 28.5q-27 0 -48.5 -23t-45.5 -76q-7 -15 -13 -15q-8 0 -21.5 8t-13.5 16 q0 53 50.5 100.5t97.5 47.5z"/>
<glyph glyph-name="uni00A0" horiz-adv-x="199" unicode=" "/>
<glyph glyph-name="exclamdown" horiz-adv-x="270" unicode="¡" d="M125 327q-29 0 -44 20t-15 41q0 25 17 43t43 18q23 0 41 -15.5t18 -46.5q0 -30 -20 -45t-40 -15zM123 -176q-30 0 -42 26.5t-12 56.5q1 19 16.5 152t18.5 154q1 11 7 20.5t14 9.5q16 0 18 -34q1 -9 16 -133t18 -170v-10q0 -36 -18 -54t-36 -18z"/>
<glyph glyph-name="cent" d="M60 293q0 122 104 190q46 29 104 39q6 2 6 6l9 72q0 6 6 6q24 0 24 -7l-5 -67q0 -7 4 -7q57 -1 95 -27q17 -13 17 -30q0 -10 -11.5 -21t-18.5 -11t-40 28q-22 19 -48 24l-4 -3l-31 -320q0 -9 6 -10q8 -2 16 -2q57 0 118 49q3 3 6.5 0.5t3.5 -5.5q0 -19 -15 -34 q-50 -54 -136 -64q-6 0 -6 -8l-8 -78q-7 -7 -22 -7q-10 0 -10 6l9 80q0 2 -2.5 5t-5.5 3q-40 6 -76 28t-57 54q-32 50 -32 111zM135 331q0 -119 97 -165h1q6 0 6 6l30 314q-2 5 -4 5q-52 0 -91 -50t-39 -110z" unicode="¢"/>
<glyph glyph-name="sterling" d="M343 631q44 0 69.5 -22.5t25.5 -53.5q0 -28 -14.5 -44t-29.5 -16q-9 0 -9 7q0 2 0.5 8.5t0.5 9.5q0 34 -17 59.5t-44 25.5q-81 0 -110 -264q0 -8 6 -8l124 5q4 0 6.5 -4.5t1.5 -9.5q0 -5 -3.5 -12t-6.5 -7l-124 -8q-3 0 -6.5 -3t-4.5 -7q-12 -61 -28 -98.5t-47 -71.5 q-2 -1 -1.5 -4.5t4.5 -3.5q49 0 93 -23q17 -8 44 -25t47 -27t35 -10q39 0 53 16.5t15 53.5q0 16 -5 54q0 4 3.5 8.5t7.5 4.5q15 0 26.5 -13.5t11.5 -36.5q0 -53 -53 -101.5t-118 -48.5q-10 0 -21.5 3.5t-20 7.5t-22.5 14t-21.5 16t-26 21t-26.5 22q-27 23 -49 23h-8 q-3 0 -9 -7.5t-15 -21t-15 -20.5q-28 -31 -45 -31q-11 0 -19.5 7t-7.5 15q0 18 23 46t58 43q5 2 16 13q33 33 43 169q0 9 -5 9l-65 -1q-3 -1 -5 4.5t-2 10.5q0 16 8 18l67 5q7 2 7 9q12 109 38.5 169t69.5 93t100 33z" unicode="£"/>
<glyph glyph-name="currency" d="M245 426q-52 0 -86.5 -35.5t-34.5 -89.5t35.5 -88t85.5 -34q49 0 85 34.5t36 87.5q0 51 -37.5 88t-83.5 37zM437 469l-50 -54q-2 -5 0 -11q31 -47 31 -102q0 -53 -34 -102l-2 -6l53 -58q2 -4 2 -7q0 -11 -10 -21q-8 -8 -18 -8q-2 0 -3 1l-61 55q-3 3 -10 -1 q-49 -30 -90 -30q-50 0 -92 26q-4 2 -12 -1l-51 -50q-4 -4 -7 -4q-8 0 -18 9q-11 11 -11 22q0 7 3 10l46 51q3 6 0 10q-33 50 -33 103q0 42 34 98q1 1 1.5 5.5t-1.5 6.5l-51 59q-2 4 -2 6q0 11 11 22q12 10 18 10q4 0 7 -3l51 -52q2 -2 7 -2.5t7 0.5q44 26 93 26 q48 0 95 -28q6 -3 10 1l50 52q4 4 8 4q8 0 20 -11q11 -8 11 -19q0 -3 -2 -7z" unicode="¤"/>
<glyph glyph-name="yen" d="M9 612q0 10 23 10q7 0 30.5 -1.5t37.5 -1.5q16 0 48 1.5t41 1.5q21 0 21 -10t-20 -16q-23 -7 -23 -20q0 -6 7 -24q2 -4 36.5 -78t52.5 -107q3 -7 8 1q38 68 69 135q25 55 25 64q0 17 -37 29q-20 6 -20 16t24 10q10 0 30.5 -1.5t29.5 -1.5h8q11 0 32.5 1.5t31.5 1.5 q21 0 21 -10t-18 -15q-9 -3 -16.5 -6t-14 -8t-10.5 -8t-10.5 -11t-8.5 -10.5t-9.5 -14t-10.5 -15.5q-17 -26 -53 -92.5t-45 -87.5q-1 -2 -1.5 -3.5t0.5 -3t3 -1.5l106 -1q4 0 4 -8q0 -7 -4 -14.5t-8 -7.5h-105q-4 0 -4 -8v-64q0 -1 2 -4.5t3 -3.5h103q6 0 6 -11 q0 -7 -3.5 -13t-7.5 -6l-96 -2q-7 0 -7 -10v-39q0 -69 4.5 -87t22.5 -24q15 -6 34 -10q18 -4 18 -14q0 -4 -7 -7.5t-16 -3.5q-12 0 -43.5 1t-42.5 1q-14 0 -50 -2t-51 -2q-19 0 -19 10t22 16q33 8 41 22t10 62q1 22 1 75q0 12 -6 12h-103q-8 0 -8 11q0 6 3 13.5t6 7.5h100 q8 0 8 7v63q0 10 -5 10h-94q-7 0 -7 9q0 6 3.5 14.5t5.5 8.5l87 -1q4 0 0 9q-6 15 -43.5 88.5t-59.5 109.5q-13 20 -17.5 26t-15.5 14t-29 13q-20 7 -20 16z" unicode="¥"/>
<glyph glyph-name="brokenbar" horiz-adv-x="259" unicode="¦" d="M99 668h61v-346h-61v346zM99 -173v346h61v-346h-61z"/>
<glyph glyph-name="section" horiz-adv-x="423" unicode="§" d="M333 114q0 38 -18 78t-31.5 57.5t-52.5 65.5q-11 13 -41.5 46t-50 57.5t-28.5 42.5q-3 3 -7 -1q-18 -29 -18 -69q0 -87 115 -208q83 -82 108 -142q0 -2 4 -2q1 0 2 2q18 31 18 73zM261 637q33 0 57 -17q11 -11 11 -18q0 -17 -29 -41q-5 -4 -24 1q-41 28 -60 28 q-57 0 -57 -64q0 -14 14 -36t28.5 -39t38 -41t29.5 -31q105 -110 105 -201q0 -19 -2 -37.5t-6.5 -35.5t-8 -29t-10.5 -28t-10 -22t-11 -20t-8 -15q-24 -43 -65 -77.5t-71 -42.5q-23 -7 -37 -7q-22 0 -37.5 6.5t-21.5 13.5t-6 13q0 7 13 24t29 26q7 4 22 -7q26 -21 57 -21 q57 0 57 65q0 19 -34 64.5t-65 76.5q-71 74 -102 136q-16 37 -16 80q0 44 20.5 90.5t46.5 78.5q9 44 53 84q51 43 100 43z"/>
<glyph glyph-name="dieresis" horiz-adv-x="400" unicode="¨" d="M285 599q17 0 30 -14t13 -31q0 -18 -13.5 -31t-31.5 -13q-17 0 -30 12.5t-13 30.5q0 21 14 33.5t31 12.5zM116 600q17 0 29 -14t12 -32q0 -21 -13 -32.5t-30 -11.5q-15 0 -28.5 12t-13.5 31t12.5 33t31.5 14z"/>
<glyph glyph-name="copyright" horiz-adv-x="692" unicode="©" d="M364 493q37 0 61 -6q7 -1 26.5 -6t22.5 -6q8 -3 9 -23q1 -14 1 -44q0 -18 -11 -18q-8 0 -13 16q-8 26 -33.5 44t-56.5 18q-54 0 -89 -37.5t-35 -96.5q0 -80 40 -117.5t88 -37.5q26 0 46 10t27.5 19.5t18.5 26.5q14 20 22 20q5 0 5 -13q-2 -31 -14 -54q-2 -5 -10.5 -12.5 t-12.5 -9.5q-41 -17 -90 -17q-48 0 -87 18t-59 41q-45 50 -45 114q0 78 60 125q53 46 129 46zM347 598q-114 0 -192 -80.5t-78 -197.5q0 -115 81.5 -198t188.5 -83q113 0 190.5 81t77.5 200q0 116 -79 197t-189 81zM347 628q131 0 218 -90t87 -219q0 -128 -89 -219t-216 -91 q-132 0 -219.5 90.5t-87.5 219.5q0 128 89.5 218.5t217.5 90.5z"/>
<glyph glyph-name="ordfeminine" horiz-adv-x="272" unicode="ª" d="M80 344q0 -12 12 -23t25 -11q20 0 35 17q9 7 9 14q1 7 1 42q-1 9 -7 6q-42 -10 -58.5 -19.5t-16.5 -25.5zM140 535q37 0 58 -26t21 -63q0 -6 -1.5 -44t-1.5 -53q0 -35 24 -35q11 0 25 10q2 1 3 0.5t2 -3t1 -6.5q0 -8 -8 -18q-23 -25 -55 -25q-33 0 -44 32q-2 6 -6 3 q-52 -35 -77 -35q-19 0 -37 18.5t-18 44.5q0 35 34 47q2 1 41.5 12.5t55.5 17.5q7 6 7 9q1 10 1 36q0 20 -15 33.5t-33 13.5q-22 0 -31 -5q-7 -4 -7 -29q0 -5 -6 -10q-1 0 -17 -7t-22 -8q-10 -2 -10 5q0 21 29 48q49 37 87 37z"/>
<glyph glyph-name="guillemotleft" horiz-adv-x="689" unicode="«" d="M332 185q-8 5 -9 13t3 10q141 77 223 148q23 20 33 20q6 0 6 -8q0 -10 -8 -21q-32 -46 -145 -135q-11 -9 -3 -17q115 -94 148 -149q6 -10 6 -19q0 -8 -7 -8t-21 11q-104 88 -226 155zM110 185q-10 6 -10 16q0 5 3 7q152 85 225 148q23 20 36 20q5 0 5 -7q0 -10 -9 -22 q-27 -39 -147 -135q-13 -10 -3 -17q4 -4 20.5 -18.5t24.5 -21.5t23 -21t24.5 -23.5t21 -21.5t19.5 -22t14 -19q10 -15 10 -22t-9 -7q-10 0 -23 11q-106 90 -225 155z"/>
<glyph glyph-name="logicalnot" horiz-adv-x="624" unicode="¬" d="M75 349h459q12 0 12 -21v-274q0 -10 -15.5 -15t-31.5 -5q-12 0 -12 15v227q0 20 -17 20h-389q-14 0 -17.5 2.5t-3.5 12.5q0 12 4.5 25t10.5 13z"/>
<glyph glyph-name="uni00AD" horiz-adv-x="292" unicode="­" d="M52 231q49 7 194 22q2 0 5 -4t3 -7q0 -15 -5 -31t-13 -17q-28 -3 -185 -19h-2q-6 0 -10 4.5t-4 9.5q0 18 6 29.5t11 12.5z"/>
<glyph glyph-name="registered" horiz-adv-x="233" unicode="®" d="M117 574v-30q0 -4 9 -4q19 0 19 18q0 8 -5 14t-13 6q-10 0 -10 -4zM92 508v51q0 7 -1.5 10.5t-3 4.5t-6.5 3t-6 4.5t1 3.5l4 2q31 3 49 3q19 0 31 -8t12 -22q0 -12 -18 -21q-2 -2 -1 -4q19 -37 32 -45q6 -3 6 -6q0 -5 -14 -5q-18 0 -27 15q-14 23 -17 29q-1 4 -9 4 q-7 0 -7 -4v-11q0 -11 2 -13.5t14 -7.5q3 -1 4 -3.5t-0.5 -4t-3.5 -1.5h-53q-3 0 -4.5 3t2.5 5q14 6 14 18zM127 626h-2q-37 0 -62 -26.5t-25 -65.5q0 -40 25.5 -66.5t63.5 -26.5q39 0 63.5 26.5t24.5 66.5q0 39 -26 65.5t-62 26.5zM127 644q47 0 78.5 -31.5t31.5 -78.5 q0 -43 -30.5 -78t-81.5 -35q-46 0 -77.5 32.5t-31.5 80.5q0 44 32 77t79 33z"/>
<glyph glyph-name="macron" horiz-adv-x="400" unicode="¯" d="M99 571l210 4q3 0 5.5 -8t2.5 -12q0 -16 -5.5 -27.5t-14.5 -11.5h-205q-8 0 -8 13q0 15 5 28.5t10 13.5z"/>
<glyph glyph-name="degree" horiz-adv-x="282" unicode="°" d="M138 601q-29 0 -47.5 -23t-18.5 -57q0 -36 21.5 -58t54.5 -22q26 0 44 22t18 58q0 34 -20 57t-52 23zM145 636q46 0 78.5 -31t32.5 -84t-34 -84.5t-81 -31.5q-49 0 -82.5 31t-33.5 85q0 50 36 82.5t84 32.5z"/>
<glyph glyph-name="plusminus" horiz-adv-x="624" unicode="±" d="M548 4q9 0 12 -2.5t3 -9.5q0 -18 -4.5 -30t-9.5 -12h-468q-14 0 -17.5 2.5t-3.5 12.5q0 12 4.5 25.5t10.5 13.5h473zM283 545q0 6 16 10.5t28 4.5q10 0 12.5 -3t2.5 -17v-189q0 -12 11 -12h195q9 0 12 -2.5t3 -9.5q0 -18 -4.5 -29.5t-9.5 -11.5h-197q-10 0 -10 -13v-190 q0 -11 -15.5 -16t-31.5 -5q-12 0 -12 15v192q0 11 -3.5 14t-12.5 3h-187q-13 0 -16.5 2.5t-3.5 12.5q0 12 4.5 25t10.5 13h195q5 0 9 4t4 8v194z"/>
<glyph glyph-name="twosuperior" horiz-adv-x="299" unicode="²" d="M139 773q42 0 71 -29.5t29 -70.5q0 -44 -43 -90q-35 -38 -93 -93q-3 -4 -1 -6t4 -2h88h26q13 0 36 29q9 11 16 11q6 0 6 -11q0 -9 -2 -12q-16 -32 -23 -67q-2 -6 -8 -6h-23q-23 1 -53.5 1.5t-48.5 0.5h-17l-61 -1q-18 0 -18 9q0 8 8 14q47 42 98 101q44 53 44 111 q0 27 -16.5 42t-41.5 15q-41 0 -68 -31q-12 -10 -18 -10q-7 0 -7 8q0 12 9 23q46 64 107 64z"/>
<glyph glyph-name="threesuperior" horiz-adv-x="299" unicode="³" d="M148 775q36 0 58 -21.5t22 -45.5q0 -38 -51 -71q-2 -1 -1.5 -3t2.5 -3q81 -10 81 -77q0 -37 -25 -70t-67 -53q-33 -17 -73 -17q-18 0 -38.5 11t-20.5 24q0 10 7.5 18.5t14.5 11.5q6 3 11 -2q33 -28 72 -28q24 0 43.5 24t19.5 49q0 31 -17 52t-49 21q-7 0 -39 -7 q-10 -2 -10 2q0 6 2 10q9 15 26 22q33 14 44 26t11 37q0 17 -14 32t-32 15q-26 0 -59 -27q-19 -16 -20 -3q0 7 3 13q36 60 99 60z"/>
<glyph glyph-name="acute" horiz-adv-x="400" unicode="´" d="M251 626q11 21 24 21q34 0 43 -10q1 -1 1 -5q0 -12 -6 -22q-46 -88 -92 -147q-15 -19 -26 -19q-7 0 -7 13q0 6 2 14q26 77 61 155z"/>
<glyph glyph-name="mu" horiz-adv-x="453" unicode="µ" d="M92 407q19 0 45 -18q1 0 5.5 -10t4.5 -13q0 -16 -15 -96q-5 -28 -12 -77.5t-8 -54.5q-1 -4 -1 -12q0 -11 4 -31q7 -36 48 -36q33 0 69 37.5t55 86.5q6 18 8 39q4 74 14 158q2 9 7 18.5t9 9.5q34 0 59 -25q4 -4 4 -12q0 -3 -2 -23q-3 -33 -22.5 -97.5t-34.5 -96.5 q-4 -10 -4 -29q0 -33 17.5 -50.5t36.5 -17.5q41 0 67 32q2 3 5 1.5t5 -6.5q1 -2 1 -8q0 -25 -10 -42q-27 -52 -75 -52q-28 0 -48 27.5t-21 88.5l-5 1l-1 -1q-65 -109 -117 -109q-44 0 -76 71q-1 4 -5 -2q-1 -2 -1 -3q-5 -30 -5 -143q0 -30 1 -37q13 -71 68 -105q4 -2 1 -15 q-4 -10 -29 -22q-14 -7 -29 -7t-31 25q-12 22 -12 107q0 44 7 226q0 4 0.5 11.5t0.5 10.5q0 8 -2 32q-7 49 -7 224v25q0 10 9 16q8 4 22 4z"/>
<glyph glyph-name="paragraph" horiz-adv-x="546" unicode="¶" d="M459 626h35q17 0 17 -21q0 -4 -4 -9t-6 -5q-3 0 -47.5 -1t-54.5 -1q-7 0 -7 -16q0 -134 1 -275t2 -228.5t1 -90.5q0 -37 -2 -65t-10 -62.5t-21.5 -57t-40 -38.5t-62.5 -16q-47 0 -76 31t-29 68q0 36 24 65t60 29q21 0 36.5 -15t15.5 -32q0 -25 -15.5 -37.5t-27.5 -12.5 q-17 0 -27 6q-9 6 -14 6q-11 0 -11 -13q0 -28 18.5 -45t51.5 -17q87 0 89 175q1 50 1.5 96.5t0.5 61.5q0 12 -8 14q-82 2 -148 28t-108.5 83t-42.5 137q0 100 76 176q30 31 76.5 49.5t86.5 24.5q68 8 170 8z"/>
<glyph glyph-name="periodcentered" horiz-adv-x="205" unicode="·" d="M103 257q31 0 46 -20.5t15 -43.5q0 -26 -17.5 -44t-44.5 -18q-23 0 -42 16t-19 48t20.5 47t41.5 15z"/>
<glyph glyph-name="cedilla" horiz-adv-x="400" unicode="¸" d="M263 -136q0 -44 -49 -82q-41 -31 -68 -31q-16 0 -24 14q-3 6 -3 18q0 9 2 13q5 7 11 7q30 -6 42 -6q17 0 26.5 11.5t9.5 26.5q0 20 -17 33.5t-39 13.5q-9 0 -16 -1q-4 0 -10 5.5t-6 9.5q0 5 7 13l75 96h32l-43 -54q-3 -6 6 -12q22 -11 33 -18t21 -22t10 -35z"/>
<glyph glyph-name="onesuperior" horiz-adv-x="299" unicode="¹" d="M188 766q0 -2 -0.5 -11t-1 -28t-0.5 -41q0 -80 2 -190q0 -14 1 -20.5t9 -12t12 -7t24 -7.5q15 -6 15 -11q0 -12 -18 -12q-3 0 -35 1t-45 1q-23 0 -48 -1l-25 -1q-19 0 -19 10q0 11 27 17q20 4 27 11t9 21q5 35 5 141q0 47 -2 71q0 11 -11 15q-25 9 -32 11q-18 5 -18 12 q0 8 17 10q55 4 97 28q2 2 4 2q6 0 6 -9z"/>
<glyph glyph-name="ordmasculine" horiz-adv-x="321" unicode="º" d="M155 513q-35 0 -51 -31.5t-16 -71.5q0 -44 23 -78t59 -34q34 0 49 30t15 71q0 42 -24.5 78t-54.5 36zM161 535q54 0 94.5 -36.5t40.5 -97.5q0 -53 -40.5 -91t-97.5 -38q-53 0 -93 39t-40 93t40 92.5t96 38.5z"/>
<glyph glyph-name="guillemotright" horiz-adv-x="689" unicode="»" d="M356 209q8 -5 9.5 -13t-2.5 -10q-65 -34 -128 -76.5t-95 -70.5q-23 -20 -34 -20q-7 0 -7 8t8 19q26 39 147 137q11 8 3 16q-115 95 -151 150q-5 7 -5 16q0 11 8 11t22 -11q98 -85 225 -156zM578 209q10 -6 10 -16q0 -5 -3 -7q-147 -81 -225 -147q-23 -20 -36 -20 q-5 0 -5 6q0 10 10 23q30 43 147 134q13 10 3 17q-4 3 -37 33t-47.5 43.5t-36 36t-30.5 37.5q-7 12 -7 19q0 8 10 8t23 -11q93 -82 224 -156z"/>
<glyph glyph-name="onequarter" horiz-adv-x="657" unicode="¼" d="M531 147q0 8 2 52t2 69q0 2 -2.5 2.5t-3.5 -0.5q-85 -100 -99 -119q-2 -3 -1 -5.5t4 -2.5l90 -1q8 0 8 5zM581 350q8 0 8 -11q0 -1 0.5 -40t0.5 -85.5v-63.5q0 -7 5 -7l56 2q5 0 5 -9q0 -6 -3.5 -16.5t-6.5 -11.5l-51 1q-4 0 -4 -8q0 -10 0.5 -39t0.5 -41v-14 q0 -10 -9 -13q-13 -5 -45 -5q-3 0 -6 3t-3 7v41q0 45 1 63q0 6 -6 6q-88 0 -146 -4q-7 0 -7 12q0 2 3.5 5.5l8 8t5.5 6.5q140 163 153 185q7 9 19.5 18.5t20.5 9.5zM556 643q8 0 14 -4t6 -10q0 -3 -2 -7q-50 -80 -156 -249t-171 -272t-84 -129q-2 -2 -6 -2t-6 2 q-17 13 -8 27q53 85 150.5 240.5t165.5 264t81 127.5q7 12 16 12zM188 618q0 -2 -0.5 -11t-1 -28t-0.5 -41q0 -80 2 -190q0 -14 1 -20.5t9 -12t12 -7t24 -7.5q15 -6 15 -11q0 -12 -18 -12q-3 0 -35 1t-45 1q-23 0 -48 -1l-25 -1q-19 0 -19 10q0 11 27 17q20 4 27 11t9 21 q5 35 5 141q0 47 -2 71q0 11 -11 15q-25 9 -32 11q-18 5 -18 12q0 8 17 10q55 4 97 28q2 2 4 2q6 0 6 -9z"/>
<glyph glyph-name="onehalf" horiz-adv-x="679" unicode="½" d="M519 345q42 0 71 -29.5t29 -70.5q0 -44 -43 -90q-35 -38 -93 -93q-3 -4 -1 -6t4 -2h88h26q13 0 36 29q9 11 16 11q6 0 6 -11q0 -9 -2 -12q-16 -32 -23 -67q-2 -6 -8 -6h-23q-23 1 -53.5 1.5t-48.5 0.5h-17l-61 -1q-18 0 -18 9q0 8 8 14q47 42 98 101q44 53 44 111 q0 27 -16.5 42t-41.5 15q-41 0 -68 -31q-12 -10 -18 -10q-7 0 -7 8q0 12 9 23q46 64 107 64zM537 643q8 0 14 -4t6 -10q0 -3 -2 -7q-50 -80 -156 -249t-171 -272t-84 -129q-2 -2 -6 -2t-6 2q-17 13 -8 27q53 85 150.5 240.5t165.5 264t81 127.5q7 12 16 12zM188 618 q0 -2 -0.5 -11t-1 -28t-0.5 -41q0 -80 2 -190q0 -14 1 -20.5t9 -12t12 -7t24 -7.5q15 -6 15 -11q0 -12 -18 -12q-3 0 -35 1t-45 1q-23 0 -48 -1l-25 -1q-19 0 -19 10q0 11 27 17q20 4 27 11t9 21q5 35 5 141q0 47 -2 71q0 11 -11 15q-25 9 -32 11q-18 5 -18 12q0 8 17 10 q55 4 97 28q2 2 4 2q6 0 6 -9z"/>
<glyph glyph-name="threequarters" horiz-adv-x="634" unicode="¾" d="M507 147q0 8 2 52t2 69q0 2 -2.5 2.5t-3.5 -0.5q-85 -100 -99 -119q-2 -3 -1 -5.5t4 -2.5l90 -1q8 0 8 5zM557 350q8 0 8 -11q0 -1 0.5 -40t0.5 -85.5v-63.5q0 -7 5 -7l56 2q5 0 5 -9q0 -6 -3.5 -16.5t-6.5 -11.5l-51 1q-4 0 -4 -8q0 -10 0.5 -39t0.5 -41v-14 q0 -10 -9 -13q-13 -5 -45 -5q-3 0 -6 3t-3 7v41q0 45 1 63q0 6 -6 6q-88 0 -146 -4q-7 0 -7 12q0 2 3.5 5.5l8 8t5.5 6.5q140 163 153 185q7 9 19.5 18.5t20.5 9.5zM535 643q8 0 14 -4t6 -10q0 -3 -2 -7q-50 -80 -156 -249t-171 -272t-84 -129q-2 -2 -6 -2t-6 2 q-17 13 -8 27q53 85 150.5 240.5t165.5 264t81 127.5q7 12 16 12zM148 627q36 0 58 -21.5t22 -45.5q0 -38 -51 -71q-2 -1 -1.5 -3t2.5 -3q81 -10 81 -77q0 -37 -25 -70t-67 -53q-33 -17 -73 -17q-18 0 -38.5 11t-20.5 24q0 10 7.5 18.5t14.5 11.5q6 3 11 -2q33 -28 72 -28 q24 0 43.5 24t19.5 49q0 31 -17 52t-49 21q-7 0 -39 -7q-10 -2 -10 2q0 6 2 10q9 15 26 22q33 14 44 26t11 37q0 17 -14 32t-32 15q-26 0 -59 -27q-19 -16 -20 -3q0 7 3 13q36 60 99 60z"/>
<glyph glyph-name="questiondown" horiz-adv-x="336" unicode="¿" d="M183 330q-24 0 -39.5 19t-15.5 39q0 24 16.5 41t40.5 17q22 0 39 -14.5t17 -44.5q0 -28 -19.5 -42.5t-38.5 -14.5zM217 -164q-40 0 -97 48q-10 9 -25 26t-34 53t-19 66q0 64 37 101q16 11 88 51q4 2 7 4.5t5 5.5t3 5t2 6.5t1.5 6t1 7t0.5 7.5q2 26 15 26q5 0 10 -9t7 -18 q12 -63 12 -79q0 -23 -20 -38.5t-73 -39.5q-49 -23 -49 -56q0 -19 2.5 -31.5t9.5 -25.5t23.5 -20t41.5 -7q4 0 21.5 2t26.5 2q11 0 26 -16t15 -42q0 -11 -11 -23t-27 -12z"/>
<glyph glyph-name="Agrave" horiz-adv-x="676" unicode="À" d="M242 834q7 0 40 -28q7 -7 26 -24t37 -34t31 -31q17 -17 10 -25q-3 -6 -15 -6q-11 0 -21 5q-62 30 -133 79q-21 13 -21 24q0 9 19 25q17 15 27 15zM398 303q1 0 2.5 3t0.5 5q-65 195 -78 215q-4 9 -8 0q-69 -184 -78 -219q-2 -7 5 -7q14 0 48.5 0.5t63.5 1t44 1.5z M353 661q7 0 16 -26q6 -19 44 -124q95 -267 144 -385q23 -58 40.5 -75t53.5 -26q24 -7 24 -17q0 -13 -32 -13q-15 0 -59 2.5t-67 2.5q-17 0 -38 -1t-33 -1q-31 0 -31 12t24 16q42 8 42 34q0 5 -2 17q-6 33 -56 171q-3 10 -34 10q-136 0 -164 -4q-6 0 -11 -8 q-52 -130 -52 -175q0 -28 49 -43q27 -8 27 -18q0 -13 -28 -13q-6 0 -32 1.5t-47 1.5t-60 -2.5t-44 -2.5q-23 0 -23 10q0 13 22 20q41 14 56.5 26.5t35.5 58.5q12 27 86 217.5t93 237.5q1 3 9 26q3 9 7 17l24 40q11 13 16 13z"/>
<glyph glyph-name="Aacute" horiz-adv-x="676" unicode="Á" d="M437 830q9 8 20 8q3 0 7 -1t5 -1q31 -21 31 -36q0 -6 -7 -15t-15 -13q-67 -45 -146 -80q-13 -5 -21 -5q-10 0 -15 5q-1 0 -1 4q0 11 13 23q72 68 129 111zM398 303q1 0 2.5 3t0.5 5q-65 195 -78 215q-4 9 -8 0q-69 -184 -78 -219q-2 -7 5 -7q14 0 48.5 0.5t63.5 1t44 1.5 zM353 661q7 0 16 -26q6 -19 44 -124q95 -267 144 -385q23 -58 40.5 -75t53.5 -26q24 -7 24 -17q0 -13 -32 -13q-15 0 -59 2.5t-67 2.5q-17 0 -38 -1t-33 -1q-31 0 -31 12t24 16q42 8 42 34q0 5 -2 17q-6 33 -56 171q-3 10 -34 10q-136 0 -164 -4q-6 0 -11 -8 q-52 -130 -52 -175q0 -28 49 -43q27 -8 27 -18q0 -13 -28 -13q-6 0 -32 1.5t-47 1.5t-60 -2.5t-44 -2.5q-23 0 -23 10q0 13 22 20q41 14 56.5 26.5t35.5 58.5q12 27 86 217.5t93 237.5q1 3 9 26q3 9 7 17l24 40q11 13 16 13z"/>
<glyph glyph-name="Acircumflex" horiz-adv-x="676" unicode="Â" d="M351 807q11 0 41 -25q10 -9 90 -77q14 -8 14 -20q0 -9 -12 -9q-9 0 -30 9q-19 9 -53 25.5t-45 21.5q-6 4 -18 -1q-36 -16 -94 -45q-2 -1 -13.5 -5.5t-16.5 -4.5q-14 0 -14 8q0 7 15 22q13 9 48 39t48 40q27 22 40 22zM398 303q1 0 2.5 3t0.5 5q-65 195 -78 215q-4 9 -8 0 q-69 -184 -78 -219q-2 -7 5 -7q14 0 48.5 0.5t63.5 1t44 1.5zM353 661q7 0 16 -26q6 -19 44 -124q95 -267 144 -385q23 -58 40.5 -75t53.5 -26q24 -7 24 -17q0 -13 -32 -13q-15 0 -59 2.5t-67 2.5q-17 0 -38 -1t-33 -1q-31 0 -31 12t24 16q42 8 42 34q0 5 -2 17 q-6 33 -56 171q-3 10 -34 10q-136 0 -164 -4q-6 0 -11 -8q-52 -130 -52 -175q0 -28 49 -43q27 -8 27 -18q0 -13 -28 -13q-6 0 -32 1.5t-47 1.5t-60 -2.5t-44 -2.5q-23 0 -23 10q0 13 22 20q41 14 56.5 26.5t35.5 58.5q12 27 86 217.5t93 237.5q1 3 9 26q3 9 7 17l24 40 q11 13 16 13z"/>
<glyph glyph-name="Atilde" horiz-adv-x="676" unicode="Ã" d="M218 715q31 46 36 52q8 10 28 10h74q67 0 81 4q9 3 16 9.5t12.5 14t6.5 8.5q6 8 10 8t9 -5.5t7 -9.5q4 -9 -3 -16q-6 -6 -28.5 -35t-27.5 -34q-7 -7 -16 -7h-85q-67 0 -75 -2q-11 -3 -32 -30q-5 -8 -9 -8q-8 0 -12 5.5t-4 9.5q0 7 12 26zM398 303q1 0 2.5 3t0.5 5 q-65 195 -78 215q-4 9 -8 0q-69 -184 -78 -219q-2 -7 5 -7q14 0 48.5 0.5t63.5 1t44 1.5zM353 661q7 0 16 -26q6 -19 44 -124q95 -267 144 -385q23 -58 40.5 -75t53.5 -26q24 -7 24 -17q0 -13 -32 -13q-15 0 -59 2.5t-67 2.5q-17 0 -38 -1t-33 -1q-31 0 -31 12t24 16 q42 8 42 34q0 5 -2 17q-6 33 -56 171q-3 10 -34 10q-136 0 -164 -4q-6 0 -11 -8q-52 -130 -52 -175q0 -28 49 -43q27 -8 27 -18q0 -13 -28 -13q-6 0 -32 1.5t-47 1.5t-60 -2.5t-44 -2.5q-23 0 -23 10q0 13 22 20q41 14 56.5 26.5t35.5 58.5q12 27 86 217.5t93 237.5 q1 3 9 26q3 9 7 17l24 40q11 13 16 13z"/>
<glyph glyph-name="Adieresis" horiz-adv-x="676" unicode="Ä" d="M450 777q17 0 29.5 -14.5t12.5 -32.5t-13.5 -31t-31.5 -13q-17 0 -30 12.5t-13 31.5q0 21 13.5 34t32.5 13zM249 778q18 0 31 -14.5t13 -33.5q0 -21 -14 -32.5t-34 -11.5q-15 0 -28 12t-13 34q0 18 13 32t32 14zM398 303q1 0 2.5 3t0.5 5q-65 195 -78 215q-4 9 -8 0 q-69 -184 -78 -219q-2 -7 5 -7q14 0 48.5 0.5t63.5 1t44 1.5zM353 661q7 0 16 -26q6 -19 44 -124q95 -267 144 -385q23 -58 40.5 -75t53.5 -26q24 -7 24 -17q0 -13 -32 -13q-15 0 -59 2.5t-67 2.5q-17 0 -38 -1t-33 -1q-31 0 -31 12t24 16q42 8 42 34q0 5 -2 17 q-6 33 -56 171q-3 10 -34 10q-136 0 -164 -4q-6 0 -11 -8q-52 -130 -52 -175q0 -28 49 -43q27 -8 27 -18q0 -13 -28 -13q-6 0 -32 1.5t-47 1.5t-60 -2.5t-44 -2.5q-23 0 -23 10q0 13 22 20q41 14 56.5 26.5t35.5 58.5q12 27 86 217.5t93 237.5q1 3 9 26q3 9 7 17l24 40 q11 13 16 13z"/>
<glyph glyph-name="Aring" horiz-adv-x="676" unicode="Å" d="M348 822q-20 0 -33 -15.5t-13 -38.5q0 -25 13 -39.5t33 -14.5t33 14.5t13 41.5q0 22 -13.5 37t-32.5 15zM348 853q38 0 61.5 -25t23.5 -60t-23.5 -60t-61.5 -25t-61.5 25t-23.5 60t23.5 60t61.5 25zM398 303q1 0 2.5 3t0.5 5q-65 195 -78 215q-4 9 -8 0 q-69 -184 -78 -219q-2 -7 5 -7q14 0 48.5 0.5t63.5 1t44 1.5zM353 661q7 0 16 -26q6 -19 44 -124q95 -267 144 -385q23 -58 40.5 -75t53.5 -26q24 -7 24 -17q0 -13 -32 -13q-15 0 -59 2.5t-67 2.5q-17 0 -38 -1t-33 -1q-31 0 -31 12t24 16q42 8 42 34q0 5 -2 17 q-6 33 -56 171q-3 10 -34 10q-136 0 -164 -4q-6 0 -11 -8q-52 -130 -52 -175q0 -28 49 -43q27 -8 27 -18q0 -13 -28 -13q-6 0 -32 1.5t-47 1.5t-60 -2.5t-44 -2.5q-23 0 -23 10q0 13 22 20q41 14 56.5 26.5t35.5 58.5q12 27 86 217.5t93 237.5q1 3 9 26q3 9 7 17l24 40 q11 13 16 13z"/>
<glyph glyph-name="AE" horiz-adv-x="903" unicode="Æ" d="M468 327q9 0 9 16q0 1 1 110t1 122q0 17 -2 17q-3 0 -18 -22q-55 -86 -127 -230q-3 -10 7 -12q15 -1 129 -1zM504 643h201q14 0 28 1t25 2t19.5 2t13.5 2t6 1q3 0 7.5 -5t4.5 -11q0 -18 15 -104q1 -6 -2.5 -12.5t-8.5 -6.5q-12 0 -22 22q-31 65 -67 70q-10 2 -58 2 q-22 0 -56.5 -0.5t-37.5 -0.5q-4 0 -7 -4t-3 -7q-1 -6 -1 -49q0 -23 0.5 -90.5t0.5 -102.5q0 -22 10 -22q116 0 135 4q20 5 37 44q4 6 11.5 11.5t11.5 5.5t6.5 -7t0.5 -17q-5 -25 -5 -79q0 -17 1 -38v-20q0 -19 -11 -19q-12 0 -21 24q-8 30 -18.5 39t-42.5 9q-7 0 -41.5 0.5 t-60.5 0.5q-10 0 -12 -13q-2 -12 -2 -47q0 -87 3 -132q2 -51 47 -58q30 -4 107 -4h19q29 1 49 16t60 61q19 22 24 22q4 0 8.5 -6.5t4.5 -12.5q0 -1 -1 -4q-15 -46 -42 -101q-8 -14 -36 -14q-6 0 -41.5 1.5t-96 2.5t-126.5 1q-13 0 -66 -2.5t-67 -2.5q-10 0 -16.5 3.5 t-6.5 7.5q0 13 25 19q38 8 49 20.5t15 43.5q4 35 4 182q0 11 -7 11q-46 2 -109 2q-44 0 -52 -1q-3 0 -10 -5.5t-9 -9.5q-103 -194 -103 -210q0 -17 44 -29q20 -5 20 -12t-6.5 -13.5t-18.5 -6.5q-10 0 -38.5 1.5t-51.5 1.5q-16 0 -64 -3t-54 -3q-9 0 -17.5 4t-8.5 9 q0 14 34 20q42 6 68 23.5t61 67.5q44 61 275 471q7 11 -7 15q-8 2 -39.5 6.5t-39.5 6.5q-19 6 -19 16q0 12 29 12q18 0 73.5 -1t76.5 -1z"/>
<glyph glyph-name="Ccedilla" horiz-adv-x="717" unicode="Ç" d="M431 661q50 0 118 -16q14 -2 41.5 -10t34.5 -9q15 0 15 -30q0 -11 3.5 -45t3.5 -46q0 -29 -15 -29q-7 0 -16 26q-14 54 -41 75q-70 52 -160 52q-117 0 -190.5 -83.5t-73.5 -200.5q0 -95 35 -165q40 -79 112 -119.5t141 -40.5q61 0 110 27q53 28 92 97q17 24 22 25 q9 0 9 -20q0 -9 -1 -12q-4 -37 -39 -101q-7 -15 -32 -26q-15 -7 -62 -16t-99 -11l-26 -35q-3 -7 7 -13q18 -9 26 -14t19.5 -15t16.5 -22t5 -28q0 -44 -52 -87q-43 -33 -73 -33q-15 0 -25 15q-4 7 -4 15t4 16q6 10 14 9q37 -7 42 -7q18 0 28.5 12.5t10.5 28.5q0 21 -19 35.5 t-42 14.5q-10 0 -18 -1q-3 0 -9 5.5t-6 9.5q0 6 7 14q5 6 62 79q-92 3 -164.5 39t-108.5 78q-84 97 -84 230q0 77 35 142t75 98q113 92 271 92z"/>
<glyph glyph-name="Egrave" horiz-adv-x="563" unicode="È" d="M194 841q7 0 40 -28q7 -7 26 -24t37 -34t31 -31q17 -17 10 -25q-3 -6 -15 -6q-11 0 -21 5q-62 30 -133 79q-21 13 -21 24q0 9 19 25q17 15 27 15zM223 643h147q70 0 92 3q2 1 5 -3t4 -8q0 -26 1 -57t1 -38q0 -26 -15 -26q-11 0 -16 24q-9 37 -24.5 50.5t-42.5 17.5 q-32 5 -102 5q-28 0 -40 -1q-2 0 -4.5 -2t-6 -9t-4.5 -17q-4 -38 -4 -194v-15.5t0.5 -12.5t0.5 -6q3 -10 7 -10h65q50 0 69.5 3.5t28 12.5t18.5 34q8 21 18 21q11 0 8 -22q-3 -42 -3 -72q0 -15 1.5 -34.5t1.5 -30.5q0 -25 -11 -25t-17 22q-11 35 -22 42.5t-57 9.5 q-32 2 -99 2q-3 0 -6 -3.5t-3 -5.5q-3 -14 -3 -102v-55q0 -56 10 -83q6 -18 19 -22q40 -7 91 -7q69 0 95 7q52 13 83 74q14 28 23 28t9 -20q0 -1 -0.5 -3.5t-0.5 -3.5q-1 -8 -16 -54.5t-20 -52.5q-9 -12 -17 -12l-49 2q-48 2 -126 4t-150 2q-28 0 -62 -2.5t-51 -2.5 q-30 0 -30 13q0 9 28 16q41 10 55.5 22.5t17.5 50.5q8 112 8 284v118q0 37 -1 51q-2 33 -12.5 46t-43.5 20q-29 7 -29 17q0 14 28 14q21 0 69 -2t84 -2z"/>
<glyph glyph-name="Eacute" horiz-adv-x="563" unicode="É" d="M368 828q9 8 20 8q3 0 7 -1t5 -1q31 -21 31 -36q0 -6 -7 -14.5t-15 -13.5q-67 -45 -146 -80q-12 -5 -21 -5q-10 0 -15 5q-1 0 -1 4q0 11 13 23q72 68 129 111zM223 643h147q70 0 92 3q2 1 5 -3t4 -8q0 -26 1 -57t1 -38q0 -26 -15 -26q-11 0 -16 24q-9 37 -24.5 50.5 t-42.5 17.5q-32 5 -102 5q-28 0 -40 -1q-2 0 -4.5 -2t-6 -9t-4.5 -17q-4 -38 -4 -194v-15.5t0.5 -12.5t0.5 -6q3 -10 7 -10h65q50 0 69.5 3.5t28 12.5t18.5 34q8 21 18 21q11 0 8 -22q-3 -42 -3 -72q0 -15 1.5 -34.5t1.5 -30.5q0 -25 -11 -25t-17 22q-11 35 -22 42.5 t-57 9.5q-32 2 -99 2q-3 0 -6 -3.5t-3 -5.5q-3 -14 -3 -102v-55q0 -56 10 -83q6 -18 19 -22q40 -7 91 -7q69 0 95 7q52 13 83 74q14 28 23 28t9 -20q0 -1 -0.5 -3.5t-0.5 -3.5q-1 -8 -16 -54.5t-20 -52.5q-9 -12 -17 -12l-49 2q-48 2 -126 4t-150 2q-28 0 -62 -2.5t-51 -2.5 q-30 0 -30 13q0 9 28 16q41 10 55.5 22.5t17.5 50.5q8 112 8 284v118q0 37 -1 51q-2 33 -12.5 46t-43.5 20q-29 7 -29 17q0 14 28 14q21 0 69 -2t84 -2z"/>
<glyph glyph-name="Ecircumflex" horiz-adv-x="563" unicode="Ê" d="M288 820q11 0 41 -25q10 -9 90 -77q14 -8 14 -20q0 -9 -12 -9q-9 0 -30 9q-19 9 -53 25.5t-45 21.5q-6 4 -18 -1q-36 -16 -94 -45q-2 -1 -13.5 -5.5t-16.5 -4.5q-15 0 -15 7t16 23q13 9 48 39t48 40q28 22 40 22zM223 643h147q70 0 92 3q2 1 5 -3t4 -8q0 -26 1 -57t1 -38 q0 -26 -15 -26q-11 0 -16 24q-9 37 -24.5 50.5t-42.5 17.5q-32 5 -102 5q-28 0 -40 -1q-2 0 -4.5 -2t-6 -9t-4.5 -17q-4 -38 -4 -194v-15.5t0.5 -12.5t0.5 -6q3 -10 7 -10h65q50 0 69.5 3.5t28 12.5t18.5 34q8 21 18 21q11 0 8 -22q-3 -42 -3 -72q0 -15 1.5 -34.5t1.5 -30.5 q0 -25 -11 -25t-17 22q-11 35 -22 42.5t-57 9.5q-32 2 -99 2q-3 0 -6 -3.5t-3 -5.5q-3 -14 -3 -102v-55q0 -56 10 -83q6 -18 19 -22q40 -7 91 -7q69 0 95 7q52 13 83 74q14 28 23 28t9 -20q0 -1 -0.5 -3.5t-0.5 -3.5q-1 -8 -16 -54.5t-20 -52.5q-9 -12 -17 -12l-49 2 q-48 2 -126 4t-150 2q-28 0 -62 -2.5t-51 -2.5q-30 0 -30 13q0 9 28 16q41 10 55.5 22.5t17.5 50.5q8 112 8 284v118q0 37 -1 51q-2 33 -12.5 46t-43.5 20q-29 7 -29 17q0 14 28 14q21 0 69 -2t84 -2z"/>
<glyph glyph-name="Edieresis" horiz-adv-x="563" unicode="Ë" d="M386 789q17 0 29.5 -14.5t12.5 -32.5t-13.5 -31t-31.5 -13q-17 0 -30 12.5t-13 31.5q0 21 13.5 34t32.5 13zM185 790q18 0 31 -14.5t13 -33.5q0 -21 -14 -32.5t-34 -11.5q-15 0 -28 12t-13 34q0 18 13 32t32 14zM223 643h147q70 0 92 3q2 1 5 -3t4 -8q0 -26 1 -57t1 -38 q0 -26 -15 -26q-11 0 -16 24q-9 37 -24.5 50.5t-42.5 17.5q-32 5 -102 5q-28 0 -40 -1q-2 0 -4.5 -2t-6 -9t-4.5 -17q-4 -38 -4 -194v-15.5t0.5 -12.5t0.5 -6q3 -10 7 -10h65q50 0 69.5 3.5t28 12.5t18.5 34q8 21 18 21q11 0 8 -22q-3 -42 -3 -72q0 -15 1.5 -34.5t1.5 -30.5 q0 -25 -11 -25t-17 22q-11 35 -22 42.5t-57 9.5q-32 2 -99 2q-3 0 -6 -3.5t-3 -5.5q-3 -14 -3 -102v-55q0 -56 10 -83q6 -18 19 -22q40 -7 91 -7q69 0 95 7q52 13 83 74q14 28 23 28t9 -20q0 -1 -0.5 -3.5t-0.5 -3.5q-1 -8 -16 -54.5t-20 -52.5q-9 -12 -17 -12l-49 2 q-48 2 -126 4t-150 2q-28 0 -62 -2.5t-51 -2.5q-30 0 -30 13q0 9 28 16q41 10 55.5 22.5t17.5 50.5q8 112 8 284v118q0 37 -1 51q-2 33 -12.5 46t-43.5 20q-29 7 -29 17q0 14 28 14q21 0 69 -2t84 -2z"/>
<glyph glyph-name="Igrave" horiz-adv-x="339" unicode="Ì" d="M81 844q7 0 40 -28q7 -7 26 -24t37 -34t31 -31q17 -17 10 -25q-3 -6 -15 -6q-11 0 -21 5q-62 30 -133 79q-21 13 -21 24q0 9 19 25q17 15 27 15zM128 326q0 170 -3 219q-1 22 -2.5 30t-7 18.5t-17 14.5t-32.5 8q-28 5 -28 18q0 12 25 12q12 0 52 -1.5t57 -1.5 q26 0 58.5 1.5t48.5 1.5q25 0 25 -12t-26 -17q-21 -4 -33 -10t-18 -18t-6.5 -15l-3.5 -21q-6 -40 -6 -294q0 -101 3 -149q2 -44 14.5 -60.5t58.5 -25.5q26 -4 26 -17t-27 -13q-28 0 -83 3t-66 3q-14 0 -35.5 -1t-40.5 -1q-26 0 -26 14q0 11 30 17q36 8 45.5 21.5t12.5 51.5 q5 58 5 224z"/>
<glyph glyph-name="Iacute" horiz-adv-x="339" unicode="Í" d="M258 838q9 8 20 8q3 0 7 -1t5 -1q31 -21 31 -36q0 -6 -7 -15t-15 -13q-67 -45 -146 -80q-12 -5 -21 -5q-10 0 -15 5q-1 0 -1 4q0 11 13 23q72 68 129 111zM128 326q0 170 -3 219q-1 22 -2.5 30t-7 18.5t-17 14.5t-32.5 8q-28 5 -28 18q0 12 25 12q12 0 52 -1.5t57 -1.5 q26 0 58.5 1.5t48.5 1.5q25 0 25 -12t-26 -17q-21 -4 -33 -10t-18 -18t-6.5 -15l-3.5 -21q-6 -40 -6 -294q0 -101 3 -149q2 -44 14.5 -60.5t58.5 -25.5q26 -4 26 -17t-27 -13q-28 0 -83 3t-66 3q-14 0 -35.5 -1t-40.5 -1q-26 0 -26 14q0 11 30 17q36 8 45.5 21.5t12.5 51.5 q5 58 5 224z"/>
<glyph glyph-name="Icircumflex" horiz-adv-x="339" unicode="Î" d="M178 827q11 0 41 -25q10 -9 90 -77q14 -8 14 -20q0 -9 -12 -9q-9 0 -30 9q-19 9 -53 25.5t-45 21.5q-6 4 -18 -1q-36 -16 -94 -45q-2 -1 -13.5 -5.5t-16.5 -4.5q-15 0 -15 8q0 6 16 22q13 9 48 39t48 40q28 22 40 22zM128 326q0 170 -3 219q-1 22 -2.5 30t-7 18.5 t-17 14.5t-32.5 8q-28 5 -28 18q0 12 25 12q12 0 52 -1.5t57 -1.5q26 0 58.5 1.5t48.5 1.5q25 0 25 -12t-26 -17q-21 -4 -33 -10t-18 -18t-6.5 -15l-3.5 -21q-6 -40 -6 -294q0 -101 3 -149q2 -44 14.5 -60.5t58.5 -25.5q26 -4 26 -17t-27 -13q-28 0 -83 3t-66 3 q-14 0 -35.5 -1t-40.5 -1q-26 0 -26 14q0 11 30 17q36 8 45.5 21.5t12.5 51.5q5 58 5 224z"/>
<glyph glyph-name="Idieresis" horiz-adv-x="339" unicode="Ï" d="M274 789q17 0 29.5 -14.5t12.5 -32.5t-13.5 -31t-31.5 -13q-17 0 -30 12.5t-13 31.5q0 21 13.5 34t32.5 13zM73 790q18 0 31 -14.5t13 -33.5q0 -21 -14 -32.5t-34 -11.5q-15 0 -28 12t-13 34q0 18 13 32t32 14zM128 326q0 170 -3 219q-1 22 -2.5 30t-7 18.5t-17 14.5 t-32.5 8q-28 5 -28 18q0 12 25 12q12 0 52 -1.5t57 -1.5q26 0 58.5 1.5t48.5 1.5q25 0 25 -12t-26 -17q-21 -4 -33 -10t-18 -18t-6.5 -15l-3.5 -21q-6 -40 -6 -294q0 -101 3 -149q2 -44 14.5 -60.5t58.5 -25.5q26 -4 26 -17t-27 -13q-28 0 -83 3t-66 3q-14 0 -35.5 -1 t-40.5 -1q-26 0 -26 14q0 11 30 17q36 8 45.5 21.5t12.5 51.5q5 58 5 224z"/>
<glyph glyph-name="Eth" horiz-adv-x="755" unicode="Ð" d="M393 313l-176 -2q-6 0 -6 -10q3 -185 4 -205q4 -40 22 -51q14 -10 39.5 -18t43.5 -8q41 0 94 16.5t92 48.5q103 88 103 250q0 65 -29.5 128.5t-77.5 100.5q-37 27 -94 42.5t-114 15.5q-55 0 -68 -8q-9 -6 -11 -14q-1 -5 -1.5 -45t-1 -100.5t-1.5 -93.5q0 -10 7 -10h172 q16 0 16 -8q0 -10 -4 -19.5t-9 -9.5zM44 349l76 1q8 0 8 11l-4 166q-2 51 -11 66t-53 21q-23 4 -23 15q0 14 24 14h29q20 0 110 4.5t138 4.5q94 0 165.5 -30t111.5 -67q40 -39 65.5 -100.5t25.5 -120.5q0 -100 -49 -177.5t-111 -111.5q-97 -56 -238 -56q-90 0 -196 8 q-19 1 -53 1q-32 0 -32 15q0 11 21 15q51 6 64 25t14 80q0 30 1 83.5t1 83.5q0 11 -6 11l-73 1q-13 0 -13 15q0 22 8 22z"/>
<glyph glyph-name="Ntilde" horiz-adv-x="771" unicode="Ñ" d="M268 725q31 46 36 52q8 10 28 10h74q67 0 81 4q9 3 16 9.5t12.5 14t6.5 8.5q6 8 10 8t9 -5.5t7 -9.5q4 -9 -3 -16q-6 -6 -28.5 -35t-27.5 -34q-7 -7 -16 -7h-85q-67 0 -75 -2q-11 -3 -32 -30q-5 -8 -9 -8q-8 0 -12 5.5t-4 9.5q0 7 12 26zM15 634q0 12 33 12q7 0 50 -1.5 t72 -1.5q8 0 21 -13q40 -48 79 -99q47 -59 332 -370q4 -4 7 -0.5t3 7.5q3 23 3 87q0 22 -0.5 88t-0.5 109q0 48 -5 100q-1 20 -13.5 35t-49.5 26q-27 8 -27 22q0 9 26 9q12 0 40.5 -0.5t45.5 -0.5q19 0 50.5 2t43.5 2q23 0 23 -11q0 -13 -24 -20q-35 -8 -48.5 -21.5 t-15.5 -51.5q-11 -198 -11 -405q0 -24 3.5 -76t3.5 -57q0 -21 -14 -21q-10 0 -23.5 10.5t-21.5 21.5q-7 8 -27 35t-35 45q-45 54 -177.5 206.5t-179.5 208.5q-3 4 -7 3t-4 -5q0 -7 -1.5 -26.5t-2.5 -45.5t-1 -61t-1 -118.5t-1 -113.5q0 -12 0.5 -26t0.5 -17q3 -35 15 -50 t48 -25q25 -6 25 -18q0 -13 -32 -13q-14 0 -51 2.5t-56 2.5q-12 0 -34.5 -1t-30.5 -1q-26 0 -26 11t20 17q29 10 39.5 15.5t19.5 24t11 54.5q19 308 19 404q0 38 -7 48q-18 22 -31.5 29t-43.5 15q-6 1 -9 2q-22 6 -22 16z"/>
<glyph glyph-name="Ograve" horiz-adv-x="781" unicode="Ò" d="M314 854q7 0 40 -28q7 -7 26 -24t37 -34t31 -31q17 -17 10 -25q-3 -6 -15 -6q-11 0 -21 5q-62 30 -133 79q-21 13 -21 24q0 9 19 25q17 15 27 15zM363 628q-33 0 -73 -16t-65 -41q-78 -76 -78 -235q0 -119 78 -219.5t192 -100.5q88 0 132 48q35 31 60 92.5t25 143.5 q0 81 -32.5 155t-88.5 119q-30 24 -72.5 39t-77.5 15zM385 661q145 0 246 -95t101 -236q0 -98 -40.5 -172t-101.5 -118q-83 -58 -197 -58q-76 0 -145 30.5t-115 83.5q-83 92 -83 226q0 165 130 269q37 30 95 50t110 20z"/>
<glyph glyph-name="Oacute" horiz-adv-x="781" unicode="Ó" d="M461 847q9 8 20 8q3 0 7 -1t5 -1q31 -21 31 -36q0 -6 -7 -15t-15 -13q-67 -45 -146 -80q-12 -5 -21 -5q-10 0 -15 5q-1 0 -1 4q0 11 13 23q72 68 129 111zM363 628q-33 0 -73 -16t-65 -41q-78 -76 -78 -235q0 -119 78 -219.5t192 -100.5q88 0 132 48q35 31 60 92.5 t25 143.5q0 81 -32.5 155t-88.5 119q-30 24 -72.5 39t-77.5 15zM385 661q145 0 246 -95t101 -236q0 -98 -40.5 -172t-101.5 -118q-83 -58 -197 -58q-76 0 -145 30.5t-115 83.5q-83 92 -83 226q0 165 130 269q37 30 95 50t110 20z"/>
<glyph glyph-name="Ocircumflex" horiz-adv-x="781" unicode="Ô" d="M398 834q11 0 41 -25q10 -9 90 -77q14 -8 14 -20q0 -9 -12 -9q-9 0 -30 9q-19 9 -53 25.5t-45 21.5q-6 4 -18 -1q-36 -16 -94 -45q-2 -1 -13.5 -5.5t-16.5 -4.5q-15 0 -15 7t16 23q13 9 48 39t48 40q28 22 40 22zM363 628q-33 0 -73 -16t-65 -41q-78 -76 -78 -235 q0 -119 78 -219.5t192 -100.5q88 0 132 48q35 31 60 92.5t25 143.5q0 81 -32.5 155t-88.5 119q-30 24 -72.5 39t-77.5 15zM385 661q145 0 246 -95t101 -236q0 -98 -40.5 -172t-101.5 -118q-83 -58 -197 -58q-76 0 -145 30.5t-115 83.5q-83 92 -83 226q0 165 130 269 q37 30 95 50t110 20z"/>
<glyph glyph-name="Otilde" horiz-adv-x="781" unicode="Õ" d="M255 744q31 46 36 52q8 10 28 10h74q67 0 81 4q9 3 16 9.5t12.5 14t6.5 8.5q6 8 10 8q3 0 8.5 -5.5t7.5 -9.5q4 -9 -3 -16q-6 -6 -28.5 -35t-27.5 -34q-7 -7 -16 -7q-4 0 -35 0.5t-50 0.5q-63 0 -75 -3q-11 -3 -32 -30q-5 -8 -9 -8q-8 0 -12 5.5t-4 9.5q0 7 12 26z M363 628q-33 0 -73 -16t-65 -41q-78 -76 -78 -235q0 -119 78 -219.5t192 -100.5q88 0 132 48q35 31 60 92.5t25 143.5q0 81 -32.5 155t-88.5 119q-30 24 -72.5 39t-77.5 15zM385 661q145 0 246 -95t101 -236q0 -98 -40.5 -172t-101.5 -118q-83 -58 -197 -58q-76 0 -145 30.5 t-115 83.5q-83 92 -83 226q0 165 130 269q37 30 95 50t110 20z"/>
<glyph glyph-name="Odieresis" horiz-adv-x="781" unicode="Ö" d="M495 799q17 0 29.5 -14.5t12.5 -32.5t-13.5 -31t-31.5 -13q-17 0 -30 12.5t-13 31.5q0 21 13.5 34t32.5 13zM294 800q18 0 31 -14.5t13 -33.5q0 -21 -14 -32.5t-34 -11.5q-15 0 -28 12t-13 34q0 18 13 32t32 14zM363 628q-33 0 -73 -16t-65 -41q-78 -76 -78 -235 q0 -119 78 -219.5t192 -100.5q88 0 132 48q35 31 60 92.5t25 143.5q0 81 -32.5 155t-88.5 119q-30 24 -72.5 39t-77.5 15zM385 661q145 0 246 -95t101 -236q0 -98 -40.5 -172t-101.5 -118q-83 -58 -197 -58q-76 0 -145 30.5t-115 83.5q-83 92 -83 226q0 165 130 269 q37 30 95 50t110 20z"/>
<glyph glyph-name="multiply" horiz-adv-x="624" unicode="×" d="M93 427q-1 1 -1 3q0 9 23 32q6 8 13 8q6 0 15 -9l161 -162q9 -8 18 -1l164 169q6 7 10 7q5 0 8 -5q20 -20 20 -32q0 -3 -2 -5l-166 -170q-3 -4 -2 -10.5t4 -9.5l167 -166q4 -4 4 -11q0 -15 -20 -35q-4 -4 -9 -4t-11 6l-171 172q-8 8 -12 8t-11 -8l-157 -159 q-10 -9 -14.5 -10t-11.5 5q-16 14 -16 32q0 4 1 5l164 165q9 9 0 17z"/>
<glyph glyph-name="Oslash" horiz-adv-x="781" unicode="Ø" d="M413 15q80 0 133 46q35 33 61.5 95.5t26.5 144.5q0 53 -17.5 111t-45.5 102q-4 7 -8 1q-137 -186 -318 -414q-1 -1 -1 -4t1 -5q32 -32 79.5 -54.5t88.5 -22.5zM360 626q-33 0 -70.5 -15t-62.5 -40q-78 -73 -78 -234q0 -113 67 -207q3 -4 7 1q60 78 176.5 228t144.5 186 q3 5 0 8q-78 73 -184 73zM385 661q107 0 197 -57q4 -2 10 4q5 6 15 19.5t14 17.5q11 14 16 14q10 0 17 -12q2 -1 2.5 -5.5t-1.5 -5.5l-38 -51q-3 -3 0 -6q55 -47 85 -113t30 -137q0 -97 -41 -171t-103 -118q-83 -58 -197 -58q-100 0 -184 53q-9 3 -12 -1q-8 -10 -18 -22 t-17 -20.5t-14 -17.5q-2 -3 -9 -3q-11 0 -16 5q-4 4 -5 10.5t1 8.5q8 11 22.5 30t24.5 32q3 5 -2 10q-112 101 -112 254q0 166 128 267q37 31 96.5 52t110.5 21z"/>
<glyph glyph-name="Ugrave" horiz-adv-x="762" unicode="Ù" d="M310 840q7 0 40 -28q7 -7 26 -24t37 -34t31 -31q17 -17 10 -25q-3 -6 -15 -6q-11 0 -21 5q-62 30 -133 79q-21 13 -21 24q0 9 19 25q17 15 27 15zM37 634q0 12 29 12q22 0 53.5 -1.5t49.5 -1.5q20 0 54 1t43 1q31 0 31 -11q0 -13 -30 -19q-29 -6 -43 -17.5t-18 -39.5 q-4 -24 -4 -167v-112q0 -77 14.5 -118.5t41.5 -72.5q21 -23 63.5 -39t81.5 -16q60 0 115 33t72 107q22 97 22 251q0 81 -4 129q-2 30 -14 43t-52 22q-8 2 -14.5 7.5t-6.5 10.5q0 10 23 10q12 0 40 -1.5t45 -1.5q22 0 50 1t40 1q25 0 25 -11q0 -10 -22 -18q-34 -10 -49 -28.5 t-16 -63.5q-1 -24 -4.5 -106t-4.5 -100q-7 -236 -125 -302q-57 -32 -144 -32q-60 0 -109 19t-72 40q-43 41 -61.5 106t-18.5 188q0 185 -4 237q-3 32 -54 43q-23 6 -23 17z"/>
<glyph glyph-name="Uacute" horiz-adv-x="762" unicode="Ú" d="M483 830q9 8 20 8q3 0 7 -1t5 -1q31 -21 31 -36q0 -6 -7 -15t-15 -13q-67 -45 -146 -80q-12 -5 -21 -5q-10 0 -15 5q-1 0 -1 4q0 11 13 23q72 68 129 111zM37 634q0 12 29 12q22 0 53.5 -1.5t49.5 -1.5q20 0 54 1t43 1q31 0 31 -11q0 -13 -30 -19q-29 -6 -43 -17.5 t-18 -39.5q-4 -24 -4 -167v-112q0 -77 14.5 -118.5t41.5 -72.5q21 -23 63.5 -39t81.5 -16q60 0 115 33t72 107q22 97 22 251q0 81 -4 129q-2 30 -14 43t-52 22q-8 2 -14.5 7.5t-6.5 10.5q0 10 23 10q12 0 40 -1.5t45 -1.5q22 0 50 1t40 1q25 0 25 -11q0 -10 -22 -18 q-34 -10 -49 -28.5t-16 -63.5q-1 -24 -4.5 -106t-4.5 -100q-7 -236 -125 -302q-57 -32 -144 -32q-60 0 -109 19t-72 40q-43 41 -61.5 106t-18.5 188q0 185 -4 237q-3 32 -54 43q-23 6 -23 17z"/>
<glyph glyph-name="Ucircumflex" horiz-adv-x="762" unicode="Û" d="M405 827q11 0 41 -25q10 -9 90 -77q14 -8 14 -20q0 -9 -12 -9q-9 0 -30 9q-19 9 -53 25.5t-45 21.5q-6 4 -18 -1q-36 -16 -94 -45q-2 -1 -13.5 -5.5t-16.5 -4.5q-14 0 -14 8q0 7 15 22q13 9 48 39t48 40q27 22 40 22zM37 634q0 12 29 12q22 0 53.5 -1.5t49.5 -1.5 q20 0 54 1t43 1q31 0 31 -11q0 -13 -30 -19q-29 -6 -43 -17.5t-18 -39.5q-4 -24 -4 -167v-112q0 -77 14.5 -118.5t41.5 -72.5q21 -23 63.5 -39t81.5 -16q60 0 115 33t72 107q22 97 22 251q0 81 -4 129q-2 30 -14 43t-52 22q-8 2 -14.5 7.5t-6.5 10.5q0 10 23 10 q12 0 40 -1.5t45 -1.5q22 0 50 1t40 1q25 0 25 -11q0 -10 -22 -18q-34 -10 -49 -28.5t-16 -63.5q-1 -24 -4.5 -106t-4.5 -100q-7 -236 -125 -302q-57 -32 -144 -32q-60 0 -109 19t-72 40q-43 41 -61.5 106t-18.5 188q0 185 -4 237q-3 32 -54 43q-23 6 -23 17z"/>
<glyph glyph-name="Udieresis" horiz-adv-x="762" unicode="Ü" d="M508 788q17 0 29.5 -14.5t12.5 -32.5t-13.5 -31t-31.5 -13q-17 0 -30 12.5t-13 31.5q0 21 13.5 34t32.5 13zM307 789q18 0 31 -14.5t13 -33.5q0 -21 -14 -32.5t-34 -11.5q-15 0 -28 12t-13 34q0 18 13 32t32 14zM37 634q0 12 29 12q22 0 53.5 -1.5t49.5 -1.5q20 0 54 1 t43 1q31 0 31 -11q0 -13 -30 -19q-29 -6 -43 -17.5t-18 -39.5q-4 -24 -4 -167v-112q0 -77 14.5 -118.5t41.5 -72.5q21 -23 63.5 -39t81.5 -16q60 0 115 33t72 107q22 97 22 251q0 81 -4 129q-2 30 -14 43t-52 22q-8 2 -14.5 7.5t-6.5 10.5q0 10 23 10q12 0 40 -1.5t45 -1.5 q22 0 50 1t40 1q25 0 25 -11q0 -10 -22 -18q-34 -10 -49 -28.5t-16 -63.5q-1 -24 -4.5 -106t-4.5 -100q-7 -236 -125 -302q-57 -32 -144 -32q-60 0 -109 19t-72 40q-43 41 -61.5 106t-18.5 188q0 185 -4 237q-3 32 -54 43q-23 6 -23 17z"/>
<glyph glyph-name="Yacute" horiz-adv-x="622" unicode="Ý" d="M418 828q9 8 20 8q3 0 7 -1t5 -1q31 -21 31 -36q0 -6 -7 -14.5t-15 -13.5q-67 -45 -146 -80q-12 -5 -21 -5q-10 0 -15 5q-1 0 -1 4q0 11 13 23q72 68 129 111zM3 638q0 10 27 10q4 0 45 -2.5t69 -2.5q12 0 33 1t43 1t22 -10q0 -14 -22 -20q-26 -5 -26 -18q0 -6 11 -28 q22 -42 131 -219q1 -2 5 -1.5t5 3.5q26 38 129 206q10 17 10 29q0 19 -39 28q-21 6 -21 20q0 9 23 9q13 0 33.5 -0.5t31.5 -0.5q21 0 63.5 2t47.5 2q21 0 21 -10t-26 -18q-58 -15 -109 -78q-28 -35 -78.5 -113t-54.5 -83q-25 -36 -25 -61q0 -164 6 -212q3 -17 17 -27t54 -20 q27 -7 27 -18t-30 -11q-6 0 -40 2t-47 2q-36 0 -87 -3t-53 -3q-25 0 -25 11q0 13 28 18q63 14 65 48q3 41 3 207q0 12 -9 36q-28 60 -127 210q-36 54 -53.5 70.5t-49.5 23.5q-28 6 -28 20z"/>
<glyph glyph-name="Thorn" horiz-adv-x="549" unicode="Þ" d="M420 327q0 81 -46 117.5t-111 36.5q-41 0 -47 -15q-5 -17 -5 -33v-227q0 -14 10 -17q28 -8 53 -8q56 0 101 39.5t45 106.5zM123 139q4 55 4 395q0 14 -1 24.5t-1.5 18t-4 13t-4.5 8.5t-8.5 6t-9.5 4t-13 4.5t-15 4.5q-20 6 -20 16q0 12 24 12q14 0 48.5 -1t46.5 -1 q10 0 46 1t54 1q25 0 25 -13q0 -10 -26 -17q-42 -10 -49.5 -22t-7.5 -74q0 -3 2.5 -6t4.5 -3t32 1.5t51 1.5q85 0 146.5 -43.5t61.5 -134.5q0 -87 -61 -138.5t-150 -51.5q-49 0 -79 11q-8 2 -8 -5q0 -65 5.5 -83.5t21.5 -25.5q24 -9 51 -14q8 -1 15.5 -5.5t7.5 -10.5 q0 -15 -32 -15q-8 0 -49.5 1.5t-66.5 1.5q-18 0 -54 -1.5t-50 -1.5q-23 0 -23 13q0 12 22 18q43 12 51.5 26.5t12.5 84.5z"/>
<glyph glyph-name="germandbls" horiz-adv-x="502" unicode="ß" d="M315 714q70 0 106 -45.5t36 -96.5q0 -10 -0.5 -19t-2.5 -17l-3.5 -14t-5 -12.5t-5 -10t-6.5 -9.5t-6.5 -7.5t-7.5 -8t-7 -7.5q-5 -6 -64 -60q-1 -1 -7 -6.5t-7.5 -7.5t-6.5 -7t-6.5 -7t-5 -7t-4.5 -8.5t-2 -8t-1 -9.5q0 -22 25 -38q60 -44 86 -65q18 -15 26.5 -24.5 t16.5 -29.5t8 -46q0 -46 -30.5 -83t-76.5 -57q-35 -15 -62 -15q-10 0 -21 2.5t-23 13t-12 26.5q0 8 5.5 20.5t10.5 17.5q14 9 20 4q15 -12 37.5 -21t34.5 -9q32 0 48 16t16 40q0 19 -6 33.5t-27 32t-31 24.5t-48 32q-62 39 -62 98q0 24 19 45q30 30 62 60q41 38 57 71.5 t16 74.5q0 38 -28.5 72t-79.5 34t-74.5 -29.5t-37.5 -92.5q-12 -54 -12 -290q0 -149 5 -204q1 -14 8.5 -21t22.5 -12q24 -9 24 -16q0 -12 -28 -12q-4 0 -27 1t-43 1q-12 0 -41 -2t-36 -2q-25 0 -25 10t26 17q21 7 28 15t10 21q4 20 4 171q0 30 -0.5 61.5t-0.5 33.5 q0 15 -14 17q-4 1 -16.5 2.5t-16.5 2.5t-4.5 9.5t3.5 12.5t10 8t14 9t13 9q12 10 12 20q0 147 77 232q63 67 144 67z"/>
<glyph glyph-name="agrave" horiz-adv-x="397" unicode="à" d="M135 655q11 0 26 -35q34 -70 60 -149q8 -25 -4 -25t-23 16q-54 70 -94 140q-9 17 -8 26q0 12 16 18q18 9 27 9zM178 42q22 0 54 17q4 3 8 12.5t4 12.5q2 24 2 78q0 8 -8 8q-41 0 -103 -30q-20 -14 -20 -38q0 -29 21 -44.5t42 -15.5zM208 404q58 0 90 -47q20 -28 20 -83 q0 -23 -2 -98.5t-2 -77.5q0 -21 9 -33t16.5 -14.5t14.5 -2.5q17 0 38 15q3 2 6 -3q3 -3 3 -10q0 -16 -29.5 -39t-60.5 -23q-48 0 -64 50q0 1 -2.5 3t-3.5 1q-47 -33 -90 -46q-17 -6 -40 -6q-27 0 -48 28t-21 65q0 27 19 51q8 10 40 25q9 3 59.5 18t57.5 17q29 9 29 18 q2 18 2 82q0 22 -22 44.5t-56 22.5q-26 0 -41 -11q-8 -3 -8 -29q0 -2 0.5 -6t0.5 -6q0 -5 -6 -11q-7 -6 -34 -19.5t-31 -13.5t-8 4.5t-4 8.5q0 39 75 88q21 15 49.5 26.5t43.5 11.5z"/>
<glyph glyph-name="aacute" horiz-adv-x="397" unicode="á" d="M234 626q10 21 24 21q34 0 43 -10q5 -7 -5 -27q-46 -88 -92 -147q-15 -19 -26 -19q-13 0 -5 27q26 77 61 155zM178 42q22 0 54 17q4 3 8 12.5t4 12.5q2 24 2 78q0 8 -8 8q-41 0 -103 -30q-20 -14 -20 -38q0 -29 21 -44.5t42 -15.5zM208 404q58 0 90 -47q20 -28 20 -83 q0 -23 -2 -98.5t-2 -77.5q0 -21 9 -33t16.5 -14.5t14.5 -2.5q17 0 38 15q3 2 6 -3q3 -3 3 -10q0 -16 -29.5 -39t-60.5 -23q-48 0 -64 50q0 1 -2.5 3t-3.5 1q-47 -33 -90 -46q-17 -6 -40 -6q-27 0 -48 28t-21 65q0 27 19 51q8 10 40 25q9 3 59.5 18t57.5 17q29 9 29 18 q2 18 2 82q0 22 -22 44.5t-56 22.5q-26 0 -41 -11q-8 -3 -8 -29q0 -2 0.5 -6t0.5 -6q0 -5 -6 -11q-7 -6 -34 -19.5t-31 -13.5t-8 4.5t-4 8.5q0 39 75 88q21 15 49.5 26.5t43.5 11.5z"/>
<glyph glyph-name="acircumflex" horiz-adv-x="397" unicode="â" d="M190 637q9 0 28 -38q32 -58 66 -125q7 -14 7 -24t-9 -10q-13 0 -27 19q-36 49 -63 89q-4 8 -9 1q-52 -76 -64 -92q-10 -15 -21 -15q-5 0 -8 7.5t0 15.5q14 33 72 139q18 33 28 33zM178 42q22 0 54 17q4 3 8 12.5t4 12.5q2 24 2 78q0 8 -8 8q-41 0 -103 -30 q-20 -14 -20 -38q0 -29 21 -44.5t42 -15.5zM208 404q58 0 90 -47q20 -28 20 -83q0 -23 -2 -98.5t-2 -77.5q0 -21 9 -33t16.5 -14.5t14.5 -2.5q17 0 38 15q3 2 6 -3q3 -3 3 -10q0 -16 -29.5 -39t-60.5 -23q-48 0 -64 50q0 1 -2.5 3t-3.5 1q-47 -33 -90 -46q-17 -6 -40 -6 q-27 0 -48 28t-21 65q0 27 19 51q8 10 40 25q9 3 59.5 18t57.5 17q29 9 29 18q2 18 2 82q0 22 -22 44.5t-56 22.5q-26 0 -41 -11q-8 -3 -8 -29q0 -2 0.5 -6t0.5 -6q0 -5 -6 -11q-7 -6 -34 -19.5t-31 -13.5t-8 4.5t-4 8.5q0 39 75 88q21 15 49.5 26.5t43.5 11.5z"/>
<glyph glyph-name="atilde" horiz-adv-x="397" unicode="ã" d="M123 512q-13 0 -34 -23q-5 -6 -10 -6q-2 0 -7.5 7t-5.5 9q0 1 9 12.5t26 28.5t33 27q7 6 15 4t44.5 -6t55.5 -4q21 0 29 6q12 10 26 26q1 1 3 1q4 0 11 -6t7 -9q0 -4 -3 -6l-16.5 -16.5t-29.5 -30.5t-16 -17q-8 -8 -12 -8t-53 5.5t-72 5.5zM178 42q22 0 54 17q4 3 8 12.5 t4 12.5q2 24 2 78q0 8 -8 8q-41 0 -103 -30q-20 -14 -20 -38q0 -29 21 -44.5t42 -15.5zM208 404q58 0 90 -47q20 -28 20 -83q0 -23 -2 -98.5t-2 -77.5q0 -21 9 -33t16.5 -14.5t14.5 -2.5q17 0 38 15q3 2 6 -3q3 -3 3 -10q0 -16 -29.5 -39t-60.5 -23q-48 0 -64 50q0 1 -2.5 3 t-3.5 1q-47 -33 -90 -46q-17 -6 -40 -6q-27 0 -48 28t-21 65q0 27 19 51q8 10 40 25q9 3 59.5 18t57.5 17q29 9 29 18q2 18 2 82q0 22 -22 44.5t-56 22.5q-26 0 -41 -11q-8 -3 -8 -29q0 -2 0.5 -6t0.5 -6q0 -5 -6 -11q-7 -6 -34 -19.5t-31 -13.5t-8 4.5t-4 8.5q0 39 75 88 q21 15 49.5 26.5t43.5 11.5z"/>
<glyph glyph-name="adieresis" horiz-adv-x="397" unicode="ä" d="M276 599q17 0 30 -14t13 -31q0 -18 -13.5 -31t-31.5 -13q-17 0 -30 12.5t-13 30.5q0 21 14 33.5t31 12.5zM107 600q17 0 29 -14t12 -32q0 -21 -13 -32.5t-30 -11.5q-15 0 -28.5 12t-13.5 31t12.5 33t31.5 14zM178 42q22 0 54 17q4 3 8 12.5t4 12.5q2 24 2 78q0 8 -8 8 q-41 0 -103 -30q-20 -14 -20 -38q0 -29 21 -44.5t42 -15.5zM208 404q58 0 90 -47q20 -28 20 -83q0 -23 -2 -98.5t-2 -77.5q0 -21 9 -33t16.5 -14.5t14.5 -2.5q17 0 38 15q3 2 6 -3q3 -3 3 -10q0 -16 -29.5 -39t-60.5 -23q-48 0 -64 50q0 1 -2.5 3t-3.5 1q-47 -33 -90 -46 q-17 -6 -40 -6q-27 0 -48 28t-21 65q0 27 19 51q8 10 40 25q9 3 59.5 18t57.5 17q29 9 29 18q2 18 2 82q0 22 -22 44.5t-56 22.5q-26 0 -41 -11q-8 -3 -8 -29q0 -2 0.5 -6t0.5 -6q0 -5 -6 -11q-7 -6 -34 -19.5t-31 -13.5t-8 4.5t-4 8.5q0 39 75 88q21 15 49.5 26.5 t43.5 11.5z"/>
<glyph glyph-name="aring" horiz-adv-x="397" unicode="å" d="M187 600q-19 0 -31.5 -15t-12.5 -37q0 -24 13 -38t32 -14q20 0 32.5 14t12.5 40q0 20 -13.5 35t-32.5 15zM188 629q36 0 59 -24t23 -57t-23 -57.5t-59 -24.5t-59 24.5t-23 57.5t23 57t59 24zM178 42q22 0 54 17q4 3 8 12.5t4 12.5q2 24 2 78q0 8 -8 8q-41 0 -103 -30 q-20 -14 -20 -38q0 -29 21 -44.5t42 -15.5zM208 404q58 0 90 -47q20 -28 20 -83q0 -23 -2 -98.5t-2 -77.5q0 -21 9 -33t16.5 -14.5t14.5 -2.5q17 0 38 15q3 2 6 -3q3 -3 3 -10q0 -16 -29.5 -39t-60.5 -23q-48 0 -64 50q0 1 -2.5 3t-3.5 1q-47 -33 -90 -46q-17 -6 -40 -6 q-27 0 -48 28t-21 65q0 27 19 51q8 10 40 25q9 3 59.5 18t57.5 17q29 9 29 18q2 18 2 82q0 22 -22 44.5t-56 22.5q-26 0 -41 -11q-8 -3 -8 -29q0 -2 0.5 -6t0.5 -6q0 -5 -6 -11q-7 -6 -34 -19.5t-31 -13.5t-8 4.5t-4 8.5q0 39 75 88q21 15 49.5 26.5t43.5 11.5z"/>
<glyph glyph-name="ae" horiz-adv-x="562" unicode="æ" d="M394 365q-33 0 -63 -27q-12 -10 -12 -32v-60q0 -2 3.5 -3.5t4.5 -0.5q78 19 111 35q24 10 24 33q0 9 -3.5 19.5t-20 23t-44.5 12.5zM179 42q16 0 37 10.5t29 25.5q4 11 4 28v70q0 1 -1.5 2.5t-4.5 2.5t-8 0q-66 -22 -91 -36.5t-25 -41.5t17.5 -44t42.5 -17zM40 279 q0 22 31 49q50 41 99 67q21 11 45 11q51 0 88 -51q4 -4 8 0q69 51 119 51q51 0 79.5 -35t28.5 -76q0 -6 -5.5 -13.5t-12.5 -9.5q-108 -30 -192 -56q-9 -4 -9 -12q0 -68 3 -89t15 -36q23 -30 84 -30q20 0 38.5 5.5t28.5 11.5t22 14.5t15 10.5q5 3 10 2.5t5 -3.5q0 -14 -7 -24 q-21 -32 -63 -55t-89 -23q-78 0 -116 58q-6 6 -9 3q-84 -61 -122 -61q-32 0 -61 29t-29 72q0 54 64 76q16 5 57.5 20.5t59.5 20.5q16 5 20 9t4 12q0 17 0.5 40t0.5 28q0 30 -9 40q-27 25 -66 25q-23 0 -37 -12q-9 -7 -8 -19q1 -21 -3 -25q-56 -38 -75 -38q-4 0 -8 4t-4 9z "/>
<glyph glyph-name="ccedilla" horiz-adv-x="392" unicode="ç" d="M255 404q72 0 105 -25q14 -10 14 -31q0 -9 -12 -22.5t-23 -13.5q-4 0 -8 2t-7.5 4.5t-12 9t-15.5 11.5q-25 18 -40 23t-39 5q-16 0 -35 -10t-30 -24q-42 -50 -42 -118q0 -76 43.5 -120.5t109.5 -44.5q57 0 95 34q4 4 8 2.5t4 -8.5q0 -19 -13 -30q-40 -41 -97 -54 q-7 -10 -15 -20t-12.5 -16t-5.5 -7q-3 -6 6 -12q22 -11 33 -18t21 -22t10 -35q0 -42 -49 -82q-40 -31 -69 -31q-16 0 -24 14q-7 15 -1 30q7 9 14 8q30 -6 40 -6q17 0 26.5 11.5t9.5 26.5q0 20 -17 33.5t-39 13.5q-10 0 -17 -1q-4 0 -9.5 5.5t-5.5 9.5q0 5 6 13q22 30 63 79 h-9q-98 0 -154 81q-30 51 -30 115q0 111 99 178q27 20 62.5 31t61.5 11z"/>
<glyph glyph-name="egrave" horiz-adv-x="392" unicode="è" d="M158 655q11 0 26 -35q34 -70 60 -149q8 -25 -4 -25t-23 16q-54 70 -94 140q-9 17 -8 26q0 12 16 18q18 9 27 9zM219 377q-34 0 -60.5 -19.5t-40.5 -54.5q-1 -3 0.5 -7t3.5 -4q5 0 24 -0.5t32 -0.5q11 0 35.5 0.5t37.5 0.5q19 0 26.5 5t7.5 20q0 22 -20 41t-46 19z M229 403q61 0 99 -38q35 -33 35 -84q0 -5 -5.5 -11t-13.5 -6q-182 0 -228 1q-5 0 -8 -8q-5 -13 -5 -35q0 -64 38 -114q17 -24 47.5 -39.5t64.5 -15.5q67 0 91 36q8 12 13 12q8 0 8 -12t-7 -24q-51 -75 -145 -75q-81 0 -130.5 55.5t-49.5 143.5q0 62 31.5 116t88.5 80 q39 18 76 18z"/>
<glyph glyph-name="eacute" horiz-adv-x="392" unicode="é" d="M251 626q11 21 24 21q34 0 43 -10q5 -7 -5 -27q-46 -88 -92 -147q-15 -19 -26 -19q-13 0 -5 27q26 77 61 155zM219 377q-34 0 -60.5 -19.5t-40.5 -54.5q-1 -3 0.5 -7t3.5 -4q5 0 24 -0.5t32 -0.5q11 0 35.5 0.5t37.5 0.5q19 0 26.5 5t7.5 20q0 22 -20 41t-46 19zM229 403 q61 0 99 -38q35 -33 35 -84q0 -5 -5.5 -11t-13.5 -6q-182 0 -228 1q-5 0 -8 -8q-5 -13 -5 -35q0 -64 38 -114q17 -24 47.5 -39.5t64.5 -15.5q67 0 91 36q8 12 13 12q8 0 8 -12t-7 -24q-51 -75 -145 -75q-81 0 -130.5 55.5t-49.5 143.5q0 62 31.5 116t88.5 80q39 18 76 18z "/>
<glyph glyph-name="ecircumflex" horiz-adv-x="392" unicode="ê" d="M211 641q9 0 28 -38q32 -58 66 -125q7 -14 7 -24t-9 -10q-13 0 -27 19q-36 49 -63 89q-4 8 -9 1q-52 -76 -64 -92q-10 -15 -21 -15q-5 0 -8 7.5t0 15.5q14 33 72 139q18 33 28 33zM219 377q-34 0 -60.5 -19.5t-40.5 -54.5q-1 -3 0.5 -7t3.5 -4q5 0 24 -0.5t32 -0.5 q11 0 35.5 0.5t37.5 0.5q19 0 26.5 5t7.5 20q0 22 -20 41t-46 19zM229 403q61 0 99 -38q35 -33 35 -84q0 -5 -5.5 -11t-13.5 -6q-182 0 -228 1q-5 0 -8 -8q-5 -13 -5 -35q0 -64 38 -114q17 -24 47.5 -39.5t64.5 -15.5q67 0 91 36q8 12 13 12q8 0 8 -12t-7 -24 q-51 -75 -145 -75q-81 0 -130.5 55.5t-49.5 143.5q0 62 31.5 116t88.5 80q39 18 76 18z"/>
<glyph glyph-name="edieresis" horiz-adv-x="392" unicode="ë" d="M299 599q17 0 30 -14t13 -31q0 -18 -13.5 -31t-31.5 -13q-17 0 -30 12.5t-13 30.5q0 21 14 33.5t31 12.5zM130 600q17 0 29 -14t12 -32q0 -21 -13 -32.5t-30 -11.5q-15 0 -28.5 12t-13.5 31t12.5 33t31.5 14zM219 377q-34 0 -60.5 -19.5t-40.5 -54.5q-1 -3 0.5 -7t3.5 -4 q5 0 24 -0.5t32 -0.5q11 0 35.5 0.5t37.5 0.5q19 0 26.5 5t7.5 20q0 22 -20 41t-46 19zM229 403q61 0 99 -38q35 -33 35 -84q0 -5 -5.5 -11t-13.5 -6q-182 0 -228 1q-5 0 -8 -8q-5 -13 -5 -35q0 -64 38 -114q17 -24 47.5 -39.5t64.5 -15.5q67 0 91 36q8 12 13 12q8 0 8 -12 t-7 -24q-51 -75 -145 -75q-81 0 -130.5 55.5t-49.5 143.5q0 62 31.5 116t88.5 80q39 18 76 18z"/>
<glyph glyph-name="igrave" horiz-adv-x="253" unicode="ì" d="M61 655q11 0 26 -35q34 -70 60 -149q8 -25 -4 -25t-23 16q-54 70 -94 140q-8 15 -8 22q0 15 16 22q18 9 27 9zM45 359q0 11 20 15q22 5 59 19t40 15q3 0 6 -5t3 -6q0 -3 -1.5 -41t-3 -85t-1.5 -72q0 -63 2 -133q0 -8 2.5 -14t4.5 -9.5t8.5 -7t8.5 -4.5t12 -3.5t12 -3.5 q22 -7 22 -17t-23 -10q-2 0 -34 1.5t-44 1.5q-18 0 -48 -2t-37 -2q-26 0 -26 11q0 9 24 16q36 9 40 28t4 103v74q0 76 -1 82q-1 9 -39 36q-10 6 -10 13z"/>
<glyph glyph-name="iacute" horiz-adv-x="253" unicode="í" d="M161 626q11 21 24 21q34 0 43 -10q5 -7 -5 -27q-46 -88 -92 -147q-15 -19 -26 -19q-13 0 -5 27q26 77 61 155zM45 359q0 11 20 15q22 5 59 19t40 15q3 0 6 -5t3 -6q0 -3 -1.5 -41t-3 -85t-1.5 -72q0 -63 2 -133q0 -8 2.5 -14t4.5 -9.5t8.5 -7t8.5 -4.5t12 -3.5t12 -3.5 q22 -7 22 -17t-23 -10q-2 0 -34 1.5t-44 1.5q-18 0 -48 -2t-37 -2q-26 0 -26 11q0 9 24 16q36 9 40 28t4 103v74q0 76 -1 82q-1 9 -39 36q-10 6 -10 13z"/>
<glyph glyph-name="icircumflex" horiz-adv-x="253" unicode="î" d="M129 641q9 0 28 -38q32 -58 66 -125q7 -14 7 -24t-9 -10q-13 0 -27 19q-36 49 -63 89q-4 8 -9 1q-52 -76 -64 -92q-10 -15 -21 -15q-5 0 -8 7.5t0 15.5q14 33 72 139q18 33 28 33zM45 359q0 11 20 15q22 5 59 19t40 15q3 0 6 -5t3 -6q0 -3 -1.5 -41t-3 -85t-1.5 -72 q0 -63 2 -133q0 -8 2.5 -14t4.5 -9.5t8.5 -7t8.5 -4.5t12 -3.5t12 -3.5q22 -7 22 -17t-23 -10q-2 0 -34 1.5t-44 1.5q-18 0 -48 -2t-37 -2q-26 0 -26 11q0 9 24 16q36 9 40 28t4 103v74q0 76 -1 82q-1 9 -39 36q-10 6 -10 13z"/>
<glyph glyph-name="idieresis" horiz-adv-x="253" unicode="ï" d="M215 599q17 0 30 -14t13 -31q0 -18 -13.5 -31t-31.5 -13q-17 0 -30 12.5t-13 30.5q0 21 14 33.5t31 12.5zM46 600q17 0 29 -14t12 -32q0 -21 -13 -32.5t-30 -11.5q-15 0 -28.5 12t-13.5 31t12.5 33t31.5 14zM45 359q0 11 20 15q22 5 59 19t40 15q3 0 6 -5t3 -6 q0 -3 -1.5 -41t-3 -85t-1.5 -72q0 -63 2 -133q0 -8 2.5 -14t4.5 -9.5t8.5 -7t8.5 -4.5t12 -3.5t12 -3.5q22 -7 22 -17t-23 -10q-2 0 -34 1.5t-44 1.5q-18 0 -48 -2t-37 -2q-26 0 -26 11q0 9 24 16q36 9 40 28t4 103v74q0 76 -1 82q-1 9 -39 36q-10 6 -10 13z"/>
<glyph glyph-name="eth" horiz-adv-x="480" unicode="ð" d="M241 371q-57 0 -88 -47q-35 -51 -35 -126q0 -63 38 -120.5t97 -57.5q44 0 78 59q30 55 30 143q0 71 -28 103q-44 46 -92 46zM64 700q0 5 5.5 9.5t13.5 4.5q43 0 105.5 -30t109.5 -70q2 -2 6.5 -2.5t6.5 1.5q16 8 49.5 26t51.5 27q2 2 6 -0.5t4 -6.5q2 -13 -1 -21t-13 -14 q-54 -28 -71 -38q-7 -4 -1 -10q103 -127 103 -318q0 -161 -95 -233q-50 -37 -107 -37q-86 0 -145.5 58.5t-59.5 149.5q0 61 35 115q27 41 79.5 67.5t113.5 26.5q39 0 76 -16q4 -2 7.5 0t2.5 6q-16 85 -64 149q-6 8 -13 4q-98 -46 -129 -61q-4 -2 -8 0t-4 6q-1 10 0 17 q2 5 8 9q9 5 108 56q5 3 3 8q-36 37 -82 65t-84 38q-17 3 -17 14z"/>
<glyph glyph-name="ntilde" horiz-adv-x="521" unicode="ñ" d="M188 513q-13 0 -34 -23q-5 -6 -10 -6q-2 0 -7.5 7t-5.5 9q0 1 9 12.5t26 28.5t33 27q7 6 15 4t44.5 -6t55.5 -4q21 0 29 6q12 10 26 26q1 1 3 1q4 0 11 -6t7 -9q0 -4 -3 -6l-16.5 -16.5t-29.5 -30.5t-16 -17q-8 -8 -12 -8q-5 0 -54 5.5t-71 5.5zM53 356q0 12 18 20 q52 18 67 29q18 11 24 11q3 0 6.5 -5.5t3.5 -9.5q0 -9 -2 -28t-2 -22t6 -3q81 55 134 55q58 0 91 -38q35 -41 35 -122q0 -140 3 -182q3 -26 37 -35q25 -7 25 -17q0 -11 -30 -11q-11 0 -35 1t-39 1q-14 0 -39 -1t-30 -1q-23 0 -23 12q0 9 23 17q18 7 24 16t7 34q3 49 3 183 q0 25 -9.5 45.5t-20.5 28.5q-26 19 -64 19q-53 0 -89 -32q-10 -10 -10 -24q0 -228 1 -240t8 -18.5t29 -12.5q18 -5 18 -15q0 -12 -25 -12q-5 0 -27 0.5t-34 0.5q-21 0 -49 -1.5t-34 -1.5q-26 0 -26 13q0 9 21 15q24 7 32 18t10 38q5 50 5 219q0 19 -24 39q-19 13 -19 17z "/>
<glyph glyph-name="ograve" horiz-adv-x="482" unicode="ò" d="M185 657q11 0 26 -35q34 -70 60 -149q8 -25 -4 -25t-23 16q-54 70 -94 140q-9 17 -8 26q0 12 16 18q18 9 27 9zM231 374q-31 0 -65 -29q-20 -19 -34.5 -54.5t-14.5 -73.5q0 -51 12 -89q18 -53 54.5 -82t75.5 -29q28 0 61 33q18 20 31.5 59.5t13.5 72.5q0 95 -50 153 q-36 39 -84 39zM250 404q79 0 139.5 -57t60.5 -147q0 -57 -27 -104t-60 -68q-55 -40 -124 -40q-71 0 -133 52q-32 26 -53 70.5t-21 82.5q0 97 70 156q63 55 148 55z"/>
<glyph glyph-name="oacute" horiz-adv-x="482" unicode="ó" d="M274 626q10 21 24 21q34 0 43 -10q5 -7 -5 -27q-46 -88 -92 -147q-15 -19 -26 -19q-13 0 -5 27q26 77 61 155zM231 374q-31 0 -65 -29q-20 -19 -34.5 -54.5t-14.5 -73.5q0 -51 12 -89q18 -53 54.5 -82t75.5 -29q28 0 61 33q18 20 31.5 59.5t13.5 72.5q0 95 -50 153 q-36 39 -84 39zM250 404q79 0 139.5 -57t60.5 -147q0 -57 -27 -104t-60 -68q-55 -40 -124 -40q-71 0 -133 52q-32 26 -53 70.5t-21 82.5q0 97 70 156q63 55 148 55z"/>
<glyph glyph-name="ocircumflex" horiz-adv-x="482" unicode="ô" d="M240 641q9 0 28 -38q32 -58 66 -125q7 -14 7 -24t-9 -10q-13 0 -27 19q-36 49 -63 89q-4 8 -9 1q-52 -76 -64 -92q-10 -15 -21 -15q-5 0 -8 7.5t0 15.5q14 33 72 139q18 33 28 33zM231 374q-31 0 -65 -29q-20 -19 -34.5 -54.5t-14.5 -73.5q0 -51 12 -89q18 -53 54.5 -82 t75.5 -29q28 0 61 33q18 20 31.5 59.5t13.5 72.5q0 95 -50 153q-36 39 -84 39zM250 404q79 0 139.5 -57t60.5 -147q0 -57 -27 -104t-60 -68q-55 -40 -124 -40q-71 0 -133 52q-32 26 -53 70.5t-21 82.5q0 97 70 156q63 55 148 55z"/>
<glyph glyph-name="otilde" horiz-adv-x="482" unicode="õ" d="M168 506q-13 0 -34 -23q-5 -6 -10 -6q-2 0 -7.5 7t-5.5 9q0 1 9 12.5t26 28.5t33 27q7 6 15 4t44.5 -6t55.5 -4q21 0 29 6q12 10 26 26q1 1 3 1q4 0 11 -6t7 -9q0 -4 -3 -6l-16.5 -16.5t-29.5 -30.5t-16 -17q-8 -8 -12 -8q-5 0 -54 5.5t-71 5.5zM231 374q-31 0 -65 -29 q-20 -19 -34.5 -54.5t-14.5 -73.5q0 -51 12 -89q18 -53 54.5 -82t75.5 -29q28 0 61 33q18 20 31.5 59.5t13.5 72.5q0 95 -50 153q-36 39 -84 39zM250 404q79 0 139.5 -57t60.5 -147q0 -57 -27 -104t-60 -68q-55 -40 -124 -40q-71 0 -133 52q-32 26 -53 70.5t-21 82.5 q0 97 70 156q63 55 148 55z"/>
<glyph glyph-name="odieresis" horiz-adv-x="482" unicode="ö" d="M328 599q17 0 30 -14t13 -31q0 -18 -13.5 -31t-31.5 -13q-17 0 -30 12.5t-13 30.5q0 21 14 33.5t31 12.5zM159 600q17 0 29 -14t12 -32q0 -21 -13 -32.5t-30 -11.5q-15 0 -28.5 12t-13.5 31t12.5 33t31.5 14zM231 374q-31 0 -65 -29q-20 -19 -34.5 -54.5t-14.5 -73.5 q0 -51 12 -89q18 -53 54.5 -82t75.5 -29q28 0 61 33q18 20 31.5 59.5t13.5 72.5q0 95 -50 153q-36 39 -84 39zM250 404q79 0 139.5 -57t60.5 -147q0 -57 -27 -104t-60 -68q-55 -40 -124 -40q-71 0 -133 52q-32 26 -53 70.5t-21 82.5q0 97 70 156q63 55 148 55z"/>
<glyph glyph-name="divide" horiz-adv-x="624" unicode="÷" d="M548 280q10 0 12.5 -2t2.5 -10q0 -17 -4.5 -28.5t-9.5 -11.5h-468q-14 0 -17.5 2.5t-3.5 12.5q0 11 4.5 24t10.5 13h473zM311 364q-20 0 -35.5 15.5t-15.5 36.5q0 22 15.5 38t35.5 16q23 0 38 -16t15 -38q0 -21 -15 -36.5t-38 -15.5zM311 139q21 0 36 -15.5t15 -35.5 q0 -23 -14.5 -39t-36.5 -16t-37.5 16t-15.5 39q0 20 15.5 35.5t37.5 15.5z"/>
<glyph glyph-name="oslash" horiz-adv-x="482" unicode="ø" d="M230 374q-35 0 -64 -26q-20 -18 -35.5 -55.5t-15.5 -75.5q0 -72 25 -113q1 -2 4 -3t6 1q58 75 167 224q1 2 -3 11q-39 37 -84 37zM168 62q45 -45 87 -45q36 0 67 32q18 21 31.5 62t13.5 75q0 62 -23 108q-1 2 -3 4t-3.5 2t-2.5 -1q-26 -34 -82 -109.5t-86 -113.5 q-4 -6 1 -14zM252 404q47 0 94 -25q5 -5 9 0l26 31q9 9 14 9q6 0 12 -7.5t3 -11.5q-6 -8 -13.5 -18.5t-14.5 -20.5q-2 -5 2 -9q66 -63 66 -159q0 -50 -28 -98.5t-59 -68.5q-52 -38 -124 -38q-49 0 -103 31q-8 4 -11 0l-34 -41q-2 -2 -5 -2h-2l-2 1q-18 13 -11 20 q18 24 31 39q3 3 -4 10q-66 62 -66 144q0 100 69 158q64 56 151 56z"/>
<glyph glyph-name="ugrave" horiz-adv-x="498" unicode="ù" d="M181 655q11 0 26 -35q34 -70 60 -149q8 -25 -4 -25t-23 16q-54 70 -94 140q-9 17 -8 26q0 12 16 18q18 9 27 9zM246 38q36 0 76 35q15 13 15 24l2 230q0 4 -6 12t-11 10l-46 12q-20 6 -20 16q0 3 7.5 6t15.5 3q65 0 107 11q13 4 24 4q7 0 7 -15q-2 -26 -6 -151.5 t-4 -180.5q0 -3 3.5 -8.5t8.5 -5.5q3 0 23 2.5t27 2.5q6 0 12 -19q0 -2 -4 -6t-7 -4q-26 -2 -91 -19q-31 -9 -35 -9q-3 0 -6.5 4.5t-3.5 9.5q0 3 1.5 18t2.5 24q0 4 -1.5 6t-3.5 1q-64 -44 -82 -51q-29 -12 -67 -12q-58 0 -88 47q-14 22 -14 47q0 185 -2 238q0 6 -1 10.5 t-4 8t-4.5 6t-6 5t-6.5 3.5t-8 3t-7 3q-18 8 -18 18q0 9 17 9q12 0 37.5 3t46.5 5.5t22 2.5q8 0 8 -15v-17q0 -31 -1.5 -132t-1.5 -119q0 -38 25 -56q26 -20 68 -20z"/>
<glyph glyph-name="uacute" horiz-adv-x="498" unicode="ú" d="M270 627q10 21 24 21q34 0 43 -10q5 -7 -5 -27q-46 -88 -92 -147q-15 -19 -26 -19q-13 0 -5 27q26 77 61 155zM246 38q36 0 76 35q15 13 15 24l2 230q0 4 -6 12t-11 10l-46 12q-20 6 -20 16q0 3 7.5 6t15.5 3q65 0 107 11q13 4 24 4q7 0 7 -15q-2 -26 -6 -151.5 t-4 -180.5q0 -3 3.5 -8.5t8.5 -5.5q3 0 23 2.5t27 2.5q6 0 12 -19q0 -2 -4 -6t-7 -4q-26 -2 -91 -19q-31 -9 -35 -9q-3 0 -6.5 4.5t-3.5 9.5q0 3 1.5 18t2.5 24q0 4 -1.5 6t-3.5 1q-64 -44 -82 -51q-29 -12 -67 -12q-58 0 -88 47q-14 22 -14 47q0 185 -2 238q0 6 -1 10.5 t-4 8t-4.5 6t-6 5t-6.5 3.5t-8 3t-7 3q-18 8 -18 18q0 9 17 9q12 0 37.5 3t46.5 5.5t22 2.5q8 0 8 -15v-17q0 -31 -1.5 -132t-1.5 -119q0 -38 25 -56q26 -20 68 -20z"/>
<glyph glyph-name="ucircumflex" horiz-adv-x="498" unicode="û" d="M240 641q9 0 28 -38q32 -58 66 -125q7 -14 7 -24t-9 -10q-13 0 -27 19q-36 49 -63 89q-4 8 -9 1q-52 -76 -64 -92q-10 -15 -21 -15q-5 0 -8 7.5t0 15.5q14 33 72 139q18 33 28 33zM246 38q36 0 76 35q15 13 15 24l2 230q0 4 -6 12t-11 10l-46 12q-20 6 -20 16q0 3 7.5 6 t15.5 3q65 0 107 11q13 4 24 4q7 0 7 -15q-2 -26 -6 -151.5t-4 -180.5q0 -3 3.5 -8.5t8.5 -5.5q3 0 23 2.5t27 2.5q6 0 12 -19q0 -2 -4 -6t-7 -4q-26 -2 -91 -19q-31 -9 -35 -9q-3 0 -6.5 4.5t-3.5 9.5q0 3 1.5 18t2.5 24q0 4 -1.5 6t-3.5 1q-64 -44 -82 -51 q-29 -12 -67 -12q-58 0 -88 47q-14 22 -14 47q0 185 -2 238q0 6 -1 10.5t-4 8t-4.5 6t-6 5t-6.5 3.5t-8 3t-7 3q-18 8 -18 18q0 9 17 9q12 0 37.5 3t46.5 5.5t22 2.5q8 0 8 -15v-17q0 -31 -1.5 -132t-1.5 -119q0 -38 25 -56q26 -20 68 -20z"/>
<glyph glyph-name="udieresis" horiz-adv-x="498" unicode="ü" d="M321 599q17 0 30 -14t13 -31q0 -18 -13.5 -31t-31.5 -13q-17 0 -30 12.5t-13 30.5q0 21 14 33.5t31 12.5zM152 600q17 0 29 -14t12 -32q0 -21 -13 -32.5t-30 -11.5q-15 0 -28.5 12t-13.5 31t12.5 33t31.5 14zM246 38q36 0 76 35q15 13 15 24l2 230q0 4 -6 12t-11 10 l-46 12q-20 6 -20 16q0 3 7.5 6t15.5 3q65 0 107 11q13 4 24 4q7 0 7 -15q-2 -26 -6 -151.5t-4 -180.5q0 -3 3.5 -8.5t8.5 -5.5q3 0 23 2.5t27 2.5q6 0 12 -19q0 -2 -4 -6t-7 -4q-26 -2 -91 -19q-31 -9 -35 -9q-3 0 -6.5 4.5t-3.5 9.5q0 3 1.5 18t2.5 24q0 4 -1.5 6t-3.5 1 q-64 -44 -82 -51q-29 -12 -67 -12q-58 0 -88 47q-14 22 -14 47q0 185 -2 238q0 6 -1 10.5t-4 8t-4.5 6t-6 5t-6.5 3.5t-8 3t-7 3q-18 8 -18 18q0 9 17 9q12 0 37.5 3t46.5 5.5t22 2.5q8 0 8 -15v-17q0 -31 -1.5 -132t-1.5 -119q0 -38 25 -56q26 -20 68 -20z"/>
<glyph glyph-name="yacute" horiz-adv-x="414" unicode="ý" d="M263 626q11 21 24 21q34 0 43 -10q5 -7 -5 -27q-46 -88 -92 -147q-15 -19 -26 -19q-13 0 -5 27q26 77 61 155zM-5 382q0 12 24 12q12 0 37.5 -2t40.5 -2q16 0 41 1t29 1q22 0 22 -11t-23 -17q-26 -7 -26 -19q0 -5 5 -20q11 -34 46 -120.5t41 -96.5q3 -3 8 4 q9 19 42 105.5t37 99.5q3 11 3 18q0 12 -9 19t-32 12q-21 5 -21 14q0 11 25 11q10 0 31.5 -0.5t27.5 -0.5t27 2t36 2q20 0 20 -9q0 -10 -22 -17q-30 -10 -49 -52q-42 -95 -110 -267q-20 -52 -56.5 -151t-47.5 -128q-3 -11 -17.5 -19.5t-34.5 -8.5q-23 0 -34 15t-11 34 q0 15 12.5 29.5t31.5 14.5q2 0 16 -0.5t20 -0.5q8 0 15 17q6 11 24 60t24 69q5 25 5 27q0 3 -2 9l-15 41q-51 142 -114 271q-4 8 -6.5 12t-7.5 9.5t-13 9.5t-20 8q-20 7 -20 15z"/>
<glyph glyph-name="thorn" horiz-adv-x="478" unicode="þ" d="M236 353q-59 0 -77 -13q-10 -8 -12 -30q-5 -32 -5 -114q0 -36 2 -68q3 -31 12 -44q19 -27 48.5 -43t50.5 -16q27 0 45 17q34 28 50.5 72t16.5 74q0 76 -41 121q-18 19 -45 31.5t-45 12.5zM71 75v141v65q0 236 -4 333q0 15 -5 20l-14 10t-11.5 8t-8.5 5.5t-5.5 4.5t-1.5 4 q0 3 8 9t11 7l32 8q33 9 44 15q18 9 21 9t7.5 -4t4.5 -8q0 -1 -4 -335q0 -3 3 -5t5 0q24 14 65 29q28 10 69 10q28 0 59 -15t53 -40q48 -54 48 -131q0 -43 -21 -91t-65 -81q-64 -50 -154 -50q-35 0 -53 3q-2 0 -6 -4.5t-4 -8.5q0 -138 3 -166q2 -21 11.5 -31.5t35.5 -19.5 q29 -7 29 -17q0 -13 -26 -13q-9 0 -53.5 2.5t-65.5 2.5q-11 0 -30 -1t-35 -1q-29 0 -29 14q0 4 6.5 8.5t17.5 6.5q40 10 48.5 22.5t11.5 67.5q3 49 3 217z"/>
<glyph glyph-name="OE" horiz-adv-x="1060" unicode="Œ" d="M373 626q-86 0 -142 -51q-82 -75 -82 -239q0 -78 29.5 -148.5t91 -118.5t142.5 -48q63 0 114 38q40 31 65 95.5t25 157.5q0 86 -17.5 141.5t-59.5 98.5q-71 74 -166 74zM861 643q19 0 50 1t37 1q3 0 8 -4t5 -9q3 -9 3 -75q0 -5 -0.5 -12t-0.5 -8q-2 -26 -17 -26 q-8 0 -15 21q-6 21 -11 33.5t-14 24t-20 12.5q-31 5 -166 5q-9 0 -12 -15q-7 -40 -7 -235q0 -4 3 -8.5t8 -4.5h82q55 0 71.5 10t29.5 49q6 16 17 16t11 -20q0 -6 -2 -29t-2 -35v-9q0 -17 2 -45.5t2 -34.5q0 -23 -14 -23q-11 0 -16 19q-6 18 -8.5 24t-9 17t-16 14.5 t-24.5 4.5q-37 2 -127 2q-7 0 -7 -10v-100q0 -72 1 -85q5 -49 11 -57q9 -13 28.5 -17.5t77.5 -4.5q41 0 61.5 2t39.5 5.5t32 17t24.5 28.5t32.5 48q11 18 17 18q12 0 12 -23q0 -6 -21 -61.5t-26 -61.5q-10 -10 -25 -10q-3 0 -118 3.5t-134 3.5q-14 0 -43.5 -1t-41.5 -1 q-8 0 -10.5 6.5t-2.5 25.5l2 69q0 11 -6 2q-41 -55 -103.5 -86.5t-137.5 -31.5q-135 0 -228 99.5t-93 237.5q0 164 125 267q39 32 94 52.5t107 20.5q140 0 235 -110q2 -2 4.5 -0.5t2.5 5.5q0 13 -1 35t-1 30q0 23 11 23h234z"/>
<glyph glyph-name="oe" horiz-adv-x="695" unicode="œ" d="M523 371q-35 0 -59.5 -23t-35.5 -59q-3 -8 5 -12q3 0 59 2t66 2q13 0 22 9.5t9 16.5q0 23 -15 43.5t-51 20.5zM225 373q-30 0 -55 -23q-22 -18 -37.5 -56.5t-15.5 -86.5q0 -70 34.5 -129t98.5 -59q40 0 64 27q34 44 34 151q0 74 -28 125t-95 51zM250 404q41 0 78 -18.5 t55 -36.5q7 -7 14 -1q65 53 136 53q70 0 104.5 -41t34.5 -83q0 -9 -13.5 -19t-32.5 -10h-194q-7 0 -9 -8q-4 -11 -4 -30q0 -67 32 -112.5t96 -45.5q58 0 104 42q5 5 10 4.5t5 -8.5q0 -13 -12 -28q-56 -70 -147 -70q-39 0 -72 16.5t-52 37.5q-5 5 -9 -2q-56 -56 -140 -56 q-85 0 -143.5 63.5t-58.5 141.5q0 115 86 171q59 40 132 40z"/>
<glyph glyph-name="Scaron" horiz-adv-x="473" unicode="Š" d="M260 704q-12 0 -42 24q-1 1 -35 29.5t-57 48.5q-12 8 -12 18q0 11 13 11q4 0 15.5 -4.5t14.5 -5.5q17 -7 98 -48q10 -4 18 1q73 35 94 46q2 1 13.5 5.5t16.5 4.5q15 0 15 -8q0 -7 -15 -22q-64 -53 -97 -79q-26 -21 -40 -21zM274 661q22 0 46 -3.5t47.5 -9t25.5 -5.5 q4 -1 8 -9t4 -10q1 -8 3.5 -27.5t4.5 -35.5t2 -18q0 -27 -7 -27q-18 0 -24 21q-8 24 -23.5 45t-25.5 27q-30 23 -71 23q-50 0 -82.5 -33.5t-32.5 -83.5q0 -21 7.5 -39.5t14.5 -30t31.5 -31t35.5 -27t50 -33.5q68 -46 103 -89t35 -105q0 -39 -21.5 -77.5t-60.5 -63.5 q-24 -16 -63 -26t-73 -10q-26 0 -67.5 7.5t-63.5 18.5q-7 4 -15 16t-8 16q-2 13 -6 34.5t-6.5 37t-2.5 22.5q0 3 5.5 11t8.5 8q11 0 37 -57q18 -38 57.5 -59t72.5 -21q52 0 86.5 34t34.5 87q0 36 -26 72t-99 82q-71 46 -108 92t-37 106q0 73 55 122q54 49 148 49z"/>
<glyph glyph-name="scaron" horiz-adv-x="321" unicode="š" d="M174 443q-10 0 -29 39q-34 62 -65 125q-7 14 -7 23q0 10 9 10q13 0 26 -18q30 -41 62 -88q6 -9 11 -2q5 8 63 91q10 15 24 15q5 0 6.5 -7t-1.5 -15q-7 -19 -18 -41.5t-30.5 -57t-22.5 -40.5q-17 -34 -28 -34zM185 404q29 0 51 -6q16 -3 32 -11q8 -4 8 -14t1.5 -33.5 t1.5 -25.5q0 -18 -12 -18q-7 0 -15 17q-31 67 -80 67q-28 0 -44 -21t-16 -41q0 -24 23 -46t76 -51q78 -46 78 -112q0 -56 -58 -98q-35 -23 -84 -23q-25 0 -55 6t-42 16q-3 5 -9 31t-6 45q0 21 8 21t21 -23q39 -71 91 -71q19 0 40 15q23 18 23 55q0 39 -45 67q-42 30 -61 42 q-62 39 -62 101q0 57 55 90q33 21 80 21z"/>
<glyph glyph-name="Ydieresis" horiz-adv-x="622" unicode="Ÿ" d="M440 789q17 0 29.5 -14.5t12.5 -32.5t-13.5 -31t-31.5 -13q-17 0 -30 12.5t-13 31.5q0 21 13.5 34t32.5 13zM239 790q18 0 31 -14.5t13 -33.5q0 -21 -14 -32.5t-34 -11.5q-15 0 -28 12t-13 34q0 18 13 32t32 14zM3 638q0 10 27 10q4 0 45 -2.5t69 -2.5q12 0 33 1t43 1 t22 -10q0 -14 -22 -20q-26 -5 -26 -18q0 -6 11 -28q22 -42 131 -219q1 -2 5 -1.5t5 3.5q26 38 129 206q10 17 10 29q0 19 -39 28q-21 6 -21 20q0 9 23 9q13 0 33.5 -0.5t31.5 -0.5q21 0 63.5 2t47.5 2q21 0 21 -10t-26 -18q-58 -15 -109 -78q-28 -35 -78.5 -113t-54.5 -83 q-25 -36 -25 -61q0 -164 6 -212q3 -17 17 -27t54 -20q27 -7 27 -18t-30 -11q-6 0 -40 2t-47 2q-36 0 -87 -3t-53 -3q-25 0 -25 11q0 13 28 18q63 14 65 48q3 41 3 207q0 12 -9 36q-28 60 -127 210q-36 54 -53.5 70.5t-49.5 23.5q-28 6 -28 20z"/>
<glyph glyph-name="circumflex" horiz-adv-x="400" unicode="ˆ" d="M200 641q9 0 28 -38q32 -58 66 -125q7 -14 7 -24t-9 -10q-13 0 -27 19q-36 49 -63 89q-4 8 -9 1q-52 -76 -64 -92q-10 -15 -21 -15q-9 0 -9 16q0 5 1 7q14 33 72 139q18 33 28 33z"/>
<glyph glyph-name="tilde" horiz-adv-x="400" unicode="˜" d="M128 515q-13 0 -34 -23q-5 -6 -10 -6q-2 0 -7.5 7t-5.5 9q0 1 9 12.5t26 28.5t33 27q7 6 15 4t44.5 -6t55.5 -4q21 0 29 6q12 10 26 26q1 1 3 1q4 0 11 -6t7 -9q0 -4 -3 -6l-16.5 -16.5t-29.5 -30.5t-16 -17q-8 -8 -12 -8q-5 0 -54 5.5t-71 5.5z"/>
<glyph glyph-name="Alpha" horiz-adv-x="676" unicode="Α" d="M398 303q1 0 2.5 3t0.5 5q-65 195 -78 215q-4 9 -8 0q-69 -184 -78 -219q-2 -7 5 -7q14 0 48.5 0.5t63.5 1t44 1.5zM353 661q7 0 16 -26q6 -19 44 -124q95 -267 144 -385q23 -58 40.5 -75t53.5 -26q24 -7 24 -17q0 -13 -32 -13q-15 0 -59 2.5t-67 2.5q-17 0 -38 -1 t-33 -1q-31 0 -31 12t24 16q42 8 42 34q0 5 -2 17q-6 33 -56 171q-3 10 -34 10q-136 0 -164 -4q-6 0 -11 -8q-52 -130 -52 -175q0 -28 49 -43q27 -8 27 -18q0 -13 -28 -13q-6 0 -32 1.5t-47 1.5t-60 -2.5t-44 -2.5q-23 0 -23 10q0 13 22 20q41 14 56.5 26.5t35.5 58.5 q12 27 86 217.5t93 237.5q1 3 9 26q3 9 7 17l24 40q11 13 16 13z"/>
<glyph glyph-name="Beta" horiz-adv-x="589" unicode="Β" d="M450 180q0 88 -83 130q-37 19 -106 19q-37 0 -44 -7q-5 -8 -7 -29q-1 -12 -1 -57q0 -104 5 -144q3 -21 16 -33q14 -16 35 -25t33 -9q65 0 108.5 42.5t43.5 112.5zM416 488q0 61 -38.5 96t-107.5 35q-21 0 -43 -8q-9 -5 -12 -16q-6 -48 -6 -222q0 -13 11 -13q37 0 80.5 7 t60.5 18q24 16 39.5 44t15.5 59zM500 495q0 -88 -81 -132q-2 -1 -1 -4t3 -4q123 -55 123 -165q0 -96 -80 -149q-33 -23 -84 -34.5t-95 -11.5q-12 0 -78.5 2t-91.5 2q-12 0 -34 -0.5t-30 -0.5q-29 0 -29 13q0 11 25 16q49 9 60.5 20t14.5 41q8 56 8 328q0 128 -6 158 q-4 19 -14.5 27t-48.5 13q-26 4 -26 16q0 13 27 13h67q15 0 76 3.5t83 3.5q95 0 141 -29q35 -21 53 -55.5t18 -70.5z"/>
<glyph glyph-name="Gamma" horiz-adv-x="513" unicode="Γ" d="M307 643q133 0 166 6h1q9 0 9 -10q-2 -42 -2 -95v-36q0 -9 -4 -17t-9 -8q-14 0 -23 31q-10 31 -15.5 45.5t-16.5 28.5t-27 16q-28 4 -103 4q-43 0 -51 -1t-12.5 -5t-4.5 -8q-4 -54 -4 -221q0 -175 3 -283q1 -18 4 -27.5t18.5 -19.5t45.5 -16q24 -5 24 -19q0 -11 -28 -11 q-12 0 -45 1.5t-53 1.5q-21 0 -64.5 -3t-51.5 -3q-27 0 -27 11q0 13 26 20q25 5 38.5 15.5t15.5 17t3 15.5q8 83 8 303q0 153 -2 179t-16 40t-47 22q-24 6 -24 17q0 12 28 12q24 0 60 -1.5t50 -1.5h130z"/>
<glyph glyph-name="uni0394" horiz-adv-x="662" unicode="Δ" d="M426 55q38 0 56 3q13 2 13 13q0 7 -2 16q-11 45 -83.5 225t-89.5 209q-1 4 -5 4t-6 -4q-7 -16 -41.5 -95t-75 -171.5t-67.5 -155.5q-10 -24 -10 -31q0 -6 25 -10q42 -3 286 -3zM181 0q-21 0 -74.5 -1.5t-58.5 -1.5q-13 0 -13 17q0 6 5.5 17t19.5 36t25 47 q22 43 101 213.5t108 239.5q6 13 6 22q0 5 4 8q19 14 34 53q6 11 16 11q7 0 14 -21q10 -36 25 -74q25 -61 69 -170t73 -180.5t40 -95.5q47 -101 47 -103q0 -5 -8 -13t-15 -8q-11 0 -60 2t-62 2h-296z"/>
<glyph glyph-name="Epsilon" horiz-adv-x="563" unicode="Ε" d="M223 643h147q70 0 92 3q2 1 5 -3t4 -8q0 -26 1 -57t1 -38q0 -26 -15 -26q-11 0 -16 24q-9 37 -24.5 50.5t-42.5 17.5q-32 5 -102 5q-28 0 -40 -1q-2 0 -4.5 -2t-6 -9t-4.5 -17q-4 -38 -4 -194v-15.5t0.5 -12.5t0.5 -6q3 -10 7 -10h65q50 0 69.5 3.5t28 12.5t18.5 34 q8 21 18 21q11 0 8 -22q-3 -42 -3 -72q0 -15 1.5 -34.5t1.5 -30.5q0 -25 -11 -25t-17 22q-11 35 -22 42.5t-57 9.5q-32 2 -99 2q-3 0 -6 -3.5t-3 -5.5q-3 -14 -3 -102v-55q0 -56 10 -83q6 -18 19 -22q40 -7 91 -7q69 0 95 7q52 13 83 74q14 28 23 28t9 -20q0 -1 -0.5 -3.5 t-0.5 -3.5q-1 -8 -16 -54.5t-20 -52.5q-9 -12 -17 -12l-49 2q-48 2 -126 4t-150 2q-28 0 -62 -2.5t-51 -2.5q-30 0 -30 13q0 9 28 16q41 10 55.5 22.5t17.5 50.5q8 112 8 284v118q0 37 -1 51q-2 33 -12.5 46t-43.5 20q-29 7 -29 17q0 14 28 14q21 0 69 -2t84 -2z"/>
<glyph glyph-name="Zeta" horiz-adv-x="620" unicode="Ζ" d="M313 643q187 0 220 3q17 1 17 -5q0 -10 -11 -25q-10 -10 -89 -122q-45 -67 -107.5 -164t-116 -180.5t-57.5 -89.5q-5 -7 4 -13q18 -11 149 -11q109 0 127 3q38 5 59 20t65 76q2 3 6 8.5t6 7.5t4.5 5t4.5 4t5 1q9 0 9 -22q0 -17 -50 -127q-9 -17 -58 -17q-44 0 -190.5 2 t-165.5 2h-95q-6 0 -11.5 4t-5.5 10q0 4 5 11.5t18 24.5t20 27q27 35 173 256.5t164 255.5q7 11 -4 14q-47 5 -181 5q-50 0 -73 -5q-56 -13 -90 -76q-11 -22 -22 -22q-9 0 -9 16q0 6 3 18q1 2 9 24t17.5 49t13.5 46q2 12 13 12q8 0 16 -8q12 -13 50 -16q54 -2 158 -2z"/>
<glyph glyph-name="Eta" horiz-adv-x="816" unicode="Η" d="M212 367q1 -13 3 -16.5t8 -3.5q15 0 142 1.5t230 1.5q8 0 11 26v8.5t0.5 19.5t0.5 23q0 93 -3 131q-2 28 -11.5 38t-43.5 19q-25 7 -25 19q0 11 31 11q5 0 46.5 -1t55.5 -1q20 0 54 1.5t37 1.5q28 0 28 -11t-29 -18q-30 -7 -40 -20t-12 -37q-8 -82 -8 -329q0 -26 2 -85 t2 -63q1 -28 11 -37t46 -19q23 -8 23 -19t-28 -11q-6 0 -36 1.5t-47 1.5q-11 0 -59 -3t-58 -3q-25 0 -25 11q0 12 22 18q40 12 50 28t12 70q4 84 4 161q0 21 -12 21q-64 0 -180.5 1t-146.5 1q-14 0 -29 -1h-16q-3 0 -7 -5.5t-4 -11.5q-1 -9 -1 -53q0 -28 0.5 -76t0.5 -54 q1 -36 12 -52t42 -26q30 -8 30 -21q0 -9 -29 -9q-2 0 -21 1t-43 2t-40 1q-10 0 -45.5 -2t-53.5 -2q-30 0 -30 10q0 13 23 19q38 10 49 21t14 41q9 123 9 317q0 2 0.5 38t0.5 61q0 40 -1 55q-2 27 -11 39t-39 18q-28 5 -28 19q0 11 29 11q14 0 46 -1t45 -1q23 0 54.5 1 t40.5 1q32 0 32 -11q0 -13 -29 -19q-33 -6 -42 -19t-11 -47q-3 -37 -3 -151v-31z"/>
<glyph glyph-name="Theta" horiz-adv-x="780" unicode="Θ" d="M553 396q-44 -102 -53 -139q-4 -25 -16 -25q-5 0 -12 17q-8 25 -16 33.5t-28 8.5l-83 -1q-47 -1 -62 -5.5t-29 -20.5q-14 -19 -23 -19q-7 0 -8 8.5t2 14.5q4 8 29 54t30 71q6 26 12 26q12 0 15 -18q2 -27 10.5 -35.5t33.5 -8.5h6l73 1q34 1 53.5 8.5t39.5 32.5 q13 16 21 16q5 0 6.5 -6.5t-1.5 -12.5zM373 629q-34 0 -77 -17t-68 -42q-34 -31 -57.5 -102.5t-23.5 -141.5q0 -134 70.5 -222t187.5 -88q79 0 132 49q36 34 66.5 102.5t30.5 149.5q0 80 -32 148t-88 114q-62 50 -141 50zM385 661q145 0 246 -95t101 -236q0 -182 -142 -285 q-44 -31 -102 -47t-102 -16q-152 0 -253 114q-83 92 -83 226q0 81 36 150.5t95 117.5q36 30 94 50.5t110 20.5z"/>
<glyph glyph-name="Iota" horiz-adv-x="339" unicode="Ι" d="M128 326q0 170 -3 219q-1 22 -2.5 30t-7 18.5t-17 14.5t-32.5 8q-28 5 -28 18q0 12 25 12q12 0 52 -1.5t57 -1.5q26 0 58.5 1.5t48.5 1.5q25 0 25 -12t-26 -17q-21 -4 -33 -10t-18 -18t-6.5 -15l-3.5 -21q-6 -40 -6 -294q0 -101 3 -149q2 -44 14.5 -60.5t58.5 -25.5 q26 -4 26 -17t-27 -13q-28 0 -83 3t-66 3q-14 0 -35.5 -1t-40.5 -1q-26 0 -26 14q0 11 30 17q36 8 45.5 21.5t12.5 51.5q5 58 5 224z"/>
<glyph glyph-name="Kappa" horiz-adv-x="683" unicode="Κ" d="M43 633q0 13 27 13q11 0 46 -1.5t52 -1.5q16 0 49 1t44 1q27 0 27 -12q0 -10 -29 -17q-27 -5 -37 -16t-11 -39q-2 -21 -2 -131q0 -78 1 -84q2 -7 7 -7q2 0 9 3l6 4q23 17 110.5 102.5t112.5 113.5q17 20 17 31q0 16 -28 23q-23 8 -23 15q0 13 26 13q10 0 19.5 -0.5 t18.5 -0.5q11 0 72 2.5t76 2.5q26 0 26 -12q0 -11 -27 -18q-41 -9 -67.5 -23.5t-77.5 -53.5q-36 -29 -108 -95.5t-81 -80.5q-2 -7 0 -10q20 -25 268 -280q22 -22 41.5 -33.5t29.5 -14t34 -6.5q20 -5 20 -14q0 -15 -25 -15q-14 0 -73 4t-73 4q-20 0 -40 -0.5t-30 -0.5 t-15.5 6t-5.5 12q0 8 43 17q3 1 4.5 4.5t0.5 5.5q-20 26 -95 106t-122 128q-5 5 -10.5 11.5t-9 9.5t-7 7.5t-6 6.5l-5 4t-4 2.5t-3.5 0.5t-5 -21q0 -1 -0.5 -13t-0.5 -22q0 -99 3 -183q1 -20 14 -32t46 -21q23 -5 23 -18t-26 -13q-10 0 -58 1.5t-65 1.5q-16 0 -48.5 -1.5 t-48.5 -1.5q-9 0 -16.5 4t-7.5 9q0 10 29 17q39 8 54 24t17 59q3 102 3 236q0 142 -4 214q-1 26 -12.5 37t-42.5 19q-26 7 -26 17z"/>
<glyph glyph-name="Lambda" horiz-adv-x="676" unicode="Λ" d="M353 661q7 0 16 -26q6 -21 44 -125q61 -172 144 -384q24 -59 40.5 -76t53.5 -27q24 -6 24 -17q0 -13 -32 -13q-15 0 -59 3.5t-67 3.5q-17 0 -38 -1t-33 -1q-31 0 -31 12t24 16q43 9 43 35q0 4 -2 16q-4 25 -75.5 227.5t-81.5 219.5q-5 8 -8 -1q-31 -79 -92 -253t-61 -199 q0 -29 49 -44q28 -8 28 -18q0 -13 -29 -13q-6 0 -32 2t-47 2t-60 -3t-44 -3q-23 0 -23 10q0 13 22 20q41 14 56 27t36 59q12 28 87 220.5t94 240.5q6 13 6 22q0 5 2 8q5 7 17 27l13 21q11 12 16 12z"/>
<glyph glyph-name="Mu" horiz-adv-x="889" unicode="Μ" d="M47 635q0 7 5.5 8.5t23.5 1.5q33 0 69.5 -1t64.5 -1q2 0 6 -5t5 -8q10 -31 38 -91q166 -350 186 -377q6 -9 10 -3q196 371 212 412q0 1 4.5 11.5t10 24t8.5 22.5q1 4 5 9t6 5q21 0 73 1.5t53 1.5q26 0 26 -11q0 -12 -26 -16q-24 -4 -45 -13q-31 -12 -31 -77 q0 -302 14 -433q4 -33 16.5 -45.5t48.5 -23.5q27 -6 27 -19t-29 -13q-2 0 -52.5 2.5t-72.5 2.5q-9 0 -36 -1.5t-40 -1.5q-27 0 -27 14q0 11 26 18q20 6 29.5 17t12 21.5t4.5 33.5q2 18 2 141q0 198 -3 245q0 6 -2.5 8t-7.5 -5q-9 -16 -72 -140t-90 -181q-42 -91 -62 -143 q-10 -28 -22 -28h-1q-10 0 -15 19q-12 43 -37 106q-31 76 -96 212t-77 163q-6 13 -7 -3q-5 -28 -11 -147t-6 -201q0 -7 0.5 -20t0.5 -18q2 -39 12.5 -54t48.5 -27q27 -7 27 -19t-27 -12q-17 0 -52.5 1.5t-47.5 1.5t-39.5 -1.5t-40.5 -1.5q-26 0 -26 14q0 9 20 14 q44 13 57 29.5t19 62.5q7 50 19.5 212t14.5 220q0 45 -45 58q-33 10 -43 12q-16 5 -16 16z"/>
<glyph glyph-name="Nu" horiz-adv-x="771" unicode="Ν" d="M15 634q0 12 33 12q7 0 50 -1.5t72 -1.5q8 0 21 -13q40 -48 79 -99q47 -59 332 -370q4 -4 7 -0.5t3 7.5q3 23 3 87q0 22 -0.5 88t-0.5 109q0 48 -5 100q-1 20 -13.5 35t-49.5 26q-27 8 -27 22q0 9 26 9q12 0 40.5 -0.5t45.5 -0.5q19 0 50.5 2t43.5 2q23 0 23 -11 q0 -13 -24 -20q-35 -8 -48.5 -21.5t-15.5 -51.5q-11 -198 -11 -405q0 -24 3.5 -76t3.5 -57q0 -21 -14 -21q-10 0 -23.5 10.5t-21.5 21.5q-7 8 -27 35t-35 45q-45 54 -177.5 206.5t-179.5 208.5q-3 4 -7 3t-4 -5q0 -7 -1.5 -26.5t-2.5 -45.5t-1 -61t-1 -118.5t-1 -113.5 q0 -12 0.5 -26t0.5 -17q3 -35 15 -50t48 -25q25 -6 25 -18q0 -13 -32 -13q-14 0 -51 2.5t-56 2.5q-12 0 -34.5 -1t-30.5 -1q-26 0 -26 11t20 17q29 10 39.5 15.5t19.5 24t11 54.5q19 308 19 404q0 38 -7 48q-18 22 -31.5 29t-43.5 15q-6 1 -9 2q-22 6 -22 16z"/>
<glyph glyph-name="Xi" horiz-adv-x="647" unicode="Ξ" d="M615 135q0 -9 -22 -59.5t-29 -77.5q-1 -3 -5 -6.5t-8 -3.5h-2q-29 12 -120 12h-335q-24 0 -44 -11q-4 -3 -8 3.5t-5 13.5q0 1 8 18t18.5 47t15.5 59q6 26 17 26q10 0 12 -22q4 -25 7 -35.5t14 -18.5t33 -10q28 -2 186 -2q114 0 129 2q37 4 62 15t43 41q14 25 27 25 q6 0 6 -16zM494 391q-19 -76 -19 -118v-7q0 -29 -14 -29q-9 0 -15 22q-5 18 -14.5 26.5t-18.5 10t-30 2.5q-8 0 -30 0.5t-35 0.5q-12 0 -36 -0.5t-33 -0.5q-18 -1 -24 -1t-16.5 -3t-16.5 -9t-12 -17q-11 -21 -20 -21q-5 0 -7.5 9t-1.5 16q16 100 16 118v5q0 28 12 28 q9 0 16 -20q10 -26 19.5 -30.5t48.5 -6.5q11 -1 46 -1q55 0 77 1q40 1 53 6t28 30q10 15 19 15q5 0 7 -9.5t1 -16.5zM180 643h303q53 0 79 11q14 7 19 7q8 0 8 -16q0 -13 -18 -57.5t-22 -64.5q-4 -23 -15 -23q-5 0 -13 26q-5 36 -13 42.5t-49 9.5q-18 1 -118 1 q-147 0 -158 -1q-35 -3 -50.5 -11t-38.5 -38q-19 -25 -27 -25q-9 0 -9 14q0 9 20.5 57.5t23.5 75.5q0 4 6 10t10 6t10 -6q14 -18 52 -18z"/>
<glyph glyph-name="Omicron" horiz-adv-x="781" unicode="Ο" d="M363 628q-33 0 -73 -16t-65 -41q-78 -76 -78 -235q0 -119 78 -219.5t192 -100.5q88 0 132 48q35 31 60 92.5t25 143.5q0 81 -32.5 155t-88.5 119q-30 24 -72.5 39t-77.5 15zM385 661q145 0 246 -95t101 -236q0 -98 -40.5 -172t-101.5 -118q-83 -58 -197 -58 q-76 0 -145 30.5t-115 83.5q-83 92 -83 226q0 165 130 269q37 30 95 50t110 20z"/>
<glyph glyph-name="Pi" horiz-adv-x="806" unicode="Π" d="M646 643q19 0 54 1.5t38 1.5q28 0 28 -12q0 -10 -29 -17q-32 -7 -43 -17.5t-13 -31.5q-2 -19 -2 -65v-63q0 -25 1.5 -189t1.5 -168q1 -28 11.5 -37t46.5 -19q22 -7 22 -19q0 -11 -27 -11q-7 0 -37 1.5t-47 1.5q-12 0 -59 -3t-57 -3q-26 0 -26 12q0 9 22 17q39 13 50 29.5 t12 68.5q0 119 1 220v45q0 144 -3 198q-1 21 -12 21q-70 0 -185.5 1.5t-138.5 1.5q-9 0 -19 -0.5t-11 -0.5q-2 0 -6 -6.5t-5 -11.5q-4 -40 -4 -213v-49v-99t0.5 -86t0.5 -38q0 -35 11.5 -51.5t43.5 -26.5q29 -8 29 -20q0 -10 -28 -10l-41 2q-42 2 -63 2q-11 0 -46 -2t-53 -2 q-31 0 -31 10q0 12 24 19q37 9 48 20.5t13 41.5q10 137 10 311q0 7 0.5 46t0.5 62q0 39 -1 52q-2 25 -12.5 37.5t-36.5 19.5q-28 8 -28 19t29 11q14 0 46 -1t45 -1h475z"/>
<glyph glyph-name="Rho" horiz-adv-x="545" unicode="Ρ" d="M417 452q0 69 -47 119.5t-116 50.5q-15 0 -29 -9q-9 -6 -10 -39q0 -9 -0.5 -47t-1 -103.5t-0.5 -109.5q0 -54 1 -124.5t1 -74.5q1 -48 11 -62.5t49 -25.5q27 -7 27 -19t-33 -12q-10 0 -45.5 2t-59.5 2q-14 0 -49.5 -2t-51.5 -2q-28 0 -28 14q0 10 20 16q40 9 54 24.5 t16 48.5q5 82 5 181q0 181 -3 277q0 17 -1 23.5t-6 15.5t-16.5 12.5t-32.5 6.5q-31 5 -31 15q0 12 23 14h10h23q19 0 80 4t87 4q125 0 187 -59q58 -56 58 -136q0 -95 -70 -155q-52 -44 -115 -44q-34 0 -53 7q-17 7 -17 16t12 9h25q47 0 87 41.5t40 120.5z"/>
<glyph glyph-name="Sigma" horiz-adv-x="641" unicode="Σ" d="M225 643l220 2q68 0 111 28q1 1 4 1q7 0 9 -12q1 -14 6.5 -63t5.5 -70q0 -9 -4.5 -16.5t-9.5 -7.5q-6 0 -15 21q-16 39 -35 58.5t-50 19.5q-270 11 -275 11h-17q-6 0 -8 -3.5t2 -8.5q17 -24 119.5 -114.5t155.5 -132.5q7 -7 -1 -17q-238 -213 -268 -251q-1 -1 1.5 -5.5 t4.5 -4.5q59 -10 289 -10q41 0 61.5 13t52.5 56q19 25 32 25q4 0 4 -12q0 -11 -2 -16q-6 -14 -14 -38t-16 -51t-11 -37q-3 -11 -29 -11q-33 1 -76 2t-52 1h-272l-106 -3q-2 0 -6.5 4t-4.5 8t13.5 19t22.5 22q135 107 286 252q6 9 3 14q-12 19 -129.5 125.5t-187.5 165.5 q-22 17 -23 31q0 11 12 11q84 -6 197 -6z"/>
<glyph glyph-name="Tau" horiz-adv-x="667" unicode="Τ" d="M341 643q147 0 229 2q46 3 68 18q10 6 14 6q6 0 6 -11q0 -7 -2 -12q-14 -42 -22 -115q-1 -7 -6 -13t-11 -6q-10 0 -14 32q-4 38 -18.5 48t-62.5 12q-1 0 -17.5 0.5t-29.5 0.5q-81 0 -93 -3q-3 -1 -6 -6t-3 -7v-245q0 -211 4 -248q4 -36 15.5 -48.5t56.5 -22.5 q27 -6 27 -18t-28 -12q-2 0 -22 1.5t-46.5 2.5t-45.5 1q-30 0 -71 -3.5t-43 -3.5q-30 0 -30 12q0 5 6 10t13 7q50 11 61.5 29.5t13.5 78.5q7 206 7 340v119q0 13 -8 13q-33 5 -124 5q-54 0 -74 -23q-10 -8 -33 -52q-4 -10 -8 -14.5t-6 -5t-5 -0.5q-10 0 -10 23q0 5 9.5 52 t9.5 81q0 5 5.5 10.5t9.5 5.5q2 0 3.5 -2l4.5 -6t8 -8q18 -18 34 -19q52 -6 234 -6z"/>
<glyph glyph-name="Upsilon" horiz-adv-x="743" unicode="Υ" d="M174 662q47 0 83.5 -20t58.5 -54t34.5 -64.5t19.5 -63.5q1 -5 4 -6t5 5q33 97 89.5 150t131.5 53q89 0 129 -66q8 -11 8 -26q0 -8 -7 -9t-11 3q-51 43 -106 43q-70 0 -119 -50t-71 -138q-16 -63 -16 -144v-173q0 -22 5 -36t17.5 -22t22.5 -11.5t34 -8.5q22 -6 22 -15 q0 -13 -26 -13q-3 0 -57.5 2t-64.5 2q-11 0 -57 -2.5t-56 -2.5q-28 0 -28 13q0 10 22 14q49 10 61 24.5t15 62.5q6 80 6 164q0 108 -22 183q-21 73 -59.5 109.5t-86.5 36.5q-64 0 -121 -44q-2 -2 -8.5 -2.5t-7.5 2.5q0 1 -0.5 2.5t-0.5 2.5q0 6 6 18q15 30 57.5 55.5 t93.5 25.5z"/>
<glyph glyph-name="Phi" horiz-adv-x="765" unicode="Φ" d="M275 656q0 14 30 14q15 0 38.5 -2t38.5 -2q25 0 49.5 2t35.5 2q28 0 28 -13q0 -12 -28 -17q-25 -6 -33 -15t-9 -30q0 -7 6 -9q117 -5 201 -70.5t84 -182.5q0 -124 -91 -196q-77 -60 -196 -67q-5 0 -5 -7q1 -22 7.5 -30.5t32.5 -15.5q31 -12 33 -18q0 -16 -32 -16 q-1 0 -27 1.5t-49 1.5q-14 0 -41.5 -1.5t-46.5 -1.5q-34 0 -34 15q0 8 22 13q34 7 43 15.5t9 37.5q0 6 -5 6q-117 5 -201.5 74.5t-84.5 182.5q0 131 99 200q76 53 189 60q7 0 7 14q0 16 -8.5 24t-33.5 15q-28 5 -28 16zM141 348q0 -98 49.5 -164t144.5 -81q7 0 7 8 q3 138 3 437q0 8 -5 8q-78 -6 -129 -46q-30 -24 -50 -67t-20 -95zM623 320q0 105 -54 164.5t-140 69.5q-5 0 -5 -8v-435q0 -8 6 -8q88 9 133 53q60 60 60 164z"/>
<glyph glyph-name="Chi" horiz-adv-x="694" unicode="Χ" d="M23 636q0 12 29 12q8 0 55 -2.5t66 -2.5q21 0 47 1t39 1q24 0 24 -11t-23 -17q-24 -6 -24 -22q0 -9 5 -16q24 -42 69 -113t57 -83q2 -2 5.5 -3t4.5 1q26 29 74.5 95t61.5 90q6 12 6 19q0 20 -45 30q-25 5 -25 17q0 13 29 13q15 0 45.5 -1t43.5 -1q12 0 53 1.5t52 1.5 q9 0 16.5 -3.5t6.5 -7.5q0 -12 -22 -18q-40 -8 -67.5 -24t-55.5 -50q-116 -136 -155 -190q-2 -5 0 -12q4 -11 65 -102t85 -125q33 -44 53 -60.5t67 -28.5q24 -6 24 -19q0 -12 -30 -12q-15 0 -60.5 3t-79.5 3q-16 0 -47.5 -2t-35.5 -2q-25 0 -25 13q0 11 22 17q31 8 38 13 q11 8 5 18q-23 38 -76 120t-61 90q-7 7 -10 3q-63 -77 -110 -146q-29 -45 -29 -64q0 -20 37 -33q24 -8 24 -17q0 -13 -25 -13q-12 0 -49 1.5t-54 1.5q-23 0 -59 -2.5t-45 -2.5q-26 0 -26 11q0 16 38 23q33 6 65 25.5t52 41.5q80 88 159 197q6 9 3 14q-6 16 -65 107.5 t-96 142.5q-34 47 -99 61q-27 6 -27 18z"/>
<glyph glyph-name="Psi" horiz-adv-x="755" unicode="Ψ" d="M248 649q0 12 27 12q17 0 49 -1t48 -1q26 0 52.5 1t42.5 1q27 0 27 -14q0 -8 -25 -14q-37 -10 -46 -21.5t-11 -42.5q-2 -34 -2 -141v-97q0 -5 1.5 -9t4.5 -3q34 5 58 29.5t53 86.5q44 98 82 143.5t84 45.5q31 0 50 -20q9 -9 9 -18q0 -4 -17 -10q-36 -4 -63.5 -29.5 t-56.5 -77.5q-36 -66 -60.5 -95.5t-54.5 -50.5q-32 -24 -85 -32q-5 0 -5 -9q0 -149 1 -173q2 -48 14 -61.5t57 -22.5q25 -4 25 -18q0 -6 -9.5 -10t-19.5 -4q-18 0 -57.5 3t-53.5 3q-15 0 -51.5 -1.5t-55.5 -1.5q-29 0 -29 15q0 10 33 17q30 6 44.5 18.5t15.5 45.5 q2 72 2 187q0 8 -4 8q-58 15 -95 48q-51 45 -105 153q-24 47 -47.5 64.5t-55.5 19.5q-16 0 -16 6q0 10 10 19q28 27 66 27q19 -1 34 -5.5t28.5 -19t21 -23t20.5 -36.5t17.5 -39.5t19.5 -50.5q26 -65 47.5 -91t53.5 -37q3 -1 4.5 1.5t1.5 6.5v235q0 37 -9 47.5t-40 18.5 q-30 8 -30 18z"/>
<glyph glyph-name="alpha" horiz-adv-x="474" unicode="α" d="M212 325q-35 0 -67 -48q-25 -35 -42 -88t-17 -106q0 -18 8.5 -36.5t24.5 -18.5q29 0 76.5 50.5t83.5 124.5q1 3 2 12.5t0 12.5q-21 97 -69 97zM194 400q10 0 27 -9t29 -26q29 -37 47 -100q3 -5 5 1q27 60 46 122q12 41 20 41q10 0 28 -14q6 -4 11.5 -17t5.5 -21 q0 -21 -20 -73q-9 -23 -34.5 -75.5t-49.5 -86.5q-7 -13 -3 -20q6 -21 23.5 -40t36.5 -19q24 0 40.5 12t36.5 41q2 3 7.5 0t6.5 -8v-7q0 -26 -6 -42q-15 -41 -36 -60t-55 -19q-27 0 -47.5 32t-24.5 83q0 3 -2 5t-5 -1q-63 -79 -115 -103q-20 -11 -40 -11q-36 0 -59 43t-23 89 q0 127 52 208q49 75 98 75z"/>
<glyph glyph-name="beta" horiz-adv-x="470" unicode="β" d="M247 650q-42 0 -79 -44t-48 -130q-7 -54 -11.5 -139t-6 -135.5t-1.5 -64.5q0 -9 10 -22q47 -61 134 -61q59 0 98 44t39 89q0 36 -15 69t-44 46q-12 5 -20 5q-12 0 -28 -11q-5 -4 -13.5 -13.5t-18 -21t-13.5 -15.5q-13 -13 -23 -13q-6 0 -23.5 20t-17.5 31q0 18 18 29 q60 45 107.5 117t47.5 126q0 48 -25.5 71t-66.5 23zM244 714q55 0 91 -48.5t36 -112.5v-7q-2 -80 -57 -190q-1 -1 -0.5 -4.5t2.5 -4.5q56 -39 86 -78q37 -50 37 -109q0 -69 -55 -126q-23 -25 -58.5 -38t-66.5 -13q-39 0 -79 28q-53 40 -74 67q-4 6 -8 -1q-3 -69 -3 -124 q0 -31 2 -55q2 -28 9 -48.5t12.5 -27.5t17.5 -17t13 -11q6 -9 -1 -21t-24 -21.5t-34 -9.5q-7 0 -13.5 8.5t-8.5 17.5q-10 36 -10 121q0 420 4 558q4 125 50.5 196t131.5 71z"/>
<glyph glyph-name="gamma" horiz-adv-x="425" unicode="γ" d="M100 407q37 0 66 -27t46 -106q16 -73 16 -163q0 -7 8 -1q2 2 3 4q67 137 81 168q25 59 38 129q0 3 10 3q5 0 7 -2q29 -12 38 -42q1 -3 1 -8q0 -15 -9 -36q-11 -27 -50 -90t-73 -126t-43 -104q-4 -21 -5 -32q-1 -31 -10 -115t-11 -93q-1 -5 -8 -11t-12 -6h-1 q-12 2 -28.5 13.5t-22.5 24.5q-6 14 -6 28q0 1 0.5 3t0.5 3q5 22 16.5 60t26 83t18.5 58t4 47q0 29 -2 55q-3 34 -10.5 65.5t-20.5 64.5t-35.5 53t-51.5 20q-43 0 -80 -41q-1 -1 -3.5 -1t-5.5 3t-4 7q0 1 -0.5 3t-0.5 3q0 21 16 45q15 24 41.5 42.5t55.5 18.5z"/>
<glyph glyph-name="delta" horiz-adv-x="407" unicode="δ" d="M271 324q-8 13 -16 13q-43 0 -75.5 -19t-64.5 -67q-12 -16 -21.5 -49.5t-9.5 -66.5q0 -58 37 -84q23 -13 49 -13q52 0 90 53t38 133q0 34 -27 100zM155 714q35 0 105.5 -42t116.5 -117q21 -30 21 -44q0 -1 0.5 -4t0.5 -5q0 -8 -2 -12q-1 -5 -5.5 -5t-7.5 4 q-63 87 -123.5 120.5t-104.5 33.5q-20 0 -17 -18q2 -21 38 -70q102 -139 115 -156q81 -109 81 -200q0 -72 -54 -142q-25 -34 -64.5 -51.5t-71.5 -17.5q-50 0 -97 54q-53 63 -53 135q0 53 20 100t46 70q16 13 39.5 25.5t33.5 12.5q8 0 35 -7.5t34 -10.5q6 -2 7 0t-2 9 q-40 81 -132 207q-38 54 -38 76q0 18 23 34q29 21 56 21z"/>
<glyph glyph-name="epsilon" horiz-adv-x="340" unicode="ε" d="M311 86q0 -21 -18 -40q-58 -63 -143 -63q-48 0 -76 33t-28 65q0 53 58 105q2 1 1.5 4t-3.5 4q-56 31 -56 74q0 65 62 107q51 35 120 35q21 0 39.5 -9t18.5 -23q0 -9 -11 -21t-20 -12q-73 0 -114 -25.5t-41 -70.5q0 -30 28 -35q11 0 19 4q4 2 18 8.5t22.5 10.5t21 9 t22.5 7.5t18 2.5q11 0 22.5 -9t11.5 -18q0 -21 -17.5 -38t-31.5 -17q-25 0 -46 -3l-18 -3q-37 -13 -59.5 -33t-22.5 -45q0 -38 72 -38q77 0 135 44q16 14 16 -10z"/>
<glyph glyph-name="zeta" horiz-adv-x="325" unicode="ζ" d="M332 645q0 -16 -20 -35q-7 -7 -28.5 -22t-31.5 -25q-71 -80 -128 -206t-57 -218q0 -24 5 -39.5t14 -22t16.5 -8.5t18.5 -2h12q15 0 57 5.5t58 5.5q23 0 43.5 -29t20.5 -56q-1 -56 -38 -102.5t-69 -65.5q-21 -12 -35 -12t-30.5 17t-16.5 27q0 5 5 13.5t10 9.5 q40 8 93 39.5t53 58.5q0 7 -5.5 14.5t-13.5 8.5h-1q-4 0 -57.5 -6.5t-70.5 -6.5q-15 0 -32.5 7.5t-25.5 16.5q-15 16 -21.5 26t-14 39.5t-7.5 72.5q0 32 15 102t32 117q35 98 85 180q5 9 -2 9q-119 3 -119 83q0 36 31 65q12 11 31 19t25 8q8 0 11.5 -3t3 -6.5t-2.5 -5.5 q-2 -3 -8 -12.5t-10 -15.5t-7.5 -16.5t-3.5 -19.5q0 -32 19.5 -52t42.5 -20q6 0 16 12q47 62 76 86q20 16 35 16q9 0 18 -20.5t9 -30.5z"/>
<glyph glyph-name="eta" horiz-adv-x="450" unicode="η" d="M97 407q25 0 40 -27q11 -17 11 -51q0 -16 -1 -24q0 -5 -8 -107q-1 -6 3.5 -6.5t8.5 7.5q54 131 106 179q31 29 66 29q19 0 34.5 -17.5t23.5 -44.5q6 -24 6 -78q1 -133 2.5 -264.5t2 -188t0.5 -64.5q0 -4 -9 -8.5t-14 -4.5q-10 0 -32.5 12t-25.5 22q-1 4 -1 17q0 19 1 34 q39 448 39 456q0 59 -36 59q-44 0 -78 -63q-44 -77 -103 -279q-3 -10 -11 -10q-7 0 -20 7.5t-15 10.5q-7 7 -7 14q1 6 7 37.5t12.5 66t8.5 53.5q6 45 6 71q0 41 -13 61q-10 18 -35 18q-17 0 -32 -6q-3 -1 -9 2t-6 8q0 16 11 36q21 43 67 43z"/>
<glyph glyph-name="theta" horiz-adv-x="429" unicode="θ" d="M330 302q1 5 0 10t-3 7.5t-3 2.5q-6 0 -111 1.5t-109 1.5q-9 0 -9 -21v-18v-33q0 -92 35 -147q12 -19 33 -31.5t41 -12.5q96 0 126 240zM336 399q1 9 1 28q0 99 -32 155q-26 47 -80 47q-32 0 -57 -30.5t-38 -75.5t-18.5 -72.5t-7.5 -45.5q-2 -17 6 -19q30 -9 216 -9 q9 0 10 22zM381 379q0 -243 -80 -343q-17 -22 -41 -35t-44 -13q-25 0 -57.5 26t-55.5 72q-55 110 -55 240q0 118 20 186.5t55 122.5q15 22 44 46t58 24q42 0 79 -52.5t57 -127.5t20 -146z"/>
<glyph glyph-name="iota" horiz-adv-x="227" unicode="ι" d="M138 -15q-36 0 -53 28q-15 28 -15 82q0 32 -0.5 159.5t-0.5 133.5q0 18 9 18q42 0 59 -5q10 -5 10 -31q0 -44 -11 -146t-11 -123q0 -16 7 -25t14.5 -10.5t19.5 -1.5h8q8 0 32 6q1 0 2 -1.5t2 -4t1 -5.5v-6q0 -29 -28 -48.5t-45 -19.5z"/>
<glyph glyph-name="kappa" horiz-adv-x="461" unicode="κ" d="M457 73q0 -17 -15 -38q-35 -52 -89 -52q-29 0 -49 15t-39 46q-13 20 -23 44.5t-21 58t-12 36.5q-1 7 -10 -5q-1 -2 -2 -3q-10 -15 -24 -50t-19 -57q-3 -16 -6 -33l-4.5 -25.5t-1.5 -10.5q0 -3 -3.5 -6.5t-6.5 -3.5q-19 0 -43 12q-8 8 -8 15q1 8 9 68t15 123.5t7 89.5 q0 11 -14.5 21.5t-40.5 10.5q-15 0 -28 -3q-1 0 -2 3t-1.5 7.5t-0.5 7.5q27 63 74 63q30 0 41 -20t11 -68q0 -15 -10 -125q0 -4 3.5 -4.5t6.5 3.5q57 89 118.5 151t105.5 62q27 0 40.5 -16.5t13.5 -35.5q0 -8 -1 -10q-3 -6 -11 -4q-9 1 -30 1q-43 0 -87 -34.5t-71 -81.5 q-3 -5 -1 -12q17 -66 58.5 -110.5t95.5 -44.5q18 0 40 9t28 15q3 3 5 -0.5t2 -8.5z"/>
<glyph glyph-name="lambda" horiz-adv-x="424" unicode="λ" d="M57 714q52 0 83.5 -38t58.5 -126q7 -21 53.5 -215t54.5 -210q27 -55 67 -55q26 0 47 5q1 0 2.5 -3t2 -6.5t0.5 -5.5q0 -8 -5 -19q-12 -31 -27.5 -45t-40.5 -14q-45 0 -63 69q-57 218 -62 245q-2 6 -6 4t-5 -5q-2 -8 -50.5 -131t-52.5 -129q-24 -54 -33 -54q-6 0 -24 5 t-27 12q-4 3 -7 9t-2 9l147 296q22 51 30 61q6 6 6 15q0 8 -3 18q-24 119 -56 170q-41 66 -107 66q-49 0 -100 -38q-2 -1 -5 2t-3 6q0 14 11 30q19 32 50.5 52t65.5 20z"/>
<glyph glyph-name="uni03BC" horiz-adv-x="453" unicode="μ" d="M92 407q19 0 45 -18q1 0 5.5 -10t4.5 -13q0 -16 -15 -96q-5 -28 -12 -77.5t-8 -54.5q-1 -4 -1 -12q0 -11 4 -31q7 -36 48 -36q33 0 69 37.5t55 86.5q6 18 8 39q4 74 14 158q2 9 7 18.5t9 9.5q34 0 59 -25q4 -4 4 -12q0 -3 -2 -23q-3 -33 -22.5 -97.5t-34.5 -96.5 q-4 -10 -4 -29q0 -33 17.5 -50.5t36.5 -17.5q41 0 67 32q2 3 5 1.5t5 -6.5q1 -2 1 -8q0 -25 -10 -42q-27 -52 -75 -52q-28 0 -48 27.5t-21 88.5l-5 1l-1 -1q-65 -109 -117 -109q-44 0 -76 71q-1 4 -5 -2q-1 -2 -1 -3q-5 -30 -5 -143q0 -30 1 -37q13 -71 68 -105q4 -2 1 -15 q-4 -10 -29 -22q-14 -7 -29 -7t-31 25q-12 22 -12 107q0 44 7 226q0 4 0.5 11.5t0.5 10.5q0 8 -2 32q-7 49 -7 224v25q0 10 9 16q8 4 22 4z"/>
<glyph glyph-name="nu" horiz-adv-x="394" unicode="ν" d="M100 407q21 0 38.5 -22.5t26.5 -61.5q11 -49 17 -124.5t5 -93.5q0 -6 4 -9.5t6 -1.5q26 15 55 62t44 93q11 33 11 56v11q0 45 -19 84q-1 3 5 5.5t12 2.5q13 0 25 -9q29 -24 29 -92q0 -37 -19 -89t-42 -86q-69 -105 -97 -137q-12 -15 -26 -15q-5 0 -14 11q-4 5 -4 15 q2 26 2 82q0 69 -17 137q-15 61 -46 88q-16 15 -43 15q-21 0 -43 -6q-15 -5 -18 5q0 14 12 27q40 53 96 53z"/>
<glyph glyph-name="xi" horiz-adv-x="352" unicode="ξ" d="M352 -16q0 -55 -37 -108q-21 -31 -51 -53t-51 -22q-20 0 -39 16t-19 25q0 15 9 18q69 18 113.5 49t44.5 55q0 17 -10.5 27t-19.5 10q-25 0 -74 -6t-64 -6q-10 0 -14 1q-33 5 -49 17q-55 42 -55 105q0 110 116 211q2 2 2.5 6t-3.5 6l-7 2l-9 3t-10.5 4t-11.5 5.5t-11 7.5 t-11 10.5t-9 13t-8 16t-5 19.5t-2 23q0 29 16 63t28 50t18 22q2 3 1.5 6t-2.5 3q-85 19 -85 74q0 34 30 58q34 27 81 27q7 0 13 -5.5t6 -11.5q0 -4 -16 -12q-48 -24 -48 -61q0 -46 40 -46q8 0 12 6q29 27 73 49.5t60 22.5q26 0 26 -21q0 -11 -6.5 -28.5t-10.5 -20.5 q-9 -7 -57 -26q-1 -1 -13.5 -6t-15.5 -7q-100 -62 -100 -156q0 -26 17.5 -44t38.5 -20q15 0 21 3q3 1 37 16t49 19h2q11 0 24.5 -8.5t13.5 -20.5q0 -17 -16 -35q-4 -3 -19 -9.5t-19 -7.5q-43 -15 -69 -32q-48 -29 -88 -75t-40 -84q0 -55 68 -55q14 0 69.5 9t73.5 9 q6 0 21.5 -7.5t27.5 -20.5q23 -25 23 -72z"/>
<glyph glyph-name="omicron" horiz-adv-x="399" unicode="ο" d="M231 338q-73 0 -120 -55q-42 -47 -42 -115q0 -64 44 -96q23 -15 58 -15q70 0 112 51q43 54 45 128q0 28 -6 39q-6 21 -29.5 42t-61.5 21zM207 407q43 0 85 -35q75 -61 75 -171q0 -52 -17.5 -96t-42.5 -69q-25 -28 -60 -41t-61 -13q-20 0 -49 14.5t-54 45.5 q-51 60 -51 148q0 87 46 148q26 34 62 51.5t67 17.5z"/>
<glyph glyph-name="pi" horiz-adv-x="503" unicode="π" d="M503 391q0 -13 -14 -39.5t-21 -28.5q-4 -2 -36 -2q-9 0 -26 0.5t-24 0.5l-2 -1q-2 -1 -3.5 -2.5t-1.5 -3.5q-34 -156 -34 -181v-3q3 -43 40 -53q9 -3 20 -3q17 0 35 6q2 0 4.5 -3t3 -8t-0.5 -9q-7 -28 -26.5 -50.5t-45.5 -22.5q-32 0 -49 27q-11 17 -14 52v11 q0 60 23 232q1 15 -9 15q-48 8 -81 8q-9 0 -13 -12q-21 -59 -37.5 -133t-16.5 -123q0 -14 1 -20q0 -1 1.5 -11.5t3.5 -21.5t3 -17q1 -4 -3.5 -7.5t-9.5 -3.5q-24 0 -42 11q-14 9 -14 32q0 4 13.5 52t33 122.5t30.5 131.5q-1 0 -2 2l-1 2q-6 0 -16.5 0.5t-16.5 0.5 q-101 0 -118 -88q-2 -6 -10 -6q-9 0 -13 31v5q0 35 21 64q40 55 124 55h2q50 0 148.5 -4t133.5 -4q24 0 51 17h1q8 0 8 -17z"/>
<glyph glyph-name="rho" horiz-adv-x="435" unicode="ρ" d="M265 346q-144 0 -144 -232q0 -22 12 -34q15 -22 62 -22q74 0 118.5 52t44.5 131q0 47 -23.5 76t-69.5 29zM402 208q0 -91 -57 -156q-25 -28 -60 -42.5t-61 -14.5q-52 0 -93 53q-4 2 -6 -2q3 -157 15 -250q3 -40 11 -58q0 -2 -6.5 -9t-9.5 -7h-12q-24 0 -37 6 q-9 4 -15 18.5t-6 26.5q0 4 1.5 91.5t3.5 194t2 155.5q0 107 63 159q40 34 97 34q68 0 119 -60t51 -139z"/>
<glyph glyph-name="uni03C2" horiz-adv-x="330" unicode="ς" d="M301 369q0 -4 -4.5 -14.5t-7.5 -13.5q-5 -6 -13 -6q-82 -5 -143 -50.5t-61 -112.5q0 -95 89 -95q9 0 43.5 1t44.5 1q21 0 36 -22q15 -23 15 -62q0 -57 -38.5 -111t-80.5 -54q-14 0 -30 16q-12 12 -12 28q0 1 1 2v2q5 14 17 17q44 11 76 36.5t32 43.5q0 25 -23 25 q-7 0 -43.5 -2.5t-54.5 -2.5q-43 0 -68 25q-43 43 -43 139q0 57 26 111.5t60 80.5q71 58 132 58q16 0 33 -11t17 -29z"/>
<glyph glyph-name="sigma" horiz-adv-x="451" unicode="σ" d="M485 406q0 -13 -9.5 -35t-25.5 -36q-8 -10 -28 -10q-52 0 -110 5q-3 0 -5 -4t0 -7q50 -63 50 -121q0 -103 -49 -156q-52 -60 -117 -60q-54 0 -105.5 56t-51.5 141q0 60 20.5 109.5t55.5 76.5q40 34 81 34q7 0 86.5 -2t108.5 -2q37 0 53.5 3.5t34.5 18.5h2q9 0 9 -11z M208 336q-51 0 -89 -51q-44 -61 -44 -137q0 -46 26 -74t67 -28q56 0 93.5 53t37.5 130q0 34 -6.5 57.5t-13 31.5t-12.5 11q-13 7 -59 7z"/>
<glyph glyph-name="tau" horiz-adv-x="411" unicode="τ" d="M390 342q-13 -13 -39 -13q-12 0 -58.5 3.5t-48.5 3.5q-6 0 -9 -10q-8 -34 -14.5 -99.5t-6.5 -104.5q0 -20 12 -36t33 -16q30 0 53 10q2 1 4.5 -1.5t3.5 -7t0 -9.5q-9 -34 -36.5 -57t-57.5 -23q-29 0 -46.5 26t-17.5 73q0 29 39 248q0 7 -6 10q-18 2 -70 2q-57 0 -89 -55 q-11 -16 -16 -16q-10 0 -10 19q0 16 11.5 40t29.5 40q16 16 43.5 26t46.5 10q14 0 111 -3t114 -3q23 0 45 22q1 0 1 0.5t1 0.5q3 0 6 -5.5t3 -10.5q0 -16 -12 -36t-20 -28z"/>
<glyph glyph-name="upsilon" horiz-adv-x="412" unicode="υ" d="M373 243q0 -134 -72 -210q-24 -26 -55 -38.5t-49 -12.5q-38 0 -70.5 21.5t-44.5 45.5q-6 11 -6 24q0 4 2 20q23 105 23 175q0 55 -46 55q-7 0 -19.5 -1t-15.5 -1q-5 0 -5 17q2 22 31.5 45.5t62.5 23.5q41 0 52 -46q1 -4 1 -18q0 -17 -2 -23q-40 -167 -40 -202 q0 -17 12 -33q22 -28 60 -28q50 0 88 49.5t38 156.5q0 70 -38 136q-2 4 4.5 7.5t11.5 3.5q21 0 43 -32q34 -50 34 -135z"/>
<glyph glyph-name="phi" horiz-adv-x="505" unicode="φ" d="M294 359q-2 1 -3.5 -1t-1.5 -4t-0.5 -43t-1 -96t-0.5 -91q0 -54 1 -58q1 -5 1.5 -8t2.5 -5t4 -2q55 10 98.5 47t43.5 89q0 61 -41.5 107.5t-102.5 64.5zM253 355q-1 7 -7 7q-88 -12 -138 -79q-35 -45 -35 -109q0 -58 50 -89q24 -15 62 -26.5t59 -11.5q5 0 5 7v10 q0 23 1 94.5t2 133.5t1 63zM243 -22q-35 3 -79 24.5t-62 41.5q-68 72 -68 157q0 90 64 154q55 56 142 71q10 2 10 8q-5 45 -5 166q0 7 7 14t15 7q6 0 26 -8q9 -5 9 -22q0 -7 -4 -78.5t-5 -79.5q0 -3 6 -7q80 -27 127 -87t47 -138q0 -43 -19.5 -90.5t-47.5 -72.5 q-45 -39 -115 -56q-1 -1 -4 -12q0 -141 12 -214q1 -6 -2.5 -11.5t-8.5 -5.5q-24 0 -40 12q-7 5 -9 19v5q0 14 4.5 92.5t4.5 100.5q0 10 -5 10z"/>
<glyph glyph-name="chi" horiz-adv-x="428" unicode="χ" d="M104 407q26 0 46.5 -26t30.5 -63q17 -65 25 -139q0 -4 2 -5.5t4 -1t3 2.5q5 12 57.5 106t62.5 105q18 25 36 25q43 0 59 -13q2 -2 2.5 -7t-0.5 -7q-40 -31 -73 -77q-26 -39 -70.5 -114t-52.5 -96q-5 -12 -5 -34q0 -88 39 -163.5t89 -75.5q34 0 68 26q4 4 8 -7q1 -4 1 -7 q0 -18 -22 -46q-37 -45 -85 -45q-73 0 -99 136q-14 72 -23 156q-3 8 -11 -3q-1 -1 -2 -3q-60 -120 -83 -176q-27 -68 -27 -108q0 -17 5 -30q1 -4 -3 -7t-10 -3q-4 0 -8 2q-30 13 -42 75v6q0 30 15 64q7 18 23 50.5t31.5 61t42 77.5t40.5 74q8 12 6 25q-9 87 -39 135.5 t-70 48.5q-24 0 -63 -26q-2 -2 -6.5 1t-4.5 7q0 13 7 28q13 29 40 50t56 21z"/>
<glyph glyph-name="psi" horiz-adv-x="562" unicode="ψ" d="M66 409q12 0 22.5 -4t18.5 -12.5t14.5 -17.5t12 -25.5t9.5 -29t8.5 -34t7 -36t7 -40t7.5 -40.5q17 -92 98 -110q2 -1 4.5 1.5t2.5 7.5q-1 76 -6.5 264t-5.5 231q0 9 9.5 18t16.5 9q40 0 40 -32q0 -35 -5.5 -233.5t-5.5 -251.5q0 -4 2.5 -7.5t7.5 -1.5q24 9 35.5 18 t28.5 40.5t33 90.5q20 79 54 137t83 58q29 0 37 -16q2 -6 2 -7q0 -8 -5 -8q-61 -16 -91 -90q-13 -34 -33 -96.5t-25 -75.5q-21 -59 -55 -91t-68 -34q-4 0 -7.5 -4.5t-3.5 -7.5q-3 -84 -3 -117q0 -47 27 -89q6 -8 -2 -19q-8 -7 -20.5 -13.5t-16.5 -6.5q-23 0 -23 43 q0 5 1 79.5t1 118.5q0 8 -10 11q-50 10 -81 55.5t-43 110.5q-22 112 -33 136q-15 37 -37 37q-30 0 -53 -14q-3 -2 -7.5 -1.5t-5.5 2.5q-8 10 -8 31q0 29 14 43q7 8 23 15.5t27 7.5z"/>
<glyph glyph-name="uni03D1" horiz-adv-x="428" unicode="ϑ" d="M187 640q-42 0 -75.5 -35t-33.5 -88q0 -39 46.5 -70.5t99 -45t91.5 -13.5q1 0 2 1.5t2.5 4t1.5 4.5q0 120 -35 181t-99 61zM200 -12q-27 0 -43.5 16.5t-20.5 32.5q-11 47 -28 92q-8 14 -15 14q-22 0 -56 -27q-1 -3 -6.5 -3t-8.5 2q-7 5 -12 21.5t-5 27.5q0 17 14 33 q7 9 22.5 16.5t28.5 7.5q21 0 38 -22t22 -45q20 -94 69 -94q45 0 77.5 64t42.5 185q0 8 -5 10q-64 4 -121 24t-100 67.5t-43 113.5q0 45 21.5 88.5t55.5 69.5q39 31 75 31q44 0 79.5 -51t54.5 -120.5t25 -144.5q0 -6 8 -6l44 4q2 1 7 -3.5t5 -8.5q0 -27 -17 -48 q-7 -10 -11 -11q-3 -1 -29 -4q-5 0 -6 -9q0 -159 -43.5 -241t-118.5 -82z"/>
<glyph glyph-name="uni03D6" horiz-adv-x="555" unicode="ϖ" d="M483 267q0 61 -21.5 104.5t-59 66t-78.5 32t-90 9.5q-92 0 -145 -28q-6 -3 -11.5 2t-5.5 10q0 9 10.5 26.5t19.5 24.5q50 34 146 34q93 0 163 -58q49 -41 80 -107.5t31 -151.5q0 -112 -53 -180.5t-97 -68.5q-19 0 -36.5 11t-29 29t-16.5 28t-9 20q-1 2 -4.5 2.5 t-6.5 -3.5q-18 -35 -51.5 -61t-62.5 -26q-43 0 -82.5 55.5t-39.5 133.5q0 104 50 182q14 22 33 38t30 16q13 0 29 -16t16 -23q0 -5 -4.5 -14.5t-8.5 -11.5q-35 -29 -71.5 -87t-36.5 -120q0 -81 76 -81q33 0 64.5 30.5t31.5 58.5q0 13 -3.5 38.5t-3.5 33.5q0 19 12 32 q17 15 42 15q15 0 28 -12t13 -31q0 -13 -21 -69q-13 -24 -10 -40q1 -35 17.5 -45.5t43.5 -10.5q37 0 79.5 55.5t42.5 157.5z"/>
<glyph glyph-name="uni0400" horiz-adv-x="563" unicode="Ѐ" d="M194 841q7 0 40 -28q7 -7 26 -24t37 -34t31 -31q17 -17 10 -25q-3 -6 -15 -6q-11 0 -21 5q-62 30 -133 79q-21 13 -21 24q0 9 19 25q17 15 27 15zM223 643h147q70 0 92 3q2 1 5 -3t4 -8q0 -26 1 -57t1 -38q0 -26 -15 -26q-11 0 -16 24q-9 37 -24.5 50.5t-42.5 17.5 q-32 5 -102 5q-28 0 -40 -1q-2 0 -4.5 -2t-6 -9t-4.5 -17q-4 -38 -4 -194v-15.5t0.5 -12.5t0.5 -6q3 -10 7 -10h65q50 0 69.5 3.5t28 12.5t18.5 34q8 21 18 21q11 0 8 -22q-3 -42 -3 -72q0 -15 1.5 -34.5t1.5 -30.5q0 -25 -11 -25t-17 22q-11 35 -22 42.5t-57 9.5 q-32 2 -99 2q-3 0 -6 -3.5t-3 -5.5q-3 -14 -3 -102v-55q0 -56 10 -83q6 -18 19 -22q40 -7 91 -7q69 0 95 7q52 13 83 74q14 28 23 28t9 -20q0 -1 -0.5 -3.5t-0.5 -3.5q-1 -8 -16 -54.5t-20 -52.5q-9 -12 -17 -12l-49 2q-48 2 -126 4t-150 2q-28 0 -62 -2.5t-51 -2.5 q-30 0 -30 13q0 9 28 16q41 10 55.5 22.5t17.5 50.5q8 112 8 284v118q0 37 -1 51q-2 33 -12.5 46t-43.5 20q-29 7 -29 17q0 14 28 14q21 0 69 -2t84 -2z"/>
<glyph glyph-name="uni0401" horiz-adv-x="563" unicode="Ё" d="M386 789q17 0 29.5 -14.5t12.5 -32.5t-13.5 -31t-31.5 -13q-17 0 -30 12.5t-13 31.5q0 21 13.5 34t32.5 13zM185 790q18 0 31 -14.5t13 -33.5q0 -21 -14 -32.5t-34 -11.5q-15 0 -28 12t-13 34q0 18 13 32t32 14zM223 643h147q70 0 92 3q2 1 5 -3t4 -8q0 -26 1 -57t1 -38 q0 -26 -15 -26q-11 0 -16 24q-9 37 -24.5 50.5t-42.5 17.5q-32 5 -102 5q-28 0 -40 -1q-2 0 -4.5 -2t-6 -9t-4.5 -17q-4 -38 -4 -194v-15.5t0.5 -12.5t0.5 -6q3 -10 7 -10h65q50 0 69.5 3.5t28 12.5t18.5 34q8 21 18 21q11 0 8 -22q-3 -42 -3 -72q0 -15 1.5 -34.5t1.5 -30.5 q0 -25 -11 -25t-17 22q-11 35 -22 42.5t-57 9.5q-32 2 -99 2q-3 0 -6 -3.5t-3 -5.5q-3 -14 -3 -102v-55q0 -56 10 -83q6 -18 19 -22q40 -7 91 -7q69 0 95 7q52 13 83 74q14 28 23 28t9 -20q0 -1 -0.5 -3.5t-0.5 -3.5q-1 -8 -16 -54.5t-20 -52.5q-9 -12 -17 -12l-49 2 q-48 2 -126 4t-150 2q-28 0 -62 -2.5t-51 -2.5q-30 0 -30 13q0 9 28 16q41 10 55.5 22.5t17.5 50.5q8 112 8 284v118q0 37 -1 51q-2 33 -12.5 46t-43.5 20q-29 7 -29 17q0 14 28 14q21 0 69 -2t84 -2z"/>
<glyph glyph-name="uni0402" horiz-adv-x="733" unicode="Ђ" d="M309 643q153 0 237 2q50 3 67 15q12 6 16 6q2 0 4 -2.5t2 -7.5t-2 -12q-14 -42 -24 -115q-1 -7 -5.5 -12.5t-10.5 -5.5q-10 0 -14 34q-2 15 -6 25t-8 15.5t-13.5 9t-14 4.5t-19 2.5t-20.5 2.5q-16 2 -65 2q-65 0 -85 -3q-3 -1 -5.5 -6t-2.5 -7v-233q0 -2 2 -3t5 0 q62 26 125 26q100 0 157.5 -68t57.5 -179q0 -75 -25.5 -139.5t-63 -104.5t-73 -64t-62.5 -30q-3 -1 -8 -1q-22 0 -22 13q0 4 17 14q68 37 106.5 113t38.5 182q0 110 -46 166t-125 56q-43 0 -72 -12q-12 -5 -12 -18q0 -180 4 -212q3 -36 14.5 -48.5t55.5 -22.5q27 -6 27 -18 t-28 -12q-2 0 -21.5 1.5t-45.5 2.5t-45 1q-30 0 -71.5 -3.5t-43.5 -3.5q-30 0 -30 10q0 14 19 18q49 11 61 30t14 79q7 207 7 341v119q0 13 -8 13q-32 5 -90 5q-54 0 -74 -23q-11 -8 -33 -51q-10 -23 -19 -23q-10 0 -10 22q0 5 9.5 47t9.5 76q0 5 5.5 10.5t9.5 5.5 q3 0 16 -11q10 -10 34 -12q52 -6 202 -6z"/>
<glyph glyph-name="uni0403" horiz-adv-x="513" unicode="Ѓ" d="M367 830q9 8 20 8q3 0 7 -1t5 -1q31 -21 31 -36q0 -6 -7 -15t-15 -13q-67 -45 -146 -80q-13 -5 -21 -5q-10 0 -15 5q-1 0 -1 4q0 11 13 23q72 68 129 111zM307 643q133 0 166 6h1q9 0 9 -10q-2 -42 -2 -95v-36q0 -9 -4 -17t-9 -8q-14 0 -23 31q-10 31 -15.5 45.5 t-16.5 28.5t-27 16q-28 4 -103 4q-43 0 -51 -1t-12.5 -5t-4.5 -8q-4 -54 -4 -221q0 -175 3 -283q1 -18 4 -27.5t18.5 -19.5t45.5 -16q24 -5 24 -19q0 -11 -28 -11q-12 0 -45 1.5t-53 1.5q-21 0 -64.5 -3t-51.5 -3q-27 0 -27 11q0 13 26 20q25 5 38.5 15.5t15.5 17t3 15.5 q8 83 8 303q0 153 -2 179t-16 40t-47 22q-24 6 -24 17q0 12 28 12q24 0 60 -1.5t50 -1.5h130z"/>
<glyph glyph-name="uni0404" horiz-adv-x="682" unicode="Є" d="M410 628q-116 0 -189 -79t-74 -189q0 -10 5 -10q43 0 119 0.5t106 0.5q77 0 132 6q5 1 7 -1.5t2 -8.5q0 -12 -25.5 -28t-53.5 -16q-55 0 -162 5t-122 5q-7 0 -7 -9q1 -28 10.5 -67t20.5 -62q40 -80 105 -116t135 -36q63 0 107 24.5t78 82.5q19 29 28 29q10 0 10 -16 q0 -6 -1 -9q-6 -23 -36 -90q-10 -22 -44 -35q-67 -24 -155 -25h-6q-97 0 -168.5 35.5t-108.5 79.5q-77 87 -77 220q0 85 34.5 153t75.5 101q107 87 257 87q70 0 129 -16q3 -1 28.5 -7.5t42.5 -8.5q3 0 9 -8t6 -13v-96q0 -30 -11 -30q-13 0 -19 24q-14 53 -55 84 q-52 39 -133 39z"/>
<glyph glyph-name="uni0405" horiz-adv-x="473" unicode="Ѕ" d="M274 661q22 0 46 -3.5t47.5 -9t25.5 -5.5q4 -1 8 -9t4 -10q1 -8 3.5 -27.5t4.5 -35.5t2 -18q0 -27 -7 -27q-18 0 -24 21q-8 24 -23.5 45t-25.5 27q-30 23 -71 23q-50 0 -82.5 -33.5t-32.5 -83.5q0 -21 7.5 -39.5t14.5 -30t31.5 -31t35.5 -27t50 -33.5q68 -46 103 -89 t35 -105q0 -39 -21.5 -77.5t-60.5 -63.5q-24 -16 -63 -26t-73 -10q-26 0 -67.5 7.5t-63.5 18.5q-7 4 -15 16t-8 16q-2 13 -6 34.5t-6.5 37t-2.5 22.5q0 3 5.5 11t8.5 8q11 0 37 -57q18 -38 57.5 -59t72.5 -21q52 0 86.5 34t34.5 87q0 36 -26 72t-99 82q-71 46 -108 92 t-37 106q0 73 55 122q54 49 148 49z"/>
<glyph glyph-name="uni0406" horiz-adv-x="339" unicode="І" d="M128 326q0 170 -3 219q-1 22 -2.5 30t-7 18.5t-17 14.5t-32.5 8q-28 5 -28 18q0 12 25 12q12 0 52 -1.5t57 -1.5q26 0 58.5 1.5t48.5 1.5q25 0 25 -12t-26 -17q-21 -4 -33 -10t-18 -18t-6.5 -15l-3.5 -21q-6 -40 -6 -294q0 -101 3 -149q2 -44 14.5 -60.5t58.5 -25.5 q26 -4 26 -17t-27 -13q-28 0 -83 3t-66 3q-14 0 -35.5 -1t-40.5 -1q-26 0 -26 14q0 11 30 17q36 8 45.5 21.5t12.5 51.5q5 58 5 224z"/>
<glyph glyph-name="uni0407" horiz-adv-x="339" unicode="Ї" d="M274 789q17 0 29.5 -14.5t12.5 -32.5t-13.5 -31t-31.5 -13q-17 0 -30 12.5t-13 31.5q0 21 13.5 34t32.5 13zM73 790q18 0 31 -14.5t13 -33.5q0 -21 -14 -32.5t-34 -11.5q-15 0 -28 12t-13 34q0 18 13 32t32 14zM128 326q0 170 -3 219q-1 22 -2.5 30t-7 18.5t-17 14.5 t-32.5 8q-28 5 -28 18q0 12 25 12q12 0 52 -1.5t57 -1.5q26 0 58.5 1.5t48.5 1.5q25 0 25 -12t-26 -17q-21 -4 -33 -10t-18 -18t-6.5 -15l-3.5 -21q-6 -40 -6 -294q0 -101 3 -149q2 -44 14.5 -60.5t58.5 -25.5q26 -4 26 -17t-27 -13q-28 0 -83 3t-66 3q-14 0 -35.5 -1 t-40.5 -1q-26 0 -26 14q0 11 30 17q36 8 45.5 21.5t12.5 51.5q5 58 5 224z"/>
<glyph glyph-name="uni0408" horiz-adv-x="330" unicode="Ј" d="M-73 -167q0 17 23 40q13 13 24 13q14 0 31 -12q33 -21 52 -21q23 0 40 19q24 25 28 83q6 93 6 312q0 222 -6 294q-1 13 -4.5 21.5t-17 18.5t-37.5 14q-31 5 -31 19q0 12 27 12q14 0 50.5 -1.5t60.5 -1.5q18 0 54 1.5t51 1.5q27 0 27 -10q0 -14 -30 -20q-32 -6 -44.5 -21 t-12.5 -52q0 -41 -2 -225t-2 -228q-1 -84 -33 -149.5t-75 -98.5q-63 -48 -114 -48q-25 0 -45 12.5t-20 26.5z"/>
<glyph glyph-name="uni0409" horiz-adv-x="889" unicode="Љ" d="M749 184q0 71 -49.5 113t-123.5 42q-60 0 -89 -9q-6 -4 -4 -9q73 -216 80 -234q20 -56 57 -56q49 0 89 41t40 112zM843 201q0 -57 -26 -99t-67 -63.5t-80.5 -31t-78.5 -9.5q-13 0 -41 0.5t-33 0.5q-6 0 -35 -1.5t-43 -1.5q-28 0 -28 13q0 11 21 16q27 6 35 16t8 24 q0 5 -33 110q-25 76 -71.5 208.5t-47.5 134.5q-4 16 -9 2q-91 -243 -109 -293q-50 -139 -50 -158q0 -18 10 -25t46 -17q22 -5 22 -17q0 -13 -23 -13q-6 0 -43.5 1.5t-57.5 1.5q-21 0 -46.5 -1.5t-30.5 -1.5q-26 0 -26 12q0 11 21 17q37 11 51 24.5t38 62.5q11 23 45.5 108 t79 197t59.5 149q2 6 2.5 12t1.5 9q0 1 0.5 3l1 4t1.5 3q6 7 17.5 27.5t14.5 24.5q6 11 16 11q6 0 21 -46q7 -21 12 -35q14 -41 39 -109t36 -100q2 -11 12 -9q68 17 151 17q100 0 158.5 -49t58.5 -129z"/>
<glyph glyph-name="uni040A" horiz-adv-x="986" unicode="Њ" d="M845 182q0 67 -40.5 107.5t-124.5 40.5q-44 0 -57 -2t-13 -18q0 -11 1 -108.5t1 -108.5q0 -23 25.5 -45.5t52.5 -22.5q62 0 105 40q50 45 50 117zM526 390q0 17 0.5 46t0.5 41q0 49 -3 87q-2 27 -11.5 36.5t-37.5 17.5q-23 6 -23 16q0 11 24 11q5 0 40 -1t50 -1 q23 0 57.5 1t43.5 1q25 0 25 -10q0 -13 -30 -20q-27 -7 -38 -19t-12 -42q-2 -25 -2 -105v-73q0 -12 9 -12q14 0 49.5 1.5t48.5 1.5q111 0 167.5 -46.5t56.5 -126.5q0 -99 -86 -158q-32 -22 -84 -31.5t-91 -9.5q-16 0 -61 2t-65 2q-13 0 -46.5 -1t-42.5 -1q-28 0 -28 14 q0 11 20 16q44 10 55 25t13 66q2 50 2 124q0 14 -0.5 28t-0.5 22.5v9.5q0 21 -11 21q-13 0 -116.5 1.5t-142.5 1.5h-22l-12 -1q-10 -2 -10 -13q-1 -12 -1 -75q0 -104 1 -137q1 -34 12.5 -48.5t43.5 -24.5q30 -10 30 -21q0 -10 -25 -10l-43 2q-43 2 -64 2q-11 0 -47.5 -1.5 t-54.5 -1.5q-30 0 -30 12q0 11 20 16q40 9 50.5 19t14.5 46q9 76 9 359v56q0 40 -1 59q-1 24 -11 33t-38 18t-28 20q0 10 23 10q13 0 44 -1t45 -1q23 0 60.5 1t47.5 1q26 0 26 -11q0 -10 -35 -21q-32 -9 -38.5 -19.5t-8.5 -44.5q-3 -49 -3 -161q0 -8 4 -14.5t8 -6.5 q128 -4 293 -4q10 0 10 27z"/>
<glyph glyph-name="uni040B" horiz-adv-x="746" unicode="Ћ" d="M305 643q159 0 243 2q53 3 67 13q12 6 15 6q4 0 6 -5.5t-1 -15.5q-15 -44 -24 -114q-1 -7 -6 -12.5t-10 -5.5q-10 0 -15 34q-2 15 -6 25t-7.5 15.5t-13 9t-14 4.5t-19 2.5t-20.5 2.5q-16 2 -67 2q-68 0 -89 -3q-2 -1 -4.5 -6t-2.5 -7q0 -17 -1 -99t-1 -125q0 -5 2 -8 t6 -2q77 29 150 29q90 0 134 -49q40 -47 40 -111q0 -33 1 -89t1 -57q1 -28 9 -37t37 -17q20 -6 20 -13q0 -15 -26 -15q-7 0 -48 1.5t-58 1.5q-12 0 -39.5 -1.5t-37.5 -1.5q-28 0 -28 12q0 10 19 15q42 10 52 25t12 65q1 22 1 58v32q0 22 -6 43.5t-19.5 44t-41.5 36.5t-67 14 q-54 0 -104 -14q-9 -3 -9 -17q0 -167 6 -215q2 -36 13 -48.5t55 -22.5q28 -6 28 -18t-29 -12q-2 0 -21 1.5t-45 2.5t-45 1q-30 0 -71 -3.5t-43 -3.5q-30 0 -30 10q0 14 18 18q49 11 61 30.5t15 78.5q7 207 7 341v119q0 5 -3 9t-6 4q-32 5 -86 5q-53 0 -74 -22 q-10 -8 -33 -52q-10 -23 -19 -23q-10 0 -10 22q0 5 9.5 49t9.5 78q0 5 5 11t10 6q2 0 3.5 -2l4.5 -6t8 -8q10 -10 34 -12q52 -6 198 -6z"/>
<glyph glyph-name="uni040C" horiz-adv-x="676" unicode="Ќ" d="M442 825q9 8 20 8q3 0 7 -1t5 -1q31 -21 31 -36q0 -6 -7 -14.5t-15 -13.5q-67 -45 -146 -80q-13 -5 -21 -5q-10 0 -15 5q-1 0 -1 4q0 11 13 23q72 68 129 111zM43 634q0 12 29 12q11 0 45.5 -1.5t50.5 -1.5t50.5 1t45.5 1q24 0 24 -12q0 -10 -26 -15q-29 -8 -38.5 -18 t-11.5 -39q-2 -40 -2 -139q0 -60 1 -69q0 -10 7 -10q48 0 76 17t65 74q13 20 34.5 56t36.5 59q33 53 64 79.5t72 26.5q49 0 49 -38q0 -7 -5 -25.5t-9 -22.5q-12 -14 -27 -7q-3 1 -12.5 5.5t-17.5 7t-16 2.5q-26 0 -46.5 -18t-47.5 -62q-58 -94 -91 -131q-3 -2 0 -5 q67 -110 175 -248q22 -29 39.5 -46t38.5 -26.5t30 -12t40 -9.5q8 -3 8 -8q0 -13 -23 -17q-9 -2 -30 -2h-27q-44 0 -79.5 16t-55.5 40q-58 69 -156 214q-20 30 -37.5 42t-47.5 13q-5 0 -7 -12q-1 -9 -1 -53q0 -85 3 -163q2 -27 12 -39.5t45 -20.5q26 -7 26 -19q0 -13 -29 -13 q-10 0 -54.5 1.5t-61.5 1.5q-16 0 -49.5 -1.5t-49.5 -1.5q-25 0 -25 13q0 11 30 18q39 8 53 23.5t15 62.5q3 86 3 228q0 175 -3 211q-2 26 -11.5 39.5t-31.5 20.5q-35 9 -38 17q-1 2 -1 4z"/>
<glyph glyph-name="uni040D" horiz-adv-x="806" unicode="Ѝ" d="M329 843q7 0 40 -28q7 -7 26 -24t37 -34t31 -31q17 -17 10 -25q-3 -6 -15 -6q-11 0 -21 5q-62 30 -133 79q-21 13 -21 24q0 9 19 25q18 15 27 15zM50 632q0 13 23 13q13 0 43 -1t44 -1q23 0 61.5 1t48.5 1q26 0 26 -13q0 -12 -29 -18q-32 -6 -42 -20.5t-12 -48.5 q-3 -111 -3 -269q0 -94 2 -106q2 -7 4 -8q1 -1 3 1q340 339 369 373q6 8 8 19v19q-2 29 -47 41q-23 6 -23 19q0 11 24 11q5 0 45.5 -1t55.5 -1q19 0 54 1.5t38 1.5q24 0 24 -11t-25 -17q-34 -8 -44.5 -18t-13.5 -33q-6 -39 -6 -317q0 -95 3 -143q2 -44 12.5 -57t46.5 -22 q23 -8 23 -18q0 -13 -28 -13q-7 0 -43.5 1.5t-53.5 1.5q-12 0 -52 -3t-50 -3q-26 0 -26 13q0 11 21 17q41 10 51 25.5t11 67.5q5 205 5 319v28l-1 14q-1 4 -4 7t-5 0q-200 -203 -370 -378q-6 -9 -6 -18q0 -3 0.5 -10t0.5 -10q0 -25 45 -37q27 -8 27 -19q0 -15 -29 -15l-36 1 q-37 1 -58 1q-11 0 -45 -2t-52 -2q-32 0 -32 14q0 9 24 17q41 10 52.5 21.5t13.5 48.5q5 87 5 246q0 183 -2 221q-1 24 -10.5 33.5t-36.5 16.5q-29 7 -29 18z"/>
<glyph glyph-name="uni040E" horiz-adv-x="654" unicode="Ў" d="M347 680q-66 0 -103.5 26t-37.5 59q0 16 12 30t33 14q16 0 24.5 -10.5t8.5 -27.5q0 -5 -2 -14t-2 -13q0 -14 17.5 -23.5t50.5 -9.5h4q35 0 52.5 9.5t17.5 21.5q0 6 -3.5 15.5t-3.5 16.5q0 37 35 37q17 0 29 -11t12 -30q0 -42 -46.5 -66t-97.5 -24zM189 -39q-32 0 -52 20 q-15 15 -15 49v10q0 2 2 6.5t5 8t4 3.5q35 -15 76 -15q36 0 59.5 21.5t45.5 62.5q3 6 3 13q0 11 -6 25q-64 127 -198 371q-27 48 -40 61t-46 21q-26 6 -26 18t30 12q6 0 39.5 -2.5t61.5 -2.5q19 0 58 1t49 1q24 0 24 -12q0 -13 -22 -17q-50 -10 -50 -30q0 -8 3 -15 q7 -19 81 -159.5t94 -171.5q5 -6 11 3q45 81 126 296q10 26 10 40t-10 21.5t-36 15.5q-21 6 -21 18q0 11 25 11q10 0 30 -1t39 -1q15 0 49.5 1.5t44.5 1.5q25 0 25 -10t-21 -17q-37 -10 -52 -23t-36 -55q-12 -25 -66 -146t-85 -181q-69 -134 -118.5 -193.5t-94.5 -59.5z"/>
<glyph glyph-name="uni040F" horiz-adv-x="799" unicode="Џ" d="M643 0h-151q-28 0 -38.5 -7.5t-18.5 -41.5q-12 -40 -23 -129q-1 -10 -6 -18t-12 -8q-15 0 -18 28q-7 90 -20 138q-12 38 -33 38h-160q-11 0 -46 -2t-53 -2q-32 0 -32 10q0 12 25 19q38 9 49.5 21t14.5 42q6 40 6 300q0 9 1 57.5t1 74.5q0 8 -0.5 21t-0.5 17 q-1 25 -12.5 37t-37.5 20q-27 8 -27 19t28 11q13 0 45 -1t46 -1q23 0 54 1t41 1q31 0 31 -11q0 -13 -28 -19q-31 -7 -41 -19.5t-12 -46.5q-3 -40 -3 -206q0 -254 4 -285q2 -21 15 -21h46q43 0 137 1t153 1q10 0 15 20q0 5 2.5 143t2.5 186q0 23 -0.5 88t-0.5 84q0 27 -10 37 t-44 19q-26 7 -26 20q0 10 32 10q13 0 51 -1.5t52 -1.5q19 0 53 1.5t37 1.5q28 0 28 -12q0 -10 -29 -17q-30 -7 -40.5 -19.5t-12.5 -35.5q-7 -82 -7 -286q0 -40 1 -85t2 -75t1 -33q0 -27 10.5 -36t46.5 -20q23 -8 23 -19t-28 -11q-7 0 -36.5 1.5t-46.5 1.5z"/>
<glyph glyph-name="uni0410" horiz-adv-x="676" unicode="А" d="M398 303q1 0 2.5 3t0.5 5q-65 195 -78 215q-4 9 -8 0q-69 -184 -78 -219q-2 -7 5 -7q14 0 48.5 0.5t63.5 1t44 1.5zM353 661q7 0 16 -26q6 -19 44 -124q95 -267 144 -385q23 -58 40.5 -75t53.5 -26q24 -7 24 -17q0 -13 -32 -13q-15 0 -59 2.5t-67 2.5q-17 0 -38 -1 t-33 -1q-31 0 -31 12t24 16q42 8 42 34q0 5 -2 17q-6 33 -56 171q-3 10 -34 10q-136 0 -164 -4q-6 0 -11 -8q-52 -130 -52 -175q0 -28 49 -43q27 -8 27 -18q0 -13 -28 -13q-6 0 -32 1.5t-47 1.5t-60 -2.5t-44 -2.5q-23 0 -23 10q0 13 22 20q41 14 56.5 26.5t35.5 58.5 q12 27 86 217.5t93 237.5q1 3 9 26q3 9 7 17l24 40q11 13 16 13z"/>
<glyph glyph-name="uni0411" horiz-adv-x="583" unicode="Б" d="M444 190q0 64 -42.5 106.5t-127.5 42.5q-41 0 -57 -6q-6 -2 -9 -26v-16q0 -26 1 -103t1 -83q0 -33 27.5 -56t60.5 -23q62 0 103 42q43 48 43 122zM212 582q-4 -46 -4 -152q0 -36 1 -43q1 -10 3 -15.5t6 -4.5q54 8 99 8q104 0 162 -49t58 -133q0 -99 -87 -155 q-31 -22 -83 -32.5t-88 -10.5q-16 0 -69.5 2t-71.5 2h-17q-18 0 -39.5 -1t-26.5 -1q-31 0 -31 11q0 6 9 11t18 7q42 8 55 20.5t16 40.5q7 49 7 316q0 157 -4 172q-6 27 -66 43q-22 6 -22 17q0 13 25 11l108 -3h190q57 0 90 7q4 0 11 1.5t9 1.5q11 0 11 -19q0 -70 2 -99 q0 -8 -4.5 -15.5t-10.5 -7.5q-13 0 -23 31q-6 18 -9 25.5t-10 17.5t-18 14t-27 5q-51 3 -124 3q-27 0 -32 -1q-11 -4 -13 -25z"/>
<glyph glyph-name="uni0412" horiz-adv-x="589" unicode="В" d="M450 180q0 88 -83 130q-37 19 -106 19q-37 0 -44 -7q-5 -8 -7 -29q-1 -12 -1 -57q0 -104 5 -144q3 -21 16 -33q14 -16 35 -25t33 -9q65 0 108.5 42.5t43.5 112.5zM416 488q0 61 -38.5 96t-107.5 35q-21 0 -43 -8q-9 -5 -12 -16q-6 -48 -6 -222q0 -13 11 -13q37 0 80.5 7 t60.5 18q24 16 39.5 44t15.5 59zM500 495q0 -88 -81 -132q-2 -1 -1 -4t3 -4q123 -55 123 -165q0 -96 -80 -149q-33 -23 -84 -34.5t-95 -11.5q-12 0 -78.5 2t-91.5 2q-12 0 -34 -0.5t-30 -0.5q-29 0 -29 13q0 11 25 16q49 9 60.5 20t14.5 41q8 56 8 328q0 128 -6 158 q-4 19 -14.5 27t-48.5 13q-26 4 -26 16q0 13 27 13h67q15 0 76 3.5t83 3.5q95 0 141 -29q35 -21 53 -55.5t18 -70.5z"/>
<glyph glyph-name="uni0413" horiz-adv-x="513" unicode="Г" d="M307 643q133 0 166 6h1q9 0 9 -10q-2 -42 -2 -95v-36q0 -9 -4 -17t-9 -8q-14 0 -23 31q-10 31 -15.5 45.5t-16.5 28.5t-27 16q-28 4 -103 4q-43 0 -51 -1t-12.5 -5t-4.5 -8q-4 -54 -4 -221q0 -175 3 -283q1 -18 4 -27.5t18.5 -19.5t45.5 -16q24 -5 24 -19q0 -11 -28 -11 q-12 0 -45 1.5t-53 1.5q-21 0 -64.5 -3t-51.5 -3q-27 0 -27 11q0 13 26 20q25 5 38.5 15.5t15.5 17t3 15.5q8 83 8 303q0 153 -2 179t-16 40t-47 22q-24 6 -24 17q0 12 28 12q24 0 60 -1.5t50 -1.5h130z"/>
<glyph glyph-name="uni0414" horiz-adv-x="702" unicode="Д" d="M488 48q0 7 -2 20q-3 23 -61 197.5t-86 249.5q-1 3 -2 5t-3 1.5t-3 -5.5q-43 -113 -157 -431q-9 -25 -9 -36q0 -9 21 -9q63 -3 209 -3q70 0 82 2q11 2 11 9zM169 0q-33 0 -51 -21q-26 -32 -32 -135q-3 -31 -20 -31q-15 0 -19 33q-6 54 -6 172q0 17 7 17l49 3q9 1 18 15 q18 35 91 226t108 293q3 10 3 22q0 6 2 9q22 27 37 47q9 11 15 11q2 0 3.5 -1t3.5 -4.5t4 -7.5t4.5 -11.5t5 -14.5t7 -19t8.5 -23q21 -59 66.5 -191t78 -224.5t41.5 -111.5q7 -15 17 -15l65 -2q4 0 4 -7q0 -20 -14.5 -90t-16.5 -91q-4 -33 -23 -33q-13 0 -13 25v10v13v24 q0 46 -14.5 79.5t-40.5 33.5h-388z"/>
<glyph glyph-name="uni0415" horiz-adv-x="563" unicode="Е" d="M223 643h147q70 0 92 3q2 1 5 -3t4 -8q0 -26 1 -57t1 -38q0 -26 -15 -26q-11 0 -16 24q-9 37 -24.5 50.5t-42.5 17.5q-32 5 -102 5q-28 0 -40 -1q-2 0 -4.5 -2t-6 -9t-4.5 -17q-4 -38 -4 -194v-15.5t0.5 -12.5t0.5 -6q3 -10 7 -10h65q50 0 69.5 3.5t28 12.5t18.5 34 q8 21 18 21q11 0 8 -22q-3 -42 -3 -72q0 -15 1.5 -34.5t1.5 -30.5q0 -25 -11 -25t-17 22q-11 35 -22 42.5t-57 9.5q-32 2 -99 2q-3 0 -6 -3.5t-3 -5.5q-3 -14 -3 -102v-55q0 -56 10 -83q6 -18 19 -22q40 -7 91 -7q69 0 95 7q52 13 83 74q14 28 23 28t9 -20q0 -1 -0.5 -3.5 t-0.5 -3.5q-1 -8 -16 -54.5t-20 -52.5q-9 -12 -17 -12l-49 2q-48 2 -126 4t-150 2q-28 0 -62 -2.5t-51 -2.5q-30 0 -30 13q0 9 28 16q41 10 55.5 22.5t17.5 50.5q8 112 8 284v118q0 37 -1 51q-2 33 -12.5 46t-43.5 20q-29 7 -29 17q0 14 28 14q21 0 69 -2t84 -2z"/>
<glyph glyph-name="uni0416" horiz-adv-x="962" unicode="Ж" d="M361 633q0 12 27 12q10 0 40 -1t46 -1q15 0 49.5 1.5t44.5 1.5q27 0 27 -10q0 -13 -27 -20q-25 -6 -36 -17t-12 -38q-2 -56 -2 -184v-22q0 -11 8 -11q45 0 73 14t54 55q11 18 31.5 57t37.5 68q65 117 143 117q53 0 53 -41q0 -22 -16 -43q-4 -4 -11 -5.5t-10 -0.5t-13.5 5 t-21 6.5t-20.5 2.5q-44 0 -89 -80q-64 -111 -90 -140q-3 -3 0 -7q12 -11 52 -70q97 -141 116 -165q36 -47 66.5 -66t67.5 -25q6 -1 13 -5.5t7 -8.5q0 -11 -20 -16q-12 -3 -39 -3h-24q-85 0 -132 61q-26 32 -48 64.5t-48.5 74.5t-46.5 71q-37 55 -87 55q-6 0 -6 -8v-11 q-1 -12 -1 -22q0 -134 4 -190q2 -27 12.5 -39t45.5 -20q25 -5 25 -19q0 -12 -28 -12q-10 0 -43.5 1t-50.5 1q-16 0 -52.5 -2t-50.5 -2q-28 0 -28 12q0 13 29 20q33 8 43.5 23t12.5 59q4 74 4 162q0 33 -1 38q0 9 -5 9q-51 0 -103 -73q-13 -18 -36.5 -51t-38 -52.5t-34 -45 t-36.5 -44.5t-28.5 -29t-39.5 -22t-61 -12h-11q-19 0 -31 3q-25 6 -25 18q0 5 24 12q24 6 39 12.5t38 27t51 56.5q24 30 57 77.5t54 73.5q36 47 74 72q5 3 1 7q-12 12 -26 34t-38.5 63t-42.5 68q-42 63 -83 63q-22 0 -44 -8.5t-24 -8.5q-12 0 -18 8q-14 19 -14 40 q0 20 18 33.5t49 13.5q42 0 71 -24t64 -82q23 -38 42 -73t29.5 -53t20.5 -32q34 -47 98 -47q7 0 8 7q1 3 1 42q0 88 -3 160q-2 36 -11.5 46.5t-41.5 16.5q-22 6 -22 17z"/>
<glyph glyph-name="uni0417" horiz-adv-x="532" unicode="З" d="M449 499q0 -92 -96 -146q-7 -4 -1 -8q58 -18 95.5 -60.5t37.5 -101.5q0 -95 -77.5 -149t-174.5 -54q-69 0 -138 30q-31 14 -40 41q-8 31 -14 82v6q0 24 13 24q10 0 22 -27q55 -125 170 -125q62 0 108 57q32 44 32 112q0 72 -39.5 106.5t-94.5 34.5q-1 0 -25.5 -3.5 t-33.5 -3.5q-20 0 -30 8t-10 17q0 10 10.5 18.5t29.5 8.5q10 0 36.5 -3t32.5 -3q40 0 66.5 32t26.5 97q0 56 -32 98.5t-85 42.5q-63 0 -100 -45q-30 -36 -43 -76q-7 -24 -17 -24q-14 0 -14 30l8 72q0 9 5 21t10 12q13 2 21 4.5t18 6.5t17 7q66 24 111 24q91 0 143 -45.5 t52 -117.5z"/>
<glyph glyph-name="uni0418" horiz-adv-x="806" unicode="И" d="M50 632q0 13 23 13q13 0 43 -1t44 -1q23 0 61.5 1t48.5 1q26 0 26 -13q0 -12 -29 -18q-32 -6 -42 -20.5t-12 -48.5q-3 -111 -3 -269q0 -94 2 -106q2 -7 4 -8q1 -1 3 1q340 339 369 373q6 8 8 19v19q-2 29 -47 41q-23 6 -23 19q0 11 24 11q5 0 45.5 -1t55.5 -1 q19 0 54 1.5t38 1.5q24 0 24 -11t-25 -17q-34 -8 -44.5 -18t-13.5 -33q-6 -39 -6 -317q0 -95 3 -143q2 -44 12.5 -57t46.5 -22q23 -8 23 -18q0 -13 -28 -13q-7 0 -43.5 1.5t-53.5 1.5q-12 0 -52 -3t-50 -3q-26 0 -26 13q0 11 21 17q41 10 51 25.5t11 67.5q5 205 5 319v28 l-1 14q-1 4 -4 7t-5 0q-200 -203 -370 -378q-6 -9 -6 -18q0 -3 0.5 -10t0.5 -10q0 -25 45 -37q27 -8 27 -19q0 -15 -29 -15l-36 1q-37 1 -58 1q-11 0 -45 -2t-52 -2q-32 0 -32 14q0 9 24 17q41 10 52.5 21.5t13.5 48.5q5 87 5 246q0 183 -2 221q-1 24 -10.5 33.5t-36.5 16.5 q-29 7 -29 18z"/>
<glyph glyph-name="uni0419" horiz-adv-x="806" unicode="Й" d="M413 676q-66 0 -103.5 26t-37.5 59q0 16 12 30t33 14q16 0 24.5 -10.5t8.5 -27.5q0 -5 -2 -14t-2 -13q0 -14 17.5 -23.5t50.5 -9.5h4q35 0 52.5 9.5t17.5 21.5q0 6 -3.5 15.5t-3.5 16.5q0 37 35 37q17 0 29 -11t12 -30q0 -42 -46.5 -66t-97.5 -24zM50 632q0 13 23 13 q13 0 43 -1t44 -1q23 0 61.5 1t48.5 1q26 0 26 -13q0 -12 -29 -18q-32 -6 -42 -20.5t-12 -48.5q-3 -111 -3 -269q0 -94 2 -106q2 -7 4 -8q1 -1 3 1q340 339 369 373q6 8 8 19v19q-2 29 -47 41q-23 6 -23 19q0 11 24 11q5 0 45.5 -1t55.5 -1q19 0 54 1.5t38 1.5q24 0 24 -11 t-25 -17q-34 -8 -44.5 -18t-13.5 -33q-6 -39 -6 -317q0 -95 3 -143q2 -44 12.5 -57t46.5 -22q23 -8 23 -18q0 -13 -28 -13q-7 0 -43.5 1.5t-53.5 1.5q-12 0 -52 -3t-50 -3q-26 0 -26 13q0 11 21 17q41 10 51 25.5t11 67.5q5 205 5 319v28l-1 14q-1 4 -4 7t-5 0 q-200 -203 -370 -378q-6 -9 -6 -18q0 -3 0.5 -10t0.5 -10q0 -25 45 -37q27 -8 27 -19q0 -15 -29 -15l-36 1q-37 1 -58 1q-11 0 -45 -2t-52 -2q-32 0 -32 14q0 9 24 17q41 10 52.5 21.5t13.5 48.5q5 87 5 246q0 183 -2 221q-1 24 -10.5 33.5t-36.5 16.5q-29 7 -29 18z"/>
<glyph glyph-name="uni041A" horiz-adv-x="676" unicode="К" d="M43 634q0 12 29 12q11 0 45.5 -1.5t50.5 -1.5t50.5 1t45.5 1q24 0 24 -12q0 -10 -26 -15q-29 -8 -38.5 -18t-11.5 -39q-2 -40 -2 -139q0 -60 1 -69q0 -10 7 -10q48 0 76 17t65 74q13 20 34.5 56t36.5 59q33 53 64 79.5t72 26.5q49 0 49 -38q0 -7 -5 -25.5t-9 -22.5 q-12 -14 -27 -7q-3 1 -12.5 5.5t-17.5 7t-16 2.5q-26 0 -46.5 -18t-47.5 -62q-58 -94 -91 -131q-3 -2 0 -5q67 -110 175 -248q22 -29 39.5 -46t38.5 -26.5t30 -12t40 -9.5q8 -3 8 -8q0 -13 -23 -17q-9 -2 -30 -2h-27q-44 0 -79.5 16t-55.5 40q-58 69 -156 214 q-20 30 -37.5 42t-47.5 13q-5 0 -7 -12q-1 -9 -1 -53q0 -85 3 -163q2 -27 12 -39.5t45 -20.5q26 -7 26 -19q0 -13 -29 -13q-10 0 -54.5 1.5t-61.5 1.5q-16 0 -49.5 -1.5t-49.5 -1.5q-25 0 -25 13q0 11 30 18q39 8 53 23.5t15 62.5q3 86 3 228q0 175 -3 211q-2 26 -11.5 39.5 t-31.5 20.5q-35 9 -38 17q-1 2 -1 4z"/>
<glyph glyph-name="uni041B" horiz-adv-x="676" unicode="Л" d="M353 661q7 0 16 -26q6 -21 44 -125q61 -172 144 -384q24 -59 40.5 -76t53.5 -27q24 -6 24 -17q0 -13 -32 -13q-15 0 -59 3.5t-67 3.5q-17 0 -38 -1t-33 -1q-31 0 -31 12t24 16q43 9 43 35q0 4 -2 16q-4 25 -75.5 227.5t-81.5 219.5q-5 8 -8 -1q-31 -79 -92 -253t-61 -199 q0 -29 49 -44q28 -8 28 -18q0 -13 -29 -13q-6 0 -32 2t-47 2t-60 -3t-44 -3q-23 0 -23 10q0 13 22 20q41 14 56 27t36 59q12 28 87 220.5t94 240.5q6 13 6 22q0 5 2 8q5 7 17 27l13 21q11 12 16 12z"/>
<glyph glyph-name="uni041C" horiz-adv-x="889" unicode="М" d="M47 635q0 7 5.5 8.5t23.5 1.5q33 0 69.5 -1t64.5 -1q2 0 6 -5t5 -8q10 -31 38 -91q166 -350 186 -377q6 -9 10 -3q196 371 212 412q0 1 4.5 11.5t10 24t8.5 22.5q1 4 5 9t6 5q21 0 73 1.5t53 1.5q26 0 26 -11q0 -12 -26 -16q-24 -4 -45 -13q-31 -12 -31 -77 q0 -302 14 -433q4 -33 16.5 -45.5t48.5 -23.5q27 -6 27 -19t-29 -13q-2 0 -52.5 2.5t-72.5 2.5q-9 0 -36 -1.5t-40 -1.5q-27 0 -27 14q0 11 26 18q20 6 29.5 17t12 21.5t4.5 33.5q2 18 2 141q0 198 -3 245q0 6 -2.5 8t-7.5 -5q-9 -16 -72 -140t-90 -181q-42 -91 -62 -143 q-10 -28 -22 -28h-1q-10 0 -15 19q-12 43 -37 106q-31 76 -96 212t-77 163q-6 13 -7 -3q-5 -28 -11 -147t-6 -201q0 -7 0.5 -20t0.5 -18q2 -39 12.5 -54t48.5 -27q27 -7 27 -19t-27 -12q-17 0 -52.5 1.5t-47.5 1.5t-39.5 -1.5t-40.5 -1.5q-26 0 -26 14q0 9 20 14 q44 13 57 29.5t19 62.5q7 50 19.5 212t14.5 220q0 45 -45 58q-33 10 -43 12q-16 5 -16 16z"/>
<glyph glyph-name="uni041D" horiz-adv-x="816" unicode="Н" d="M212 367q1 -13 3 -16.5t8 -3.5q15 0 142 1.5t230 1.5q8 0 11 26v8.5t0.5 19.5t0.5 23q0 93 -3 131q-2 28 -11.5 38t-43.5 19q-25 7 -25 19q0 11 31 11q5 0 46.5 -1t55.5 -1q20 0 54 1.5t37 1.5q28 0 28 -11t-29 -18q-30 -7 -40 -20t-12 -37q-8 -82 -8 -329q0 -26 2 -85 t2 -63q1 -28 11 -37t46 -19q23 -8 23 -19t-28 -11q-6 0 -36 1.5t-47 1.5q-11 0 -59 -3t-58 -3q-25 0 -25 11q0 12 22 18q40 12 50 28t12 70q4 84 4 161q0 21 -12 21q-64 0 -180.5 1t-146.5 1q-14 0 -29 -1h-16q-3 0 -7 -5.5t-4 -11.5q-1 -9 -1 -53q0 -28 0.5 -76t0.5 -54 q1 -36 12 -52t42 -26q30 -8 30 -21q0 -9 -29 -9q-2 0 -21 1t-43 2t-40 1q-10 0 -45.5 -2t-53.5 -2q-30 0 -30 10q0 13 23 19q38 10 49 21t14 41q9 123 9 317q0 2 0.5 38t0.5 61q0 40 -1 55q-2 27 -11 39t-39 18q-28 5 -28 19q0 11 29 11q14 0 46 -1t45 -1q23 0 54.5 1 t40.5 1q32 0 32 -11q0 -13 -29 -19q-33 -6 -42 -19t-11 -47q-3 -37 -3 -151v-31z"/>
<glyph glyph-name="uni041E" horiz-adv-x="781" unicode="О" d="M363 628q-33 0 -73 -16t-65 -41q-78 -76 -78 -235q0 -119 78 -219.5t192 -100.5q88 0 132 48q35 31 60 92.5t25 143.5q0 81 -32.5 155t-88.5 119q-30 24 -72.5 39t-77.5 15zM385 661q145 0 246 -95t101 -236q0 -98 -40.5 -172t-101.5 -118q-83 -58 -197 -58 q-76 0 -145 30.5t-115 83.5q-83 92 -83 226q0 165 130 269q37 30 95 50t110 20z"/>
<glyph glyph-name="uni041F" horiz-adv-x="806" unicode="П" d="M646 643q19 0 54 1.5t38 1.5q28 0 28 -12q0 -10 -29 -17q-32 -7 -43 -17.5t-13 -31.5q-2 -19 -2 -65v-63q0 -25 1.5 -189t1.5 -168q1 -28 11.5 -37t46.5 -19q22 -7 22 -19q0 -11 -27 -11q-7 0 -37 1.5t-47 1.5q-12 0 -59 -3t-57 -3q-26 0 -26 12q0 9 22 17q39 13 50 29.5 t12 68.5q0 119 1 220v45q0 144 -3 198q-1 21 -12 21q-70 0 -185.5 1.5t-138.5 1.5q-9 0 -19 -0.5t-11 -0.5q-2 0 -6 -6.5t-5 -11.5q-4 -40 -4 -213v-49v-99t0.5 -86t0.5 -38q0 -35 11.5 -51.5t43.5 -26.5q29 -8 29 -20q0 -10 -28 -10l-41 2q-42 2 -63 2q-11 0 -46 -2t-53 -2 q-31 0 -31 10q0 12 24 19q37 9 48 20.5t13 41.5q10 137 10 311q0 7 0.5 46t0.5 62q0 39 -1 52q-2 25 -12.5 37.5t-36.5 19.5q-28 8 -28 19t29 11q14 0 46 -1t45 -1h475z"/>
<glyph glyph-name="uni0420" horiz-adv-x="545" unicode="Р" d="M417 452q0 69 -47 119.5t-116 50.5q-15 0 -29 -9q-9 -6 -10 -39q0 -9 -0.5 -47t-1 -103.5t-0.5 -109.5q0 -54 1 -124.5t1 -74.5q1 -48 11 -62.5t49 -25.5q27 -7 27 -19t-33 -12q-10 0 -45.5 2t-59.5 2q-14 0 -49.5 -2t-51.5 -2q-28 0 -28 14q0 10 20 16q40 9 54 24.5 t16 48.5q5 82 5 181q0 181 -3 277q0 17 -1 23.5t-6 15.5t-16.5 12.5t-32.5 6.5q-31 5 -31 15q0 12 23 14h10h23q19 0 80 4t87 4q125 0 187 -59q58 -56 58 -136q0 -95 -70 -155q-52 -44 -115 -44q-34 0 -53 7q-17 7 -17 16t12 9h25q47 0 87 41.5t40 120.5z"/>
<glyph glyph-name="uni0421" horiz-adv-x="717" unicode="С" d="M431 661q50 0 118 -16q14 -2 41.5 -10t34.5 -9q15 0 15 -30q0 -11 3.5 -45t3.5 -46q0 -29 -15 -29q-7 0 -16 26q-14 54 -41 75q-70 52 -160 52q-117 0 -190.5 -83.5t-73.5 -200.5q0 -95 35 -165q39 -80 111.5 -120t141.5 -40q63 0 109 27q54 28 93 97q16 26 21 26 q10 0 10 -23q0 -7 -1 -10q-2 -18 -15 -50t-25 -51q-6 -14 -31 -26q-18 -8 -72 -18t-110 -10q-95 0 -171 36.5t-113 80.5q-84 97 -84 230q0 77 35 142t75 98q113 92 271 92z"/>
<glyph glyph-name="uni0422" horiz-adv-x="667" unicode="Т" d="M341 643q147 0 229 2q46 3 68 18q10 6 14 6q6 0 6 -11q0 -7 -2 -12q-14 -42 -22 -115q-1 -7 -6 -13t-11 -6q-10 0 -14 32q-4 38 -18.5 48t-62.5 12q-1 0 -17.5 0.5t-29.5 0.5q-81 0 -93 -3q-3 -1 -6 -6t-3 -7v-245q0 -211 4 -248q4 -36 15.5 -48.5t56.5 -22.5 q27 -6 27 -18t-28 -12q-2 0 -22 1.5t-46.5 2.5t-45.5 1q-30 0 -71 -3.5t-43 -3.5q-30 0 -30 12q0 5 6 10t13 7q50 11 61.5 29.5t13.5 78.5q7 206 7 340v119q0 13 -8 13q-33 5 -124 5q-54 0 -74 -23q-10 -8 -33 -52q-4 -10 -8 -14.5t-6 -5t-5 -0.5q-10 0 -10 23q0 5 9.5 52 t9.5 81q0 5 5.5 10.5t9.5 5.5q2 0 3.5 -2l4.5 -6t8 -8q18 -18 34 -19q52 -6 234 -6z"/>
<glyph glyph-name="uni0423" horiz-adv-x="654" unicode="У" d="M189 -39q-32 0 -52 20q-15 15 -15 49v10q0 2 2 6.5t5 8t4 3.5q35 -15 76 -15q36 0 59.5 21.5t45.5 62.5q3 6 3 13q0 11 -6 25q-64 127 -198 371q-27 48 -40 61t-46 21q-26 6 -26 18t30 12q6 0 39.5 -2.5t61.5 -2.5q19 0 58 1t49 1q24 0 24 -12q0 -13 -22 -17 q-50 -10 -50 -30q0 -8 3 -15q7 -19 81 -159.5t94 -171.5q5 -6 11 3q45 81 126 296q10 26 10 40t-10 21.5t-36 15.5q-21 6 -21 18q0 11 25 11q10 0 30 -1t39 -1q15 0 49.5 1.5t44.5 1.5q25 0 25 -10t-21 -17q-37 -10 -52 -23t-36 -55q-12 -25 -66 -146t-85 -181 q-69 -134 -118.5 -193.5t-94.5 -59.5z"/>
<glyph glyph-name="uni0424" horiz-adv-x="752" unicode="Ф" d="M417 525v-389q0 -2 3 -5t7 -3q28 0 63.5 13t62.5 37q57 52 57 144q0 95 -48.5 150t-136.5 62q-3 0 -5.5 -3t-2.5 -6zM338 134q0 22 -1 196.5t-1 194.5q0 9 -7 9q-78 -6 -127 -43q-61 -49 -61 -144q0 -92 49.5 -149.5t139.5 -71.5q3 -1 5.5 1.5t2.5 6.5zM266 656 q0 14 29 14q15 0 40 -2t40 -2q26 0 51 2t35 2q28 0 28 -13q0 -14 -28 -18q-26 -6 -33.5 -14.5t-8.5 -29.5l-1 -21q0 -8 8 -9q55 -3 102 -16.5t87.5 -39.5t64 -70.5t23.5 -103.5q0 -108 -84 -175q-76 -59 -194 -65q-8 0 -8 -12q0 -17 2 -29q1 -9 3.5 -14.5t11 -12t23.5 -10.5 q33 -8 33 -18q0 -16 -32 -16q-1 0 -27 1.5t-49 1.5q-13 0 -40 -1.5t-46 -1.5q-35 0 -35 15q0 9 23 14q17 4 27 8.5t15 11.5t6 9.5t4 12.5q1 4 1 31q0 10 -6 10q-119 4 -200 64t-81 171q0 115 90 176q72 51 184 58q11 0 11 10v31q-4 14 -12.5 21.5t-28.5 12.5q-28 5 -28 17z "/>
<glyph glyph-name="uni0425" horiz-adv-x="694" unicode="Х" d="M23 636q0 12 29 12q8 0 55 -2.5t66 -2.5q21 0 47 1t39 1q24 0 24 -11t-23 -17q-24 -6 -24 -22q0 -9 5 -16q24 -42 69 -113t57 -83q2 -2 5.5 -3t4.5 1q26 29 74.5 95t61.5 90q6 12 6 19q0 20 -45 30q-25 5 -25 17q0 13 29 13q15 0 45.5 -1t43.5 -1q12 0 53 1.5t52 1.5 q9 0 16.5 -3.5t6.5 -7.5q0 -12 -22 -18q-40 -8 -67.5 -24t-55.5 -50q-116 -136 -155 -190q-2 -5 0 -12q4 -11 65 -102t85 -125q33 -44 53 -60.5t67 -28.5q24 -6 24 -19q0 -12 -30 -12q-15 0 -60.5 3t-79.5 3q-16 0 -47.5 -2t-35.5 -2q-25 0 -25 13q0 11 22 17q31 8 38 13 q11 8 5 18q-23 38 -76 120t-61 90q-7 7 -10 3q-63 -77 -110 -146q-29 -45 -29 -64q0 -20 37 -33q24 -8 24 -17q0 -13 -25 -13q-12 0 -49 1.5t-54 1.5q-23 0 -59 -2.5t-45 -2.5q-26 0 -26 11q0 16 38 23q33 6 65 25.5t52 41.5q80 88 159 197q6 9 3 14q-6 16 -65 107.5 t-96 142.5q-34 47 -99 61q-27 6 -27 18z"/>
<glyph glyph-name="uni0426" horiz-adv-x="799" unicode="Ц" d="M171 0q-18 0 -61.5 -2t-47.5 -2q-28 0 -28 13q0 12 26 18q35 8 47 19t14 33q6 52 6 210v144q0 115 -2 127q-1 14 -1.5 17.5t-3.5 11.5t-8.5 10.5t-15 7t-25.5 8.5q-25 8 -25 16q0 14 30 14q7 0 43.5 -1t52.5 -1q13 0 48 1t45 1q28 0 28 -12q0 -15 -20 -18q-41 -8 -49 -21 t-10 -71q-2 -38 -2 -182q0 -259 1 -268q2 -13 7 -20.5t9 -9.5t11 -3q15 -2 68 -2q235 0 255 2q6 1 12.5 8t6.5 13q5 100 5 257q0 193 -1 221q-1 38 -9 53t-38 22q-32 9 -32 19q0 13 27 13l40 -2q41 -1 62 -1q11 0 42.5 1t47.5 1q31 0 31 -13q0 -9 -28 -17q-35 -8 -44 -20.5 t-11 -50.5q-3 -58 -3 -227v-36q0 -87 4 -227q0 -5 3.5 -10t6.5 -5q8 0 33.5 -1t28.5 -1q10 0 8 -14q-1 -8 -12 -65t-17 -117q-1 -12 -9 -22.5t-15 -10.5q-16 0 -16 33q1 13 1 43q0 116 -67 116h-449z"/>
<glyph glyph-name="uni0427" horiz-adv-x="665" unicode="Ч" d="M455 561q0 27 -11 36.5t-48 19.5q-22 7 -22 18t25 11q17 0 55 -1.5t51 -1.5q19 0 50.5 1.5t45.5 1.5q27 0 27 -12q0 -11 -23 -16q-37 -8 -47.5 -16t-13.5 -29q-4 -32 -6 -253v-40q0 -46 1 -91t1.5 -72.5t0.5 -31.5q1 -28 12.5 -39t42.5 -19q24 -7 24 -16q0 -14 -29 -14 q-7 0 -43 1.5t-55 1.5q-113 0 -113 -3h2q-26 0 -26 12t23 16q46 10 58.5 25.5t14.5 66.5q4 128 4 204q0 4 -3.5 6.5t-7.5 1.5q-74 -43 -165 -43q-111 0 -159 64q-28 35 -28 102q0 83 -1 107q-2 28 -12 39.5t-41 18.5q-23 6 -23 18q0 10 26 10q16 0 48 -1t46 -1q19 0 52 1 t44 1q24 0 24 -13q0 -12 -27 -17q-32 -6 -40 -16t-9 -42q-2 -42 -2 -80q0 -140 150 -140q74 0 115 18q13 7 13 18q0 35 -0.5 102t-0.5 86z"/>
<glyph glyph-name="uni0428" horiz-adv-x="1023" unicode="Ш" d="M171 0q-18 0 -61 -2t-48 -2q-29 0 -29 12q0 11 24 17q35 8 47 19.5t15 35.5q9 110 9 278q0 45 0.5 100.5t0.5 66.5q0 28 -1 35q-2 28 -14 39t-41 18q-23 6 -23 16q0 12 28 12q8 0 45 -1t53 -1q12 0 48 1t46 1q26 0 26 -13q0 -10 -25 -16q-39 -9 -47.5 -23t-10.5 -69 q-2 -38 -2 -176q0 -275 2 -284q4 -21 24 -25q48 -4 171 -4q35 0 40 1q14 3 16 29q5 65 5 261q0 181 -1 212q-1 42 -8 56t-37 20q-31 8 -31 20q0 10 28 10q1 0 36.5 -0.5t56.5 -0.5q12 0 43 1.5t48 1.5q30 0 30 -12q0 -10 -22 -16q-37 -8 -47 -21.5t-10 -51.5q0 -8 -1.5 -67 t-1.5 -140q0 -205 2 -277q2 -24 17 -24q18 -1 75 -1h57t52.5 0.5t23.5 0.5q10 1 15 3t9.5 8.5t4.5 18.5q2 39 2 252v172v51q-1 38 -10 51t-39 21q-29 9 -29 20t30 11l37 -1q37 -1 58 -1q11 0 42.5 1t47.5 1q33 0 33 -12q0 -11 -30 -18q-32 -6 -39.5 -17.5t-10.5 -48.5 q-5 -47 -5 -161v-66q0 -202 3 -249q0 -7 1 -12t4 -9t4.5 -6.5t7.5 -5t8 -3.5t12 -4t13 -4q19 -5 24.5 -9t5.5 -11q0 -12 -29 -12q-13 0 -54 1.5t-48 1.5h-676z"/>
<glyph glyph-name="uni0429" horiz-adv-x="1023" unicode="Щ" d="M171 0q-18 0 -61 -2t-48 -2q-29 0 -29 12q0 11 26 17q35 8 47 19.5t14 35.5q8 78 8 278q0 45 0.5 100.5t0.5 66.5q0 28 -1 35q-2 28 -14 39t-41 18q-23 6 -23 16q0 12 28 12q8 0 45 -1t53 -1q12 0 48 1t46 1q26 0 26 -13q0 -10 -25 -16q-39 -9 -47.5 -23t-10.5 -69 q-2 -38 -2 -176q0 -275 2 -284q4 -21 24 -25q48 -4 171 -4q35 0 40 1q14 3 16 29q5 65 5 261q0 181 -1 212q-1 42 -8 56t-37 20q-31 8 -31 20q0 10 28 10q1 0 36.5 -0.5t56.5 -0.5q12 0 43 1.5t48 1.5q30 0 30 -12q0 -10 -22 -16q-37 -8 -47 -21.5t-10 -51.5q0 -8 -1.5 -67 t-1.5 -140q0 -205 2 -277q2 -24 17 -24q18 -1 75 -1h57t52.5 0.5t23.5 0.5q10 1 15 3t9.5 8.5t4.5 18.5q2 39 2 252v172v51q-1 38 -10 51t-39 21q-29 9 -29 20t30 11l37 -1q37 -1 58 -1q11 0 42.5 1t47.5 1q33 0 33 -12q0 -11 -30 -18q-32 -6 -39.5 -17.5t-10.5 -48.5 q-5 -47 -5 -161v-67q0 -221 3 -267q0 -15 20 -15h56q8 0 8 -11q0 -21 -10.5 -78.5t-15.5 -105.5q-2 -13 -9 -22.5t-17 -9.5q-14 0 -14 33v43q0 112 -73 112h-672z"/>
<glyph glyph-name="uni042A" horiz-adv-x="687" unicode="Ъ" d="M549 183q0 74 -47 115t-124 41q-37 0 -53 -7q-9 -4 -9 -23q0 -131 4 -219q1 -27 28 -46t56 -19q60 0 103 44q18 19 30 51.5t12 62.5zM279 643q23 0 53.5 1t40.5 1q24 0 24 -12t-32 -18t-40.5 -19t-8.5 -49q0 -13 -0.5 -76t-0.5 -94q0 -4 3.5 -8t6.5 -3q84 6 96 6 q98 0 160 -45t62 -134q0 -98 -85 -153q-27 -19 -74.5 -32t-98.5 -13q-13 0 -36 0.5t-54 1.5t-47 1h-38h-52q-28 0 -28 15q0 13 23 15q46 7 59 18.5t16 39.5q5 52 5 243v149q0 105 -1 120q0 4 -3 7.5t-6 3.5q-96 -3 -105 -5q-15 -3 -27 -15.5t-18.5 -24t-20.5 -40.5 q-11 -26 -22 -26q-9 0 -9 19q0 4 10 48t10 79q0 4 5.5 9.5t9.5 5.5t10 -6q5 -6 53 -9q19 -1 160 -1z"/>
<glyph glyph-name="uni042B" horiz-adv-x="853" unicode="Ы" d="M642 326q0 170 -3 219q-1 22 -2.5 30t-7 18.5t-16.5 14.5t-32 8q-29 5 -29 18q0 12 25 12q12 0 51.5 -1.5t57.5 -1.5q26 0 59 1.5t49 1.5q24 0 24 -12t-25 -17q-21 -4 -33.5 -10.5t-18 -17t-6.5 -16t-3 -20.5q-6 -40 -6 -294q0 -101 3 -149q2 -44 14 -60.5t58 -25.5 q26 -4 26 -17t-26 -13q-29 0 -84.5 3t-65.5 3q-13 0 -34 -1t-41 -1q-28 0 -28 14q0 9 31 16q36 8 45.5 21.5t12.5 52.5q5 58 5 224zM445 183q0 74 -48 115t-125 41q-36 0 -53 -7q-9 -4 -9 -23q0 -131 4 -219q1 -27 28.5 -46t56.5 -19q59 0 102 44q18 20 31 52t13 62z M315 372q98 0 160.5 -45t62.5 -134q0 -98 -86 -153q-64 -45 -172 -45q-1 0 -136 3h-24q-17 0 -39 -0.5t-27 -0.5q-30 0 -30 15q0 13 24 15q46 7 59.5 19t16.5 41q5 37 5 162q0 301 -4 324q-3 17 -14 26t-41 16q-24 6 -24 18t27 12q10 0 48.5 -1t50.5 -1h17q19 0 44 1t30 1 q26 0 26 -12q0 -14 -33 -20q-28 -5 -35.5 -17t-9.5 -49q-2 -31 -2 -170q0 -4 3.5 -8t6.5 -3q84 6 96 6z"/>
<glyph glyph-name="uni042C" horiz-adv-x="582" unicode="Ь" d="M445 183q0 74 -48 115t-125 41q-36 0 -53 -7q-2 -1 -5.5 -9t-3.5 -14q0 -131 4 -219q1 -27 28.5 -46t56.5 -19q59 0 102 44q18 20 31 52t13 62zM315 372q98 0 160.5 -45t62.5 -134q0 -98 -86 -153q-64 -45 -172 -45q-1 0 -136 3h-24q-17 0 -39 -0.5t-27 -0.5 q-30 0 -30 15q0 13 24 15q46 7 59.5 19t16.5 41q5 37 5 162q0 295 -5 323q-3 17 -14 26.5t-40 16.5q-24 6 -24 18t27 12q10 0 48.5 -1t50.5 -1h17q19 0 44 1t30 1q26 0 26 -12q0 -14 -33 -20q-28 -5 -35.5 -17t-9.5 -49q-2 -31 -2 -170q0 -4 2.5 -8t5.5 -3q90 6 98 6z"/>
<glyph glyph-name="uni042D" horiz-adv-x="674" unicode="Э" d="M280 628q-82 0 -137 -43q-34 -26 -54 -80q-5 -13 -8.5 -18t-10.5 -5q-11 0 -11 22v6l6 79q1 10 7 22t11 12q30 5 62 13q92 23 150 23q68 0 120.5 -17t109.5 -65q38 -32 69 -97.5t31 -144.5q0 -149 -83 -240q-100 -111 -268 -111q-91 0 -177 37q-34 13 -44 42 q-11 59 -11 82q0 27 12 27q13 0 24 -27q16 -32 26 -46q58 -83 167 -83q116 0 183.5 81.5t67.5 200.5q0 12 -11 12q-35 0 -110 -0.5t-109 -0.5q-96 0 -129 -5q-9 0 -9 10q0 11 27.5 27.5t44.5 16.5q51 0 160.5 -6t125.5 -6q3 0 6.5 3.5t3.5 6.5q0 111 -63.5 191.5 t-178.5 80.5z"/>
<glyph glyph-name="uni042E" horiz-adv-x="1012" unicode="Ю" d="M634 627q-77 0 -126 -57q-74 -87 -74 -239q0 -134 68 -224.5t170 -90.5q27 0 59.5 14t55.5 39q29 32 50.5 94.5t21.5 145.5q0 81 -25 152t-77.5 118.5t-122.5 47.5zM210 289q0 -139 3 -178q4 -45 16 -59t52 -26q29 -8 29 -19q0 -13 -28 -13q-18 0 -62 3t-56 3 q-14 0 -50.5 -1.5t-55.5 -1.5q-25 0 -25 13q0 11 30 17q34 7 45.5 21t14.5 47q5 68 5 202v103q0 126 -2 149q-2 35 -11 45t-49 21q-28 8 -28 18q0 13 27 13q12 0 50.5 -1.5t56.5 -1.5q26 0 55.5 1t45.5 1q30 0 30 -10q0 -12 -27 -19q-59 -13 -62 -54q-5 -75 -5 -176 q0 -8 1 -18v-9q2 -12 10 -12h108q9 0 9 9q15 141 112 231q81 72 197 72q130 0 222 -96t92 -240q0 -94 -34.5 -164t-88.5 -113q-77 -62 -182 -62q-125 0 -213.5 82t-105.5 227q-2 14 -8 14l-110 -4q-6 0 -8 -14z"/>
<glyph glyph-name="uni042F" horiz-adv-x="631" unicode="Я" d="M422 344q0 6 0.5 23t0.5 28q0 97 -3 187q-1 21 -10 26q-12 7 -44 7q-78 0 -114 -38.5t-36 -91.5q0 -66 51 -110q53 -44 146 -44q9 0 9 13zM595 9q0 -13 -26 -13q-1 0 -36 2t-62 2q-23 0 -64 -2.5t-44 -2.5q-25 0 -25 12t23 19q34 9 45.5 21.5t12.5 43.5q4 90 4 176v28 q0 8 -4 8q-34 -1 -64 -22t-70 -77q-85 -122 -119 -158q-51 -57 -129 -57q-32 0 -44.5 3.5t-12.5 14.5q0 4 8 8t16 6q36 7 69.5 41t102.5 126q41 54 58.5 72.5t45.5 38.5q6 4 -1 7q-26 7 -49 18t-48.5 30.5t-40.5 51t-15 70.5q0 72 57 122q55 47 188 47q25 0 61 -1t53 -1h77 q28 0 28 -11q0 -14 -21 -18q-29 -5 -41.5 -10.5t-15 -10t-4.5 -15.5q-4 -24 -4 -204v-131q0 -119 3 -153q2 -30 13.5 -42t50.5 -21q24 -7 24 -18z"/>
<glyph glyph-name="uni0430" horiz-adv-x="397" unicode="а" d="M178 42q22 0 54 17q4 3 8 12.5t4 12.5q2 24 2 78q0 8 -8 8q-41 0 -103 -30q-20 -14 -20 -38q0 -29 21 -44.5t42 -15.5zM208 404q58 0 90 -47q20 -28 20 -83q0 -23 -2 -98.5t-2 -77.5q0 -21 9 -33t16.5 -14.5t14.5 -2.5q17 0 38 15q3 2 6 -3q3 -3 3 -10q0 -16 -29.5 -39 t-60.5 -23q-48 0 -64 50q0 1 -2.5 3t-3.5 1q-47 -33 -90 -46q-17 -6 -40 -6q-27 0 -48 28t-21 65q0 27 19 51q8 10 40 25q9 3 59.5 18t57.5 17q29 9 29 18q2 18 2 82q0 22 -22 44.5t-56 22.5q-26 0 -41 -11q-8 -3 -8 -29q0 -2 0.5 -6t0.5 -6q0 -5 -6 -11q-7 -6 -34 -19.5 t-31 -13.5t-8 4.5t-4 8.5q0 39 75 88q21 15 49.5 26.5t43.5 11.5z"/>
<glyph glyph-name="uni0431" horiz-adv-x="462" unicode="б" d="M344 185q0 71 -27 128t-86 57q-50 0 -85 -43q-24 -27 -24 -90q0 -85 34 -152t93 -67q42 0 68 41.5t27 125.5zM424 692q-1 -25 -16 -50.5t-36 -41.5q-12 -9 -30 -14q-1 0 -36 -9t-62 -14q-29 -6 -48.5 -14t-40.5 -26t-31.5 -51t-10.5 -82q0 -14 2 -40q1 -3 4 -3.5t6 2.5 q53 55 131 55q83 0 128 -55t45 -141q0 -105 -56 -162.5t-140 -57.5q-94 0 -144.5 74t-50.5 193q0 164 86 281q67 90 180 124q86 26 107 45q3 3 6 3q9 0 7 -16z"/>
<glyph glyph-name="uni0432" horiz-adv-x="439" unicode="в" d="M328 118q0 37 -37 59q-30 18 -87 18q-18 0 -30 -3q-6 -1 -8 -11q-2 -7 -2 -45q0 -11 0.5 -30t0.5 -25q0 -23 15 -38q16 -19 41 -19q41 0 74 26.5t33 67.5zM307 292q0 72 -105 72q-25 0 -31 -8q-4 -8 -5 -20q-3 -36 -3 -82q0 -5 0.5 -12t0.5 -9q1 -11 9 -11q61 0 89 11 q45 16 45 59zM381 302q0 -56 -56 -81q-4 0 -2 -4q1 -1 3 -2q20 -7 45 -23q37 -26 37 -73q0 -39 -25.5 -66.5t-59.5 -39.5q-41 -14 -112 -14q-10 0 -33.5 0.5t-37.5 0.5q-38 0 -91 -3q-21 0 -21 12t19 15q19 4 28 11t11 13t5 20q4 21 4 130v64q0 45 -1 63q-1 19 -7 24.5 t-36 14.5q-20 5 -20 18q0 10 19 10q9 0 41.5 -1t42.5 -1q7 0 50 2t61 2q56 0 96 -20.5t40 -71.5z"/>
<glyph glyph-name="uni0433" horiz-adv-x="358" unicode="г" d="M174 359q-5 0 -5 -6q0 -2 -0.5 -26.5t-1 -59t-0.5 -59.5q0 -78 3 -141q2 -21 10 -28t37 -14q21 -7 21 -15q0 -13 -24 -13q-2 0 -37 1.5t-48 1.5q-18 0 -43.5 -1.5t-32.5 -1.5q-25 0 -25 14q0 8 24 15q34 9 38 32q5 27 5 142q0 111 -1 123q0 8 -2 14t-4 9t-7 6.5t-7 4.5 t-9.5 3.5t-9.5 3.5q-22 9 -22 18q0 11 27 11q13 0 44.5 -1.5t41.5 -1.5h116q27 0 77 5q6 0 6 -9q-1 -12 -1 -36q0 -32 1 -51v-5q0 -27 -12 -27t-19 28q-6 22 -10.5 32.5t-17 20.5t-33.5 11q-3 0 -17.5 0.5t-24.5 0.5h-23z"/>
<glyph glyph-name="uni0434" horiz-adv-x="472" unicode="д" d="M312 42q-1 10 -39.5 119.5t-47.5 130.5q-5 11 -10 1q-14 -41 -49 -134t-41 -111q-2 -12 6 -13q20 -2 132 -2q40 0 44 1q7 1 5 8zM74 34q9 2 13 11q20 48 110 279l9 25q1 11 34 50q8 8 12 8q5 0 31 -67q12 -32 36.5 -100t44 -121.5t26.5 -68.5q7 -14 21 -16q6 -1 20 -1h21 q6 0 6 -11q0 -5 -13 -53t-18 -86q-2 -12 -8.5 -21.5t-13.5 -9.5q-13 0 -13 25v6v38q0 43 -10 61t-33 18h-216q-23 0 -35 -13q-16 -15 -25 -109q-3 -26 -16 -26t-17 30q-10 73 -10 139q0 10 8 10q18 0 36 3z"/>
<glyph glyph-name="uni0435" horiz-adv-x="392" unicode="е" d="M219 377q-34 0 -60.5 -19.5t-40.5 -54.5q-1 -3 0.5 -7t3.5 -4q5 0 24 -0.5t32 -0.5q11 0 35.5 0.5t37.5 0.5q19 0 26.5 5t7.5 20q0 22 -20 41t-46 19zM229 403q61 0 99 -38q35 -33 35 -84q0 -5 -5.5 -11t-13.5 -6q-182 0 -228 1q-5 0 -8 -8q-5 -13 -5 -35q0 -64 38 -114 q17 -24 47.5 -39.5t64.5 -15.5q67 0 91 36q8 12 13 12q8 0 8 -12t-7 -24q-51 -75 -145 -75q-81 0 -130.5 55.5t-49.5 143.5q0 62 31.5 116t88.5 80q39 18 76 18z"/>
<glyph glyph-name="uni0436" horiz-adv-x="624" unicode="ж" d="M279 215q0 100 -1 111q-1 15 -6.5 23.5t-9 10.5t-15.5 6q-21 7 -21 17t23 10q1 0 25.5 -1.5t36.5 -1.5q18 0 36.5 1.5t25.5 1.5q27 0 27 -11q0 -9 -20 -14q-31 -8 -33 -37q0 -2 -0.5 -19.5t-1 -44.5t-0.5 -52q0 -4 4 -4q49 0 77 43q7 11 20 35t22 39q40 71 90 71 q42 0 42 -40q0 -13 -8 -26.5t-19 -13.5q-4 0 -6 1q-4 2 -10 6t-13 6.5t-17 2.5q-22 0 -40 -29q-35 -61 -53 -81q-2 -4 2 -7q8 -5 35 -42q6 -8 22.5 -32.5t33 -48.5t28.5 -41q20 -29 70 -41q11 -2 11 -10q0 -15 -51 -15q-71 0 -102 47q-7 10 -33 47.5t-41 60.5q-14 24 -27 35 t-32 12q-5 0 -5 -6q0 -20 0.5 -61.5t1.5 -56.5q1 -23 7 -29.5t27 -11.5q23 -5 23 -17q0 -11 -25 -11q-11 0 -31.5 1.5t-38.5 1.5q-17 0 -38 -1.5t-28 -1.5q-24 0 -24 12q0 10 24 16q26 7 31 26q5 15 5 132q0 5 -4 5h-2q-25 0 -51 -35q-75 -101 -87 -116q-43 -49 -98 -49 q-48 0 -48 15q0 6 13 10q41 14 63 39q11 12 91 117q18 23 42 44q3 3 1 5q-17 21 -55 83q-19 34 -42 34q-15 0 -32 -7t-20 -7q-11 0 -17 7q-10 12 -10 29t13 29.5t37 12.5q53 0 82 -56q43 -81 53 -96q25 -36 68 -36q3 0 3 4z"/>
<glyph glyph-name="uni0437" horiz-adv-x="382" unicode="з" d="M349 117q0 -46 -28.5 -76.5t-66 -41.5t-80.5 -11q-47 0 -95 21q-25 11 -31 35q-4 11 -9 51q-1 12 3.5 20.5t9.5 8.5q7 0 21 -25q45 -83 106 -83q35 0 61 24t26 71q0 30 -15.5 53t-54.5 24q-5 0 -17 -2.5t-21 -2.5q-13 0 -22 6t-9 16t10.5 17t22.5 7q10 0 22 -3t19 -3 q25 0 38.5 18.5t13.5 46.5q0 35 -20.5 60t-60.5 25q-34 0 -53.5 -20t-34.5 -56q-11 -26 -21 -26q-11 0 -11 15q0 51 3 67q1 12 9 18l32 11q58 22 100 22q59 0 94 -28.5t35 -73.5q0 -62 -61 -87q-6 -2 1 -7q1 -1 3 -1q13 -4 37 -18q44 -27 44 -72z"/>
<glyph glyph-name="uni0438" horiz-adv-x="529" unicode="и" d="M39 382q0 11 21 11q3 0 30.5 -1.5t40.5 -1.5q17 0 40.5 1t32.5 1q23 0 23 -10t-23 -17q-6 -2 -11.5 -4t-8.5 -3.5t-6 -4.5t-4 -4.5t-2 -4.5t-1.5 -4t-1 -4.5t-0.5 -4.5q-3 -29 -3 -121v-35t0.5 -29.5t0.5 -13.5q1 -8 10 -1q128 125 175 177q10 11 10 18v10q0 22 -26 30 q-19 5 -19 16q0 10 22 10q4 0 24 -1t32 -1q17 0 41.5 2t33.5 2q22 0 22 -11q0 -10 -23 -18q-15 -6 -23 -13t-9.5 -11.5t-2.5 -13.5v-17.5t-0.5 -40.5t-0.5 -49q0 -47 3 -152q0 -15 6.5 -24t12.5 -11t18 -5q24 -6 24 -17q0 -13 -23 -13q-3 0 -29.5 1t-39.5 1 q-16 0 -42.5 -1.5t-41.5 -1.5q-23 0 -23 11t23 18q20 7 27.5 13t8.5 19q5 47 5 211q0 4 -2.5 4.5t-4.5 -2.5q-31 -33 -96.5 -99.5t-84.5 -86.5q-7 -9 -7 -17v-10q0 -20 32 -31q21 -6 21 -15q0 -14 -24 -14q-3 0 -30 1t-40 1q-18 0 -40.5 -1.5t-29.5 -1.5q-26 0 -26 11 q0 13 25 19q21 6 28.5 12t9.5 18q3 18 3 129v111v24q-1 22 -8.5 30t-27.5 14q-21 6 -21 17z"/>
<glyph glyph-name="uni0439" horiz-adv-x="529" unicode="й" d="M264 470q-57 0 -88 28t-31 60q0 15 11 28.5t28 13.5q12 0 22 -9t10 -24q0 -6 -2.5 -17.5t-2.5 -13.5q0 -15 15 -26t44 -11q26 0 41 10t15 23q0 6 -4 16.5t-4 18.5q0 15 10 25.5t23 10.5q14 0 24 -10.5t10 -27.5q0 -47 -36 -71t-85 -24zM39 382q0 11 21 11q3 0 30.5 -1.5 t40.5 -1.5q17 0 40.5 1t32.5 1q23 0 23 -10t-23 -17q-6 -2 -11.5 -4t-8.5 -3.5t-6 -4.5t-4 -4.5t-2 -4.5t-1.5 -4t-1 -4.5t-0.5 -4.5q-3 -29 -3 -121v-35t0.5 -29.5t0.5 -13.5q1 -8 10 -1q128 125 175 177q10 11 10 18v10q0 22 -26 30q-19 5 -19 16q0 10 22 10q4 0 24 -1 t32 -1q17 0 41.5 2t33.5 2q22 0 22 -11q0 -10 -23 -18q-15 -6 -23 -13t-9.5 -11.5t-2.5 -13.5v-17.5t-0.5 -40.5t-0.5 -49q0 -47 3 -152q0 -15 6.5 -24t12.5 -11t18 -5q24 -6 24 -17q0 -13 -23 -13q-3 0 -29.5 1t-39.5 1q-16 0 -42.5 -1.5t-41.5 -1.5q-23 0 -23 11t23 18 q20 7 27.5 13t8.5 19q5 47 5 211q0 4 -2.5 4.5t-4.5 -2.5q-31 -33 -96.5 -99.5t-84.5 -86.5q-7 -9 -7 -17v-10q0 -20 32 -31q21 -6 21 -15q0 -14 -24 -14q-3 0 -30 1t-40 1q-18 0 -40.5 -1.5t-29.5 -1.5q-26 0 -26 11q0 13 25 19q21 6 28.5 12t9.5 18q3 18 3 129v111v24 q-1 22 -8.5 30t-27.5 14q-21 6 -21 17z"/>
<glyph glyph-name="uni043A" horiz-adv-x="465" unicode="к" d="M39 383q0 10 23 10q2 0 29 -1.5t40 -1.5q18 0 39.5 1.5t28.5 1.5q25 0 25 -11q0 -10 -22 -16q-14 -4 -22 -10t-9.5 -10.5t-2.5 -12.5q0 -2 -0.5 -18.5t-1 -43t-0.5 -51.5q0 -6 6 -6q49 0 71 34q8 11 56 88q39 63 89 63q20 0 32.5 -11t12.5 -27t-10.5 -31.5t-20.5 -15.5 q-3 0 -4 1q-1 0 -18 8.5t-27 8.5q-23 0 -51 -42q-15 -24 -39 -57q-3 -3 -1 -8q96 -141 130 -175q25 -24 62 -31q14 -3 14 -11q0 -17 -50 -17q-72 0 -110 48q-30 38 -80 111q-17 25 -29.5 32t-29.5 8q-3 0 -3 -5q0 -79 3 -119q1 -20 9.5 -28t26.5 -13q21 -7 21 -16 q0 -12 -25 -12q-11 0 -33 1.5t-40 1.5q-17 0 -40.5 -1.5t-36.5 -1.5q-23 0 -23 12t25 18q32 8 37 23q6 17 6 142v96q0 31 -1 37q0 16 -4 23.5t-9.5 10t-21.5 7.5q-21 7 -21 17z"/>
<glyph glyph-name="uni043B" horiz-adv-x="458" unicode="л" d="M124 65q-1 -4 -1 -10q0 -4 1.5 -7.5t2.5 -5.5t5.5 -5t6.5 -4l9 -4.5l9 -4.5q16 -8 16 -15q0 -12 -24 -12q-12 0 -28 1.5t-29 1.5q-10 0 -28.5 -1.5t-30.5 -1.5q-25 0 -25 13q0 9 24 16q34 11 50 39q15 28 53.5 124.5t50.5 130.5q2 6 5 17t4 15q5 11 24 38q12 15 20 15 q4 0 11 -16q39 -101 141 -324q15 -29 48 -40q23 -7 23 -17q0 -3 -7 -7t-16 -4q-5 0 -37 1.5t-39 1.5q-14 0 -42 -1.5t-34 -1.5q-25 0 -25 13q0 8 25 16q26 8 26 25q0 4 -2 10q-18 50 -55.5 135.5t-41.5 96.5q-1 3 -4 3.5t-5 -4.5q-76 -198 -81 -227z"/>
<glyph glyph-name="uni043C" horiz-adv-x="591" unicode="м" d="M180 380q2 -11 56.5 -123t64.5 -127q4 -4 6 2q20 40 62.5 134t49.5 114q4 11 11 11h37h9q14 0 33.5 2t30.5 2q21 0 21 -9q0 -12 -19 -17q-29 -8 -37.5 -15.5t-9.5 -29.5q-1 -13 -1 -53q0 -132 4 -204q0 -7 1 -12t4 -9t4.5 -6.5t6.5 -5t6.5 -3l9 -3t8.5 -2.5q21 -7 21 -17 q0 -12 -23 -12q-17 0 -42 1.5t-35 1.5t-33 -1.5t-37 -1.5q-23 0 -23 13q0 10 23 17q20 6 26.5 11.5t7.5 22.5q7 96 7 257q0 2 -1.5 3t-3.5 0.5t-3 -3.5q-10 -25 -61.5 -140t-63.5 -149q-3 -10 -10 -18.5t-12 -8.5q-8 0 -16 27q-11 31 -32 81t-51 116t-38 85q-1 2 -4 3.5 t-4 -2.5q-3 -45 -3 -157q0 -56 2 -84q2 -20 10 -29t32 -17q22 -7 22 -16q0 -12 -24 -12q-8 0 -28 1.5t-32 1.5q-18 0 -38.5 -1.5t-30.5 -1.5q-20 0 -20 12q0 10 22 15q37 10 43 44q5 28 10.5 117.5t5.5 141.5q0 13 -7.5 22t-15.5 12.5t-25 9.5q-21 7 -21 16t20 9 q15 0 42.5 -2.5t38.5 -2.5q9 0 20 -0.5t14 -0.5q5 0 9 -3t4 -7z"/>
<glyph glyph-name="uni043D" horiz-adv-x="524" unicode="н" d="M492 9q0 -12 -27 -12q-8 0 -34.5 1.5t-38.5 1.5q-13 0 -40.5 -1.5t-32.5 -1.5q-25 0 -25 13q0 9 23 16q33 8 35 26q3 25 3 121q0 11 -9 11l-171 -2q-7 0 -7 -8q0 -4 -0.5 -22t-0.5 -30t0.5 -31.5t0.5 -24.5q1 -19 9 -26.5t28 -13.5q21 -7 21 -17q0 -12 -25 -12 q-2 0 -30.5 1.5t-40.5 1.5q-18 0 -44.5 -1.5t-33.5 -1.5q-8 0 -15.5 4t-7.5 9q0 11 23 17q31 8 36 24q8 37 8 131q0 28 0.5 83t0.5 60q0 18 -6 24.5t-29 14.5q-22 7 -22 18t19 11q3 0 30 -1.5t40 -1.5q17 0 41 1.5t32 1.5q21 0 21 -12q0 -9 -18 -15q-35 -14 -35 -30 q-3 -69 -3 -90q0 -5 1 -10v-6q4 -11 8 -11h170q9 0 9 13q0 83 -1 94q-1 16 -5 23.5t-8.5 9.5t-20.5 7q-22 6 -22 16q0 11 23 11q2 0 29 -1.5t40 -1.5q18 0 42.5 1.5t32.5 1.5q22 0 22 -11q0 -8 -20 -15q-22 -8 -28.5 -16.5t-8.5 -28.5q-2 -18 -2 -125q0 -71 2 -133 q0 -7 2 -12.5t8 -9.5t8.5 -5.5t12 -5t11.5 -4.5q20 -8 20 -18z"/>
<glyph glyph-name="uni043E" horiz-adv-x="482" unicode="о" d="M231 374q-31 0 -65 -29q-20 -19 -34.5 -54.5t-14.5 -73.5q0 -51 12 -89q18 -53 54.5 -82t75.5 -29q28 0 61 33q18 20 31.5 59.5t13.5 72.5q0 95 -50 153q-36 39 -84 39zM250 404q79 0 139.5 -57t60.5 -147q0 -57 -27 -104t-60 -68q-55 -40 -124 -40q-71 0 -133 52 q-32 26 -53 70.5t-21 82.5q0 97 70 156q63 55 148 55z"/>
<glyph glyph-name="uni043F" horiz-adv-x="522" unicode="п" d="M387 390q18 0 44 1.5t33 1.5q24 0 24 -10t-22 -17q-17 -5 -26 -11t-10.5 -10.5t-2.5 -12.5q0 -2 -0.5 -18.5t-0.5 -42.5v-51q0 -81 2 -151q0 -15 5.5 -23t11 -11t21.5 -8q21 -7 21 -17q0 -4 -7 -8.5t-15 -4.5q-2 0 -33 1.5t-44 1.5q-18 0 -42 -1.5t-32 -1.5q-24 0 -24 11 q0 10 24 17t30.5 17t6.5 39v137q0 87 -2 121q-1 16 -13 17q-20 2 -62 2q-16 0 -47 -0.5t-45 -0.5q-3 0 -6.5 -2.5t-3.5 -5.5q-4 -46 -4 -150v-99v-34q0 -15 6 -23t10.5 -10t19.5 -6q17 -5 17 -17t-20 -12q-2 0 -32.5 1t-43.5 1q-18 0 -42 -1.5t-31 -1.5q-8 0 -15.5 4t-7.5 9 q0 12 25 18q30 8 33 24q2 14 8 152q2 74 2 103v18q-1 22 -9.5 29t-29.5 12q-21 6 -21 15q0 11 25 11q27 0 71 -2q12 0 55 -0.5t69 -0.5t70.5 0.5t59.5 0.5z"/>
<glyph glyph-name="uni0440" horiz-adv-x="496" unicode="р" d="M254 351q-59 0 -81 -18q-9 -7 -13 -30t-4 -104q0 -59 2 -76q4 -32 13 -44q19 -26 48.5 -40.5t51.5 -14.5q26 0 46 17q33 28 50.5 72.5t17.5 74.5q0 77 -41 122q-18 19 -44.5 30t-45.5 11zM306 402q27 0 57.5 -15.5t53.5 -40.5q47 -53 47 -131q0 -44 -20.5 -91.5 t-64.5 -80.5q-65 -51 -159 -51q-30 0 -56 4q-7 0 -7 -13q0 -129 4 -166q2 -21 11.5 -31t36.5 -19q28 -8 28 -18q0 -13 -26 -13q-9 0 -53 2.5t-66 2.5q-11 0 -29.5 -1.5t-34.5 -1.5q-30 0 -30 13q0 11 23 15q39 8 49 23t13 69q3 49 3 217v139v63q0 46 -8 51q-37 27 -37 32 q0 4 5.5 10.5t8.5 7.5q30 8 76 35q18 9 20 9t6.5 -4.5t4.5 -7.5q-1 -10 -2 -29.5t-1 -21.5q0 -3 2.5 -5t5.5 0q34 23 65 36q27 12 74 12z"/>
<glyph glyph-name="uni0441" horiz-adv-x="392" unicode="с" d="M260 401q64 0 93 -23q15 -10 15 -30q0 -11 -14.5 -25.5t-18.5 -14.5q-11 0 -39 19q-3 2 -10.5 7.5t-9.5 7t-8.5 6t-9 6t-8 4t-9 3.5t-8.5 2.5t-10 2t-11 0.5q-13 0 -32 -10t-30 -24q-42 -47 -42 -115q0 -61 26 -100q19 -31 53 -49t73 -18q46 0 89 30q5 4 9.5 4.5t7 -0.5 t2.5 -4q0 -16 -13 -29q-26 -29 -65 -45.5t-79 -16.5q-46 0 -84.5 21.5t-63.5 58.5q-31 51 -31 117q0 108 97 173q27 19 67 30.5t64 11.5z"/>
<glyph glyph-name="uni0442" horiz-adv-x="397" unicode="т" d="M196 0q-10 0 -37.5 -2t-45.5 -2q-25 0 -25 12q0 11 24 17q17 4 24.5 7t14.5 9t8 17q3 22 3 170v116q0 12 -9 12t-31.5 1t-27.5 1q-13 0 -23.5 -9.5t-14 -17t-10.5 -24.5q-12 -28 -20 -28q-10 0 -10 25v7q1 17 4.5 40.5t3.5 34.5q-1 4 3 10t8 6q2 0 18 -7q12 -5 71 -5h162 q58 0 74 6q14 6 19 6q7 0 7 -10q0 -9 -1 -24t-1 -23q0 -5 0.5 -18.5t0.5 -21.5q0 -28 -16 -28q-7 0 -14 26q-7 31 -18 43t-36 12q-9 0 -30.5 -1t-25.5 -1q-6 0 -8 -15q-1 -13 -1 -107q0 -116 5 -166q2 -22 9.5 -29t31.5 -13q23 -6 23 -16q0 -12 -27 -12q-18 0 -45 1t-37 1z "/>
<glyph glyph-name="uni0443" horiz-adv-x="414" unicode="у" d="M-5 382q0 12 24 12q12 0 37.5 -2t40.5 -2q16 0 41 1t29 1q22 0 22 -11t-23 -17q-26 -7 -26 -19q0 -5 5 -20q11 -34 46 -120.5t41 -96.5q3 -3 8 4q9 19 42 105.5t37 99.5q3 11 3 18q0 12 -9 19t-32 12q-21 5 -21 14q0 11 25 11q10 0 31.5 -0.5t27.5 -0.5t27 2t36 2 q20 0 20 -9q0 -10 -22 -17q-30 -10 -49 -52q-42 -95 -110 -267q-20 -52 -56.5 -151t-47.5 -128q-3 -11 -17.5 -19.5t-34.5 -8.5q-23 0 -34 15t-11 34q0 15 12.5 29.5t31.5 14.5q2 0 16 -0.5t20 -0.5q8 0 15 17q6 11 24 60t24 69q5 25 5 27q0 3 -2 9l-15 41q-51 142 -114 271 q-4 8 -6.5 12t-7.5 9.5t-13 9.5t-20 8q-20 7 -20 15z"/>
<glyph glyph-name="uni0444" horiz-adv-x="576" unicode="ф" d="M254 30v27t0.5 66t0.5 75t-0.5 75t-0.5 65v26q-2 8 -7 8q-46 0 -87.5 -37.5t-41.5 -120.5q0 -87 41 -133.5t89 -56.5q5 0 6 6zM458 188q0 66 -34.5 119.5t-94.5 64.5q-2 1 -3.5 -1.5t-1.5 -6.5v-80v-256q0 -6 5 -6q67 4 96 37q33 41 33 129zM540 202q0 -102 -73 -161 q-55 -46 -135 -53q-2 0 -5 -3.5t-3 -5.5v-49q0 -96 3 -114q4 -21 12 -30t35 -16q23 -7 23 -18q0 -14 -22 -14q-15 0 -40.5 1.5t-44.5 1.5q-11 0 -41.5 -2t-51.5 -2q-28 0 -28 15q0 9 25 16q37 9 47 23.5t11 67.5q2 60 2 121q0 8 -6 8q-85 3 -148.5 57.5t-63.5 151.5 q0 115 98 172q53 31 114 35q1 0 3.5 2.5t2.5 4.5q0 114 -5 149q-1 13 -17 19q-32 14 -32 19q0 13 11 16q77 25 82 28q19 12 26 12q8 0 8 -18q-3 -103 -3 -221q0 -11 3 -11q51 -3 96.5 -21.5t81 -65.5t35.5 -115z"/>
<glyph glyph-name="uni0445" horiz-adv-x="426" unicode="х" d="M15 387q0 9 26 9q5 0 39 -3t48 -3q11 0 31 1t28 1q22 0 22 -9q0 -12 -19 -17q-20 -6 -20 -21q0 -4 21 -40t32 -52q2 -4 7 1q32 42 53 82q5 8 5 14q0 8 -12 12q-27 11 -27 19q0 11 20 11q4 0 18.5 -1t24.5 -1q13 0 46.5 2.5t40.5 2.5q21 0 21 -11q0 -6 -19 -14 q-62 -17 -87 -48q-39 -48 -70 -92q-3 -6 -1 -11q31 -68 83 -142q31 -44 76 -55q23 -5 23 -15q0 -12 -24 -12q-17 0 -53 2.5t-55 2.5q-10 0 -25.5 -1t-25.5 -1q-21 0 -21 13q0 8 19 13q20 7 20 16q0 8 -10 24q-42 80 -49 86q-3 4 -7 0q-13 -13 -37.5 -51t-25.5 -48 q0 -18 26 -28q14 -5 14 -15t-21 -10q-11 0 -23.5 1t-19.5 1q-18 0 -45.5 -2t-35.5 -2q-29 0 -29 11q0 10 25 16q47 13 75 46q11 13 41 54.5t42 56.5q3 4 0 10q-20 44 -69 119q-32 48 -70 60q-26 7 -26 18z"/>
<glyph glyph-name="uni0446" horiz-adv-x="525" unicode="ц" d="M39 382q0 11 19 11q15 0 38.5 -1.5t34.5 -1.5q17 0 37.5 1.5t33.5 1.5q21 0 21 -11t-20 -16q-20 -7 -26 -14.5t-7 -24.5q-2 -52 -2 -125l1 -146q0 -20 13 -23q21 -1 159 -1q12 0 14 19q1 22 1 149v69q0 47 -1 56q-3 22 -10.5 29t-23.5 11q-22 5 -22 17q0 11 24 11 q12 0 33.5 -1.5t32.5 -1.5q18 0 40.5 1.5t33.5 1.5q23 0 23 -11t-24 -18q-18 -6 -24 -12.5t-7 -21.5q-2 -50 -2 -128q0 -54 1 -105t1 -53q0 -11 12 -11q16 0 50 2q6 0 6 -8q0 -3 -1 -5q-21 -61 -30 -138q-2 -12 -9 -23.5t-14 -11.5q-15 0 -15 25q0 6 0.5 22t0.5 20 q0 26 -1.5 41.5t-10.5 29t-25 13.5h-262q-18 0 -45 -1.5t-34 -1.5q-8 0 -16.5 3.5t-8.5 8.5q0 11 24 17q25 6 32 15t9 30q3 39 3 126q0 17 0.5 39.5t0.5 29.5q0 8 -0.5 26.5t-0.5 31.5q0 15 -5.5 24t-12 11.5t-17.5 5.5q-22 6 -22 17z"/>
<glyph glyph-name="uni0447" horiz-adv-x="454" unicode="ч" d="M420 7q0 -10 -20 -10q-9 0 -32.5 1.5t-46.5 1.5q-17 0 -43.5 -1.5t-38.5 -1.5q-22 0 -22 11q0 10 26 16q34 9 39 24q6 14 6 101q0 28 -1 37q-1 8 -7 5q-43 -26 -100 -26q-56 0 -88 26q-30 24 -30 80v57q0 20 -4.5 25.5t-24.5 10.5q-24 6 -24 20q0 9 24 9q15 0 33 -1.5 t28 -1.5q17 0 40 1.5t30 1.5q23 0 23 -11q0 -9 -22 -16q-17 -6 -21.5 -13t-6.5 -29q-1 -16 -1 -46q0 -36 23.5 -55t56.5 -19q42 0 64 12q7 4 7 16q0 86 -2 96q0 15 -6 23t-11 10.5t-17 5.5q-20 7 -20 16q0 10 20 10q2 0 31 -1.5t42 -1.5q18 0 42 1.5t31 1.5q20 0 20 -11 q0 -9 -22 -15q-15 -4 -23 -10t-9 -10.5t-2 -12.5q-3 -42 -3 -113q0 -120 1 -155q0 -8 2 -14t4 -9t7 -6.5t7.5 -4.5t10.5 -3.5t10 -3.5q20 -8 20 -18z"/>
<glyph glyph-name="uni0448" horiz-adv-x="721" unicode="ш" d="M38 382q0 11 19 11q17 0 42 -1.5t35 -1.5q18 0 39 1.5t28 1.5q22 0 22 -11q0 -9 -22 -17t-26.5 -16t-6.5 -37q-1 -16 -1 -61v-61q0 -127 3 -140q3 -16 15 -17q13 -1 97 -1h27q5 0 10 11q5 38 5 156v126q0 15 -6 24t-11.5 11t-17.5 5q-23 6 -23 17q0 4 6.5 7.5t15.5 3.5 q15 0 42 -1.5t37 -1.5q18 0 37 1.5t26 1.5q21 0 21 -11q0 -13 -22 -17q-31 -8 -32 -39q-1 -25 -1 -123q0 -130 1 -150q0 -19 13 -19q16 -2 112 -2h15q10 0 12 18l3 149v88v38q-1 22 -6.5 29t-23.5 13q-21 7 -21 15q0 11 22 11q10 0 34.5 -1.5t35.5 -1.5q19 0 40 1.5t28 1.5 q21 0 21 -11t-23 -16q-29 -8 -30 -36q-5 -125 -5 -192q0 -24 2 -66q1 -24 8.5 -31.5t34.5 -15.5q23 -7 23 -16q0 -12 -24 -12q-2 0 -33.5 1.5t-44.5 1.5h-456q-18 0 -47 -1.5t-36 -1.5q-8 0 -15.5 3.5t-7.5 8.5q0 11 22 17q28 7 35 13.5t9 31.5q2 16 2 116q0 68 -2 138 q0 12 -1 18.5t-7.5 11t-9.5 5.5l-18 6q-20 7 -20 16z"/>
<glyph glyph-name="uni0449" horiz-adv-x="721" unicode="щ" d="M134 0q-18 0 -47 -1.5t-36 -1.5q-8 0 -15.5 3.5t-7.5 8.5q0 11 22 17q28 7 35 13.5t9 31.5q2 16 2 116q0 68 -2 138q0 12 -1 18.5t-7.5 11t-9.5 5.5l-18 6q-20 7 -20 16q0 11 19 11q17 0 42 -1.5t35 -1.5q18 0 39 1.5t28 1.5q22 0 22 -11q0 -9 -22 -17t-26.5 -16 t-6.5 -37q-1 -19 -1 -65v-88q0 -96 3 -109q3 -16 15 -17q13 -1 97 -1h27q5 0 10 11q5 37 5 156v126q0 15 -6 24t-11.5 11t-17.5 5q-23 6 -23 17q0 4 6.5 7.5t15.5 3.5q15 0 42 -1.5t37 -1.5q18 0 37 1.5t26 1.5q21 0 21 -11q0 -13 -22 -17q-31 -8 -32 -39q-1 -25 -1 -123 q0 -130 1 -150q0 -19 13 -19q16 -2 112 -2h15q10 0 12 18l3 149v88v38q-1 22 -6.5 29t-23.5 13q-21 7 -21 15q0 11 22 11q10 0 34.5 -1.5t35.5 -1.5q19 0 40 1.5t28 1.5q21 0 21 -11t-23 -16q-29 -8 -30 -36q-5 -125 -5 -192q0 -53 2 -93q0 -11 11 -11l51 1q7 0 7 -10 q0 -4 -1 -5q-21 -59 -31 -141q-1 -12 -8 -21t-14 -9q-15 0 -15 24v18v29q0 80 -35 80h-457z"/>
<glyph glyph-name="uni044A" horiz-adv-x="481" unicode="ъ" d="M375 119q0 39 -26 64t-73 25q-28 0 -36 -3q-7 -3 -8 -10q-2 -16 -2 -62q0 -31 2 -69q2 -13 17 -26.5t31 -13.5q13 0 34.5 7.5t33.5 19.5q27 27 27 68zM449 123q0 -60 -50 -92t-133 -32q-5 0 -29 0.5t-37 0.5q-12 0 -47.5 -1.5t-39.5 -1.5q-9 0 -16.5 4t-7.5 9q0 9 28 16 q22 6 31 12t10 17q5 37 5 200v71v18q-2 14 -8 15q-16 4 -40 4q-31 0 -45.5 -13t-25.5 -46q-8 -27 -17 -27q-11 0 -11 24q0 12 4 41.5t4 45.5q0 4 3.5 9t7.5 5h1l2 -1q22 -11 62 -11h97q19 0 42 1.5t29 1.5q26 0 26 -10t-23 -15q-22 -6 -28.5 -12.5t-8.5 -26.5q-2 -18 -2 -88 q0 -3 2 -6t4 -2q17 3 62 3q74 0 111.5 -29t37.5 -84z"/>
<glyph glyph-name="uni044B" horiz-adv-x="623" unicode="ы" d="M307 118q0 38 -27.5 64t-73.5 26q-21 0 -33 -3q-7 -2 -7 -13q-2 -24 -2 -71q0 -23 2 -53q1 -17 18.5 -31t29.5 -14q32 0 57 17q36 27 36 78zM381 123q0 -62 -49 -93.5t-133 -31.5q-5 0 -29.5 1t-36.5 1t-45.5 -1.5t-37.5 -1.5q-8 0 -15 4t-7 9q0 9 24 16q34 8 37 30 q7 49 7 182q0 76 -1 88q-1 15 -6 23.5t-11.5 11.5t-17.5 5q-23 7 -23 17t24 10q2 0 29.5 -1.5t40.5 -1.5q18 0 41 1.5t30 1.5q25 0 25 -11q0 -9 -22 -16q-27 -8 -32.5 -14t-6.5 -27q-1 -9 -1 -84q0 -3 1 -5t2 -3t2 0q26 3 59 3q74 0 113 -29.5t39 -83.5zM591 9 q0 -12 -27 -12q-3 0 -33 1.5t-43 1.5q-18 0 -42 -1.5t-32 -1.5q-23 0 -23 12q0 11 24 18q21 6 28.5 12t8.5 17q3 42 3 137q0 88 -2 132q0 15 -5 23t-10.5 10.5t-16.5 5.5q-25 6 -25 16q0 5 7 9t15 4q2 0 31.5 -1.5t42.5 -1.5q18 0 41 1.5t31 1.5q25 0 25 -10q0 -12 -24 -18 q-15 -4 -23 -10t-9.5 -11t-2.5 -13q-3 -33 -3 -136q0 -81 3 -128q1 -15 7 -23.5t12 -11.5t18 -6q24 -6 24 -17z"/>
<glyph glyph-name="uni044C" horiz-adv-x="413" unicode="ь" d="M307 118q0 38 -27.5 64t-73.5 26q-21 0 -33 -3q-7 -2 -7 -13q-2 -24 -2 -71q0 -23 2 -53q1 -17 18.5 -31t29.5 -14q32 0 59 20q34 28 34 75zM381 123q0 -62 -49 -93.5t-133 -31.5q-5 0 -29.5 1t-36.5 1t-45.5 -1.5t-37.5 -1.5q-8 0 -16 3.5t-8 8.5q0 9 26 17q34 8 37 30 q7 49 7 182q0 76 -1 88q-1 15 -6.5 23t-11 11t-17.5 5q-23 7 -23 18q0 10 24 10q2 0 29.5 -1.5t40.5 -1.5q18 0 41 1.5t30 1.5q25 0 25 -11q0 -9 -22 -16q-27 -8 -32.5 -14t-6.5 -27q-1 -9 -1 -84q0 -3 1 -5t2 -3t2 0q26 3 59 3q74 0 113 -29.5t39 -83.5z"/>
<glyph glyph-name="uni044D" horiz-adv-x="401" unicode="э" d="M187 22q35 0 59.5 25t34 57.5t9.5 69.5q0 8 -4 8q-2 0 -22.5 -0.5t-35.5 -0.5q-82 0 -122 -4q-6 0 -6 8q0 9 20.5 22.5t42.5 13.5q24 0 68 -3t54 -3q6 0 4 8q-9 63 -43.5 98.5t-82.5 35.5q-34 0 -56 -10.5t-50 -31.5q-20 -15 -20 -2t11 27q25 30 63 47.5t79 17.5 q78 0 128.5 -57.5t50.5 -137.5q0 -65 -22.5 -109t-72.5 -77q-52 -36 -118 -36q-74 0 -104 35q-20 24 -20 56q0 20 12 20q4 0 27 -27q42 -50 116 -50z"/>
<glyph glyph-name="uni044E" horiz-adv-x="669" unicode="ю" d="M427 373q-50 0 -74 -50t-24 -107q0 -90 35.5 -144t87.5 -54q36 0 63 32q37 43 37 139q0 41 -10.5 80t-40.5 71.5t-74 32.5zM166 174q0 -55 2 -107q0 -15 6.5 -24t13 -12t18.5 -6q21 -5 21 -16q0 -4 -7.5 -8t-15.5 -4q-2 0 -32 1.5t-42 1.5q-18 0 -44.5 -1.5t-33.5 -1.5 q-8 0 -15.5 4t-7.5 9q0 10 26 17t32 23q9 25 9 201q0 60 -1 76q-1 20 -8 26.5t-28 11.5q-21 6 -21 17q0 4 7 7.5t14 3.5q13 0 38.5 -1.5t36.5 -1.5q17 0 36.5 1.5t31.5 1.5q24 0 24 -11t-23 -17q-22 -5 -28.5 -13.5t-7.5 -21.5q-1 -15 -1 -98q0 -14 7 -14l73 2q3 0 5 6 q10 79 64.5 128.5t133.5 49.5q76 0 131.5 -57.5t55.5 -152.5q0 -60 -23.5 -103.5t-54.5 -64.5q-50 -38 -117 -38q-78 0 -129.5 51t-61.5 131q-2 12 -6 12h-72q-6 0 -6 -8z"/>
<glyph glyph-name="uni044F" horiz-adv-x="462" unicode="я" d="M296 212q0 2 0.5 22t0.5 35q0 59 -3 82q0 9 -5 9q-16 4 -32 4q-47 0 -72.5 -19t-25.5 -54q0 -39 39.5 -61.5t92.5 -22.5q5 0 5 5zM407 391q24 0 24 -9q0 -13 -21 -17q-26 -6 -33.5 -13t-8.5 -18q0 -2 -0.5 -20t-1 -45.5t-0.5 -52.5q0 -81 2 -151q0 -15 7.5 -23.5 t13 -10.5t18.5 -5q24 -6 24 -16q0 -5 -7 -9t-17 -4q-2 0 -34.5 1.5t-44.5 1.5q-18 0 -41.5 -1.5t-30.5 -1.5q-25 0 -25 12q0 9 23 16q29 8 38 29q4 9 4 86v34q0 8 -7 8q-38 0 -74 -49l-68 -91q-38 -49 -99 -49h-13q-17 0 -24 2q-18 4 -19 13q0 8 20 12q23 6 45 24.5t60 68.5 q41 56 66 68q7 3 1 5q-103 27 -103 100q0 50 40.5 78.5t125.5 28.5q22 0 58.5 -1.5t48.5 -1.5q15 0 33 0.5t20 0.5z"/>
<glyph glyph-name="uni0450" horiz-adv-x="392" unicode="ѐ" d="M158 655q11 0 26 -35q34 -70 60 -149q8 -25 -4 -25t-23 16q-54 70 -94 140q-9 17 -8 26q0 12 16 18q18 9 27 9zM219 377q-34 0 -60.5 -19.5t-40.5 -54.5q-1 -3 0.5 -7t3.5 -4q5 0 24 -0.5t32 -0.5q11 0 35.5 0.5t37.5 0.5q19 0 26.5 5t7.5 20q0 22 -20 41t-46 19z M229 403q61 0 99 -38q35 -33 35 -84q0 -5 -5.5 -11t-13.5 -6q-182 0 -228 1q-5 0 -8 -8q-5 -13 -5 -35q0 -64 38 -114q17 -24 47.5 -39.5t64.5 -15.5q67 0 91 36q8 12 13 12q8 0 8 -12t-7 -24q-51 -75 -145 -75q-81 0 -130.5 55.5t-49.5 143.5q0 62 31.5 116t88.5 80 q39 18 76 18z"/>
</font>
</defs>
</svg>
