<?xml version="1.0" encoding="utf-8"?>
<!-- Generator: Adobe Illustrator 16.0.1, SVG Export Plug-In . SVG Version: 6.00 Build 0)  -->
<!DOCTYPE svg PUBLIC "-//W3C//DTD SVG 1.1//EN" "http://www.w3.org/Graphics/SVG/1.1/DTD/svg11.dtd">
<svg version="1.1" id="Слой_1" xmlns="http://www.w3.org/2000/svg" xmlns:xlink="http://www.w3.org/1999/xlink" x="0px" y="0px"
	 width="763px" height="690.75px" viewBox="0 0 763 690.75" enable-background="new 0 0 763 690.75" xml:space="preserve">
<image overflow="visible" width="763" height="690" xlink:href="images/floor-1.png" transform="matrix(1 0 0 1 0 0.75)">
</image>
<polygon id="svgItem" data-flat="1" fill="#FFFFFF" points="347,654.5 347,426 258.5,426 258.5,519 241,519.5 241,551.5 150,558 150,583 
	144,582.5 144,671.5 "/>
<polygon data-flat="2" fill="#FFFFFF" points="18.5,141.5 18.5,226 134.5,226 137,268 201,270.5 201,246.5 174,246 173.5,231.5 
	161,231.5 160,226 166,226.5 167,126 88.5,126 87,144 "/>
<polygon data-flat="3" fill="#FFFFFF" points="319,142 319,228.5 349,228.5 347,420.5 283,420.5 283,270.5 204,270.5 201,244.5 
	176.5,244 176.5,227 170,226 170,142 "/>
<polygon data-flat="4" fill="#FFFFFF" points="84.5,138 18.5,138 18.5,12 170,8.5 170,59.5 97.5,58.5 97,65.5 84.5,67 "/>
<polygon data-flat="5" fill="#FFFFFF" points="212.5,8.5 306,8.5 306,16.5 313.5,16.5 313.5,58.5 212.5,58.5 "/>
<polygon data-flat="6" fill="#FFFFFF" points="18.5,378.668 133.333,378.668 133.333,296.668 118.667,296.668 117.333,274.001 
	84.667,274.001 82,232.668 18.5,232.668 "/>
<polygon data-flat="7" opacity="0.5" fill="#FFFFFF" points="30.667,680.668 18.5,671.5 18.5,381.334 133.333,378.668 133.333,485.334 
	83.333,484.668 82.667,560.668 140.667,561.334 140.667,671.5 "/>
</svg>
