<?xml version="1.0" encoding="utf-8"?>
<!-- Generator: Adobe Illustrator 16.0.1, SVG Export Plug-In . SVG Version: 6.00 Build 0)  -->
<!DOCTYPE svg PUBLIC "-//W3C//DTD SVG 1.1//EN" "http://www.w3.org/Graphics/SVG/1.1/DTD/svg11.dtd">
<svg version="1.1" id="Слой_1" xmlns="http://www.w3.org/2000/svg" xmlns:xlink="http://www.w3.org/1999/xlink" x="0px" y="0px"
	 width="1920px" height="1030px" viewBox="0 0 1920 1030" enable-background="new 0 0 1920 1030" xml:space="preserve">
<image overflow="visible" width="1920" height="1030" xlink:href="images/house.png" >
</image>
<g class="floor" data-floor="1">
	<polygon opacity="0.8" fill="#FFFFFF" stroke="#ffffff" stroke-width="2" points="415.5,366.667 407.333,323.667 986.5,764.25 990.25,764.25 
		997.25,768 1026,768 1031,766.5 1419.25,543.25 1412,589.25 1031,813 1023.25,817 995,817 	"/>
	<g id="Текст_в_перспективе">
		<g>
			<path d="M693.504,569.086l-3.091-2.393v-0.61c0.092,0.06,0.234,0.146,0.429,0.258c0.194,0.113,0.328,0.178,0.4,0.194
				c0.095,0.016,0.167-0.021,0.218-0.111s0.076-0.264,0.076-0.521v-6.041l-1.142-0.88v-0.723l0.252,0.194
				c0.331,0.254,0.626,0.367,0.888,0.339c0.261-0.028,0.448-0.13,0.561-0.308l0.381,0.294c-0.009,0.366-0.018,0.795-0.027,1.287
				c-0.009,0.492-0.014,0.937-0.014,1.333v5.104c0,0.2,0.023,0.398,0.071,0.593s0.116,0.362,0.205,0.506
				c0.079,0.124,0.209,0.283,0.39,0.475s0.314,0.323,0.404,0.398V569.086z"/>
			<path d="M701.945,569.126c0,1.014-0.08,1.88-0.24,2.598s-0.383,1.26-0.669,1.626c-0.289,0.376-0.625,0.575-1.008,0.6
				c-0.382,0.022-0.809-0.147-1.279-0.511c-0.442-0.344-0.819-0.723-1.131-1.14c-0.312-0.415-0.563-0.833-0.752-1.25
				c-0.197-0.428-0.338-0.834-0.423-1.22s-0.129-0.733-0.129-1.044c0-0.361,0.047-0.62,0.14-0.775
				c0.094-0.153,0.231-0.162,0.413-0.021c0.193,0.149,0.332,0.357,0.417,0.624c0.084,0.266,0.126,0.534,0.126,0.805
				c0,0.201-0.012,0.445-0.037,0.73c-0.024,0.286-0.044,0.485-0.06,0.601c0.021,0.051,0.06,0.141,0.115,0.27
				c0.055,0.13,0.144,0.296,0.267,0.5c0.12,0.196,0.245,0.381,0.375,0.554c0.131,0.173,0.308,0.346,0.532,0.519
				c0.32,0.248,0.621,0.346,0.907,0.293c0.286-0.053,0.523-0.251,0.714-0.593c0.197-0.354,0.354-0.85,0.473-1.484
				c0.119-0.635,0.182-1.444,0.191-2.428c-0.086,0.05-0.19,0.104-0.311,0.168c-0.122,0.062-0.227,0.099-0.316,0.11
				c-0.12,0.019-0.224,0.02-0.313,0.007c-0.089-0.016-0.198-0.071-0.327-0.172c-0.16-0.122-0.3-0.265-0.422-0.427
				c-0.121-0.162-0.237-0.328-0.348-0.498c-0.098-0.149-0.215-0.315-0.352-0.494s-0.268-0.317-0.394-0.414
				c-0.128-0.1-0.238-0.137-0.331-0.111c-0.092,0.025-0.189,0.071-0.294,0.138l-0.198-0.619c0.189-0.21,0.403-0.344,0.639-0.403
				s0.458-0.01,0.663,0.148c0.157,0.121,0.297,0.265,0.421,0.43c0.125,0.167,0.239,0.33,0.344,0.493
				c0.098,0.151,0.208,0.311,0.332,0.478c0.122,0.169,0.248,0.302,0.378,0.401c0.175,0.135,0.327,0.2,0.456,0.193
				s0.252-0.048,0.369-0.123c-0.031-1.533-0.222-2.837-0.572-3.91c-0.35-1.073-0.81-1.829-1.377-2.266
				c-0.286-0.22-0.539-0.306-0.758-0.255c-0.22,0.049-0.409,0.2-0.568,0.451c-0.154,0.243-0.277,0.569-0.368,0.976
				c-0.092,0.406-0.165,0.824-0.217,1.256l-0.377-0.29l0.032-4.339l0.364,0.28l0.179,0.725c0.212-0.08,0.478-0.077,0.798,0.006
				c0.321,0.082,0.647,0.251,0.979,0.507c0.437,0.335,0.833,0.776,1.189,1.324c0.357,0.548,0.667,1.187,0.933,1.914
				c0.262,0.726,0.464,1.515,0.609,2.363C701.873,567.273,701.945,568.174,701.945,569.126z"/>
			<path d="M708.118,571.439l-0.32-0.247c-0.028-0.229-0.079-0.515-0.152-0.857c-0.073-0.341-0.154-0.674-0.244-0.997
				c-0.093-0.337-0.194-0.647-0.305-0.932c-0.11-0.284-0.216-0.48-0.319-0.587c-0.096-0.099-0.217-0.208-0.362-0.331
				c-0.146-0.124-0.281-0.233-0.405-0.328l-0.269-0.208v9.822c0,0.19,0.021,0.382,0.064,0.573c0.044,0.192,0.12,0.374,0.228,0.545
				c0.056,0.083,0.173,0.228,0.351,0.435s0.316,0.352,0.415,0.434v0.614l-3.105-2.403v-0.613c0.086,0.056,0.218,0.134,0.396,0.237
				c0.177,0.103,0.3,0.154,0.368,0.155c0.102,0.003,0.176-0.047,0.225-0.151c0.047-0.104,0.071-0.274,0.071-0.511v-9.896
				l-0.269-0.206c-0.096-0.074-0.215-0.161-0.356-0.263c-0.142-0.1-0.278-0.186-0.407-0.256c-0.102-0.056-0.208-0.023-0.318,0.097
				c-0.109,0.121-0.21,0.274-0.303,0.463s-0.174,0.4-0.245,0.637c-0.071,0.237-0.121,0.439-0.148,0.607l-0.324-0.249v-3.327
				l5.734,4.409V571.439z"/>
			<path d="M714.806,585.573l-2.751-2.131v-0.615c0.242,0.159,0.443,0.257,0.604,0.293c0.16,0.038,0.241-0.007,0.241-0.135
				c0-0.052-0.003-0.117-0.009-0.198c-0.007-0.08-0.016-0.153-0.029-0.221l-0.547-3.184l-2.319-1.791
				c-0.087,0.338-0.159,0.635-0.213,0.894c-0.054,0.26-0.103,0.499-0.146,0.719c-0.041,0.218-0.069,0.397-0.084,0.542
				c-0.016,0.144-0.023,0.266-0.023,0.363c0,0.231,0.097,0.485,0.292,0.765c0.196,0.278,0.416,0.523,0.661,0.736v0.616l-2.485-1.924
				v-0.614c0.081,0.05,0.182,0.095,0.302,0.134c0.121,0.038,0.22,0.042,0.298,0.009c0.123-0.061,0.22-0.149,0.288-0.267
				c0.068-0.118,0.135-0.302,0.2-0.552c0.332-1.286,0.698-2.737,1.098-4.353c0.4-1.617,0.757-3.056,1.071-4.317l0.373,0.286
				l2.205,12.322c0.046,0.262,0.1,0.485,0.159,0.67s0.142,0.385,0.247,0.6c0.072,0.136,0.165,0.276,0.281,0.42
				c0.115,0.145,0.211,0.249,0.289,0.316V585.573z M712.143,578.479l-1.001-5.549l-0.986,4.015L712.143,578.479z"/>
			<path d="M724.153,592.807l-1.836-1.421c-0.129-0.773-0.253-1.485-0.375-2.135c-0.122-0.65-0.248-1.286-0.375-1.908
				c-0.206-1.025-0.415-1.776-0.627-2.255c-0.212-0.477-0.495-0.853-0.849-1.125l-0.287-0.222v3.958c0,0.191,0.019,0.378,0.058,0.56
				s0.111,0.358,0.213,0.531c0.05,0.078,0.143,0.2,0.279,0.363c0.136,0.164,0.25,0.283,0.34,0.359v0.618l-2.761-2.137v-0.617
				c0.072,0.044,0.176,0.107,0.313,0.19c0.138,0.083,0.234,0.123,0.291,0.12c0.094-0.003,0.162-0.063,0.204-0.178
				c0.042-0.115,0.063-0.278,0.063-0.487v-4.052l-0.287-0.221c-0.359-0.277-0.641-0.348-0.844-0.213
				c-0.205,0.136-0.417,0.571-0.635,1.308c-0.125,0.409-0.254,0.874-0.389,1.397s-0.254,1.017-0.36,1.479l-1.815-1.404V584.7
				c0.072,0.038,0.15,0.083,0.237,0.137c0.088,0.052,0.175,0.098,0.262,0.137c0.13,0.054,0.238,0.039,0.322-0.047
				s0.167-0.264,0.248-0.531c0.068-0.237,0.154-0.514,0.257-0.832s0.2-0.629,0.29-0.93c0.158-0.527,0.352-0.895,0.577-1.104
				c0.226-0.209,0.503-0.271,0.831-0.186v-0.122c-0.125-0.305-0.232-0.604-0.323-0.9s-0.17-0.601-0.238-0.914
				c-0.066-0.294-0.121-0.576-0.165-0.848c-0.043-0.271-0.087-0.554-0.13-0.849c-0.031-0.222-0.067-0.473-0.107-0.756
				c-0.041-0.283-0.082-0.527-0.122-0.732c-0.047-0.227-0.102-0.445-0.165-0.651c-0.062-0.208-0.136-0.397-0.224-0.568
				c-0.034,0.102-0.078,0.216-0.131,0.347c-0.053,0.13-0.103,0.221-0.149,0.271c-0.065,0.071-0.129,0.112-0.191,0.122
				c-0.063,0.01-0.155-0.032-0.276-0.126c-0.168-0.129-0.291-0.329-0.369-0.601c-0.078-0.271-0.116-0.526-0.116-0.764
				c0-0.15,0.015-0.277,0.044-0.382c0.029-0.104,0.077-0.19,0.143-0.256c0.063-0.056,0.145-0.078,0.246-0.063
				c0.101,0.015,0.22,0.074,0.357,0.179c0.199,0.154,0.379,0.357,0.539,0.609c0.159,0.253,0.302,0.547,0.43,0.884
				c0.168,0.448,0.304,0.938,0.407,1.47s0.19,1.038,0.261,1.522c0.086,0.582,0.162,1.075,0.228,1.479
				c0.065,0.403,0.178,0.812,0.336,1.224c0.1,0.258,0.205,0.474,0.312,0.649c0.108,0.177,0.221,0.309,0.335,0.397l0.375,0.29v-4.141
				c0-0.197-0.018-0.382-0.054-0.555c-0.036-0.174-0.107-0.347-0.213-0.521c-0.084-0.141-0.185-0.283-0.3-0.43
				c-0.115-0.147-0.217-0.261-0.304-0.339v-0.617l2.761,2.123v0.618c-0.088-0.062-0.197-0.119-0.329-0.175
				c-0.131-0.055-0.228-0.086-0.291-0.093c-0.106-0.013-0.178,0.048-0.215,0.182c-0.038,0.134-0.056,0.297-0.056,0.488v4.229
				l0.375,0.289c0.116,0.089,0.229,0.131,0.34,0.123s0.213-0.064,0.308-0.172c0.134-0.151,0.243-0.391,0.327-0.718
				c0.085-0.327,0.166-0.698,0.244-1.114c0.072-0.38,0.16-0.757,0.265-1.129c0.104-0.372,0.238-0.652,0.402-0.841
				c0.122-0.138,0.266-0.21,0.432-0.215c0.166-0.006,0.346,0.065,0.541,0.215c0.134,0.104,0.252,0.225,0.353,0.363
				c0.1,0.138,0.186,0.288,0.254,0.452c0.062,0.146,0.109,0.3,0.141,0.457c0.031,0.157,0.047,0.315,0.047,0.472
				c0,0.129-0.01,0.246-0.03,0.352c-0.021,0.106-0.049,0.187-0.087,0.238c-0.044,0.064-0.092,0.104-0.146,0.119
				c-0.053,0.014-0.128-0.017-0.226-0.092c-0.104-0.079-0.193-0.182-0.27-0.304c-0.077-0.123-0.144-0.262-0.201-0.415
				c-0.056-0.154-0.107-0.322-0.152-0.506c-0.045-0.183-0.089-0.366-0.129-0.547c-0.087,0.036-0.162,0.112-0.223,0.225
				c-0.062,0.111-0.115,0.243-0.162,0.393c-0.041,0.132-0.083,0.313-0.125,0.545c-0.042,0.23-0.079,0.423-0.111,0.572
				c-0.031,0.168-0.073,0.376-0.127,0.625c-0.053,0.249-0.107,0.454-0.164,0.613c-0.066,0.193-0.145,0.377-0.237,0.55
				c-0.092,0.172-0.202,0.316-0.331,0.431v0.122c0.332,0.43,0.613,0.932,0.845,1.507c0.232,0.574,0.424,1.232,0.578,1.973
				c0.087,0.422,0.184,0.88,0.289,1.371c0.105,0.491,0.192,0.906,0.261,1.244c0.075,0.36,0.155,0.654,0.24,0.88
				c0.085,0.226,0.177,0.398,0.277,0.517c0.094,0.107,0.192,0.212,0.294,0.314c0.102,0.103,0.188,0.187,0.256,0.251V592.807z"/>
		</g>
	</g>
	<g id="Текст_в_перспективе_2_">
		<g>
			<path d="M1202.844,698.71l-4.792,2.73v-0.653c0.143-0.093,0.364-0.246,0.667-0.457c0.301-0.211,0.508-0.371,0.621-0.479
				c0.147-0.146,0.261-0.31,0.339-0.492s0.116-0.411,0.116-0.687v-6.456l-1.771,1.006v-0.773l0.392-0.222
				c0.513-0.291,0.972-0.674,1.377-1.149c0.406-0.476,0.696-0.903,0.87-1.285l0.59-0.334c-0.014,0.406-0.027,0.881-0.042,1.422
				s-0.021,1.023-0.021,1.446v5.451c0,0.214,0.037,0.386,0.11,0.512c0.074,0.126,0.18,0.19,0.316,0.192
				c0.123-0.004,0.324-0.057,0.604-0.16c0.279-0.104,0.488-0.192,0.625-0.265V698.71z"/>
			<path d="M1215.804,684.444c0,1.075-0.122,2.128-0.366,3.159c-0.244,1.03-0.584,1.981-1.021,2.854
				c-0.442,0.886-0.955,1.666-1.541,2.34c-0.585,0.673-1.238,1.214-1.959,1.624c-0.678,0.387-1.255,0.622-1.734,0.709
				c-0.479,0.087-0.864,0.068-1.156-0.053c-0.302-0.121-0.52-0.314-0.651-0.578c-0.131-0.265-0.198-0.562-0.198-0.893
				c0-0.385,0.073-0.74,0.217-1.063c0.145-0.323,0.355-0.564,0.633-0.723c0.298-0.169,0.512-0.184,0.642-0.044
				s0.194,0.355,0.194,0.643c0,0.214-0.019,0.493-0.057,0.839c-0.037,0.346-0.068,0.592-0.092,0.74
				c0.033,0.019,0.092,0.049,0.177,0.092c0.085,0.044,0.222,0.069,0.41,0.079c0.184,0.005,0.375-0.01,0.576-0.049
				c0.198-0.037,0.472-0.153,0.814-0.35c0.49-0.279,0.953-0.688,1.391-1.227c0.438-0.541,0.802-1.153,1.093-1.839
				c0.301-0.708,0.543-1.5,0.723-2.373c0.181-0.873,0.277-1.839,0.292-2.897c-0.131,0.197-0.289,0.432-0.476,0.702
				c-0.185,0.271-0.346,0.488-0.482,0.651c-0.184,0.222-0.343,0.398-0.479,0.535c-0.136,0.135-0.304,0.26-0.501,0.372
				c-0.244,0.138-0.459,0.226-0.646,0.258c-0.186,0.033-0.363,0.053-0.532,0.059c-0.15,0.007-0.331,0.031-0.541,0.071
				c-0.209,0.041-0.41,0.115-0.604,0.225c-0.197,0.113-0.367,0.26-0.508,0.443c-0.142,0.183-0.293,0.397-0.453,0.645l-0.304-0.322
				c0.293-0.546,0.62-1.05,0.981-1.513c0.364-0.463,0.701-0.783,1.018-0.962c0.24-0.137,0.455-0.222,0.646-0.255
				c0.191-0.034,0.366-0.054,0.525-0.058c0.151-0.006,0.321-0.022,0.509-0.052c0.188-0.029,0.381-0.1,0.579-0.213
				c0.268-0.151,0.501-0.34,0.698-0.564c0.196-0.225,0.385-0.477,0.563-0.752c-0.047-1.575-0.338-2.636-0.874-3.186
				c-0.535-0.55-1.238-0.578-2.108-0.085c-0.438,0.248-0.826,0.584-1.162,1.007c-0.337,0.423-0.628,0.903-0.873,1.439
				c-0.234,0.518-0.423,1.071-0.564,1.659s-0.252,1.154-0.332,1.702l-0.582,0.33l0.051-4.672l0.559-0.316l0.275,0.468
				c0.326-0.441,0.735-0.889,1.228-1.342s0.992-0.823,1.5-1.11c0.669-0.379,1.276-0.577,1.821-0.596s1.021,0.136,1.424,0.463
				c0.399,0.33,0.709,0.823,0.93,1.48S1215.804,683.437,1215.804,684.444z"/>
			<path d="M1225.169,676.547l-0.484,0.274c-0.042-0.195-0.117-0.413-0.229-0.651c-0.109-0.239-0.233-0.454-0.369-0.645
				c-0.14-0.201-0.293-0.359-0.46-0.475c-0.167-0.116-0.327-0.146-0.482-0.088c-0.146,0.058-0.328,0.143-0.549,0.256
				s-0.425,0.223-0.612,0.328l-0.409,0.231v10.376c0,0.201,0.033,0.367,0.099,0.497c0.066,0.13,0.181,0.194,0.345,0.192
				c0.084-0.005,0.261-0.048,0.531-0.129c0.269-0.08,0.479-0.16,0.627-0.238v0.648l-4.71,2.684v-0.649
				c0.132-0.087,0.333-0.227,0.603-0.416c0.27-0.19,0.456-0.342,0.559-0.456c0.155-0.167,0.27-0.347,0.342-0.537
				s0.108-0.411,0.108-0.661v-10.462l-0.407,0.231c-0.146,0.082-0.326,0.188-0.542,0.32c-0.216,0.131-0.423,0.269-0.619,0.41
				c-0.155,0.112-0.315,0.323-0.481,0.634c-0.167,0.312-0.321,0.645-0.462,0.999c-0.142,0.354-0.265,0.716-0.374,1.086
				c-0.107,0.369-0.183,0.666-0.225,0.892l-0.493,0.279v-3.524l8.695-4.923V676.547z"/>
			<path d="M1235.211,680.268l-4.118,2.346v-0.647c0.364-0.236,0.666-0.47,0.905-0.697s0.359-0.407,0.359-0.542
				c0-0.055-0.004-0.118-0.014-0.192s-0.023-0.136-0.041-0.187l-0.822-2.431l-3.483,1.98c-0.131,0.501-0.237,0.932-0.319,1.295
				s-0.155,0.697-0.222,1.002c-0.06,0.297-0.103,0.533-0.126,0.71c-0.023,0.179-0.035,0.319-0.035,0.423
				c0,0.243,0.147,0.348,0.441,0.314s0.627-0.145,0.994-0.329v0.647l-3.744,2.134v-0.648c0.122-0.081,0.273-0.203,0.456-0.364
				c0.182-0.162,0.333-0.325,0.448-0.489c0.188-0.271,0.332-0.525,0.435-0.763c0.103-0.239,0.203-0.543,0.302-0.916
				c0.5-1.909,1.051-4.048,1.652-6.415c0.603-2.367,1.139-4.475,1.609-6.322l0.56-0.316l3.305,9.28
				c0.069,0.197,0.149,0.343,0.237,0.438s0.212,0.168,0.37,0.218c0.107,0.023,0.247,0.016,0.419-0.024
				c0.171-0.04,0.315-0.091,0.432-0.15V680.268z M1231.227,677.25l-1.504-4.168l-1.482,5.865L1231.227,677.25z"/>
			<path d="M1249.063,672.375l-2.706,1.541c-0.188-0.595-0.373-1.131-0.553-1.607c-0.18-0.478-0.365-0.935-0.553-1.373
				c-0.306-0.73-0.613-1.17-0.928-1.319c-0.313-0.15-0.731-0.076-1.256,0.222l-0.425,0.242v4.133c0,0.2,0.029,0.362,0.087,0.487
				c0.059,0.126,0.163,0.192,0.315,0.203c0.075-0.001,0.213-0.028,0.414-0.081c0.201-0.054,0.369-0.116,0.503-0.187v0.646
				l-4.093,2.331v-0.646c0.107-0.072,0.263-0.18,0.466-0.32c0.205-0.141,0.348-0.259,0.432-0.354
				c0.139-0.159,0.24-0.334,0.303-0.524s0.094-0.395,0.094-0.612v-4.235l-0.425,0.241c-0.533,0.303-0.952,0.694-1.256,1.173
				c-0.305,0.48-0.618,1.285-0.943,2.418c-0.187,0.635-0.379,1.337-0.578,2.106c-0.2,0.771-0.379,1.486-0.536,2.146l-2.71,1.544
				v-0.647c0.107-0.079,0.226-0.162,0.355-0.252c0.131-0.09,0.261-0.187,0.391-0.29c0.195-0.161,0.355-0.355,0.481-0.585
				c0.125-0.23,0.249-0.554,0.369-0.968c0.103-0.362,0.23-0.795,0.383-1.299c0.153-0.503,0.298-0.988,0.433-1.454
				c0.236-0.815,0.523-1.519,0.86-2.112c0.336-0.593,0.748-1.115,1.235-1.566v-0.127c-0.186-0.113-0.346-0.25-0.48-0.409
				c-0.134-0.16-0.253-0.348-0.355-0.563c-0.097-0.199-0.178-0.405-0.243-0.616c-0.064-0.212-0.129-0.437-0.195-0.673
				c-0.045-0.181-0.1-0.385-0.16-0.614c-0.06-0.23-0.12-0.419-0.181-0.566c-0.07-0.16-0.15-0.299-0.244-0.413
				c-0.093-0.113-0.204-0.188-0.334-0.224c-0.051,0.162-0.115,0.354-0.195,0.579c-0.079,0.224-0.153,0.4-0.223,0.531
				c-0.098,0.183-0.192,0.33-0.286,0.444c-0.093,0.113-0.23,0.222-0.41,0.324c-0.252,0.142-0.436,0.135-0.552-0.021
				c-0.116-0.156-0.174-0.358-0.174-0.606c0-0.158,0.022-0.316,0.066-0.477c0.044-0.157,0.114-0.325,0.213-0.502
				c0.093-0.162,0.215-0.319,0.366-0.471c0.151-0.153,0.329-0.287,0.534-0.403c0.297-0.168,0.564-0.251,0.802-0.249
				c0.237,0.003,0.45,0.074,0.641,0.215c0.251,0.192,0.453,0.48,0.606,0.867c0.153,0.386,0.283,0.773,0.39,1.162
				c0.128,0.467,0.24,0.857,0.338,1.172c0.096,0.316,0.264,0.558,0.5,0.727c0.148,0.104,0.303,0.158,0.463,0.165
				c0.16,0.006,0.326-0.041,0.498-0.139l0.557-0.314v-4.328c0-0.206-0.026-0.369-0.08-0.491c-0.053-0.122-0.159-0.186-0.316-0.193
				c-0.125-0.008-0.273,0.006-0.445,0.042c-0.171,0.037-0.322,0.086-0.452,0.147v-0.646l4.093-2.317v0.646
				c-0.129,0.078-0.292,0.198-0.486,0.356s-0.338,0.285-0.431,0.381c-0.156,0.161-0.264,0.343-0.319,0.544
				c-0.055,0.201-0.083,0.401-0.083,0.602v4.417l0.556-0.315c0.172-0.098,0.34-0.241,0.504-0.432s0.316-0.419,0.455-0.686
				c0.198-0.379,0.36-0.81,0.485-1.288c0.124-0.479,0.243-1,0.358-1.562c0.107-0.516,0.237-1.052,0.393-1.612
				c0.154-0.559,0.352-1.071,0.593-1.534c0.181-0.345,0.393-0.655,0.638-0.933c0.244-0.278,0.51-0.498,0.797-0.661
				c0.198-0.112,0.371-0.178,0.52-0.198s0.273-0.002,0.374,0.057c0.093,0.049,0.162,0.131,0.208,0.245
				c0.046,0.112,0.068,0.251,0.068,0.414c0,0.134-0.014,0.271-0.044,0.415c-0.03,0.145-0.073,0.274-0.129,0.391
				c-0.063,0.139-0.136,0.26-0.214,0.362c-0.078,0.101-0.189,0.193-0.332,0.274c-0.153,0.086-0.285,0.127-0.398,0.126
				c-0.113-0.002-0.211-0.038-0.295-0.105c-0.084-0.068-0.158-0.16-0.225-0.277c-0.067-0.115-0.131-0.235-0.191-0.359
				c-0.128,0.183-0.238,0.383-0.328,0.6s-0.171,0.443-0.24,0.676c-0.059,0.204-0.12,0.461-0.183,0.771
				c-0.062,0.311-0.117,0.57-0.164,0.778c-0.045,0.226-0.107,0.513-0.187,0.86c-0.078,0.346-0.16,0.65-0.242,0.909
				c-0.098,0.31-0.214,0.63-0.35,0.961c-0.137,0.331-0.3,0.663-0.49,0.995v0.127c0.49-0.098,0.906-0.037,1.248,0.182
				c0.343,0.218,0.627,0.587,0.854,1.106c0.129,0.296,0.271,0.614,0.426,0.953c0.155,0.34,0.283,0.629,0.384,0.868
				c0.111,0.252,0.229,0.426,0.354,0.522c0.124,0.095,0.261,0.122,0.408,0.081c0.139-0.043,0.283-0.096,0.434-0.156
				c0.149-0.061,0.275-0.114,0.377-0.16V672.375z"/>
		</g>
	</g>
</g>
<g class="floor" data-floor="2">
	<polygon opacity="0.8" fill="#FFFFFF" stroke="#ffffff" stroke-width="2" points="407.333,323.667 396.5,266.843 988.5,693.25 991.25,692 1003,696 
		1025.75,696 1033,693.5 1036,694 1431.5,478.25 1419.25,543.25 1031.321,766.315 1026,768 997.25,768 990.25,764.25 986.5,764.25 	
		"/>
	<g id="Текст_в_перспективе_1_">
		<g>
			<path d="M693.386,515.424l-4.296-3.232v-1.176c0.083-0.115,0.198-0.228,0.344-0.339c0.146-0.11,0.32-0.219,0.521-0.325
				c0.122-0.063,0.269-0.123,0.439-0.177c0.171-0.054,0.365-0.11,0.582-0.164c0.242-0.06,0.427-0.132,0.557-0.218
				c0.13-0.086,0.248-0.224,0.356-0.412c0.07-0.125,0.126-0.305,0.169-0.539c0.043-0.234,0.064-0.598,0.064-1.091
				c0-0.717-0.103-1.32-0.308-1.808c-0.205-0.489-0.467-0.854-0.789-1.094c-0.198-0.148-0.386-0.216-0.563-0.203
				c-0.177,0.014-0.31,0.116-0.399,0.308c0.022,0.2,0.048,0.438,0.081,0.713c0.032,0.277,0.048,0.535,0.048,0.776
				c0,0.218-0.048,0.375-0.144,0.472c-0.097,0.098-0.239,0.075-0.428-0.067c-0.153-0.115-0.271-0.302-0.353-0.561
				c-0.082-0.259-0.123-0.555-0.123-0.888c0-0.309,0.045-0.586,0.137-0.83c0.092-0.244,0.223-0.433,0.394-0.569
				c0.167-0.132,0.375-0.186,0.623-0.161c0.247,0.024,0.515,0.145,0.802,0.36c0.626,0.469,1.124,1.104,1.492,1.904
				c0.369,0.801,0.553,1.64,0.553,2.518c0,0.419-0.033,0.775-0.099,1.07c-0.065,0.295-0.172,0.519-0.319,0.672
				c-0.162,0.17-0.351,0.28-0.569,0.326c-0.217,0.046-0.549,0.088-0.995,0.125c-0.266,0.024-0.513,0.071-0.742,0.143
				c-0.229,0.071-0.417,0.167-0.563,0.285l3.526,2.652V515.424z"/>
			<path d="M701.945,515.373c0,1.014-0.08,1.882-0.24,2.604c-0.159,0.721-0.383,1.268-0.669,1.641
				c-0.289,0.381-0.625,0.588-1.008,0.62c-0.382,0.031-0.81-0.13-1.279-0.483c-0.442-0.334-0.818-0.705-1.13-1.114
				c-0.312-0.409-0.563-0.821-0.752-1.235c-0.196-0.424-0.338-0.826-0.423-1.21s-0.128-0.73-0.128-1.041
				c0-0.362,0.046-0.622,0.14-0.778c0.094-0.157,0.231-0.168,0.412-0.032c0.193,0.146,0.333,0.351,0.417,0.615
				c0.084,0.265,0.127,0.532,0.127,0.803c0,0.201-0.012,0.445-0.037,0.73c-0.025,0.286-0.045,0.487-0.061,0.602
				c0.022,0.051,0.061,0.141,0.116,0.269c0.055,0.128,0.144,0.292,0.267,0.493c0.12,0.194,0.245,0.376,0.375,0.546
				c0.131,0.17,0.309,0.339,0.532,0.507c0.32,0.241,0.622,0.333,0.907,0.274c0.286-0.06,0.524-0.262,0.715-0.608
				c0.196-0.358,0.354-0.857,0.472-1.494c0.119-0.638,0.182-1.449,0.191-2.432c-0.086,0.051-0.189,0.109-0.311,0.174
				c-0.122,0.064-0.227,0.104-0.316,0.118c-0.12,0.021-0.224,0.024-0.313,0.013c-0.088-0.012-0.198-0.067-0.327-0.164
				c-0.16-0.12-0.3-0.258-0.421-0.418c-0.122-0.159-0.237-0.323-0.349-0.491c-0.098-0.147-0.215-0.31-0.352-0.486
				c-0.136-0.176-0.268-0.312-0.393-0.406c-0.129-0.097-0.239-0.131-0.332-0.104c-0.091,0.028-0.189,0.076-0.294,0.145l-0.198-0.615
				c0.19-0.213,0.403-0.353,0.639-0.417c0.236-0.064,0.458-0.02,0.663,0.134c0.157,0.118,0.297,0.259,0.421,0.422
				s0.239,0.324,0.343,0.484c0.098,0.15,0.209,0.307,0.332,0.471c0.123,0.166,0.249,0.296,0.378,0.393
				c0.175,0.131,0.327,0.193,0.456,0.184s0.252-0.053,0.369-0.131c-0.031-1.532-0.222-2.832-0.572-3.898
				c-0.35-1.065-0.809-1.811-1.377-2.236c-0.286-0.213-0.539-0.293-0.758-0.239c-0.219,0.054-0.409,0.209-0.568,0.463
				c-0.153,0.248-0.276,0.576-0.368,0.984c-0.092,0.408-0.165,0.828-0.217,1.261l-0.377-0.282l0.033-4.339l0.364,0.272l0.179,0.721
				c0.211-0.083,0.478-0.087,0.798-0.011c0.321,0.076,0.647,0.238,0.979,0.486c0.436,0.326,0.832,0.759,1.189,1.299
				c0.356,0.54,0.667,1.172,0.932,1.894c0.262,0.721,0.465,1.504,0.61,2.35C701.873,513.522,701.945,514.421,701.945,515.373z"/>
			<path d="M708.118,517.555l-0.32-0.24c-0.028-0.229-0.078-0.513-0.151-0.854c-0.073-0.34-0.154-0.671-0.245-0.992
				c-0.093-0.336-0.194-0.644-0.305-0.926c-0.109-0.281-0.216-0.475-0.319-0.58c-0.096-0.095-0.217-0.203-0.362-0.323
				c-0.146-0.121-0.281-0.228-0.405-0.32l-0.269-0.202v9.822c0,0.19,0.021,0.381,0.065,0.573c0.043,0.19,0.119,0.37,0.227,0.538
				c0.057,0.082,0.172,0.225,0.351,0.428c0.178,0.203,0.316,0.345,0.416,0.426v0.614l-3.105-2.337v-0.614
				c0.086,0.054,0.218,0.13,0.396,0.229c0.178,0.1,0.301,0.148,0.368,0.147c0.102,0.001,0.177-0.051,0.225-0.155
				c0.048-0.105,0.072-0.276,0.072-0.513v-9.896l-0.269-0.201c-0.096-0.072-0.215-0.156-0.356-0.254
				c-0.143-0.098-0.278-0.18-0.408-0.249c-0.102-0.053-0.208-0.019-0.317,0.104c-0.11,0.123-0.21,0.279-0.303,0.469
				c-0.092,0.19-0.174,0.403-0.245,0.642s-0.12,0.442-0.148,0.61l-0.323-0.242v-3.327l5.733,4.286V517.555z"/>
			<path d="M714.806,531.546l-2.751-2.071v-0.616c0.242,0.154,0.443,0.247,0.603,0.28s0.241-0.013,0.241-0.141
				c0-0.052-0.003-0.117-0.009-0.197c-0.007-0.08-0.016-0.153-0.028-0.221l-0.548-3.172l-2.319-1.741
				c-0.087,0.34-0.158,0.639-0.212,0.898c-0.055,0.261-0.103,0.501-0.146,0.722c-0.041,0.219-0.068,0.399-0.084,0.544
				c-0.015,0.145-0.023,0.266-0.023,0.363c0,0.231,0.097,0.484,0.292,0.759c0.196,0.274,0.416,0.515,0.661,0.722v0.616l-2.485-1.87
				v-0.615c0.082,0.05,0.182,0.091,0.302,0.128c0.121,0.036,0.22,0.037,0.297,0.002c0.124-0.062,0.221-0.152,0.289-0.272
				c0.068-0.119,0.135-0.304,0.199-0.556c0.332-1.293,0.698-2.752,1.098-4.376c0.401-1.625,0.758-3.072,1.071-4.341l0.373,0.278
				l2.206,12.275c0.047,0.261,0.1,0.483,0.158,0.666c0.06,0.185,0.143,0.382,0.248,0.595c0.071,0.135,0.165,0.273,0.28,0.414
				c0.115,0.142,0.212,0.245,0.289,0.31V531.546z M712.143,524.509l-1.001-5.527l-0.985,4.035L712.143,524.509z"/>
			<path d="M724.153,538.579l-1.836-1.382c-0.128-0.771-0.253-1.479-0.375-2.127s-0.247-1.28-0.375-1.899
				c-0.206-1.021-0.415-1.768-0.627-2.241c-0.212-0.473-0.494-0.842-0.849-1.107l-0.287-0.216v3.958
				c0,0.191,0.019,0.377,0.058,0.559c0.04,0.181,0.111,0.355,0.213,0.526c0.051,0.078,0.144,0.197,0.28,0.358
				c0.136,0.16,0.249,0.277,0.34,0.352v0.618l-2.761-2.078v-0.617c0.072,0.043,0.177,0.104,0.313,0.184
				c0.138,0.08,0.234,0.118,0.291,0.114c0.094-0.005,0.161-0.066,0.204-0.182c0.042-0.116,0.063-0.28,0.063-0.488v-4.053
				l-0.286-0.214c-0.359-0.271-0.641-0.334-0.845-0.195c-0.205,0.14-0.417,0.58-0.635,1.321c-0.125,0.411-0.254,0.881-0.388,1.406
				c-0.135,0.525-0.254,1.022-0.36,1.486l-1.816-1.366v-0.616c0.072,0.036,0.151,0.08,0.238,0.132
				c0.087,0.05,0.175,0.095,0.262,0.13c0.131,0.053,0.238,0.035,0.323-0.053c0.083-0.088,0.167-0.268,0.248-0.536
				c0.068-0.239,0.153-0.518,0.256-0.838c0.104-0.32,0.2-0.633,0.291-0.936c0.159-0.53,0.351-0.902,0.577-1.116
				c0.227-0.214,0.503-0.282,0.831-0.203v-0.122c-0.125-0.302-0.232-0.601-0.323-0.894c-0.09-0.294-0.17-0.597-0.238-0.909
				c-0.065-0.292-0.12-0.573-0.164-0.844c-0.043-0.271-0.087-0.552-0.132-0.846c-0.03-0.221-0.066-0.472-0.106-0.754
				c-0.041-0.282-0.082-0.526-0.122-0.73c-0.047-0.226-0.102-0.442-0.164-0.647c-0.063-0.206-0.137-0.395-0.225-0.564
				c-0.034,0.104-0.078,0.219-0.131,0.351c-0.052,0.132-0.103,0.223-0.149,0.274c-0.065,0.073-0.129,0.114-0.191,0.126
				c-0.063,0.012-0.154-0.028-0.276-0.12c-0.168-0.126-0.291-0.323-0.369-0.593c-0.078-0.269-0.116-0.522-0.116-0.76
				c0-0.15,0.014-0.278,0.044-0.384c0.029-0.105,0.078-0.192,0.143-0.259c0.063-0.058,0.145-0.081,0.246-0.068
				s0.221,0.069,0.358,0.172c0.199,0.149,0.378,0.35,0.538,0.598c0.159,0.25,0.303,0.542,0.43,0.875
				c0.169,0.444,0.305,0.932,0.407,1.46c0.103,0.529,0.19,1.035,0.262,1.518c0.087,0.58,0.162,1.071,0.227,1.475
				c0.065,0.402,0.177,0.808,0.337,1.217c0.1,0.255,0.204,0.469,0.311,0.643c0.108,0.174,0.221,0.304,0.335,0.39l0.375,0.282v-4.141
				c0-0.197-0.018-0.381-0.053-0.554c-0.036-0.173-0.107-0.344-0.213-0.516c-0.084-0.139-0.184-0.28-0.3-0.425
				c-0.115-0.145-0.216-0.255-0.304-0.332v-0.617l2.761,2.064v0.618c-0.087-0.06-0.197-0.115-0.329-0.168
				c-0.131-0.052-0.228-0.081-0.291-0.087c-0.105-0.01-0.178,0.052-0.215,0.187s-0.056,0.298-0.056,0.489v4.229l0.375,0.281
				c0.116,0.086,0.229,0.126,0.341,0.116c0.111-0.01,0.214-0.069,0.308-0.179c0.134-0.154,0.244-0.396,0.327-0.725
				c0.085-0.329,0.167-0.702,0.244-1.12c0.072-0.382,0.161-0.76,0.265-1.134s0.239-0.657,0.402-0.85
				c0.123-0.141,0.266-0.216,0.432-0.225c0.166-0.01,0.346,0.059,0.541,0.204c0.134,0.101,0.252,0.219,0.353,0.354
				c0.101,0.137,0.186,0.285,0.254,0.447c0.062,0.146,0.11,0.298,0.141,0.454c0.031,0.157,0.046,0.314,0.046,0.471
				c0,0.129-0.01,0.246-0.03,0.353c-0.021,0.106-0.05,0.188-0.087,0.24c-0.043,0.065-0.092,0.106-0.146,0.121
				c-0.053,0.016-0.128-0.013-0.226-0.086c-0.103-0.077-0.193-0.177-0.271-0.298c-0.077-0.121-0.143-0.258-0.2-0.411
				c-0.057-0.152-0.107-0.32-0.152-0.502c-0.045-0.182-0.088-0.364-0.129-0.545c-0.087,0.038-0.162,0.115-0.223,0.229
				c-0.061,0.113-0.115,0.246-0.162,0.396c-0.04,0.133-0.082,0.315-0.125,0.547s-0.079,0.425-0.11,0.575
				c-0.03,0.169-0.073,0.378-0.126,0.628s-0.108,0.456-0.164,0.617c-0.066,0.194-0.146,0.379-0.238,0.554
				c-0.092,0.174-0.202,0.321-0.331,0.438v0.122c0.332,0.422,0.613,0.918,0.845,1.488c0.231,0.569,0.424,1.224,0.578,1.961
				c0.087,0.42,0.183,0.875,0.288,1.364c0.105,0.489,0.192,0.902,0.261,1.239c0.075,0.359,0.155,0.651,0.24,0.875
				c0.084,0.223,0.177,0.394,0.277,0.511c0.094,0.105,0.192,0.207,0.294,0.308s0.188,0.182,0.256,0.245V538.579z"/>
		</g>
	</g>
	<g id="Текст_в_перспективе_3_">
		<g>
			<path d="M1204.682,640.847l-6.658,3.689v-1.259c0.128-0.261,0.307-0.571,0.533-0.935c0.229-0.361,0.498-0.769,0.812-1.216
				c0.19-0.271,0.418-0.578,0.683-0.921c0.267-0.343,0.566-0.723,0.903-1.142c0.374-0.465,0.663-0.85,0.864-1.158
				c0.201-0.307,0.384-0.65,0.549-1.029c0.109-0.249,0.197-0.535,0.264-0.856s0.1-0.745,0.1-1.271c0-0.766-0.158-1.239-0.477-1.422
				c-0.316-0.184-0.725-0.138-1.222,0.137c-0.308,0.17-0.599,0.408-0.874,0.717c-0.275,0.308-0.481,0.638-0.619,0.989
				c0.033,0.178,0.075,0.389,0.125,0.63c0.051,0.241,0.074,0.493,0.074,0.75c0,0.233-0.074,0.48-0.224,0.744
				s-0.371,0.477-0.666,0.64c-0.236,0.131-0.419,0.126-0.548-0.016c-0.128-0.14-0.191-0.388-0.191-0.744
				c0-0.331,0.07-0.704,0.213-1.116c0.143-0.413,0.347-0.833,0.612-1.263c0.261-0.419,0.583-0.82,0.968-1.204
				c0.384-0.384,0.799-0.698,1.244-0.943c0.971-0.536,1.741-0.681,2.312-0.436s0.854,0.836,0.854,1.771
				c0,0.447-0.05,0.881-0.151,1.305c-0.103,0.424-0.268,0.839-0.494,1.246c-0.251,0.45-0.544,0.88-0.88,1.289
				s-0.85,1.004-1.542,1.785c-0.412,0.467-0.796,0.929-1.151,1.386s-0.646,0.871-0.875,1.241l5.463-3.023V640.847z"/>
			<path d="M1217.812,626.693c0,1.074-0.122,2.124-0.365,3.15c-0.244,1.026-0.585,1.972-1.021,2.837
				c-0.441,0.879-0.955,1.649-1.539,2.313c-0.585,0.663-1.238,1.193-1.957,1.593c-0.678,0.375-1.254,0.603-1.732,0.681
				c-0.479,0.079-0.863,0.055-1.154-0.07c-0.303-0.127-0.52-0.322-0.651-0.589c-0.131-0.267-0.198-0.565-0.198-0.896
				c0-0.385,0.072-0.738,0.217-1.06c0.144-0.321,0.354-0.559,0.633-0.712c0.297-0.165,0.51-0.175,0.641-0.033
				c0.129,0.142,0.193,0.357,0.193,0.645c0,0.214-0.019,0.493-0.057,0.838c-0.037,0.345-0.068,0.591-0.092,0.738
				c0.033,0.019,0.092,0.051,0.176,0.095c0.086,0.045,0.223,0.072,0.41,0.085c0.185,0.008,0.375-0.004,0.575-0.039
				c0.199-0.034,0.472-0.146,0.814-0.336c0.489-0.271,0.952-0.673,1.389-1.205c0.438-0.532,0.802-1.14,1.093-1.819
				c0.299-0.703,0.541-1.49,0.721-2.36c0.182-0.87,0.277-1.833,0.292-2.892c-0.131,0.195-0.288,0.426-0.475,0.694
				c-0.185,0.267-0.347,0.482-0.482,0.644c-0.184,0.219-0.343,0.394-0.479,0.527c-0.135,0.133-0.302,0.254-0.5,0.362
				c-0.243,0.136-0.459,0.219-0.645,0.249s-0.363,0.047-0.532,0.05c-0.15,0.005-0.331,0.025-0.539,0.062
				c-0.21,0.038-0.411,0.109-0.604,0.217c-0.198,0.109-0.366,0.253-0.508,0.434c-0.141,0.18-0.292,0.394-0.451,0.637l-0.304-0.326
				c0.292-0.541,0.618-1.039,0.98-1.496s0.7-0.771,1.016-0.945c0.24-0.133,0.455-0.214,0.646-0.244
				c0.19-0.031,0.365-0.048,0.524-0.049c0.151-0.003,0.32-0.019,0.509-0.045c0.187-0.025,0.38-0.094,0.577-0.202
				c0.268-0.148,0.5-0.332,0.697-0.555c0.197-0.221,0.385-0.469,0.563-0.742c-0.047-1.574-0.338-2.64-0.873-3.197
				s-1.236-0.597-2.106-0.118c-0.438,0.24-0.825,0.57-1.161,0.987s-0.627,0.893-0.871,1.425c-0.234,0.514-0.423,1.064-0.564,1.649
				s-0.252,1.149-0.332,1.696l-0.58,0.32l0.05-4.669l0.559-0.308l0.275,0.473c0.325-0.437,0.733-0.877,1.226-1.321
				c0.491-0.444,0.99-0.807,1.498-1.086c0.668-0.367,1.274-0.557,1.819-0.566c0.544-0.009,1.02,0.151,1.423,0.485
				c0.398,0.336,0.708,0.834,0.929,1.494C1217.701,624.853,1217.812,625.686,1217.812,626.693z"/>
			<path d="M1227.166,618.949l-0.482,0.267c-0.043-0.196-0.119-0.415-0.229-0.655c-0.109-0.24-0.232-0.458-0.368-0.65
				c-0.141-0.203-0.293-0.363-0.46-0.481c-0.166-0.118-0.327-0.15-0.481-0.096c-0.146,0.056-0.328,0.139-0.548,0.247
				c-0.22,0.109-0.425,0.216-0.612,0.319l-0.408,0.225v10.37c0,0.2,0.033,0.367,0.099,0.498c0.065,0.13,0.18,0.197,0.344,0.197
				c0.084-0.003,0.261-0.044,0.53-0.12c0.269-0.076,0.478-0.151,0.627-0.229v0.648l-4.705,2.607v-0.649
				c0.132-0.085,0.332-0.221,0.603-0.406c0.269-0.187,0.455-0.335,0.558-0.446c0.154-0.165,0.269-0.343,0.342-0.532
				c0.072-0.189,0.108-0.409,0.108-0.659v-10.456l-0.408,0.225c-0.145,0.08-0.325,0.184-0.541,0.313
				c-0.215,0.127-0.422,0.261-0.618,0.399c-0.155,0.11-0.314,0.318-0.481,0.626c-0.167,0.309-0.32,0.639-0.461,0.99
				c-0.142,0.353-0.265,0.712-0.373,1.079c-0.108,0.368-0.183,0.664-0.225,0.889l-0.493,0.271v-3.522l8.686-4.781V618.949z"/>
			<path d="M1237.197,622.827l-4.113,2.28v-0.647c0.363-0.231,0.664-0.459,0.904-0.683c0.239-0.224,0.359-0.403,0.359-0.537
				c0-0.055-0.004-0.118-0.014-0.192c-0.011-0.073-0.023-0.135-0.042-0.186l-0.82-2.443l-3.48,1.924
				c-0.131,0.498-0.237,0.928-0.319,1.289c-0.081,0.361-0.155,0.694-0.221,0.998c-0.061,0.295-0.103,0.53-0.126,0.708
				s-0.035,0.318-0.035,0.421c0,0.244,0.147,0.351,0.44,0.321c0.295-0.028,0.626-0.134,0.993-0.313v0.647l-3.739,2.072v-0.648
				c0.122-0.079,0.272-0.198,0.455-0.356c0.182-0.159,0.332-0.32,0.448-0.482c0.187-0.267,0.332-0.519,0.435-0.755
				s0.202-0.539,0.301-0.91c0.5-1.9,1.049-4.028,1.65-6.386c0.602-2.355,1.138-4.453,1.607-6.293l0.56-0.308l3.3,9.329
				c0.07,0.197,0.15,0.345,0.237,0.441c0.089,0.098,0.212,0.172,0.37,0.224c0.106,0.025,0.246,0.021,0.418-0.018
				s0.316-0.087,0.432-0.145V622.827z M1233.217,619.748l-1.502-4.189l-1.48,5.838L1233.217,619.748z"/>
			<path d="M1251.034,615.159l-2.702,1.498c-0.189-0.598-0.373-1.136-0.553-1.616c-0.18-0.479-0.364-0.938-0.553-1.38
				c-0.305-0.734-0.612-1.179-0.926-1.334c-0.313-0.155-0.73-0.087-1.255,0.203l-0.424,0.234v4.131c0,0.199,0.028,0.362,0.087,0.488
				c0.058,0.126,0.162,0.195,0.315,0.208c0.073,0,0.212-0.024,0.413-0.075c0.201-0.05,0.368-0.11,0.502-0.178v0.645l-4.088,2.266
				v-0.646c0.107-0.071,0.262-0.176,0.465-0.313c0.205-0.138,0.348-0.253,0.432-0.348c0.139-0.156,0.24-0.33,0.303-0.519
				c0.063-0.189,0.093-0.394,0.093-0.611v-4.232l-0.424,0.233c-0.532,0.295-0.952,0.68-1.255,1.153
				c-0.304,0.475-0.617,1.274-0.941,2.401c-0.187,0.632-0.379,1.33-0.578,2.096c-0.2,0.767-0.378,1.479-0.536,2.138l-2.706,1.499
				v-0.646c0.107-0.078,0.226-0.16,0.355-0.247c0.129-0.088,0.26-0.183,0.39-0.284c0.194-0.157,0.355-0.349,0.48-0.577
				c0.126-0.228,0.248-0.549,0.369-0.961c0.103-0.361,0.229-0.791,0.383-1.292s0.297-0.983,0.431-1.446
				c0.237-0.812,0.523-1.51,0.861-2.097c0.335-0.588,0.746-1.104,1.232-1.547v-0.127c-0.185-0.116-0.345-0.255-0.479-0.416
				c-0.134-0.162-0.252-0.352-0.354-0.568c-0.098-0.201-0.178-0.408-0.244-0.62c-0.064-0.213-0.129-0.438-0.193-0.675
				c-0.047-0.181-0.101-0.387-0.161-0.616c-0.06-0.231-0.12-0.421-0.181-0.569c-0.069-0.162-0.15-0.301-0.243-0.416
				c-0.093-0.116-0.204-0.193-0.334-0.23c-0.051,0.162-0.115,0.354-0.194,0.576c-0.08,0.223-0.154,0.398-0.224,0.527
				c-0.098,0.182-0.191,0.327-0.285,0.439c-0.093,0.112-0.229,0.218-0.411,0.317c-0.25,0.139-0.434,0.128-0.55-0.029
				c-0.115-0.157-0.174-0.36-0.174-0.609c0-0.157,0.022-0.315,0.066-0.474c0.044-0.157,0.114-0.324,0.212-0.499
				c0.094-0.16,0.216-0.316,0.367-0.465c0.15-0.15,0.328-0.281,0.532-0.394c0.298-0.164,0.564-0.243,0.802-0.237
				c0.237,0.007,0.45,0.082,0.641,0.225c0.25,0.196,0.452,0.488,0.605,0.877s0.282,0.778,0.389,1.168
				c0.128,0.468,0.241,0.86,0.338,1.177c0.096,0.317,0.263,0.562,0.499,0.734c0.148,0.105,0.303,0.162,0.463,0.171
				c0.159,0.01,0.326-0.034,0.497-0.129l0.556-0.307v-4.325c0-0.206-0.026-0.37-0.079-0.492c-0.054-0.123-0.158-0.188-0.316-0.199
				c-0.125-0.01-0.273,0.003-0.445,0.036c-0.17,0.033-0.321,0.08-0.451,0.14v-0.646l4.088-2.25v0.645
				c-0.129,0.077-0.291,0.194-0.485,0.349c-0.194,0.155-0.337,0.279-0.43,0.373c-0.157,0.159-0.264,0.339-0.319,0.539
				s-0.083,0.4-0.083,0.601v4.414l0.556-0.308c0.171-0.094,0.339-0.235,0.502-0.423c0.165-0.188,0.316-0.412,0.455-0.678
				c0.198-0.375,0.36-0.802,0.484-1.279c0.124-0.477,0.244-0.995,0.359-1.555c0.105-0.513,0.236-1.048,0.391-1.604
				c0.154-0.558,0.353-1.065,0.593-1.524c0.18-0.342,0.393-0.649,0.637-0.923c0.244-0.272,0.51-0.489,0.796-0.646
				c0.198-0.109,0.372-0.173,0.52-0.19c0.148-0.019,0.272,0.002,0.373,0.062c0.094,0.052,0.162,0.135,0.208,0.249
				c0.046,0.113,0.069,0.252,0.069,0.415c0,0.133-0.015,0.271-0.045,0.414s-0.073,0.273-0.128,0.388
				c-0.064,0.139-0.136,0.259-0.215,0.359c-0.078,0.101-0.188,0.19-0.332,0.269c-0.152,0.084-0.284,0.123-0.397,0.12
				c-0.113-0.004-0.211-0.041-0.295-0.11c-0.082-0.069-0.157-0.162-0.224-0.28c-0.067-0.117-0.131-0.238-0.19-0.362
				c-0.129,0.181-0.238,0.378-0.328,0.594c-0.091,0.216-0.17,0.44-0.24,0.672c-0.059,0.203-0.12,0.459-0.183,0.768
				c-0.062,0.31-0.117,0.568-0.163,0.775c-0.046,0.225-0.108,0.511-0.188,0.856c-0.078,0.346-0.159,0.647-0.242,0.905
				c-0.097,0.308-0.214,0.626-0.35,0.955s-0.299,0.658-0.488,0.986v0.127c0.49-0.09,0.905-0.022,1.246,0.202
				c0.343,0.223,0.626,0.597,0.852,1.119c0.13,0.298,0.271,0.618,0.427,0.96c0.154,0.342,0.282,0.633,0.383,0.873
				c0.111,0.253,0.229,0.43,0.353,0.527c0.125,0.097,0.262,0.127,0.409,0.088c0.138-0.04,0.282-0.091,0.433-0.149
				c0.149-0.058,0.275-0.109,0.376-0.154V615.159z"/>
		</g>
	</g>
</g>
<g class="floor" data-floor="3">
	<polygon opacity="0.8" fill="#FFFFFF" stroke="#ffffff" stroke-width="2" points="546.601,374.958 541.333,330.664 987.998,639.99 990.998,639.99 
		1001.998,642.324 1026.665,642.324 1034.665,640.99 1038.665,642.324 1438.329,431.996 1431.5,478.25 1036.666,693.637 1033,693.5 
		1025.75,696 1003,696 991.25,692 988.5,693.25 	"/>
	<g>
		<g>
			<path d="M690.881,464.495c-0.287-0.21-0.55-0.469-0.788-0.778s-0.442-0.64-0.614-0.995c-0.17-0.354-0.303-0.713-0.396-1.08
				c-0.093-0.367-0.139-0.707-0.139-1.022c0-0.281,0.036-0.508,0.109-0.68c0.073-0.173,0.191-0.201,0.353-0.083
				c0.183,0.134,0.322,0.32,0.418,0.56c0.097,0.239,0.145,0.468,0.145,0.686c0,0.183-0.016,0.403-0.048,0.661
				c-0.032,0.258-0.058,0.44-0.076,0.547c0.021,0.067,0.06,0.165,0.117,0.292c0.057,0.127,0.126,0.256,0.209,0.385
				c0.098,0.158,0.201,0.302,0.308,0.431c0.107,0.13,0.259,0.267,0.454,0.41c0.183,0.135,0.36,0.207,0.53,0.216
				c0.17,0.009,0.319-0.065,0.448-0.223c0.135-0.167,0.24-0.397,0.315-0.695c0.075-0.298,0.113-0.734,0.113-1.308
				c0-0.31-0.018-0.63-0.053-0.96c-0.035-0.329-0.101-0.641-0.196-0.934c-0.095-0.293-0.224-0.562-0.388-0.804
				c-0.164-0.242-0.371-0.456-0.622-0.639l-0.602-0.439v-0.989l0.399,0.291c0.423,0.309,0.729,0.313,0.915,0.013
				c0.187-0.3,0.28-0.889,0.28-1.767c0-0.717-0.09-1.324-0.271-1.819c-0.181-0.496-0.437-0.865-0.767-1.105
				c-0.16-0.116-0.291-0.175-0.393-0.178c-0.103-0.002-0.186,0.007-0.25,0.029c-0.077,0.025-0.139,0.069-0.188,0.13
				c-0.049,0.061-0.085,0.107-0.11,0.135c0.021,0.199,0.047,0.443,0.078,0.731c0.03,0.289,0.046,0.554,0.046,0.795
				c0,0.212-0.048,0.367-0.145,0.466c-0.097,0.1-0.237,0.081-0.424-0.054c-0.162-0.118-0.28-0.313-0.354-0.584
				c-0.075-0.272-0.112-0.552-0.112-0.838c0-0.299,0.044-0.569,0.133-0.815c0.088-0.245,0.22-0.439,0.393-0.583
				c0.174-0.143,0.386-0.207,0.637-0.19c0.25,0.016,0.539,0.142,0.866,0.379c0.376,0.274,0.688,0.604,0.933,0.993
				c0.246,0.387,0.439,0.782,0.58,1.184c0.138,0.392,0.232,0.769,0.285,1.128c0.051,0.359,0.078,0.654,0.078,0.884
				c0,0.287-0.021,0.559-0.064,0.818c-0.043,0.259-0.114,0.476-0.211,0.651c-0.107,0.191-0.249,0.334-0.425,0.427
				c-0.175,0.093-0.396,0.11-0.663,0.054v0.138c0.172,0.153,0.354,0.359,0.548,0.615c0.194,0.256,0.369,0.553,0.526,0.891
				c0.162,0.353,0.295,0.753,0.399,1.199c0.104,0.446,0.156,0.954,0.156,1.522c0,1.102-0.235,1.824-0.707,2.166
				C692.175,465.1,691.587,465.012,690.881,464.495z"/>
			<path d="M701.945,462.943c0,1.014-0.08,1.884-0.24,2.608c-0.159,0.725-0.383,1.277-0.669,1.656
				c-0.289,0.387-0.625,0.602-1.008,0.642c-0.382,0.04-0.81-0.112-1.279-0.455c-0.442-0.324-0.818-0.687-1.13-1.089
				c-0.312-0.402-0.563-0.809-0.752-1.218c-0.196-0.42-0.338-0.82-0.423-1.202c-0.085-0.381-0.128-0.727-0.128-1.038
				c0-0.362,0.046-0.623,0.14-0.781s0.231-0.173,0.412-0.041c0.193,0.141,0.333,0.343,0.417,0.605c0.084,0.263,0.127,0.53,0.127,0.8
				c0,0.201-0.012,0.445-0.037,0.731c-0.025,0.287-0.045,0.488-0.061,0.603c0.022,0.05,0.061,0.139,0.116,0.266
				c0.055,0.126,0.144,0.289,0.267,0.488c0.12,0.191,0.245,0.37,0.375,0.537c0.131,0.167,0.309,0.332,0.532,0.496
				c0.32,0.234,0.622,0.318,0.907,0.253c0.286-0.065,0.524-0.273,0.715-0.624c0.196-0.363,0.354-0.865,0.472-1.505
				s0.182-1.453,0.191-2.436c-0.086,0.053-0.189,0.113-0.311,0.181c-0.122,0.067-0.227,0.109-0.316,0.125
				c-0.12,0.024-0.224,0.03-0.313,0.02c-0.088-0.011-0.198-0.063-0.327-0.157c-0.16-0.116-0.3-0.251-0.421-0.409
				c-0.122-0.156-0.237-0.317-0.349-0.483c-0.098-0.145-0.215-0.305-0.352-0.479c-0.136-0.172-0.268-0.306-0.393-0.397
				c-0.129-0.094-0.239-0.126-0.332-0.097c-0.091,0.03-0.189,0.08-0.294,0.151l-0.198-0.61c0.19-0.217,0.403-0.362,0.639-0.432
				c0.236-0.069,0.458-0.03,0.663,0.12c0.157,0.115,0.297,0.252,0.421,0.413s0.239,0.319,0.343,0.477
				c0.098,0.147,0.209,0.302,0.332,0.464c0.123,0.163,0.249,0.291,0.378,0.385c0.175,0.127,0.327,0.186,0.456,0.173
				s0.252-0.059,0.369-0.139c-0.031-1.532-0.222-2.828-0.572-3.886c-0.35-1.058-0.809-1.793-1.377-2.206
				c-0.286-0.207-0.539-0.281-0.758-0.222c-0.219,0.059-0.409,0.218-0.568,0.476c-0.153,0.251-0.276,0.582-0.368,0.992
				c-0.092,0.41-0.165,0.832-0.217,1.266l-0.377-0.274l0.033-4.339l0.364,0.264l0.179,0.716c0.211-0.087,0.478-0.097,0.798-0.028
				c0.321,0.068,0.647,0.223,0.979,0.464c0.436,0.316,0.832,0.74,1.189,1.273c0.356,0.532,0.667,1.157,0.932,1.873
				c0.262,0.715,0.465,1.493,0.61,2.336C701.873,461.095,701.945,461.992,701.945,462.943z"/>
			<path d="M708.118,464.988l-0.32-0.233c-0.028-0.228-0.078-0.511-0.151-0.85s-0.154-0.668-0.245-0.987
				c-0.093-0.334-0.194-0.639-0.305-0.919c-0.109-0.278-0.216-0.47-0.319-0.573c-0.096-0.093-0.217-0.198-0.362-0.315
				c-0.146-0.118-0.281-0.221-0.405-0.311l-0.269-0.196v9.822c0,0.19,0.021,0.381,0.065,0.571c0.043,0.189,0.119,0.367,0.227,0.534
				c0.057,0.081,0.172,0.221,0.351,0.42c0.178,0.199,0.316,0.337,0.416,0.416v0.615l-3.105-2.269V470.1
				c0.086,0.051,0.218,0.125,0.396,0.22c0.178,0.095,0.301,0.141,0.368,0.139c0.102,0,0.177-0.054,0.225-0.16
				c0.048-0.106,0.072-0.278,0.072-0.514v-9.896l-0.269-0.195c-0.096-0.07-0.215-0.152-0.356-0.246
				c-0.143-0.095-0.278-0.174-0.408-0.24c-0.102-0.05-0.208-0.014-0.317,0.112c-0.11,0.125-0.21,0.284-0.303,0.476
				c-0.092,0.192-0.174,0.407-0.245,0.647c-0.071,0.24-0.12,0.445-0.148,0.614l-0.323-0.235v-3.327l5.733,4.159V464.988z"/>
			<path d="M714.806,478.831l-2.751-2.01v-0.616c0.242,0.148,0.443,0.237,0.603,0.266c0.16,0.03,0.241-0.018,0.241-0.146
				c0-0.052-0.003-0.117-0.009-0.197c-0.007-0.08-0.016-0.153-0.028-0.22l-0.548-3.16l-2.319-1.69
				c-0.087,0.341-0.158,0.642-0.212,0.903s-0.103,0.502-0.146,0.725c-0.041,0.219-0.068,0.401-0.084,0.545
				c-0.015,0.145-0.023,0.266-0.023,0.364c0,0.231,0.097,0.482,0.292,0.752c0.196,0.27,0.416,0.505,0.661,0.708v0.615l-2.485-1.814
				v-0.615c0.082,0.047,0.182,0.087,0.302,0.121c0.121,0.034,0.22,0.033,0.297-0.004c0.124-0.065,0.221-0.158,0.289-0.279
				c0.068-0.121,0.135-0.307,0.199-0.561c0.332-1.301,0.698-2.768,1.098-4.4c0.401-1.634,0.758-3.089,1.071-4.364l0.373,0.27
				l2.206,12.227c0.047,0.26,0.1,0.48,0.158,0.663c0.06,0.183,0.143,0.379,0.248,0.588c0.071,0.133,0.165,0.271,0.28,0.409
				c0.115,0.139,0.212,0.24,0.289,0.303V478.831z M712.143,471.853l-1.001-5.505l-0.985,4.058L712.143,471.853z"/>
			<path d="M724.153,485.657l-1.836-1.341c-0.128-0.768-0.253-1.474-0.375-2.119s-0.247-1.274-0.375-1.891
				c-0.206-1.017-0.415-1.758-0.627-2.227c-0.212-0.469-0.494-0.831-0.849-1.089l-0.287-0.208v3.958
				c0,0.191,0.019,0.376,0.058,0.557c0.04,0.18,0.111,0.354,0.213,0.522c0.051,0.077,0.144,0.194,0.28,0.352
				c0.136,0.157,0.249,0.271,0.34,0.344v0.618l-2.761-2.017v-0.617c0.072,0.042,0.177,0.101,0.313,0.177
				c0.138,0.077,0.234,0.112,0.291,0.107c0.094-0.007,0.161-0.07,0.204-0.187c0.042-0.117,0.063-0.281,0.063-0.489v-4.052
				l-0.286-0.208c-0.359-0.262-0.641-0.32-0.845-0.176c-0.205,0.144-0.417,0.589-0.635,1.335c-0.125,0.414-0.254,0.886-0.388,1.415
				c-0.135,0.528-0.254,1.028-0.36,1.495l-1.816-1.326v-0.617c0.072,0.035,0.151,0.078,0.238,0.126
				c0.087,0.048,0.175,0.091,0.262,0.125c0.131,0.05,0.238,0.029,0.323-0.06c0.083-0.09,0.167-0.271,0.248-0.542
				c0.068-0.241,0.153-0.521,0.256-0.844c0.104-0.322,0.2-0.637,0.291-0.942c0.159-0.534,0.351-0.91,0.577-1.128
				c0.227-0.22,0.503-0.294,0.831-0.222v-0.122c-0.125-0.3-0.232-0.595-0.323-0.887c-0.09-0.292-0.17-0.593-0.238-0.903
				c-0.065-0.291-0.12-0.571-0.164-0.841c-0.043-0.269-0.087-0.55-0.132-0.842c-0.03-0.22-0.066-0.471-0.106-0.752
				c-0.041-0.281-0.082-0.524-0.122-0.727c-0.047-0.225-0.102-0.44-0.164-0.645s-0.137-0.391-0.225-0.559
				c-0.034,0.103-0.078,0.22-0.131,0.353c-0.052,0.132-0.103,0.225-0.149,0.277c-0.065,0.075-0.129,0.118-0.191,0.13
				c-0.063,0.013-0.154-0.024-0.276-0.113c-0.168-0.123-0.291-0.317-0.369-0.585c-0.078-0.268-0.116-0.521-0.116-0.757
				c0-0.15,0.014-0.279,0.044-0.385c0.029-0.106,0.078-0.193,0.143-0.261c0.063-0.059,0.145-0.084,0.246-0.074
				c0.101,0.01,0.221,0.064,0.358,0.164c0.199,0.145,0.378,0.34,0.538,0.585c0.159,0.246,0.303,0.535,0.43,0.865
				c0.169,0.441,0.305,0.925,0.407,1.452c0.103,0.526,0.19,1.03,0.262,1.511c0.087,0.579,0.162,1.068,0.227,1.469
				c0.065,0.401,0.177,0.804,0.337,1.21c0.1,0.253,0.204,0.464,0.311,0.636c0.108,0.171,0.221,0.299,0.335,0.382l0.375,0.273V471.2
				c0-0.197-0.018-0.381-0.053-0.552c-0.036-0.172-0.107-0.341-0.213-0.511c-0.084-0.137-0.184-0.276-0.3-0.417
				c-0.115-0.143-0.216-0.251-0.304-0.326v-0.617l2.761,2.003v0.618c-0.087-0.058-0.197-0.111-0.329-0.16s-0.228-0.076-0.291-0.081
				c-0.105-0.007-0.178,0.056-0.215,0.191s-0.056,0.299-0.056,0.49v4.229l0.375,0.273c0.116,0.084,0.229,0.121,0.341,0.108
				c0.111-0.012,0.214-0.074,0.308-0.186c0.134-0.157,0.244-0.401,0.327-0.732c0.085-0.331,0.167-0.705,0.244-1.125
				c0.072-0.383,0.161-0.763,0.265-1.139c0.104-0.377,0.239-0.663,0.402-0.859c0.123-0.144,0.266-0.222,0.432-0.234
				c0.166-0.013,0.346,0.05,0.541,0.191c0.134,0.098,0.252,0.214,0.353,0.348c0.101,0.134,0.186,0.28,0.254,0.441
				c0.062,0.145,0.11,0.295,0.141,0.452c0.031,0.156,0.046,0.313,0.046,0.47c0,0.128-0.01,0.246-0.03,0.353
				c-0.021,0.106-0.05,0.188-0.087,0.242c-0.043,0.066-0.092,0.109-0.146,0.125c-0.053,0.016-0.128-0.011-0.226-0.082
				c-0.103-0.075-0.193-0.172-0.271-0.292c-0.077-0.119-0.143-0.255-0.2-0.407c-0.057-0.151-0.107-0.317-0.152-0.498
				c-0.045-0.181-0.088-0.362-0.129-0.542c-0.087,0.041-0.162,0.119-0.223,0.234c-0.061,0.115-0.115,0.249-0.162,0.4
				c-0.04,0.134-0.082,0.317-0.125,0.55c-0.042,0.232-0.079,0.426-0.11,0.578c-0.03,0.169-0.073,0.379-0.126,0.631
				c-0.053,0.251-0.108,0.458-0.164,0.621c-0.066,0.196-0.146,0.382-0.238,0.559c-0.092,0.176-0.202,0.326-0.331,0.446v0.122
				c0.332,0.415,0.613,0.905,0.845,1.47c0.231,0.563,0.424,1.214,0.578,1.948c0.087,0.418,0.183,0.871,0.288,1.358
				c0.105,0.487,0.192,0.898,0.261,1.233c0.075,0.357,0.155,0.647,0.24,0.87c0.084,0.221,0.177,0.39,0.277,0.504
				c0.094,0.103,0.192,0.203,0.294,0.301s0.188,0.178,0.256,0.239V485.657z"/>
		</g>
	</g>
	<g>
		<g>
			<path d="M1201.532,590.558c-0.445,0.239-0.853,0.388-1.223,0.442s-0.688,0.031-0.953-0.07c-0.267-0.103-0.472-0.273-0.615-0.516
				c-0.145-0.241-0.218-0.529-0.218-0.867c0-0.301,0.057-0.603,0.171-0.906c0.114-0.303,0.296-0.522,0.548-0.658
				c0.285-0.153,0.502-0.18,0.651-0.078c0.149,0.1,0.224,0.268,0.224,0.5c0,0.196-0.024,0.457-0.074,0.785
				c-0.051,0.327-0.09,0.563-0.117,0.707c0.032,0.037,0.094,0.078,0.182,0.122c0.088,0.045,0.195,0.07,0.323,0.074
				c0.152,0.011,0.312-0.002,0.478-0.036s0.401-0.134,0.705-0.297c0.285-0.153,0.559-0.363,0.822-0.627s0.495-0.585,0.693-0.961
				c0.209-0.395,0.371-0.812,0.487-1.25c0.116-0.439,0.175-0.965,0.175-1.578c0-0.33-0.027-0.644-0.083-0.938
				c-0.054-0.296-0.154-0.523-0.302-0.683c-0.146-0.16-0.348-0.238-0.602-0.233s-0.575,0.111-0.964,0.32l-0.934,0.501v-1.058
				l0.619-0.332c0.656-0.352,1.128-0.838,1.418-1.459c0.29-0.622,0.435-1.401,0.435-2.338c0-0.766-0.14-1.269-0.42-1.508
				c-0.28-0.238-0.677-0.221-1.189,0.054c-0.246,0.132-0.449,0.279-0.608,0.44c-0.159,0.162-0.288,0.306-0.388,0.434
				c-0.12,0.149-0.217,0.297-0.293,0.441s-0.133,0.252-0.171,0.321c0.032,0.178,0.073,0.397,0.12,0.657
				c0.048,0.26,0.071,0.519,0.071,0.776c0,0.227-0.074,0.47-0.224,0.73c-0.149,0.262-0.369,0.47-0.658,0.625
				c-0.252,0.135-0.436,0.116-0.551-0.055c-0.116-0.17-0.175-0.409-0.175-0.716c0-0.319,0.068-0.681,0.206-1.086
				c0.139-0.405,0.342-0.824,0.613-1.256c0.27-0.433,0.6-0.843,0.988-1.229c0.388-0.385,0.835-0.714,1.343-0.985
				c0.582-0.312,1.063-0.457,1.444-0.438c0.382,0.02,0.682,0.129,0.898,0.332c0.213,0.198,0.359,0.448,0.439,0.748
				c0.082,0.299,0.121,0.571,0.121,0.816c0,0.307-0.032,0.631-0.099,0.977c-0.067,0.345-0.175,0.688-0.327,1.034
				c-0.166,0.376-0.385,0.755-0.656,1.137s-0.613,0.757-1.026,1.125v0.147c0.267-0.112,0.549-0.187,0.849-0.226
				c0.301-0.04,0.572-0.004,0.813,0.105c0.252,0.116,0.457,0.329,0.617,0.638c0.161,0.309,0.241,0.766,0.241,1.372
				c0,1.175-0.364,2.324-1.093,3.448C1203.538,589.111,1202.626,589.968,1201.532,590.558z"/>
			<path d="M1218.537,571.18c0,1.075-0.122,2.123-0.366,3.145c-0.244,1.022-0.583,1.962-1.021,2.82
				c-0.441,0.871-0.954,1.634-1.539,2.288c-0.584,0.653-1.237,1.174-1.956,1.561c-0.678,0.364-1.255,0.582-1.733,0.652
				c-0.477,0.071-0.861,0.041-1.154-0.09c-0.301-0.131-0.518-0.331-0.649-0.6c-0.133-0.269-0.198-0.567-0.198-0.897
				c0-0.386,0.072-0.738,0.216-1.057c0.144-0.317,0.354-0.553,0.633-0.702c0.297-0.158,0.511-0.166,0.64-0.022
				c0.13,0.145,0.195,0.36,0.195,0.647c0,0.214-0.02,0.493-0.057,0.838c-0.039,0.344-0.068,0.589-0.093,0.737
				c0.032,0.019,0.093,0.051,0.177,0.097c0.085,0.046,0.222,0.077,0.409,0.092c0.184,0.011,0.375,0.002,0.575-0.029
				c0.2-0.032,0.472-0.139,0.814-0.323c0.489-0.264,0.951-0.656,1.389-1.182c0.437-0.525,0.801-1.126,1.092-1.802
				c0.301-0.699,0.541-1.481,0.723-2.349c0.18-0.867,0.277-1.829,0.291-2.887c-0.131,0.193-0.289,0.422-0.475,0.688
				c-0.186,0.264-0.346,0.477-0.482,0.634c-0.184,0.216-0.343,0.389-0.479,0.521c-0.136,0.131-0.303,0.249-0.499,0.355
				c-0.245,0.131-0.461,0.21-0.645,0.237c-0.188,0.027-0.363,0.04-0.533,0.041c-0.15,0.003-0.33,0.021-0.539,0.053
				c-0.209,0.034-0.411,0.104-0.604,0.206c-0.197,0.106-0.366,0.249-0.508,0.427c-0.141,0.177-0.292,0.388-0.451,0.629l-0.305-0.332
				c0.293-0.535,0.619-1.028,0.981-1.479c0.362-0.452,0.701-0.761,1.016-0.93c0.24-0.129,0.454-0.206,0.646-0.234
				c0.19-0.027,0.365-0.041,0.525-0.04c0.15,0,0.319-0.012,0.508-0.035c0.188-0.023,0.379-0.088,0.576-0.193
				c0.268-0.144,0.5-0.324,0.697-0.542s0.385-0.464,0.563-0.734c-0.047-1.574-0.339-2.645-0.873-3.211
				c-0.536-0.566-1.237-0.617-2.106-0.152c-0.438,0.233-0.824,0.557-1.16,0.968c-0.336,0.412-0.627,0.883-0.872,1.41
				c-0.234,0.511-0.423,1.059-0.563,1.641c-0.142,0.582-0.253,1.146-0.333,1.69l-0.579,0.311l0.049-4.667l0.559-0.299l0.275,0.477
				c0.324-0.43,0.734-0.863,1.226-1.301c0.491-0.437,0.99-0.79,1.499-1.062c0.667-0.356,1.273-0.536,1.818-0.536
				c0.544-0.001,1.019,0.169,1.422,0.509c0.398,0.342,0.709,0.845,0.929,1.509C1218.428,569.337,1218.537,570.173,1218.537,571.18z"
				/>
			<path d="M1227.891,563.589l-0.483,0.259c-0.042-0.196-0.118-0.416-0.229-0.658s-0.232-0.462-0.368-0.656
				c-0.141-0.205-0.294-0.368-0.46-0.489c-0.167-0.121-0.327-0.156-0.481-0.104c-0.146,0.054-0.328,0.133-0.549,0.238
				c-0.221,0.106-0.424,0.209-0.611,0.309l-0.408,0.218v10.369c0,0.201,0.032,0.368,0.099,0.5c0.065,0.132,0.179,0.2,0.343,0.203
				c0.085-0.002,0.262-0.039,0.53-0.111c0.269-0.07,0.478-0.144,0.628-0.218v0.648l-4.704,2.529v-0.648
				c0.131-0.083,0.331-0.216,0.601-0.397c0.27-0.181,0.456-0.327,0.559-0.437c0.155-0.163,0.269-0.338,0.341-0.526
				c0.072-0.188,0.108-0.407,0.108-0.657v-10.455l-0.406,0.217c-0.146,0.078-0.326,0.18-0.542,0.304
				c-0.215,0.124-0.421,0.254-0.618,0.39c-0.154,0.107-0.314,0.313-0.481,0.619c-0.167,0.306-0.32,0.632-0.461,0.982
				c-0.141,0.35-0.265,0.707-0.373,1.072c-0.108,0.366-0.183,0.661-0.225,0.885l-0.493,0.264v-3.522l8.686-4.64V563.589z"/>
			<path d="M1237.92,567.632l-4.112,2.212v-0.646c0.363-0.227,0.664-0.449,0.903-0.668c0.24-0.221,0.359-0.397,0.359-0.531
				c0-0.055-0.004-0.118-0.014-0.192s-0.023-0.136-0.042-0.188l-0.821-2.456l-3.479,1.867c-0.131,0.496-0.237,0.924-0.318,1.284
				c-0.082,0.36-0.156,0.691-0.222,0.994c-0.06,0.293-0.102,0.528-0.126,0.706c-0.023,0.177-0.034,0.316-0.034,0.42
				c0,0.243,0.147,0.352,0.44,0.328c0.294-0.023,0.625-0.123,0.992-0.296v0.646l-3.738,2.012v-0.648
				c0.121-0.078,0.272-0.194,0.455-0.35c0.182-0.155,0.332-0.313,0.447-0.474c0.187-0.265,0.332-0.514,0.435-0.748
				c0.102-0.235,0.203-0.537,0.301-0.906c0.5-1.892,1.05-4.011,1.651-6.358c0.602-2.346,1.137-4.434,1.607-6.266l0.559-0.299
				l3.301,9.382c0.068,0.199,0.148,0.349,0.236,0.446c0.088,0.099,0.212,0.175,0.369,0.229c0.107,0.027,0.247,0.023,0.418-0.011
				c0.172-0.035,0.316-0.08,0.432-0.137V567.632z M1233.939,564.488l-1.5-4.215l-1.481,5.813L1233.939,564.488z"/>
			<path d="M1251.755,560.19l-2.701,1.454c-0.19-0.601-0.374-1.143-0.554-1.625c-0.179-0.483-0.363-0.946-0.552-1.39
				c-0.305-0.74-0.612-1.188-0.926-1.349c-0.313-0.16-0.731-0.1-1.254,0.182l-0.425,0.228v4.131c0,0.199,0.029,0.363,0.086,0.49
				c0.059,0.127,0.164,0.197,0.316,0.212c0.073,0.003,0.211-0.02,0.412-0.067c0.201-0.047,0.368-0.104,0.503-0.17v0.645
				l-4.087,2.198v-0.646c0.106-0.069,0.261-0.171,0.465-0.305c0.205-0.135,0.348-0.247,0.431-0.341
				c0.139-0.153,0.239-0.325,0.302-0.513c0.063-0.188,0.094-0.392,0.094-0.61v-4.232l-0.424,0.228
				c-0.532,0.286-0.951,0.664-1.254,1.133c-0.305,0.47-0.619,1.265-0.942,2.386c-0.187,0.628-0.378,1.323-0.577,2.086
				c-0.2,0.763-0.379,1.473-0.537,2.129l-2.705,1.454v-0.646c0.107-0.076,0.226-0.156,0.355-0.241
				c0.129-0.085,0.261-0.178,0.39-0.277c0.195-0.154,0.355-0.343,0.481-0.568c0.125-0.226,0.247-0.545,0.368-0.956
				c0.102-0.357,0.229-0.786,0.383-1.285c0.153-0.498,0.296-0.978,0.432-1.438c0.236-0.808,0.522-1.502,0.859-2.083
				c0.335-0.582,0.747-1.091,1.233-1.526v-0.127c-0.185-0.119-0.345-0.261-0.479-0.424c-0.135-0.164-0.253-0.355-0.354-0.574
				c-0.098-0.202-0.178-0.411-0.243-0.624s-0.13-0.44-0.195-0.678c-0.046-0.182-0.1-0.388-0.159-0.62
				c-0.061-0.231-0.121-0.421-0.182-0.572c-0.069-0.162-0.15-0.303-0.243-0.419c-0.093-0.117-0.204-0.195-0.334-0.236
				c-0.052,0.162-0.115,0.352-0.194,0.573c-0.08,0.222-0.154,0.396-0.223,0.523c-0.098,0.181-0.193,0.324-0.286,0.436
				c-0.093,0.11-0.229,0.214-0.411,0.311c-0.25,0.134-0.434,0.121-0.55-0.038c-0.115-0.159-0.174-0.363-0.174-0.612
				c0-0.157,0.022-0.314,0.066-0.472s0.114-0.323,0.212-0.496c0.094-0.159,0.216-0.313,0.366-0.46
				c0.151-0.146,0.329-0.275,0.534-0.385c0.296-0.158,0.563-0.233,0.8-0.223c0.237,0.01,0.45,0.088,0.642,0.234
				c0.25,0.2,0.451,0.495,0.604,0.886c0.153,0.392,0.282,0.783,0.389,1.175c0.129,0.471,0.241,0.864,0.338,1.184
				c0.097,0.318,0.263,0.564,0.5,0.741c0.148,0.107,0.303,0.167,0.462,0.179c0.16,0.012,0.325-0.028,0.498-0.121l0.555-0.298v-4.324
				c0-0.207-0.026-0.37-0.079-0.494c-0.054-0.123-0.159-0.19-0.316-0.203c-0.125-0.013-0.273-0.002-0.444,0.028
				s-0.322,0.075-0.451,0.132v-0.646l4.087-2.183v0.645c-0.129,0.075-0.291,0.188-0.485,0.341c-0.193,0.151-0.337,0.273-0.43,0.366
				c-0.156,0.156-0.264,0.334-0.319,0.533c-0.056,0.2-0.083,0.399-0.083,0.599v4.414l0.555-0.297
				c0.171-0.092,0.339-0.23,0.503-0.415c0.164-0.186,0.315-0.408,0.454-0.67c0.199-0.373,0.36-0.797,0.485-1.272
				c0.124-0.475,0.243-0.99,0.358-1.549c0.106-0.511,0.237-1.043,0.392-1.598s0.353-1.06,0.592-1.515
				c0.181-0.338,0.393-0.643,0.637-0.912c0.245-0.27,0.511-0.481,0.796-0.634c0.199-0.106,0.372-0.166,0.52-0.183
				c0.148-0.015,0.272,0.007,0.374,0.068c0.092,0.054,0.161,0.138,0.208,0.252c0.045,0.114,0.068,0.253,0.068,0.416
				c0,0.134-0.016,0.271-0.045,0.414c-0.029,0.143-0.072,0.272-0.128,0.386c-0.065,0.138-0.136,0.256-0.215,0.355
				c-0.078,0.1-0.188,0.188-0.331,0.264c-0.152,0.081-0.285,0.118-0.398,0.112c-0.112-0.006-0.211-0.044-0.293-0.115
				c-0.084-0.07-0.158-0.164-0.226-0.283c-0.067-0.118-0.131-0.239-0.19-0.365c-0.129,0.178-0.238,0.375-0.329,0.589
				c-0.09,0.214-0.169,0.437-0.238,0.667c-0.06,0.202-0.121,0.457-0.184,0.766c-0.062,0.308-0.117,0.565-0.163,0.771
				c-0.045,0.225-0.107,0.51-0.187,0.854c-0.079,0.345-0.159,0.646-0.242,0.901c-0.097,0.306-0.213,0.622-0.351,0.95
				c-0.136,0.326-0.298,0.652-0.488,0.978v0.127c0.49-0.081,0.905-0.008,1.248,0.222c0.341,0.229,0.625,0.607,0.852,1.134
				c0.128,0.301,0.271,0.622,0.425,0.967c0.154,0.344,0.283,0.637,0.384,0.879c0.111,0.255,0.229,0.434,0.354,0.534
				c0.124,0.099,0.26,0.131,0.407,0.094c0.139-0.038,0.282-0.085,0.432-0.142c0.15-0.057,0.276-0.105,0.377-0.148V560.19z"/>
		</g>
	</g>
</g>
</svg>
